<?xml version="1.0" encoding="UTF-8" standalone="no"?>
<!-- Created with Inkscape (http://www.inkscape.org/) -->

<svg
   xmlns:dc="http://purl.org/dc/elements/1.1/"
   xmlns:cc="http://creativecommons.org/ns#"
   xmlns:rdf="http://www.w3.org/1999/02/22-rdf-syntax-ns#"
   xmlns:svg="http://www.w3.org/2000/svg"
   xmlns="http://www.w3.org/2000/svg"
   xmlns:sodipodi="http://sodipodi.sourceforge.net/DTD/sodipodi-0.dtd"
   xmlns:inkscape="http://www.inkscape.org/namespaces/inkscape"
   width="143.19501mm"
   height="193.46379mm"
   viewBox="0 0 507.38388 685.50162"
   id="svg3510"
   version="1.1"
   inkscape:version="0.91 r13725"
   sodipodi:docname="astronaut-2.svg">
  <defs
     id="defs3512" />
  <sodipodi:namedview
     id="base"
     pagecolor="#ffffff"
     bordercolor="#666666"
     borderopacity="1.0"
     inkscape:pageopacity="0.0"
     inkscape:pageshadow="2"
     inkscape:zoom="0.35"
     inkscape:cx="1114.4062"
     inkscape:cy="619.8937"
     inkscape:document-units="px"
     inkscape:current-layer="layer1"
     showgrid="false"
     fit-margin-top="0"
     fit-margin-left="0"
     fit-margin-right="0"
     fit-margin-bottom="0"
     inkscape:window-width="1920"
     inkscape:window-height="1056"
     inkscape:window-x="0"
     inkscape:window-y="24"
     inkscape:window-maximized="1" />
  <metadata
     id="metadata3515">
    <rdf:RDF>
      <cc:Work
         rdf:about="">
        <dc:format>image/svg+xml</dc:format>
        <dc:type
           rdf:resource="http://purl.org/dc/dcmitype/StillImage" />
        <dc:title></dc:title>
      </cc:Work>
    </rdf:RDF>
  </metadata>
  <g
     inkscape:label="Layer 1"
     inkscape:groupmode="layer"
     id="layer1"
     transform="translate(739.40623,-466.75426)">
    <g
       id="Layer_1"
       transform="translate(-1214.7237,431.65586)" />
    <g
       id="Layer_2"
       transform="translate(-1214.7237,431.65586)" />
    <path
       inkscape:connector-curvature="0"
       id="path5276"
       d="m -646.02373,923.05586 c -8.9,-3.2 -15.5,-9.3 -20.7,-17 -2,-2.9 -2.1,-5.6 -0.1,-8.8 3.8,-6.2 7.3,-12.6 10.8,-19 0.6,-1.2 1,-2.5 1.8,-4.5 -1.6,0.7 -2.6,1 -3.4,1.5 -11.8,6.7 -23.5,13.4 -35.3,19.9 -2.5,1.4 -5.3,2 -8.3,3 0.4,-4 3.5,-4.6 5.4,-5.8 -0.1,-1.6 -0.4,-2.9 -0.1,-4.1 0.4,-1.3 1.3,-2.4 2.1,-3.5 2.8,-3.4 5.7,-6.8 8.5,-10.1 0.2,-0.3 0.4,-0.7 0.4,-0.8 -1.8,-1.1 -3.4,-2.1 -5.5,-3.3 -4.2,0.2 -4.2,0.2 -4.9,-4.8 -1.4,-0.2 -3.2,-0.1 -4.2,-0.9 -1,-0.8 -1.1,-2.6 -1.6,-4 -0.3,0.1 -0.7,0.1 -1.1,0.2 -1.6,0.6 -3.3,0.9 -4.6,-0.6 -1.2,-1.5 0.1,-2.9 0.6,-4.2 0.6,-1.5 1.5,-2.8 2.3,-4.3 1.8,1.6 1.8,1.6 0.8,5.5 1.7,-0.1 3.4,-0.2 5.3,-0.4 0.2,1.8 0.4,3.1 0.6,4.5 1.3,0 2.5,0 4.2,0 0.4,1.5 0.9,3.1 1.4,4.9 0.9,-0.2 1.8,-0.5 3.2,-0.9 0.7,1.2 1.4,2.4 2.1,3.5 2,0.2 3.9,0.3 5.8,0.5 0.1,-0.3 0.2,-0.6 0.3,-1 -3.1,-2.1 -6.3,-4.2 -9.3,-6.4 -2.9,-2.1 -5.7,-4.3 -8.6,-6.5 -3.6,-2.8 -4.3,-7 -4.4,-11.1 0,-1.6 1.6,-3.4 2.7,-4.9 1.2,-1.7 3,-2.9 4,-4.7 4.3,-7.3 10.8,-7.6 18,-4.4 3.9,1.7 7.5,4 11.1,6.3 1.1,0.7 1.7,2.1 2.8,3.5 0.3,-1.1 0.7,-1.7 0.7,-2.4 0,-4.4 1.3,-8.2 3.8,-11.9 4.3,-6.5 8.1,-13.5 11.8,-20.3 5,-9.2 11.8,-17 18.8,-24.6 2.6,-2.9 4.9,-6 7.4,-8.9 2.5,-2.9 5.2,-5.7 7.9,-8.5 2.9,-2.9 5.9,-5.7 8.9,-8.5 0.1,-0.1 0.2,-0.2 0.3,-0.3 0.6,-5.1 5.1,-7.4 8.1,-10.6 2.3,-2.5 3.8,-4.9 3.8,-8.3 0.1,-4.5 3,-7.9 4.8,-11.7 1,-2 2.5,-3.6 3.7,-5.5 3.5,-5.3 7.1,-10.5 10.6,-15.8 0.5,-0.8 1.1,-1.5 1.7,-2.2 1.4,-1.8 2.8,-3.6 2.3,-6.2 -0.4,-2.2 0.8,-3.7 2.6,-4.8 1.3,-0.8 2.7,-1.3 4,-2.1 2.8,-1.5 5.2,-3.2 5,-6.8 0,-0.7 0.4,-1.7 0.9,-2.2 2.6,-2.3 5.2,-4.6 7.9,-6.7 1.1,-0.9 1.3,-0.7 3.7,0.7 -2.8,2 -5.5,4 -8.8,6.4 3.9,1.1 -0.3,5.8 4.3,6.5 0.7,-2.5 1.9,-4.7 4.3,-6.4 1.9,-1.4 3.9,-1.7 5.8,-0.8 2.1,1.1 3.7,2.9 3.7,5.6 0,0.4 0,0.8 0,1.2 -0.2,5.7 -0.8,6.5 -6.3,7.3 3,3.1 5.9,6.2 8.9,9.4 0.2,-0.1 0.3,-0.2 0.5,-0.3 -0.5,-1.6 -1.1,-3.2 -1.5,-4.9 -0.3,-1.7 -0.3,-3.4 0.1,-5.3 1.5,5.8 4.4,10.8 7.4,15.7 0.7,1.1 1.7,2 2.6,3 0.5,0.5 1.2,0.8 1.6,1.3 4.9,6.2 11.8,8.9 18.8,11.5 1.8,0.7 3.5,1.4 5,2.8 -1.3,-0.2 -2.5,-0.3 -3.8,-0.5 -2.9,3.5 -3,5.2 0.2,8 2.1,1.8 4.7,3.5 7.4,4.3 5,1.5 10.2,2.4 15.2,3.6 1.5,0.4 3,0.9 4.7,1.3 -0.4,0.9 -0.5,1.3 -0.6,1.6 -1.4,2.4 -0.7,4 1.9,4.1 4.2,0.1 7.7,-1.8 10.4,-4.9 0.8,-0.9 1.9,-1.6 3,-2.5 1.1,4.3 -2.2,5.8 -4,8.4 1.1,1.4 2.2,2.8 3.2,4.3 1.3,1.9 3.1,2.7 5.3,2.5 2.4,-0.2 3.2,1.2 4.3,3 2.5,4.4 5.4,8.6 8.1,12.9 0.5,0.8 0.9,1.7 1.4,2.5 0.4,-0.3 0.8,-0.6 1.3,-0.9 -0.7,-2 -1.3,-4.1 -2,-6.1 -0.3,-0.9 -0.9,-1.7 -1,-2.7 -0.1,-0.5 0.5,-1.4 1,-1.6 0.4,-0.2 1.3,0.1 1.7,0.5 0.5,0.6 0.7,1.5 1.2,2.2 1.8,2.6 3.6,5.2 5.5,7.7 0.6,0.8 1.6,1.1 2.8,1.4 -0.7,-3.3 -1.4,-6.5 -3.4,-9.2 -0.5,-0.7 -1.1,-1.3 -1.3,-2.1 -0.2,-0.5 0,-1.5 0.4,-1.8 0.4,-0.3 1.5,-0.3 1.8,0.1 1.1,1.1 2,2.3 2.8,3.5 1.6,2.3 3.3,4.4 6.5,4.3 1.1,-1.9 -0.4,-2.8 -1.3,-3.9 -1.7,-1.8 -3.4,-3.6 -5,-5.5 -0.5,-0.6 -1.1,-1.4 -1.2,-2.1 -0.1,-0.7 0,-2 0.4,-2.2 0.7,-0.3 2.1,-0.3 2.5,0.1 2,2.2 3.9,4.6 5.8,7 0.9,1.2 1.6,2.6 3.5,2.5 1.1,-1.6 0,-2.7 -0.9,-3.7 -1.4,-1.5 -3,-2.9 -4.4,-4.4 -3.6,-3.8 -7.2,-7.6 -10.5,-11.6 -1.5,-1.9 -2.4,-4.3 -3.7,-6.8 7.3,0.9 12.5,4.9 16.9,10.2 1.6,2 1.3,3.1 -1,5.3 1.5,1.6 3.1,3.1 4.5,4.7 1.5,1.7 2.8,3.5 2.3,5.9 -0.2,1 -0.8,2.8 -1.2,2.8 -3.4,0.2 -3.3,5.7 -7.4,4.5 -0.8,-0.2 -1.6,-0.3 -2.7,-0.4 -0.1,0.9 -0.2,1.7 -0.2,2.4 -0.2,3.2 -1.9,4.4 -4.9,3 -1.5,-0.7 -2.7,-1.9 -4.3,-3 -0.5,1.2 -0.9,2.3 -1.4,3.6 -2.5,-0.3 -3.9,-2 -5,-3.6 -3.3,-4.4 -6.3,-9 -9.3,-13.6 -0.8,-1.3 -1.3,-2.7 -3.2,-2.9 -4.1,-0.6 -6.7,-3.3 -9,-6.5 -0.4,-0.6 -0.8,-1.1 -0.9,-1.3 -3.1,0 -5.8,0.3 -8.5,-0.1 -3.2,-0.4 -3.9,-3 -3.5,-5.8 -5.9,-1.3 -11.4,-2.6 -17,-3.8 -0.1,0.2 -0.2,0.3 -0.3,0.5 18.5,18.5 37.1,36.9 55.9,55.7 19.4,-17.2 39.1,-34.6 59.2,-52.3 -2,-1.3 -3.9,-2.4 -5.7,-3.6 -15,-9.8 -30,-19.8 -43.4,-31.8 -13.1,-11.8 -24.4,-25.1 -34,-39.9 -1.7,-2.6 -3.1,-5.5 -5,-8.6 -1.1,1 -1.9,1.8 -2.8,2.6 -7,7.4 -15.8,11.9 -25,15.7 -0.8,0.3 -1.8,0.1 -3,0.2 8.8,-5.2 17.2,-10.2 24.3,-17 4.2,-4 7.8,-8.6 9.8,-14.1 3.6,-9.5 1.4,-15.3 -6,-20.1 -3.9,-2.5 -8.2,-4.4 -12.5,-6.4 -2.9,-1.4 -6,-2.1 -8.8,-3.6 -3.3,-1.7 -6.5,-1.8 -10,-0.9 0.7,-2.6 1.4,-3.1 4,-3.4 3.4,-0.5 6.6,0.8 9.6,2 5.5,2.3 10.9,4.7 16.2,7.3 4.9,2.4 8.9,6 11.6,11.2 2.7,-3.2 5.3,-6.1 7.7,-9.1 7.2,-9.1 14.6,-17.9 24,-24.9 14.2,-10.5 29.4,-19.5 45.2,-27.2 11,-5.4 23,-8.2 35.1,-10.6 12,-2.3 24.1,-2.4 36.2,-3 6,-0.3 12.1,0.1 18.2,1.9 -7,0.4 -13.7,0.8 -20.4,1.2 -13.2,0.9 -26.4,2.3 -39.3,5.2 -10.9,2.4 -21.7,5.7 -31.5,11.2 -10.9,6.2 -21.7,12.7 -32.5,19.1 -1.4,0.8 -2.7,1.8 -4.3,2.9 0.6,1.3 1,2.6 1.6,3.8 6.2,10.6 12.2,21.3 18.9,31.6 6.7,10.3 15.1,19.3 23.9,27.9 11.4,11.1 24.2,20.6 36.7,30.3 2.6,2 5.2,4 8.1,6.3 3.1,-3 6.2,-5.8 9.1,-8.8 10.4,-10.8 19.7,-22.5 27.3,-35.3 5.9,-9.9 10.2,-20.8 15,-31.3 0.9,-1.9 1.2,-4.3 1.1,-6.4 -0.3,-9.1 -0.4,-18.2 -1.3,-27.2 -0.8,-8.1 -3,-15.9 -6.1,-23.5 -1,-2.3 -0.8,-2.4 0.4,-4.7 3.1,5 5.9,10 7.4,15.5 3.2,11.2 3.8,22.7 4.7,34.3 0.8,10.8 -3.9,19.5 -8.7,28.4 -0.7,1.2 -1.5,2.4 -2,3.6 -3.8,11.2 -11,20.4 -17.9,29.6 -6.9,9.3 -14.9,17.7 -23.1,25.9 -14.2,14.2 -28.8,27.9 -43.7,41.3 -21.1,18.8 -42.2,37.7 -63.3,56.5 -1.9,1.6 -3.2,3.3 -2.7,5.9 -3.1,-3.2 -6.3,-6.5 -9.4,-9.7 -12.6,-12.6 -25.1,-25.2 -37.7,-37.9 -9.7,-9.7 -19.4,-19.2 -28.9,-29 -2.4,-2.4 -4,-5.6 -5.9,-8.4 -0.9,-1.3 -1.6,-2.9 -2.8,-3.9 -4.4,-3.9 -9.3,-7.4 -13.5,-11.5 -6.3,-6.3 -13.6,-11.8 -18,-19.9 -0.2,-0.3 -0.6,-0.5 -1.1,-0.8 -1.4,1.7 -2.6,3.6 -4.3,5 -1.7,1.4 -3.7,2.3 -5.7,3.3 -1.8,1 -1.7,2.3 -0.9,3.8 0.9,1.7 2.3,3.5 2.3,5.2 0,2.2 1.1,3.2 2.5,4.4 8.8,7.7 17.9,15.2 26.4,23.2 16.2,15.4 32.2,31.1 48.1,46.8 10.9,10.8 21.6,21.7 32.4,32.6 0.6,0.6 1,1.3 1.4,1.9 2,3.1 4.6,3.8 7.6,1.8 1.8,-1.2 3.1,-3 4.7,-4.5 0.9,-0.9 1.9,-1.8 2.8,-2.6 0.7,0.1 1.4,0.2 2.3,0.3 -2.9,5.5 -6.2,9.8 -12.1,11.5 -1.1,0.3 -1.9,0.4 -3,0 -1.9,-0.7 -3.6,-0.3 -5.2,1.3 -5.4,5.3 -11.2,10.3 -16.5,15.7 -3.1,3.1 -5.6,6.7 -8.4,10.2 2.1,2.4 4,4.5 6.5,7.2 -1.5,-0.1 -2.1,-0.1 -3,-0.2 -0.3,0.8 -0.6,1.7 -1,2.5 -3,6.7 -7.5,9.5 -14.8,8.2 -3.2,-0.5 -5.1,0.2 -7.2,2.4 -3.8,4.2 -8,8 -11.9,12.1 -0.8,0.8 -1.7,2.1 -1.6,3.1 0.3,3.4 -1,6.3 -2.5,9 -6.5,12.5 -13.2,24.9 -21.4,36.3 -6.8,9.5 -13.9,18.9 -20.8,28.4 -3,4.1 -6.1,8.2 -9,12.4 -2,2.9 -3.9,5.6 -7,7.5 -1.9,1.1 -3.4,2.7 -5.5,4.5 3.4,-15 6.7,-29.4 12.2,-43 -9.6,-8 -18.9,-15.7 -29.5,-21.8 -4,-2.3 -7.1,-5.9 -10.9,-9.2 -9.9,8.2 -20.2,16.4 -32.1,22.4 3.4,6.8 9,10.7 14.9,14.4 5.3,3.4 10.6,6.9 16.2,10.6 -3.8,0.8 -6.6,-0.3 -18.8,-8.2 -5.8,-3.8 -11.4,-7.9 -13.6,-15.3 -3,1.8 -4.9,4.8 -8.6,5.2 1.8,-2.4 2.7,-5.5 3.8,-8.6 8.1,-11.3 16.6,-22.3 22.5,-35.2 -8.6,-5.7 -17.2,-10.9 -23,-19.6 -1.6,1 -3.1,1.8 -4.3,2.6 -0.5,5.4 -2.3,10 -5,14.4 -2.7,4.5 -5,9.2 -7.7,13.6 -1.3,2.2 -1.1,3.9 0.3,5.7 2,2.5 4,4.9 6.2,7.2 3.1,3 6.4,5.7 9.5,8.6 0.7,0.6 1,1.8 1.5,2.7 z m 74.1,-211.9 c -4.3,0.9 -4.9,5.1 -6.9,7.3 2.8,10 11,15.1 17.2,21.7 -4.2,-2.1 -8,-4.9 -11,-8.3 -3,-3.4 -5.3,-7.4 -8.1,-11.6 -2.6,4.5 -5,8.7 -7.2,12.5 4.4,9.5 11.3,16.2 18.1,23.3 0.9,-1.2 1.6,-2.1 2.4,-3.1 -6.8,-4.5 -13.1,-9.2 -16.2,-16.9 4.4,6.5 10.5,11.2 17.1,15.6 7.9,-8.8 15.7,-17.6 23.6,-26.3 -0.5,-0.5 -0.9,-1.1 -1.4,-1.5 -6.5,-6 -13,-11.9 -19.6,-17.8 -1,-0.9 -2.1,-1.7 -3.3,-2.4 -1.3,-0.8 -2.4,-0.3 -3.2,0.9 -0.9,1.5 -1.8,3.1 -2.5,4.7 -0.4,0.8 -0.5,1.7 1,1.9 l 0,0 z m 2.8,163.1 c -8,6.3 -15.6,12.2 -23.3,18.3 1.3,1.5 2.4,2.9 3.7,4.1 3.3,2.9 6.7,5.8 10.2,8.5 4,3.1 8.2,6.1 12.2,9.2 1.3,1 3,1.7 3.6,4.1 -4.2,-1.3 -7.9,-2.2 -11,-4.6 -2.9,-2.3 -6,-4.4 -8.9,-6.8 -4.6,-3.9 -9.7,-7.2 -12.5,-12.9 -3.2,2.5 -6.3,4.9 -9.4,7.3 3.3,4.1 7.1,6.9 11.2,9.2 9.3,5.1 17.5,11.5 25.1,18.8 0.7,0.7 1.6,1.3 2.7,2.1 7.4,-17.8 14.6,-35.2 21.9,-52.8 -1.6,-0.5 -3.1,-1.1 -4.6,-1.6 10,-0.4 19.8,-0.4 29.5,-0.3 2,0 3.3,-0.4 4.6,-2 4.2,-4.9 8.6,-9.7 12.9,-14.6 0.6,-0.7 1.1,-1.5 1.2,-1.7 -3.9,-4.2 -7.2,-8.5 -11.3,-12 -10.4,-8.7 -19.8,-18.4 -28.3,-29 -2.1,-2.6 -4.3,-5.1 -6.6,-7.4 -10.2,-10.3 -20.4,-20.6 -30.6,-30.9 -1.1,-1.2 -2.1,-2.6 -3.3,-4.2 -2.1,2.6 -3.6,4.6 -5.2,6.5 -9.1,11.4 -17.1,23.8 -28.4,33.4 -0.9,0.8 -1.4,2.3 -1.6,3.6 -1,6.1 -2.1,12.3 -2.6,18.4 -0.3,4.6 -2.5,9.1 0,14.1 -3.7,2.3 -7.2,4.5 -10.7,6.6 -2.2,1.3 -2.5,2.2 -1.2,4.3 3.1,5 7.8,8.2 13.1,11.8 3,-6.4 5.9,-12.3 8.6,-18.3 1.7,-3.7 2.7,-7.8 7.4,-9 0.4,-0.1 0.7,-0.4 1.1,-0.6 6,-3.4 11.9,-7 17.9,-10.3 3.2,-1.8 6.7,-3.1 10.1,-4.7 -0.6,1.3 -1.5,1.9 -2.4,2.5 -8.8,5.2 -17.5,10.5 -26.3,15.5 -2.8,1.6 -4,3.9 -5.1,6.6 -3,7.3 -5.8,14.7 -9,21.9 -1.6,3.7 -3.8,7.2 -5.6,10.7 0.7,1.5 1.2,2.6 1.9,4.1 -1.3,-0.6 -2.1,-1 -2.4,-1.1 -6.7,10.4 -13.2,20.5 -20.1,31.3 1.5,-0.8 2.3,-1.2 3.2,-1.6 10.5,-5.6 19.5,-13.4 28.9,-20.6 7.2,-5.5 14.7,-10.7 22.1,-16 4.2,-3.1 8.5,-6.1 12.6,-9.3 0.9,-0.7 1.5,-2.3 1.7,-3.5 0.3,-3.3 0.4,-6.6 0.3,-9.9 -0.2,-10.6 0.4,-21.1 2.2,-32.1 2.1,3.6 1.8,7.1 1.6,10.6 -0.1,2.1 -0.5,4.1 -0.5,6.2 -0.1,6.6 0,13.3 -0.1,19.9 0.2,2.8 -0.3,5.6 -0.5,8.2 z m 234.4,-171.2 c -7.1,-5.3 -14,-10.6 -21,-15.7 -10.5,-7.5 -20,-16.1 -29,-25.3 -6,-6.1 -11.8,-12.4 -16.9,-19.3 -8.3,-11.2 -15.4,-23.2 -21.4,-35.8 -0.5,-1.1 -1.2,-2.1 -1.9,-3.4 -7.1,4.7 -12.7,10.5 -18.1,16.6 -5.3,5.9 -10.3,12.1 -17.4,16.7 1.7,8.4 -2,15.4 -6.3,22.2 0.9,1.5 1.7,2.6 2.4,3.8 9.1,16.3 20.9,30.5 34.4,43.2 14.3,13.5 30.8,24.1 47.2,34.9 1.4,0.9 2.8,1.7 4.1,2.5 6,-4 35.5,-31.4 37.4,-34.8 -22.1,-11.1 -40,-27.4 -55.7,-46.2 -9.5,-11.3 -18.3,-23.2 -27.2,-34.9 -4,-5.2 -6.2,-11.2 -6.8,-18 2.1,0.3 2.3,2 2.8,3.3 2.2,6.3 5.5,12 9.7,17.2 4.3,5.4 8.5,10.9 12.6,16.5 9.5,13 20.1,24.9 31.8,35.9 10.4,9.8 22.2,17.7 35,24.6 1.4,-1.4 2.8,-2.6 4.3,-4 z m -232.5,55.6 c 1.3,1.5 2.1,2.5 3,3.3 13.2,13.3 26.3,26.7 39.6,39.9 11.5,11.5 23.2,22.8 34.9,34.1 1.9,1.9 4.2,3.4 5.9,4.8 4.9,-5.1 9.3,-10 14,-14.7 4.7,-4.7 9.7,-9.3 14.6,-13.9 -28.3,-28.3 -55,-57.7 -85,-84.4 -9,10.3 -17.9,20.5 -27,30.9 z m -32.4,-6.4 c 1.7,1.2 3.1,1.9 4.1,2.9 3.4,3.3 6.6,6.6 9.9,10 13.3,13.4 26.6,26.8 39.9,40.3 2.5,2.5 5.1,5.1 7.3,7.8 9,11.2 18.8,21.6 29.9,30.8 5.1,4.3 9.9,9.1 14,14.5 0.6,0.8 1.9,1.6 3,1.7 5.9,0.7 10.1,-2 12.2,-7.6 0.8,-2 0.9,-3.7 -1.2,-5 -0.9,-0.6 -1.6,-1.5 -2.4,-2.2 -5.1,-4.2 -10.5,-8 -15.1,-12.6 -16.3,-16.1 -32.3,-32.4 -48.5,-48.7 -7.7,-7.7 -15.6,-15.2 -23,-23.1 -6,-6.4 -11.3,-13.5 -16.9,-20.3 -0.3,-0.4 -0.8,-0.6 -1.2,-0.9 -2.7,2.3 -3.4,5.3 -3.9,8.9 -0.8,-0.9 -1.3,-1.4 -1.6,-1.8 -2.3,1.6 -4.4,3.4 -6.5,5.3 z m -19.5,22.5 c 4,1.6 3.8,5.1 5.1,7.7 0.9,1.7 0.5,3.2 -0.7,4.5 -2.7,3 -5.3,6 -8.1,8.8 -3.1,3.2 -6,6.6 -7.1,11.3 2.1,-1.9 4.3,-3.8 6.4,-5.8 0.3,0.2 0.5,0.4 0.8,0.6 -0.6,1.3 -1,2.8 -1.9,3.8 -2.6,2.5 -5.3,4.8 -8.2,6.9 -2.9,2.2 -4.5,1.9 -7.2,-0.7 -1.4,-1.3 -2.6,-2.7 -4,-4.2 -3.2,5.1 -6.4,9.9 -9.5,14.8 -1.2,2 -1.8,4.4 -3.3,6.1 -2.3,2.6 -3.4,5.6 -4.1,8.9 -1.3,5.4 -1.3,5.4 3.7,8.2 0.3,0.2 0.7,0.2 1,0.3 6.7,-6.4 13,-13 20,-18.8 6.9,-5.8 12.6,-13 20.3,-18 0.6,1.3 1.1,2.1 1.8,3.5 10.5,-13.7 20.6,-26.9 30.9,-40.2 -5.3,-5.6 -10.5,-11.1 -15.6,-16.6 -4.3,0.2 -6.9,2.8 -9.1,6.1 -0.9,1.4 -2,2.6 -3.1,3.8 -2.5,2.9 -5.1,5.7 -8.1,9 z m 77.8,103.7 c -0.4,1.5 -0.6,2.9 -1.1,4.2 -4.4,11.4 -8.6,23 -13.3,34.3 -5.3,12.7 -10.6,25.4 -14.3,38.7 -0.9,3.1 -1.6,6.3 -2.4,9.4 20.2,-26.5 41.1,-52.5 55.8,-82.5 -1.2,0.3 -2.2,0.5 -3.3,0.7 0.2,-1 0.4,-1.9 0.5,-2.9 0,-0.2 -0.2,-0.4 -0.4,-0.8 -3.9,-0.4 -7.8,-0.9 -11.8,-1.1 -3.1,-0.1 -6.2,0 -9.7,0 z m -130.8,-11.2 c 0.4,0.7 0.7,1.3 1.3,2.4 -3.7,-0.7 -5.6,1.1 -7.4,3.3 -1.6,1.9 -3.3,3.7 -4.9,5.6 -3.1,3.6 -6.1,7.2 -9.1,10.9 24.7,-11.6 47.4,-26.9 71.8,-38.9 -0.1,-1.2 -0.2,-2.2 -0.3,-3.1 -0.3,-4.2 -1.6,-8.7 -0.5,-12.6 1.6,-6 0.9,-12.2 3.2,-18 0.3,-0.7 0,-1.5 0,-2.9 -18.3,17.8 -36.1,35.4 -54.1,53.3 z m 14,-19 c -1.2,-0.6 -2.3,-1 -3.1,-1.7 -1.7,-1.5 -3.8,-2.9 -4.9,-4.8 -1,-1.8 -2.2,-2.9 -4.1,-3.5 -1.9,-0.7 -3.8,-1.7 -5.6,-2.6 -1.4,-0.7 -2.6,-1.6 -4,-2.2 -6.1,-2.2 -10,-1.4 -12.9,3.5 -1,1.6 -2.3,3.2 -3.7,4.4 -2.7,2.2 -3,4.9 -1.6,7.7 0.8,1.7 1.8,3.6 3.2,4.6 4.8,3.7 9.8,7.1 14.9,10.5 2.4,1.6 3.2,1.4 5.5,-0.7 4.9,-4.4 9.8,-8.9 14.7,-13.4 0.6,-0.3 1,-1 1.6,-1.8 z m 38.8,-72.2 c -7.3,8.7 -15.3,16 -21.1,25.4 2.3,1.9 4.2,3.6 6.4,5.5 3.2,-6.3 7.4,-11.4 12.5,-16 2.1,-1.9 3.6,-4.4 5.3,-6.6 -1,-2.7 -1.9,-5.1 -3.1,-8.3 z m 1.1,100.3 c -6.6,-4.1 -12.6,-8.1 -15.1,-15.5 -3.6,1.5 -7,3.2 -9.8,6.2 5.3,8 13.8,12 20.7,18.6 1.5,-3.3 2.8,-6.1 4.2,-9.3 z m 113.8,-150.9 c -3.3,-1.3 -6.4,-2.5 -9.4,-3.7 -0.2,0.2 -0.3,0.4 -0.5,0.5 2.4,2.5 4.7,5.1 7.3,7.8 1,-1.9 1.8,-3.2 2.6,-4.6 z m -136.6,77.1 c -0.7,1.2 -1.2,2.1 -1.7,2.9 4,5.8 5.7,6.6 8.6,4.6 -2.2,-2.4 -4.4,-4.7 -6.9,-7.5 z" />
    <path
       inkscape:connector-curvature="0"
       id="path5278"
       d="m -619.42373,1116.4559 c -0.5,0.1 -1,0.3 -1.5,0.2 -6.3,-0.8 -12.6,-0.2 -18.9,-1.4 -6,-1.2 -10.9,-3.6 -14.7,-8.3 -0.4,-0.5 -1,-1 -1.4,-1.5 -0.1,-0.1 -0.2,-0.1 0.2,0.1 -5.5,0.2 -10.5,1 -15.4,0.4 -7.7,-1 -12.1,-3.9 -12,-12.8 0,-8.5 4.5,-14.6 11.3,-19.1 12.4,-8.2 26.1,-13.6 40,-18.7 9.8,-3.6 19.8,-6.7 29.7,-10.3 3.9,-1.4 7.5,-3.4 11.2,-5.4 1.3,-0.7 2.5,-1.8 3.4,-2.9 2.4,-3.2 2.1,-6.9 -0.8,-9.7 -5.3,-5.3 -10.6,-10.4 -15.9,-15.7 -5.6,-5.5 -11.3,-11 -16.7,-16.60004 -4.7,-4.9 -7.6,-10.8 -7.3,-17.8 0.2,-5.6 2.7,-10.3 5.7,-14.8 2.6,-3.8 5.6,-7.1 10.5,-8 -0.7,0.7 -1.3,1.6 -2,2.2 -4.6,3.6 -7.5,8.4 -9.8,13.6 -3.2,7.1 -1.7,13.8 2.5,19.9 1.7,2.6 4.1,4.7 6.1,7 0.2,-0.2 0.5,-0.3 0.7,-0.5 -0.2,-1.4 -0.6,-2.9 -0.7,-4.3 -0.5,-4.3 0.3,-8.6 1.8,-12.6 2,-5.4 4.3,-10.7 7.2,-15.8 -0.2,1 -0.4,2.1 -0.7,3.1 -1.7,5.5 -3.6,11 -5.2,16.5 -2,7 -0.2,13.4 3.7,19.20004 0.7,1.1 2,1.9 3,2.8 5.3,4.7 11.1,8.8 15.6,14.1 4.6,5.3 8.6,11 13.4,16.2 3.2,3.4 5.8,7.4 7.8,11.6 3.6,7.3 1.7,13.2 -5.5,17.6 -3.7,2.3 -7.8,4.1 -12,5.5 -11.5,3.8 -23.2,7 -34.7,10.9 -9.2,3.1 -18.8,5.6 -26.9,11.5 -1,0.7 -2.1,1.4 -3,2.2 -3.8,3.5 -3.9,8.4 -0.3,12.2 2.8,3.1 6.2,4.9 10.3,5.5 6.7,0.9 13.3,2 20,3 0.5,0.1 1,0.2 1.5,0.3 -0.1,0.3 -0.2,0.5 -0.2,0.6 z m 35.9,-84.1 c -0.7,4.1 -2.2,7.3 -5.4,9 -4.3,2.4 -8.7,4.8 -13.3,6.5 -11.6,4.4 -23.4,8.1 -35,12.6 -11.4,4.5 -22.8,9.1 -33.1,15.9 -5.8,3.9 -9.6,9 -10.3,16.2 -0.4,4.9 1.4,8 5.7,10.3 3.3,1.7 6.7,1.3 10.1,1.4 2.8,0.1 5.6,0 8.8,0 -0.9,-4 -0.2,-7.2 2.1,-9.8 1.4,-1.6 3.3,-2.9 5.1,-4.2 8.2,-5.9 17.9,-8.4 27.3,-11.6 11.6,-3.9 23.4,-7.2 35.1,-11 3.4,-1.1 6.7,-2.6 9.8,-4.3 7.2,-4 8.9,-9.4 5,-16.6 -2.9,-5.3 -6.8,-9.9 -11.9,-14.4 z" />
    <path
       inkscape:connector-curvature="0"
       id="path5280"
       d="m -500.62373,627.25586 c 0.1,-3.4 -0.2,-4.3 -2.3,-6.8 1.5,-1.1 2.7,-0.3 3.4,0.9 2.8,4.6 5.5,9.5 5.5,14.9 0,3.2 -1.5,6.7 -3.2,9.6 -2.7,4.6 -5.9,9 -9.3,13.1 -2.6,3.1 -5.9,5.6 -9.3,8.9 0.2,-1.8 0.4,-3.2 0.5,-4.4 -3.1,-1 -6.1,-1.8 -9,-3 -2.8,-1.1 -5.5,-2.6 -6.2,-6.1 -0.1,-0.6 -0.7,-1.3 -1.2,-1.6 -3.3,-1.4 -2.6,-4.1 -2.1,-6.6 2.1,-10.1 8.8,-17.2 16.3,-23.6 2.5,-2.1 5.1,-4.1 7.8,-6 1.3,-0.9 2.6,-2.2 4.9,-0.5 -0.6,0.9 -1,2.1 -1.8,2.8 -2,1.8 -4.2,3.6 -6.4,5.1 -5.9,4 -10.4,9.4 -14.3,15.3 -1.6,2.4 -2.7,5.1 -3.7,7.8 -0.3,0.8 0.7,2.1 1.2,3.1 0.9,-0.4 2,-0.7 2.7,-1.4 0.5,-0.5 0.5,-1.6 0.9,-2.3 1.9,-3.2 3.6,-6.5 5.8,-9.4 3.3,-4.2 6.9,-8.2 10.6,-12.2 3.2,-3.4 5,-3.2 8,0.4 0.5,0.7 0.8,1.3 1.2,2 z m -17.1,15.7 c -0.3,-0.2 -0.5,-0.3 -0.8,-0.5 -1.1,1.8 -2.1,3.6 -3.2,5.4 0.3,0.2 0.5,0.3 0.8,0.5 1.1,-1.9 2.1,-3.6 3.2,-5.4 z" />
    <path
       inkscape:connector-curvature="0"
       id="path5282"
       d="m -565.72373,630.45586 c -1.2,-0.1 -2.4,-0.2 -4.4,-0.3 1.1,-0.8 1.6,-1.5 2.3,-1.8 12.1,-5.3 16.6,-15.3 17.3,-27.7 0.5,-9.1 -2.8,-17.3 -6.8,-25.3 -2.6,-5.3 -7.3,-7.8 -12.7,-9 -3.9,-0.9 -7.9,-1.1 -11.9,-1.3 -5.7,-0.2 -11.3,-0.1 -17,0 -3.7,0 -7.1,0.7 -9.4,4.1 -0.6,0.8 -1.4,2.1 -2.9,0.6 -0.2,-0.2 -1.9,0.9 -2.7,1.6 -11.2,8.5 -18.2,19.8 -22.1,33.1 -2.4,8.1 -0.9,15.6 4.9,21.9 3,3.2 6.2,6.3 9.6,9 4.5,3.7 10.1,4.5 15.7,3.6 5.2,-0.8 10.2,-2.2 15.4,-3.3 1.9,-0.4 3.8,-0.8 5.7,-1 3,-0.3 6,-0.4 9.9,-0.7 -1.4,1.2 -2.2,2.5 -3.3,2.7 -9.7,2.2 -19,5.7 -29,6.4 -8.3,0.6 -15.2,-2.2 -21.1,-7.8 -4.9,-4.6 -9.6,-9.5 -11.7,-16.2 -1.8,-5.9 -1.6,-11.7 0.6,-17.4 1.9,-4.9 3.8,-9.8 6.4,-14.3 2.2,-3.8 4.8,-7.5 8.1,-10.3 4.4,-3.9 9.9,-6.6 14.3,-10.5 4.9,-4.4 10.6,-4.9 16.6,-4.9 8,0.1 16,-0.4 23.9,1.3 7.7,1.6 13.8,5.4 17,12.8 2.2,5.2 4.6,10.4 5.7,15.9 2.2,10.8 0.6,21 -6.1,30.2 -3.3,4.4 -7.4,7.1 -12.5,8.7 0,0 0.2,-0.1 0.2,-0.1 z" />
    <path
       inkscape:connector-curvature="0"
       id="path5286"
       d="m -724.92373,1100.2559 c -3.6,-0.6 -6.2,-2.6 -8.5,-4.9 -2,-2 -3.9,-3.9 -5,-6.9 -2.5,-7.4 0.1,-13.7 4.1,-19.4 8.7,-12.4 20.6,-21.2 34,-28.3 9.5,-5 18.5,-10.9 27.8,-16.3 5,-2.9 10.2,-5.4 14.8,-9 3.4,-2.7 6,-5.9 7.5,-9.7 1,-2.5 0.6,-5.7 0.2,-8.50004 -0.5,-3.6 -2.4,-6.7 -4.6,-9.6 -6.8,-8.7 -14,-17.1 -22.1,-24.6 -4.5,-4.2 -8.4,-9 -12.4,-13.8 -2.6,-3.2 -2.3,-7.1 -0.9,-10.6 3.2,-7.8 8,-14.1 16.5,-16.8 4,-1.3 7.8,-3 12,-4.7 0.1,2.2 -1.3,2.7 -2.5,3.2 -3.4,1.7 -6.8,3.6 -10.4,5.1 -6.6,2.9 -10,8.5 -12.5,14.7 -1,2.6 -0.8,5.2 0.9,7.5 1,1.3 1.9,2.8 3,4 2.8,3 5.6,6.2 8.6,8.9 8.5,7.6 15.5,16.5 22.5,25.3 4.3,5.5 6.1,11.6 5.5,18.50004 -0.1,0.8 -0.1,1.7 -0.5,2.4 -2.6,4.2 -5.1,8.4 -9.3,11.5 -7.9,5.9 -16.8,10 -25.1,15.1 -8.2,5.1 -16.7,9.6 -25.1,14.4 -9.7,5.5 -17.8,12.9 -25,21.4 -3,3.5 -4.6,7.6 -5.6,11.8 -1,4.1 0.2,8.3 3.2,11.5 2.7,2.7 5.8,5 8.9,7.8 z" />
    <path
       inkscape:connector-curvature="0"
       id="path5290"
       d="m -438.92373,466.75586 c 17.9,0.3 32.9,8.6 43.7,24.4 11.5,16.9 11.5,44.3 -6.7,62.8 -24.6,25 -71,21.1 -88,-15.2 -8.3,-17.7 -5.6,-41.3 12,-57.6 10.7,-9.9 23.2,-14.5 39,-14.4 z m -0.1,101.2 c 10.3,0 21,-3.6 30.2,-10.7 20.9,-16.2 23.4,-40.4 15.6,-58.2 -14.5,-33.1 -59.4,-40.8 -85.1,-14.9 -17.4,17.5 -17.6,44.2 -6.3,60.5 10.6,15.2 25.2,23.1 45.6,23.3 z" />
    <path
       inkscape:connector-curvature="0"
       id="path5292"
       d="m -374.42373,605.75586 c -0.2,1.6 -0.4,3.2 -0.7,5.5 1.2,-1.7 2,-2.9 2.8,-4.2 3.9,-6.2 9.1,-11.1 15.4,-14.6 5.7,-3.1 11.9,-3.3 18,-1.3 6.6,2.2 11.8,6.5 16.6,11.3 4.3,4.4 5.7,9.9 5.1,16 -0.8,8.7 -3.2,16.5 -10,22.4 -4.2,3.6 -9.2,5.5 -14.6,6 -4,0.4 -8,0.3 -12,-0.1 -7.3,-0.6 -14,-3 -19.3,-8.3 -4.2,-4.2 -6.2,-9.4 -5.8,-15.4 0.5,-6 1.5,-11.9 4.5,-17.3 z m 38.2,36.2 c 2.7,-0.8 4.7,-2.5 6.6,-4.5 1.8,-2.2 3.3,-4.8 5.5,-6.5 3,-2.4 3.7,-5.7 4.2,-9.1 1,-6.6 0.7,-13.1 -4.5,-18.1 -2.7,-2.6 -5.5,-5 -8.6,-7.1 -6.8,-4.7 -14.4,-6 -22,-2.5 -7.2,3.4 -12.9,9.1 -16.4,16.3 -3.4,7.1 -3.5,14.4 0.5,21.4 0.6,1.1 1.9,1.8 2.8,2.6 0.7,0.7 1.3,1.3 2,2 0.4,0.6 0.7,1.5 1.3,1.9 7.8,4.8 16.4,6.1 25.4,5.1 1.1,0 2.1,-0.9 3.2,-1.5 z" />
    <path
       inkscape:connector-curvature="0"
       id="path5296"
       d="m -362.02373,937.95586 c -18.4,0 -31.2,-6.7 -40.6,-19.8 -10.5,-14.7 -9.8,-37.6 5.3,-52.7 20.4,-20.4 55.9,-17.1 71.8,6.9 12.1,18.3 7.7,42.2 -10.2,56.1 -8.3,6.6 -17.8,9.7 -26.3,9.5 z m -1.8,-84 c -10.5,-0.1 -19.8,2.9 -28.1,9.3 -19,15 -19,38.2 -9.9,52.6 17,26.7 57.7,27.1 74.8,0.5 8.7,-13.5 9,-27.7 0.7,-41.4 -8.3,-14 -21.3,-20.6 -37.5,-21 z" />
    <path
       inkscape:connector-curvature="0"
       id="path5298"
       d="m -665.92373,697.85586 c -14.1,0 -25.6,-11.2 -25.5,-25 0.1,-13.7 11.5,-24.8 25.4,-24.8 14,0 25.6,11.4 25.5,25.1 -0.2,13.7 -11.5,24.7 -25.4,24.7 z m 0.1,-47.8 c -13.2,-0.1 -23.4,9.8 -23.5,22.6 -0.1,13 9.9,23.1 22.9,23.2 13.4,0.1 23.7,-9.8 23.7,-22.8 0.1,-12.9 -10,-22.9 -23.1,-23 z" />
    <path
       inkscape:connector-curvature="0"
       id="path5300"
       d="m -723.72373,1036.5559 c 0.2,0.8 0.5,1.8 0.6,2.7 0.3,3.1 -0.4,4.2 -2.4,4.3 -2.8,0.2 -5,-1.6 -4.9,-4.3 0,-1.5 0.2,-3.1 0.7,-4.5 1.6,-4.6 4.5,-8.1 8.4,-10.9 4.1,-2.9 8.9,-4.2 13.7,-5.7 2.8,-0.9 5.3,-1.9 7,-4.5 0.9,-1.4 2.1,-0.9 3.1,0.1 1.7,1.8 1.5,5.3 -0.7,7 -2.5,1.9 -5.3,3.4 -8.1,4.9 -2,1.1 -4.2,2.1 -6.4,2.9 -4.2,1.8 -8,3.9 -11,8 z m 18.9,-15.2 c -5.9,1.3 -11.9,2.7 -16.2,7.5 5.4,-2.5 10.8,-5 16.2,-7.5 z" />
    <path
       inkscape:connector-curvature="0"
       id="path5306"
       d="m -696.72373,762.65586 c 3.3,3.7 3.8,8.4 8.1,10.6 -2.4,1.9 -2.4,1.9 -7.5,-5 -1.2,2.5 -2.5,4.7 -5.4,5.3 -1.3,3.6 -5.2,0.7 -7.4,3.2 1.5,1.2 3.3,2.2 4.5,3.7 1.2,1.6 1.8,3.6 2.7,5.7 0.6,-0.2 1.4,-0.6 2.2,-0.9 2.6,-1 4.8,-0.6 6.8,1.3 1,1 2.3,1.7 3.4,2.4 1,-3.8 1.9,-7.2 2.9,-11.2 1.8,0.3 3.6,0.6 5.4,0.9 -0.3,3.3 -2.6,4.2 -4.6,5.5 0,2.5 0,5 0,7.8 -3,0.9 -5.3,-0.5 -7.5,-2.1 -3.9,-2.8 -3.8,-2.9 -8.1,-0.3 -0.5,0.3 -1,0.5 -1.4,0.8 -1.1,0.8 -2.4,1.3 -3.3,0.1 -0.4,-0.6 -0.1,-2 0.2,-2.9 1.1,-2.7 0.7,-4.3 -1.5,-6.1 -1.2,-0.9 -2.7,-1.6 -3.7,-2.6 -0.9,-0.9 -1.7,-2.3 -1.7,-3.4 0,-1.7 1.8,-1.7 3.1,-2 2.4,-0.6 4.7,-0.7 7.1,-1.8 2.6,-1.2 3.3,-2.9 4.1,-5.1 0.3,-1.4 1,-2.6 1.6,-3.9 z" />
    <path
       inkscape:connector-curvature="0"
       id="path5312"
       d="m -494.22373,655.55586 c 2.3,-1 4.5,-1.4 6.9,0.2 1.9,1.3 2.4,2.7 1.7,4.5 -1.7,4.7 -4.1,9 -8.1,12.2 -3.4,2.7 -8.5,2.8 -11.9,0.3 -3,-2.2 -3.5,-5 -1.5,-8.9 1.9,-3.8 5.2,-7.1 8.3,-10.2 2,-2 3.7,-1.2 4.6,1.9 -3.1,-1.6 -4.1,-1 -6.8,4 2.5,-1.5 4.6,-2.8 6.8,-4 z m 6.3,2.8 c -5.1,-0.9 -10.9,1.9 -12.5,5.9 -0.5,1.2 -0.6,2.8 -0.1,3.9 0.9,1.8 6,1.9 7.4,0.3 2.4,-2.9 4.1,-6.1 5.2,-10.1 z m -16.4,5.1 c -2.4,3.9 -2.2,5.5 0.7,7.2 -0.2,-2.3 -0.4,-4.7 -0.7,-7.2 z" />
    <path
       inkscape:connector-curvature="0"
       id="path5314"
       d="m -665.12373,1136.8559 c -11.9,-2.2 -23.1,-4.2 -33.5,-9.3 -4,-2 -7.5,-4.7 -10.2,-8.3 -2.4,-3.3 -2.8,-6.9 -1.1,-10.5 4.2,-8.8 11.2,-14.5 20,-18.2 1,-0.4 2.3,-0.3 3.7,0.2 -0.7,0.3 -1.4,0.6 -2.1,1 -7.9,3.8 -14.4,9.1 -18.6,16.9 -2.2,3.9 -1.4,7.4 1.5,10.6 3.6,3.8 7.9,6.5 12.8,8.1 5.9,1.9 11.9,3.5 17.8,5.3 3.3,0.8 6.5,1.4 9.7,4.2 z" />
    <path
       inkscape:connector-curvature="0"
       id="path5318"
       d="m -510.92373,678.25586 c -8.8,-1.8 -16.6,-1.7 -21.1,8 0,-0.8 -0.3,-1.7 -0.1,-2.4 1,-2.9 2.7,-5.4 5.6,-6.8 1.1,-0.5 2,-1.1 3.4,-1.9 -3.4,-1.6 -6.5,-2.7 -9.2,-4.4 -2.6,-1.7 -4.8,-4 -7.3,-6.1 -1.8,2.9 1.1,5.3 1.4,8.3 -3,-1.2 -4.6,-3 -4.3,-5.7 0.3,-3.4 1.2,-6.7 2.1,-10 0.2,-0.8 1.6,-1.2 2.6,-1.9 -0.2,-0.8 -0.5,-1.6 -0.9,-2.8 1.4,0.1 2.4,0.2 3.9,0.3 -0.6,1.7 -1,3.1 -1.6,4.9 2,1.8 4.2,3.8 6.9,6.2 -3.9,-0.8 -6.2,-2.7 -8.7,-5.4 -0.3,2 0.5,3.1 1.4,3.9 2.5,2.2 4.9,4.4 7.6,6.3 2.9,2 6.4,3 8.7,5.8 0.4,0.5 1.8,0.4 2.7,0.4 2.6,0.1 4.9,1.1 6.9,3.3 z" />
    <path
       inkscape:connector-curvature="0"
       id="path5320"
       d="m -660.32373,1115.1559 c -3.6,0.8 -6.4,1.4 -9.3,2.1 -2.9,0.7 -5.4,1.9 -6.9,5 2.4,2.8 5.7,3.7 9,4.6 6.1,1.7 12.3,2.8 17.9,6.1 4.8,2.8 5.7,6.5 1.9,10.7 -1.7,1.9 -3.9,3.5 -6,5 -2,1.4 -4.3,2.4 -6.5,3.6 -1,-1.4 -0.2,-2 0.8,-2.7 2.7,-1.7 5.5,-3.3 7.8,-5.4 4.6,-4 6.1,-7.2 -1.3,-10.1 -5,-2 -10.2,-3.2 -15.3,-4.9 -2.9,-1 -5.7,-2 -8.3,-3.5 -3.4,-2 -3.5,-4.8 -0.7,-7.4 3.6,-3.1 11.1,-4.7 16.9,-3.1 z" />
    <path
       inkscape:connector-curvature="0"
       id="path5322"
       d="m -457.32373,754.35586 c 3.3,-6.4 7.5,-11.7 14,-14.8 -3.9,-7.1 -10.8,-11.3 -16.5,-10 0.5,-3.2 -0.2,-5.8 -3.3,-7.3 -0.6,-0.3 -0.8,-1.3 -1.1,-2.1 -1.5,-4.7 -4.4,-7.8 -9.4,-8.9 3,-1.1 3.2,-1.3 5,-0.1 1.5,0.9 3.1,2 4.1,3.3 2.6,3.3 4.8,6.9 7.3,10.3 0.8,1 1.9,1.9 3,2.4 3.6,1.7 7.2,3.6 9.6,6.9 1.3,1.7 2.1,3.8 2.6,5.9 0.4,1.7 -0.4,2.9 -2.2,4.1 -3.3,2.2 -6,5.6 -8.9,8.4 -0.9,1.2 -1.6,3.2 -4.2,1.9 z" />
    <path
       inkscape:connector-curvature="0"
       id="path5326"
       d="m -318.92373,789.35586 c 7.7,-0.1 13.9,6.3 14.1,14.3 0.1,8 -6,14.7 -13.6,14.9 -7.8,0.2 -14.3,-6.4 -14.3,-14.6 -0.1,-7.9 6.2,-14.5 13.8,-14.6 z m -11.7,14.7 c 0,7 5.5,12.7 12,12.7 6.5,-0.1 12,-5.9 11.9,-12.9 -0.1,-7 -5.5,-12.7 -12.1,-12.6 -6.6,0 -11.9,5.7 -11.8,12.8 z" />
    <path
       inkscape:connector-curvature="0"
       id="path5328"
       d="m -479.52373,1011.9559 c 4.2,-0.6 6.8,2.3 9.7,4.1 2.5,-2 4.7,-3.9 7,-5.7 0,-1.6 -2.6,-2.1 -1.3,-4.3 2.8,0.3 4.6,2.3 7.2,4.1 -3.4,2.2 -6.3,4 -9.3,5.9 0.1,0.8 0,1.3 0.1,1.8 0.3,1.2 0.7,2.5 -0.7,3.3 -1.5,0.9 -2.2,-0.4 -3.1,-1.2 -1.1,-1.1 -2.2,-2.1 -3.3,-3.1 -3,-2.8 -6.3,-2.9 -9.8,-1.1 -0.9,0.5 -1.9,0.6 -3.7,1.2 0.7,-1.5 0.9,-2.2 1.3,-2.7 0.5,-0.6 1.2,-1.1 1.8,-1.7 2.9,-3.4 2.5,-6.5 -0.9,-9.2 -2.1,-1.7 -2.1,-1.7 -2.3,-3.70004 3.4,-1 4.3,-1 9.4,0.2 -1.4,1.80004 -3.4,0.90004 -5,1.50004 1,1.6 2.3,3.1 2.8,4.8 0.5,1.6 0.1,3.6 0.1,5.8 z" />
    <path
       inkscape:connector-curvature="0"
       id="path5330"
       d="m -594.82373,597.75586 c 2.6,4 -2.1,3.8 -2.7,6.1 2.3,0 4.5,0 6.7,0 0.5,2 -0.2,3 -1.8,3.3 -1.1,0.2 -2.2,0.2 -3.3,0.4 -5.9,1 -6.7,0.7 -9.5,-4.5 -1.5,-2.8 -3.3,-5.8 -2.5,-9.1 3,-1 5.8,-2 8.6,-2.8 2.8,-0.8 3.3,-0.4 4.7,2.3 -2,0.7 -4,1.3 -6,2.1 -0.8,0.3 -1.7,0.6 -2.1,1.2 -0.6,1.1 -1.6,2.3 -0.4,3.8 1.1,1.4 2.2,0.5 3.3,0 1.7,-0.9 3.3,-1.9 5,-2.8 z" />
    <path
       inkscape:connector-curvature="0"
       id="path5334"
       d="m -573.52373,1014.4559 c 0.2,7.3 5.5,10.7 10.8,14 1.8,1.1 3.8,2.1 6,3.4 1,-4.2 -0.3,-7.3 -2.6,-10.1 -2.6,-3.1 -6.3,-3 -10,-3.5 1.8,-3 4.2,-3 6.8,-2.2 5,1.6 8.9,7 9.3,12.5 0.2,3 0.5,5.9 0.8,9.3 -0.7,0.8 -2,0.9 -2.6,-0.5 -1.3,-3.1 -4.1,-4.3 -6.7,-5.8 -3.3,-1.8 -6.3,-3.8 -8.9,-6.6 -3.2,-2.9 -4.4,-6.2 -2.9,-10.5 z" />
    <path
       inkscape:connector-curvature="0"
       id="path5336"
       d="m -349.92373,475.35586 c 8.7,0.1 15,7.4 13,15.1 -1.6,6.4 -8.3,10.3 -15.5,9.2 -6.8,-1.1 -11.4,-6.4 -11.1,-12.7 0.2,-6.5 6.2,-11.6 13.6,-11.6 z m -0.3,22.6 c 1,-0.1 1.8,-0.1 2.6,-0.2 4.8,-0.8 8.7,-4.9 9,-9.4 0.3,-4.8 -2.6,-8.9 -7.5,-10.5 -2.6,-0.8 -5.1,-0.9 -7.7,-0.1 -4.7,1.5 -8,5.5 -7.9,9.9 0,4.5 3.7,8.8 8.4,9.9 1,0.3 2.2,0.3 3.1,0.4 z" />
    <path
       inkscape:connector-curvature="0"
       id="path5338"
       d="m -277.42373,726.75586 c 2.4,1 4.7,1.9 7.5,3 0.2,-1.5 0.3,-3.1 0.5,-4.9 1.7,-0.5 4,-1.2 7.3,-2.1 -2.5,-0.3 -4.1,-0.5 -5.7,-0.7 2.8,-1.7 5.8,-1.8 8.7,-1.4 1.4,0.2 1.6,1.6 0.7,2.5 -0.9,1 -2.1,2.1 -3.3,2.2 -4.2,0.4 -5.6,2.9 -5.7,6.7 0,0.3 -0.1,0.5 -0.2,0.8 0,0.1 -0.2,0.2 -0.6,0.7 -0.8,-0.2 -2,-0.2 -2.7,-0.8 -2.8,-2.2 -5.7,-3.8 -9.2,-1.5 -1,-3.2 -1,-3.2 0.9,-7.1 -1.4,-1.1 -2.9,-2.2 -4.3,-3.4 -1,-0.8 -2,-2 -1,-3.1 0.6,-0.7 1.9,-1 2.9,-1 1.9,0 3.6,0.8 5,1.9 -0.1,0.3 -0.2,0.7 -0.3,1 -1.6,-0.3 -3.1,-0.6 -4.7,-0.9 -0.1,0.2 -0.2,0.4 -0.3,0.5 2,1.2 4,2.5 6,3.8 -0.5,1.5 -1,2.8 -1.5,3.8 z" />
    <path
       inkscape:connector-curvature="0"
       id="path5342"
       d="m -615.02373,607.55586 c -0.9,0.5 -2.1,1.1 -3.3,1.7 0.7,1.5 1.3,2.8 1.9,4.1 -3.6,-0.6 -6,-2.2 -6.9,-5.4 -0.8,-2.6 -1.4,-5.3 -1.8,-8 -0.2,-1.2 0,-2.6 1.8,-2.6 1.4,0 2.3,1.2 1.7,2.9 -0.7,2.1 0,3.7 1.1,5.8 1.5,-0.7 2.9,-1.3 4.6,-2.1 -0.4,-1.3 -0.7,-2.3 -1,-3.3 -0.4,-1.3 -0.9,-2.6 -0.9,-4 0,-0.7 0.9,-1.4 1.4,-2 0.6,0.5 1.4,0.9 1.6,1.5 1.7,4 3.3,8 4.8,12 0.5,1.2 0.7,2.4 0.4,4 -1.6,-1.4 -3.3,-2.8 -5.4,-4.6 z" />
    <path
       inkscape:connector-curvature="0"
       id="path5344"
       d="m -254.72373,580.75586 c -0.1,-6.2 4.9,-11.5 11,-11.7 6.3,-0.2 11.6,5 11.7,11.3 0.1,6.3 -5.2,11.7 -11.4,11.7 -6.1,0.1 -11.2,-5.1 -11.3,-11.3 z m 20.6,-0.2 c 0,-5.3 -4.2,-9.6 -9.4,-9.5 -5.1,0 -9.2,4.3 -9.2,9.7 0,5.4 4,9.5 9.3,9.5 5.4,-0.2 9.4,-4.3 9.3,-9.7 z" />
    <path
       inkscape:connector-curvature="0"
       id="path5348"
       d="m -578.42373,1085.4559 c -4.9,3.3 -7.9,7.9 -10.1,13.1 -0.9,2.1 -1.5,4.4 -2.5,6.5 -0.5,0.9 -1.9,1.8 -2.8,1.7 -0.9,-0.1 -2,-1.1 -2.6,-2 -0.5,-0.7 -0.7,-1.9 -0.5,-2.7 0.8,-4.7 1.9,-9.1 6.6,-11.7 2.2,-1.2 4.1,-2.7 6.2,-4.1 1.7,-1.3 3.6,-1.6 5.7,-0.8 z m -15.1,18.9 c 1.6,-4.3 3.1,-8.1 4.5,-11.9 -4,2.6 -6,7.4 -4.5,11.9 z" />
    <path
       inkscape:connector-curvature="0"
       id="path5350"
       d="m -568.52373,936.85586 c -10.2,7.4 -21.6,11.7 -32.3,17.2 -0.5,0.3 -1.3,0 -2.3,0 3.4,-4.1 7.3,-6.6 11.8,-8.6 6.1,-2.7 12.1,-6 18,-9.1 1.7,-1 3.1,-1.7 4.8,0.5 z" />
    <path
       inkscape:connector-curvature="0"
       id="path5352"
       d="m -572.42373,595.05586 c 0.4,1.1 0.7,2.2 1.1,3.2 0.5,1.1 0.6,2.2 -0.6,2.8 -1.4,0.7 -2.8,0.4 -3.5,-1.1 -0.8,-1.9 -1.3,-3.8 -2,-5.8 -0.7,-2.3 -1.5,-4.5 -2.3,-7.1 2.1,-1.4 5.1,-1.9 8.3,-1.7 1.6,0.1 3.2,0.8 3.4,2.4 0.1,1.3 -0.4,2.9 -1.1,4.1 -0.8,1.3 -2.1,2.2 -3.3,3.2 z" />
    <path
       inkscape:connector-curvature="0"
       id="path5354"
       d="m -565.92373,630.55586 c 0.7,-0.1 1.4,-0.4 2,-0.3 2,0.3 3.1,2 1.9,3.5 -2.7,3 -1.4,6.2 -1,9.4 0.2,1.6 1.4,3.3 -0.2,4.6 -1.9,1.5 -3.3,-0.2 -4.8,-1.2 -3.1,-2 -5.3,-4.7 -7.1,-7.8 1.9,-1.7 1.9,-1.7 6.8,2.2 0,-3.9 0.5,-7.5 2.5,-10.6 0.1,0.1 -0.1,0.2 -0.1,0.2 z" />
    <path
       inkscape:connector-curvature="0"
       id="path5356"
       d="m -557.92373,519.25586 c 2.5,-0.4 5,-0.8 8.4,-1.4 -1.4,4.1 -5.6,4.1 -7.2,6.9 0,2.3 0,4.5 0,7.1 -3.9,-0.7 -5.7,-3.8 -9,-5.6 -1.5,1.2 -3.2,2.6 -5.7,4.7 0.3,-2.4 0.6,-3.8 0.7,-5.2 0.1,-2.8 0.4,-5.6 -3.4,-6.4 -1.3,-0.3 -1.2,-1.8 0.1,-2.4 1.7,-0.8 3.5,-1.2 5.6,-1.3 -0.9,0.7 -1.7,1.5 -2.4,2.1 0.9,2.4 1.7,4.6 2.7,7.1 3.8,-2.2 5.7,2.1 9,3.6 0.3,-3.2 0.7,-6.1 1.2,-9.2 z" />
    <path
       inkscape:connector-curvature="0"
       id="path5362"
       d="m -507.62373,686.25586 c 0,-0.1 0,-0.7 0,-1.4 0.4,0 0.7,0 1,0.1 3.3,0.2 6,1.6 8.6,3.6 5.4,4 11.1,7.7 15.4,13.1 1.8,2.2 3.6,4.4 4.9,8 -3,-1.6 -4.5,-3.5 -6.2,-5.1 -5.2,-4.7 -10.3,-9.6 -15.7,-14 -2.1,-1.9 -4.9,-2.8 -8,-4.3 z" />
    <path
       inkscape:connector-curvature="0"
       id="path5366"
       d="m -584.42373,601.55586 c 2.4,-0.5 4.3,-0.9 6.5,-1.4 0.3,0.7 0.7,1.6 1.1,2.6 -2.6,2.7 -5.7,1.8 -8.6,1.6 -0.7,-0.1 -1.7,-1.2 -1.9,-1.9 -0.8,-3.5 -1.2,-7 -1.9,-10.5 -0.4,-2.1 0.7,-2.3 2.2,-2.2 0.9,3.9 1.7,7.6 2.6,11.8 z" />
    <path
       inkscape:connector-curvature="0"
       id="path5368"
       d="m -397.22373,826.35586 c 1.7,3.2 1.7,3.2 1.1,7.7 -3.8,1.2 -6.3,-1.6 -9.1,-3.2 -2.3,1.3 -4.2,2.6 -6.3,3.5 -2.1,0.9 -3.2,0.1 -3.1,-2.1 0.1,-2 0.4,-4.1 0.7,-6.4 2.3,1.9 0.7,4.4 1.7,6.8 1.4,-0.8 2.8,-1.5 4,-2.5 1.9,-1.5 3.7,-1.4 5.6,0 1.3,0.9 2.7,1.6 4.9,2.8 -0.5,-2.5 -0.8,-4.1 -1.1,-5.8 0.4,-0.2 1,-0.5 1.6,-0.8 l 0,0 z" />
    <path
       inkscape:connector-curvature="0"
       id="path5374"
       d="m -397.22373,826.35586 c 1.4,-0.7 2.8,-1.4 4.2,-2.1 -4.7,-1 -6.3,-4.4 -7.8,-8.1 -0.8,-1.9 -1.9,-3.7 -3,-5.7 -1.5,2.7 -2.9,5.2 -4.3,7.7 -0.2,-0.1 -0.5,-0.2 -0.7,-0.4 1.6,-3.2 3.1,-6.5 5,-10.3 1.7,3.4 3.4,6.1 4.4,9.1 1.2,3.4 3.6,4.6 6.8,5.2 1.1,0.2 2.3,0.3 3.7,0.5 -0.8,3.3 -3.2,4.1 -5.5,5.3 -0.8,-0.4 -1.8,-0.8 -2.8,-1.2 0,0 0,0 0,0 z" />
    <path
       inkscape:connector-curvature="0"
       id="path5378"
       d="m -559.82373,596.55586 c -1.1,-1.3 -2.5,-2.5 -3.1,-4 -1,-2.5 -1.6,-5.2 -2.3,-7.9 -0.2,-0.6 -0.1,-1.4 0.2,-2 0.2,-0.4 0.7,-1 1.1,-1 0.6,0 1.6,0.3 1.7,0.7 1.6,4.4 3,8.9 3.8,13.6 -0.6,0.1 -1,0.3 -1.4,0.6 z" />
    <path
       inkscape:connector-curvature="0"
       id="path5382"
       d="m -410.42373,826.25586 c -3.4,-3.5 -8.7,-2.5 -10.6,-7 2.5,-4.3 6.4,-3.7 10.4,-3.2 -2.6,0.8 -5.2,1.6 -7.9,2.4 0.7,3 3.2,2.3 4.7,3.2 1.5,0.8 3.4,1.2 3.4,4.6 z" />
    <path
       inkscape:connector-curvature="0"
       id="path5384"
       d="m -512.02373,601.65586 c -4,-3.8 -3.1,-8.8 -5.2,-12.6 -0.2,-0.3 0.5,-1.1 0.9,-1.7 3.6,3.2 4.1,4.9 4.3,14.3 z" />
    <path
       inkscape:connector-curvature="0"
       id="path5386"
       d="m -533.52373,610.35586 c -3.9,-0.1 -7.1,-2 -11.5,-6.1 0.6,-1.7 2,-1.4 3.1,-0.9 3.3,1.3 6.1,3.4 8.4,7 z" />
    <path
       inkscape:connector-curvature="0"
       id="path5388"
       d="m -273.22373,715.75586 c 1.1,-3.1 2.1,-6.1 5,-8.6 0.8,4.5 1.4,8.3 2,12.1 -2.3,-1.4 -2.3,-1.4 -3.2,-7.4 -1.4,1.4 -2.6,2.6 -3.8,3.9 z" />
    <path
       inkscape:connector-curvature="0"
       id="path5392"
       d="m -475.72373,1001.3559 c 3.3,-5.80004 4.3,-6.60004 7.8,-7.20004 0.3,2.7 0.7,5.3 1.1,8.40004 -3.1,-1.1 -1.7,-4.00004 -3.2,-5.90004 -1.9,1.5 -3.8,3.1 -5.7,4.70004 z" />
    <path
       inkscape:connector-curvature="0"
       id="path5400"
       d="m -522.02373,602.85586 c -3.1,-2.4 -5.3,-5.1 -6.4,-9.1 1.1,0.2 2,0.1 2.4,0.5 2.2,2.3 3.8,4.9 4,8.6 z" />
    <path
       inkscape:connector-curvature="0"
       id="path5402"
       d="m -563.82373,512.45586 c -0.3,-0.4 -0.5,-0.6 -0.5,-0.7 0.2,-1.8 0.2,-4.2 2.3,-4.6 0.8,-0.2 2.2,2 3.2,3.2 0.6,0.7 0.9,1.7 1.3,2.6 -0.2,0.1 -0.5,0.3 -0.7,0.4 -1.1,-1.3 -2.2,-2.6 -3.5,-4.1 -0.7,1 -1.4,2 -2.1,3.2 z" />
    <path
       inkscape:connector-curvature="0"
       id="path5404"
       d="m -557.32373,605.05586 c -1.2,-1.6 -2.2,-2.4 -2.5,-3.4 -0.4,-1.2 0.9,-2.7 2.4,-2.8 1.8,-0.1 2.1,1.4 2,2.5 -0.1,1 -1,1.9 -1.9,3.7 z" />
    <path
       inkscape:connector-curvature="0"
       id="path5424"
       d="m -452.32373,733.85586 c -0.3,1 -0.6,2.1 -0.9,3.1 -0.3,-0.1 -0.5,-0.2 -0.8,-0.2 0.3,-1 0.7,-2.1 1,-3.1 0.3,0 0.5,0.1 0.7,0.2 z" />
    <path
       style="fill:#ffffff"
       inkscape:connector-curvature="0"
       id="path5496"
       d="m -569.12373,874.25586 c 0.2,-2.5 0.7,-5.4 0.8,-8.3 0.1,-6.6 0.1,-13.3 0.1,-19.9 0,-2.1 0.3,-4.1 0.5,-6.2 0.2,-3.5 0.5,-7 -1.6,-10.6 -1.8,11 -2.4,21.5 -2.2,32.1 0.1,3.3 0,6.6 -0.3,9.9 -0.1,1.2 -0.7,2.7 -1.7,3.5 -4.1,3.2 -8.4,6.3 -12.6,9.3 -7.4,5.3 -14.9,10.5 -22.1,16 -9.4,7.2 -18.4,15 -28.9,20.6 -0.8,0.4 -1.6,0.8 -3.2,1.6 6.9,-10.8 13.4,-20.9 20.1,-31.3 0.3,0.1 1.1,0.5 2.4,1.1 -0.7,-1.5 -1.2,-2.6 -1.9,-4.1 1.8,-3.5 3.9,-7 5.6,-10.7 3.2,-7.2 6,-14.6 9,-21.9 1.1,-2.7 2.3,-5 5.1,-6.6 8.9,-5 17.6,-10.3 26.3,-15.5 0.9,-0.6 1.8,-1.2 2.4,-2.5 -3.4,1.5 -6.8,2.9 -10.1,4.7 -6,3.3 -11.9,6.8 -17.9,10.3 -0.4,0.2 -0.7,0.5 -1.1,0.6 -4.7,1.2 -5.7,5.4 -7.4,9 -2.8,6 -5.6,11.9 -8.6,18.3 -5.2,-3.6 -10,-6.8 -13.1,-11.8 -1.3,-2.1 -1,-3 1.2,-4.3 3.5,-2.2 7,-4.3 10.7,-6.6 -2.4,-4.9 -0.3,-9.5 0,-14.1 0.4,-6.2 1.6,-12.3 2.6,-18.4 0.2,-1.3 0.7,-2.8 1.6,-3.6 11.3,-9.6 19.3,-22 28.4,-33.4 1.5,-1.9 3.1,-3.9 5.2,-6.5 1.2,1.6 2.2,3 3.3,4.2 10.2,10.3 20.4,20.5 30.6,30.9 2.3,2.4 4.5,4.9 6.6,7.4 8.5,10.6 17.8,20.3 28.3,29 4.1,3.4 7.4,7.8 11.3,12 -0.2,0.2 -0.6,1 -1.2,1.7 -4.3,4.9 -8.7,9.7 -12.9,14.6 -1.3,1.5 -2.6,2 -4.6,2 -9.8,-0.1 -19.6,-0.1 -29.5,0.3 1.5,0.5 3,1 4.6,1.6 -7.3,17.6 -14.5,35 -21.9,52.8 -1.1,-0.8 -2,-1.4 -2.7,-2.1 -7.6,-7.3 -15.9,-13.7 -25.1,-18.8 -4.1,-2.3 -7.9,-5 -11.2,-9.2 3.1,-2.4 6.1,-4.8 9.4,-7.3 2.9,5.7 8,9.1 12.5,12.9 2.8,2.4 5.9,4.5 8.9,6.8 3.1,2.4 6.8,3.3 11,4.6 -0.6,-2.4 -2.3,-3.1 -3.6,-4.1 -4,-3.1 -8.2,-6.1 -12.2,-9.2 -3.5,-2.7 -6.8,-5.6 -10.2,-8.5 -1.3,-1.2 -2.4,-2.6 -3.7,-4.1 7.4,-6 15,-12 23,-18.2 z"
       class="st0" />
    <path
       style="fill:#ffffff"
       inkscape:connector-curvature="0"
       id="path5498"
       d="m -334.72373,703.05586 c -1.5,1.3 -2.9,2.6 -4.3,3.9 -12.8,-6.9 -24.6,-14.8 -35,-24.6 -11.6,-11 -22.3,-22.9 -31.8,-35.9 -4.1,-5.6 -8.2,-11.1 -12.6,-16.5 -4.2,-5.2 -7.6,-10.8 -9.7,-17.2 -0.5,-1.3 -0.6,-3 -2.8,-3.3 0.6,6.8 2.9,12.8 6.8,18 9,11.7 17.7,23.6 27.2,34.9 15.7,18.7 33.5,35.1 55.7,46.2 -2,3.4 -31.4,30.8 -37.4,34.8 -1.3,-0.8 -2.7,-1.6 -4.1,-2.5 -16.4,-10.7 -32.9,-21.4 -47.2,-34.9 -13.5,-12.7 -25.3,-26.9 -34.4,-43.2 -0.7,-1.2 -1.5,-2.3 -2.4,-3.8 4.3,-6.7 8,-13.8 6.3,-22.2 7,-4.6 12.1,-10.8 17.4,-16.7 5.4,-6 11,-11.9 18.1,-16.6 0.8,1.3 1.4,2.3 1.9,3.4 6,12.6 13.1,24.6 21.4,35.8 5.1,6.9 10.9,13.2 16.9,19.3 9,9.2 18.6,17.7 29,25.3 7,5.2 13.9,10.5 21,15.8 z"
       class="st0" />
    <path
       style="fill:#ffffff"
       inkscape:connector-curvature="0"
       id="path5500"
       d="m -567.22373,758.65586 c 9.1,-10.4 18,-20.5 27,-30.8 30,26.7 56.7,56.1 85,84.4 -4.9,4.6 -9.9,9.2 -14.6,13.9 -4.7,4.7 -9.1,9.5 -14,14.7 -1.8,-1.4 -4,-2.9 -5.9,-4.8 -11.7,-11.3 -23.4,-22.6 -34.9,-34.1 -13.3,-13.2 -26.4,-26.6 -39.6,-39.9 -0.9,-1 -1.7,-1.9 -3,-3.4 z"
       class="st0" />
    <path
       style="fill:#ffffff"
       inkscape:connector-curvature="0"
       id="path5502"
       d="m -436.92373,805.15586 c -0.9,0.9 -1.9,1.7 -2.8,2.6 -1.6,1.5 -2.9,3.3 -4.7,4.5 -3,2 -5.6,1.3 -7.6,-1.8 -0.4,-0.7 -0.9,-1.4 -1.4,-1.9 -10.8,-10.9 -21.5,-21.9 -32.4,-32.6 -15.9,-15.7 -31.9,-31.4 -48.1,-46.8 -8.5,-8.1 -17.6,-15.5 -26.4,-23.2 -1.3,-1.1 -2.4,-2.2 -2.5,-4.4 0,-1.7 -1.5,-3.5 -2.3,-5.2 -0.8,-1.6 -0.9,-2.9 0.9,-3.8 1.9,-1.1 4,-1.9 5.7,-3.3 1.6,-1.4 2.8,-3.3 4.3,-5 0.4,0.3 0.9,0.5 1.1,0.8 4.4,8 11.7,13.5 18,19.9 4.2,4.2 9,7.6 13.5,11.5 1.2,1 1.9,2.6 2.8,3.9 2,2.8 3.6,6 5.9,8.4 9.5,9.8 19.3,19.4 28.9,29 12.6,12.6 25.1,25.2 37.7,37.9 3.1,3.1 6.2,6.3 9.4,9.5 0,0.1 0,0 0,0 z m -116.1,-104.6 c 2.1,2.1 3.5,3.6 4.9,4.9 9.1,8.6 18.3,17.2 27.5,25.8 9.7,9 19.5,18 29.2,26.9 0.5,0.5 1,1 1.6,1.5 0.1,-1 -0.1,-1.8 -0.6,-2.3 -5,-5.3 -9.8,-10.9 -15.2,-15.8 -13.4,-12.1 -27.5,-23.5 -40.2,-36.4 -1.4,-1.5 -3.2,-2.6 -4.9,-3.8 -0.4,-0.3 -0.9,-0.4 -2.3,-0.8 z"
       class="st0" />
    <path
       style="fill:#ffffff"
       inkscape:connector-curvature="0"
       id="path5504"
       d="m -599.62373,752.25586 c 2.2,-1.9 4.2,-3.7 6.3,-5.5 0.3,0.4 0.8,0.9 1.6,1.8 0.5,-3.5 1.2,-6.6 3.9,-8.9 0.4,0.3 0.9,0.5 1.2,0.9 5.6,6.8 10.9,13.8 16.9,20.3 7.4,8 15.4,15.4 23,23.1 16.2,16.2 32.2,32.6 48.5,48.7 4.7,4.6 10.1,8.4 15.1,12.6 0.8,0.7 1.5,1.6 2.4,2.2 2.1,1.3 2,3 1.2,5 -2.1,5.6 -6.2,8.3 -12.2,7.6 -1.1,-0.1 -2.3,-0.8 -3,-1.7 -4.1,-5.4 -8.9,-10.2 -14,-14.5 -11.1,-9.3 -20.9,-19.6 -29.9,-30.8 -2.2,-2.8 -4.8,-5.3 -7.3,-7.8 -13.3,-13.4 -26.6,-26.9 -39.9,-40.3 -3.3,-3.3 -6.6,-6.7 -9.9,-10 -0.9,-0.9 -2.2,-1.6 -3.9,-2.7 z m 13.7,-2.1 c 8,11 59.4,62.4 66,65.8 -0.5,-0.8 -0.8,-1.2 -1.1,-1.6 -19.4,-21.7 -42.3,-40 -61.3,-62.1 -0.8,-0.9 -1.9,-1.6 -2.9,-2.3 -0.1,0 -0.4,0.1 -0.7,0.2 z"
       class="st0" />
    <path
       style="fill:#ffffff"
       inkscape:connector-curvature="0"
       id="path5506"
       d="m -619.12373,774.75586 c 2.9,-3.2 5.5,-6 8.1,-8.9 1.1,-1.2 2.2,-2.4 3.1,-3.8 2.2,-3.3 4.8,-5.9 9.1,-6.1 5.2,5.5 10.4,11 15.6,16.6 -10.3,13.4 -20.4,26.6 -30.9,40.2 -0.7,-1.4 -1.1,-2.2 -1.8,-3.5 -7.7,5.1 -13.5,12.2 -20.3,18 -6.9,5.9 -13.3,12.5 -20,18.8 -0.3,-0.1 -0.7,-0.1 -1,-0.3 -5,-2.8 -5,-2.8 -3.7,-8.2 0.8,-3.2 1.8,-6.2 4.1,-8.9 1.5,-1.7 2.1,-4.2 3.3,-6.1 3,-4.9 6.2,-9.8 9.5,-14.8 1.3,1.4 2.6,2.8 4,4.2 2.7,2.6 4.3,2.9 7.2,0.7 2.9,-2.2 5.6,-4.5 8.2,-6.9 1,-0.9 1.3,-2.5 1.9,-3.8 -0.3,-0.2 -0.5,-0.4 -0.8,-0.6 -2.1,1.9 -4.3,3.8 -6.4,5.8 1.1,-4.7 4,-8 7.1,-11.3 2.8,-2.9 5.4,-5.9 8.1,-8.8 1.2,-1.3 1.6,-2.9 0.7,-4.5 -1.3,-2.7 -1,-6.2 -5.1,-7.8 z m -2.8,25.2 c 1.7,0.9 2.9,0.5 4,-0.9 2.9,-3.5 5.9,-6.8 8.8,-10.3 0.5,-0.6 0.7,-1.4 1,-2.1 -1.6,-1.1 -2.6,-0.9 -3.6,0.6 -0.7,1.1 -1.6,2.2 -2.4,3.3 -2.5,3.1 -5.2,6.2 -7.8,9.4 z"
       class="st0" />
    <path
       style="fill:#ffffff"
       inkscape:connector-curvature="0"
       id="path5508"
       d="m -541.32373,878.45586 c 3.5,0 6.6,-0.1 9.8,0 4,0.2 7.9,0.7 11.8,1.1 0.2,0.4 0.4,0.6 0.4,0.8 -0.1,1 -0.3,1.9 -0.5,2.9 1,-0.2 2.1,-0.5 3.3,-0.7 -14.7,30 -35.6,55.9 -55.8,82.5 0.8,-3.1 1.5,-6.3 2.4,-9.4 3.8,-13.3 9,-26 14.3,-38.7 4.7,-11.3 8.9,-22.8 13.3,-34.3 0.4,-1.3 0.6,-2.7 1,-4.2 z"
       class="st0" />
    <path
       style="fill:#ffffff"
       inkscape:connector-curvature="0"
       id="path5510"
       d="m -672.12373,867.25586 c 18,-17.8 35.8,-35.4 54,-53.5 0,1.4 0.2,2.2 0,2.9 -2.3,5.8 -1.6,12 -3.2,18 -1,3.9 0.3,8.4 0.5,12.6 0.1,0.9 0.2,1.9 0.3,3.1 -24.4,12 -47.1,27.3 -71.8,38.9 3,-3.6 6.1,-7.3 9.1,-10.9 1.6,-1.9 3.4,-3.7 4.9,-5.6 1.8,-2.2 3.8,-4 7.4,-3.3 -0.5,-1 -0.9,-1.6 -1.2,-2.2 z"
       class="st0" />
    <path
       style="fill:#ffffff"
       inkscape:connector-curvature="0"
       id="path5512"
       d="m -646.02373,923.05586 c -0.5,-0.9 -0.8,-2 -1.5,-2.7 -3.1,-2.9 -6.5,-5.6 -9.5,-8.6 -2.3,-2.2 -4.2,-4.7 -6.2,-7.2 -1.4,-1.7 -1.7,-3.5 -0.3,-5.7 2.7,-4.4 5,-9.2 7.7,-13.6 2.7,-4.4 4.5,-9.1 5,-14.4 1.3,-0.8 2.7,-1.6 4.3,-2.6 5.8,8.7 14.4,13.9 23,19.6 -5.9,12.9 -14.4,23.9 -22.5,35.2 -0.1,-0.1 0,0 0,0 z"
       class="st0" />
    <path
       style="fill:#ffffff"
       inkscape:connector-curvature="0"
       id="path5514"
       d="m -571.92373,711.15586 c -1.4,-0.2 -1.4,-1.1 -0.9,-2.1 0.8,-1.6 1.6,-3.2 2.5,-4.7 0.7,-1.2 1.9,-1.7 3.2,-0.9 1.2,0.7 2.3,1.5 3.3,2.4 6.5,5.9 13.1,11.9 19.6,17.8 0.5,0.5 0.9,1 1.4,1.5 -7.9,8.8 -15.7,17.5 -23.6,26.3 -6.6,-4.4 -12.7,-9.1 -17.1,-15.6 3.1,7.7 9.4,12.4 16.2,16.9 -0.8,1 -1.4,1.8 -2.4,3.1 -6.8,-7.1 -13.7,-13.7 -18.1,-23.3 2.2,-3.8 4.6,-8 7.2,-12.5 2.9,4.2 5.1,8.2 8.1,11.6 3,3.4 6.8,6.2 11,8.3 -6.3,-6.6 -14.4,-11.7 -17.2,-21.7 1.9,-2 2.5,-6.2 6.8,-7.1 0,0.8 -0.4,1.7 -0.1,2.4 2.6,6 6.1,11.4 11.3,15.4 0.5,0.4 1.3,0.4 1.9,0.6 -1,-1.9 -2.3,-3.3 -3.6,-4.7 -4,-4 -7.3,-8.4 -9.5,-13.7 z"
       class="st0" />
    <path
       style="fill:#ffffff"
       inkscape:connector-curvature="0"
       id="path5516"
       d="m -658.12373,848.25586 c -0.6,0.8 -1,1.5 -1.6,2 -4.9,4.5 -9.8,8.9 -14.7,13.4 -2.3,2.1 -3.1,2.3 -5.5,0.7 -5.1,-3.3 -10,-6.8 -14.9,-10.5 -1.4,-1.1 -2.4,-3 -3.2,-4.6 -1.4,-2.9 -1.1,-5.5 1.6,-7.7 1.5,-1.2 2.7,-2.8 3.7,-4.4 2.9,-4.9 6.8,-5.7 12.9,-3.5 1.4,0.5 2.6,1.5 4,2.2 1.8,0.9 3.7,1.9 5.6,2.6 1.9,0.7 3,1.7 4.1,3.5 1.1,1.9 3.1,3.3 4.9,4.8 0.8,0.5 1.9,0.9 3.1,1.5 z"
       class="st0" />
    <path
       style="fill:#ffffff"
       inkscape:connector-curvature="0"
       id="path5518"
       d="m -619.32373,776.05586 c 1.2,3.2 2.2,5.6 3.2,8.3 -1.7,2.2 -3.2,4.7 -5.3,6.6 -5.1,4.6 -9.3,9.7 -12.5,16 -2.2,-1.9 -4.2,-3.6 -6.4,-5.5 5.7,-9.4 13.7,-16.8 21,-25.4 z"
       class="st0" />
    <path
       style="fill:#ffffff"
       inkscape:connector-curvature="0"
       id="path5520"
       d="m -618.22373,876.35586 c -1.4,3.2 -2.7,6 -4.2,9.2 -6.9,-6.6 -15.4,-10.6 -20.7,-18.6 2.7,-3 6.1,-4.6 9.8,-6.2 2.5,7.5 8.5,11.5 15.1,15.6 z"
       class="st0" />
    <path
       style="fill:#ffffff"
       inkscape:connector-curvature="0"
       id="path5522"
       d="m -504.42373,725.45586 c -0.8,1.3 -1.6,2.7 -2.6,4.6 -2.5,-2.7 -4.9,-5.2 -7.3,-7.8 0.2,-0.2 0.3,-0.4 0.5,-0.5 3,1.2 6.1,2.4 9.4,3.7 z"
       class="st0" />
    <path
       style="fill:#ffffff"
       inkscape:connector-curvature="0"
       id="path5524"
       d="m -641.02373,802.55586 c 2.6,2.8 4.7,5.2 6.9,7.5 -2.9,2 -4.6,1.1 -8.6,-4.6 0.5,-0.8 1,-1.7 1.7,-2.9 z"
       class="st0" />
    <path
       style="fill:#ffffff"
       inkscape:connector-curvature="0"
       id="path5526"
       d="m -583.52373,1032.3559 c 5.1,4.4 9,9.1 11.9,14.4 3.9,7.2 2.2,12.6 -5,16.6 -3.1,1.7 -6.4,3.3 -9.8,4.3 -11.7,3.8 -23.5,7.1 -35.1,11 -9.4,3.1 -19.1,5.7 -27.3,11.6 -1.8,1.3 -3.6,2.6 -5.1,4.2 -2.3,2.6 -3.1,5.8 -2.1,9.8 -3.1,0 -5.9,0.1 -8.8,0 -3.4,-0.1 -6.8,0.3 -10.1,-1.4 -4.4,-2.3 -6.2,-5.3 -5.7,-10.3 0.6,-7.2 4.5,-12.3 10.3,-16.2 10.3,-6.9 21.7,-11.5 33.1,-15.9 11.5,-4.5 23.4,-8.3 35,-12.6 4.6,-1.7 9,-4.1 13.3,-6.5 3.2,-1.7 4.7,-4.8 5.4,-9 z"
       class="st0" />
    <path
       style="fill:#ffffff"
       inkscape:connector-curvature="0"
       id="path5528"
       d="m -517.72373,642.95586 c -1.1,1.8 -2.1,3.6 -3.2,5.4 -0.3,-0.2 -0.5,-0.3 -0.8,-0.5 1.1,-1.8 2.1,-3.6 3.2,-5.4 0.3,0.2 0.5,0.3 0.8,0.5 z"
       class="st0" />
    <path
       style="fill:#ffffff"
       inkscape:connector-curvature="0"
       id="path5542"
       d="m -439.02373,567.95586 c -20.4,-0.2 -35,-8 -45.5,-23.3 -11.3,-16.4 -11.1,-43 6.3,-60.5 25.6,-25.9 70.5,-18.2 85.1,14.9 7.8,17.8 5.3,42 -15.6,58.2 -9.3,7.1 -20,10.7 -30.3,10.7 z"
       class="st0" />
    <path
       inkscape:connector-curvature="0"
       id="path5544"
       d="m -366.12373,636.55586 c -0.7,-0.7 -1.3,-1.3 -2,-2 -2.8,-4.1 -4.3,-8.6 -3.7,-13.7 0.5,-4.2 1.8,-8.1 3.9,-11.7 5.9,-10.3 13.4,-14.2 25,-12.8 1.5,0.2 3,0.2 4.1,2 -2.8,-0.2 -5.3,-0.7 -7.6,-0.3 -3.6,0.6 -7.2,1.7 -10.7,2.9 -1.2,0.4 -3,1.3 -1.7,3.4 -2.1,0.1 -2.1,0.1 -3.2,1.7 0.9,-0.5 2.1,-1.1 3.2,-1.7 1.1,-0.7 2.2,-1.7 3.4,-2.1 5,-1.4 10,-1.4 15,0 1.3,0.4 2.5,1.4 3.7,-0.3 0,0 0.2,0.1 0.4,0.2 2.1,1.5 4.5,2.7 6.3,4.5 6.5,6.6 7.6,14.3 3.7,22.8 -1.2,2.6 -2.2,5.3 -3.3,7.9 -1.8,2 -3.9,3.7 -6.6,4.5 -6.8,1.5 -13.6,1.6 -20.1,-1.2 -3.3,-1.2 -6.5,-2.7 -9.8,-4.1 z m -0.4,-6.4 c 0,-5.5 0,-11.1 0,-16.6 -2.5,5.5 -3.4,11.1 0,16.6 z m 8.9,-17.2 c -2.8,2.4 -2.9,4.6 -2.1,7.6 0.7,-2.5 1.2,-4.6 2.1,-7.6 z m 29.8,1.8 c -0.3,0.1 -0.7,0.2 -1,0.3 0.3,1.6 0.7,3.2 1,4.7 0.3,-0.1 0.6,-0.1 0.9,-0.2 -0.4,-1.6 -0.7,-3.2 -0.9,-4.8 z" />
    <path
       style="fill:#ffffff"
       inkscape:connector-curvature="0"
       id="path5546"
       d="m -358.82373,604.45586 c -1.3,-2.1 0.6,-3 1.7,-3.4 3.5,-1.2 7,-2.3 10.7,-2.9 2.3,-0.4 4.8,0.2 7.6,0.3 -1.2,-1.8 -2.7,-1.8 -4.1,-2 -11.6,-1.4 -19.1,2.5 -25,12.8 -2.1,3.6 -3.4,7.5 -3.9,11.7 -0.6,5 0.9,9.5 3.7,13.7 -1,-0.9 -2.2,-1.6 -2.8,-2.6 -3.9,-7 -3.9,-14.4 -0.5,-21.4 3.5,-7.3 9.2,-12.9 16.4,-16.3 7.5,-3.5 15.2,-2.2 22,2.5 3.1,2.1 5.9,4.5 8.6,7.1 5.2,5 5.5,11.5 4.5,18.1 -0.5,3.3 -1.2,6.6 -4.2,9.1 -2.2,1.7 -3.7,4.3 -5.5,6.5 1.1,-2.6 2.1,-5.3 3.3,-7.9 3.9,-8.5 2.8,-16.2 -3.7,-22.8 -1.8,-1.8 -4.2,-3 -6.3,-4.5 -0.1,-0.1 -0.4,-0.2 -0.4,-0.2 -1.1,1.6 -2.4,0.6 -3.7,0.3 -5,-1.4 -10,-1.4 -15,0 -1.2,0.1 -2.3,1.1 -3.4,1.9 0,-0.1 0,0 0,0 z"
       class="st0" />
    <path
       style="fill:#ffffff"
       inkscape:connector-curvature="0"
       id="path5548"
       d="m -366.12373,636.55586 c 3.3,1.4 6.5,2.8 9.8,4.2 6.6,2.8 13.3,2.7 20.1,1.2 -1.1,0.5 -2.1,1.4 -3.2,1.6 -9,1 -17.6,-0.3 -25.4,-5.1 -0.6,-0.4 -0.9,-1.2 -1.3,-1.9 z"
       class="st0" />
    <path
       style="fill:#ffffff"
       inkscape:connector-curvature="0"
       id="path5550"
       d="m -363.82373,853.95586 c 16.2,0.4 29.1,7 37.5,21 8.3,13.7 7.9,28 -0.7,41.4 -17.1,26.6 -57.8,26.2 -74.8,-0.5 -9.1,-14.4 -9.2,-37.6 9.9,-52.6 8.3,-6.4 17.7,-9.4 28.1,-9.3 z"
       class="st0" />
    <path
       style="fill:#ffffff"
       inkscape:connector-curvature="0"
       id="path5552"
       d="m -665.82373,650.05586 c 13.1,0.1 23.2,10.1 23.2,23 0,13 -10.4,23 -23.7,22.8 -13,-0.1 -23,-10.3 -22.9,-23.2 0,-12.8 10.2,-22.6 23.4,-22.6 z"
       class="st0" />
    <path
       style="fill:#ffffff"
       inkscape:connector-curvature="0"
       id="path5554"
       d="m -704.82373,1021.3559 c -5.4,2.5 -10.8,5 -16.2,7.5 4.3,-4.7 10.2,-6.1 16.2,-7.5 z"
       class="st0" />
    <path
       style="fill:#ffffff"
       inkscape:connector-curvature="0"
       id="path5556"
       d="m -487.92373,658.35586 c -1.1,3.9 -2.8,7.2 -5.2,10 -1.4,1.6 -6.5,1.5 -7.4,-0.3 -0.5,-1.1 -0.4,-2.7 0.1,-3.9 1.6,-3.8 7.4,-6.6 12.5,-5.8 z"
       class="st0" />
    <path
       style="fill:#ffffff"
       inkscape:connector-curvature="0"
       id="path5558"
       d="m -494.22373,655.55586 c -2.1,1.3 -4.3,2.5 -6.8,4 2.6,-5.1 3.7,-5.6 6.8,-4 0,0.1 0,0 0,0 z"
       class="st0" />
    <path
       style="fill:#ffffff"
       inkscape:connector-curvature="0"
       id="path5560"
       d="m -504.32373,663.45586 c 0.2,2.5 0.5,4.9 0.7,7.2 -2.9,-1.7 -3.1,-3.3 -0.7,-7.2 z"
       class="st0" />
    <path
       style="fill:#ffffff"
       inkscape:connector-curvature="0"
       id="path5562"
       d="m -330.62373,804.05586 c 0,-7.1 5.2,-12.8 11.8,-12.8 6.6,-0.1 12,5.6 12.1,12.6 0.1,6.9 -5.3,12.8 -11.9,12.9 -6.6,0 -12,-5.7 -12,-12.7 z"
       class="st0" />
    <path
       style="fill:#ffffff"
       inkscape:connector-curvature="0"
       id="path5564"
       d="m -350.22373,497.95586 c -0.9,-0.1 -2,-0.1 -3.1,-0.4 -4.8,-1.1 -8.4,-5.5 -8.4,-9.9 0,-4.4 3.3,-8.4 7.9,-9.9 2.6,-0.8 5.1,-0.8 7.7,0.1 4.9,1.6 7.8,5.7 7.5,10.5 -0.3,4.5 -4.1,8.5 -9,9.4 -0.8,0.2 -1.6,0.2 -2.6,0.2 z"
       class="st0" />
    <path
       style="fill:#ffffff"
       inkscape:connector-curvature="0"
       id="path5566"
       d="m -234.12373,580.55586 c 0,5.4 -4,9.5 -9.2,9.6 -5.3,0 -9.3,-4 -9.3,-9.5 0,-5.3 4.1,-9.6 9.2,-9.7 5.1,0 9.3,4.3 9.3,9.6 z"
       class="st0" />
    <path
       style="fill:#ffffff"
       inkscape:connector-curvature="0"
       id="path5568"
       d="m -593.52373,1104.3559 c -1.5,-4.5 0.5,-9.3 4.5,-11.9 -1.4,3.9 -2.8,7.6 -4.5,11.9 z"
       class="st0" />
    <path
       inkscape:connector-curvature="0"
       id="path5574"
       d="m -553.02373,700.55586 c 1.4,0.5 2,0.5 2.3,0.8 1.7,1.2 3.5,2.3 4.9,3.8 12.7,12.9 26.8,24.3 40.2,36.4 5.4,4.9 10.2,10.5 15.2,15.8 0.5,0.5 0.7,1.3 0.6,2.3 -0.5,-0.5 -1,-1 -1.6,-1.5 -9.7,-9 -19.5,-17.9 -29.2,-26.9 -9.2,-8.5 -18.3,-17.2 -27.5,-25.8 -1.5,-1.4 -2.8,-2.8 -4.9,-4.9 z" />
    <path
       inkscape:connector-curvature="0"
       id="path5576"
       d="m -585.92373,750.15586 c 0.2,0 0.6,-0.2 0.7,-0.1 1,0.7 2.1,1.4 2.9,2.3 19,22.1 41.9,40.3 61.3,62.1 0.3,0.4 0.6,0.8 1.1,1.6 -6.6,-3.5 -58,-54.9 -66,-65.9 z" />
    <path
       inkscape:connector-curvature="0"
       id="path5578"
       d="m -621.92373,799.95586 c 2.7,-3.2 5.3,-6.3 7.9,-9.4 0.9,-1 1.7,-2.1 2.4,-3.3 0.9,-1.5 2,-1.7 3.6,-0.6 -0.4,0.7 -0.6,1.5 -1,2.1 -2.9,3.5 -5.9,6.8 -8.8,10.3 -1.2,1.4 -2.4,1.8 -4.1,0.9 z" />
    <path
       inkscape:connector-curvature="0"
       id="path5580"
       d="m -571.92373,711.15586 c 2.2,5.2 5.6,9.7 9.5,13.7 1.3,1.4 2.6,2.7 3.6,4.7 -0.6,-0.2 -1.4,-0.2 -1.9,-0.6 -5.3,-4 -8.7,-9.4 -11.3,-15.4 -0.3,-0.7 0,-1.6 0.1,-2.4 0,0 0,0 0,0 z" />
    <path
       style="fill:#ffffff"
       inkscape:connector-curvature="0"
       id="path5582"
       d="m -366.52373,630.15586 c -3.4,-5.5 -2.5,-11 0,-16.6 0,5.5 0,11.1 0,16.6 z"
       class="st0" />
    <path
       style="fill:#ffffff"
       inkscape:connector-curvature="0"
       id="path5584"
       d="m -357.62373,612.95586 c -0.8,3 -1.4,5 -2.1,7.6 -0.8,-2.9 -0.7,-5.2 2.1,-7.6 z"
       class="st0" />
    <path
       style="fill:#ffffff"
       inkscape:connector-curvature="0"
       id="path5586"
       d="m -327.82373,614.75586 c 0.3,1.6 0.6,3.2 0.9,4.8 -0.3,0.1 -0.6,0.1 -0.9,0.2 -0.3,-1.6 -0.7,-3.2 -1,-4.7 0.3,-0.1 0.6,-0.2 1,-0.3 z"
       class="st0" />
    <path
       style="fill:#ffffff"
       inkscape:connector-curvature="0"
       id="path5588"
       d="m -358.82373,604.35586 c -1.1,0.6 -2.2,1.2 -3.2,1.7 1.1,-1.6 1.1,-1.6 3.2,-1.7 0,0.1 0,0 0,0 z"
       class="st0" />
  </g>
</svg>
