<?xml version="1.0" encoding="UTF-8" standalone="no"?>
<!-- Created with Inkscape (http://www.inkscape.org/) -->

<svg
   xmlns:dc="http://purl.org/dc/elements/1.1/"
   xmlns:cc="http://creativecommons.org/ns#"
   xmlns:rdf="http://www.w3.org/1999/02/22-rdf-syntax-ns#"
   xmlns:svg="http://www.w3.org/2000/svg"
   xmlns="http://www.w3.org/2000/svg"
   xmlns:sodipodi="http://sodipodi.sourceforge.net/DTD/sodipodi-0.dtd"
   xmlns:inkscape="http://www.inkscape.org/namespaces/inkscape"
   width="144.0126mm"
   height="144.79102mm"
   viewBox="0 0 510.28088 513.03903"
   id="svg3501"
   version="1.1"
   inkscape:version="0.91 r13725"
   sodipodi:docname="astronout-1.svg">
  <defs
     id="defs3503" />
  <sodipodi:namedview
     id="base"
     pagecolor="#ffffff"
     bordercolor="#666666"
     borderopacity="1.0"
     inkscape:pageopacity="0.0"
     inkscape:pageshadow="2"
     inkscape:zoom="0.35"
     inkscape:cx="347.28329"
     inkscape:cy="339.37665"
     inkscape:document-units="px"
     inkscape:current-layer="layer1"
     showgrid="false"
     fit-margin-top="0"
     fit-margin-left="0"
     fit-margin-right="0"
     fit-margin-bottom="0"
     inkscape:window-width="1920"
     inkscape:window-height="1056"
     inkscape:window-x="0"
     inkscape:window-y="24"
     inkscape:window-maximized="1" />
  <metadata
     id="metadata3506">
    <rdf:RDF>
      <cc:Work
         rdf:about="">
        <dc:format>image/svg+xml</dc:format>
        <dc:type
           rdf:resource="http://purl.org/dc/dcmitype/StillImage" />
        <dc:title></dc:title>
      </cc:Work>
    </rdf:RDF>
  </metadata>
  <g
     inkscape:label="Layer 1"
     inkscape:groupmode="layer"
     id="layer1"
     transform="translate(-27.716706,-358.69984)">
    <g
       id="Layer_1"
       transform="translate(20.153138,208.53887)" />
    <g
       id="Layer_2"
       transform="translate(20.153138,208.53887)" />
    <path
       inkscape:connector-curvature="0"
       id="path19"
       d="m 144.85314,594.13885 c 0,0.3 0.1,0.7 -0.1,0.8 -2.7,1.6 -2.9,4.4 -3.1,7.1 -0.3,2.9 0.5,5.4 2.7,7.5 1.2,1.1 2.1,2.6 2.9,4 1.8,3 3.1,6 2.7,9.7 -0.3,3.1 -0.1,6.3 -0.1,9.7 5.1,1.7 10.2,3.4 15.7,5.1 -0.1,-0.7 -0.1,-1.3 -0.4,-1.9 -4.9,-12.5 -4.8,-25.3 -2,-38.2 1.5,-7 3,-14 4.9,-20.9 1.3,-4.6 3.2,-9 5,-13.5 0.4,-1 1.1,-1.8 1.6,-2.6 2.2,0.6 1.6,2 1.3,3.1 -0.8,3.3 -1.9,6.6 -2.7,9.9 -2.2,9.9 -5,19.8 -6.4,29.9 -1.7,12.1 -0.2,24.2 3.8,35.9 0.6,1.9 1.8,3 3.4,4 4.1,2.7 8.2,5.5 12.3,8.4 1.1,0.7 2,1.6 3,2.4 -0.2,0.3 -0.4,0.6 -0.6,0.9 -3.7,-2 -7.3,-4 -11.1,-6 -1.8,-0.9 -3.6,-1.7 -5.4,-2.6 -0.4,-0.2 -0.8,-0.3 -1,-0.6 -4.5,-5.2 -10.8,-7 -16.9,-9 -1.7,-0.6 -3.5,-2 -5.5,-0.4 -0.1,0.1 -0.6,0.1 -0.7,0 -1.8,-2.9 -4.8,-1.2 -7.1,-1.7 -1.3,-0.3 -2.7,0 -4.1,0.1 -3,0.3 -5.7,1.1 -8,3.5 -2.4,2.5 -5.1,4.7 -7.8,6.8 -2.8,2.2 -4.9,4.7 -6,8.2 -0.6,1.9 -1.5,3.6 -4.2,2.5 -0.5,-0.2 -1.6,0.3 -2.1,0.8 -7.8,7.6 -15.500003,15.3 -23.300003,23 -0.3,0.3 -0.5,0.9 -0.7,1.4 0.5,0.1 0.8,0.3 1,0.2 8.8,-3.6 17.900003,-3.1 26.900003,-1.3 13.4,2.6 26.5,6.6 38.7,12.8 4.6,2.4 9,5.4 13.6,8.2 10.3,-14.5 18.9,-30.1 28.4,-46 0.1,3.2 -1.3,5.3 -2.5,7.5 -6.8,13.1 -14,26 -22.4,38.2 -0.3,0.4 -0.5,1 -1.2,2.1 1.5,-0.6 2.4,-0.9 3.3,-1.3 7.7,-3.7 15.6,-6.9 24,-8.8 14.8,-3.3 28.7,-1.7 41.4,7.3 2.7,1.9 5.9,3 8.7,4.7 5.1,3.1 10.2,6.5 15,10.1 -5.6,-1.2 -11.1,-2.7 -15.9,-5.9 -5.5,-3.6 -11.5,-5.3 -18,-6.4 -18,-2.9 -35.7,-0.9 -53.3,2.9 -1.6,0.4 -3.3,0.8 -4.9,0.8 -3.5,0 -5.4,2.1 -7.1,4.8 -1.8,-1.7 0.1,-3.1 0.8,-4.8 -10.6,-5.8 -21,-11.6 -33.2,-13.5 -13,-2 -25.9,-0.9 -38.800003,0.5 -1.8,0.2 -3.6,0.8 -5.3,0.7 -4.5,-0.2 -7.7,1.6 -9.7,5.8 0.3,0.1 0.6,0.3 0.9,0.2 12.9,-4.2 26.300003,-4.6 39.700003,-4.4 7.9,0.2 15.4,2.7 22.5,6.5 6.3,3.3 12.7,6.7 19,10 3.1,1.6 5.9,1.8 9.1,-0.6 4.6,-3.5 10.3,-4.5 15.9,-5.5 12.7,-2.3 25.3,-2 37.8,0.9 1.3,0.3 2.7,0.2 3.9,0.7 10,4.3 20.4,7.7 28.3,15.7 0.2,0.2 0.2,0.4 0.6,1.4 -5.5,-2.8 -10.4,-5.5 -15.5,-7.8 -5,-2.3 -10.1,-4.3 -15.4,-6.4 -6.8,9.4 -13.4,18.3 -19.9,27.3 0.5,0.4 0.6,0.7 0.8,0.7 11.6,0 23.2,-0.3 34.8,0 14.5,0.3 28.9,-1.2 43.3,-2.7 11.1,-1.1 22.3,-2.1 33.4,-3.1 8,-0.7 15.9,-1.6 23.9,-2.2 4.3,-0.3 8.5,-0.4 12.8,-0.5 4.5,-0.1 9,-0.1 13.1,-0.1 -1.6,1.6 -2.6,2.2 -5.3,2.4 -12.5,1.3 -25,2.5 -37.5,3.7 -14.7,1.4 -29.4,2.6 -44.1,4 -18.9,1.8 -37.7,2.3 -56.7,1.5 -5.1,-0.2 -10.2,-0.4 -15.3,-0.5 -2.4,-0.1 -4.8,0 -7.5,0 -0.2,-2.7 2.5,-3.8 3.6,-5.8 1.2,-2.2 2.8,-4.1 4.3,-6.1 1.6,-2.1 3.2,-4.2 4.8,-6.3 1.5,-2 3,-4 4.5,-5.9 1.5,-2 3,-3.9 4.5,-5.9 -15.2,-6 -48.4,-2.6 -55.9,5.2 -6.9,-1.5 -13.4,-3.8 -19.5,-7.5 -3.5,-2.2 -7.2,-4.1 -10.9,-5.9 -10,-4.8 -20.7,-5.4 -31.6,-4.5 -6.600003,0.5 -13.200003,1.2 -19.700003,2.3 -3.4,0.6 -6.7,2.3 -10.1,3.4 -1.1,0.4 -2.3,0.5 -3.5,0.7 2.7,-3.2 5,-6.4 7.8,-9 1.6,-1.4 4.1,-2.1 6.2,-2.5 7.5,-1.2 15,-2.1 22.500003,-2.9 17.7,-2 34.3,1 49.8,9.9 0.7,0.4 1.4,0.7 2.5,0.5 -1.8,-1.2 -3.6,-2.5 -5.5,-3.5 -13.8,-7.2 -28.6,-11.6 -43.9,-14.1 -5.4,-0.9 -10.700003,-1.2 -16.000003,0.1 -4.2,1 -8.2,2.4 -10.9,6.2 -0.3,0.4 -1,0.5 -1.6,0.8 -1.5,-1.9 2.2,-4.1 -1,-5.2 5.1,-5.5 9.8,-10.7 14.5,-15.8 5.2,-4.8 10.500003,-9.6 15.700003,-14.5 0.5,-0.5 0.9,-1.5 0.7,-2.2 -0.9,-3.5 -2,-7 -2.9,-10.1 -4.1,0.1 -7.800003,0.2 -11.500003,0.4 -3.1,0.1 -5.7,-0.8 -7.2,-3.7 -0.8,-1.5 -1.9,-1.8 -3.1,-1.3 -0.4,1.6 -0.7,3 -1,4.4 -1,3.8 -2.3,7.6 -2.8,11.5 -0.4,3.1 0.3,6.2 0.6,9.4 0,0.5 0.4,1 0.7,1.4 1.9,2.9 4.4,4.4 8,3.9 1.1,-0.2 2.5,-1.2 2.9,0.9 -2.5,0.7 -4.7,1.9 -7.5,1.6 -2.4,-0.3 -4.9,-0.1 -7.6,-0.1 -1.5,2.7 -2.8,5.4 -4.5,7.9 -4.2,6.7 -9.2,13.6 -14.2,20.6 -2.6,3.6 -5.2,7.1 -7.6,10.8 -1.1,1.8 -1.6,4 -2.6,5.9 -1.1,2.1 -2.2,4.2 -3.6,6 -3.8,5.1 -7.8,10 -11.7,15 -0.4,0.5 -0.7,1.2 -1.2,1.9 0.3,0.6 0.7,1.2 0.8,1.8 0.5,4.3 3.5,5.2 7.1,5.2 13.2,0.1 26.5,0.5 39.7,0.2 26.400003,-0.6 52.700003,-0.6 79.100003,0.9 36,2 72,1.5 108.1,1.3 22.6,-0.1 45.3,-0.5 67.9,-1.2 23.2,-0.7 46.4,-1.8 69.5,-3.1 18,-1 36.1,-2.5 54.1,-3.6 9.9,-0.6 19.9,-0.8 29.8,-1.1 13.9,-0.4 27.9,-0.8 41.8,-1.2 0.8,0 1.5,-0.2 2.3,-0.3 -21.2,-24.8 -44.1,-47.8 -65.3,-72.3 -0.5,-0.6 -1.3,-0.9 -2.3,-1.7 -0.4,3.9 -0.8,7.4 -1.2,11 2.3,0.8 4.7,1.7 6.9,2.6 -0.2,2.3 -0.4,4.2 -0.6,6.2 -1,9.7 -2.1,19.4 -3,29.2 -0.4,4.2 -0.9,8.5 -0.8,12.8 0.1,3.5 -1.6,5.5 -4.3,6.8 -5.5,2.8 -11.1,4.9 -17.4,4.3 -3.7,-0.3 -7.4,-0.6 -11.1,-0.9 -2.5,-0.2 -4.3,-1.8 -5.8,-3.6 -1.5,-1.7 -3,-3.1 -3.2,-5.9 -0.5,-8.5 -1.5,-17 -2.3,-25.5 -0.5,-5.8 -0.9,-11.5 -1.3,-17.3 -0.1,-1.3 0,-2.7 0.6,-4.2 0.3,0.6 0.8,1.1 0.9,1.8 0.5,2.7 1,5.4 1.3,8.2 0.9,11.1 1.8,22.3 2.7,33.4 0,0.6 0.1,1.1 0.1,1.7 0.3,1.6 0,3.6 0.9,4.6 1.4,1.6 3.5,3 5.5,3.4 7.8,1.5 15.6,1.6 23.2,-1.5 1.8,-0.7 3.7,-1.2 5.7,-1.9 0.3,-2.7 0.5,-5.5 0.8,-8.3 1.1,-10.3 2.2,-20.5 3.3,-30.8 0.3,-2.7 0.9,-5.4 1.1,-8.2 0.2,-3.3 -0.2,-3.6 -3.4,-3.7 -7.9,-0.3 -15.7,-0.5 -23.6,-0.7 -5.5,-0.1 -11,-0.1 -16.5,-0.2 -0.7,0 -1.4,-0.3 -2.1,-0.5 0,-0.3 0,-0.6 -0.1,-0.9 2.1,-0.4 4.2,-0.8 6.6,-1.3 -0.5,-1.4 -1,-2.7 -1.3,-3.7 -6.3,0 -12.3,-0.2 -18.2,0 -10.5,0.4 -20.9,0.9 -31.4,1.4 -12.8,0.7 -25.6,1.5 -38.4,2 -6,0.3 -12.1,0 -18.3,0 0,0.5 0,1.1 0,1.8 -0.3,0 -0.5,0.1 -0.8,0 -2.2,-0.5 -4.5,-1.1 -6.7,-1.6 -1.2,-0.3 -2.5,-0.3 -3.6,-0.7 -11.8,-4.4 -23.5,-8.8 -35.2,-13.2 -0.6,-0.2 -1.1,-0.8 -2.2,-1.5 13.6,-7.3 28.3,-9.3 43.3,-13.3 -1,1.1 -1.4,1.9 -1.9,2 -4,1.3 -8.1,2.7 -12.2,3.8 -6.9,1.8 -13.9,3.3 -21,6.6 0.7,0.5 1.1,0.8 1.5,1 7.2,3 14.5,5.9 21.7,9.1 3.5,1.5 7,2.4 10.9,2.3 3.1,-22.1 5.5,-44.3 7,-66.9 0.3,0.8 0.9,1.5 0.9,2.3 0.1,3.9 0.3,7.7 0,11.6 -0.7,10.7 -1.4,21.5 -2.6,32.2 -0.7,6.4 -2.1,12.8 -3.2,19.1 -0.1,0.7 0,1.4 0,2.4 1.3,0.1 2.5,0.3 3.7,0.2 12.4,-0.6 24.8,-1.3 37.2,-1.9 7.4,-0.4 14.9,-0.8 22.3,-1.2 10.1,-0.6 20.1,-1.2 30.2,-1.7 3.4,-0.2 6.9,-0.1 10.4,-0.2 1.9,-0.1 3.8,-0.3 5.9,-0.4 -0.8,-10.7 -1.7,-21.1 -2.5,-31.4 0.2,0 0.4,-0.1 0.7,-0.1 0.7,3.9 1.5,7.7 2,11.6 0.8,5.3 1.4,10.7 2.1,16 0.1,1 0.2,2 0.7,2.8 0.3,0.5 1.2,0.6 2.5,1.2 -0.5,-3.1 -0.8,-5.5 -1.2,-7.9 -1.3,-7.9 -2.6,-15.7 -4,-23.6 -0.4,-2.1 -0.1,-4.5 -3.1,-5.7 1.1,-0.6 1.9,-1.3 2.1,-1.1 1,0.6 2.3,1.3 2.6,2.2 0.9,2.6 1.6,5.3 2.1,8 1.7,9.1 3.2,18.2 4.8,27.4 1.9,0 3.6,0 5.4,0 0.2,-0.8 0.4,-1.3 0.5,-1.8 1.2,-11.1 2.5,-22.2 3.7,-33.3 0.5,-4.7 1,-9.3 1.7,-13.9 0.5,-3.1 1.2,-6.1 2.1,-9.1 0.6,-2.1 2.1,-3.1 3.9,-3 2,0.2 2.4,1.6 2.6,3.2 0.3,2.9 0.6,5.8 0.7,8.6 0.1,2.9 0,5.8 0,9 3.2,0.7 3.5,3.3 3.5,6 0,2.3 -0.1,4.7 -0.5,7 -0.8,4.4 -2,8.8 -2.8,13.3 -0.4,2.2 -1.5,2.6 -3.7,2.2 -0.6,3.5 -1.2,6.8 -1.9,10.4 2.7,0 4.9,0 7.2,0 0.3,-2 0.5,-3.9 0.8,-5.7 1.3,-8.6 2.6,-17.2 3.8,-25.8 0.3,-2.4 0.5,-4.7 3.9,-4 1.7,-13.3 3.3,-26.1 5,-38.8 3.5,1.7 3.6,1.7 3.2,5.6 -1.2,11.4 -2.6,22.7 -3.9,34.1 -0.3,2.3 -1.3,4.5 -0.1,6.9 0.1,0.3 0.1,0.9 -0.1,1.2 -2,2.4 -1.5,5.5 -2.1,8.3 -0.9,4.6 -2,9.1 -3,13.8 5.2,1.3 8.3,5.4 11.3,9.1 18.4,21.7 39,41.4 57.4,63.1 0.4,0.4 0.7,0.9 1.1,1.2 4.3,2.5 4.5,6.7 4.5,11 0,4.8 0.1,9.7 0,14.5 0,1.1 -0.4,2.2 -0.5,2.8 -3,-0.4 -5.3,-1 -7.7,-1 -15.2,0.4 -30.4,0.9 -45.5,1.4 -3,0.1 -6.1,0.5 -9.1,0.2 -4.7,-0.5 -8.3,2 -12.3,3.5 0,3.8 -0.1,7.4 0,11 0.2,8.3 0.5,16.5 0.6,24.8 0.1,12.1 0,24.3 0.2,36.4 0.1,5.4 0.6,10.7 0.8,16.1 0.1,2 -0.4,4 -1.3,6.1 -0.3,-0.6 -0.9,-1.2 -0.9,-1.8 -0.9,-16.5 -3.7,-32.9 -2.8,-49.5 0.2,-4.3 0.6,-8.5 0.6,-12.8 -0.1,-9.4 -0.4,-18.8 -0.6,-28.1 0,-1.7 0.2,-3.5 0.4,-5.4 -2.3,0 -4.9,0 -8,0 0.4,3.3 0.9,6.3 1,9.2 0.4,6.5 0.6,12.9 0.8,19.4 0.4,13 -2.3,25.8 -3,38.8 -0.4,7.4 -0.7,14.9 -0.8,22.3 0,2 0.8,4 1.2,6 0.2,0.8 0.2,1.7 0.3,3.3 -4.1,-2.5 -5.3,-5.6 -5.4,-9.3 -0.2,-9.4 0.2,-18.8 1.1,-28.1 1.4,-14.4 3.2,-28.8 2.9,-43.3 -0.1,-5.9 -0.7,-11.8 -1,-17.8 -40.5,-0.3 -80.8,-0.6 -121.3,-0.9 2.7,4.7 5,9.7 8.1,14.2 4.2,6.1 4.8,12.4 2.3,19.2 -1.6,4.1 -3.1,8.3 -4.8,12.3 -2.8,6.6 -4.4,13.4 -4.7,20.5 -0.2,3.7 0.2,7.5 1.1,11 2,8.3 2.3,16.6 1.9,25 -0.1,2.6 -1.7,5 -2.6,7.6 -2.4,-0.7 -1.8,-2.2 -1.5,-3.7 0.6,-3.1 0.4,-6.2 0,-9.5 -8.5,3.4 -17.1,4.8 -25.6,6 -8.7,1.3 -17.4,0.3 -25.4,-3.7 -1.3,-0.6 -2.4,-1.6 -3.5,-2.4 0.1,-0.2 0.3,-0.5 0.4,-0.7 1.8,0.6 3.6,1.1 5.3,1.8 9,3.4 18.1,3.3 27.3,1.4 5.4,-1.1 10.8,-2.1 16.2,-3.3 1.9,-0.4 3.6,-1.2 5.9,-1.9 -0.7,-4.9 -1.3,-9.6 -2,-14.5 -1.2,0 -2.1,-0.3 -2.8,0 -5.4,2.9 -11.3,2.4 -17,2.5 -5.8,0.1 -11.6,-0.1 -17.4,-0.3 -5.1,-0.2 -10.1,-1 -14.9,-3.2 -2.9,-1.3 -5.4,-3.1 -6.7,-6.3 3.3,2.6 6.8,4.9 11,5.6 3.4,0.6 6.8,1.3 10.2,1.4 9.2,0.2 18.5,0.2 27.7,0 2.8,0 5.7,-0.8 8.8,-1.3 0,-1.1 0.1,-2 0,-2.9 -1.6,-10.7 0.8,-20.8 4.6,-30.7 1.9,-4.9 3.8,-9.7 5.6,-14.7 1.6,-4.3 0.8,-8.3 -1.5,-12.2 -3.4,-5.7 -6.4,-11.6 -9.8,-17.8 -1.4,-0.1 -3.1,-0.2 -4.9,-0.3 1.8,18.3 1,36.4 0.2,55.4 -0.9,-1.2 -1.5,-1.7 -1.6,-2.4 -0.5,-2.4 -1.3,-4.9 -1.3,-7.3 0.1,-15 0.4,-30.1 0.6,-45.6 -18.9,-0.8 -38.4,-1.6 -58.3,-1.4 2,5.2 0.5,9.7 -1.1,14.3 -2.6,7.7 -2.9,15.7 -2.6,23.7 0,0.3 0.1,0.6 0.1,0.8 -0.4,6.8 0.8,13.2 3.4,19.6 2,4.9 1.7,10.4 1,15.6 -1.2,8.6 -0.9,17 1.1,25.4 0.1,0.2 -0.1,0.5 -0.1,1.3 -1.4,0.1 -2.8,0.2 -4.2,0.3 0,-0.1 -0.1,-0.3 -0.1,-0.4 0.7,-0.4 1.5,-0.8 2.4,-1.2 -0.7,-1.6 -1.5,-3.1 -2.1,-4.6 -2,-5.7 -1.8,-11.5 -1.2,-17.5 0.7,-6.4 0.5,-12.9 0.4,-19.4 -0.1,-2.1 -1.3,-4.1 -2.2,-6.1 -0.9,-2 -1.5,-3.9 -1.3,-6.2 0.3,-2.9 0.7,-6 -1.1,-9.9 -1.3,4 -2.7,7 -3.2,10.1 -0.9,5.5 -1,11 0.9,16.4 2.6,7.6 5.2,15.2 5.4,23.3 0.1,3.4 -0.4,6.9 -1,10.2 -0.4,2.2 -1.5,4.4 -4.4,4.8 3.1,-10.1 1.4,-19.8 -1.1,-29.4 -1.2,-4.5 -2.7,-9 -3.7,-13.5 -1.3,-6.1 -0.7,-12.1 1.5,-17.9 1,-2.7 2.2,-5.4 3.3,-8 1.4,-3.2 1.8,-6.4 0.5,-9.7 -1.9,-4.9 -4.1,-9.6 -6.2,-14.4 -1,-2.4 -2.1,-4.7 -3.3,-7.4 -2.1,0 -4.6,0 -6.9,0 0.8,4.3 1.9,8.4 2.2,12.6 0.5,5.6 0.6,11.3 0.4,16.9 -0.2,6.1 -0.8,12.1 -1.3,18.2 -0.4,4.2 -1,8.5 -1.7,12.7 -0.4,2.1 0.3,4.5 -1.2,6.6 -0.5,-0.9 -0.9,-1.8 -1.4,-2.7 -15,2.9 -29.9,4.1 -45.3,0.5 0,0.4 0,0.9 -0.1,1.4 0,0.4 -0.1,0.8 -0.2,1.2 -0.3,-0.2 -0.6,-0.3 -0.7,-0.5 -4,-8.1 -6.9,-16.6 -7.6,-25.6 -0.6,-7.4 0,-14.9 0.1,-22.3 0,-6.2 0,-12.4 0,-18.7 -2.1,-0.8 -3.7,-0.2 -4.9,2 -4.2,7.5 -8,15.2 -7.7,24.1 0.1,2.5 0.9,5.1 1.8,7.6 2,5.4 4.3,10.7 6.5,16.1 1.6,4 1.7,8 0.4,12.1 -2.8,9 -3.6,18.1 -1.8,27.4 0.6,3 0.6,6.2 0.9,10.2 -1.2,-1.6 -2.2,-2.4 -2.5,-3.5 -1.2,-4 -2.7,-7.9 -3,-12 -0.6,-7.9 0.2,-15.7 3,-23.2 1.1,-2.9 1.2,-5.6 0.1,-8.5 -1.9,-4.9 -3.4,-10 -5.7,-14.6 -4.9,-9.8 -3.7,-19.2 1,-28.5 1.5,-2.9 3.3,-5.7 5.3,-9.2 -17.3,-0.3 -34.1,0.3 -50.9,0.7 0,4.2 -0.1,8.1 0,11.9 0,2.2 0.4,4.4 0.4,6.6 0.4,16.1 0.7,32.3 1.3,48.4 0.4,10.1 1.2,20.1 1.8,30.2 0.1,1.2 -0.3,2.5 -0.4,3.7 -2,0.1 -2.5,-0.8 -2.6,-2 -0.6,-5.8 -1.5,-11.5 -1.6,-17.3 -0.4,-25.8 -0.6,-51.6 -0.9,-77.4 0,-1.1 -0.1,-2.2 -0.2,-3.4 -3.2,-1.2 -6.3,0.2 -9.6,-0.1 -0.1,1.3 -0.2,2.4 -0.2,3.5 0.3,13.2 0.5,26.5 1.2,39.7 0.5,8.9 1.8,17.8 2.6,26.8 0.5,5.6 0.9,11.3 1.3,16.9 0,0.7 -0.4,1.5 -1,2.2 -3.4,-14.5 -4.7,-29.2 -5.7,-43.9 -1,-14.7 -0.9,-29.5 -1.4,-44.9 -1.5,0 -3.3,0 -5.200003,0 -13.9,0.1 -27.9,0.4 -41.8,0.4 -6.9,0 -13.8,-0.8 -20.4,-3 -0.9,-0.3 -1.9,-0.3 -2.8,-0.5 -1.8,-4.6 -3,-9.4 -2.9,-14.4 0,-0.6 -0.6,-1.5 -1.1,-1.8 -2,-1.1 -1.8,-2.6 -0.8,-4.2 1.1,-1.8 2,-3.7 3.5,-5.1 3.7,-3.8 6.2,-8.3 8.7,-13 6.7,-12.6 15.6,-23.7 24.3,-35 2.8,-3.6 5.2,-7.4 7.7,-11.2 0.6,-0.9 1.5,-1.7 1.1,-3.3 -0.2,-0.6 1.5,-2 2.5,-2.6 0.7,-0.4 1.9,-0.2 3.2,-0.2 -1,-1.3 -1.9,-2.3 -2.6,-3.3 -4.4,-6.2 -3.3,-12.6 -0.2,-18.8 1.7,-3.5 3.9,-6.9 5.7,-10 -1.2,-4.4 -2.3,-8.7 -3.8,-14 -3.2,-1.5 -6.8,-3.9 -6,-9.4 0.6,-4 2.9,-6.7 6.6,-8.7 -0.2,-1.3 -0.4,-2.8 -0.6,-4.3 -0.5,-5.8 2.4,-9.3 8.2,-9.5 2.1,-0.1 4.1,0 6.3,0 0.7,-3.8 0.6,-7.9 4.5,-9.5 3.300003,-1.4 6.800003,-0.4 10.200003,0.9 0.5,-12.2 -2.5,-24.2 -1.4,-36.2 0.3,0 0.6,0 0.8,-0.1 0.2,1.5 0.5,2.9 0.6,4.4 1.1,10.8 2.2,21.7 3.5,32.5 0.3,3 0.6,5.8 -0.1,8.8 -1.6,-0.5 -1.6,-0.5 -3.4,-6.9 -0.2,0.2 -0.5,0.3 -0.5,0.5 -0.2,0.5 -0.2,1.1 -0.4,1.9 -1.6,-0.4 -3.1,-0.9 -4.6,-1.1 -2,-0.3 -3.400003,0.3 -4.200003,2.3 -1.6,3.8 -2.1,7.4 0.3,11 2.600003,3.9 5.200003,7.8 7.900003,11.6 1.3,1.8 3.1,3 5.7,3.3 -0.2,-1 -0.3,-1.7 -0.6,-3.4 2.2,3 5.7,0.4 7.2,3.5 0.3,0 0.6,0.1 0.8,0 5.7,-1.7 6.9,-4.8 4,-9.9 -2.2,-3.9 -5.6,-6.4 -9.6,-8.1 -1.2,-0.5 -2.3,-1 -3.5,-1.6 0.1,-0.3 0.1,-0.6 0.2,-0.8 1.6,-0.2 3.1,-0.4 4.3,-0.6 -0.2,-15.5 -0.3,-30.7 -0.5,-46.3 2.8,0.7 2.6,2.5 2.7,4.1 0.1,5.2 0.1,10.5 0.2,15.7 0,2.6 0.2,5.1 1,7.8 0.8,-1.2 1.6,-2.5 2.4,-3.6 2.1,-2.8 4.4,-3.1 7.1,-1 2.4,1.8 3.7,4.1 3.6,7.1 -0.1,3.4 -0.1,6.9 -0.3,10.3 -0.1,2.3 0.6,4.2 2.5,5.3 4.1,2.3 5.2,5.8 4.8,10.1 -0.1,1.4 0,2.8 0,4.2 0.3,0 0.6,0 0.9,0 0.1,-0.7 0.1,-1.4 0.2,-2.1 0.2,-3.3 0.5,-6.5 0.7,-9.8 0.1,-0.9 0.1,-1.9 -0.2,-2.8 -1.8,-5.1 -2.1,-10.5 -2.4,-15.8 -0.4,-7.6 3.1,-13.5 8.2,-18.7 3.6,-3.7 8,-6.2 12.9,-7.9 1.1,-0.4 2.2,-1 3.6,-1.6 -1.7,-3.2 -3.4,-6.1 -4.9,-9.1 -4.7,-9.6 -3.5,-19.2 0.9,-28.3 3,-6.3 7.1,-12.1 10.3,-18.3 0.8,-1.4 3.3,-0.7 2.9,-3.2 -0.2,-1.6 0.4,-3.3 0.4,-4.9 0,-1.6 -0.3,-3.3 -0.5,-4.9 -0.7,-4.9 -1.7,-9.7 -2.2,-14.6 -1.6,-14.5 2.1,-27.9 8.6,-40.7 3,-5.9 6.7,-11.4 11,-16.5 1.4,-1.6 2.2,-3.7 3.3,-5.5 0.5,-0.8 1.1,-1.7 1.8,-2.2 4.7,-3.1 9.4,-6.3 14.3,-9 2.5,-1.3 5.4,-2 8.3,-2.4 6.7,-0.9 13.4,-1.8 20.1,-2.2 11.9,-0.7 23.8,-0.3 35.5,1.9 15.5,2.9 30.6,7.3 43.4,17.3 5.7,4.5 10.2,10 13.6,16.5 4.4,8.3 7.8,17 11,25.8 1,2.7 1.4,5.5 2.2,8.7 -0.7,-0.4 -1,-0.4 -1.1,-0.6 -3.3,-7.4 -6.5,-14.9 -9.8,-22.3 -7.1,-15.9 -17.8,-28 -34.5,-34.3 -9.2,-3.4 -18.5,-6.3 -28.3,-7.4 -5.1,-0.6 -10.1,-1.2 -15.2,-1.7 -1.8,-0.2 -3.5,0 -5.2,0 -0.4,1.1 -0.7,1.9 -0.8,2.1 -2.9,0.7 -5.3,1.6 -7.8,1.9 -2.9,0.3 -4.8,2 -6.3,4.2 -2.1,3.1 -3.9,6.3 -5.9,9.4 -0.5,0.8 -1.5,1.4 -2.3,2.1 -0.6,-0.8 -1.5,-1.5 -1.8,-2.5 -1,-3.2 -1,-3.2 -4,-2.9 -5.7,0.7 -10,3.7 -13.8,7.7 -0.5,0.6 -1,1.4 -1.2,2.1 -4,12.5 -8.4,24.8 -11.7,37.5 -2.7,10.3 -3.4,21.1 -1.2,31.6 1.4,6.5 2.2,13 2.9,19.5 0.4,3.4 1.2,6.8 1.9,10.2 0.2,0.8 0.7,1.6 1.8,2.2 0,-0.5 0.1,-0.9 0,-1.4 -2.5,-10 -3.1,-20.2 -2.9,-30.4 0.2,-7.9 0.2,-15.7 1.5,-23.5 1.4,-8.3 3.7,-16.4 6.6,-24.3 1.9,-5.2 3.3,-10.5 5,-15.8 0.5,-1.7 1,-3.2 2.9,-4.2 2,-1 3.4,-3.3 5.5,-4.1 2.7,-1.1 5.8,-1.3 8.6,-1.8 0.7,1.3 1,2 1.8,3.4 1.4,-2.2 2.5,-3.9 3.9,-6 15.5,-2.6 31.5,-1.5 47.4,-1.7 l -0.2,-0.1 c 1.7,0.3 3.4,0.6 5.2,0.9 l -0.2,-0.1 c 1.7,0.3 3.5,0.6 5.2,0.9 l -0.1,-0.1 c 2.7,1.5 5.4,3 8.2,4.4 1.3,0.7 2.6,0.3 4.7,-0.7 6.5,5.7 10.6,12.9 12.8,21.3 2.4,9 3.3,18.2 3.3,27.5 0,4 0.8,8 1,11.9 0.2,5.4 0.2,10.7 0.3,16.1 0,3.4 0,6.9 0,11 0.7,-1.1 1.3,-1.7 1.7,-2.4 3.6,-7.1 7.2,-14.3 9.1,-22.1 0.2,-0.9 0.6,-1.9 1.2,-2.6 3.9,-4.3 3.9,-9.5 3.8,-14.8 0,-0.2 0.2,-0.4 0.6,-1 1.6,5.3 1.4,10.1 -0.6,14.9 -2.3,5.6 -5.2,11.1 -6.4,16.9 -1.4,7.1 -2,14.5 -0.2,21.8 0.6,2.4 1.7,4.6 3.8,6.6 1.5,-1.7 2.9,-3.3 4.2,-4.8 -8.2,-13.1 -6.4,-26 1,-38.9 1.8,1.2 0.9,2.7 0.5,4 -1.1,3.8 -2.5,7.6 -3.3,11.5 -1.5,7.4 -0.9,14.6 3.7,21.2 5.1,-8.9 8.6,-18 7.4,-28.4 -0.5,-3.8 -0.3,-7.8 -2.8,-11 -0.9,-1.2 -2,-2.4 -3.2,-3.9 1.1,-0.9 2.4,-0.9 3.5,0.5 0.9,1.2 1.7,2.5 2.3,3.9 5.5,12.9 3.5,25.3 -3,37.3 -1.5,2.8 -3,5.6 -4.7,8.2 -1,1.5 -2.7,2.6 -3.9,3.8 -1.5,-0.5 -2.7,-0.9 -3.6,-1.1 -5.6,-7.6 -5.2,-16.1 -3.9,-24.7 -0.3,-0.1 -0.5,-0.1 -0.8,-0.2 -0.6,0.8 -1.2,1.6 -1.6,2.5 -1.9,3.4 -3.7,6.9 -5.5,10.4 -0.1,0.2 -0.3,0.5 -0.5,0.7 -3,2.9 -6.1,5.8 -9.2,8.7 -0.5,0.5 -1.1,0.8 -1.7,1.1 -7.6,2.8 -15.1,6.1 -23,8.1 -9.3,2.4 -18.9,3.8 -28.4,5.3 -8.6,1.3 -17.4,1.1 -26,-0.2 -7.5,-1.1 -14.8,-3.4 -21.8,-6.3 -1.6,-0.7 -3.4,-0.9 -5.1,-1.5 -0.8,-0.3 -1.6,-0.9 -2.3,-1.5 -0.7,-0.6 -1.3,-1.3 -2.2,-2.1 -0.6,3 0.2,4.7 2.6,6.1 9.4,5.5 19.4,9.5 30.1,11 9.3,1.2 18.8,1.2 28.1,-0.6 8.7,-1.6 17.3,-3.7 25.8,-5.8 3.8,-1 7.5,-2.8 11.2,-4.2 0.8,-0.3 1.9,-1.8 2.4,0.4 0,0.1 1.2,0.1 1.6,-0.2 2.5,-1.6 5.2,-3.2 7.4,-5.1 4.6,-4 9.2,-7.8 15.4,-10 -0.2,0.5 -0.1,0.9 -0.3,1.1 -5,4.3 -10,8.6 -15.1,12.9 -0.6,0.5 -1.3,1 -2,1.4 -18.5,9.3 -38.2,14.3 -58.8,15.2 -6.4,0.3 -13,0.2 -19.4,-1.3 -13.9,-3.4 -26.5,-9.3 -36.9,-19.3 -0.4,-0.4 -0.8,-0.7 -1.5,-1.2 -0.9,0.5 -1.8,1 -2.8,1.5 -0.8,0.4 -1.7,0.8 -1.9,0.9 -0.8,2.6 -1.8,4.4 -2.1,6.4 -0.3,2.1 -0.1,4.4 -0.1,7.2 -3.1,-3.8 -1.5,-7.6 -1.8,-11.2 -4,-2.2 -5.1,-6.5 -7.5,-10.4 -0.7,3.6 -1.5,7.1 -2,10.7 -0.8,6 -0.3,11.8 2.3,17.4 0.8,1.8 1.8,3 4,2.7 2.7,-0.3 4.5,0.8 4.8,4.4 -1.5,0.2 -3,0.4 -4.6,0.7 -1.7,0.3 -3.8,0.2 -5.2,1.1 -1.4,0.9 -1.4,3.3 -4.3,2.9 -1.5,-0.2 -3.4,2 -5.1,3.2 -1.7,1.2 -3.3,2.6 -5.1,3.5 -9.3,4.3 -12.7,12.1 -13.5,21.6 -0.3,3.4 -0.3,6.9 -0.2,10.3 -0.1,0.6 -0.1,2.4 1.9,3.1 l 0,0 z m 72,-85.2 c 0.7,-1.9 1.5,-3.7 2.5,-6.3 -4.6,1.2 -5.6,4.6 -7.2,7.5 2.5,1.5 3.7,0.1 4.9,-1.3 0.3,0.7 0.6,1.9 0.9,1.9 1,-0.1 2.4,-0.2 2.9,-0.9 1.9,-2.3 3.5,-4.9 5.2,-7.4 4.7,-6.8 9.2,-13.7 14,-20.5 12.2,-17.4 23.2,-35.6 37.7,-51.3 0.8,-0.8 1.2,-2 1.8,-3 -2.6,0.5 -5,1.4 -6.9,2.9 -1.8,1.4 -3.1,3.4 -5.2,5.8 0.3,-4.2 1.4,-7.4 0.3,-10.7 -2.7,0.9 -2.9,0.8 -3.2,2.2 -0.7,3.5 -1.3,7 1.6,10 -1,1.1 -1.7,2.1 -2.6,2.9 -9.2,8 -16,17.9 -22.5,28 -3.4,5.3 -6.7,10.8 -9.9,16.3 -3.7,6.4 -7.3,13 -11,19.4 -1,1.6 -2.2,3 -3.3,4.5 z m -32.3,5 c 3.4,-1.1 3.3,-1.1 3.4,-4.9 0,-0.6 0.3,-1.6 0.7,-1.8 1.9,-0.7 1.6,-2.3 1.8,-3.7 0.5,-4.6 -0.1,-9 -0.8,-13.6 -0.8,-5.6 -3.1,-10.2 -7.8,-13.8 1.9,0.5 3.7,0.9 5.9,1.5 0,-3.9 0,-7.7 0,-11.5 0,-8.3 1.2,-16.5 3.8,-24.4 3.1,-9.4 6.6,-18.7 10,-28 2.5,-6.8 7.5,-11.1 14.5,-12.9 3.2,-0.8 6.5,-1.4 9.8,-2 2,-3 4.1,-6.1 6.6,-9.9 -6.3,0.8 -11.8,1.5 -17.3,2.4 -4.2,0.6 -7.9,2.4 -11.4,4.7 -0.7,0.4 -1.5,0.9 -1.9,1.5 -1.7,3 -3.8,5.5 -6.7,7.4 -0.9,0.6 -1.6,1.6 -2.2,2.5 -2.5,3.5 -5,7 -7.3,10.5 -4.2,6.3 -7.3,13 -8.5,20.5 -1.1,6.8 -2,13.6 -2.5,20.5 -0.4,5.9 -0.1,11.8 -0.1,17.6 3.9,0.6 3.8,0.5 2.7,3.8 -0.8,2.2 -1.6,4.5 -1.7,6.8 -0.3,6.1 -0.5,12.2 0,18.2 0.4,4.4 1.8,8.8 5,12.8 1.5,-1.6 4,-1.6 4.3,-4.1 l -0.3,-0.1 z m -150.800003,242.4 c 6.6,2 12.9,3.1 19.4,3.2 6.3,0.1 12.7,0.3 19,0.2 6.3,0 12.7,-0.3 19,-0.4 6.2,-0.2 12.400003,-0.7 18.600003,-1.1 5.3,-0.3 10.5,-0.4 15.8,-0.5 12.3,-0.3 24.6,-0.6 36.8,-0.7 31.7,-0.2 63.5,-0.4 95.2,-0.2 22.8,0.1 45.5,0.8 68.3,1.3 13.9,0.3 27.9,1.1 41.8,1 30.5,-0.1 61,-0.6 91.5,-1.1 24.4,-0.4 48.8,-1.2 73.3,-1.8 0.8,0 1.6,-0.2 2.3,-0.3 0,-4.5 0,-8.7 0,-13.2 -5.3,0 -10.2,-0.2 -15.2,0 -26.5,1 -53,1.4 -79.4,3.3 -18.3,1.3 -36.6,2.1 -55,2.8 -27.7,1.1 -55.4,2.4 -83.2,2.8 -32.6,0.5 -65.1,0.4 -97.7,0.3 -16.8,-0.1 -33.7,-0.4 -50.5,-1.3 -18.8,-1 -37.5,-1.5 -56.300003,-1.3 -13.4,0.1 -26.8,0.4 -40.2,0.3 -8,0 -16,0.2 -23.9,-2.9 0.4,3.3 0.4,6.3 0.4,9.6 z m 148.600003,8.3 c 1.7,4 1.3,8.1 0.9,12.1 -1.2,12.2 -1.1,24.2 1.9,36.2 1,4.1 3.2,6.2 7.1,6.9 1.5,0.3 3,0.5 4.5,0.6 6.8,0.3 13.5,-0.5 20.1,-2.1 1.7,-0.4 3.7,-0.1 6.4,-0.1 -5,1.7 -9.1,3.2 -13.2,4.6 0,0.2 0,0.3 0.1,0.5 6.6,-0.5 13.1,-1 19.7,-1.5 0.1,-1.2 0.3,-2 0.3,-2.9 0.7,-9.3 1.5,-18.7 2.2,-28 0.6,-8.1 1,-16.2 0.1,-24.3 -0.3,-2.4 -1,-4.8 -1.6,-7.1 -1.8,0 -3.1,0 -4.8,0 0.5,1.1 1,1.9 1.2,2.8 0.9,3.3 2.3,6.6 2.6,9.9 1.1,13.6 0.5,27.1 -3.1,40.6 -1,-2.5 -1.5,-4.9 -1.3,-7.5 0.6,-8.5 1.4,-17 1.6,-25.6 0.2,-6.8 0.2,-13.8 -2.7,-20.1 -7.6,-0.8 -43.4,-0.4 -46.4,0.6 0,0.9 0,1.9 0,2.8 0.1,7.9 0.5,15.7 0.2,23.6 -0.5,11.3 1.4,22.2 4.7,32.9 0.7,2.1 1.7,3.5 4.1,3.1 -1.7,-4.4 -3.6,-8.6 -4.8,-12.9 -2.5,-9 -2.4,-18.3 -1.6,-27.5 0.5,-5.8 1.2,-11.7 1.8,-17.6 z m 69.8,-279.3 c 0,0.2 0.1,0.3 0.1,0.5 6.2,-0.7 12.5,-1.3 18.7,-2 6.4,-0.7 12.7,-1.4 19.3,-2.2 0.4,2.7 2.6,4.2 2.4,6.9 -0.9,-0.5 -1.4,-0.9 -2,-1.2 -1.1,1 0.4,3.3 -2.6,3.6 -0.1,-2.5 -0.3,-4.9 -0.4,-7.4 -5.6,0.5 -11,1 -16.3,1.5 -1.6,0.1 -3.2,0.1 -4.8,0.3 -4.9,0.8 -9.7,1.9 -14.6,2.5 -2.5,0.3 -3.1,1.7 -3.7,3.9 3.9,0 7.6,0 11.3,0 3.6,0 7,0.4 10.3,2.3 2.1,1.1 4.4,2.4 7,1.7 0.3,-0.1 0.9,0.4 1.3,0.7 0.8,0.5 1.5,1.4 2.3,1.6 4.8,1 9.7,1.9 14.6,2.7 2.4,0.4 4.4,-0.6 5.6,-2.8 2.3,-4.4 4.4,-8.8 4.3,-14 -0.1,-3.1 -1.3,-4.9 -4.2,-5.8 -0.7,-0.2 -1.6,-0.3 -1.8,-0.8 -1.6,-3.6 -4.8,-2.8 -7.5,-2.6 -4.1,0.3 -8.7,0 -11.5,3.5 -2.8,3.5 -6.5,3.4 -10.2,3.9 -2,0.3 -4.1,0.3 -6.2,0.7 -3.9,0.7 -7.6,1.6 -11.4,2.5 z m -127.1,134.6 c 0.9,-2.7 2.1,-4.6 4.4,-6.1 3.2,-2.1 5.3,-5.1 5.4,-9.2 0.1,-4.4 0.7,-8.8 -4.1,-11.6 -2.3,-1.3 -3.2,-3.7 -2.8,-6.4 0.3,-2.6 0.4,-5.2 0.6,-7.8 0.1,-1.8 0.4,-3.6 0.2,-5.3 -0.4,-3.1 -4.1,-5.2 -6,-3.3 -2.4,2.5 -4.8,5.3 -4.8,9.2 0,3.6 -0.2,7.2 -0.4,10.7 -0.1,1.9 0.4,3.1 2.1,4.1 3.4,2.1 5.9,5.1 7.2,8.8 2.3,7 0,10.1 -5.3,11.6 -1.2,0.3 -2.3,0.7 -3.6,1.1 0.4,1.5 0.7,2.8 1.2,4.7 -1.4,-1 -2.2,-1.6 -3.9,-2.7 0.5,6.3 1,11.7 1.4,17.4 7.2,-2.6 13.6,-6 19.1,-10.8 2.1,-1.9 3.7,-4.4 5.1,-7 1.9,-3.6 0.8,-6.8 -2.4,-9 -3.1,6.9 -8.9,12.1 -13.4,11.6 z m -10.7,-4.5 c -5.5,-0.5 -8.8,-3.2 -11.3,-6.8 -2.3,-3.4 -4.500003,-6.9 -6.600003,-10.5 -1,-1.8 -1.2,-4.1 -3.8,-4.3 -2,-0.2 -4.1,-0.8 -6.1,-0.6 -3.8,0.5 -5.8,4.6 -4.3,8.2 0.4,1 1,2 1.7,2.8 3.8,4.5 7.9,8.9 13.1,12 1.9,1.1 3.900003,2.1 6.000003,2.7 4,1 7.5,0.1 11.3,-3.5 z m -31.800003,-9.1 c -1.2,0.6 -2,0.9 -2.7,1.2 -2.3,1 -3,3 -3.2,5.3 -0.2,2.3 1.2,3.5 2.9,4.5 0.9,0.5 1.9,0.7 2.5,1.4 4.6,4.3 10.3,5.5 16.3,5.9 2.600003,0.1 5.200003,0 7.700003,0 2,0 4,1.6 3.3,2.7 -2.2,3.1 -0.5,6.5 -1.1,9.6 -0.9,4.9 1.7,8.7 3.9,13.5 1,-2.9 2.7,-4.7 1.2,-7.5 -0.7,-1.4 0,-3.5 0,-5.3 0,-5.6 0,-11.2 0,-16.9 -9.7,2.6 -11.3,1.2 -15.800003,-1.4 -3.7,-2.1 -6.9,-5 -10.1,-7.8 -1.7,-1.6 -3.2,-3.5 -4.9,-5.2 z m 23.100003,22.3 c -4,-0.5 -7.700003,-0.7 -11.300003,-1.6 -3.6,-0.8 -7.1,-2.3 -10.9,-3.6 0.1,1.1 -0.1,1.9 0.2,2.4 2.1,3.8 4.2,7.7 6.6,11.4 0.6,0.9 2,1.7 3.1,1.8 4.1,0.2 8.100003,0.1 12.400003,0.1 -0.1,-3.7 -0.1,-6.9 -0.1,-10.5 z m 41.8,4.2 c -0.4,-6 -0.7,-11.5 -1.1,-17 -5.8,13.2 -17.2,18.4 -29.8,22.2 -0.7,2.7 1.2,4.6 1.9,7.4 1.9,-1.6 3.3,-2.8 4.5,-4 1.9,-1.8 3.6,-4.1 5.7,-5.5 3.2,-2.1 7,-3.3 10.9,-3.2 2.5,0.1 4.9,0.1 7.9,0.1 z m 109.2,126.9 c -4.5,0 -8.8,0 -13.7,0 3.4,6.5 6.5,12.5 9.7,18.6 4.1,-7.4 5.3,-13.1 4,-18.6 z m 192.5,-120.7 c 2.8,-20.4 3.1,-27.5 1.2,-32.1 -1.8,0.6 -2.5,1.7 -2.6,3.6 -0.3,6 -0.7,12.1 -1.1,18.1 -0.3,3.5 -0.7,7 -1,10.9 1.2,-0.2 2.3,-0.3 3.5,-0.5 z m -224,59.7 c -15.4,-6.9 -30.1,-3.4 -45.2,2.1 7.8,-0.7 15.2,-1.7 22.5,-2 7.6,-0.3 15.2,-0.1 22.7,-0.1 z m -56.5,-184.1 c 0.6,-4.1 3.2,-7.2 2.7,-11.4 -0.5,-3.7 -0.1,-7.5 -0.1,-12.2 -3.6,6.9 -6.8,12.9 -10.1,19.2 2.5,1.5 4.8,2.8 7.5,4.4 z m -4.5,18.7 c -0.2,0.3 -0.4,0.5 -0.6,0.8 -1.5,-0.8 -3,-1.6 -4.6,-2.5 0.3,5.9 1.5,7 8.2,7.4 -0.4,2.7 -3.1,0.9 -4.4,2.4 0.8,1.1 1.6,2.3 2.5,3.6 2,-0.7 3.7,-1.4 5.1,-1.9 -1.5,-4.4 -2.9,-8.5 -4.2,-12.5 -2.7,-1.6 -5.4,-3.3 -8.5,-5.1 0.1,1.7 0.2,3 0.3,3.8 2.3,1.5 4.3,2.7 6.2,4 z m 2.4,-5 c 0.4,-3.3 0.8,-6.5 1.3,-9.6 0.3,-2.1 -0.2,-3.3 -2.3,-4.1 -1.7,-0.6 -3.2,-1.8 -4.8,-2.7 -1.2,3.2 -1.2,3.2 5.2,10.6 -1.9,-0.4 -3.2,-0.5 -4.3,-1.1 -1.1,-0.6 -1.9,-1.6 -3,-2.5 -1,4.8 0.9,7 7.9,9.4 z m 289.8,139.6 c -2.5,0.3 -4.9,0.6 -7.4,0.9 -0.1,2 -0.2,3.6 -0.3,5.6 3.4,0.2 6.5,0.4 10,0.6 -0.8,-2.5 -1.4,-4.5 -2.3,-7.1 z m -202,-229.9 c 1.2,-3.1 2.1,-5.9 1.4,-9 -0.2,-0.7 -1.1,-1.2 -1.7,-1.9 -0.5,0.7 -1.4,1.3 -1.6,2 -0.4,1.6 -0.7,3.3 -0.5,4.8 0.1,1.5 -0.6,3.6 2.4,4.1 z m 186.9,236.6 c -0.8,-1.9 -1.3,-3.3 -1.9,-4.8 -1.5,0.1 -2.9,0.2 -4.6,0.4 0.2,1.7 0.4,3 0.6,4.4 2,0 3.7,0 5.9,0 z m -249.2,-161.5 c -0.9,1.1 -1.7,2 -2.6,3.2 2.3,1.4 4.2,2.6 6.5,4.1 -0.2,-3.4 -0.6,-5.8 -3.9,-7.3 z m -35.3,39.3 c -3.6,-0.4 -6.8,1.8 -9.7,6.2 3.7,-2.3 6.7,-4.2 9.7,-6.2 z m 272,117.6 c 0.1,1.6 0.1,2.9 0.4,4 0.1,0.3 1.6,0.7 1.9,0.4 1.3,-1.2 0.2,-3.7 -2.3,-4.4 z m 23.9,-31.1 c 0.3,0 0.6,0.1 0.9,0.1 0.4,-2.9 0.9,-5.8 1.3,-8.7 -0.4,-0.1 -0.8,-0.1 -1.2,-0.2 -0.3,3 -0.6,5.9 -1,8.8 z m -264.5,181.9 c 1.4,2.9 1.4,2.9 6,2 -1.7,-0.6 -3.6,-1.2 -6,-2 z m -28.9,-118.8 c 2.2,3 2.2,3 4.4,2.2 -1.7,-0.8 -3.1,-1.5 -4.4,-2.2 z m 286.4,-30.4 c -1.3,1 -2,1.6 -3.1,2.5 2.2,0.6 3.3,0.5 3.1,-2.5 z m -198.9,-148.6 c 0.2,0.4 0.3,0.7 0.4,0.7 1.3,-0.1 2.6,-0.3 3.9,-0.5 -0.1,-0.3 -0.1,-0.6 -0.2,-0.9 -1.3,0.3 -2.6,0.5 -4.1,0.7 z m -18.4,-14.8 c -1.8,2 -1.8,2 -0.3,3 0,-0.9 0.1,-1.6 0.3,-3 z m 223.8,136.7 c 0.2,0 0.4,0 0.5,0 -0.1,-0.7 -0.1,-1.5 -0.2,-2.2 -0.1,0 -0.1,0 -0.2,0 0,0.7 0,1.4 -0.1,2.2 z" />
    <path
       inkscape:connector-curvature="0"
       id="path29"
       d="m 326.15314,532.43885 c 1.7,0.3 3.5,0.6 5.5,0.9 0.9,-4.4 -0.4,-8.6 -0.5,-12.8 3.4,3.8 2.1,8.5 2.4,13.1 1.9,0.5 3.9,1 5.9,1.4 6.7,1.6 10.1,6 11.5,12.6 2.5,11.8 3.4,23.7 4,35.7 0,0.4 0.2,0.8 0.3,1.2 1.6,-0.3 3.2,-0.6 4.8,-1 0.9,-0.2 2.5,0 1.9,-1.9 0,0 0.9,-0.6 1.2,-0.5 2,0.9 2.8,-0.5 3.7,-1.7 2.7,-3.7 3.1,-7.9 2.3,-12.3 -1.1,-6.1 -4,-11.5 -8.4,-15.8 -2.7,-2.7 -5.7,-5.2 -8.8,-8.1 1,0.1 1.8,-0.1 2.3,0.3 7.8,4.4 14,10.4 17,19 1.6,4.5 4.5,7.8 7.7,11 2.6,2.6 4.9,5.5 7,8.5 1,1.5 1.3,3.6 1.9,5.6 5,-0.3 10,-0.3 14.9,-0.8 15.6,-1.5 31.3,-3.2 46.9,-4.6 3.4,-0.3 6.9,-0.1 10.3,-0.1 1.8,0 3.1,0.8 4,2.7 -6,0.5 -11.7,1 -17.4,1.5 -5.2,0.4 -10.5,0.8 -15.7,1.2 -9.3,0.9 -18.6,2.1 -28,2.7 -12.9,0.8 -25.9,1.2 -38.9,1.7 -3.6,0.1 -7.2,-0.3 -10.7,0.3 -6.2,1.1 -12.3,2.8 -18.5,4.3 -3.3,0.8 -6.6,1.8 -9.9,2.9 -1.7,0.5 -3.3,1.4 -5,2.1 -0.8,-1.6 0.5,-2.2 1.5,-2.6 3.4,-1.5 6.8,-2.9 10.3,-4.3 2.1,-0.8 4.5,-1 6.2,-2.2 1.4,-1 2,-3.2 3,-4.8 0.1,0.1 0.2,0.2 0.3,0.3 -0.1,1.1 -0.1,2.1 -0.3,3.7 3.7,-0.6 7,-1.2 10.5,-1.8 0,-3.7 0.2,-7.1 0,-10.5 -0.6,-8.5 -1.3,-17 -2.2,-25.5 -0.4,-3.9 -1,-7.9 -1.8,-11.8 -0.2,-1.1 -1.4,-2.4 -2.4,-2.9 -2.6,-1.2 -5.4,-2 -8.1,-2.9 -2.5,-0.8 -5.1,-1.2 -7.5,-2.1 -1.1,-0.4 -2,-1.4 -3,-2.2 l -0.2,0.5 z m 46.5,39.2 c 0,6.3 -3.2,10.4 -6.9,14.7 -2.4,0 -5.4,-0.1 -8.3,0.1 -1.5,0.1 -3,0.7 -2.1,3 9.7,-0.6 19.4,-1.1 29.4,-1.7 -2.2,-7 -7.2,-11 -12.1,-16.1 z" />
    <path
       inkscape:connector-curvature="0"
       id="path33"
       d="m 293.05314,566.13885 c -16.8,3 -33.1,5.5 -49.6,6 -16.5,0.5 -33,0.7 -49.5,0.2 10.5,0 21,0.4 31.5,-0.1 13.5,-0.6 27,-1.7 40.4,-3 8.6,-0.8 17.2,-2.4 25.8,-3.6 1.4,-0.2 2.3,-0.6 3,-1.8 2.2,-3.6 5.5,-5.3 9.5,-5.9 3.9,-0.6 7.7,-2 11.8,-0.8 5.2,1.5 10,7.6 10.3,13.1 0.5,7.9 -3.4,13 -9.6,17 -1.4,0.9 -4,0.5 -4.3,3.1 0,0.1 -0.8,0.2 -1.2,0.1 -3.1,-0.5 -6.3,-0.9 -9.4,-1.5 -2.7,-0.5 -4.7,-2.2 -6.2,-4.5 -3.1,-4.7 -4.6,-9.7 -2.9,-15.3 0.3,-0.8 0.3,-1.5 0.4,-3 z m 2.8,1.4 c -2.2,3.8 -0.9,7.2 1.1,10.7 0.4,-0.1 1.4,-0.3 1.4,-0.4 -0.2,-1.6 -0.5,-3.1 -0.8,-4.7 2,0.2 3.4,1.1 3.3,3.4 0,2.4 -0.7,3.1 -4.5,4.3 1.3,1.4 2.4,2.6 3.8,4.1 0.1,-1.4 0.2,-2 0.3,-2.7 0.7,-3.8 1.3,-4.4 5.2,-4.3 2,0 3.9,0.4 6.1,0.6 -1.7,-4.1 -5,-0.1 -7.1,-1.9 0,-0.6 0,-1.2 0,-1.6 0.9,-0.1 2,0.1 2.2,-0.2 0.3,-0.6 0.2,-2.1 0,-2.2 -2.7,-0.7 -1.7,-3.9 -3.5,-5.1 -2.2,4.2 -4.3,4.4 -7.1,0.5 -0.1,-0.1 -0.3,-0.3 -0.4,-0.5 1.3,0.5 2.6,1.1 3.9,1.6 0.1,-0.2 0.3,-0.4 0.4,-0.7 -0.7,-0.9 -1.5,-1.8 -2.2,-2.8 -0.9,0.9 -1.5,1.4 -2.1,1.9 z m 24.7,-0.7 c -0.1,-4.2 -2.5,-6.1 -6.5,-4.9 -2.8,0.9 -5.4,4.1 -5.6,7 -0.3,3 1.7,5.5 4.8,6.3 2.5,0.6 4.7,-0.5 5.9,-3.3 0.7,-1.6 1,-3.4 1.4,-5.1 z m -11.6,20.8 c 0,-0.4 0,-0.8 0,-1.3 -1.6,0 -3.1,0 -4.7,0 0,0.2 0,0.4 -0.1,0.6 1.6,0.3 3.2,0.5 4.8,0.7 z m 8.1,-3.4 c -0.2,-0.2 -0.3,-0.5 -0.5,-0.7 -0.8,0.5 -1.5,1 -2.3,1.6 -0.1,0.1 0,0.5 0.1,1.2 1.1,-0.8 1.9,-1.5 2.7,-2.1 z" />
    <path
       inkscape:connector-curvature="0"
       id="path39"
       d="m 326.25314,532.33885 c -1.6,-0.8 -2.6,0.3 -3.7,1.1 -18.6,12.4 -39.3,18.5 -61.4,19.8 -14.7,0.9 -29.2,-0.9 -43.4,-4.6 -5.3,-1.4 -10.7,-2.8 -16,-4 -1.2,-0.3 -2.6,0 -3.9,0 -7.7,0.4 -16.7,-0.6 -21.8,-7.2 -1.8,-2.3 -1.7,-3 0.4,-5.2 1.1,7.4 6.9,8.7 12.6,10.1 1.7,0.4 3.5,0.4 5.4,0.6 -3.8,-2 -7.5,-3.9 -11.2,-5.7 0.1,-0.2 0.2,-0.5 0.3,-0.7 2.6,0.8 5.2,1.7 7.8,2.3 15,3.4 30,7.5 45.2,10 16,2.7 32.2,1.6 48,-2.5 12.8,-3.3 24.7,-8.6 36.3,-14.7 2.8,-1.4 5.7,-2.4 8.6,-3.7 0.2,0.3 0.3,0.5 0.5,0.8 -0.4,0.4 -0.7,0.8 -1.1,1.2 -0.4,0.3 -1.1,0.4 -1.4,0.8 -0.5,0.5 -0.8,1.2 -1.2,1.8 -0.1,-0.1 0,-0.2 0,-0.2 z" />
    <path
       inkscape:connector-curvature="0"
       id="path47"
       d="m 282.05314,683.13885 c -5.5,8.8 -10.8,17.3 -16,25.9 -0.9,1.5 -1.8,1.9 -3.2,1.4 0.8,-1.7 1.4,-3.6 2.4,-5.2 1.6,-2.7 3.4,-5.3 5.2,-8 3.5,-5.3 7.2,-10.4 9.4,-16.5 0.1,-0.4 0.5,-0.6 0.4,-0.5 2.5,0.2 4.5,0.7 6.6,0.6 6.5,-0.3 12.9,-0.9 19.4,-1.3 15.4,-1 30.8,-0.5 46.2,1.4 0.9,0.1 1.8,0.4 2.7,1.4 -3.5,0.2 -7.1,0.8 -10.6,0.6 -16.5,-1 -33.1,-1.1 -49.6,0.1 -4.4,0.4 -8.9,0.1 -12.9,0.1 z" />
    <path
       inkscape:connector-curvature="0"
       id="path49"
       d="m 279.25314,817.43885 c 10.8,3.4 22,2.8 33.5,1.6 -1.5,0.8 -2.9,2 -4.6,2.3 -10.2,2.1 -20.3,1.7 -30.1,-1.9 -2.1,-0.8 -3.9,-2.4 -6.4,-3.9 1.2,-0.1 1.8,-0.1 2.6,-0.1 -5,-17.6 -4,-35.2 0.3,-52.9 0.1,0.5 0.3,1 0.3,1.5 -0.1,8.5 -0.1,17.1 -0.5,25.6 -0.4,8.3 1.6,16.1 3.7,24 0.3,1.1 0.7,2.1 1.2,3.8 z" />
    <path
       inkscape:connector-curvature="0"
       id="path53"
       d="m 283.05314,377.73885 c -3.3,-2.1 -5.9,-3.6 -8.4,-5.4 -8.6,-6.1 -17.9,-7.3 -27.7,-3.4 -2.1,0.9 -3.8,0 -5.3,-0.9 -1.2,-0.7 -1.7,-5.2 -0.8,-6.2 0.5,-0.6 1.6,-1.2 2.4,-1.2 4.8,-0.1 9.6,-0.2 14.4,-0.1 5,0 9.1,1.6 12.6,5.5 2.4,2.6 5.7,4.3 8.5,6.4 1.8,1.2 3.6,2.2 4.3,5.3 z" />
    <path
       inkscape:connector-curvature="0"
       id="path55"
       d="m 195.65314,653.53885 c 3.5,-2.9 7.3,-5.5 11.9,-5.9 5.7,-0.5 11.4,-0.4 17.3,0.5 8.7,1.3 16.9,3.7 25.1,6.7 0.8,0.3 1.8,0.4 2.2,1 3.1,3.8 7.9,4.9 11.7,7.6 3.6,2.5 7.2,5.1 10.7,7.8 1.8,1.4 1.9,1.9 2.5,5.4 -7.3,-6.5 -15.6,-10.7 -23.4,-15.8 -8.2,-5.3 -17,-7.9 -26.4,-9.3 -2.9,-0.4 -5.7,-1.2 -8.5,-1.5 -8.1,-1 -15.7,0.1 -23.1,3.5 z" />
    <path
       inkscape:connector-curvature="0"
       id="path61"
       d="m 278.15314,404.03885 c -3.3,-0.6 -6.7,-1.5 -10,-1.6 -9.2,-0.5 -18.4,-0.6 -27.6,-0.9 -2.1,-0.1 -4.1,0 -6.4,0 0.3,-1.9 1.1,-2.9 2.8,-3 0.7,-0.1 1.4,-0.1 2.1,0 11.9,0.7 23.9,-0.6 35.8,1.4 7.4,1.3 14.9,2.6 22.3,4 0.9,0.2 1.8,0.7 2.9,1.1 -0.2,0.7 -0.4,1.4 -0.5,2 -3.9,-0.5 -7.6,-0.9 -11.4,-1.4 0,0 0.1,0.1 0.1,0.1 -1.7,-0.3 -3.5,-0.6 -5.2,-0.9 0,0 0.2,0.1 0.2,0.1 -1.7,-0.3 -3.4,-0.6 -5.2,-0.9 -0.1,-0.1 0.1,0 0.1,0 z" />
    <path
       inkscape:connector-curvature="0"
       id="path69"
       d="m 310.35314,762.83885 c 2.2,2.7 2.3,5.7 2.3,8.6 0,8.2 -0.2,16.5 -0.2,24.7 0,6 0.3,11.9 0.5,18.8 -1.6,-2.3 -2.4,-3.9 -2.9,-6 -1.6,-7.3 -1.5,-14.8 -1.3,-22.2 0.2,-6.2 0.5,-12.4 0.8,-18.5 0.2,-1.8 0.6,-3.6 0.8,-5.4 z" />
    <path
       inkscape:connector-curvature="0"
       id="path77"
       d="m 237.45314,831.33885 c -4.2,1.9 -8.3,4.3 -12.7,5.6 -14.2,4.2 -28.8,4.9 -43.3,1.9 -2.5,-0.5 -4.9,-1.7 -7.2,-2.9 -0.9,-0.4 -1.5,-1.4 -2.8,-2.7 15.8,6.7 31.3,5.6 46.8,2.9 5.2,-0.9 10.2,-2.1 14.9,-4.7 1.2,-0.7 2.9,-0.7 4.3,-1 -0.1,0.4 -0.1,0.7 0,0.9 z" />
    <path
       inkscape:connector-curvature="0"
       id="path85"
       d="m 367.65314,729.03885 c -2.2,-3.5 -2.3,-7 -2.6,-10.3 -0.8,-6.7 -1,-13.4 -1.8,-20.1 -0.5,-4.6 -1.6,-9.2 -2.4,-13.8 -0.3,-1.5 -0.5,-3 -0.3,-4.6 3.1,4.4 4.9,9.1 5.5,14.3 1.1,9.8 2.2,19.7 3.2,29.5 0.2,2.4 0.2,2.4 -1.6,5 z" />
    <path
       inkscape:connector-curvature="0"
       id="path91"
       d="m 171.75314,846.73885 c 0.5,3.3 0.5,3.9 3.5,5.4 2.9,1.5 6.1,2.6 9.3,3.3 10.3,2.3 20.8,2 31.3,1.5 4.8,-0.2 9.5,-1 14.9,-1.5 -2.2,1 -4,2.3 -5.9,2.6 -14.1,2.2 -28.3,2.4 -42.3,-1 -3.4,-0.8 -6.8,-2.1 -9.6,-4.6 -1.9,-1.6 -2.3,-3.4 -1.2,-5.7 z" />
    <path
       inkscape:connector-curvature="0"
       id="path103"
       d="m 394.05314,621.23885 c 0.5,3.5 -3.9,4.6 -2.2,7.5 2.7,-0.7 5.3,-1.4 8.5,-2.2 -1.4,-2.2 -2.5,-3.8 -3.5,-5.2 2.4,0.4 4.4,2.2 4.6,4.5 0.3,3.3 -2.8,3.2 -4.6,4.6 -0.8,3.9 -3.2,5.1 -7,3.5 -2.6,-1.1 -4.3,-3.2 -4.5,-5.9 -0.3,-3 0.8,-5.7 3.3,-7.6 1.6,-1.2 3.3,-1.3 5.2,0.5 -3.5,-0.1 -5.8,1.2 -6.6,4.4 -0.7,2.7 0.2,4.8 2.8,6.3 -1,-1.8 -1.7,-3.7 -0.4,-5.4 1.2,-1.7 2.6,-3.1 4.4,-5 z" />
    <path
       inkscape:connector-curvature="0"
       id="path105"
       d="m 324.65314,442.33885 c 1.1,0.5 2.3,0.7 2.8,1.4 1.1,1.7 2.5,3.5 2.7,5.4 0.6,5.3 0.8,10.7 -1,15.9 -0.4,1.1 -1.5,2.4 -2.6,2.7 -1.7,0.6 -2.8,-0.8 -3.3,-2.3 -0.5,-1.5 -1.1,-3.2 -1,-4.7 0.3,-3.8 0.9,-7.6 1.4,-11.4 0.3,-2 0.6,-4 1,-7 z m 1.7,4.7 c -0.4,0 -0.7,0 -1.1,0 -0.4,4.6 -0.9,9.2 -1.2,13.7 -0.1,2 0.2,4 2.6,5.5 1.2,-6.8 3.1,-13.1 -0.3,-19.2 z" />
    <path
       inkscape:connector-curvature="0"
       id="path109"
       d="m 132.75314,418.73885 c -0.5,-1.1 -0.2,-2.3 1.3,-2.5 6,-0.7 12.1,-1.3 18.1,0.4 0.9,0.3 1.6,0.9 2.4,2.1 -7.1,0 -14.2,0 -21.8,0 z" />
    <path
       inkscape:connector-curvature="0"
       id="path115"
       d="m 189.45314,372.63885 c -1.7,-1.3 -3.4,-2.5 -5.1,-3.9 -2.1,-1.7 -4.3,-3.5 -6.3,-5.3 -1.2,-1 -3.2,-2.1 -1.8,-3.9 1.5,-2 2.9,0.1 4.2,0.9 3.6,2.3 7,4.9 9,8.9 0.4,0.8 0.6,1.7 0.9,2.6 -0.3,0.2 -0.6,0.4 -0.9,0.7 z" />
    <path
       inkscape:connector-curvature="0"
       id="path117"
       d="m 171.25314,394.53885 c -7.1,-2.3 -13.4,-6.1 -20.4,-8.5 0.3,-2.1 2,-2.3 3,-1.8 6.2,2.4 13.1,3.5 17.5,9.1 0.2,0.1 0,0.4 -0.1,1.2 z" />
    <path
       inkscape:connector-curvature="0"
       id="path121"
       d="m 280.75314,815.33885 c 8.7,0 16.9,0 25.3,0 0.1,1.2 -0.7,2.2 -2.2,2.4 -6.6,0.8 -13.1,0.9 -19.7,-0.4 -1,-0.4 -2,-1.2 -3.4,-2 z" />
    <path
       inkscape:connector-curvature="0"
       id="path125"
       d="m 340.85314,587.73885 c 0.1,-9.1 0.6,-18.2 -2.7,-26.9 -0.4,-1.1 -0.6,-2.3 -0.4,-3.8 1,2 2.3,4 3,6.1 2.7,7.6 2.1,15.5 1.7,23.3 0,0.5 -0.8,1 -1.2,1.5 -0.2,0 -0.3,-0.1 -0.4,-0.2 z" />
    <path
       inkscape:connector-curvature="0"
       id="path135"
       d="m 144.85314,594.13885 c 2.6,-0.3 4.9,-0.5 7.1,1.7 1.2,1.2 3.4,1.5 5.2,2.1 1,0.4 2,0.6 2.9,1.1 -5,0.7 -9.5,-0.1 -13.1,-3.9 -0.6,-0.4 -1.4,-0.6 -2.1,-1 0,0 0,0 0,0 z" />
    <path
       inkscape:connector-curvature="0"
       id="path139"
       d="m 261.95314,601.63885 c 0.4,-0.4 0.7,-1 1.1,-1 8.6,-1.2 17.1,-2.4 25.7,-3.5 0.4,-0.1 0.8,0.1 1.2,0.7 -9.3,1.2 -18.7,2.4 -28,3.8 l 0,0 z" />
    <path
       inkscape:connector-curvature="0"
       id="path141"
       d="m 107.55314,539.93885 c 3.5,0.2 6.9,0.3 10.4,0.6 0.5,0 0.9,0.8 1.5,1.4 -4.8,0.9 -8.9,0.5 -12,-1.1 0,-0.3 0.1,-0.6 0.1,-0.9 z" />
    <path
       inkscape:connector-curvature="0"
       id="path143"
       d="m 257.95314,643.23885 c -9.5,0 -19,0 -28.5,0 0,-0.1 0,-0.2 0,-0.3 9.6,0 19.1,0 28.7,0 -0.1,0.1 -0.2,0.2 -0.2,0.3 z" />
    <path
       inkscape:connector-curvature="0"
       id="path151"
       d="m 261.85314,601.53885 c -5.9,0.5 -11.8,1 -17.8,1.5 0,-0.2 0,-0.4 -0.1,-0.7 4.7,-0.4 9.5,-0.8 14.3,-1.2 1.2,0 2.4,0.3 3.6,0.4 0.1,0.1 0,0 0,0 z" />
    <path
       inkscape:connector-curvature="0"
       id="path153"
       d="m 189.25314,604.83885 c 5.5,0 10.9,0 16.4,0 0,0.1 0,0.1 0,0.2 -5.5,0 -11,0 -16.5,0 0.1,-0.1 0.1,-0.2 0.1,-0.2 z" />
    <path
       inkscape:connector-curvature="0"
       id="path155"
       d="m 227.35314,604.23885 c -4,0 -8,0 -12.1,0 0,-0.1 0,-0.2 0,-0.3 4,0 8,0 12,0 0.1,0.1 0.1,0.2 0.1,0.3 z" />
    <path
       inkscape:connector-curvature="0"
       id="path157"
       d="m 239.55314,603.43885 c -2.6,0 -5.3,0 -7.9,0 0,-0.1 0,-0.2 0,-0.4 2.7,0 5.4,0 8,0 0,0.2 0,0.3 -0.1,0.4 z" />
    <path
       inkscape:connector-curvature="0"
       id="path159"
       d="m 279.55314,641.33885 c 1.6,-2 3.7,-0.7 5.4,-0.9 -1.7,0.3 -3.5,0.6 -5.4,0.9 l 0,0 z" />
    <path
       inkscape:connector-curvature="0"
       id="path161"
       d="m 263.95314,642.03885 c 1.7,0 3.4,0 5,0 0,0.1 0,0.2 0,0.3 -1.7,0 -3.4,0 -5,0 0,-0.1 0,-0.2 0,-0.3 z" />
    <path
       inkscape:connector-curvature="0"
       id="path163"
       d="m 218.45314,642.03885 c 1.3,0 2.7,0 4,0 0,0.1 0,0.1 0,0.2 -1.3,0 -2.7,0 -4,0 0,0 0,-0.1 0,-0.2 z" />
    <path
       inkscape:connector-curvature="0"
       id="path165"
       d="m 74.653137,692.53885 c -0.8,1.2 -1.6,2.3 -2.4,3.5 -0.2,-0.1 -0.3,-0.2 -0.5,-0.3 0.7,-1.2 1.4,-2.4 2.1,-3.6 0.3,0.2 0.6,0.3 0.8,0.4 z" />
    <path
       inkscape:connector-curvature="0"
       id="path167"
       d="m 279.55314,641.33885 c -1.6,0.1 -3.2,0.3 -4.8,0.4 0,-0.2 0,-0.4 0,-0.7 1.6,0.1 3.2,0.2 4.8,0.3 0,0 0,0 0,0 z" />
    <path
       inkscape:connector-curvature="0"
       id="path171"
       d="m 212.55314,641.53885 c -0.6,0 -1.3,0 -1.9,0 0,-0.1 0,-0.1 0,-0.2 0.7,0 1.4,0 2,0 0,0 0,0.1 -0.1,0.2 z" />
    <path
       inkscape:connector-curvature="0"
       id="path173"
       d="m 204.25314,640.33885 c 0.6,0 1.3,0 1.9,0 0,0.1 0,0.2 0,0.3 -0.6,0 -1.3,0.1 -1.9,0.1 0,-0.1 0,-0.2 0,-0.4 z" />
    <path
       style="fill:#ffffff"
       inkscape:connector-curvature="0"
       id="path175"
       d="m 33.753137,756.33885 c 0,-3.3 0,-6.3 0,-9.6 7.9,3.1 15.9,2.8 23.9,2.9 13.4,0.1 26.8,-0.2 40.2,-0.3 18.800003,-0.1 37.500003,0.3 56.300003,1.3 16.8,0.9 33.7,1.3 50.5,1.3 32.6,0.1 65.1,0.3 97.7,-0.3 27.7,-0.5 55.4,-1.7 83.2,-2.8 18.3,-0.7 36.7,-1.5 55,-2.8 26.4,-1.9 52.9,-2.2 79.4,-3.3 4.9,-0.2 9.9,0 15.2,0 0,4.6 0,8.8 0,13.2 -0.8,0.1 -1.6,0.3 -2.3,0.3 -24.4,0.6 -48.8,1.4 -73.3,1.8 -30.5,0.5 -61,1 -91.5,1.1 -13.9,0.1 -27.9,-0.7 -41.8,-1 -22.8,-0.5 -45.5,-1.2 -68.3,-1.3 -31.7,-0.2 -63.5,0.1 -95.2,0.2 -12.3,0.1 -24.6,0.4 -36.8,0.7 -5.3,0.1 -10.5,0.2 -15.8,0.5 -6.2,0.4 -12.400003,0.9 -18.600003,1.1 -6.3,0.2 -12.7,0.4 -19,0.4 -6.3,0 -12.7,-0.1 -19,-0.2 -6.9,-0.2 -13.3,-1.2 -19.8,-3.2 z"
       class="st0" />
    <path
       style="fill:#ffffff"
       inkscape:connector-curvature="0"
       id="path177"
       d="m 182.35314,764.63885 c -0.6,5.9 -1.2,11.8 -1.8,17.7 -0.8,9.2 -0.9,18.5 1.6,27.5 1.2,4.3 3.1,8.5 4.8,12.9 -2.4,0.5 -3.4,-0.9 -4.1,-3.1 -3.3,-10.7 -5.2,-21.6 -4.7,-32.9 0.4,-7.8 -0.1,-15.7 -0.2,-23.6 0,-1 0,-1.9 0,-2.8 3.1,-1 38.8,-1.4 46.4,-0.6 2.9,6.4 2.9,13.3 2.7,20.1 -0.2,8.5 -1,17.1 -1.6,25.6 -0.2,2.6 0.2,5 1.3,7.5 3.6,-13.5 4.2,-27.1 3.1,-40.6 -0.3,-3.4 -1.7,-6.6 -2.6,-9.9 -0.3,-0.9 -0.7,-1.7 -1.2,-2.8 1.7,0 3,0 4.8,0 0.5,2.3 1.3,4.7 1.6,7.1 0.9,8.1 0.5,16.2 -0.1,24.3 -0.7,9.3 -1.4,18.7 -2.2,28 -0.1,0.8 -0.2,1.6 -0.3,2.9 -6.6,0.5 -13.2,1 -19.7,1.5 0,-0.2 0,-0.3 -0.1,-0.5 4.1,-1.4 8.2,-2.9 13.2,-4.6 -2.7,0 -4.6,-0.4 -6.4,0.1 -6.6,1.6 -13.3,2.5 -20.1,2.1 -1.5,-0.1 -3,-0.3 -4.5,-0.6 -3.9,-0.7 -6.1,-2.9 -7.1,-6.9 -3,-12 -3.1,-24 -1.9,-36.2 0.4,-4.1 0.8,-8.2 -0.9,-12.2 z"
       class="st0" />
    <path
       style="fill:#ffffff"
       inkscape:connector-curvature="0"
       id="path179"
       d="m 184.65314,513.83885 c -0.3,2.5 -2.7,2.5 -4.3,4.1 -3.2,-3.9 -4.6,-8.3 -5,-12.8 -0.5,-6 -0.3,-12.1 0,-18.2 0.1,-2.3 0.9,-4.6 1.7,-6.8 1.1,-3.2 1.2,-3.2 -2.7,-3.8 0,-5.8 -0.3,-11.7 0.1,-17.6 0.5,-6.9 1.5,-13.7 2.5,-20.5 1.2,-7.5 4.3,-14.2 8.5,-20.5 2.4,-3.6 4.9,-7 7.3,-10.5 0.6,-0.9 1.3,-1.9 2.2,-2.5 2.9,-1.9 5.1,-4.4 6.7,-7.4 0.4,-0.7 1.2,-1.1 1.9,-1.5 3.5,-2.3 7.2,-4.1 11.4,-4.7 5.5,-0.8 11,-1.5 17.3,-2.4 -2.6,3.8 -4.6,6.9 -6.6,9.9 -3.3,0.7 -6.6,1.2 -9.8,2 -7,1.8 -11.9,6.2 -14.5,12.9 -3.5,9.3 -6.9,18.6 -10,28 -2.6,7.9 -3.8,16.1 -3.8,24.4 0,3.8 0,7.7 0,11.5 -2.1,-0.5 -4,-1 -5.9,-1.5 4.8,3.6 7,8.2 7.8,13.8 0.7,4.5 1.4,9 0.8,13.6 -0.2,1.4 0.2,3 -1.8,3.7 -0.4,0.1 -0.7,1.2 -0.7,1.8 -0.1,3.8 0,3.8 -3.4,4.9 1,-3.1 2.2,-6.2 2.8,-9.4 1.2,-6.2 1.2,-12.4 -3.1,-17.6 -1.6,-2 -3.1,-4.4 -6.7,-4.9 1.5,1.7 2.6,2.8 3.6,4 2.9,3.4 4.4,7.1 4.4,11.6 0,5.8 -2.3,11.1 -4,17.2 1.5,-0.2 2.4,-0.5 3.3,-0.8 z"
       class="st0" />
    <path
       style="fill:#ffffff"
       inkscape:connector-curvature="0"
       id="path181"
       d="m 252.15314,485.33885 c 3.8,-0.9 7.5,-1.8 11.3,-2.6 2,-0.4 4.1,-0.4 6.2,-0.7 3.7,-0.5 7.3,-0.4 10.2,-3.9 2.8,-3.5 7.5,-3.2 11.5,-3.5 2.7,-0.2 5.9,-1 7.5,2.6 0.2,0.5 1.2,0.6 1.8,0.8 2.9,0.9 4.1,2.8 4.2,5.8 0.1,5.2 -2,9.6 -4.3,14 -1.1,2.2 -3.2,3.2 -5.6,2.8 -4.9,-0.8 -9.7,-1.7 -14.6,-2.7 -0.8,-0.2 -1.5,-1 -2.3,-1.6 -0.4,-0.3 -0.9,-0.8 -1.3,-0.7 -2.7,0.8 -5,-0.5 -7,-1.7 -3.3,-1.8 -6.7,-2.3 -10.3,-2.3 -3.7,0 -7.3,0 -11.3,0 0.6,-2.2 1.2,-3.6 3.7,-3.9 4.9,-0.6 9.7,-1.7 14.6,-2.5 1.6,-0.3 3.2,-0.2 4.8,-0.3 5.3,-0.5 10.7,-0.9 16.3,-1.5 0.1,2.5 0.3,4.9 0.4,7.4 2.9,-0.3 1.5,-2.6 2.6,-3.6 0.6,0.3 1.1,0.7 2,1.2 0.1,-2.7 -2,-4.2 -2.4,-6.9 -6.5,0.7 -12.9,1.5 -19.3,2.2 -6.2,0.7 -12.5,1.3 -18.7,2 0.1,-0.1 0,-0.3 0,-0.4 z"
       class="st0" />
    <path
       style="fill:#ffffff"
       inkscape:connector-curvature="0"
       id="path183"
       d="m 125.05314,619.93885 c 4.5,0.5 10.3,-4.7 13.4,-11.7 3.2,2.2 4.3,5.5 2.4,9 -1.3,2.5 -3,5.1 -5.1,7 -5.5,4.8 -11.9,8.2 -19.1,10.8 -0.5,-5.7 -0.9,-11.1 -1.4,-17.4 1.6,1.1 2.5,1.8 3.9,2.7 -0.5,-1.9 -0.8,-3.2 -1.2,-4.7 1.3,-0.4 2.4,-0.8 3.6,-1.1 5.3,-1.5 7.6,-4.7 5.3,-11.6 -1.2,-3.7 -3.7,-6.8 -7.2,-8.8 -1.6,-1 -2.2,-2.3 -2.1,-4.1 0.2,-3.6 0.4,-7.1 0.4,-10.7 0,-4 2.4,-6.7 4.8,-9.2 1.9,-1.9 5.6,0.2 6,3.3 0.2,1.7 -0.1,3.6 -0.2,5.3 -0.2,2.6 -0.3,5.2 -0.6,7.8 -0.3,2.8 0.6,5.1 2.8,6.4 4.7,2.8 4.2,7.2 4.1,11.6 -0.1,4.1 -2.2,7.1 -5.4,9.2 -2.3,1.6 -3.5,3.5 -4.4,6.2 z"
       class="st0" />
    <path
       style="fill:#ffffff"
       inkscape:connector-curvature="0"
       id="path185"
       d="m 92.553137,669.23885 c -0.4,-2.1 -1.9,-1.1 -2.9,-0.9 -3.6,0.6 -6.1,-1 -8,-3.9 -0.3,-0.5 -0.7,-0.9 -0.7,-1.4 -0.3,-3.1 -0.9,-6.3 -0.6,-9.4 0.5,-3.9 1.8,-7.7 2.8,-11.5 0.3,-1.4 0.6,-2.8 1,-4.4 1.2,-0.5 2.4,-0.2 3.1,1.3 1.5,2.9 4.1,3.8 7.2,3.7 3.7,-0.2 7.400003,-0.2 11.500003,-0.4 0.9,3.2 2,6.6 2.9,10.1 0.2,0.6 -0.2,1.7 -0.7,2.2 -5.2,4.9 -10.500003,9.7 -15.700003,14.5 0,0 0.1,0.1 0.1,0.1 z"
       class="st0" />
    <path
       style="fill:#ffffff"
       inkscape:connector-curvature="0"
       id="path187"
       d="m 216.85314,508.93885 c 1.1,-1.5 2.3,-2.9 3.2,-4.5 3.7,-6.4 7.3,-13 11,-19.4 3.2,-5.5 6.4,-10.9 9.9,-16.3 6.5,-10.1 13.3,-20 22.5,-28 0.9,-0.8 1.7,-1.8 2.6,-2.9 -2.9,-2.9 -2.4,-6.5 -1.6,-10 0.3,-1.4 0.5,-1.4 3.2,-2.2 1.1,3.3 0,6.5 -0.3,10.7 2.1,-2.4 3.4,-4.4 5.2,-5.8 1.9,-1.5 4.2,-2.3 6.9,-2.9 -0.6,1 -1,2.1 -1.8,3 -14.4,15.7 -25.4,34 -37.7,51.3 -4.8,6.8 -9.3,13.7 -14,20.5 -1.7,2.5 -3.3,5 -5.2,7.4 -0.5,0.7 -1.9,0.8 -2.9,0.9 -0.3,0 -0.6,-1.2 -0.9,-1.9 l -0.1,0.1 z"
       class="st0" />
    <path
       style="fill:#ffffff"
       inkscape:connector-curvature="0"
       id="path189"
       d="m 114.35314,615.43885 c -3.8,3.6 -7.3,4.5 -11.3,3.4 -2.1,-0.6 -4.100003,-1.6 -6.000003,-2.7 -5.1,-3.1 -9.2,-7.4 -13.1,-12 -0.7,-0.8 -1.3,-1.8 -1.7,-2.8 -1.5,-3.6 0.5,-7.7 4.3,-8.2 2,-0.3 4,0.3 6.1,0.6 2.6,0.3 2.8,2.6 3.8,4.3 2,3.6 4.200003,7.1 6.600003,10.5 2.5,3.7 5.8,6.4 11.3,6.9 z"
       class="st0" />
    <path
       style="fill:#ffffff"
       inkscape:connector-curvature="0"
       id="path191"
       d="m 82.553137,606.33885 c 1.7,1.8 3.1,3.6 4.9,5.1 3.3,2.7 6.5,5.7 10.1,7.8 4.500003,2.6 6.000003,3.9 15.800003,1.4 0,5.7 0,11.3 0,16.9 0,1.8 -0.8,3.9 0,5.3 1.6,2.8 -0.1,4.6 -1.2,7.5 -2.2,-4.7 -4.8,-8.5 -3.9,-13.5 0.6,-3.2 -1.1,-6.5 1.1,-9.6 0.8,-1.1 -1.2,-2.7 -3.2,-2.7 -2.6,0 -5.2,0.2 -7.700003,0 -6,-0.3 -11.7,-1.6 -16.3,-5.9 -0.7,-0.6 -1.7,-0.9 -2.5,-1.4 -1.8,-1 -3.2,-2.1 -2.9,-4.5 0.2,-2.3 1,-4.3 3.2,-5.3 0.6,-0.2 1.4,-0.5 2.6,-1.1 z"
       class="st0" />
    <path
       style="fill:#ffffff"
       inkscape:connector-curvature="0"
       id="path193"
       d="m 105.65314,628.63885 c 0,3.5 0,6.8 0,10.4 -4.3,0 -8.400003,0.1 -12.400003,-0.1 -1.1,-0.1 -2.5,-0.9 -3.1,-1.8 -2.3,-3.7 -4.4,-7.5 -6.6,-11.4 -0.3,-0.5 -0.1,-1.3 -0.2,-2.4 3.9,1.3 7.3,2.8 10.9,3.6 3.7,1 7.400003,1.2 11.400003,1.7 z"
       class="st0" />
    <path
       style="fill:#ffffff"
       inkscape:connector-curvature="0"
       id="path195"
       d="m 147.45314,632.83885 c -2.9,0 -5.4,0 -7.8,0 -4,0 -7.7,1.1 -10.9,3.2 -2.2,1.4 -3.8,3.7 -5.7,5.5 -1.3,1.2 -2.7,2.3 -4.5,4 -0.7,-2.8 -2.6,-4.7 -1.9,-7.4 12.6,-3.8 24.1,-9 29.8,-22.2 0.2,5.3 0.6,10.8 1,16.9 z"
       class="st0" />
    <path
       style="fill:#ffffff"
       inkscape:connector-curvature="0"
       id="path197"
       d="m 256.65314,759.73885 c 1.3,5.5 0.1,11.2 -4,18.6 -3.2,-6.1 -6.3,-12.1 -9.7,-18.6 4.9,0 9.2,0 13.7,0 z"
       class="st0" />
    <path
       style="fill:#ffffff"
       inkscape:connector-curvature="0"
       id="path199"
       d="m 449.15314,639.03885 c -1.2,0.1 -2.2,0.3 -3.5,0.4 0.4,-3.8 0.8,-7.4 1,-10.9 0.4,-6 0.9,-12.1 1.1,-18.1 0.1,-1.9 0.8,-3 2.6,-3.6 1.9,4.7 1.6,11.9 -1.2,32.2 z"
       class="st0" />
    <path
       style="fill:#ffffff"
       inkscape:connector-curvature="0"
       id="path201"
       d="m 225.15314,698.73885 c -7.5,0 -15.1,-0.3 -22.6,0.1 -7.4,0.3 -14.7,1.3 -22.5,2 15,-5.5 29.7,-8.9 45.1,-2.1 z"
       class="st0" />
    <path
       style="fill:#ffffff"
       inkscape:connector-curvature="0"
       id="path203"
       d="m 168.65314,514.63885 c -2.7,-1.6 -5,-3 -7.5,-4.4 3.3,-6.3 6.4,-12.3 10.1,-19.2 0,4.7 -0.4,8.5 0.1,12.2 0.5,4.2 -2.1,7.3 -2.7,11.4 z"
       class="st0" />
    <path
       style="fill:#ffffff"
       inkscape:connector-curvature="0"
       id="path205"
       d="m 164.15314,533.33885 c -1.9,-1.2 -3.9,-2.4 -6.2,-3.9 -0.1,-0.8 -0.1,-2.1 -0.3,-3.8 3.1,1.8 5.8,3.5 8.5,5.1 1.3,4 2.7,8.1 4.2,12.5 -1.3,0.5 -3.1,1.1 -5.1,1.9 -0.9,-1.3 -1.8,-2.5 -2.5,-3.6 1.3,-1.5 3.9,0.3 4.4,-2.4 -6.6,-0.4 -7.8,-1.5 -8.2,-7.4 1.6,0.9 3.1,1.7 4.6,2.5 0.2,-0.4 0.4,-0.7 0.6,-0.9 z"
       class="st0" />
    <path
       style="fill:#ffffff"
       inkscape:connector-curvature="0"
       id="path207"
       d="m 166.55314,528.33885 c -6.9,-2.4 -8.9,-4.6 -8,-9.4 1.1,0.9 1.9,2 3,2.5 1.1,0.5 2.4,0.6 4.3,1.1 -6.3,-7.4 -6.3,-7.4 -5.2,-10.6 1.6,0.9 3.1,2.1 4.8,2.7 2.1,0.8 2.6,2.1 2.3,4.1 -0.5,3.1 -0.8,6.3 -1.2,9.6 z"
       class="st0" />
    <path
       style="fill:#ffffff"
       inkscape:connector-curvature="0"
       id="path209"
       d="m 456.35314,667.93885 c 0.8,2.6 1.5,4.7 2.3,7.1 -3.5,-0.2 -6.6,-0.4 -10,-0.6 0.1,-2 0.2,-3.6 0.3,-5.6 2.5,-0.3 4.9,-0.6 7.4,-0.9 z"
       class="st0" />
    <path
       style="fill:#ffffff"
       inkscape:connector-curvature="0"
       id="path211"
       d="m 254.35314,438.03885 c -3,-0.5 -2.2,-2.6 -2.4,-4 -0.2,-1.6 0.1,-3.3 0.5,-4.8 0.2,-0.8 1,-1.4 1.6,-2 0.6,0.6 1.5,1.1 1.7,1.9 0.7,3 -0.2,5.8 -1.4,8.9 z"
       class="st0" />
    <path
       style="fill:#ffffff"
       inkscape:connector-curvature="0"
       id="path213"
       d="m 216.95314,508.83885 c -1.2,1.4 -2.4,2.8 -4.9,1.3 1.7,-2.9 2.6,-6.3 7.2,-7.5 -1,2.6 -1.8,4.5 -2.5,6.3 0.1,0 0.2,-0.1 0.2,-0.1 z"
       class="st0" />
    <path
       style="fill:#ffffff"
       inkscape:connector-curvature="0"
       id="path215"
       d="m 441.25314,674.63885 c -2.2,0 -3.9,0 -5.9,0 -0.2,-1.4 -0.4,-2.8 -0.6,-4.4 1.7,-0.1 3.1,-0.3 4.6,-0.4 0.6,1.5 1.1,2.9 1.9,4.8 z"
       class="st0" />
    <path
       style="fill:#ffffff"
       inkscape:connector-curvature="0"
       id="path217"
       d="m 192.05314,513.13885 c 3.3,1.5 3.7,4 3.9,7.3 -2.4,-1.5 -4.3,-2.7 -6.5,-4.1 0.9,-1.2 1.7,-2.1 2.6,-3.2 z"
       class="st0" />
    <path
       style="fill:#ffffff"
       inkscape:connector-curvature="0"
       id="path219"
       d="m 156.75314,552.43885 c -3,1.9 -6,3.8 -9.7,6.2 2.9,-4.3 6.1,-6.5 9.7,-6.2 z"
       class="st0" />
    <path
       style="fill:#ffffff"
       inkscape:connector-curvature="0"
       id="path221"
       d="m 428.75314,670.03885 c 2.5,0.7 3.6,3.2 2.3,4.4 -0.3,0.3 -1.8,-0.1 -1.9,-0.4 -0.3,-1.1 -0.2,-2.3 -0.4,-4 z"
       class="st0" />
    <path
       style="fill:#ffffff"
       inkscape:connector-curvature="0"
       id="path223"
       d="m 452.65314,638.93885 c 0.4,-2.9 0.7,-5.8 1.1,-8.7 0.4,0.1 0.8,0.1 1.2,0.2 -0.4,2.9 -0.9,5.8 -1.3,8.7 -0.4,-0.1 -0.7,-0.2 -1,-0.2 z"
       class="st0" />
    <path
       style="fill:#ffffff"
       inkscape:connector-curvature="0"
       id="path225"
       d="m 188.15314,820.83885 c 2.3,0.8 4.2,1.4 6,2 -4.6,0.9 -4.6,0.9 -6,-2 z"
       class="st0" />
    <path
       style="fill:#ffffff"
       inkscape:connector-curvature="0"
       id="path227"
       d="m 159.25314,702.03885 c 1.3,0.7 2.7,1.3 4.4,2.2 -2.2,0.9 -2.2,0.9 -4.4,-2.2 z"
       class="st0" />
    <path
       style="fill:#ffffff"
       inkscape:connector-curvature="0"
       id="path229"
       d="m 445.65314,671.63885 c 0.2,3.1 -0.9,3.1 -3.1,2.5 1.1,-0.9 1.8,-1.5 3.1,-2.5 z"
       class="st0" />
    <path
       style="fill:#ffffff"
       inkscape:connector-curvature="0"
       id="path231"
       d="m 246.75314,523.03885 c 1.5,-0.2 2.8,-0.4 4.1,-0.6 0.1,0.3 0.1,0.6 0.2,0.9 -1.3,0.2 -2.6,0.3 -3.9,0.5 -0.1,-0.1 -0.2,-0.4 -0.4,-0.8 z"
       class="st0" />
    <path
       style="fill:#ffffff"
       inkscape:connector-curvature="0"
       id="path233"
       d="m 228.35314,508.23885 c -0.1,1.4 -0.2,2.1 -0.3,3 -1.6,-1 -1.6,-1 0.3,-3 z"
       class="st0" />
    <path
       style="fill:#ffffff"
       inkscape:connector-curvature="0"
       id="path235"
       d="m 452.15314,644.93885 c 0.1,-0.7 0.1,-1.5 0.2,-2.2 0.1,0 0.1,0 0.2,0 0.1,0.7 0.1,1.5 0.2,2.2 -0.2,0 -0.4,0 -0.6,0 z"
       class="st0" />
    <path
       style="fill:#ffffff"
       inkscape:connector-curvature="0"
       id="path237"
       d="m 277.95314,403.93885 c 1.7,0.3 3.4,0.6 5.2,0.9 -1.8,-0.3 -3.5,-0.6 -5.2,-0.9 z"
       class="st0" />
    <path
       style="fill:#ffffff"
       inkscape:connector-curvature="0"
       id="path239"
       d="m 282.95314,404.73885 c 1.7,0.3 3.5,0.6 5.2,0.9 -1.8,-0.3 -3.5,-0.6 -5.2,-0.9 z"
       class="st0" />
    <path
       style="fill:#ffffff"
       inkscape:connector-curvature="0"
       id="path275"
       d="m 372.65314,571.63885 c 4.9,5.1 9.9,9.1 12.1,16.1 -10,0.6 -19.7,1.1 -29.4,1.7 -1,-2.3 0.6,-2.9 2.1,-3 3,-0.2 6,-0.1 8.3,-0.1 3.7,-4.3 6.9,-8.4 6.9,-14.7 z"
       class="st0" />
    <path
       style="fill:#ffffff"
       inkscape:connector-curvature="0"
       id="path277"
       d="m 320.55314,566.83885 c -0.5,1.7 -0.8,3.5 -1.4,5.1 -1.2,2.8 -3.3,3.9 -5.9,3.3 -3.1,-0.7 -5.1,-3.3 -4.8,-6.3 0.2,-2.9 2.9,-6.2 5.6,-7 4,-1.2 6.4,0.7 6.5,4.9 z"
       class="st0" />
    <path
       style="fill:#ffffff"
       inkscape:connector-curvature="0"
       id="path279"
       d="m 295.85314,567.43885 c 0.2,0.2 0.4,0.4 0.5,0.6 2.8,3.9 4.9,3.7 7.1,-0.5 1.8,1.2 0.8,4.4 3.5,5.1 0.2,0 0.3,1.6 0,2.2 -0.2,0.3 -1.3,0.1 -2.2,0.2 0,0.4 0,1 0,1.6 2,1.8 5.4,-2.2 7.1,1.9 -2.2,-0.2 -4.2,-0.5 -6.1,-0.6 -3.9,-0.1 -4.5,0.5 -5.2,4.3 -0.1,0.7 -0.1,1.3 -0.3,2.7 -1.5,-1.6 -2.6,-2.8 -3.8,-4.1 3.8,-1.3 4.5,-2 4.5,-4.3 0,-2.3 -1.3,-3.1 -3.3,-3.4 0.3,1.6 0.6,3.2 0.8,4.7 0,0.1 -0.9,0.3 -1.4,0.4 -2,-3.5 -3.4,-6.9 -1.2,-10.8 l 0,0 z"
       class="st0" />
    <path
       style="fill:#ffffff"
       inkscape:connector-curvature="0"
       id="path281"
       d="m 295.85314,567.53885 c 0.6,-0.5 1.2,-1.1 2.1,-1.8 0.7,0.9 1.5,1.9 2.2,2.8 -0.1,0.2 -0.3,0.4 -0.4,0.7 -1.3,-0.6 -2.6,-1.2 -3.9,-1.7 0,-0.1 0,0 0,0 z"
       class="st0" />
    <path
       style="fill:#ffffff"
       inkscape:connector-curvature="0"
       id="path283"
       d="m 308.95314,587.63885 c -1.6,-0.2 -3.1,-0.4 -4.7,-0.6 0,-0.2 0,-0.4 0.1,-0.6 1.6,0 3.1,0 4.7,0 -0.1,0.4 -0.1,0.8 -0.1,1.2 z"
       class="st0" />
    <path
       style="fill:#ffffff"
       inkscape:connector-curvature="0"
       id="path285"
       d="m 317.05314,584.23885 c -0.8,0.6 -1.6,1.3 -2.6,2.2 -0.1,-0.7 -0.2,-1.1 -0.1,-1.2 0.7,-0.6 1.5,-1.1 2.3,-1.6 0.1,0.1 0.2,0.4 0.4,0.6 z"
       class="st0" />
    <path
       style="fill:#ffffff"
       inkscape:connector-curvature="0"
       id="path315"
       d="m 326.35314,447.03885 c 3.4,6.1 1.5,12.4 0.3,19.2 -2.4,-1.5 -2.7,-3.6 -2.6,-5.5 0.3,-4.6 0.8,-9.2 1.2,-13.7 0.4,0 0.8,0 1.1,0 z"
       class="st0" />
    <path
       inkscape:connector-curvature="0"
       id="path317"
       d="m 184.65314,513.83885 c -0.9,0.3 -1.8,0.6 -3.1,1.1 1.7,-6.1 4,-11.4 4,-17.2 0,-4.5 -1.6,-8.3 -4.4,-11.6 -1,-1.2 -2.1,-2.4 -3.6,-4 3.6,0.5 5.1,2.9 6.7,4.9 4.3,5.2 4.3,11.4 3.1,17.6 -0.6,3.2 -1.9,6.3 -2.8,9.4 0,-0.1 0.1,-0.2 0.1,-0.2 z" />
    <path
       style="fill:#bfbfbf"
       inkscape:connector-curvature="0"
       id="path358"
       d="m 200.55314,522.43885 c 0.3,-1 2.7,-2.4 0,0 l 0,0 z"
       class="st3" />
    <path
       style="fill:#bfbfbf"
       inkscape:connector-curvature="0"
       id="path360"
       d="m 242.55314,530.33885 c -1.1,-0.1 -1,-1.8 0,0 l 0,0 z"
       class="st3" />
  </g>
</svg>
