<?xml version="1.0" encoding="UTF-8" standalone="no"?>
<svg
   xmlns:dc="http://purl.org/dc/elements/1.1/"
   xmlns:cc="http://creativecommons.org/ns#"
   xmlns:rdf="http://www.w3.org/1999/02/22-rdf-syntax-ns#"
   xmlns:svg="http://www.w3.org/2000/svg"
   xmlns="http://www.w3.org/2000/svg"
   version="1.1"
   id="svg5428"
   viewBox="0 0 981.74044 781.43913"
   height="220.53949mm"
   width="277.06897mm">
  <defs
     id="defs5430" />
  <metadata
     id="metadata5433">
    <rdf:RDF>
      <cc:Work
         rdf:about="">
        <dc:format>image/svg+xml</dc:format>
        <dc:type
           rdf:resource="http://purl.org/dc/dcmitype/StillImage" />
        <dc:title></dc:title>
      </cc:Work>
    </rdf:RDF>
  </metadata>
  <g
     transform="translate(219.16295,-108.11848)"
     id="layer1">
    <g
       transform="matrix(0.48806526,0,0,0.48806526,-111.30868,313.15927)"
       id="g5416">
      <g
         transform="translate(779.78912,573.82607)"
         id="Layer_1" />
      <g
         transform="translate(779.78912,573.82607)"
         id="Layer_2" />
      <path
         d="m 1639.9891,915.02607 c -0.8,0.3 -1.4,0.4 -1.9,0.7 -2.6,0.9 -3.7,2.6 -3.1,5.3 0.7,2.9 -0.1,5.3 -2,7.4 -3.5,4.1 -7.1,8.3 -10.7,12.4 -1.9,2.2 -2.1,4.3 -0.8,7 11,23.2 17.9,47.7 22,72.90003 4.1,25.3 5,50.9 4.1,76.5 -0.5,14.6 -2.6,29.1 -5,43.5 -1.4,8.6 -2.4,17.3 -3.6,26.3 2.1,0 4,0 5.9,0 10.3,0.2 20.7,0 31,0.9 9.4,0.8 18.6,3 28,4 11.6,1.3 23.3,2.4 35,3.1 9,0.6 18.1,0.2 27.1,0.6 4.1,0.1 7.4,-1.4 10.3,-3.9 0.9,-0.8 1.9,-1.6 2.9,-2.4 0.2,4.5 -4.7,10.1 -9.7,10.4 -13.1,0.8 -26.2,2.1 -39.2,0.5 -14.8,-1.7 -29.6,-4.1 -44.4,-6.1 -12.7,-1.7 -25.5,-2.7 -38.3,-2 -3.5,0.2 -7.1,0 -10.9,0 -0.5,2.5 -0.1,5.6 -0.9,8.5 -0.3,-0.1 -0.7,-0.2 -1,-0.2 -1.4,-6 -1.2,-12.1 -0.5,-18.2 2.3,-18 4.8,-35.9 6.7,-53.9 1.9,-17.4 1.8,-34.8 0.8,-52.3 -1.6,-28.9 -7.8,-57.00003 -16.1,-84.60003 -2.4,-7.8 -4.9,-15.6 -7.3,-23.4 -0.2,-0.7 -0.6,-1.4 -1.2,-2.8 -0.7,1.1 -1.1,1.9 -1.7,2.4 -13.7,13.4 -27.5,26.7 -41.2,40.1 -0.2,0.2 -0.5,0.5 -0.8,0.7 -1.5,1.3 -2.9,2.8 -5.1,1.9 -2.4,-1.1 -4.2,-2.9 -4.3,-5.6 -0.2,-5.7 -0.2,-11.4 -0.3,-17.2 0,-0.7 0,-1.4 0,-2.4 -0.9,0.4 -1.5,0.7 -2.2,1 -79.5,39.90003 -159.1,79.90003 -238.7,119.80003 -1.6,0.8 -2,1.7 -2,3.5 0.2,8.5 0.5,17 0.4,25.4 -0.4,18.6 -16.3,40.6 -40.4,41.9 -11.6,0.6 -23.1,1 -34.5,-1.8 -7.8,-1.9 -15,-5 -21.2,-10.2 -4.2,-3.5 -8.4,-7 -12.2,-10.9 -13.5,-14.2 -15.9,-34.7 -6.5,-52.7 6.5,-12.4 16.5,-21.1 28.9,-27.1 5.2,-2.5 10.7,-5.3 16.4,-6 16.5,-2.2 32,1.3 45.2,12.1 1,0.9 1.8,0.8 2.9,0.1 77.6,-44.8 157.9,-84.10003 240,-120.10003 6.4,-2.8 12.7,-5.6 19.1,-8.3 0.1,-0.1 0.2,-0.2 0.2,-0.2 -4.2,-5.7 -8.4,-11.3 -12.7,-17.1 3.4,-1.1 92.3,-0.7 93.5,0.5 z m -347.9,153.00003 c 1.1,1.3 2.1,2.3 2.9,3.3 0.9,1.1 1.7,2.2 2.5,3.3 2.2,3.3 4.5,3.9 7.9,1.8 0.6,-0.4 1.2,-0.9 1.9,-1.3 10.3,-6.9 20.5,-13.9 30.9,-20.6 4,-2.6 8.5,-4.4 12.9,-6.3 10.7,-4.6 21.8,-8.5 32.2,-13.8 28.8,-14.7 57.4,-30 86.1,-45.00003 20,-10.4 39.7,-21.5 60.6,-30 10.8,-4.4 21.5,-9.1 31.4,-15.5 1.7,-1.1 3.3,-2.3 4.8,-3.6 1.9,-1.8 2.1,-4.1 0.6,-6.6 -93.9,40 -185.1,85.10003 -274.7,134.30003 z m 0.8,63.4 c -2.1,0.7 -4,1 -5.4,1.9 -4.9,3.3 -10.1,5.1 -16.1,4.9 -2,-0.1 -4,-0.1 -6,-0.2 -2.1,-0.1 -4.3,0.1 -6.3,-0.5 -8.9,-2.7 -14.9,-8.8 -18.5,-17.3 -3,-7 -1.9,-14.2 -0.2,-21.3 3.3,-13.7 12.3,-22.9 24.4,-29.3 2.5,-1.4 5.2,-2.5 7.8,-3.8 0.6,-0.3 0.9,-1 1.3,-1.6 -0.2,-0.2 -0.3,-0.5 -0.5,-0.7 -2.2,0.2 -4.6,-0.1 -6.6,0.7 -18.9,7.6 -31.6,20.4 -34.7,41.2 -1,6.9 -1.3,13.9 1.7,20.5 6.7,14.5 18.5,22.4 34.9,21.7 6.2,-0.3 12,-1.7 16.9,-5.6 3.3,-2.6 6.3,-5.4 7.3,-10.6 z m -27.3,-74.8 c -8.4,-2.2 -16.2,-2.4 -24,0.3 -10.1,3.5 -18,10.3 -24.9,18.1 -8.8,10 -12.1,21.6 -9.1,34.7 0.9,3.9 2.5,7.7 3.8,11.5 0.4,-0.1 0.7,-0.1 1.1,-0.2 0,-4.7 -0.4,-9.5 0.1,-14.2 1.2,-13.3 6.8,-24.5 17,-33.3 7.4,-6.3 15.9,-10.5 25,-13.6 3.4,-1 6.9,-2 11,-3.3 z"
         id="path2559" />
      <path
         d="m 1575.4891,872.72607 c -0.8,0.8 -1.5,1.4 -2.3,2.1 -3.7,3.2 -5.9,3.3 -9.6,0 -1.7,-1.6 -3.3,-3.3 -5,-5 -9,-9.1 -18.5,-17.7 -30.1,-23.3 -10.3,-4.9 -20.9,-9.2 -31.6,-13.1 -25,-9.1 -50.9,-15.1 -77.1,-20 -26.5,-4.9 -52.9,-9.9 -79.4,-14.6 -13.5,-2.4 -27.1,-4.9 -40.7,-6.8 -14.2,-1.9 -28.5,-1.7 -42.7,-1.3 -12.5,0.4 -24.9,1.1 -37.4,1.9 -16.8,1.2 -33.4,3.7 -49.9,6.8 -14.5,2.7 -28.9,5.6 -43.4,8.5 -2.2,0.5 -4.5,1.4 -6.5,2.5 -6.4,3.4 -15.6,0.6 -18.1,-6.2 -2.5,-6.9 -4.3,-14.1 -6.2,-21.2 -1.7,-6.4 -3.3,-12.8 -4.9,-19.2 -0.1,-0.4 -0.2,-0.8 -0.4,-1.3 -1.9,0.6 -3.7,1.1 -5.6,1.7 -0.9,-3.8 -1.7,-7.4 -2.5,-11.1 -0.5,-2.2 1.1,-3 2.8,-3.7 6.7,-2.4 13.3,-4.8 20,-7.3 20.2,-7.4 40.3,-14.8 61.1,-20.2 21,-5.4 42.3,-9 63.8,-11.5 27.8,-3.1 55.7,-4.4 83.6,-3.6 84,2.3 163.5,21.6 237.2,62.8 30.8,17.2 59.3,37.7 85.8,61 2.4,2.1 2.7,3.5 1.1,6.3 -1.4,2.5 -2.8,4.9 -4.3,7.5 -0.8,-0.6 -1.5,-1.1 -2.2,-1.6 -17,-12.9 -33.7,-26.3 -51.1,-38.7 -43.7,-30.9 -91.8,-52.4 -143.4,-66.3 -25,-6.8 -50.5,-11.4 -76.3,-14.2 -26.8,-2.9 -53.6,-3.9 -80.5,-3.2 -61.9,1.8 -121.9,13.2 -179.2,37.1 -2.8,1.2 -5.6,2.4 -8.6,3.7 4.5,14.5 8.9,28.8 13.3,43.2 0.2,0.1 0.3,0.1 0.5,0.2 0.5,-1.1 1.2,-2.1 1.5,-3.3 0.8,-3.4 2.8,-5.7 6.2,-6.5 18.8,-4.6 37.6,-9.7 56.6,-13.7 12.2,-2.5 24.8,-3.7 37.3,-4.9 16.8,-1.5 33.7,-2.6 50.5,-3.6 11.9,-0.7 23.9,-0.5 35.7,0.8 19.2,2.1 38.3,4.4 57.5,6.5 26.5,2.9 52.7,7.7 78.7,13.7 16.6,3.9 33.2,7.3 49.3,13.1 19.5,7 38.8,14.6 57.6,23.2 10.1,4.6 19,10.9 26.6,18.9 0.9,0.9 1.7,1.8 2.6,2.6 3.1,2.8 5.4,5.9 7.2,9.8 1.6,3.7 4.6,6.8 7.4,9.8 3.1,3.4 6.8,6.3 10.5,9.6 12.7,-9 25.4,-19.4 36,-32.1 0.2,0.1 0.4,0.2 0.5,0.3 -1.2,2.5 -2,5.3 -3.7,7.4 -6.7,8.2 -13.7,16 -22.4,22.2 -1.1,0.8 -2.1,1.5 -3.3,2.2 -1.7,0.9 -2.9,2.1 -3.8,3.9 -1.3,2.8 -3.7,4.3 -6.8,4.1 -2.4,-0.1 -4.8,-0.5 -7.2,-0.8 0,-0.2 0,-0.4 -0.1,-0.5 1.8,-0.4 3.6,-0.7 5.5,-1.1 1.1,-0.2 2.2,-0.3 3.2,-0.6 0.5,-0.1 1.1,-0.7 1.2,-1.1 0.1,-0.3 -0.3,-1 -0.6,-1.3 -4.5,-3.1 -9.1,-6.8 -13.9,-10.5 z"
         id="path2561" />
      <path
         d="m 817.98912,1082.6261 c -2,2.2 -4.1,4.4 -6.1,6.7 -0.9,1 -1.6,0.9 -2.4,-0.2 2.4,-2 2.4,-4.8 2.8,-7.6 0.9,-6.6 1.9,-13.2 3.4,-19.7 15.4,-69.00003 47.9,-129.10003 94.2,-182.10003 41.3,-47.2 89.4,-85.8 144.79998,-115.2 1.5,-0.8 3.1,-1.5 4.6,-2.3 0.2,0.4 0.4,0.6 0.5,0.8 1.2,3.8 2.3,7.6 3.5,11.6 -1,0.6 -1.9,1.1 -2.9,1.7 -33.7,19.2 -65.49998,41.1 -94.69998,66.6 -59,51.2 -102.2,113.3 -127.7,187.40003 -0.3,0.9 -1.2,1.9 0.6,2.5 1.2,-2.1 2.4,-4.2 3.7,-6.2 12.8,-21.2 26,-42.10003 41.6,-61.40003 7,-8.6 14.7,-16.6 22.4,-24.6 15.7,-16.3 31.7,-32.4 47.6,-48.6 10.3,-10.5 22.1,-19.1 34.7,-26.5 13.59998,-7.9 27.09998,-16.2 40.99998,-23.5 9.6,-5.1 19.8,-8.9 29.8,-13.2 3.2,-1.3 6.4,-0.9 9.3,0.9 2.9,1.8 4.4,4.5 4.2,8 -0.2,3.6 -2.1,5.9 -5.5,7.3 -9.1,3.8 -18.2,7.5 -27.1,11.7 -22.3,10.7 -42.39998,24.8 -61.49998,40.4 -30.7,24.9 -59.3,51.9 -85.1,81.9 -4.8,5.6 -9.4,11.4 -13.5,17.5 -12.5,18.90003 -25,37.80003 -36.9,57.10003 -6,9.6 -10.7,20.1 -15.9,30.1 -0.7,1.3 -1.5,2.6 -2.2,4 -0.8,1.8 -2.2,2.4 -4,2.1 -1.4,-0.3 -2.7,-2.2 -2.7,-4 0,-0.9 0.1,-1.8 0.2,-2.6 -0.2,-0.3 -0.4,-0.4 -0.7,-0.6 z"
         id="path2563" />
      <path
         d="m 1647.4891,859.62607 c 3.5,-2.9 6.9,-5.7 10.3,-8.6 0.4,0.3 0.8,0.6 1.1,0.9 33.1,32.4 61.3,68.6 83.2,109.5 14.7,27.5 25.2,56.50003 33,86.60003 5.7,21.7 10.2,43.6 13.1,65.8 1.6,12.6 2.7,25.2 2.2,37.9 -0.1,3.4 -0.6,6.8 -0.9,10.3 -4.4,0.3 -8.4,0.6 -12.7,1 -0.1,-2 -0.3,-3.9 -0.4,-5.8 -0.6,-11.1 -0.9,-22.2 -1.7,-33.2 -2,-30.5 -7.7,-60.3 -16.8,-89.5 -16.5,-52.50003 -43.2,-99.30003 -78.9,-141.10003 -6.8,-7.9 -14,-15.4 -21,-23.1 -0.6,-0.7 -1.3,-1.4 -2.1,-2 -2.5,-2.1 -4.6,-2.2 -7,0 -5.7,5.2 -11.3,10.5 -16.9,15.8 -3.4,3.2 -6.7,6.5 -10,9.9 -1.8,1.9 -3.9,2.4 -6.6,2.2 0.6,-0.6 1,-1.1 1.4,-1.6 9.6,-9.6 19.1,-19.1 28.7,-28.6 1.3,-1.2 3.1,-1.9 4.7,-2.9 -0.7,-1.1 -1.7,-2.2 -2.7,-3.5 z"
         id="path2565" />
      <path
         d="m 1062.8891,780.82607 c 7.4,5.3 12.3,12.5 14.7,21.2 2.2,7.7 4,15.6 5.9,23.4 0.1,0.4 -0.2,0.9 -0.3,1.3 -0.4,-0.3 -1,-0.6 -1.1,-1.1 -2.2,-6.9 -4.3,-13.8 -6.5,-20.6 -1.4,-4.2 -2.5,-8.6 -4.6,-12.5 -1.8,-3.5 -4.8,-6.3 -7.2,-9.4 -0.5,-0.6 -1,-1.3 -1.5,-1.9 0.2,-0.2 0.4,-0.3 0.6,-0.4 z"
         id="path2567" />
      <path
         class="st0"
         d="m 1292.0891,1068.0261 c 89.6,-49.2 180.8,-94.30003 274.6,-134.20003 1.5,2.5 1.4,4.8 -0.6,6.6 -1.4,1.4 -3.1,2.5 -4.8,3.6 -9.8,6.4 -20.6,11.1 -31.4,15.5 -20.9,8.5 -40.6,19.5 -60.6,30 -28.7,15.00003 -57.2,30.30003 -86.1,45.00003 -10.4,5.3 -21.5,9.1 -32.2,13.8 -4.4,1.9 -8.9,3.7 -12.9,6.3 -10.4,6.7 -20.6,13.7 -30.9,20.6 -0.6,0.4 -1.2,0.9 -1.9,1.3 -3.4,2.1 -5.6,1.5 -7.9,-1.8 -0.8,-1.1 -1.6,-2.2 -2.5,-3.3 -0.7,-1.2 -1.6,-2.2 -2.8,-3.4 z"
         id="path2569"
         style="fill:#ffffff" />
      <path
         class="st0"
         d="m 1292.8891,1131.4261 c -1,5.1 -4,7.9 -7.2,10.5 -4.9,4 -10.8,5.4 -16.9,5.6 -16.4,0.7 -28.3,-7.2 -34.9,-21.7 -3,-6.6 -2.7,-13.5 -1.7,-20.5 3.1,-20.8 15.9,-33.7 34.7,-41.2 2,-0.8 4.4,-0.5 6.6,-0.7 0.2,0.2 0.3,0.5 0.5,0.7 -0.4,0.5 -0.7,1.3 -1.3,1.6 -2.6,1.3 -5.2,2.5 -7.8,3.8 -12.1,6.4 -21.1,15.6 -24.4,29.3 -1.7,7.1 -2.8,14.3 0.2,21.3 3.6,8.4 9.6,14.5 18.5,17.3 2,0.6 4.2,0.4 6.3,0.5 2,0.1 4,0.1 6,0.2 5.9,0.3 11.2,-1.6 16.1,-4.9 1.3,-0.8 3.2,-1 5.3,-1.8 z"
         id="path2571"
         style="fill:#ffffff" />
      <path
         class="st0"
         d="m 1265.5891,1056.6261 c -4.1,1.3 -7.6,2.3 -11.1,3.4 -9.1,3.1 -17.7,7.3 -25,13.6 -10.2,8.8 -15.7,20 -17,33.3 -0.4,4.7 -0.1,9.5 -0.1,14.2 -0.4,0.1 -0.7,0.1 -1.1,0.2 -1.3,-3.8 -2.9,-7.6 -3.8,-11.5 -3,-13.1 0.2,-24.7 9.1,-34.7 6.9,-7.9 14.8,-14.6 24.9,-18.1 7.9,-2.7 15.7,-2.6 24.1,-0.4 z"
         id="path2573"
         style="fill:#ffffff" />
    </g>
    <g
       id="g5677"
       transform="matrix(0.5203605,0,0,0.5203605,728.94434,417.09442)">
      <g
         transform="translate(-1863.1201,-651.77475)"
         id="Layer_1-0" />
      <g
         transform="translate(-1863.1201,-651.77475)"
         id="Layer_2-6" />
      <path
         d="m -1440.6201,-142.17476 c -2.2,-6.4 -4.5,-12.3 -6.2,-18.3 -1.6,-5.5 -2.5,-11.3 -3.8,-16.9 -0.9,-4.2 -2,-8.3 -2.7,-12.5 -0.3,-1.6 0.3,-3.3 0.5,-5 0.3,0 0.7,0 1,0.1 0.2,0.9 0.4,1.7 0.6,2.6 2.7,10.8 5.3,21.7 8.1,32.5 0.9,3.4 2.3,6.7 3.5,10 0.1,0.4 0.4,0.9 0.3,1.2 -1.6,5.4 2.5,8.2 5.2,11.5 1.6,2 3.6,3.9 4.8,6.2 4.3,7.7 10.2,13.6 17.6,18.2 2,1.3 4.1,2.6 5.8,4.3 5.7,5.5 12.8,8.2 20,10.400004 18.8,5.6 37.5,11.3 56.4,16.3 12.2,3.2 24.7,5.8 37.3,7.7 9.2,1.4 18.6,1.4 27.9,1.5 22,0.1 43.9,-2.3 65.5,-6.3 13.2,-2.4 26.1,-6.5 39.2,-9.8 0.8,-0.2 1.6,-0.6 2.4,-1 22.2,-10.700004 43.9,-22.700004 65.1,-35.200004 8.5,-5 15.8,-11.9 23.7,-18 2,-1.6 3.9,-3.2 5.9,-4.8 0.4,-0.3 0.7,-0.8 0.8,-1.2 4.1,-14.8 9.2,-29.3 15.4,-43.4 0.1,-0.2 0.1,-0.5 0.3,-1.3 -1,0.3 -1.7,0.5 -2.3,0.9 -12.9,8.4 -25.6,17 -38.6,25.3 -9.7,6.3 -19.4,12.6 -30,17.4 -12.4,5.7 -24.5,12 -37.2,17.2 -8.6,3.5 -17.8,5.5 -26.8,7.9 -11.1,2.9 -22.6,4.2 -34,5.3 -13.7,1.4 -27.5,1.5 -41.2,0.8 -10.6,-0.5 -21.2,-2 -31.6,-3.8 -20.4,-3.4 -40.4,-8.5 -59.8,-15.7 -16.8,-6.2 -33.1,-13.5 -48.5,-22.6 -17.9,-10.6 -34.8,-22.6 -49.9,-36.9 -1.1,-1 -2.3,-2 -3.4,-3.1 1.3,-0.5 2.4,-1.1 3.5,-1.1 0.9,-0.1 1.9,0.4 2.6,0.9 5.4,4.6 10.6,9.4 16.2,13.8 21,16.4 43.8,29.7 68.5,40.1 25.1,10.6 51.2,17.7 78.1,22 11.6,1.9 23.5,2.4 35.3,3.1 14.9,0.9 29.8,-0.3 44.5,-2.5 18.6,-2.7 37,-7 54.2,-15.3 14.1,-6.8 28.5,-12.9 42.1,-20.5 17.4,-9.7 34.2,-20.5 51.2,-30.9 0.7,-0.4 1.3,-0.8 2,-1.1 1.8,-0.8 3.2,-1.7 2.6,-4 -0.1,-0.3 0.3,-0.8 0.5,-1.4 0.3,1.1 0.6,2 0.9,3 1.6,-1.1 2.7,-1.9 1.3,-3.8 -6.4,-8.4 -13.2,-16.4 -21.3,-23.5 -0.3,0.4 -0.5,0.7 -0.8,1.1 -0.1,-0.1 -0.3,-0.2 -0.3,-0.4 -0.7,-1.3 -1,-2.9 -2,-3.9 -9.2,-8.8 -18.5,-17.4 -27.8,-26.1 -1.7,-1.7 -3.2,-3.6 -4.8,-5.4 -0.4,-0.5 -0.6,-1.3 -0.6,-2.1 3.6,3.2 7.2,6.3 10.8,9.5 5,4.5 10.1,8.9 15.1,13.4 2.2,2 4.7,3.7 6.4,6.1 5.1,7.1 13.2,11.1 18.4,18.1 3,4 6.3,7.8 9.6,11.7 0.4,-0.3 0.9,-0.8 1.6,-1.4 0.1,1.1 0.5,2.1 0.2,2.9 -0.7,2 -1.7,3.8 -2.4,5.8 -4.4,12.2 -8.8,24.5 -13.1,36.6 2.1,2 3.9,3.7 6,5.6 0.2,-4.2 0.4,-8.1 0.6,-12.1 0.2,0 0.4,0 0.6,0 0.1,3.5 0.5,7 0.3,10.5 -0.2,3.1 0.9,5.5 3.1,7.4 2.4,-3.6 4.5,-7.5 7.2,-10.8 3.4,-4.1 7.3,-7.8 11.1,-11.5 12,-11.7 25.9,-21 39.9,-30 4.8,-3.1 10.6,-4.8 16,-7 3.2,-1.3 6.4,-2.4 9.7,-3.3 3.5,-1 7,-1.8 10.5,-2.5 8,-1.6 16.1,-3 24.1,-4.5 7.7,-1.5 15.4,-2.8 23,-4.5 5.1,-1.1 9.4,-3.8 12.4,-8.2 0.8,-1.2 2,-2.1 2.8,-3.3 3.4,-4.7 4.6,-9.7 3.9,-17.2 -2.9,3.3 -5.5,6.3 -8.2,9.2 -5.6,6 -12.6,9.2 -20.8,9.7 -11.5,0.6 -23,0.6 -34.4,1.9 -17.6,1.9 -33.9,7.7 -47.9,19.1 -9.5,7.8 -19.4,15.3 -28.9,23.2 -3.6,3 -6.5,6.7 -9.7,10.1 -0.6,0.6 -1.1,1.2 -2.1,1.4 1,-1.2 1.9,-2.5 2.9,-3.7 7.7,-9.1 16.8,-16.6 26.4,-23.6 7.1,-5.1 13.8,-10.7 21,-15.6 6.6,-4.4 14,-7 21.6,-9.1 14.9,-4 30.2,-4.3 45.5,-5 4.2,-0.2 8.9,-0.1 12.4,-2 9,-4.7 17.9,-10 22.3,-20 0.4,-0.8 -0.1,-2.3 -0.7,-3.2 -3.2,-5.5 -6.5,-11 -9.7,-16.5 -2.4,-4.3 -4.7,-8.6 -7.2,-13.2 -8.1,3 -16,5.9 -23.9,8.9 0,0 0,-0.1 0,-0.1 0.7,-0.3 1.4,-0.6 2,-0.9 -0.1,-0.2 -0.1,-0.4 -0.2,-0.6 -2,0.5 -4,0.9 -6,1.4 -8.9,2.3 -17.9,1.5 -26.9,0.5 -7.3,-0.8 -14.9,-0.5 -22.2,0 -8.7,0.6 -17.2,2.6 -25.4,5.8 -20.5,8.1 -38.1,20.2 -52.3,37 -1.2,1.5 -2.6,2.8 -4,4.1 5.8,-9.9 13.3,-18.4 22.6,-25.1 6.6,-4.7 13.6,-8.8 20.6,-12.9 9.2,-5.4 19.2,-8.7 29.6,-10.6 10,-1.9 20.3,-2.1 30.5,-1.6 4.9,0.3 9.8,1.1 14.7,1.3 2,0.1 4,-0.8 5.9,-1.3 2.4,-0.6 4.7,-1.4 7.2,-1.5 -0.8,0.5 -1.6,0.9 -2.3,1.4 10.6,-2.3 21.2,-4.3 30.4,-10.3 2.6,4.2 5.4,8.3 7.8,12.6 3.9,7.4 7.5,15 13,21.4 1.3,1.5 1.4,2.8 -0.4,4 -0.4,0.3 -0.8,0.8 -0.8,1.2 0.1,5.3 1.1,10.7 -1.9,15.8 0.3,0.1 0.6,0.1 0.9,0.2 0.5,-1.1 1,-2.2 1.5,-3.3 2.4,2.3 2.4,4.7 0.6,7.6 -1.6,2.4 -2.7,5.2 -4.3,7.6 -1,1.4 -2.5,2.4 -3.8,3.6 -3.6,3.1 -7.6,5.2 -12.3,6.3 -5.1,1.2 -10.2,2.6 -15.4,3.5 -6.4,1.2 -12.8,1.8 -19.2,3 -6.9,1.3 -13.8,2.8 -20.6,4.6 -13.5,3.6 -26.2,8.7 -37.9,16.8 -13.3,9.3 -26,19.2 -37.7,30.3 -4.5,4.3 -8.6,9.2 -10.4,15.5 -0.1,0.5 -0.6,0.9 -1.4,1.3 0.1,-0.6 0.1,-1.1 0.2,-1.6 -1.7,-0.6 -3.4,-1.2 -4.4,-1.6 -2.8,-4.3 -5.3,-8.2 -7.9,-12.2 -0.3,0 -0.5,0.1 -0.8,0.1 -0.2,2 -0.4,4.1 -0.6,6.1 0.1,0 0.1,0 0.2,0 -0.4,1.8 -0.8,3.6 -1.3,5.3 -0.3,0.9 -0.6,1.9 -1.3,2.4 -8.4,6.5 -16.6,13.2 -25.3,19.3 -5.7,3.9 -12,6.7 -18.1,10.1 -10.5,5.8 -20.8,12.000004 -31.5,17.400004 -10.9,5.6 -21.9,11 -33.2,15.4 -7.7,3 -16,4.3 -24.1,6.4 -5.3,1.4 -10.6,2.9 -16,4 -4.4,0.9 -8.8,1.5 -13.3,2.2 -14.2,2.1 -28.4,2.4 -42.7,2 -7.8,-0.2 -15.5,-0.6 -23.2,-1.4 -7.5,-0.7 -15,-2 -22.5,-3.1 -7,-1.1 -13.9,-2.2 -20.8,-3.7 -5.8,-1.2 -11.5,-2.9 -17.1,-4.5 -7.7,-2.3 -15.5,-4.4 -23,-7.4 -7.8,-3.2 -15.7,-6.2 -23.2,-10.5 -6.2,-3.6 -11.6,-8.000004 -17.1,-12.300004 -2.7,-2.1 -5.8,-3.8 -8.4,-6 -6,-4.8 -11.2,-10.4 -14.6,-17.5 -1.1,-2.4 -2.6,-4.6 -4,-7.2 -0.2,0.1 -1.1,0.5 -1.8,1 -10,6.5 -20.7,11.7 -31.7,16.3 -5.6,2.3 -11.5,3.4 -17.5,3.4 -1.8,0 -3.7,-1.3 -5.4,-2.2 -0.4,-0.2 -0.2,-1.3 -0.3,-1.8 -1.2,-3.2 -2.3,-6.3 -3.5,-9.4 -1.3,-3.4 -2.7,-6.7 -3.9,-10.1 -1.3,-3.5 -2.3,-7.1 -3.8,-10.6 -1.4,-3.4 -3.5,-6.4 -4.9,-9.8 -1.7,-4.1 -4.5,-7.6 -5,-12.3 -0.5,-5 -1.9,-10 -2.5,-15 -0.6,-4.6 -0.8,-9.3 -1,-13.9 -0.3,-6.6 -0.5,-13.3 -0.7,-20.2 -2.7,0.9 -5,1.6 -7.2,2.4 -0.4,0.1 -0.7,0.6 -0.9,1 -1.3,1.9 -2.7,1.9 -3.8,-0.2 -4.6,-8.6 -9,-17.3 -13.9,-25.7 -3.1,-5.4 -7,-10.3 -10.4,-15.5 -4.5,-6.9 -6.4,-14.5 -6.7,-22.7 -0.2,-4.8 -1.4,-9.5 -1.9,-14.3 -1,-9.3 -1.8,-18.7 -2.6,-28.1 -0.2,-1.9 0.7,-3.7 2.8,-4.5 4.6,-1.7 9.3,-3.3 13.9,-5.2 3.2,-1.3 6.3,-2.9 9.3,-4.6 1.6,-0.9 2.7,-0.5 4.2,2.2 0.6,-0.4 1.1,-0.7 1.6,-1.1 0.5,-0.3 1,-0.7 1.5,-1 -1.2,-8.6 -3.1,-17.2 -3.5,-25.8 -0.4,-8.3 0.1,-16.8 1,-25 1.7,-15.2 4.6,-30.2 9.2,-44.8 1.8,-5.7 4.5,-11.2 6.6,-16.9 3.2,-8.3 6,-16.7 9.3,-24.9 1.7,-4.2 3.7,-8.4 6.2,-12.2 8.4,-13.19999 17.4,-25.99999 28.6,-37.09999 6.5,-6.5 12.5,-13.4 19.1,-19.8 3.9,-3.8 8.3,-7.1 12.7,-10.2 6.5,-4.5 13.1,-9 20,-12.9 6.1,-3.4 12.8,-6 19.2,-9 1.7,-0.8 3.4,-1.6 5.1,-2.5 2.2,-1.1 4.5,-2.2 6.7,-3.3 5.9,-3 11.9,-5.7 18.4,-7.2 9.6,-2.2 19,-5.4 29,-4.7 3.6,0.2 7.1,0.9 10.6,1.4 0,0.3 0,0.5 -0.1,0.8 -0.7,0 -1.4,0.2 -2.1,0.1 -9,-1.2 -17.7,0 -26.4,2.4 -3.8,1 -7.7,2 -11.5,3 -5,1.3 -9.6,3.4 -14.2,6.1 -5.7,3.4 -12.2,5.5 -18.1,8.7 -8.5,4.5 -17,9.3 -25.2,14.4 -8.7,5.4 -17.2,11 -24.1,18.7 -5.5,6.1 -10.5,12.6 -15.8,18.8 -4.2,4.9 -8.8,9.6 -12.8,14.7 -3.3,4.2 -6,8.8 -8.9,13.29999 -1.5,2.3 -3,4.7 -4.4,7.2 -0.4,0.8 -0.2,1.8 -0.5,2.7 -0.5,1.5 -1,3.1 -1.7,4.5 -1.2,2.4 -3.1,4.6 -3.9,7.1 -2.4,7.6 -4.4,15.3 -6.8,23 -1,3.2 -2.6,6.2 -3.6,9.3 -1.5,4.6 -2.6,9.3 -4,13.9 -1.6,5.4 -3.5,10.7 -5.1,16.2 -1.1,3.9 -1.9,8 -2.8,12 -0.6,2.7 -0.8,5.5 -1.7,8 -1.8,5 -1,10.1 -1.1,15.1 0,1.9 -0.8,3.9 -0.7,5.8 0.2,8.4 0.7,16.7 1,25.1 0,0.2 0,0.4 0.1,0.5 1.1,2.6 1,5 -1.6,6.9 -0.1,-0.2 -0.4,-0.6 -0.4,-0.7 -6.6,3.5 -13,7 -19.5,10.3 -2.2,1.1 -4.6,1.9 -7,2.7 -0.4,0.2 -1.1,-0.2 -2.3,-0.5 -0.1,0.7 -0.3,1.7 -0.2,2.7 0.6,7.3 1.1,14.6 1.9,21.9 0.5,4.7 1.7,9.3 2.2,14 0.4,4.5 0.3,9.1 0.5,13.6 0,0.7 0.3,1.3 0.9,1.9 0,-1.1 -0.1,-2.2 0,-3.3 0,-0.4 0.5,-1 0.8,-1.1 0.4,0 1.1,0.4 1.2,0.7 1,6.2 5,10.9 7.7,16.2 5.2,10.4 10.6,20.7 15.9,31.1 0.9,1.7 1.5,3.7 2.3,5.8 2,-0.8 4,-1.3 5.8,-2.3 0.8,-0.4 1.5,-1.7 1.6,-2.6 0.3,-2 0.9,-3.2 3.1,-3.8 2.5,-0.7 4.8,-2.2 7.1,-3.5 3.8,-2 7.6,-4.1 11.3,-6.1 3.8,-2.1 7.6,-4.3 11.5,-6.3 0.3,-0.2 0.8,0 1.2,0 -0.1,0.5 0,1.3 -0.3,1.5 -2.6,2 -5.1,4.1 -7.9,5.7 -3.2,1.9 -6.5,3.4 -9.8,5.1 -2.5,1.3 -5.1,2.5 -7.7,3.6 -1.9,0.8 -3,2 -2.7,4.3 0.8,7.1 1.3,14.2 2.1,21.3 0.7,7 1.4,14.1 2.3,21.1 0.3,2.1 2.4,4 0.5,6.4 -0.2,0.3 0.3,1.6 0.7,1.8 3.4,1.3 3.1,4.7 4.2,7.2 1.2,2.8 2,5.8 3,8.7 1.5,4.4 3.1,8.7 4.7,13 1.3,3.5 2.8,6.9 4.1,10.3 1.1,2.7 2.2,5.4 3.1,8.2 0.2,0.7 -0.1,1.7 -0.1,2.5 0,0.6 -0.4,1.5 -0.1,1.8 0.3,0.3 1.3,0.4 1.8,0.2 8.4,-2.8 17.1,-5 25.1,-8.6 8.2,-3.5 16,-8.6 23.8,-13 z m 177.2,73.500004 c 9.9,1.3 47.7,-1.8 51.2,-4.2 -17.1,1.5 -34.8,2.9 -51.2,4.2 z m -68.8,-9.6 c -0.1,0.3 -0.2,0.6 -0.3,0.9 4,0.7 8.1,1.5 12.1,2.2 0,-0.2 0.1,-0.4 0.1,-0.7 -3.9,-0.8 -7.9,-1.6 -11.9,-2.4 z"
         id="path792" />
      <path
         d="m -1791.4201,-322.77476 c 0.8,-1 1.7,-2 2.5,-2.9 -0.1,-0.1 -0.2,-0.2 -0.2,-0.3 -0.8,0.7 -1.8,1.4 -2.4,2.2 -5.3,8.1 -11.1,15.9 -15.7,24.4 -2.9,5.3 -4.1,11.6 -5.8,17.5 -2.9,9.7 -2.5,19.8 -2.5,29.8 0,8.2 3.9,15 8.6,21.2 5.4,7.1 11.2,13.9 17.5,20.1 3.6,3.6 8.8,5.5 13.9,6.7 9.6,2.2 19.2,1 28.9,0.4 14,-0.9 28.1,-1.6 42.2,-1.8 7.5,-0.1 14.9,1.6 22,4.1 0.9,0.3 1.8,0.9 2.7,1.4 -0.3,0.4 -0.6,0.8 -0.9,1.1 -3.1,-0.7 -6.3,-1.3 -9.4,-2.2 -9.4,-2.6 -18.9,-2.8 -28.5,-2.3 -10.4,0.5 -20.7,1.3 -31,1.9 -4.3,0.3 -8.6,0.3 -12.9,0.5 -6.3,0.3 -12.5,-0.7 -18.2,-3 -4.1,-1.7 -8.2,-3.7 -11.3,-7.4 -4.7,-5.8 -9.7,-11.2 -14.4,-17 -2,-2.4 -3.5,-5.1 -5.5,-7.6 0.5,1.6 0.9,3.3 1.4,4.9 3.4,10.2 6.8,20.5 10.1,30.7 0.7,2.1 1.2,4.4 1.3,6.7 0.2,4.2 3.3,6.7 5.7,9.5 2.5,2.9 5.9,5.1 8.6,7.9 3.3,3.4 7.4,4.7 11.8,5.7 6.5,1.4 13,2.7 19.2,4.8 8.8,2.9 18,3.8 27.1,5 8.2,1 16.5,0.9 24.8,1.7 6,0.6 11.5,-0.9 17,-2.4 0.6,-0.2 1.1,-0.4 1.6,-0.6 1.2,-12 -1.8,-23.8 -1,-36.3 3.8,1.8 5.9,4.4 7.4,7.1 3.9,7.3 7.4,14.8 10.9,22.2 7.2,15.3 14.3,30.6 21.7,46.4 4.2,-4.9 6,-10 6.4,-15.6 1,-12.1 -3,-22.9 -8.7,-33.3 -0.8,-1.4 -1.1,-3.1 -1.6,-4.6 0.3,-0.2 0.7,-0.3 1,-0.5 1.7,2.8 3.8,5.5 5,8.5 3,7 5.9,14.1 6.7,21.9 1.2,11.4 -1.9,21.3 -9.9,29.3 -4.1,4.1 -8.6,8.2 -14.3,10.6 -1.2,0.5 -1.9,1.9 -3.2,3.3 0,0 -0.8,-0.1 -1.4,0.2 -8.3,3.800004 -16.9,5.900004 -26,5.800004 -8.1,0 -16.2,0 -24.2,-0.7 -5.2,-0.5 -10.3,-2.2 -15.3,-3.700004 -9,-2.6 -17.9,-5.2 -26.7,-8.1 -2.9,-1 -5.1,-0.1 -7.4,1.2 -2.1,1.2 -4,2.7 -6.3,3.5 -5.4,2 -10.9,3.4 -16.2,5.500004 -4.5,1.8 -8.9,4.1 -13.3,6.3 -0.6,0.3 -1.1,1.4 -1.3,2.2 -1,4.8 0.9,8.1 4.5,11.4 9.5,8.9 19.4,17.3 30.6,23.8 5,2.9 10.9,4.4 16.4,6.3 8.9,3.1 17.8,6 26.7,9.2 4.4,1.5 8.8,2.2 13.4,2.4 21,0.6 41.2,-3.3 61,-9.9 4.1,-1.4 8.5,-2.1 12.6,-3.4 6.8,-2 13,-5 17.9,-10.3 0.3,-0.4 0.8,-0.6 1.2,-0.9 1.5,3.2 3.1,6.2 4.4,9.3 5.4,12.8 10.8,25.6 16,38.5 0.7,1.7 1.5,2.2 3.3,2.2 4.2,0 7.5,-2.3 11.1,-3.9 1.8,-0.8 3.7,-1.4 6.1,-2.3 -0.2,1.3 -0.2,2 -0.4,2.1 -4.2,2 -8.3,4.2 -12.6,5.7 -2.2,0.8000004 -4.9,0.2 -7.4,0.1 -0.4,0 -0.7,-1.2 -1,-1.8 -0.2,-0.4 -0.2,-0.8 -0.3,-1.1 -4.4,-10.1 -8.8,-20.3 -13.2,-30.4 -2,-4.7 -4.1,-9.3 -6.2,-13.9 -0.2,-0.4 -0.5,-0.7 -1.1,-1.5 -2.3,13.2 -0.9,26.1 -1.4,39 2.8,-0.3 4,1.2 4.9,3.6 1.6,3.9 3.2,7.9000004 5.7,11.2000004 4.7,6.6 7.9,14 11.2,21.1999996 0.9,2 2,3.9 3.3,5.9 0.3,-10.3 -2.5,-20.4999996 -1.3,-30.7999996 0.3,0 0.5,0 0.8,-0.1 0.1,0.8 0.1,1.5 0.2,2.3 0.8,7.79999996 1.7,15.6 2.5,23.3999996 0.4,3.6 0.9,7.2 1.1,10.8 0.1,2.3 0.9,3.8 3.4,3 2.8,-0.9 5.5,-2.2 8.3,-3.1 0.9,-0.3 2.1,0.1 3.6,0.2 -1,-13 -2,-26.39999964 -3.1,-39.8 0.3,0.4 1.2,1 1.3,1.7 0.7,3.3000004 1.6,6.7000004 1.9,10.10000036 0.6,7.30000004 0.9,14.59999964 1.4,21.89999964 0.1,1.7 0.6,3.3 1.4,4.8 -0.3,1.2 -0.4,2.5 -0.9,3.6 -0.2,0.4 -1.2,0.5 -2.2,0.9 0.2,1.8 -1.7,2.4 -3.6,3.3 -4.4,1.9 -8.9,2.2 -13.4,1.4 -4.2,-0.8 -4.8,-2.8 -2,-6.1 -0.4,-0.3 -0.8,-0.7 -1.2,-0.9 -2.7,-1 -4.5,-2.8 -5.5,-5.4 -4,-10.5 -9.5,-20.2999996 -15.1,-29.9999996 -0.4,-0.7 -0.9,-1.5 -1.4,-2.2 -0.5,-0.6 -1.1,-1.0000004 -1.9,-1.7000004 -0.8,0.5 -1.7,1 -2.4,1.7000004 -4.5,4.4 -10.3,6.5 -15.9,8.89999996 -10.6,4.40000004 -22,5.50000004 -33.1,8.00000004 -8.4,1.9 -16.8,2.8999996 -25.4,2.4999996 -11,-0.3999996 -21.9,-1.1999996 -32.9,-1.2999996 -7.8,-0.1 -15.1,-2.2 -22.4,-4.3 -4.5,-1.3 -9,-2.5 -13.3,-4.10000004 -7.4,-2.79999996 -14.1,-6.69999996 -19.6,-12.50000036 -2,-2.1 -4.5,-3.8 -6.4,-6 -1.9,-2.1 -3.3,-4.6 -4.8,-6.9 -2.7,-4.3 -5.2,-8.6 -7.9,-12.9 -0.8,-1.2 -1.8,-2.3 -2.7,-3.4 -1.8,-2.1 -1.6,-4.7 -1.6,-7.2 0,-11.6 0.1,-23.2 0.2,-34.8 0,-3.6 0.3,-7.1 0.4,-10.7 0.1,-1.5 0.7,-2.3 2.3,-2.9 7.9,-2.8 16,-4.900004 23.1,-9.500004 0.9,-0.6 2,-0.8 3.1,-1.2 6.1,-2.2 12.2,-4.7 18.4,-6.4 2.2,-0.6 4.9,0.2 7.2,0.9 5.6,1.7 11,4 16.5,5.7 11.5,3.5 23,7.2 35.1,7.3 8.1,0.1 16.1,-1.1 24.2,-1.7 4.7,-0.3 9,-1.9 13.3,-4 -2.1,-5.5 -4.2,-10.8 -6.3,-16.2 -2.3,-5.9 -4.6,-11.8 -7.1,-17.6 -1.2,-2.8 -2.9,-5.5 -4.6,-8 -0.7,-1 -2.2,-1.7 -3.5,-1.9 -5.6,-1 -11.2,-2 -16.8,-2.6 -10.6,-1 -21.3,-1.7 -32,-2.6 -8.3,-0.7 -16.5,-1.6 -24.4,-4.3 -7.1,-2.5 -14,-5.4 -20.9,-8.1 -0.8,-0.3 -1.6,-1 -2.4,-1 -4.7,0.1 -7.4,-3.3 -10.3,-6.1 -3,-2.9 -6,-5.9 -8.8,-9 -1.7,-1.9 -3,-4.1 -4.2,-6.4 -3,-5.9 -6.6,-11.5 -8.1,-18.1 -1.9,-8.5 -4,-17 -6.3,-25.5 -1.8,-6.7 -1.8,-13.5 -1.8,-20.3 0,-8.6 0.5,-17.3 1.3,-25.8 0.4,-4 2.3,-7.9 3.4,-11.8 2.5,-9 6.8,-17.1 12.2,-24.7 2,-2.8 5.1,-4.8 7.6,-7.2 1.2,-1.1 2.2,-2.4 3.3,-3.6 0.4,-0.4 0.8,-0.9 1.3,-1.2 6,-3.4 11.9,-7 18,-10.2 2.4,-1.2 5.2,-1.5 7.8,-2.2 1,-0.3 2,-0.8 3,-1.2 0.1,-2.9 0.1,-5.9 0.5,-8.8 0.1,-1 0.8,-2.4 1.7,-2.8 6.5,-3.2 13.4,-5.3 20.6,-5.9 2.5,-0.2 4,0.8 5.2,2.9 0.7,1.3 1.8,2.4 2.3,3.7 1.8,4.3 4.8,4.7 9.2,4 10.4,-1.8 20.7,-0.4 31,2 8.5,2 17.2,3.1 25.1,7 6.6,3.2 13,7.1 19.4,10.8 3.3,2 6.4,4.4 9,6.2 -0.4,2.1 -1.1,3.8 -1,5.5 0.6,8.8 1.5,17.5 2.2,26.3 0.9,10.8 1.6,21.7 2.5,32.5 0.1,0.8 0.6,1.5 1,2.2 0.7,1.1 0.9,2 -0.5,2.7 -2.9,1.4 -5.8,3 -8.8,4.1 -1.4,0.5 -3.1,-0.1 -4.6,-0.6 3.7,-1.7 7.4,-3.4 11.3,-5.3 -1.7,-21.4 -3.5,-43 -5.3,-65 -5.1,2.2 -10.6,4.5 -15.9,7.1 -5.4,2.6 -10.6,5.6 -16.1,8.4 2.6,-4.5 20.4,-13.7 33.4,-17.3 -0.7,-0.6 -1.2,-1.1 -1.8,-1.5 -6.7,-3.9 -13.3,-8 -20.2,-11.6 -2.5,-1.4 -5.5,-1.8 -8.4,-2.6 -5.2,-1.4 -10.6,-2.1 -15.4,-4.1 -8.6,-3.6 -17.5,-2.6 -26.3,-2.4 -6.1,0.1 -12.2,0.8 -18.4,0.9 -1.2,0 -2.3,-1.6 -3.9,-2.7 1.5,-0.7 2.1,-1 2.9,-1.4 -1.9,-3 -3.5,-6 -5.5,-8.6 -0.6,-0.8 -2.6,-1 -3.7,-0.7 -5.8,1.2 -11.5,2.6 -17.3,4 0.2,0.9 0.4,1.3 0.3,1.5 -2.2,4.3 1.9,6.3 3.5,9.2 0.5,1 1,2 1.6,3.2 -6.7,1.6 -6.7,1.6 -6.6,3.1 -1.2,0 -2.5,-0.4 -3.4,0.1 -7.8,3.6 -15.6,7.2 -23.4,10.9 -1.2,0.6 -2.1,1.6 -3.1,2.4 -0.2,-0.5 -0.3,-0.6 -0.4,-0.7 z m 103.3,288.500004 c 0,0.1 0,0.2 0,0.3 -3.3,0.2 -6.7,0.5 -10,0.7 -8.7,0.6 -17.1,-1.6 -25.6,-3.1 -10.5,-1.9 -20.8,-4.1 -30.5,-8.8 -5.1,-2.5 -9.2,-6.4 -14.4,-8.8 -3.6,-1.7 -7.4,-3.3 -10.6,-6.4 -4.4,-4.3 -9.7,-7.7 -14.6,-11.5 -2.5,-1.9 -4.8,-4 -7.7,-6.4 0,3.8 0,6.9 0,10 -0.1,8 -0.3,16.1 -0.4,24.1 0,1 -0.1,2.2 0.5,2.9 5.4,6.6 10.6,13.3 16.3,19.6 4.5,5 9.8,9.2 16.5,11.2 4.9,1.5000004 9.7,3.2000004 14.5,4.9000004 13.7,4.89999996 27.8,7.5 42.4,7.1 4.4,-0.1 8.8,0.5 13.2,0.5 5.3,0 10.8,0.3 16,-0.4 9,-1.30000004 17.9,-3.2 26.7,-5 10.8,-2.3 21.2,-5.6 29.3,-13.7000004 0.5,-0.5 1.1,-1.2 1.8,-1.5 2.6,-1.2 3,-3.3 3,-5.9 0.1,-6.4 -0.9,-12.9 1.2,-19.3 0.1,-0.3 -0.1,-0.7 -0.1,-1 -0.2,-1.5 -0.6,-3 -0.5,-4.5 0.1,-2.6 0.5,-5.2 0.8,-7.7 -11.4,5.4 -22.6,10.8 -34.1,16.3 0.3,-0.9 0.4,-1.3 0.6,-2 -13.9,4.6 -27.8,6.7 -41.9,8.4 2.5,0 5.1,0 7.6,0 z m 5.2,-160.400004 c 0.6,9.5 1.3,19.5 1.9,29.4 0,0.7 0.5,1.4 0.7,2.1 0.2,0.8 0.3,1.6 0.3,2.4 0.1,1.8 -0.6,4 0.2,5.3 1.8,3.3 4.6,6 6.4,9.2 2.8,5.1 5.3,10.4 7.3,15.8 2.5,6.7 4.6,13.5 9,19.8 4.1,-3.4 8.1,-6.8 12,-10 -1.9,-2.7 -3.6,-4.7 -4.8,-7 -5.1,-10.3 -10.1,-20.8 -15.2,-31.2 -1,-2 -1.2,-4.7 -3.7,-5.8 1.4,-2.4 -9.5,-25.3 -14.1,-30 z m -74.6,145.200004 c 7.7,5.3 16.3,8.1 25.5,9 -8.5,-3 -17,-6 -25.5,-9 z m -45,-150.400004 c -1.6,-4.6 -3.2,-9.1 -4.9,-13.7 0.5,5 1.8,9.7 4.9,13.7 z m 114.9,41.7 c 0,0.2 0,0.4 0,0.6 1.6,0.5 3.1,1 5.1,1.5 -0.1,-1.4 -0.1,-2.3 -0.2,-3.5 -2,0.6 -3.4,1 -4.9,1.4 z m -73.8,-187.7 c -0.2,3.1 0.5,4.1 3.4,4.8 -1.3,-1.8 -2.3,-3.2 -3.4,-4.8 z"
         id="path794" />
      <path
         d="m -1160.2201,-312.27476 c -7.5,-6.8 -8.6,-16.9 -15.4,-23.9 0,4 0,7.7 0,11.3 0,0.6 0.2,1.2 0.1,1.8 -0.4,3.3 0.5,6.2 2.1,9.3 2.9,5.7 5,11.7 7.4,17.6 2.4,5.8 4.7,11.7 7,17.5 0.2,0.4 0.3,0.8 0.4,1.3 0.3,-0.2 0.6,-0.4 0.9,-0.6 0,-1.6 0,-3.2 0,-4.8 -0.1,-8.4 -0.3,-16.9 -0.4,-25.3 0,-1.1 0.6,-1.1 1.7,-1.1 1.9,-0.2 3.8,-1.2 5.7,-1.8 3.5,-1.2 7.1,-2.2 10.4,-3.8 3.5,-1.7 8.1,-0.6 10.9,-4.2 0.5,-0.6 1.8,-0.6 2.9,-1 0,0.1 0.3,0.7 0.3,0.9 -8.5,8.4 -20.5,7 -30.6,12.4 0.6,9 1.3,18.8 2,28.7 13.2,-0.3 24.2,-6.2 35,-12.1 1.1,0.9 2.1,1.7 3.1,2.5 0.3,-0.4 0.4,-0.4 0.4,-0.5 0,-6.7 -0.3,-13.5 -3.2,-19.7 -1.3,-2.8 -3.7,-5 -5.4,-7.2 2.6,0.5 4.6,2.7 6.2,5.2 2.2,3.5 3.1,7.3 3.7,11.4 0.8,5.6 1.4,11.1 0.9,16.7 -0.2,2.3 1,4.7 1.3,7 0.5,4.1 0.8,8.2 -1,12.2 -0.4,1 -0.6,2.1 -0.8,2.9 2.5,-1 5,-2 7.5,-3.1 0.2,0.3 0.3,0.6 0.5,0.9 -4.6,0.6 -6.6,4.4 -9.6,7.1 -2.1,1.9 -4.8,3.2 -7.2,4.8 -0.7,0.4 -1.4,0.8 -2,1.1 -21.1,11.6 -42.1,23.4 -63.3,34.9 -10,5.5 -20.5,9.7 -31.9,11.7 -5.2,0.9 -10.1,1.3 -15.4,0.9 -6.5,-0.5 -13.1,-0.4 -19.7,-0.8 -10.8,-0.6 -21.4,-2.4 -31.8,-5.7 -19.5,-6.3 -39.2,-12.6 -57.5,-21.9 -11.6,-5.8 -22.6,-12.6 -32.5,-21.1 -0.3,-0.2 -0.5,-0.5 -0.7,-0.8 5.8,-6.2 12.7,-10.6 20.4,-14 19.1,-8.3 38.1,-16.8 57,-25.3 7.4,-3.3 14.5,-7.2 21.5,-10.7 -0.4,2.7 -2.1,5.2 -5.2,6.6 -18.2,8.2 -36.5,16.2 -54.6,24.5 -10.4,4.8 -20.7,10 -31,15.1 -1.4,0.7 -2.8,1.3 -4.7,2.1 3.3,2.5 6.1,4.9 9.1,6.9 11.3,7.8 23.3,14.4 35.9,20 2,0.9 3.5,0.3 5,-0.2 6.9,-2.5 13.7,-5.2 20.5,-7.9 4.6,-1.9 9.3,-3.7 13.7,-6.1 1.4,-0.8 2.5,-3 2.8,-4.8 2.4,-12.7 4.5,-25.5 7,-38.2 0.9,-4.7 2.8,-9.2 4.1,-13.8 0.6,-2.1 0.7,-4.3 1.1,-6.9 0.5,0.9 1.5,1.8 1.4,2.7 -0.1,2.1 -0.6,4.2 -1,6.3 -1.9,8.7 -3.9,17.3 -5.6,26 -1.7,8.6 -2.9,17.3 -4.4,26.3 0.6,0.2 1.3,0.5 2.4,0.9 -3.3,0.3 -4.9,2 -4.8,5.4 -0.5,-0.7 -0.8,-1.1 -0.8,-1.1 -11.8,4.6 -23.3,9.1 -35.5,13.9 9.5,3.4 18.4,6.6 27.3,9.9 11.4,4.2 23.1,7.2 35.1,8.7 6.5,0.8 13.1,1 19.6,1.2 6,0.2 12.1,-0.3 18.2,0 6.8,0.4 12.8,-1.5 18.7,-4.3 26.7,-13 52.7,-27.5 78.3,-42.5 2,-1.2 2.8,-2.5 3.3,-4.8 0.7,-3.3 2.6,-6.4 3.3,-9.7 0.8,-3.9 1,-8 1,-12 0,-2 -0.7,-4 -1.1,-5.5 -10.5,3.8 -21,7.7 -31.4,11.4 -0.5,0.2 -1.2,-0.1 -1.9,-0.2 1,-0.5 1.9,-1 3.3,-1.7 -5,-0.7 -5,-0.7 -5.3,2.6 -1,-1.7 -1.7,-2.9 -2.5,-4.2 -0.2,0.1 -0.4,0.2 -0.5,0.3 0,0.6 0,1.3 0,2.6 -1.7,-1.8 -3.4,-3.1 -4.3,-4.7 -2.3,-4.3 -4.6,-8.7 -6.4,-13.3 -2.9,-7.2 -5.3,-14.6 -8.1,-21.8 -0.6,-1.5 -2.4,-2.5 -3.1,-4 -0.9,-1.9 -1.7,-4 -1.7,-6 -0.1,-7 0.1,-14 0.2,-21 0,-7.1 1.3,-8.6 8,-11 5.1,-1.8 9.9,-4.2 15.1,-6.3 -1.7,-3.7 -3.4,-6.9 -4.6,-10.2 -1.9,-5.2 -4,-10.4 -5,-15.7 -0.7,-3.5 0.3,-7.3 0.5,-11 0.1,-1.3 0.4,-2.7 0.2,-4 -1.4,-8.4 0.2,-16.5 1.6,-24.6 1.2,-7.2 4,-13.8 7.2,-20.3 1.1,-2.3 3.2,-4.2 4.6,-6.5 3,-4.5 5.8,-9.2 8.8,-13.7 4.4,-6.6 10.6,-11.3 17.4,-15.2 8.2,-4.8 16.6,-9.2 25.9,-11.7 8.3,-2.19999 16.6,-3.89999 25.3,-3.39999 6,0.3 11.9,0.2 17.9,0.9 6.6,0.7 13.2,1.3 19.2,4.49999 0.7,0.4 1.3,0.9 2.6,1.7 -1.2,0.1 -1.7,0.3 -1.9,0.1 -6,-3 -12.6,-3.1 -18.9,-3.7 -10.3,-0.99999 -20.7,-1.29999 -31,0.3 -17.9,2.8 -33.9,10.1 -47.8,21.6 -6,4.9 -10.7,11.2 -13.1,18.9 -1.4,4.4 -3.7,8.5 -5.5,12.7 -3.4,8 -5.7,16.3 -5.2,25.1 0.6,11.1 1.8,22.2 3.1,33.2 0.3,2.3 2.3,4.5 3.6,6.7 0.3,0.5 0.7,0.9 0.8,1.7 -0.7,-0.6 -1.4,-1.2 -2.1,-1.8 -0.2,0.1 -0.3,0.2 -0.5,0.3 2.3,3.8 4.7,7.6 7.1,11.4 1.3,0.2 2.8,0.3 4.3,0.5 -8,2 -13.8,7.8 -20.8,11.3 -2.9,1.5 -6,2.8 -8.9,4.3 -0.6,0.3 -1,1.2 -1.3,1.9 -0.2,0.3 0,0.9 0,1.3 -0.6,4.3 0.3,7.9 3.6,10.9 1.4,1.3 2.1,3.3 3.1,5 2.7,4.8 5.3,9.8 8.4,15.4 z m -5.9,-83 c -0.3,0 -0.6,0.1 -1,0.1 0.2,3 -0.1,6.2 0.7,9.1 1.5,5.4 3.5,10.6 5.6,15.8 1.2,2.9 2.9,5.6 4.4,8.3 1.4,-0.5 2.4,-0.9 4.1,-1.5 -10.9,-8.1 -10.6,-20.7 -13.8,-31.8 z"
         id="path796" />
      <path
         d="m -1306.8201,-333.27476 c 8.4,-4.4 16.8,-8.8 25.9,-13.5 0.7,2.3 1.3,4.2 1.7,6.1 0.8,4 1.4,7.9 2,11.9 0.6,4.2 1.2,8.3 1.8,12.5 0.1,0.8 0,1.6 0.3,2.3 1.4,3.5 -0.2,6.1 -2.4,9.2 -1.7,-13.1 -3.3,-25.8 -4.9,-38.6 -0.4,0.2 -1.2,0.6 -1.9,1 -2.7,1.4 -5.4,2.7 -7.9,4.4 -8.4,5.3 -17.5,8.9 -27.2,11 -2.2,0.5 -4.3,1.7 -6.4,2.7 -12.1,5.9 -24.1,11.8 -36.2,17.8 -8.9,4.4 -17.8,8.7 -26.6,13.3 -4.6,2.4 -9,5.3 -13.6,7.9 -1,0.6 -2.3,0.6 -3.5,0.9 -3.1,-4.4 -6.7,-8.5 -9.3,-13.3 -3.8,-7 -6.9,-14.4 -10.4,-21.6 -0.5,-1 -1.3,-1.8 -1.9,-2.7 -0.1,-1.5 -0.5,-3.1 -0.2,-4.6 0.3,-1.5 1.4,-2.8 2.3,-4.6 0.5,0.9 0.7,1.4 0.9,1.7 11.2,-8.5 24.3,-13 36.5,-19.4 11.6,-6.1 23.8,-10.8 35.8,-16.2 5.9,-2.6 11.8,-5.3 17.8,-7.7 5,-2 10.3,-3.5 15.3,-5.5 7.1,-2.8 14.2,-5.7 20.9,-8.5 -1.1,-8.3 -1.8,-16 -3.3,-23.6 -1,-4.9 -0.8,-9.8 -0.8,-14.6 0,-0.6 0.6,-1.2 0.9,-1.9 0.4,0.6 1.1,1.1 1.1,1.6 -0.2,8.1 2,15.8 3.3,23.7 0.5,3.3 0.7,6.6 1.2,9.9 0.1,0.9 0.9,1.8 1.4,2.7 0.2,0.3 0.4,0.8 0.4,1.1 -0.8,4.8 -1,9.6 -2.9,14.3 -1.8,4.2 -2.4,8.9 -3.4,13.4 -0.9,3.6 -1.7,7.1 -2.6,10.7 -1.3,5.5 -2.7,10.7 -4.1,16.2 z m 11.7,-50.8 c -1.8,0.5 -2.9,0.7 -3.8,1.2 -7,3.4 -13.7,7.3 -21.4,8.9 -3.3,0.7 -6.4,2 -9.5,3.4 -7.1,3.1 -14,6.9 -21.2,9.5 -20.8,7.5 -39.9,18.5 -59.8,27.8 -3.5,1.6 -6.7,3.9 -9.8,6.1 -1.8,1.2 -2.3,2.9 -1.5,5.3 4.4,11.7 10,22.7 17.3,32.8 0.2,0.3 0.6,0.6 0.7,0.7 5.1,-2.9 10,-5.9 15,-8.5 7.8,-4.1 15.6,-8 23.6,-11.7 11,-5.2 22.3,-9.8 33.1,-15.3 5.7,-2.9 11.3,-6 17.6,-7.1 3.7,-0.7 5.9,-2.1 6.5,-6.2 0.7,-5.1 2.4,-10 3.5,-15 1,-4.1 1.5,-8.4 2.8,-12.5 1.3,-4.2 3.2,-8.2 4.7,-12.3 0.8,-2.1 1.3,-4.2 2.2,-7.1 z"
         id="path798" />
      <path
         d="m -1435.7201,-378.77476 c 0.3,-0.9 0.7,-1.7 0.8,-2.4 0.9,-7.7 1.4,-15.4 2.6,-23.1 1.4,-8.8 3.1,-17.7 5.2,-26.3 2.1,-8.5 5.6,-16.5 10.7,-23.7 5.6,-7.9 10.6,-16.2 16.7,-23.7 9.5,-11.8 19.8,-22.89999 33,-30.79999 7.5,-4.5 14.8,-9.2 22.6,-12.9 6.2,-3 12.9,-4.8 19.5,-6.9 7.9,-2.5 15.9,-5 24.3,-5.6 6.7,-0.5 13.4,-1 20,-1.5 0.5,0 1,0.1 1.7,0.7 -0.6,0.3 -1.2,0.9 -1.8,1 -4.1,0.8 -8.3,1.5 -12.4,2.3 -6.9,1.4 -13.8,2.5 -20.6,4.4 -9.2,2.6 -18.3,5.5 -27.2,8.9 -8.8,3.4 -16.7,8.6 -24.5,13.9 -16.3,10.99999 -29,25.49999 -40.2,41.49999 -1.8,2.6 -3.4,5.4 -5.3,8 -8.8,11.9 -13.3,25.5 -15.9,39.8 -1.7,9.3 -2.9,18.7 -4.2,28.1 -0.3,2.1 0,4.3 0,6.7 2.6,-1.1 5.1,-2.1 7.5,-3.1 5.4,-2.1 10.8,-4 16.2,-6.1 11,-4.3 22,-8.7 33,-13 7.6,-2.9 15.3,-5.4 22.8,-8.5 10,-4.2 19.8,-9 29.8,-13.2 2.7,-1.1 5.8,-1.2 8.7,-1.8 1,-0.2 2,-0.4 2.9,-0.9 2.7,-1.5 5.3,-3.1 8,-4.6 0.8,2.2 0.3,3.4 -1.6,4 -3,1 -5.9,2.3 -9,3.3 -9.5,3.1 -18.5,7.1 -27.4,11.4 -9.2,4.5 -18.9,7.9 -28.4,11.7 -7.4,3 -14.8,6.1 -22.3,8.9 -8.6,3.2 -17.2,6.1 -25.9,9.2 -4.5,1.6 -8.9,3.2 -13.4,4.8 -0.2,0.1 -0.5,0.2 -0.7,0.4 -3,2.2 -3.2,2.2 -5.2,-0.9 z"
         id="path800" />
      <path
         d="m -1038.4201,-448.37476 c 9,-5.2 17.6,-10.3 26.2,-15.3 1.2,1.9 1.6,2.6 -1.4,4.2 -7.1,3.6 -14.1,7.6 -21.1,11.5 -2.9,1.7 -5.7,1.8 -8.4,-0.3 -5.5,-4.2 -12.1,-6 -18.4,-8.6 -6,-2.5 -11.4,-1.5 -17.2,0.3 -2.7,0.8 -5.8,0.6 -8.2,1.8 -5.5,2.6 -10.4,5.8 -14,11.3 -3.4,5.3 -5.8,10.9 -7.4,16.8 -1,3.7 -1.3,7.7 -1.5,11.5 -0.2,4.8 -0.1,9.6 0.4,14.7 0.8,-1.3 1.4,-2.8 2.4,-4 6.8,-8.6 15.2,-15.3 25.7,-18.4 6,-1.8 12.6,-2.2 18.9,-0.5 0.8,0.2 1.7,0.6 2.5,0.5 2.5,-0.3 3.8,1.2 4.9,3 -5,-0.5 -10,-1.3 -15,-1.5 -12.1,-0.5 -21.9,4.8 -30.4,12.9 -3,2.9 -5.3,6.7 -7.7,10.2 -0.7,1 -1,2.4 -0.8,3.6 0.4,3 1.3,6 1.8,9 0.3,1.3 0.3,2.7 0.4,4.1 -0.3,0.1 -0.6,0.2 -1,0.3 -1.4,-2.7 -3.3,-5.2 -4.2,-8 -3.8,-12.2 -2.5,-24.7 -1.2,-37.2 0.1,-1.2 0.8,-2.3 0.9,-3.5 0.1,-1.4 1.7,-2.6 0.3,-4.2 -0.2,-0.3 0.1,-1.4 0.5,-1.9 2,-2.6 3.9,-5.4 6.3,-7.8 2.4,-2.4 5.2,-4.5 8,-6.5 3.6,-2.5 7.3,-4.8 11.1,-7 1.2,-0.7 2.8,-0.8 4.2,-1 3.9,-0.6 7.8,-1.1 11.7,-1.6 6,-0.8 11.8,-0.1 17.4,2.4 5.4,2.4 10.5,4.9 14.3,9.2 z"
         id="path802" />
      <path
         d="m -1578.2201,-26.974756 c -0.5,-0.3 -1.3,-0.5 -1.6,-1 -2.1,-3.1 -4.3,-6.2 -6.1,-9.5 -1.8,-3.3 -3.4,-6.8 -4.9,-10.3 -2.1,-5.1 -4,-10.3 -6.1,-15.4 -1.1,-2.7 -2.7,-5.2 -3.8,-7.9 -0.9,-2.1 -1.6,-4.3 -2.4,-6.4 0.4,-0.1 0.7,-0.3 1.1,-0.4 3.2,6.1 6.4,12.3 9.7,18.8 0.7,-0.6 1.9,-1.1 2.3,-2 3.2,-5.8 6.6,-11.5 9.2,-17.6 3.4,-8.1 6.3,-16.4 9.1,-24.700004 0.8,-2.3 0.3,-5 0.6,-7.5 0.3,-2.6 1.1,-5.2 1.2,-7.8 0.1,-2.4 0.8,-4.8 0.9,-7.1 0.1,-3.2 -0.9,-6.4 -1.5,-9.6 -0.2,0 -0.4,0 -0.6,-0.1 -0.8,3.6 -1.6,7.2 -2.6,10.7 -0.2,0.7 -1.1,1.3 -2.1,1.7 4.4,-16.2 5.4,-32.1 0,-48.2 0.5,0.8 1.2,1.5 1.4,2.3 1.2,5 2.7,10 3.3,15.1 0.6,4.9 0,9.8 0.3,14.7 0.1,2 1.3,4 2,6 2.8,8 3.1,16 1,24.2 -0.9,3.4 -1.3,7 -1.5,10.500004 -0.5,9.4 -3,18.4 -6.4,27.1 -2.5,6.6 -5.6,12.9 -8.5,19.3 -0.6,1.3 -1.4,2.7 -2.5,3.4 -1.9,1.2 -1,2.3 -0.4,3.4 2.8,5.4 5.7,10.8 8.6,16.2 0.3,0.5 0.4,1.1 0.6,1.6 -0.1,0.2 -0.2,0.4 -0.3,0.5 z m -15.1,-31.8 c 1.8,3.9 3.3,7.1 4.9,10.3 0.3,0 0.5,0.1 0.8,0.1 6.9,-12.7 11.3,-26.3 14.4,-40.4 -0.4,0.4 -0.6,0.8 -0.8,1.3 -3.7,9.3 -7.3,18.6 -14,26.3 -1.3,1.6 -2.3,2.9 -5.3,2.4 z"
         id="path804" />
      <path
         d="m -1344.1201,-417.27476 c 0.3,-3.9 0.1,-7.9 1.1,-11.6 2.1,-8.2 7.4,-14.4 13.8,-19.8 9.8,-8.2 20.6,-14.8 31.7,-20.9 3.3,-1.8 7,-2.4 10.8,-1.7 0.7,0.1 1.5,0.2 2.4,0.4 0.3,-5 0.5,-9.8 0.9,-14.6 0.8,-9.29999 1.5,-18.69999 2.6,-27.99999 0.6,-4.9 1.9,-9.7 2.8,-14.6 0.2,-1.4 -0.1,-2.9 0.1,-4.3 0.1,-0.7 0.7,-1.4 1.3,-2.5 2.4,3.5 1.6,6.7 1,9.7 -2,10.6 -2.8,21.3 -3,31.99999 -0.1,6.4 -1.3,12.8 -1.8,19.2 -0.1,1.6 0.5,3.3 0.9,5.2 -0.3,0.5 -1,1.5 -2.1,3.1 -0.7,-0.8 -1.3,-1.6 -2.4,-2.8 -4.4,-0.7 -9.2,-0.1 -13.7,2.5 -10.4,6.1 -20.8,12.4 -30,20.3 -5.9,5.1 -10.1,11.3 -12.8,18.5 -1,2.5 -1.3,5.3 -2,8 -0.2,0.6 -0.5,1.2 -0.8,1.8 -0.2,0.2 -0.5,0.2 -0.8,0.1 z"
         id="path806" />
      <path
         d="m -1703.2201,-253.67476 c -4,-1.9 -6.1,-5.4 -8,-9 -5.2,-9.9 -10.3,-19.8 -15.5,-29.6 -0.6,-1.2 -1.4,-2.3 -2.6,-3.4 0,0.6 0,1.2 0,1.8 0.9,12.4 1.8,24.8 2.5,37.2 0.1,1.8 0.5,2.9 2.4,3.1 6.9,0.8 13.8,1.7 20.8,2.6 0.9,0.1 1.8,0.4 2.7,0.6 -0.1,0.3 -0.1,0.6 -0.2,1 -2.1,0 -4.3,0.2 -6.4,0 -5.2,-0.7 -10.4,-1.6 -15.6,-2.4 -1.7,-0.3 -3.6,0 -5.2,-0.6 -2.7,-1 -5.3,-2.3 -7.8,-3.7 -5.6,-2.9 -10.7,-6.4 -14,-11.9 -0.3,-0.5 -0.5,-1.2 -0.6,-1.9 4.7,6.7 11,11.4 18.9,14.1 -0.6,-16.3 -1.2,-32.4 -1.9,-48.7 -5.6,1.9 -14.1,12.5 -17.4,20.4 0.6,-1.8 0.9,-3.7 1.8,-5.4 3.1,-6.2 7.1,-11.6 12.8,-15.7 0.4,-0.3 0.7,-1 0.8,-1.5 0.2,-1.8 0.8,-2.4 2.5,-1.5 0.5,0.3 1.2,0.3 1.2,0.8 0.5,1.7 0.7,3.5 1.5,5 6.9,12.6 14,25.2 21,37.8 1.5,2.6 3.1,5.2 4.6,7.8 0.8,1 1.2,2.1 1.7,3.1 z"
         id="path808" />
      <path
         d="m -1513.9201,-285.17476 c -13.9,3.4 -26.9,9.2 -40,15 -0.2,-0.2 -0.3,-0.3 -0.5,-0.5 1.3,-1.2 2.3,-2.9 3.8,-3.6 7.4,-3.5 14.8,-7 22.4,-10 4.1,-1.6 8.6,-2 13.2,-2.9 -0.1,-0.6 -0.2,-1.2 -0.2,-2 1.2,-0.1 2.4,-0.2 3,-0.2 10.3,13.4 18.8,27.5 27.7,41.4 1.4,2.2 1.2,3 -1.1,6.7 -4.4,-7.4 -8.8,-15.1 -13.5,-22.4 -4.8,-7.3 -10,-14.4 -14.8,-21.5 z"
         id="path810" />
      <path
         d="m -1040.1201,-404.27476 c -0.3,-2.1 -0.7,-4.1 -0.8,-6.2 -0.5,-11.5 -0.9,-22.9 -1.3,-34.4 0,-0.5 0.2,-1 0.6,-1.6 4.2,13.2 3.5,26.7 2.9,40.7 2.5,-2.1 4.6,-4.2 7,-5.9 3.7,-2.7 7.6,-5.4 11.5,-7.8 4.7,-2.8 9.6,-5.1 14.3,-7.7 0.7,-0.4 1.3,-1.6 1.2,-2.4 -0.3,-5.7 -0.8,-11.4 -1.2,-17.2 -0.2,-3.2 -0.3,-6.3 -0.6,-9.5 -0.1,-0.7 -0.8,-1.4 -1.3,-2.2 1.3,-0.9 2.3,-1.1 2.9,1 1.8,5.5 2,11.1 2.2,16.8 0.1,2.6 0.1,5.2 0.3,7.8 0.1,1.8 0,3.9 2.4,4 -5.7,5.2 -12.8,8.6 -19.5,12.5 -6.7,3.9 -13.1,8.4 -19.7,12.6 -0.2,-0.2 -0.6,-0.3 -0.9,-0.5 z"
         id="path812" />
      <path
         d="m -1697.1201,-311.47476 c 0.7,1.8 -0.6,0.8 -1.1,0.7 -4.1,-0.6 -8.2,-1.2 -12.4,-1.8 -0.1,0.3 -0.3,0.6 -0.4,0.9 1.2,1.8 2.4,3.7 3.6,5.5 9.1,14.3 17.1,29.2 23.8,44.7 1.2,2.7 2.5,5.3 3.9,7.8 0.4,0.7 1.5,1.4 2.3,1.4 7.1,-0.2 14.1,-0.6 21.2,-0.8 2.6,-0.1 5.2,0.3 8.5,0.5 -11,1.3 -21.5,0 -31.6,3.5 -6.8,-8.3 -9.8,-18.6 -14.8,-28 -5.1,-9.6 -10.6,-19 -15.8,-28.5 -1.3,-2.4 -2.2,-5 -3.3,-7.5 0.2,-0.3 0.5,-0.5 0.7,-0.8 5.2,0.9 10.4,1.7 15.4,2.4 l 0,0 z"
         id="path814" />
      <path
         d="m -1065.4201,-229.97476 c -0.2,-0.9 -0.7,-1.8 -0.5,-2.6 1.4,-7.6 3,-15.2 4.4,-22.9 2.6,-14.3 2.2,-28.7 1,-43.1 -0.9,-10.3 -2.8,-20.3 -6.6,-29.9 -0.6,-1.4 -0.6,-3 -0.7,-4.6 5.3,10.6 8.3,21.7 9.7,33.4 1.4,11.8 1.6,23.6 0.6,35.4 -0.9,11.7 -4,23 -7.1,34.3 -0.1,-0.1 -0.5,-0.1 -0.8,0 z"
         id="path816" />
      <path
         d="m -1505.8201,-175.17476 c 0.1,-2.5 0.4,-4.7 2.9,-6.3 10.7,-6.7 22.2,-11.3 34.3,-14.8 4.3,-1.3 8.4,-3 12.6,-4.4 0.8,-0.3 1.9,0.2 2.8,0.3 -0.4,0.8 -0.5,1.9 -1.2,2.4 -1.5,1 -3.1,1.8 -4.8,2.3 -5.9,1.9 -11.9,3.4 -17.7,5.7 -8.6,3.4 -17.1,7.2 -25.6,11.1 -1.4,0.6 -2.2,2.4 -3.3,3.7 z"
         id="path818" />
      <path
         d="m -1033.6201,-353.27476 c -12.3,6.2 -23.6,13.6 -37.2,15.1 13.6,-3.6 25.2,-11.8 38.6,-16.8 0,3.3 -0.1,6.2 0,9 0.4,7.4 0.9,14.8 1.2,22.2 0.2,4.7 0,9.5 -0.1,14.2 0,0.7 -0.5,1.4 -1.2,2 -1.2,-15.1 -3.6,-30.2 -1.3,-45.7 z"
         id="path820" />
      <path
         d="m -1587.6201,-195.97476 c -0.7,-0.4 -1.5,-0.6 -2,-1.2 -3.5,-4.6 -7.4,-9 -10.1,-14 -3.1,-5.6 -7.3,-10.1 -12.2,-13.8 -6.2,-4.7 -12.8,-9.2 -19.7,-12.7 -7.8,-4 -16.2,-6.7 -24.3,-10 -0.4,-0.2 -0.9,-0.4 -1.3,-0.7 13.6,2.5 25.9,8 37.5,15.2 14.4,9 24.7,21.8 32.7,36.5 -0.2,0.2 -0.4,0.5 -0.6,0.7 z"
         id="path822" />
      <path
         d="m -1282.9201,-542.07475 c -1.5,-1.4 -3.1,-2.8 -4.6,-4.3 -7.4,-7 -14.3,-14.4 -22.6,-20.5 -6.1,-4.5 -11.2,-10.4 -16.6,-15.8 -1.7,-1.7 -3,-3.9 -4.2,-6.2 1.1,0.9 2.3,1.8 3.4,2.8 3.2,2.9 6.3,5.9 9.4,8.8 1.8,1.6 3.5,3.3 5.3,4.9 5.8,5 11.9,9.8 17.4,15.1 4.7,4.6 8.8,9.8 13.2,14.7 -0.3,0.1 -0.5,0.3 -0.7,0.5 z"
         id="path824" />
      <path
         d="m -1604.4201,-78.574756 c -1.5,-1.5 -0.6,-2.5 0.5,-3.5 6.5,-5.7 12.5,-12 17,-19.400004 2.7,-4.4 4.9,-9.1 7.3,-13.7 0.7,-1.3 1.4,-2.7 2.4,-4.7 1.1,5.8 -0.4,10.2 -3.2,14.7 -0.3,-0.8 -0.5,-1.1 -0.7,-1.7 -5.9,11.100004 -13.7,20.400004 -23.3,28.300004 z"
         id="path826" />
      <path
         d="m -1674.8201,-252.77476 c -0.5,-1.8 -1.4,-3.6 -1.5,-5.4 -0.8,-9.5 -1.3,-19.1 -2.1,-28.6 -0.5,-5.6 -1.4,-11.2 -1.8,-16.9 0.7,2.1 1.8,4.1 2.1,6.3 1,6.7 1.9,13.5 2.6,20.2 0.8,8 1.3,16.1 1.9,24.1 -0.5,0.1 -0.8,0.2 -1.2,0.3 z"
         id="path828" />
      <path
         d="m -1051.7201,-398.97476 c 0.4,0.4 0.9,0.8 1.3,1.2 5.9,7 10.1,14.9 13.7,23.2 1.3,3 2.4,6 3.6,9.1 0.2,0.5 -0.1,1.2 -0.2,1.8 -0.5,-0.4 -1.3,-0.7 -1.6,-1.2 -2.7,-5.7 -5,-11.5 -7.9,-17.1 -2.5,-5 -5.6,-9.7 -8.4,-14.5 -0.4,-0.7 -0.8,-1.4 -1.2,-2.2 0.3,0.1 0.5,-0.1 0.7,-0.3 z"
         id="path830" />
      <path
         d="m -1041.8201,-486.97476 c 4.3,0 25,11.4 28.8,15.1 -5.6,-0.2 -10.9,-2.2 -14.9,-6 -2.1,-2 -4,-4.1 -6.6,-5.4 -2.6,-1.1 -4.9,-2.4 -7.3,-3.7 z"
         id="path832" />
      <path
         d="m -1098.0201,-383.87476 c 33.5,-14.7 36.5,-15.6 41.5,-14.3 -13.4,4.7 -27.4,9.5 -41.5,14.3 z"
         id="path834" />
      <path
         d="m -1053.8201,-298.37476 c 0.5,-0.7 0.8,-1.5 1.3,-1.7 4.2,-1.6 8.4,-3.2 12.8,-4.6 2.4,-0.7 4.4,-4 7,-1.9 -6,4.3 -13.1,6.6 -21.1,8.2 z"
         id="path836" />
      <path
         d="m -1697.0201,-311.47476 c -1.7,-1 -3.3,-1.9 -5.6,-3.2 8,1.1 13.9,5.3 20.3,9.8 -1,-0.1 -1.3,-0.1 -1.6,-0.2 -0.3,-0.1 -0.6,-0.4 -0.9,-0.5 -4.1,-2 -8.2,-4 -12.2,-5.9 -0.1,0 0,0 0,0 z"
         id="path838" />
      <path
         d="m -1054.8201,-415.67476 c 5.6,1.1 8.7,4.9 11.9,8.4 -0.2,0.3 -0.4,0.6 -0.6,0.8 -3.6,-2.9 -7.3,-5.9 -11.3,-9.2 z"
         id="path840" />
      <path
         d="m -1582.6201,-182.27476 c -1.7,-4.1 -3.5,-8.2 -5.4,-12.8 1,0.6 2.1,0.8 2.3,1.3 1.3,3.8 2.3,7.6 3.4,11.5 -0.1,-0.1 -0.2,-0.1 -0.3,0 z"
         id="path842" />
      <path
         class="st0"
         d="m -1263.4201,-68.674756 c 16.4,-1.3 34.1,-2.8 51.2,-4.2 -3.4,2.4 -41.2,5.5 -51.2,4.2 z"
         id="path844"
         style="fill:#ffffff" />
      <path
         class="st0"
         d="m -1332.2201,-78.274756 c 4,0.8 8,1.6 12,2.4 0,0.2 -0.1,0.4 -0.1,0.7 -4,-0.7 -8.1,-1.5 -12.1,-2.2 0,-0.3 0.1,-0.6 0.2,-0.9 z"
         id="path846"
         style="fill:#ffffff" />
      <path
         class="st0"
         d="m -1688.1201,-34.274756 c -2.6,0 -5.2,0 -7.7,0 14.1,-1.7 28,-3.9 41.9,-8.4 -0.2,0.7 -0.3,1.1 -0.6,2 11.5,-5.5 22.7,-10.8 34.1,-16.3 -0.3,2.6 -0.7,5.2 -0.8,7.7 -0.1,1.5 0.3,3 0.5,4.5 0,0.3 0.2,0.7 0.1,1 -2.1,6.3 -1,12.8 -1.2,19.3 -0.1,2.6 -0.4,4.7 -3,5.9 -0.7,0.3 -1.2,1 -1.8,1.5 -8.1,8.1000004 -18.5,11.4000004 -29.3,13.7000004 -8.9,1.9 -17.8,3.69999996 -26.7,5 -5.2,0.8 -10.7,0.5 -16,0.4 -4.4,0 -8.8,-0.6 -13.2,-0.5 -14.6,0.4 -28.7,-2.20000004 -42.4,-7.1 -4.8,-1.7 -9.6,-3.4 -14.5,-4.9000004 -6.7,-2 -12,-6.2 -16.5,-11.2 -5.7,-6.3 -11,-13 -16.3,-19.6 -0.5,-0.7 -0.5,-1.9 -0.5,-2.9 0.1,-8 0.3,-16.1 0.4,-24.1 0,-3.1 0,-6.3 0,-10 2.8,2.4 5.2,4.4 7.7,6.4 4.9,3.8 10.2,7.2 14.6,11.5 3.1,3.1 6.9,4.7 10.6,6.4 5.2,2.4 9.3,6.3 14.4,8.8 9.7,4.7 20,6.9 30.5,8.8 8.5,1.5 16.9,3.7 25.6,3.1 3.3,-0.2 6.7,-0.5 10,-0.7 0.1,-0.1 0.1,-0.2 0.1,-0.3 z"
         id="path848"
         style="fill:#ffffff" />
      <path
         class="st0"
         d="m -1682.9201,-194.67476 c 4.6,4.7 15.4,27.6 14.2,30.2 2.6,1.1 2.7,3.7 3.7,5.8 5.1,10.4 10,20.8 15.2,31.2 1.1,2.3 2.9,4.3 4.8,7 -3.9,3.3 -7.9,6.6 -12,10 -4.5,-6.3 -6.6,-13.1 -9,-19.8 -2,-5.4 -4.6,-10.7 -7.3,-15.8 -1.8,-3.3 -4.6,-6 -6.4,-9.2 -0.8,-1.4 -0.1,-3.5 -0.2,-5.3 0,-0.8 -0.1,-1.6 -0.3,-2.4 -0.2,-0.7 -0.6,-1.4 -0.7,-2.1 -0.7,-10.2 -1.3,-20.1 -2,-29.6 z"
         id="path850"
         style="fill:#ffffff" />
      <path
         class="st0"
         d="m -1757.5201,-49.474756 c 8.5,3 17,6 25.5,9 -9.2,-0.9 -17.8,-3.7 -25.5,-9 z"
         id="path852"
         style="fill:#ffffff" />
      <path
         class="st0"
         d="m -1802.5201,-199.87476 c -3.1,-4 -4.4,-8.7 -4.9,-13.7 1.6,4.6 3.3,9.1 4.9,13.7 z"
         id="path854"
         style="fill:#ffffff" />
      <path
         class="st0"
         d="m -1687.6201,-158.17476 c 1.5,-0.4 3,-0.8 4.8,-1.3 0.1,1.2 0.1,2 0.2,3.5 -1.9,-0.6 -3.5,-1.1 -5.1,-1.5 0,-0.3 0,-0.5 0.1,-0.7 z"
         id="path856"
         style="fill:#ffffff" />
      <path
         class="st0"
         d="m -1761.4201,-345.87476 c 1.1,1.6 2.2,3.1 3.4,4.8 -2.9,-0.7 -3.6,-1.7 -3.4,-4.8 z"
         id="path858"
         style="fill:#ffffff" />
      <path
         class="st0"
         d="m -1166.1201,-395.27476 c 3.2,11.1 2.9,23.7 13.8,31.8 -1.7,0.6 -2.7,1 -4.1,1.5 -1.4,-2.7 -3.2,-5.4 -4.4,-8.3 -2.1,-5.2 -4.1,-10.5 -5.6,-15.8 -0.8,-2.9 -0.5,-6 -0.7,-9.1 0.4,0 0.7,-0.1 1,-0.1 z"
         id="path860"
         style="fill:#ffffff" />
      <path
         class="st0"
         d="m -1295.1201,-384.07476 c -0.9,2.9 -1.4,5 -2.1,7 -1.5,4.1 -3.5,8.1 -4.7,12.3 -1.2,4.1 -1.8,8.3 -2.8,12.5 -1.2,5 -2.8,9.9 -3.5,15 -0.6,4.2 -2.8,5.6 -6.5,6.2 -6.3,1.1 -11.9,4.2 -17.6,7.1 -10.8,5.6 -22.1,10.2 -33.1,15.3 -7.9,3.7 -15.8,7.7 -23.6,11.7 -5,2.6 -9.9,5.6 -15,8.5 -0.1,-0.1 -0.5,-0.4 -0.7,-0.7 -7.4,-10.1 -13,-21.1 -17.3,-32.8 -0.9,-2.4 -0.3,-4.1 1.5,-5.3 3.1,-2.2 6.3,-4.4 9.8,-6.1 19.9,-9.3 39,-20.3 59.8,-27.8 7.3,-2.6 14.1,-6.4 21.2,-9.5 3.1,-1.3 6.2,-2.7 9.5,-3.4 7.8,-1.6 14.4,-5.6 21.4,-8.9 0.8,-0.3 1.9,-0.5 3.7,-1.1 z"
         id="path862"
         style="fill:#ffffff" />
      <path
         class="st0"
         d="m -1593.3201,-58.774756 c 3,0.5 4,-0.8 5.3,-2.4 6.6,-7.8 10.3,-17 14,-26.3 0.2,-0.5 0.4,-0.9 0.8,-1.3 -3.2,14.1 -7.5,27.7 -14.4,40.4 -0.3,0 -0.5,-0.1 -0.8,-0.1 -1.5,-3.2 -3.1,-6.4 -4.9,-10.3 z"
         id="path864"
         style="fill:#ffffff" />
    </g>
    <g
       id="g6081"
       transform="matrix(0.56699845,0,0,0.56699845,1113.1776,825.07363)">
      <g
         transform="translate(-2050.7937,-843.55236)"
         id="Layer_1-6" />
      <g
         transform="translate(-2050.7937,-843.55236)"
         id="Layer_2-7" />
      <path
         d="m -1551.7937,-518.65236 c 0.4,2.3 1.4,4.7 1,6.9 -1.7,9.9 -2.1,19.8 -2.4001,29.8 -0.5,14.5 3.1001,28.1 8.3001,41.4 3.4,8.6 8.9,15.9 14.6,23 12.8,15.9 27.2,30.1 44.3,41.4 2,1.3 4,2.5 5.7999,3.5 1,-1.4 1.7001,-3.2 2.8001,-3.6 1.5,-0.5 3.5,0 5,0.6 6.1999,2.5 12.2999,2.9 18.7999,1 2,-0.6 4.4,0.1 6.7001,0.3 -2.1,-3.5 -4.6,-7.2 -6.6,-11.1 -1.4,-2.6 -2.4,-5.4 -3.2001,-8.1 -0.2999,-0.9 0.1,-2.9 0.6,-3 1.2001,-0.3 3,-0.4 3.9,0.3 4.9001,3.7 9.6,7.6 14.7001,11.7 2.6,-1 3.2999,-0.8 5.7,2 1.9,2.2 3.9,4.3 5.9,6.4 1.1,-1.7 2,-3 2.6999,-4.2 -3.3999,-5.5 -7.0999,-11.1 -10.1999,-17.1 -0.9,-1.8 -0.8001,-5 0.1999,-6.9 2.4001,-4.7 4.6001,-9.3 5.8001,-14.4 0.7999,-3.5 2.5,-7 5.6,-9.4 0.5999,-0.5 1.0999,-1.3 1.4,-2.1 2,-5.8 3.6999,-11.7 5.9,-17.4 1.5,-3.7 3.5,-7.3 5.7999,-10.6 2.6,-3.7 5.9001,-6.9 8.6,-10.5 0.7001,-0.9 0.7001,-2.8 0.2001,-3.9 -2.9,-6.4 -5.8001,-12.8 -9,-19.1 -1.1,-2.1 -3,-3.9 -4.3001,-5.9 -0.5999,-0.8 -0.6999,-1.9 -1,-2.9 0.8001,0.3 1.7001,0.7 2.5,1 0.1001,0.1 0.3001,0.1 0.7001,0.2 -6.1,-8.3 -12.4,-16.1 -20.8,-22 -2.1,-1.4 -4.4,-2.5 -6.5,-3.8 -2,-1.2 -3.8,-1.9 -4.9,1.7 -0.3,-1.9 -0.5,-3.1 -0.6,-4.3 0,-0.8 -0.1,-2 0.2,-2.2 0.8,-0.4 2,-0.6 2.8,-0.3 8.4,3.8 16,8.6 22.1,15.7 2,2.3 4,4.6 6,6.9 1.4,1.5 2,3.2 2.5,5.3 0.6,2.8 2.2,5.4 3.4,8 2.1,4.4 4.3,8.7 6.5,13 0.9,1.9 2,3.7 2.7,5.7 0.8,2.1 1.3,4.2 1.9,6.4 0.5,2 -0.7,3.3 -2.1,4.5 -6.4,6.1 -12,12.6 -13.9,21.7 -1.1,5.3 -3.5,10.3 -5.5,15.4 -0.5,1.2 -2,1.9 -2.6,3 -1.6,2.9 -3,5.8 -4.3,8.8 -1.7,3.9 -2.7,8.2 -4.8,11.8 -1.6,2.8 -1.2,4.9 0.2,7.2 2,3.3 3.9,6.7 6,10 0.9,1.4 2.3,2.5 3.2,3.8 0.8,1.1 1.4,2.4 1.8,3.7 0.3,0.9 0.1,2 0.1,3.1 1.9,0.4 3.2,0.3 4.4,-1.5 1,-1.5 2.1,-3.1 4.4,-3 0.6,0 1.3,-0.9 2,-1.4 1.4,-1 2.6,-0.5 2.9,1.2 0.2,0.9 0.1,1.9 0.3,2.8 0.2,0.8 0.7,1.4 1,2.1 0.7,-0.5 1.6,-0.9 2,-1.6 0.8,-1.3 1.5,-2.7 2,-4.1 2.6,-6.9 5.4,-13.8 7.7,-20.9 1.5,-4.6 1.9,-9.4 -0.3,-14 -0.3,-0.6 -0.9,-1.1 -1.3,-1.7 -0.4,-0.6 -0.9,-1.3 -0.9,-1.9 -0.1,-2.7 -0.1,-5.4 0,-8.1 0,-0.4 0,-1 0.2,-1.2 3.8,-4 3.7,-9.5 5.7,-14.1 0.8,-1.9 1.6,-4 3,-5.5 4.7,-4.9 6.2,-11.1 7.5,-17.4 0.1,-0.3 0.3,-0.7 0.7,-1.4 0.2,0.8 0.5,1.2 0.4,1.5 -0.8,4 -1.3,8.1 -2.6,12 -0.9,2.8 -3.1,5.2 -4.4,7.9 -1.7,3.6 -3,7.4 -4.5,11.1 -0.7,1.7 -1.3,3.4 -2.1,5.1 -0.8,1.6 -0.8,3.1 -0.8,4.9 0,3.3 0.3,6.1 2.3,8.9 0.6,0.8 0.5,2.1 0.6,3.2 0.4,7.5 0.7,15 1,22.5 0.1,1.6 0,3.2 0,4.7 1.3,-1 2.5,-2.3 4,-3 2.3,-1.2 4.3,0.2 4.6,2.8 0.3,2.4 0.6,4.8 1,7.2 0.4,0.3 0.9,0.6 1.3,0.9 0.4,-0.9 0.8,-1.9 1.3,-2.7 0.9,-1.4 1.9,-2.9 3.1,-4 0.9,-0.8 2.3,-1.3 3.5,-1.5 0.3,0 0.9,1.6 1.3,2.5 0.3,0.8 0.5,1.7 0.9,2.3 0.3,0.4 1,0.5 2.2,0.9 -0.6,0.7 -1.5,1.7 -2.4,2.7 -1.2,-1.3 -2.4,-2.6 -3.9,-4.2 -0.9,1.2 -2.3,2.8 -3.3,4.5 -1.1,1.8 -2.8,2.2 -4.3,1.5 -1.1,-0.5 -2.2,-2 -2.5,-3.2 -0.5,-1.7 -0.3,-3.7 -0.6,-5.5 -0.1,-0.7 -0.5,-1.8 -0.8,-1.8 -0.8,0 -1.8,0.3 -2.3,0.8 -2.1,2.4 -4.3,4.9 -2.8,8.5 0.1,0.3 0.1,0.6 0.1,1.3 -2.8,-2 -4.1,-4.3 -4.1,-7.4 0.1,-3.9 0,-7.8 -0.3,-11.8 -1,2.8 -2,5.6 -3,8.5 -1.2,3.3 -2.3,6.7 -3.5,10 -0.3,0.8 -1,1.6 -1.5,2.3 -1.2,1.7 -2.6,3.3 -5,2.4 -2.3,-0.8 -3.8,-2.5 -3.7,-5.1 -2.6,-0.6 -3.5,1.4 -4.6,2.9 -1,1.4 -2,2.1 -3.8,1.9 -1.1,-0.1 -2.2,0.5 -3.3,0.7 -0.4,0.1 -0.8,0.3 -1.2,0.3 -2.7,-0.6 -5.6,-0.8 -7.9,-2.1 -2.3,-1.3 -4,-3.7 -6,-5.7 -0.3,-0.3 -0.7,-0.6 -1.2,-1.1 -1.3,2.1 -2.5,2 -4.2,0.3 -4.2,-4.3 -8.5,-8.3 -12.8,-12.5 -0.3,0.2 -0.5,0.4 -0.8,0.6 0.3,0.8 0.6,1.6 1,2.3 2.8,4.6 5.7,9.2 8.5,13.8 0.5,0.8 0.9,1.8 1.1,2.8 0.4,1.6 -0.5,2.5 -2,2.5 -1.7,0 -3.5,-0.4 -5.2,-0.5 -1.2,-0.1 -2.5,-0.2 -3.7,-0.1 -6.9,1.1 -13.7,1.7 -20.3,-1.3 -0.7,-0.3 -1.6,-0.4 -2.5,-0.5 -0.7,1.8 0.1,2.8 1.6,3.7 9.3,5.5 19,9.9 29.2,13.3 14.7,4.9 29.8,7.3 45.3,7.3 19.7,-0.1 38.3,-5.2 56.2,-12.9 6.2,-2.7 11.7,-7.1 17.4,-10.8 4.4,-2.8 8.7,-5.8 12.8,-9.1 -2,0.8 -3.9,1.5 -5.9,2.3 -4.3,1.8 -4.3,1.8 -5.8,-3 -2.8,1.5 -5.4,3 -8.1,4.4 -0.8,0.4 -2.1,1.1 -2.7,0.7 -1.5,-0.9 -0.4,-1.9 0.3,-2.9 1,-1.4 1.8,-2.9 2.7,-4.4 -0.2,-0.2 -0.4,-0.4 -0.5,-0.6 -1.7,0.8 -3.5,1.6 -5.2,2.6 -2.5,1.4 -4.8,2.9 -7.3,4.3 -0.5,0.3 -1.6,0.4 -1.7,0.2 -0.4,-0.6 -0.7,-1.6 -0.5,-2.2 0.5,-1.2 1.5,-2.2 2,-3.5 0.4,-0.9 0.3,-1.9 0.4,-2.9 -0.2,0 -0.5,0 -0.7,-0.1 -2.5,2.4 -5,4.9 -7.6,7.2 -0.4,0.4 -1.3,0.7 -1.7,0.6 -0.4,-0.1 -0.5,-1 -0.7,-1.6 -0.3,-0.8 -0.6,-1.6 -0.9,-2.5 1,-0.2 2.9,-0.1 4,-0.9 2.3,-1.8 4.4,-4 6.2,-6.3 2.1,-2.7 0.2,-6.3 -3,-7 -1.9,-0.4 -3.8,-1.4 -5.4,-2.5 -1.7,-1.2 -3.4,-2.6 -4.7,-4.2 -1,-1.3 -1.6,-3 -2.1,-4.6 -0.6,-1.8 -0.7,-3.9 -1.6,-5.5 -3.4,-6.2 -2.5,-12.3 -0.6,-18.8 2,-6.6 6.3,-11.8 9.7,-17.5 3.2,-5.4 5.6,-11.4 8.1,-17.3 2,-4.8 3.7,-9.7 5.3,-14 -2.2,0.8 -5.1,1.8 -7.9,2.8 -0.2,-0.2 -0.3,-0.4 -0.5,-0.6 0.6,-0.5 1.2,-1.1 1.9,-1.4 2.8,-1.3 5.7,-2.6 9,-4 -2.1,-1.8 -3.7,-3.1 -5.5,-4.5 0.3,-0.6 0.6,-1.3 1.1,-2.2 1.5,2.4 3.9,2.4 5.6,1.1 3.8,-3 8.1,-3.1 12.5,-2.9 7.6,0.3 13.2,-3.4 18.4,-8.2 1.2,-1.1 2.3,-2.2 3.5,-3.3 0.8,-0.8 1.5,-1.8 3,-1.1 0.4,0.2 1.5,-0.8 2,-1.4 2,-2.7 3.9,-5.4 6.3,-7.9 -0.1,0.5 -0.2,1 -0.4,1.4 -4.3,6.6 -9.8,12 -15.4,17.4 -6.6,6.4 -14.5,7.1 -22.9,7 -1.7,0 -2.8,0.3 -3.4,2.4 -0.8,2.9 -2.6,5.4 -3.9,8.2 -1.4,2.9 -2.8,5.7 -3.9,8.7 -2.1,5.4 -3.6,11 -5.9,16.3 -1.5,3.5 -3.7,6.9 -6.2,9.7 -3.5,4 -5.5,8.6 -6.9,13.6 -0.5,1.7 -1,3.4 -1.4,5.1 -0.8,3.2 0.4,6.1 1.7,8.9 0.8,1.7 1.7,3.6 1.8,5.5 0.2,5 3.7,7.1 7.3,9.1 1.3,0.7 2.9,0.9 4.2,1.5 1,0.4 2.2,1 2.8,1.9 2.8,4.5 5.3,9.2 2.3,14.7 3.1,-1.3 5.8,-2.8 8.7,-3.7 3.4,-1.1 4.1,-0.4 3.8,3 0,0.2 0,0.5 0.1,0.9 2.8,0.1 6.6,-3.5 8.4,2 1.1,-0.3 2.3,-0.7 3.6,-1.1 3.1,-1.1 6.3,-2 9.4,-3.4 2.1,-0.9 4.3,-2.1 5.8,-3.7 3.7,-4.2 7.1,-8.7 10.7,-13.3 0.9,0.7 2.3,1.5 3.5,2.6 7.6,7.5 17,11.3 27.2,13.8 19.1,4.8 36.9,2 53.4,-8.7 13.2,-8.6 25.2,-18.6 35,-31 9.5,-11.9 15.9,-25.4 17.3,-40.7 1,-11.3 0,-22.4 -3.7,-33.2 -1,-2.9 -2.5,-5.6 -3.6,-8.5 4.5,5.1 8.4,10.5 10,17.4 2.7,12 3.1,24 0,35.9 -2,7.7 -5.2,14.9 -9.3,21.8 -10.3,17.1 -25.2,29.6 -41.3,40.9 -9.9,6.9 -21,11 -32.9,12.2 -9.9,1 -19.7,-0.1 -29.3,-3.2 -7.9,-2.6 -15.7,-5.4 -21.6,-11.6 -1.7,-1.8 -3.3,-3.8 -5.2,-6 -1.8,2.8 -3.3,5.5 -5.2,8.1 -1.8,2.4 -3.6,4.9 -5.7,7 -11.1,11.3 -24.1,20.2 -37.8,28 -7,4 -15.3,5.8 -23,8.5 -13.8,4.8 -28.2,5.6 -42.5,5.4 -13.9,-0.2 -27.5,-3.1 -40.7,-7.6 -13.3,-4.6 -25.8,-10.9 -37.7,-18.3 -10.3,-6.4 -19.7,-14 -28.4,-22.4 -9.8,-9.4 -18.7,-19.6 -26.6,-30.6 -6.6,-9.3 -10.7,-19.7 -13.7,-30.6 -3,-10.9 -4.2,-21.9 -3.4,-33.1 0.6,-9 1.9,-17.9 3.1,-26.9 0.2,-1.5 1,-3 1.6,-4.5 0.1,-0.3 0.3,-0.3 0.5,-0.4 z"
         id="path2168" />
      <path
         d="m -1133.6938,-648.65236 c 0,1.5 0.3001,3.9 -0.1,6.1 -0.4001,2.1 -0.9001,4.6 -2.3,5.9 -3.7,3.2 -4.2,7.5 -4.8,11.8 -1.2,8.8 1.3,16.8 6.9,23.6 5.7999,7.2 13,12.6 21.9,15.4 2.7,0.8 5.6,1.1 8.8,1.7 1,-3.4 2.0999,-6.9 3.2,-10.4 2.8,-9.5 6,-19 8.3999,-28.6 3.8001,-15.3 3.4001,-30.8 0.9001,-46.3 -3.2,-19.9 -11.4001,-37.8 -23,-54.1 -6.2,-8.7 -12.6,-17.2 -19.7,-25.1 -9.9,-11 -22.6001,-18.5 -35.2001,-25.9 -11.5999,-6.8 -24,-11.6 -37,-15 -9.2,-2.4 -18.5999,-3.4 -28.0999,-3 -2.4001,0.1 -4.8001,0.8 -7.2001,1.2 2.2001,2.8 4.3,5.3 6.5,8 -6,-3.3 -11.7,-6.5 -17.5,-9.6 -21,-11.4 -43.6,-18.5 -66.7999,-24.1 -16,-3.9 -32.3001,-5.7 -48.8001,-5.5 -21.6,0.3 -43.1,2.8 -63.6,10 -11.5999,4.1 -23.2999,8.2 -33.9,14.6 -5.3999,3.3 -10.1999,7.2 -13.6999,12.6 -1.6001,2.5 -2.2001,5 -0.7001,7.9 -2.9,-0.9 -3.8,-4.2 -2.2999,-7.3 3.3999,-6.6 8.5999,-11.4 14.7999,-15.2 11.2001,-6.9 23.6,-11.4 35.9,-15.7 11,-3.8 22.5,-6.2 34.1,-7.5 15.7001,-1.8 31.4,-2.6 47.3,-1.3 18.2,1.4 35.7,5.6 53,10.7 18.7,5.6 36.8,12.8 53.9,22.6 4.1,-3.2 8.7,-4.1 13.6,-4.1 10.5,-0.1 20.6,1.6 30.7,4.5 14.2001,4.1 27.2001,10.5 39.7001,18.2 10.5999,6.5 21.0999,13.4 29.2999,22.8 7.1,8.1 13.3,17 19.9,25.6 6.4,8.3 11,17.7 15.1,27.2 4.2001,9.4 6.8,19.4 8.1,29.7 1.2,9.3 2.2,18.7 1.4,28.1 -0.7,7.9 -2.1,15.8 -4.2,23.4 -2.5,9.3 -5.9,18.3 -9,27.4 -3,9 -8.6,16.4 -15.1,23.2 -1.2,1.3 -2.5,2.5 -3.8,3.8 -0.1,0.1 -0.3,-0.1 -0.9,-0.2 5,-6.6 9.9,-13.1 13.1,-21 -13.8,1.1 -23.2,-6.4 -31.3999,-15.7 -8.8001,-9.8 -10.4001,-21.4 -6.8001,-33.6 -3.1999,-0.4 -6.1999,-0.9 -9.1,-1 -0.5999,0 -1.4,1 -1.7999,1.7 -1.7001,3.9 -3,8 -7.3,9.9 -4.9001,2.2 -9.9001,2.2 -14.7,0 -4.2001,-1.9 -7.5,-5.2 -9.9,-9.2 -0.8001,-1.4 -1.6,-3.1 -1.5,-4.7 0.1,-3.7 -2.8001,-5 -4.9,-7 -0.8,-0.7 -1.3,-1.7 -2,-2.5 1.0999,0.1 2.2,-0.1 3.2,0.3 3.8999,1.7 7.6,3.6 12.2,5.8 -2.2,0.2 -3.8,0.4 -5.4,0.5 1.2,7.7 8.5,15.5 18.1,14.1 4.5,-0.7 8,-4.7 8.5,-10.3 0.1,-1.4 -0.1,-2.9 0.2,-4.3 0.2,-0.9 1,-2 1.7,-2.3 0.4,-0.2 1.5,0.9 2.2,1.4 0.9,0.8 1.6,1.8 2.7,2.4 2.9,1.5 5.9,1 8.8,-0.3 3.3,-1.5 5.5,-7.8 3.7,-11 -0.4,-0.7 -1.4,-1.2 -2.2,-1.5 -1.4,-0.6 -2.8,-1.2 -2.2,-3 0.5,-1.6 1.9,-1.6 3.3,-1.2 4.9,1.3 9.5,0.2 13.8,-2.4 4.1,-2.5 5.3,-5.7 3.7,-10.3 -0.8,-2.2 -1,-4.5 -3.5,-5.8 -0.5,-0.3 0.2,-2.8 0.4,-4.9 -3.2,-0.2 -7.1,-0.5 -11.2,-0.8 -0.2,-1.5 0.1,-3 2.4,-3 3.4,0 6.7,-0.1 10.1,0.1 2.1,0.1 3.6,1.7 3.2,3.5 -0.7,3.5 1.3,6 2.4,9.6 2.2,-4.5 5.6,-7.5 9.5,-9.1 3.8,-1.6 8.1,-1.8 12.2,-2.6 0.2,0.4 0.3,0.9 0.5,1.3 -1.1,0.6 -2.2,1.5 -3.4,1.7 -4.6,0.8 -9,1.8 -12.5,5.1 -3.1,2.8 -6.1,5.6 -5.8,10.5 0.3,4 -2.6,6.3 -5.7,7.9 -2.7,1.5 -6.3,2.8 -10.3,4.6 z"
         id="path2170" />
      <path
         d="m -1871.8937,-369.65236 c -2.4,-3.5 -4.9,-6.8 -7,-10.5 -3.5,-6 -4.7,-12.6 -3.6,-19.5 0.1,-0.5 0.2999,-0.9 0.6,-1.3 -0.5,10 2.1999,18.9 9.1,26.4 -3.4001,-7.6 -8.9001,-14.6 -6.4001,-23.5 0.4001,3 0.9001,6.3 1.4001,9.6 0.1,0.7 0.3,1.5 0.7,2.1 2.7,4.8 5.5,9.5 8,14.4 3.2,6.2 8.8,10.1 13.8999,14.9 0.7001,-1.9 1.2001,-3.6 2,-5.2 4.7001,-9.7 12,-17.2 20.8001,-23.4 3.5,-2.4 7.1999,-3.8 11.1999,-5 4.7001,-1.4 9.2001,-3.4 13.7001,-5.1 7.2,-2.6 14.5,-4.2 22.2,-4.3 7.5999,-0.1 15.2,-0.7 22.8,-1.1 0.4,0 0.7999,0.1 1.7,0.3 -3.4001,2.3 -2.9001,5.6 -2.8,8.6 0.3,6.4 -2,12 -5.3001,17.2 -5.8,9.2 -12.5999,17.6 -22.0999,23.4 -1.3,0.8 -2.7001,1.2 -4.1,1.8 -8.2,3.4 -16.2,1.2 -24.3001,-0.5 -6.3999,-1.3 -13,-2.1 -19.5,-3 -0.5,1.1 -0.8,1.8 -1.5,3.2 -1.0999,-1.9 -2.3999,-3.3 -2.5999,-4.9 -0.4001,-2 1.4,-2.1 3,-2 10.7999,0.2 21.2,2.7 31.7,4.9 6.3,1.4 12.3,-0.1 17.8999,-3.3 11.3001,-6.7 18.4001,-17 23.8001,-28.5 0.8999,-2 1.1999,-4.4 1.3999,-6.6 0.3001,-2.7 0.3001,-5.5 0.4001,-8.5 -2.9001,0.2 -5.7,0.4 -8.4001,0.6 -6.0999,0.4 -12.2999,0.7 -18.3999,1.4 -7.5,0.8 -14.5,3.7 -21.4,6.4 -2.3,0.9 -4.5,2.1 -6.8,2.5 -8.9001,1.8 -15.3001,7.7 -21.5,13.6 -4.9001,4.8 -9,10.3 -11.6001,16.7 -0.5999,1.6 -0.3999,2.5 0.9001,3.7 3.0999,2.6 6.0999,5.4 8.9,8.3 4.1999,4.3 6.6999,9.2 7.1999,15.6 0.8001,9.7 -0.1999,18.8 -4.3999,27.6 -2.4001,5 -4.6001,10.2 -7.3001,15 -10.3,18.1 -15.5,37.9 -18.6,58.3 -1.7,11.4 -1.0999,22.5 2.8,33.5 0.3001,0.9 0.5,1.8 0.8001,2.7 0,0.1 0,0.3 -0.1001,0.9 -3.3999,-5.2 -5.5,-10.6 -6.3999,-16.5 -1.6001,-10.6 0.1999,-21 2.3,-31.4 0.1,-0.6 0.2,-1.1 0.3,-2 -1.8,2.8 -5.3,19.8 -5.1,26.1 0.2,8.9 0.8,17.8 1.2,26.7 -0.1,-0.2 -0.5,-0.6 -0.6,-1.1 -2.6,-8.8 -4.5,-17.8 -3.6,-26.9 0.7,-7.5 1.8999,-15.1 3.8,-22.4 6.4,-24.4 16.0999,-47.6 27.3,-70.2 2,-4.1 3.4,-8.5 4.7,-12.8 1,-3.5 0.4,-7.2 -1.6,-10.2 -2.9,-4.3 -5.9,-8.7 -9.3001,-12.6 -6.5999,-7.5 -13.5999,-14.8 -20.3999,-22.1 -0.6001,-1.1 -1.3,-1.5 -1.8,-2 l 0,0 z m 32.8,59 c -0.2,-0.1 -0.5,-0.3 -0.7,-0.4 -3.5,7.5 -7,15.1 -10.4001,22.6 0.3001,0.1 0.5,0.2 0.8001,0.4 3.3,-7.5 6.8,-15 10.3,-22.6 z m -0.7,-26.3 c 0.2,-0.2 0.5,-0.4 0.7,-0.6 -2.7,-3.4 -5.3,-6.7 -8,-10.1 -0.2,0.2 -0.5,0.4 -0.7,0.6 1.4,1.6 2.9,3.2 4.2,4.8 1.3,1.7 2.5,3.5 3.8,5.3 z"
         id="path2172" />
      <path
         d="m -1552.5937,-180.45236 c 1.3,6.5 -2.7,8.7 -7.7,6.7 -3.7,-1.5 -7.2,-2.9 -11.4001,-2.6 -2,0.1 -3.8999,-1.5 -6,-1.9 -5.8999,-1.1 -11.7999,-1.8 -17.5999,-3.2 -5.7,-1.3 -11.2,-3.5 -16.9001,-4.6 -7.8999,-1.5 -15.8999,-1.4 -23.6999,1.4 -8.1,2.9 -16.2,6.1 -24.9,6.1 -6.9,0 -13.9,-0.1 -20.7,-1.1 -18.7,-2.7 -37.4,-5.3 -56.4,-2.8 -10.9,1.4 -21.8,2.4 -32.8,3 -9.8,0.6 -19.6,0.7 -29.3,0.4 -5.6,-0.2 -11.2,-1.3 -16.7,-2.4 -9.4,-1.9 -18.7,-3.8 -28.5,-2.4 -5,0.7 -10.2,0.7 -14.9,-1.7 -2.6,-1.4 -4.9,-0.5 -6.6,1.4 -3.6,3.7 -8,5.7 -13,6.1 -5.2,0.4 -10.4,0 -15.6,-0.1 -6.2,-0.1 -12.4,-0.9 -18.4,-0.4 -10.6,0.9 -21.1,3 -31.7,3.9 -7.4,0.6 -14.9,0.4 -22.3,-1.7 -5.9,-1.7 -11.9,-4.1 -18.3,-2.5 -1.7,0.4 -3.4,0.9 -5.2,1.2 -1.4,0.2 -2.8,0 -4.1,-0.4 3.5,-0.8 6.9,-1.4 10.4,-2.3 3.9,-1 7.6,-0.1 11.2,0.9 8.2,2.2 16.5,3.7 25,2.8 7.5,-0.7 14.8,-2.6 22.3,-3.3 10.8,-1.1 21.6,-2.3 32.6,-0.5 6.8,1.1 13.7,0.9 20.2,-2 2,-0.9 3.7,-2.7 5.4,-4.1 3.9,-3.3 5.7,-3.4 10.3,-1.4 2,0.9 4.4,1.3 6.6,1.3 4,0 8.1,-0.4 12.1,-0.7 7.4,-0.6 14.7,0.7 21.7,2.5 11.1,2.8 22.3,3 33.7,2.4 5.9,-0.3 11.8,0.2 17.6,-0.2 10.7,-0.9 21.3,-2.2 31.9999,-3.4 11.4001,-1.2 22.8001,-0.9 34.2001,0.4 10.6,1.2 21.2,2.8 31.9,3.9 10.6,1 20.5,-2 30.3,-5.7 3.2,-1.2 6.5999,-1.9 10,-2.3 11.4,-1.3 22.3,1.3 33.2,4.6 6.3999,1.9 13.3,2.2 19.8,4 4.9,1.4 10.2,0.9 14.8,3.5 3.1,1.6 4.6,0.9 7.4,-2.8 z"
         id="path2174" />
      <path
         d="m -1356.4937,-522.95236 c 1.2,-0.7 2.2,0.3 2.2999,1.9 0.1,1.6 -0.2,3.2 -0.5,4.7 -0.4,2 -1.4,4 -1.5999,6 -0.1001,1.3 0.5999,3.3 1.5999,3.9 2.4001,1.4 5.1,2.7 7.9001,3.1 10.6999,1.4 20.1999,-2.7 29.6999,-6.7 3.5,-1.5 4.3001,-4.9 5.2001,-8.2 1.7999,-6.6 0.6999,-12.8 -1.6,-19.1 -0.8,-2.1 -1,-4.5 -1,-6.7 0,-4.1 0.1,-8.2 0.5,-12.3 0.2,-1.7 1.2999,-3.2 1.7,-4.4 -1.8,-2.3 -3.5,-4.4 -4.9001,-6.6 -1,-1.4 -1.2999,-1.9 -3.2999,-0.7 -4.1,2.3 -8.7001,4.3 -13.2001,5.4 -5.8999,1.5 -10.6999,4 -14.3999,9.1 -2.6001,3.6 -3.3,7.6 -3.5,11.7 -0.2,3.1 -1.3,5.5 -3,7.8 -2.1001,2.9 -4.5,5.6 -6.6001,8.4 -0.6999,0.9 -1.1999,1.8 -0.2999,3.1 0.5,0.8 0.1,2.4 -0.2001,3.6 -1.1999,3.7 -2.3999,7.4 -3.6999,11 -0.9,2.6 0.5,3.4 2.5,4.2 4.5,1.8 5.9,4.6 4.6,8.7 -0.7,-0.1 -1.3,-0.3 -2,-0.4 0.5999,-2.9 -0.1,-4.4 -2.7,-5.4 -0.4,-0.2 -0.7001,-0.4 -1.1001,-0.6 -4.3999,-2.1 -5.2999,-4.7 -3.1999,-9.2 1.1999,-2.5 2.5,-4.9 3.1999,-7.5 0.4,-1.5 -0.1999,-3.3 -0.3999,-5 -0.3,0 -0.6001,0 -0.9,0 0.2999,-0.3 1,-0.6 1,-0.9 0.2999,-3.7 2.9,-6.4 5.1,-9 3.5999,-4.4 4.9,-9.3 5.7,-14.7 0.3,-2 1,-4.1 2.1,-5.8 2.7999,-4.4 6.1,-8.3 11.2999,-10.1 1.8001,-0.6 3.8001,-0.7 5.6001,-1.3 4,-1.3 8,-2.7 11.8999,-4.1 0.4001,-0.2 0.7001,-0.6 0.9001,-0.8 -1.3,-1.4 -2.5,-2.8 -3.5,-3.8 -2.1,0.8 -4.4001,2.1 -6.9001,2.6 -7.1999,1.5 -13.5999,4.6 -19.2999,9 -3.7001,2.9 -5.4,7.2 -6.7001,11.6 -1.5,5 -3.6999,9.5 -8,12.8 -2.8999,2.3 -6.2999,1.9 -9.3999,1 -3.4,-1 -6.9,-2 -9.5,-4.9 -2.8,-3.2 -2.1001,-6.9 -1.1001,-10.2 1.3001,-4.3 3.3001,-8.4 5.2001,-12.5 1.2,-2.6 0.9,-3.2 -1.8,-3.8 -1.2,-0.3 -2.3,-0.8 -3.4,-1.5 -0.4,-0.3 -0.8,-1.4 -0.6,-1.6 0.4,-0.5 1.2,-0.9 1.8,-0.8 1.4,0.2 2.7,0.9 4.1,1.1 4,0.4 7.9,0.9 11.9,0.9 2.4,0 3.6,-1.8 3.7,-4.2 0,-0.5 0,-1 0,-1.5 0,-1.4 0.3,-2.9 1.9,-2.6 1,0.2 1.8,1.5 2.6,2.5 0.4,0.5 0.5,1.5 0.9,1.9 3.3,2.8 8.1,2.9 11.4,0.1 2.2,-1.8 4.1,-4 6.1,-6.1 1.6,-1.6 3.2,-2.8 5.7,-2.6 4,0.2 8.1,0.3 12.2,0.4 1.2,0 2.5,-0.3 3.7,-0.3 0.7,0 1.8,0.2 1.9,0.7 0.3,0.6 0,1.6 -0.3,2.2 -1,1.8 -2.1,3.5 -3.3,5.5 2.5,1.2 4.6,2.2 6.7,3.2 0.1,-0.1 0.2,-0.3 0.3,-0.4 1.2,-0.8 2.3,-1.5 3.5,-2.2 0.1,1.3 0.1,2.6 0.2,3.9 -0.2,0.2 -0.5,0.5 -0.7,0.7 1.8,0.5 3.7,0.9 5.5,1.4 1.8,0.6 3.6,1.4 5.5,2.1 -0.2,0.5 -0.5,1.1 -0.6,1.2 -2.4,0 -4.4,0 -6.4,0 -1.1,7.5 -4.2,14.7 -2.5,22.3 0.7,3 1.7,6 2.4,9 1.3,5.6 0.8,11.1 -0.6,16.7 -1.6,6.1 -5.9,9.1 -11.5,10.8 -4.9,1.5 -9.7,3.5 -14.7,4.5 -6.7,1.3 -13.4,1.4 -19.5,-2.4 -3.3,-2.1 -4.7,-5 -3.6,-8.5 0.8,-2.6 1.8,-5.2 2.5,-7.8 0.2,-1.2 -0.3,-2.1 -0.5,-3.5 z m -19.9,-44 c -0.4,1.2 -0.7001,2.1 -1.1,3 -1.6001,3.4 -3.7001,6.7 -4.7001,10.3 -2.2999,7.9 -2.9,10.2 5.6,13 5.1001,1.7 8.2001,1.5 10.5,-1.8 1.9,-2.8 3.3001,-6 4.5,-9.2 1.9,-5.1 3.9,-10.2 8.3001,-13.6 7.8999,-6.1 17.2999,-9.1 26.8999,-11.2 1.8,-0.4 2.3,-0.9 2.7,-2.7 -4.7,0 -9.2,-0.1 -13.5999,0.1 -0.8001,0 -1.7001,0.7 -2.3001,1.3 -2,1.9 -3.6999,4.2 -5.8999,6 -1.8,1.5 -4.1001,3.4 -6.2001,3.5 -3.5,0.1 -7,-1.1 -10.7,-1.8 -3.1,5.1 -8.5,3.8 -14,3.1 z"
         id="path2176" />
      <path
         d="m -1558.1938,-757.85236 c -5.5,-1.9 -10.8999,-2.8 -16.3999,-2.1 -7.4,1 -14.3,3.7 -21.2,6.6 -10.5,4.5 -18.6,11.9 -24.3,21.5 -4.4,7.3 -7.9,15.1 -11.5,22.8 -4.4,9.6 -7.4,19.8 -9.1001,30.2 -2.2999,14 -2.1999,27.9 3.7001,41.1 8.7,19.7 21.5,35.4 42.9,42.1 3.8,1.2 8.1,0.8 12.2,0.7 2.8,-0.1 4.8,0.9 5.8,3.5 1.7,4.4 -0.7,7.8 -3.1001,10.8 -5.7999,7.3 -9.0999,15.4 -8,24.9 0.3001,2.5 1.3001,5.1 2.4001,7.4 4.3,8.8 11.3,14.6 20.5999,17.4 2.2001,0.7 4.2001,1.6 6.4001,2.4 0.8999,0.3 1.8,0.6 2.8,0.9 0.1,1.2 -0.6001,1.7 -2.2001,1.5 -8.5999,-1 -16.5999,-3.5 -22.8999,-9.6 -5,-4.9 -9.4,-10.8 -10.6001,-17.8 -1.2999,-7.5 -0.5,-15.2 3.8001,-22 2.3,-3.6 4.9,-7.1 7,-10.8 0.6,-1.1 0.6,-2.8 0.3,-4 -0.1001,-0.5 -2,-0.8 -3,-0.6 -8.2,1 -15.5,-1.6 -22.6001,-5.2 -8.1999,-4.2 -15.6999,-9.5 -21.3999,-16.8 -10.6001,-13.5 -18.6001,-28.2 -19.3,-45.9 -0.5,-11.7 1.4,-23.2 4.8,-34.4 3.8,-12.9 9.7,-24.8 16.2,-36.5 4.5,-8.1 10,-15.3 17.6999,-20.5 6.4001,-4.4 13.6001,-7.3 21.1001,-9.6 6.1,-1.8 12.3,-3.1 18.7,-1.9 3.3,0.6 7,0.3 9.1999,3.9 z"
         id="path2178" />
      <path
         d="m -1506.7937,-554.95236 c -2.6,-0.6 -4.8,-1 -7,-1.5 -0.7,-0.1 -1.4001,-0.3 -2,-0.2 -5.4001,1.7 -10.1,4.5 -12.8,9.6 -2.6001,5 -0.3,11.9 5,15.8 5.8999,4.2 12.3999,4.6 19.3,3.1 4,-0.9 8.0999,-1.2 12.5999,-1.7 -0.1,-0.4 -0.1,-1.2 -0.5999,-1.6 -1,-0.9 -1.5,-2 -0.3,-2.6 0.8,-0.4 2.5,-0.1 3.1,0.6 1.9,2.3 3.6,4.8 5.2,7.3 2.4,3.6 5.5,5.5 10,5.9 7.9,0.7 13.8,-2.2 17.3,-9.1 0.8999,-1.7 0.5,-4 0.7999,-6 0.1,-1.1 0,-2.5 0.7001,-3.2 0.5,-0.5 2.2999,-0.5 2.8999,0 0.7001,0.6 0.9,2 1.2001,3.1 0.2999,1.1 0.1,2.7 0.7999,3.1 0.9,0.5 2.3001,0.1 3.5,-0.1 1.2001,-0.3 2.3001,-0.8 3.6001,-1.3 -0.2001,-0.5 -0.5,-0.9 -0.4,-1.2 0.1,-1 0.4,-1.9 0.6999,-2.8 1,0.3 2,0.5 2.9001,1 1.5,1 2.7,2.5 4.3,3.3 3.3999,1.9 5.7999,0.5 6.2,-3.4 0.1,-0.6 0,-1.2 0.1,-1.8 0.3001,-1.8 1.7001,-2.3 3.1001,-1.2 3.3999,2.7 7.3999,2.2 11.3,1.8 0.8,-0.1 2,-1.1 2.2,-1.9 0.6,-2.6 1.2,-5.3 0.8999,-7.9 -0.3999,-2.9 -3.5,-3.6 -5.8999,-4.3 -1.2,-0.3 -2.5,-0.7 -1.8,-2 0.5,-1 1.9,-2.3 2.9,-2.2 3.9,0.2 8.2,4.2 9,7.8 1.2,5.3 -0.8,11.4 -4.6,13.5 -1.1001,0.6 -2.5,0.8 -3.8,0.9 -1.4,0.2 -2.8,0 -4.8,0 0.3,1.8 0.4,3.4 1,4.8 2.8,6.7 8.3,10.7 14.3,14.2 4.2,2.4 8.5,4.6 12.4,7.3 2.1,1.5 3.6,3.8 5.4,5.8 -0.9,1 -1.4,1.5 -1.9,2.2 -3.3,-4.6 -8.1,-6.9 -12.7001,-9.5 -3.6999,-2.1 -7.5,-4.2 -11.0999,-6.6 -6.5,-4.5 -10.7,-10.4 -10.8,-19.6 -1.1001,1.1 -2,1.6 -2.4,2.4 -2.4,5.1 -5.2001,5.4 -9.8,3 -3.3,-1.7 -5.9,-2.6 -9.1,0.1 -0.9,0.8 -2.8,0.8 -4.2,0.6 -1.7,-0.2 -2.5,0.5 -3.1001,1.9 -2.2999,4.9 -6,8.6 -11.0999,10.1 -3.2,1 -6.8,0.8 -10.2,1 -5,0.3 -8.7001,-2 -11.7001,-5.8 -1.5,-2 -2.8999,-4 -4.5,-6.2 -3.8999,1.1 -8,2.1 -12,3.3 -8.5,2.5 -16.7999,1.9 -23.5999,-4 -7.3001,-6.2 -10.8001,-16.6 -1.2,-24.5 3.1,-2.5 6.7999,-4.3 10.3999,-6 2.7,-0.9 8.2,1.5 10.3001,4.7 z"
         id="path2180" />
      <path
         d="m -1261.8937,-777.25236 c 2.4,-4.6 7.1999,-3.7 11,-4.7 4.4,-1.1 7.7999,1.4 10,4.8 2.6999,-1.8 5.1,-4.1 7.9,-4.9 8.2999,-2.5 16.5,-2 24.1,2.8 8.6999,5.5 13.9,13.6 15.1,23.7 0.9,7.4 0.5999,15 -2.4001,22.3 3.4001,-0.2 6.5,-0.6 9.7001,-0.6 4.2999,0.1 8,1.8 11,5 0.9,0.9 1.6,2.4 1.5,3.6 -0.2001,2 0.9,2.7 2.2,3.4 2.9,1.6 5.8,3.2 9,4.9 4.6,-4.2 10.8,-3.6 16.7,-3 5.6,0.6 10.3,3.7 13.6,8.4 3.5,5 4,10.6 1.7,16.2 -2.3,5.7 -6.2,10.4 -10.5,14.7 -1.1,1.1 -3.5,1 -5.5,1.1 5.2,-1.4 6.6,-5.7 8.3,-9.8 0.3,-0.8 1,-1.4 1.5,-2.1 3.5,-4.7 5.3,-9.9 2.9,-15.6 -2.4,-5.8 -7.2,-8.9 -13.3,-9.6 -4,-0.5 -8.1,-0.6 -11.8,1.6 -1.7,1 -2.7,2.5 -2.5,4.6 0,0.7 0,1.6 -0.3,1.9 -1,0.9 -2.2,1.5 -3.3,2.2 -0.4,-1.1 -1,-2.1 -1.1,-3.2 -0.1,-0.7 0.5,-1.6 0.8,-2.3 1.1,-2.2 0.1,-3.5 -1.7,-4.6 -1.8,-1 -3.8,-1.8 -5.6,-2.9 -1.7,-1.1 -3.1,-0.8 -4.6,0.3 -1.5,1 -3.2,1.8 -4.9,2.4 -0.5,0.2 -1.3,-0.6 -2,-1 0.4,-0.6 0.7,-1.5 1.2,-1.9 1.4,-1 3,-1.9 4.5,-2.7 2.8,-1.5 3.3,-4.2 0.6,-5.9 -2.5,-1.6 -5.4,-2.8 -8.3,-3.5 -2.1,-0.6 -4.5,-0.2 -6.8,-0.1 -3.9,0.2 -7.1,1.9 -9.7,5 0,-2.3 0.1,-4.2 2.7,-5 0.8,-0.2 1.4,-2 1.7,-3.2 2.1,-7.8 2.9,-15.7 1.4,-23.6 -2.3,-11.7 -9.4,-19.5 -20.8,-22.5 -4.5,-1.2 -9.7,-0.4 -14.5,0.3 -3.5,0.5 -6.4,2.7 -7.7,6.4 -0.3,0.8 -1.2,1.4 -1.7,2 -0.8,-1.5 -1.4,-2.9 -2.3,-4.1 -0.7,-0.9 -1.6,-1.9 -2.7,-2.2 -3.8,-1 -7.5,0.1 -10.9,1.5 -1.6,0.7 -1.5,2.3 -1,4 0.2,0.9 -0.3,1.9 -0.5,2.9 -0.9,-0.6 -1.9,-1.1 -2.6,-1.8 -2,-2.1 -3.8,-4.5 -5.9,-6.5 -1.5,-1.3 -5.4,-0.6 -7.3,1 -1.2,1 -2.3,2.2 -3.4,3.4 -2.9,3.3 -5.8,6.5 -8.5,9.9 -1.1,1.4 -2.4,3.1 -1.7,5.3 0.3,1.1 0.3,2.3 0.5,3.5 0.7,4.4 0,5 -4.1,3.9 -1.6,-0.4 -3.2,-0.9 -4.8,-1.4 -0.7,-0.2 -2,-0.6 -2,-0.9 0,-1 0.3,-2.1 0.7,-3 0.3,-0.6 1.1,-1 1.6,-1.3 -3.6,-5.9 -9.1,-8.4 -16.6,-8.3 0.8,-2.3 1.3,-4 2,-5.6 0.5,-1.2 0.8,-2.1 -0.7,-2.9 -3.4,-1.7 -6.7,-3.8 -10.1,-5.5 -1.9,-1 -3.1,-2.2 -3.5,-4.4 0.2,0 0.6,-0.1 0.7,0.1 1.6,2.9 4.7,3.2 7.3,4.6 2.5,1.3 5.1,2.6 7.3,4.3 0.8,0.6 1,2.4 0.8,3.6 -0.1,1.3 -0.9,2.5 -1.6,4.1 1.8,0.3 3.3,0.5 4.8,0.7 1.9,0.2 3.7,0.5 5.1,2.2 1.7,2.1 3.9,3.7 5.8,5.7 0.7,0.7 1.2,1.9 1.2,2.8 0,0.4 -1.4,0.9 -2.5,1.5 1.9,0.7 3.6,1.3 5.6,2 -0.2,-2.5 0,-4.7 -0.6,-6.7 -0.8,-3.1 1.4,-4.7 2.8,-6.6 2,-2.7 4.6,-5.1 6.9,-7.6 1.4,-1.6 2.7,-3.3 4.1,-4.8 2.9,-3 6.7,-3.7 10.4,-2.7 1.9,0.8 3.5,2.8 5.6,4.4 z"
         id="path2182" />
      <path
         d="m -1550.0937,-633.85236 c -0.2,-3.4 0.3999,-6.7 3.3999,-9.1 0.5,-0.4 1.5,-1 1.9001,-0.8 0.5999,0.3 1,1.2 1.3,1.9 0.3999,0.9 0.5,1.9 0.8999,3.1 -0.8999,0 -1.8,0.1 -2.8,0.1 -3.5999,7.8 1.7,18.5 10.3,21.1 7,2.1 14.2,2.4 21.3001,1.7 5.5,-0.6 8.8999,-4 10.0999,-9.5 0.1001,-0.5 0.1001,-1 0.3001,-1.5 0.4,-0.7 0.8,-1.7 1.4,-1.8 0.7,-0.1 1.7,0.4 2.3999,0.9 2.2,1.4 4.1001,3.5 6.4,4.1 4.4001,1.2 9.1,1.7 13.7001,2 1.6,0.1 3.6,-1.2 4.8999,-2.5 1.9,-1.9 3,-2.4 5.4,-1.3 1.3,0.7 2.8,1.1 4.1,1.8 0.9,0.5 2.2001,1.2 2.2001,1.9 0.1,1 -0.5,2.5 -1.3001,3 -3.3999,2.2 -4.5999,5.5 -5.0999,9.2 -0.3,1.7 0.3,2.8 2.2,3.4 2.6,0.7 5.1,0.8 7.5,-0.7 0.8,-0.5 1.8999,-0.3 2.8999,-0.4 0,1.1 0.4001,2.2 0.1001,3.2 -1.4,3.7 -0.6001,5.9 3.2,7 3.4,1 6.9,1.4 10.3,-0.6 1.1,-0.6 2.5,-0.7 4.1,-1 -3.8,7.4 -9.7001,7.1 -15.8,5.2 -3.8,-1.1 -6.4,-3.6 -6.5,-7.9 -2.5,-0.4 -5.1,-0.5 -7.6,-1.2 -3.5,-1 -5,-3.8 -4.4,-7.4 0.9,-5.1 1.5,-6.4 4.7,-10.5 -1.3,-1.6 -2.7,-1.5 -4,0 -3.2,3.5 -7.3,3.5 -11.5,2.7 -4.4,-0.9 -8.8,-2 -13.2,-3.1 -0.9,-0.2 -1.8,-0.9 -2.8,-1.5 -0.4,0.9 -0.8,1.7 -1.2,2.6 -3.1,5.8 -8.3,8.2 -14.6,8.3 -6.5,0 -13,0.3 -19.3,-1.8 -5.8,-2 -10.7,-4.9 -13,-11 -0.9,-2.5 -1.7,-5.2 -2.6,-7.8 -1.5,0.7 -3.4,1.8 -5.4,2.6 -4.6,1.7 -9.1,-0.3 -13.7,-0.9 -4.4,-0.5 -7.9,-2.6 -10.9,-5.8 -2.6,-2.8 -2.8,-5.2 -1.1,-8.7 1.1,-2.2 1.9,-4.6 3,-6.8 0.3,-0.7 1.2,-1.1 1.9,-1.7 0.5,0.8 1.5,1.6 1.4,2.4 -0.2,1.5 -0.8,3 -1.4,4.5 -0.6,1.5 -1.6,2.8 -1.8,4.3 -0.2,1.1 0.3,2.8 1.1,3.3 2.6,1.8 5.5,3.2 8.3,4.6 1.4,0.7 3.1,0.6 4.6,1.1 4.8,1.6 9.6,2 14.7,-0.7 z"
         id="path2184" />
      <path
         d="m -1826.3937,-461.45236 c -9.5,4.5 -17.4,10.9 -24.6,18 -3.9,3.9 -7.6,8.2 -10.7001,12.8 -5.2999,7.9 -10.1999,16.1 -15.0999,24.3 -0.7,1.1 -0.8,2.7 -1.2,4.4 8.9,1.4 17.2999,1.8 25.7,-0.3 13.5,-3.4 25.5,-9.4 34.2,-20.7 4.9,-6.3 8,-13.5 10.4,-21 2.4,-7.8 4.7,-15.7 6.3,-23.7 0.8,-3.9 0,-8.2 -0.1,-12.4 0,-1.7 -1.3,-1.5 -2.4,-1.5 -8.3,0.1 -16,2.6 -23.4,5.8 -16.3,7.1 -30.3,17.4 -41.1,31.7 -5.5,7.3 -9.1,15.6 -11.2,24.4 -0.7,3.1 -1.1,6.3 -1.6,9.4 -0.2,1 -0.4,2.1 -0.6,3.1 -0.3,0 -0.5,0 -0.8,0 0,-3.3 -0.4,-6.8 0.1,-10 1.6,-9.6 5.1,-18.6 10.5,-26.6 4.8,-7.1 10.7,-13.2 17.4,-18.6 8.4,-6.8 17.6,-12.2 27.5,-16.4 8.7,-3.7 17.9,-5.6 27.7,-4.5 0.2,1.7 0.3,3.4 0.5,5.2 0.9,7.7 -0.5,15.2 -2.7,22.5 -2.3,7.6 -5,15.1 -8,22.4 -4.5,10.9 -12.1,19.4 -22.3,25.4 -8,4.7 -16.6,8.1 -25.8,9.2 -6.2,0.7 -12.5,1.1 -18.6,-0.6 -1.9,-0.5 -3.6,-2 -5.4,-3.1 0.1,-0.3 0.3,-0.5 0.4,-0.8 0.7,0.2 1.4,0.3 2.3,0.5 -0.4,-4.3 1.5,-8 3.5,-11.3 6.4,-10.4 12.7,-20.8 21,-29.8 6.4,-7 14.1,-12.4 22.4,-16.8 1.7,-0.9 3.8,-0.7 5.7,-1 z"
         id="path2186" />
      <path
         d="m -1381.7937,-604.75236 c -3.8,2.6 -8.6,4 -14.1,3.5 -6,-0.5 -9.3001,-3.6 -10.8001,-9.4 -3.8999,1.6 -7.2999,4.5 -11.6999,2 -4.6,-2.6 -3.6,-6.6 -3.2001,-10.7 -2.1999,-0.2 -4.6,0.3 -6,-0.7 -1.1999,-0.9 -1.1,-3.4 -1.5,-5 -2.2999,-1.9 -4.7999,-3.6 -6.7999,-5.9 -2.9,-3.2 -2.8001,-7 -0.9,-10.6 2,-3.7 4.2,-7.4 6.7,-10.8 1.3999,-1.9 3.6,-1.2 4,0.4 -1.8,2.1 -3.5,3.6 -4.7,5.5 -1.4001,2.2 -2.6,4.6 -3.5,7 -1.6,4.4 1.4,9 6.3,9.8 0.1,-0.4 0.2,-0.9 0.3999,-1.3 0.7001,-1.5 2.1001,-2.1 3.3001,-1.3 0.6999,0.5 1,2.2 0.7999,3.2 -0.4,1.8 -1.2999,3.5 -2.1,5.7 2.3,0 4,0 5.7,0 3,0 3.7,1.1 2.6001,3.9 -0.5,1.1 -0.7001,2.4 -0.8001,3.6 -0.1999,3.4 2.1001,5.2 5.2001,3.8 2.1999,-1 4.1,-2.6 6.1999,-3.9 0.7001,-0.4 1.8001,-1.1 2.3001,-0.8 0.6999,0.4 1.1,1.5 1.4,2.3 0.2,0.9 0,1.9 0.2,2.8 1,4.7 2.5,6 7.4,6.5 3.6999,0.4 7.2999,0.2 10.2999,-2.3 1.1001,-1 2.6001,-2 2,-4.1 -0.1999,-0.7 0.8001,-1.7 1.2001,-2.6 0.7999,0.5 2,0.9 2.5,1.6 0.7999,1.1 1.2999,2.5 1.5,3.9 0.6,3.3 3.1,3.9 5.6,4 5.5,0.3 11.3,1 16.4,-1.8 3.2999,-1.8 6.2999,-3.8 7.4,-8.1 0.7999,-2.9 -0.1001,-4.6 -1.4,-6.6 -1,-1.6 -2.1,-3.2 -3.1,-4.8 -0.3,-0.5 -0.2001,-1.2 -0.2001,-1.7 0.8,-0.1 1.9001,-0.5 2.3,-0.2 3,3 6.5,5.8 6.9,10.2 0.3,2.8 -0.2,5.9 -2.4,8.2 -0.8,0.8 -1.7,1.4 -2.3999,2.3 -4.1001,4.8 -9.6001,6.3 -15.6001,6.2 -3.3999,0 -7,0 -10.3,-0.6 -2.4,-0.3 -4.4,-1.9 -7.0999,-3.2 z"
         id="path2188" />
      <path
         d="m -1226.7937,-611.25236 c -1.5,2.2 -3,4.3 -4.4001,6.5 -0.8999,1.3 -1.5999,2.8 -2.5999,4 -2.5,3 -5.5,3.9 -9.2,2.6 -2.6001,-1 -4.3,-0.7 -6.2001,1.7 -1.4,1.9 -3.9,2.9 -6.0999,4.5 0,3.3 0.1,7.1 0,11 -0.2001,6.1 -4.3001,10.5 -10.3001,10.8 -2.7999,0.1 -5.6999,-0.3 -8.5,-0.6 -0.6999,-0.1 -1.5,-0.4 -2,-0.9 -0.5,-0.5 -0.6999,-1.3 -1,-2 0.7001,-0.1 1.3001,-0.4 2,-0.3 2.7001,0.2 5.5,0.9 8.2001,0.8 5,-0.2 7.6,-3 8,-8 0.1999,-2.8 0.1,-5.6 -0.2001,-8.4 -0.3999,-3.6 -2.6999,-4.6 -7.5,-2.8 1.1001,-2.2 1.9,-3.9 2.9,-5.9 -0.9,-0.3 -2.2999,-0.7 -3.5999,-1.1 1.5,-1.3 2.6999,-1.2 4.2999,0.4 3.4,3.5 8.9,3.3 11.9,-0.3 3.3,-4 3.6,-4 8.6,-2.5 3.8,1.2 4.7001,0.8 7,-2.5 1.6,-2.4 3,-4.9 4.7001,-7.2 1.0999,-1.4 2.6999,-2.5 4.1999,-3.5 1.3001,-0.9 2.2001,-0.4 3.1001,0.9 7.1,9.9 19.7,12.7 28.7,1.3 4.9,-6.3 4.5,-13 1.9,-19.9 -0.7001,-2 -1.9,-3.8 -2.6,-5.8 -0.3,-1 0,-2.3 0.3999,-3.4 10.5,10.3 11,23.8 2.6001,32.8 -8.3,8.6 -19.9,12.2 -34.3,-2.2 z"
         id="path2190" />
      <path
         d="m -1659.8937,-494.75236 c 0.6999,-5.5 3.3,-9.4 7.6999,-12.1 2.1001,-1.3 4.4001,-2.1 6.5,-3.4 5.1001,-3.1 10.3001,-2.2 15.3001,-0.3 15.5,5.9 24.3,17.9 28.9,33.3 2,6.5 -0.1001,12.9 -1.6001,19.1 -0.3,1.3 -2.1,2.3 -3.3,3.4 -5.3,4.9 -11.8,7 -18.8,7.7 -7.7999,0.8 -15.2,-0.8 -21.9,-4.7 -5.8999,-3.4 -10.8999,-7.9 -13.8,-14.3 -4.7,-10.2 -6.5999,-21 -6,-32.2 0,-0.3 0.1001,-0.7 0.7,-1.1 0.3,2.1 0.7001,4.2 0.9001,6.3 0.8999,8.2 2.5999,16.1 5.6999,23.8 3.4,8.5 9.7,13.9 18,17.1 9.4,3.7 18.7,3 27.8001,-1.1 6.3,-2.9 10.3,-10.3 9.5999,-17.4 -1.4,-13.2 -8.2,-23.2 -18.2,-31.4 -4,-3.2 -8.3999,-5.5 -13.5999,-6.2 -2.8,-0.3 -5.3,-0.2 -7.9001,0.9 -4,1.8 -8.5999,2.8 -11.5999,6.4 -1.6001,1.9 -2.8,3.9 -4.4001,6.2 z"
         id="path2192" />
      <path
         d="m -1264.9937,-535.35236 c -1.5,-0.6 -3,-1.2 -4.5,-1.9 2.2,2.5 5,3.7 8.2,3.9 4.2,0.2 5.5999,3 3.0999,6.6 -1.2999,1.8 -3,3.4 -4.5,5.1 -0.3999,0.5 -1,1 -1.0999,1.6 -0.3,1.2 -0.4001,2.6 -0.6,3.8 1.2999,0.1 2.6999,0.5 3.7999,0.1 2,-0.7 3.2001,-0.5 4.5,1.3 0.9,1.3 2.4,2.3 3.9,3.1 2.1,1.2 4.2001,0.7 5.6,-1.3 1.5,-2.1 3.3001,-2.3 5.5,-1.7 2.6001,0.7 3.5,0.2 3.8001,-2.5 0.1999,-2.2 1.1999,-2.5 3,-2.2 -0.2001,0.7 -0.6001,1.5 -0.5,2.2 0.1999,4.7 -2.1001,6.8 -6.6001,5.6 -1.5,-0.4 -2.2,-0.1 -3.2,1 -2.7,3.1 -8.2,3.6 -12.1,-0.3 -1.4,-1.4 -2.5,-2.2 -4.7,-1.7 -2.1,0.5 -4.5,0.3 -5.8,-2 -1.3,-2.2 -0.3,-7.1 1.5,-9 1.6,-1.6 3.1,-3.3 4.6,-4.9 0.3,-0.3 0.4,-0.9 0.4,-1 -2.7,-0.9 -5.5,-1.5 -7.8,-2.7 -2,-1.1 -3.7999,-2.8 -5.1,-4.6 -0.9,-1.3 -1.7,-1.6 -3.1,-1.3 -3.2,0.6 -4.8,3 -6.2,5.5 -0.9,1.6 -1.5,3.4 -2.3,5.1 -1,2.2 -2.1,2.7 -4.3,2.1 2.1,-4 4.1,-8 6.4,-11.9 1.6,-2.6 4.2,-3.7 7.2,-3.9 0.7,0 1.9,-0.5 2,-0.9 1.4,-7.3 6.2,-10.8 12.9,-11.9 -0.2999,-2.4 -0.7,-4.6 -1,-6.8 -0.2999,-2.8 1.6,-4.7 3.3,-6.3 3.1,-2.8 6.8,-4.9 11.1,-4.6 4.3,0.3 8.7,1.1 11.2,5.5 0.2,0.4 0.3,1 0.4,1.5 -0.5,-0.1 -1.2,0.1 -1.6,-0.2 -2.7,-2.4 -6.2,-2.7 -9.5,-3 -4.2,-0.4 -7.9,1.8 -10.4,5.2 -1.9,2.5 -1.2,5.3 0.3,7.8 0.8,1.4 1.9,2.8 2.8,4.2 0.3,0.4 0,1.2 0,1.8 -0.7,-0.1 -1.7,0 -2.1,-0.5 -2.5,-2.7 -5.2,-1.5 -7.9,-0.4 -3.6,1.5 -5.4,4.4 -6.3,8.1 -0.3,1.2 -0.1,1.9 1.3,2.5 1.8,0.8 3.3,2.2 4.9,3.4 -0.2,0.2 -0.4,0.4 -0.5,0.5 z"
         id="path2194" />
      <path
         d="m -1959.0937,-379.35236 c 2.7,3.4 5.2,7.2 8.3999,10.3 5.6001,5.5 11.4001,10.9 17.5,15.7 5.1001,4 11.5,5.7 17.9001,6.4 6.8,0.8 13.5999,1.3 20.4,1.6 9.4,0.4 17.9,-7.7 21.6,-14 0.2,-0.4 0.2,-1 0.3,-1.5 0.4,-2.2 0.4,-2.2 2.7999,-1.7 -0.3999,1.9 -0.3999,4 -1.3999,5.6 -5.8,9 -13.7,14.5 -24.8,14.3 -9.5,-0.1 -18.9,-0.9 -28,-3.8 -4.1,-1.3 -8.1,-3.4 -11.6,-5.9 -10,-7.2 -18.6,-15.9 -25.4,-26.2 -1.7,-2.6 -1.7,-2.2 1.1,-3.5 3.4,-1.6 6.7,-3.6 10,-5.5 5.0999,-3 9.8,-6.5 15.7,-8.1 7.3999,-2 14.8,-2.6 22.3,-1.8 4.3,0.5 8.7,0.1 12.8,2.5 4.6,2.7 7.2,6.7 9.2,11.3 0.1,0.3 0,0.6 -0.1,1.6 -1.6,-2 -3,-3.6 -4.2,-5.2 -3.4,-4.5 -7.8,-7.1 -13.5,-7.4 -3.2,-0.1 -6.4,-0.3 -9.6001,-0.4 -10,-0.4 -19.1999,2.1 -27.5999,7.6 -4.5,2.7 -9,5.2 -13.8,8.1 z"
         id="path2196" />
      <path
         d="m -1216.5937,-667.05236 c -1.7,5.7 -5.4,8.6 -10.9,9.5 -5.3,0.8 -9.8,-1.4 -14.3,-3.4 -3.4,4.2 -6.9,5.2 -11.5,2.7 -3.1,-1.6 -5.8,-3.9 -8.7,-6 -0.4,-0.3 -0.8,-0.6 -1.2001,-0.8 -1.8999,3.2 -7,4.9 -10.7999,3.7 -2.8,-0.8 -5,-4.4 -5,-8.1 -0.1,-3.5 0.6,-6.7 2.7999,-9.5 0.6001,-0.7 1.5,-1.4 2.3001,-1.6 0.6,-0.2 1.5,0.3 2.1999,0.5 -0.5,0.5 -1,1 -1.5,1.5 -0.3999,0.4 -1,0.8 -1.0999,1.2 -0.7,3 -1.6,6 -1.8,9 -0.1001,2.2 2.1,4 4.1,4 4,0.1 6.1,-0.7 6.4,-3.6 0.3,-2 1.6,-2.1 3.3999,-0.5 2.3001,2.1 4.4001,4.4 7,6.1 2,1.3 4.5,2 6.8001,2.4 3,0.4 4.2999,-2 3.1999,-4.8 -0.5999,-1.5 -0.5,-3.5 -0.1,-5.1 0.4,-1.5 1.9,-1.4 3.0999,-0.6 0.6001,0.4 1,1.1 1.6001,1.9 0.5,-0.7 0.6,-1.2 1,-1.5 0.5,-0.4 1.1,-0.9 1.5,-0.8 0.3999,0.1 0.8,0.9 0.8999,1.5 0.1001,0.7 0.2001,1.6 -0.1,2.3 -1.1,2.6 0.5,3.9 2.2,5 6.2,3.6 14.7,-0.8 15.3,-7.9 0.1,-1.6 -0.2,-3.1 -0.3,-4.7 -0.1001,-1.4 -0.1001,-3 1.7,-3.1 1.9,-0.1 2,1.6 2.1,2.9 0.2,3.3 2.2,5.4 4.3,7.4 2.1,2 4.2999,1.9 6.1,-0.4 2,-2.6 3.7,-5.3 3,-8.8 -1.6,-0.9 -4.3,-0.8 -3.9,-3.7 0.1,-1 0.5,-2.5 1.1,-2.7 1,-0.3 2.4,0 3.5,0.4 2.5,1 2.7,3.4 2.9,5.6 0.7,5.9 -2.2,10.2 -6.4,13.8 -1.2,1 -5.9,0.7 -7.2,-0.4 -1.2,-1 -2.3,-2.1 -3.7,-3.4 z"
         id="path2198" />
      <path
         d="m -1471.3937,-754.25236 c -0.6,-2.7 -1.1,-5.4 -1.8001,-8.7 -3.1999,0 -6.8999,0.1 -10.5,0 -6.7999,-0.1 -13.5,0 -20,2.3 -10.5999,3.7 -16.3999,11.6 -19,22.2 -1.0999,4.7 -0.5999,9.1 2.7001,12.5 1.6,1.7 4.1,2.7 6.4,3.7 1.8999,0.9 4,1.3 6.3,2.1 -12.3,2.5 -20.3,-3.2 -18.9001,-16.9 1,-9.7 6.5,-17.1 14.1001,-22.8 4.3999,-3.3 9.8,-4.6 15.2,-4.9 7.6,-0.3 15.1,0.1 22.6999,0.1 0.8001,0 2,-0.3 2.2001,-0.8 3.7,-8.1 10.2999,-12.8 18.2999,-15.6 16.6001,-5.8 31.9001,-2.8 45.6001,8.1 1.7,1.4 3,3.4 4.3999,5.1 -0.1,0.2 -0.2999,0.3 -0.3999,0.5 -0.6001,-0.5 -1.3,-1.1 -1.9,-1.6 -9.6,-7.9 -20.5,-12.5 -33.2001,-12.4 -9.5,0.1 -18.0999,3.2 -25.1999,9.2 -4.6,3.9 -7.7001,9.2 -6.1,15.8 0.1,0.6 0,1.3 0,1.9 -0.3,0.1 -0.6001,0.2 -0.9,0.2 z"
         id="path2200" />
      <path
         d="m -1744.5937,-447.65236 c -1.7,-3.4 -1,-6.3 0.6,-9.4 3.7,-7.3 9.2999,-12 17.2,-13.5 5.8,-1.1 11.5999,0.1 17.0999,2.3 6.8001,2.7 12.5,6.9 16.7001,12.7 3.5,4.8 5.7,10.3 5.7,16.4 0,1.9 -0.1,3.7 0,5.6 0.4,8.2 -6.1,16.4 -13.6,19.1 -11.7,4.2 -22.4,1.7 -32.4,-4.8 -7.3,-4.7 -11.6,-11.8 -15.3,-19.4 -0.1001,-0.2 -0.1001,-0.5 0.3,-1 0.5,0.8 1.0999,1.6 1.5999,2.5 0.6001,0.9 1.1001,1.9 1.7001,2.8 5.9,10.6 14.7999,17.3 26.6,19.7 7.8,1.6 15.5,0.7 21.9,-4.5 3.8999,-3.1 6.2999,-7.2 6.2999,-12.4 -0.1,-5.8 0.3001,-11.6 -2.5,-17.1 -4.5,-8.8 -11.5999,-14.3 -20.7999,-17.4 -5.5,-1.8 -10.9,-2 -16.4,-0.2 -4.2,1.4 -7.6,3.8 -10.3001,7.4 -2.5,3.2 -5.7999,6.2 -4.3999,11.2 z"
         id="path2202" />
      <path
         d="m -1429.5937,-727.45236 c -4.1001,-2.9 -8.1001,-5.6 -12.4,-7.6 -0.2001,0.2 -0.4,0.4 -0.7001,0.6 0.4001,1.3 0.7001,2.7 1.2001,3.9 0.9,2.1 2,4 2.7999,6.1 0.2001,0.5 -0.1,1.5 -0.5,1.9 -0.1999,0.3 -1.3999,0.1 -1.6999,-0.2 -0.9,-1 -1.6,-2.1 -2.2001,-3.3 -1,-2 -1,-4.6 -3.3999,-5.9 -3.7001,-2.1 -7.3,-4 -11.7001,-3.2 -1.4,0.3 -3,0.6 -4.2,1.2 -3.2,1.6 -3,5 -3,7.8 0,6.9 2,13.1 7.1001,18.1 0.1,0.1 0,0.3 0,0.9 -2.5,-0.2 -4.2001,-1.6 -5.4001,-3.5 -3.2,-4.7 -4.9,-9.9 -4.5999,-15.5 0.1999,-4.2 1,-8.4 5.5,-10.5 0.6999,-0.3 1.3999,-0.5 2.0999,-0.6 4.8,-0.4 9.4001,-0.4 13.6,2.5 0.4,0.3 0.9,0.4 1.4,0.5 2,-3.3 3.8,-3.8 7,-1.8 2.1,1.3 4.2001,2.6 6.2001,3.9 0.1,0.1 0.2999,0.1 0.8999,0.4 2.5,-4.4 5,-8.9 7.5,-13.3 4,-7 13.6001,-11.4 22.6001,-5.2 4,2.8 6.2,6.5 6.8999,10.9 0.5,3.3 -0.2999,6.8 -0.6,10.2 -0.2999,0 -0.5999,0 -0.9,0.1 -0.2999,-1.5 -0.5,-3 -0.7999,-4.5 -0.5,-2.6 -0.8001,-5.3 -1.6,-7.9 -2.5,-8.1 -12.3,-11.4 -19.3,-6.5 -2.1,1.5 -4,3.6 -5.5,5.8 -2.2,3.3 -4.1,6.8 -5.9001,10.3 -0.2999,1 -0.1,2.5 -0.3999,4.4 z"
         id="path2204" />
      <path
         d="m -1871.0937,-266.75236 c 1,-3.6 -1.8,-9.9 -4.8,-12.3 -3.6,-2.8 -7.8001,-1.7 -11.8001,-2.3 -6.8999,-1 -13.6999,-2.3 -20.3999,-4.5 -5.7,-1.9 -11.4,-4 -17.3,-5.3 -3.3001,-0.8 -6.9,-0.3 -10.3001,-0.3 -0.6999,0 -1.2999,0.4 -2,0.3 -0.5999,0 -1.2999,-0.3 -1.6999,-0.7 -0.2,-0.2 0.1999,-1.1 0.5,-1.5 0.5,-0.7 1.1,-1.5 1.9,-2 5.6,-3.6 11.2,-7.3 17,-10.6 2.7999,-1.6 6,-2.8 9.1,-3.6 1.8,-0.4 4.1999,-0.1 5.6999,0.8 2.5,1.5 4.5,3.7 6.6001,5.9 0.8,0.8 1,2.1 1.2,3.3 -2,-1.8 -4,-3.4 -5.9,-5.3 -3,-3 -6.4001,-3.3 -10,-1.5 -7.2,3.8 -14.4001,7.7 -21.6,11.6 0.1,0.3 0.1999,0.6 0.3,0.9 0.8,0 1.7,0.1 2.5,0 4.8,-0.5 9.3,1 13.8,2.3 8,2.4 16.2,4.4 24.3,6.3 4.4,1 8.9,1.4 14.4,2.3 -0.9,-2.1 -1.3,-3.8 -2.3,-5 -2.8001,-3.7 -6.7,-5.8 -11.2,-7 -4.4,-1.2 -8.9,-2.4 -13.3,-3.8 -1.5,-0.5 -2.8001,-1.6 -4,-3 7.3,2.1 14.6,4.2 21.9,6.5 3.9,1.3 6.7999,4.1 8.9,7.5 0.8999,1.4 1.8,3.2 1.6,4.7 -0.3,1.8 0.7999,1.9 1.7,2.5 1.0999,0.7 2.5999,1.2 3.4,2.2 2.5,3.3 4,7 3.1999,11.3 -0.1,0.4 -0.5999,0.8 -0.8999,1.2 -0.1001,-0.1 -0.3,-0.5 -0.5,-0.9 z"
         id="path2206" />
      <path
         d="m -1504.0937,-559.35236 c -3.3,0.1 -6.7,0.9 -9.7,-1.3 -2.5,-1.9 -5,-4.1 -7.3,-6.3 -1.8,-1.7 -1.5,-7.2 0.2,-9.5 2.9,-3.8 6.4,-6.2 11.6,-4.5 0.1,-1.5 0.2,-2.8 0.4,-4.2 0.5,-4.2 3.4,-6.5 7,-8 0.6999,-0.3 1.4,-0.6 2,-1 2.6,-2.1 5.6,-1.9 8.6,-1.4 1.2,0.2 2.5,1 3.0999,-0.9 2,-6.1 4,-5.2 9.3001,-4.7 3.1,0.3 6.2999,1.1 9.2999,1.8 0.7001,0.2 1.3001,0.8 1.9,1.3 -0.5999,0.5 -1.2999,1.6 -1.9,1.5 -3,-0.2 -6,-0.7 -9,-1.2 -1,-0.1 -2,-0.4 -3,-0.4 -3,-0.1 -4.3,2 -3,4.8 1.2,2.5 0.4,4.7 -1.8,4.5 -1.0999,-0.1 -2,-1.5 -3,-2.3 0.1001,-0.2 0.3,-0.3 0.4001,-0.5 -1.2001,-0.3 -2.5,-0.8 -3.7001,-0.7 -1.9,0.1 -3.7999,0.3 -5.5,1 -1.9,0.7 -3.5999,2 -5.2999,3.1 -3.1001,2.2 -3.5,6.4 -0.8,9.2 1,1 1.8,1.9 0.8,3.2 -1.1001,1.3 -2,0.2 -3.1001,-0.3 -2.8,-1.2 -5.5,-3.2 -8.8,-1.2 -3.7,2.2 -5.3999,6.8 -1.2,9.9 2.8001,2 5.8001,3.6 8.7,5.3 1.2,0.7 2.5,1.3 3.7,1.9 0.2,0.4 0.1,0.7 0.1,0.9 z"
         id="path2208" />
      <path
         d="m -1429.7937,-588.45236 c -4.4001,-1.6 -5.8,-3.7 -5.9001,-8.4 0,-1.9 -0.1999,-3.9 -0.1999,-5.8 0,-0.8 0.2999,-1.8 0.7999,-2.5 0.4,-0.5 1.5,-0.8 2,-0.5 0.5,0.2 0.8001,1.2 0.9,1.9 0.1,2.5 -0.1,5 0.1,7.5 0.2001,3.2 1.4,4.2 4.7001,4.3 0.9,0 2.2999,0.3 2.6,0.9 0.3,0.6 -0.1,1.9 -0.6,2.7 -1.6,2.3 -3.6,4.5 -5,6.9 -0.8001,1.4 -1.4,3.3 -1.2001,4.9 0.2001,1.9 2.3001,1.8 3.9,1.8 3.3,0.1 6.6,0.2 9.9001,0.4 2,0.1 3.1999,0.6 3.8999,3 0.5,1.8 2.6001,3.6 4.5,4.4 5.9,2.6 11.6001,0.9 16.9,-2.1 0.7001,-0.4 0.7001,-2.1 1.1,-3.1 0.3,-0.8 0.9,-1.4 1.3,-2.1 0.8,0.5 1.9,0.9 2.2,1.6 1.1001,2.1 -0.5,5.9 -2.7,6.9 -4.1,1.8 -8.1,3.6 -12.8,3.6 -6,0 -10.8,-1.9 -14.2,-7 -0.4,-0.7 -1.5,-1.3 -2.3,-1.4 -3.2,-0.2 -6.3999,-0.3 -9.6,-0.3 -3.5,0 -6.2,-3 -6.2,-6.5 -0.3,-5 3.1,-7.7 5.9,-11.1 z"
         id="path2210" />
      <path
         d="m -1581.4937,-653.25236 c -0.3,0.2 -1.2001,0.5 -1.3,1 -0.5,2.2 -2.4001,2 -3.7,1.8 -4.9,-0.8 -9.4,-2.5 -12.6,-6.7 -3.3,-4.3 -3.4,-9.2 -2.1001,-14.1 1,-3.9 5.1001,-6.6 9.2001,-6.2 1,0.1 2,0 2.6,0 0.9,-2.1 1.9,-3.9 2.5,-5.8 0.8,-2.3 3.1,-3 4.9,-3.2 4.8999,-0.6 9.8999,-0.6 14.8999,-0.8 1.2,0 2.5,0.4 3.7,0.7 3.8,-5.7 7.1001,-6.9 12,-4.4 3.7,1.9 5.4001,4 4.9001,5.4 -2.9001,-1.3 -5.9001,-2.8 -8.9001,-4 -1.8999,-0.7 -3.8,-0.1 -4.5999,2 -0.3,0.7 0.1,1.8 0.1,2.7 0,0.9 -0.2,1.7 -0.3,2.6 -0.7,-0.2 -1.5,-0.4 -2.2,-0.6 -1.7,-0.5 -3.3,-1.5 -5,-1.6 -4.5,-0.1 -9,0.1 -13.3999,0.5 -2.4001,0.2 -3.7,2.3 -4.8001,4.3 -0.3,0.5 0.4,1.5 0.6001,2.2 0.2,0.7 0.8999,1.6 0.7,2.1 -0.3001,0.5 -1.3001,0.9 -2.1001,0.9 -1.8999,0.1 -3.7,0 -5.5999,0 -3,0 -5.3,1.2 -6.2001,4.1 -1.9,5.7 -0.2999,11.7 5.6,14.2 3.6001,1.4 7.5,1.9 11.1001,2.9 z"
         id="path2212" />
      <path
         d="m -1202.2937,-522.85236 c 1,0.2 2.0999,0.8 3.0999,0.6 2.9001,-0.4 5.7001,-1 8.5,-1.9 0.6001,-0.2 1.4001,-2 1.2001,-2.6 -1.8,-4.8 -6.7001,-6.4 -11.2001,-5.9 -1.0999,0.1 -2,1.3 -3.0999,2 -0.5,-5.3 4.0999,-6.2 8.3,-5.5 4.6,0.8 7.7999,3.9 9.7999,8 1.5,3 -0.4,6.8 -3.5999,7.5 -2.9001,0.6 -6,1.1 -8.9001,0.9 -3,-0.2 -4.9,1.2 -6.7999,3 -0.8,0.8 -1.6001,1.5 -2.4,2.2 -3.5,2.7 -5.2001,2.5 -8.4,-0.4 -0.4001,-0.4 -1.1,-0.8 -1.6,-0.7 -4.1,0.9 -8,-0.1 -11.8001,-1.6 -2,-0.8 -4,-2.3 -3.3999,-5 0.2,-0.8 1.2,-1.4 1.8,-2.1 0.5,0.7 1.0999,1.4 1.5999,2.1 0.3001,0.5 0.4001,1.3 0.8001,1.5 3.1,1.5 6.4,2.7 9.9,1.5 1.7999,-0.6 3,-0.5 4.2,1 2.4,3.1 3.5,3.1 6.2,0.3 1.8999,-1.9 3.7,-3.9 5.6,-5.8 0,0.4 0.1,0.6 0.2,0.9 z"
         id="path2214" />
      <path
         d="m -1375.2937,-791.75236 c 0,0.1 -0.1,0.3 -0.2,0.4 -0.3,0.8 -0.6001,1.7 -0.9,2.5 -0.6,-0.7 -1.4,-1.4 -1.8001,-2.2 -2.1999,-5.1 -5.5999,-6.5 -10.2999,-3.6 -3.3,2.1 -6.4,4.7 -9.2001,7.5 -4.0999,4.1 -4.1999,8.4 -1.0999,13.3 0.2,0.3 0.4,0.6 0.8,1.2 -4.8,-2.2 -5.4,-10.6 -2.7001,-14 3.3,-4.2 7.3,-7.5 11.9001,-10.1 3.8999,-2.2 7.3999,-1.7 10.5999,1.5 1.5,1.5 7.2001,1.1 9.2001,-0.6 0.5,-0.4 1.1,-1.2 1.5,-1.1 3.5,0.5 5,-1.9 6.7999,-4.2 0.9001,-1.1 2.6,-1.8 4.1,-2.3 3.7001,-1.4 7,-3.7 11.2001,-4 2.1,-0.1 3.5,0.3 4.4,2 1.3999,2.5 3.2999,3.1 6.1,2.5 5.5,-1.1 10.2999,0.2 14,4.7 1.6,1.9 1.6999,5.6 -0.3001,7 -2,1.4 -4.3999,2.4 -6.6999,3.2 -0.5,0.2 -1.5,-0.9 -2.3001,-1.4 0.1001,-0.3 0.2001,-0.5 0.3001,-0.8 1.4,-0.4 2.9,-0.6 4.1999,-1.2 1.3001,-0.7 2.9001,-1.6 3.5,-2.9 0.8001,-1.8 -0.7999,-2.9 -2.0999,-4.1 -3.4001,-3 -7.1,-3 -11.1,-2.3 -2.5,0.5 -4.5,0.2 -6,-2.3 -1.9,-3 -4,-3.2 -7.3001,-1.6 -2.5999,1.3 -5.2999,2.3 -7.8999,3.6 -1.3,0.7 -2.4,1.9 -3.6001,2.9 -1.1999,0.9 -2.2999,2.1 -3.5999,2.7 -2.3,1.1 -4.8,1.9 -7.2,2.7 -1.4,0.6 -2.9,0.8 -4.3,1 z"
         id="path2216" />
      <path
         d="m -1387.2937,-565.95236 c 2.4,1.7 2.5999,3.3 0.7,5.3 -0.6001,0.7 -0.9,1.7 -1.2,2.6 -2,5.4 -4.9001,10.9 -2.9001,16.8 1,3.2 3.1001,6.1 4.9001,9 0.8,1.4 1.9,2.8 2.9,4.1 2.6,3.4 2.5,7.3 2,11.1 -0.5,4 -1.3001,7.9 -2.2001,11.8 -0.1999,0.9 -1.6999,1.4 -2.6,2.1 -0.4,-0.6 -1.2999,-1.6 -1.2,-1.9 3.2,-5.7 2.9,-11.8 2.3,-17.9 -0.2,-1.8 -1.7,-3.6 -2.8,-5.3 -1.5,-2.2 -3.2,-4.3 -4.8999,-6.5 -3.6001,-4.8 -3.5,-10.2 -2.3001,-15.7 1,-4.2 2.4,-8.2 4,-12.2 0.5,-1 2.1001,-2 3.3001,-3.3 z"
         id="path2218" />
      <path
         d="m -1475.4937,-472.75236 c -1,-1.4 -2,-2.8 -3,-4.1 -1.3,-1.8 -3.2001,-2.5 -5.3,-2 -2.5,0.6 -5,1 -7.3001,2 -1.1999,0.5 -2.1999,1.9 -2.6999,3.1 -1.3001,3.4 -3.3001,4 -6.1001,1.4 -3,-2.9 -6.5,-4 -10.5,-4.1 -4.5,-0.1 -6.5,3 -8.2,6.3 -1.6,3 -4.1,4 -6.1,1.8 2,-2.5 4.2001,-4.9 6,-7.5 3.3,-4.8 7.2001,-4.5 13.1,-3.6 1.4,0.2 2.8001,0.6 4.1001,1.2 1.2999,0.6 2.2999,1.6 3.6,2.5 1,-1.2 1.8,-2.5 2.9,-3.4 3.7,-3.1 8.2,-3.6 12.7999,-3.8 5.4001,-0.3 8.8,5 6.7001,10.2 z"
         id="path2220" />
      <path
         d="m -1354.6938,-485.55236 c 0.8001,5.9 -0.5,11.1 -2.8999,15.8 -3.3,6.3 -7.2,12.4 -11.4,18.2 -4.5,6.2 -7.7001,12.8 -9.6,20.1 -0.3,1 -0.8,1.9 -1.2,2.8 -1.9001,3.9 -0.1,7.3 1.4,10.8 0.6999,1.7 1.1,3.5 2,5.1 1.1,2.1 2.5,4 3.6999,5.9 2.8001,4.4 3.4001,8.9 1,13.6 -0.6999,1.5 -1.7999,2.7 -3.1999,0.5 2.7999,-2.5 3.5,-8.8 0.1,-12.7 -3.4001,-3.8 -4.3,-8.4 -6.3,-12.6 -1.3,-2.8 -2.7,-5.5 -1.8,-8.6 0.7,-2.6 1.8,-5 2.5,-7.6 2.5,-9.2 8,-16.5 13.6,-23.9 4.3,-5.7 8.8,-11.4 10.4,-18.6 0.7,-2.9 1.1,-5.7 1.7,-8.8 z"
         id="path2222" />
      <path
         d="m -1287.6938,-565.85236 c -0.8999,1.2 -1.3999,1.8 -2.0999,2.8 2.4,0.4 4.4,0.7 6.7,1 0,-3.9 0.8,-7.2 4,-9.7 0,0.9 0.1,1.9 0,2.8 -0.3,2.4 -0.5,4.8 -1.2,7.1 -0.6,2.1 -2.5,3 -4.6,2.5 -2.5,-0.5 -5,-1.3 -7.6,-1.9 -5.3,6.7 -5.6001,15 -5.9,23.4 -0.2001,4.8 1.2999,8.8 3.6,12.7 1,1.6 2.3,3.5 -0.3,5.3 -2.8,-4.5 -6,-8.9 -6.1001,-14.4 -0.1,-5.2 0.6001,-10.4 1.1001,-15.6 0.5,-4.8 2.3999,-9 5.2,-12.4 -1.8,-2.9 -3.4,-5.5 -4.9,-8 0.2,-0.3 0.2,-0.5 0.3,-0.5 3.6,-2.3 3.4,-2.3 4,2 0.2,1.3 1.7999,2.5 2.7999,3.7 1.7001,1.9 2.9001,0 5,-0.8 z"
         id="path2224" />
      <path
         d="m -1171.9937,-504.75236 c 2.2,-2.6 3.8999,-5.5 6.3999,-7.3 10.4,-7.6 18.6001,-17 25.8001,-27.6 4.2999,-6.4 7.2999,-13.3 9.8999,-20.4 1.2,0 2.4,0 3.8,0 -2.7,7.2 -5,14.5 -9.8,20.8 -2,2.7 -4.1,5.3 -6,8.2 -4.3999,6.6 -10.2,11.6 -16.6,16.2 -4.4,3.2 -8.7999,6.6 -13.5,10.1 z"
         id="path2226" />
      <path
         d="m -1441.5937,-508.15236 c -2.1001,-0.4 -3.5,-0.5 -4.8,-0.8 -5.1,-1.3 -9.6,0.4 -14.1,2.3 -1.5,0.6 -3.1,1.8 -2.4,4.1 0.2,0.5 -0.6,1.7 -1.1,2 -0.6,0.3 -1.6,-0.1 -2.2001,-0.4 -0.5,-0.2 -0.8999,-0.9 -1,-1.4 -0.6999,-3.1 -3,-3.7 -5.5999,-3.9 -1.6,-0.1 -3.2,-0.2 -4.8,-0.3 -1.7,-0.1 -3.2,0 -4.1001,2.1 -0.5999,1.3 -2.2999,2.1 -3.8999,3.5 -0.2,-0.8 -0.5,-1.4 -0.5,-2.1 -0.3,-2.3 3.3,-7 5.6,-6.9 4.7999,0.3 9.5,1.1 14.2,1.6 0.6,0.1 1.5,0 1.9,-0.4 5.4,-4.2 11.8,-4.8 18.2,-4.6 2.5,0 2.9,2.8 4.6,5.2 z"
         id="path2228" />
      <path
         d="m -1473.3937,-558.05236 c 2.9,1.3 4,3.5 4.1999,6.6 0.2001,3.5 2.5,4.5 5.6001,2.6 1.3999,-0.9 2.3999,-2.2 3.7,-3.1 1.9,-1.3 3.9,-2.3 6.2,-3 -3.2,3 -3.9,7.9 -8.5,9.9 -5.1,2.2 -9.3,0.6 -10.2,-5 -0.1,-0.8 -0.2,-1.7 -0.5,-2.5 -0.4,-1.3 -1.2,-1.9 -2.7,-1.2 -1.1001,0.6 -2.3,1.2 -3.5,1.4 -1,0.1 -2.7,0 -3.1001,-0.6 -0.5,-0.7 -0.1999,-2.6 0.4001,-3.1 2.7,-2.2 5.5999,-4.3 8.5999,-6 2,-1.1 4.5,-1.5 6.5,0.5 0.4001,0.4 0.5,0.9 0.8001,1.4 -0.5,0.2 -1,0.5 -1.5,0.5 -2,0.3 -4,0.5 -6,0.7 0,0.2 0,0.6 0,0.9 z"
         id="path2230" />
      <path
         d="m -1199.4937,-539.55236 c -1,2.3 -1.8,1.8 -2.2001,0.8 -1.5,0.6 -2.9,1.2 -4.2,1.7 -0.2,-0.2 -0.3999,-0.5 -0.5,-0.7 4,-0.7 3,-4.2 3.5,-6.5 1.6001,-7.6 -1.1,-13.2 -9.2,-16.7 -7.8,-3.4 -15.7,-0.3 -19.7,7.2 -0.2,0.4 -0.7,0.6 -1,0.9 -0.3,-0.4 -0.9,-1 -0.8,-1.3 0.3,-1.5 0.4,-3.5 1.4,-4.4 4.3,-3.9 8.7,-7.4 15.2,-7.2 6.9,0.2 16.8,7.5 17.2001,14.5 0.1,2.4 -0.2001,4.9 -0.6001,7.2 -0.3999,1.8 -1.5,3.5 0.9,4.5 z"
         id="path2232" />
      <path
         d="m -1374.4937,-733.45236 c 4.3999,-2.8 11.2999,-2.6 14.7999,5.1 1.8,3.9 -1,10.5 -5.5999,12.4 -1.6001,0.6 -2.8001,2.4 -4.1001,3.6 0,-2.4 0.4,-4.5 2.9,-6 2.6,-1.6 4.3,-3.9 4.7001,-7.1 0.2999,-3 -0.8001,-5.3 -3.6001,-6.9 -2.8,-1.6 -6.1,-1.5 -8.3,0.4 -0.5,0.4 -0.5,1.3 -0.9,1.9 -0.6,0.8 -1.2999,1.5 -1.8999,2.3 -0.3,-0.9 -1,-2 -0.7001,-2.7 1,-3.6 -1.2999,-6 -2.7,-8.8 -0.8999,-1.8 -2.3999,-1.7 -3.7,-0.3 -2.7,2.9 -5.4,5.8 -5.1,10.3 0.1,0.9 -0.2,1.8 -0.6,2.7 -1.4,-2.1 -2.6,-4.5 -1.4,-6.8 1.5,-3 3.3,-5.9 5.6,-8.3 3.2,-3.3 6.7,-2.3 8.5,1.9 0.8,2 1.3,4.1 2.1,6.3 z"
         id="path2234" />
      <path
         d="m -1534.5937,-690.15236 c -1.5,-0.2 -2.7,0 -3.5,-0.5 -5.6001,-3.5 -9.2,-8.2 -9.1001,-15.2 0.1001,-4.3 0.3001,-8.3 4.2001,-11 1.8999,-1.3 4,-2.8 6.2,-3.1 3,-0.5 6.1999,-0.1 9.3,0.3 2.7,0.3 3.2999,2.9 1.6,5.2 -0.2,0 -0.5,-0.1 -0.5,-0.1 -0.4,-2.8 -2.2,-3 -4.7,-3.1 -3.7,0 -7,0.4 -9.9,2.9 -3.7001,3.2 -3.5,7.5 -2.7001,11.5 1.1001,5.1 4.8001,8.8 9.1001,13.1 z"
         id="path2236" />
      <path
         d="m -1490.7937,-793.15236 c -2.6,-0.2 -5.2,-0.2 -7.8,-0.7 -7,-1.3 -13.8,0 -20.7,0.6 -4.8,0.4 -9.6,1.7 -14.2,3.2 -6.6,2.2 -10.4,7.6 -13.6,13.3 -4.1001,7.3 -3.6001,15 -1.7,22.8 -0.2,0.1 -0.5,0.1 -0.7,0.2 -0.7001,-2.4 -1.8,-4.8 -2.1,-7.3 -1.6001,-12.2 3.8,-21.5 13.1,-28.5 4.5,-3.4 10.2999,-4.6 16,-5.1 5.7999,-0.5 11.6,-0.9 17.4,-1.1 2.1,-0.1 4.3,0.7 6.5,1.1 2.6,0.4 5.1,0.9 7.7,1.3 0,0 0.1,0.1 0.1,0.2 z"
         id="path2238" />
      <path
         d="m -1800.7937,-378.15236 c -7,2.1 -14,4.1 -20.9001,6.4 -7.5999,2.5 -14.8999,5.6 -20,12.2 -1.3999,1.9 -2.6999,3.8 -4,5.7 -0.2999,-0.1 -0.5999,-0.2 -0.7999,-0.3 0,-0.6 -0.2001,-1.2 0,-1.7 3.4,-7.8 9.2,-13.2 17.1,-16.1 6.1999,-2.3 12.6999,-3.9 19,-5.9 4.1,-1.2 5.1,-1.3 9.6,-0.3 z"
         id="path2240" />
      <path
         d="m -1871.9937,-369.75236 c -0.1,0.5 -0.3,0.9 -0.4,1.4 -6.5,-4.2 -14,-4.7 -21.1,-5.4 -7.2001,-0.7 -14.6,-2.5 -21.7001,-0.6 1.6001,-2.5 2.4001,-3.1 5.5,-3.1 5.4001,-0.1 10.8001,-0.6 16.1001,0.1 6.5,0.8 13.2,1.9 18.8999,5.5 1.1001,0.6 1.9001,1.5 2.7001,2.1 0.1,0.1 0,0 0,0 z"
         id="path2242" />
      <path
         d="m -1460.2937,-578.05236 c -0.3,-1.2 -0.7,-2.5 -1,-3.7 -5.6,-1.7 -13.5,3.8 -16,7.4 -1,1.4 -0.8,2.6 0.9,3.5 2.1999,1.2 4.2999,2.8 6.4,4.2 -0.1001,0.3 -0.3,0.6 -0.4,0.9 -2.9,-1 -6,-1.7 -8.7001,-3.1 -2.2999,-1.2 -2.8999,-4.9 -1.1,-7.1 4.8,-5.8 10.6,-9.7 18.5,-9 3,0.2 3.5,1.2 2.9001,4.5 -0.2001,0.8 -0.4001,1.5 -0.7001,2.3 -0.2999,0 -0.5,0.1 -0.7999,0.1 z"
         id="path2244" />
      <path
         d="m -1388.4937,-466.95236 c 0.5,-1.6 0.7,-3.3 1.3999,-4.8 0.9,-2.1 2.1001,-4 3.1001,-6 0.8999,-1.7 1,-3.6 -0.8,-4.7 -2.9001,-1.8 -5.8,-3.6 -8.9001,-5.1 -2.0999,-1 -4.5999,-5.4 -3.8999,-7.7 0.5,-1.8 1.2,-3.6 2.5,-5.5 0.2,1.8 0.6,3.6 0.5,5.3 -0.3,3.7 0.5,5 4.1,6 3.9,1.1 6.7999,3.7 9,6.9 0.9,1.2 0.6,3.9 -0.1,5.5 -1.7,3.6 -4,6.8 -6.1001,10.2 -0.2999,0 -0.5999,0 -0.7999,-0.1 z"
         id="path2246" />
      <path
         d="m -1268.8937,-524.75236 c -4.2001,1.3 -8.2001,2.1 -11.7001,3.9 -2.3999,1.2 -4.1999,3.7 -6,5.8 -3,3.4 -5.7999,7 -9.2999,10.3 0.9,-2.1 1.5,-4.4 2.6999,-6.2 2.7001,-4 5.4001,-8.1 8.9001,-11.4 3,-2.8 6.9,-4.9 11.5,-4.3 1.3,0.3 2.5999,1.3 3.9,1.9 z"
         id="path2248" />
      <path
         d="m -1420.1938,-418.25236 c 0.3001,5.2 -0.5999,10.3 -2.3999,14.7 3.3,2.1 6.7,3.7 9.5,6.1 1.3999,1.1 1.8,3.4 2.5,5.2 0.1,0.4 -0.5,1.1 -0.8,1.7 -0.4,-0.4 -1.1,-0.7 -1.3,-1.2 -2,-4.1 -5.2,-6.4 -9.5,-7.5 -4.4,-1.1 -4.7,-2.7 -2.4,-6.6 1.1,-1.8 1.4,-4.2 2,-6.3 0.6,-2.1 1,-4.2 1.5,-6.3 0.3,0 0.6,0.1 0.9,0.2 z"
         id="path2250" />
      <path
         d="m -1403.4937,-438.45236 c 1.5,0.6 1.7,1.8 0.5,3.9 -1.7001,2.9 -3.4,5.8 -4.7001,8.9 -2.5999,6 -0.7999,11.8 4.4001,15.9 1.6999,1.4 3.5,2.8 4.7999,4.5 0.9,1.3 1,3.2 1.4,4.8 -0.2,0.2 -0.5,0.3 -0.7,0.5 -0.7,-0.7 -1.5,-1.3 -2.1,-2 -1.5,-1.8 -2.8,-3.9 -4.5,-5.5 -7.1,-6.4 -8.3,-12.8 -4.1,-20.9 1.2,-2.2 2.7,-4.3 3.9,-6.5 0.5,-1 0.6,-2.2 1.1,-3.6 z"
         id="path2252" />
      <path
         d="m -1163.2937,-552.05236 c 7.9,-7.3 15.3,-14 22.4,-20.9 2.1,-2 3.4,-4.8 5.1,-7.2 0.4,-0.6 1.4,-0.8 2.0999,-1.2 0,0.8 0.4001,1.7 0,2.2 -2.0999,3 -3.8999,6.4 -6.5,8.9 -5.3999,5.2 -11.0999,10.1 -16.8999,14.9 -1.6001,1.3 -3.7,2 -6.2,3.3 z"
         id="path2254" />
      <path
         d="m -1162.9937,-607.15236 c -1.3,0.6 -2.6001,1.7 -4,1.8 -7.4,0.6 -14.8,1 -22.2001,1.4 -0.7999,0 -1.5999,-0.7 -2.2999,-1 0.7,-0.5 1.2999,-1.3 2,-1.3 6.5,-0.5 13.1,-0.8 19.6,-1.1 2.1,-0.1 4.2999,0 6.4,0 0.2,0 0.2999,0.1 0.5,0.2 z"
         id="path2256" />
      <path
         d="m -1871.0937,-266.75236 c 0.2,0.4 0.3999,0.7 0.5,1.1 0.8,4.8 2.3999,9.5 0.8999,14.5 -1,0 -2,0 -2.3999,0 0.2,-1.3 0.6,-2.5 0.6,-3.6 0.1,-7.6 -2.9,-14.2 -6.4,-20.7 -0.6,-1.1 -0.7,-2.4 -1.1,-3.6 0.2,-0.1 0.5,-0.2 0.7,-0.3 2.5,4.2 4.8,8.4 7.2,12.6 z"
         id="path2258" />
      <path
         d="m -1162.3937,-584.05236 c 5,-1.9 10.4,-3.4 14.2999,-7.9 0.5,-0.5 1.2001,-0.7 1.9,-1.1 -0.1,0.8 0.1,1.7 -0.2999,2.2 -2.7001,3.3 -6.1001,5.7 -10.4,6.6 -0.3001,0.1 -0.8001,0 -1,0.2 -1.9,2.4 -3.4,0.8 -4.5,0 z"
         id="path2260" />
      <path
         d="m -1114.9937,-708.15236 c 5.1,3.4 12.5,14.6 11.5,17.8 -4,-6.2 -7.7001,-12 -11.5,-17.8 z"
         id="path2262" />
      <path
         d="m -1112.6938,-684.15236 c -3.5,-2 -6.5999,-3.8 -9.6999,-5.6 3.6999,-1.2 6.2999,0.3 9.6999,5.6 z"
         id="path2264" />
      <path
         class="st0"
         d="m -1839.0937,-310.65236 c -3.5,7.5 -6.9,15.1 -10.4,22.6 -0.3,-0.1 -0.5,-0.2 -0.8,-0.4 3.5,-7.5 7,-15.1 10.4,-22.6 0.3,0.2 0.5,0.3 0.8,0.4 z"
         id="path2266"
         style="fill:#ffffff" />
      <path
         class="st0"
         d="m -1839.7937,-336.95236 c -1.3,-1.8 -2.5,-3.6 -3.8,-5.3 -1.3,-1.7 -2.8,-3.2 -4.2,-4.8 0.2,-0.2 0.5,-0.4 0.7,-0.6 2.7,3.4 5.3,6.7 8,10.1 -0.2,0.2 -0.5,0.4 -0.7,0.6 z"
         id="path2268"
         style="fill:#ffffff" />
      <path
         class="st0"
         d="m -1376.3937,-566.95236 c 5.4,0.7 10.9,1.9 14.1,-3.1 3.7,0.7 7.2,1.9 10.7,1.8 2.1,-0.1 4.3999,-2 6.2,-3.5 2.1,-1.8 3.9,-4 5.9,-6 0.6,-0.6 1.5,-1.3 2.2999,-1.3 4.5,-0.1 8.9001,-0.1 13.6001,-0.1 -0.4,1.8 -0.9,2.3 -2.7,2.7 -9.6,2.1 -19,5.1 -26.9001,11.2 -4.3999,3.4 -6.5,8.5 -8.2999,13.6 -1.2001,3.2 -2.6,6.4 -4.5,9.2 -2.3,3.4 -5.4,3.5 -10.5,1.8 -8.5,-2.8 -8,-5.1 -5.6,-13 1.1,-3.6 3.1,-6.8 4.7,-10.3 0.3,-0.9 0.6,-1.8 1,-3 z"
         id="path2270"
         style="fill:#ffffff" />
    </g>
  </g>
</svg>
