<?xml version="1.0" encoding="UTF-8" standalone="no"?>
<!-- Created with Inkscape (http://www.inkscape.org/) -->

<svg
   xmlns:dc="http://purl.org/dc/elements/1.1/"
   xmlns:cc="http://creativecommons.org/ns#"
   xmlns:rdf="http://www.w3.org/1999/02/22-rdf-syntax-ns#"
   xmlns:svg="http://www.w3.org/2000/svg"
   xmlns="http://www.w3.org/2000/svg"
   xmlns:sodipodi="http://sodipodi.sourceforge.net/DTD/sodipodi-0.dtd"
   xmlns:inkscape="http://www.inkscape.org/namespaces/inkscape"
   width="265.62277mm"
   height="177.63434mm"
   viewBox="0 0 941.18305 629.41301"
   id="svg3419"
   version="1.1"
   inkscape:version="0.91 r13725"
   sodipodi:docname="cost.svg">
  <defs
     id="defs3421" />
  <sodipodi:namedview
     id="base"
     pagecolor="#ffffff"
     bordercolor="#666666"
     borderopacity="1.0"
     inkscape:pageopacity="0.0"
     inkscape:pageshadow="2"
     inkscape:zoom="0.35"
     inkscape:cx="2197.0201"
     inkscape:cy="-496.72207"
     inkscape:document-units="px"
     inkscape:current-layer="layer1"
     showgrid="false"
     fit-margin-top="0"
     fit-margin-left="0"
     fit-margin-right="0"
     fit-margin-bottom="0"
     inkscape:window-width="1920"
     inkscape:window-height="1056"
     inkscape:window-x="0"
     inkscape:window-y="24"
     inkscape:window-maximized="1" />
  <metadata
     id="metadata3424">
    <rdf:RDF>
      <cc:Work
         rdf:about="">
        <dc:format>image/svg+xml</dc:format>
        <dc:type
           rdf:resource="http://purl.org/dc/dcmitype/StillImage" />
        <dc:title></dc:title>
      </cc:Work>
    </rdf:RDF>
  </metadata>
  <g
     inkscape:label="Layer 1"
     inkscape:groupmode="layer"
     id="layer1"
     transform="translate(1822.0201,593.77286)">
    <g
       transform="translate(-1863.1201,-651.77475)"
       id="Layer_1" />
    <g
       transform="translate(-1863.1201,-651.77475)"
       id="Layer_2" />
    <path
       d="m -1440.6201,-142.17476 c -2.2,-6.4 -4.5,-12.3 -6.2,-18.3 -1.6,-5.5 -2.5,-11.3 -3.8,-16.9 -0.9,-4.2 -2,-8.3 -2.7,-12.5 -0.3,-1.6 0.3,-3.3 0.5,-5 0.3,0 0.7,0 1,0.1 0.2,0.9 0.4,1.7 0.6,2.6 2.7,10.8 5.3,21.7 8.1,32.5 0.9,3.4 2.3,6.7 3.5,10 0.1,0.4 0.4,0.9 0.3,1.2 -1.6,5.4 2.5,8.2 5.2,11.5 1.6,2 3.6,3.9 4.8,6.2 4.3,7.7 10.2,13.6 17.6,18.2 2,1.3 4.1,2.6 5.8,4.3 5.7,5.5 12.8,8.2 20,10.400004 18.8,5.6 37.5,11.3 56.4,16.3 12.2,3.2 24.7,5.8 37.3,7.7 9.2,1.4 18.6,1.4 27.9,1.5 22,0.1 43.9,-2.3 65.5,-6.3 13.2,-2.4 26.1,-6.5 39.2,-9.8 0.8,-0.2 1.6,-0.6 2.4,-1 22.2,-10.700004 43.9,-22.700004 65.1,-35.200004 8.5,-5 15.8,-11.9 23.7,-18 2,-1.6 3.9,-3.2 5.9,-4.8 0.4,-0.3 0.7,-0.8 0.8,-1.2 4.1,-14.8 9.2,-29.3 15.4,-43.4 0.1,-0.2 0.1,-0.5 0.3,-1.3 -1,0.3 -1.7,0.5 -2.3,0.9 -12.9,8.4 -25.6,17 -38.6,25.3 -9.7,6.3 -19.4,12.6 -30,17.4 -12.4,5.7 -24.5,12 -37.2,17.2 -8.6,3.5 -17.8,5.5 -26.8,7.9 -11.1,2.9 -22.6,4.2 -34,5.3 -13.7,1.4 -27.5,1.5 -41.2,0.8 -10.6,-0.5 -21.2,-2 -31.6,-3.8 -20.4,-3.4 -40.4,-8.5 -59.8,-15.7 -16.8,-6.2 -33.1,-13.5 -48.5,-22.6 -17.9,-10.6 -34.8,-22.6 -49.9,-36.9 -1.1,-1 -2.3,-2 -3.4,-3.1 1.3,-0.5 2.4,-1.1 3.5,-1.1 0.9,-0.1 1.9,0.4 2.6,0.9 5.4,4.6 10.6,9.4 16.2,13.8 21,16.4 43.8,29.7 68.5,40.1 25.1,10.6 51.2,17.7 78.1,22 11.6,1.9 23.5,2.4 35.3,3.1 14.9,0.9 29.8,-0.3 44.5,-2.5 18.6,-2.7 37,-7 54.2,-15.3 14.1,-6.8 28.5,-12.9 42.1,-20.5 17.4,-9.7 34.2,-20.5 51.2,-30.9 0.7,-0.4 1.3,-0.8 2,-1.1 1.8,-0.8 3.2,-1.7 2.6,-4 -0.1,-0.3 0.3,-0.8 0.5,-1.4 0.3,1.1 0.6,2 0.9,3 1.6,-1.1 2.7,-1.9 1.3,-3.8 -6.4,-8.4 -13.2,-16.4 -21.3,-23.5 -0.3,0.4 -0.5,0.7 -0.8,1.1 -0.1,-0.1 -0.3,-0.2 -0.3,-0.4 -0.7,-1.3 -1,-2.9 -2,-3.9 -9.2,-8.8 -18.5,-17.4 -27.8,-26.1 -1.7,-1.7 -3.2,-3.6 -4.8,-5.4 -0.4,-0.5 -0.6,-1.3 -0.6,-2.1 3.6,3.2 7.2,6.3 10.8,9.5 5,4.5 10.1,8.9 15.1,13.4 2.2,2 4.7,3.7 6.4,6.1 5.1,7.1 13.2,11.1 18.4,18.1 3,4 6.3,7.8 9.6,11.7 0.4,-0.3 0.9,-0.8 1.6,-1.4 0.1,1.1 0.5,2.1 0.2,2.9 -0.7,2 -1.7,3.8 -2.4,5.8 -4.4,12.2 -8.8,24.5 -13.1,36.6 2.1,2 3.9,3.7 6,5.6 0.2,-4.2 0.4,-8.1 0.6,-12.1 0.2,0 0.4,0 0.6,0 0.1,3.5 0.5,7 0.3,10.5 -0.2,3.1 0.9,5.5 3.1,7.4 2.4,-3.6 4.5,-7.5 7.2,-10.8 3.4,-4.1 7.3,-7.8 11.1,-11.5 12,-11.7 25.9,-21 39.9,-30 4.8,-3.1 10.6,-4.8 16,-7 3.2,-1.3 6.4,-2.4 9.7,-3.3 3.5,-1 7,-1.8 10.5,-2.5 8,-1.6 16.1,-3 24.1,-4.5 7.7,-1.5 15.4,-2.8 23,-4.5 5.1,-1.1 9.4,-3.8 12.4,-8.2 0.8,-1.2 2,-2.1 2.8,-3.3 3.4,-4.7 4.6,-9.7 3.9,-17.2 -2.9,3.3 -5.5,6.3 -8.2,9.2 -5.6,6 -12.6,9.2 -20.8,9.7 -11.5,0.6 -23,0.6 -34.4,1.9 -17.6,1.9 -33.9,7.7 -47.9,19.1 -9.5,7.8 -19.4,15.3 -28.9,23.2 -3.6,3 -6.5,6.7 -9.7,10.1 -0.6,0.6 -1.1,1.2 -2.1,1.4 1,-1.2 1.9,-2.5 2.9,-3.7 7.7,-9.1 16.8,-16.6 26.4,-23.6 7.1,-5.1 13.8,-10.7 21,-15.6 6.6,-4.4 14,-7 21.6,-9.1 14.9,-4 30.2,-4.3 45.5,-5 4.2,-0.2 8.9,-0.1 12.4,-2 9,-4.7 17.9,-10 22.3,-20 0.4,-0.8 -0.1,-2.3 -0.7,-3.2 -3.2,-5.5 -6.5,-11 -9.7,-16.5 -2.4,-4.3 -4.7,-8.6 -7.2,-13.2 -8.1,3 -16,5.9 -23.9,8.9 0,0 0,-0.1 0,-0.1 0.7,-0.3 1.4,-0.6 2,-0.9 -0.1,-0.2 -0.1,-0.4 -0.2,-0.6 -2,0.5 -4,0.9 -6,1.4 -8.9,2.3 -17.9,1.5 -26.9,0.5 -7.3,-0.8 -14.9,-0.5 -22.2,0 -8.7,0.6 -17.2,2.6 -25.4,5.8 -20.5,8.1 -38.1,20.2 -52.3,37 -1.2,1.5 -2.6,2.8 -4,4.1 5.8,-9.9 13.3,-18.4 22.6,-25.1 6.6,-4.7 13.6,-8.8 20.6,-12.9 9.2,-5.4 19.2,-8.7 29.6,-10.6 10,-1.9 20.3,-2.1 30.5,-1.6 4.9,0.3 9.8,1.1 14.7,1.3 2,0.1 4,-0.8 5.9,-1.3 2.4,-0.6 4.7,-1.4 7.2,-1.5 -0.8,0.5 -1.6,0.9 -2.3,1.4 10.6,-2.3 21.2,-4.3 30.4,-10.3 2.6,4.2 5.4,8.3 7.8,12.6 3.9,7.4 7.5,15 13,21.4 1.3,1.5 1.4,2.8 -0.4,4 -0.4,0.3 -0.8,0.8 -0.8,1.2 0.1,5.3 1.1,10.7 -1.9,15.8 0.3,0.1 0.6,0.1 0.9,0.2 0.5,-1.1 1,-2.2 1.5,-3.3 2.4,2.3 2.4,4.7 0.6,7.6 -1.6,2.4 -2.7,5.2 -4.3,7.6 -1,1.4 -2.5,2.4 -3.8,3.6 -3.6,3.1 -7.6,5.2 -12.3,6.3 -5.1,1.2 -10.2,2.6 -15.4,3.5 -6.4,1.2 -12.8,1.8 -19.2,3 -6.9,1.3 -13.8,2.8 -20.6,4.6 -13.5,3.6 -26.2,8.7 -37.9,16.8 -13.3,9.3 -26,19.2 -37.7,30.3 -4.5,4.3 -8.6,9.2 -10.4,15.5 -0.1,0.5 -0.6,0.9 -1.4,1.3 0.1,-0.6 0.1,-1.1 0.2,-1.6 -1.7,-0.6 -3.4,-1.2 -4.4,-1.6 -2.8,-4.3 -5.3,-8.2 -7.9,-12.2 -0.3,0 -0.5,0.1 -0.8,0.1 -0.2,2 -0.4,4.1 -0.6,6.1 0.1,0 0.1,0 0.2,0 -0.4,1.8 -0.8,3.6 -1.3,5.3 -0.3,0.9 -0.6,1.9 -1.3,2.4 -8.4,6.5 -16.6,13.2 -25.3,19.3 -5.7,3.9 -12,6.7 -18.1,10.1 -10.5,5.8 -20.8,12.000004 -31.5,17.400004 -10.9,5.6 -21.9,11 -33.2,15.4 -7.7,3 -16,4.3 -24.1,6.4 -5.3,1.4 -10.6,2.9 -16,4 -4.4,0.9 -8.8,1.5 -13.3,2.2 -14.2,2.1 -28.4,2.4 -42.7,2 -7.8,-0.2 -15.5,-0.6 -23.2,-1.4 -7.5,-0.7 -15,-2 -22.5,-3.1 -7,-1.1 -13.9,-2.2 -20.8,-3.7 -5.8,-1.2 -11.5,-2.9 -17.1,-4.5 -7.7,-2.3 -15.5,-4.4 -23,-7.4 -7.8,-3.2 -15.7,-6.2 -23.2,-10.5 -6.2,-3.6 -11.6,-8.000004 -17.1,-12.300004 -2.7,-2.1 -5.8,-3.8 -8.4,-6 -6,-4.8 -11.2,-10.4 -14.6,-17.5 -1.1,-2.4 -2.6,-4.6 -4,-7.2 -0.2,0.1 -1.1,0.5 -1.8,1 -10,6.5 -20.7,11.7 -31.7,16.3 -5.6,2.3 -11.5,3.4 -17.5,3.4 -1.8,0 -3.7,-1.3 -5.4,-2.2 -0.4,-0.2 -0.2,-1.3 -0.3,-1.8 -1.2,-3.2 -2.3,-6.3 -3.5,-9.4 -1.3,-3.4 -2.7,-6.7 -3.9,-10.1 -1.3,-3.5 -2.3,-7.1 -3.8,-10.6 -1.4,-3.4 -3.5,-6.4 -4.9,-9.8 -1.7,-4.1 -4.5,-7.6 -5,-12.3 -0.5,-5 -1.9,-10 -2.5,-15 -0.6,-4.6 -0.8,-9.3 -1,-13.9 -0.3,-6.6 -0.5,-13.3 -0.7,-20.2 -2.7,0.9 -5,1.6 -7.2,2.4 -0.4,0.1 -0.7,0.6 -0.9,1 -1.3,1.9 -2.7,1.9 -3.8,-0.2 -4.6,-8.6 -9,-17.3 -13.9,-25.7 -3.1,-5.4 -7,-10.3 -10.4,-15.5 -4.5,-6.9 -6.4,-14.5 -6.7,-22.7 -0.2,-4.8 -1.4,-9.5 -1.9,-14.3 -1,-9.3 -1.8,-18.7 -2.6,-28.1 -0.2,-1.9 0.7,-3.7 2.8,-4.5 4.6,-1.7 9.3,-3.3 13.9,-5.2 3.2,-1.3 6.3,-2.9 9.3,-4.6 1.6,-0.9 2.7,-0.5 4.2,2.2 0.6,-0.4 1.1,-0.7 1.6,-1.1 0.5,-0.3 1,-0.7 1.5,-1 -1.2,-8.6 -3.1,-17.2 -3.5,-25.8 -0.4,-8.3 0.1,-16.8 1,-25 1.7,-15.2 4.6,-30.2 9.2,-44.8 1.8,-5.7 4.5,-11.2 6.6,-16.9 3.2,-8.3 6,-16.7 9.3,-24.9 1.7,-4.2 3.7,-8.4 6.2,-12.2 8.4,-13.19999 17.4,-25.99999 28.6,-37.09999 6.5,-6.5 12.5,-13.4 19.1,-19.8 3.9,-3.8 8.3,-7.1 12.7,-10.2 6.5,-4.5 13.1,-9 20,-12.9 6.1,-3.4 12.8,-6 19.2,-9 1.7,-0.8 3.4,-1.6 5.1,-2.5 2.2,-1.1 4.5,-2.2 6.7,-3.3 5.9,-3 11.9,-5.7 18.4,-7.2 9.6,-2.2 19,-5.4 29,-4.7 3.6,0.2 7.1,0.9 10.6,1.4 0,0.3 0,0.5 -0.1,0.8 -0.7,0 -1.4,0.2 -2.1,0.1 -9,-1.2 -17.7,0 -26.4,2.4 -3.8,1 -7.7,2 -11.5,3 -5,1.3 -9.6,3.4 -14.2,6.1 -5.7,3.4 -12.2,5.5 -18.1,8.7 -8.5,4.5 -17,9.3 -25.2,14.4 -8.7,5.4 -17.2,11 -24.1,18.7 -5.5,6.1 -10.5,12.6 -15.8,18.8 -4.2,4.9 -8.8,9.6 -12.8,14.7 -3.3,4.2 -6,8.8 -8.9,13.29999 -1.5,2.3 -3,4.7 -4.4,7.2 -0.4,0.8 -0.2,1.8 -0.5,2.7 -0.5,1.5 -1,3.1 -1.7,4.5 -1.2,2.4 -3.1,4.6 -3.9,7.1 -2.4,7.6 -4.4,15.3 -6.8,23 -1,3.2 -2.6,6.2 -3.6,9.3 -1.5,4.6 -2.6,9.3 -4,13.9 -1.6,5.4 -3.5,10.7 -5.1,16.2 -1.1,3.9 -1.9,8 -2.8,12 -0.6,2.7 -0.8,5.5 -1.7,8 -1.8,5 -1,10.1 -1.1,15.1 0,1.9 -0.8,3.9 -0.7,5.8 0.2,8.4 0.7,16.7 1,25.1 0,0.2 0,0.4 0.1,0.5 1.1,2.6 1,5 -1.6,6.9 -0.1,-0.2 -0.4,-0.6 -0.4,-0.7 -6.6,3.5 -13,7 -19.5,10.3 -2.2,1.1 -4.6,1.9 -7,2.7 -0.4,0.2 -1.1,-0.2 -2.3,-0.5 -0.1,0.7 -0.3,1.7 -0.2,2.7 0.6,7.3 1.1,14.6 1.9,21.9 0.5,4.7 1.7,9.3 2.2,14 0.4,4.5 0.3,9.1 0.5,13.6 0,0.7 0.3,1.3 0.9,1.9 0,-1.1 -0.1,-2.2 0,-3.3 0,-0.4 0.5,-1 0.8,-1.1 0.4,0 1.1,0.4 1.2,0.7 1,6.2 5,10.9 7.7,16.2 5.2,10.4 10.6,20.7 15.9,31.1 0.9,1.7 1.5,3.7 2.3,5.8 2,-0.8 4,-1.3 5.8,-2.3 0.8,-0.4 1.5,-1.7 1.6,-2.6 0.3,-2 0.9,-3.2 3.1,-3.8 2.5,-0.7 4.8,-2.2 7.1,-3.5 3.8,-2 7.6,-4.1 11.3,-6.1 3.8,-2.1 7.6,-4.3 11.5,-6.3 0.3,-0.2 0.8,0 1.2,0 -0.1,0.5 0,1.3 -0.3,1.5 -2.6,2 -5.1,4.1 -7.9,5.7 -3.2,1.9 -6.5,3.4 -9.8,5.1 -2.5,1.3 -5.1,2.5 -7.7,3.6 -1.9,0.8 -3,2 -2.7,4.3 0.8,7.1 1.3,14.2 2.1,21.3 0.7,7 1.4,14.1 2.3,21.1 0.3,2.1 2.4,4 0.5,6.4 -0.2,0.3 0.3,1.6 0.7,1.8 3.4,1.3 3.1,4.7 4.2,7.2 1.2,2.8 2,5.8 3,8.7 1.5,4.4 3.1,8.7 4.7,13 1.3,3.5 2.8,6.9 4.1,10.3 1.1,2.7 2.2,5.4 3.1,8.2 0.2,0.7 -0.1,1.7 -0.1,2.5 0,0.6 -0.4,1.5 -0.1,1.8 0.3,0.3 1.3,0.4 1.8,0.2 8.4,-2.8 17.1,-5 25.1,-8.6 8.2,-3.5 16,-8.6 23.8,-13 z m 177.2,73.500004 c 9.9,1.3 47.7,-1.8 51.2,-4.2 -17.1,1.5 -34.8,2.9 -51.2,4.2 z m -68.8,-9.6 c -0.1,0.3 -0.2,0.6 -0.3,0.9 4,0.7 8.1,1.5 12.1,2.2 0,-0.2 0.1,-0.4 0.1,-0.7 -3.9,-0.8 -7.9,-1.6 -11.9,-2.4 z"
       id="path792"
       inkscape:connector-curvature="0" />
    <path
       d="m -1791.4201,-322.77476 c 0.8,-1 1.7,-2 2.5,-2.9 -0.1,-0.1 -0.2,-0.2 -0.2,-0.3 -0.8,0.7 -1.8,1.4 -2.4,2.2 -5.3,8.1 -11.1,15.9 -15.7,24.4 -2.9,5.3 -4.1,11.6 -5.8,17.5 -2.9,9.7 -2.5,19.8 -2.5,29.8 0,8.2 3.9,15 8.6,21.2 5.4,7.1 11.2,13.9 17.5,20.1 3.6,3.6 8.8,5.5 13.9,6.7 9.6,2.2 19.2,1 28.9,0.4 14,-0.9 28.1,-1.6 42.2,-1.8 7.5,-0.1 14.9,1.6 22,4.1 0.9,0.3 1.8,0.9 2.7,1.4 -0.3,0.4 -0.6,0.8 -0.9,1.1 -3.1,-0.7 -6.3,-1.3 -9.4,-2.2 -9.4,-2.6 -18.9,-2.8 -28.5,-2.3 -10.4,0.5 -20.7,1.3 -31,1.9 -4.3,0.3 -8.6,0.3 -12.9,0.5 -6.3,0.3 -12.5,-0.7 -18.2,-3 -4.1,-1.7 -8.2,-3.7 -11.3,-7.4 -4.7,-5.8 -9.7,-11.2 -14.4,-17 -2,-2.4 -3.5,-5.1 -5.5,-7.6 0.5,1.6 0.9,3.3 1.4,4.9 3.4,10.2 6.8,20.5 10.1,30.7 0.7,2.1 1.2,4.4 1.3,6.7 0.2,4.2 3.3,6.7 5.7,9.5 2.5,2.9 5.9,5.1 8.6,7.9 3.3,3.4 7.4,4.7 11.8,5.7 6.5,1.4 13,2.7 19.2,4.8 8.8,2.9 18,3.8 27.1,5 8.2,1 16.5,0.9 24.8,1.7 6,0.6 11.5,-0.9 17,-2.4 0.6,-0.2 1.1,-0.4 1.6,-0.6 1.2,-12 -1.8,-23.8 -1,-36.3 3.8,1.8 5.9,4.4 7.4,7.1 3.9,7.3 7.4,14.8 10.9,22.2 7.2,15.3 14.3,30.6 21.7,46.4 4.2,-4.9 6,-10 6.4,-15.6 1,-12.1 -3,-22.9 -8.7,-33.3 -0.8,-1.4 -1.1,-3.1 -1.6,-4.6 0.3,-0.2 0.7,-0.3 1,-0.5 1.7,2.8 3.8,5.5 5,8.5 3,7 5.9,14.1 6.7,21.9 1.2,11.4 -1.9,21.3 -9.9,29.3 -4.1,4.1 -8.6,8.2 -14.3,10.6 -1.2,0.5 -1.9,1.9 -3.2,3.3 0,0 -0.8,-0.1 -1.4,0.2 -8.3,3.800004 -16.9,5.900004 -26,5.800004 -8.1,0 -16.2,0 -24.2,-0.7 -5.2,-0.5 -10.3,-2.2 -15.3,-3.700004 -9,-2.6 -17.9,-5.2 -26.7,-8.1 -2.9,-1 -5.1,-0.1 -7.4,1.2 -2.1,1.2 -4,2.7 -6.3,3.5 -5.4,2 -10.9,3.4 -16.2,5.500004 -4.5,1.8 -8.9,4.1 -13.3,6.3 -0.6,0.3 -1.1,1.4 -1.3,2.2 -1,4.8 0.9,8.1 4.5,11.4 9.5,8.9 19.4,17.3 30.6,23.8 5,2.9 10.9,4.4 16.4,6.3 8.9,3.1 17.8,6 26.7,9.2 4.4,1.5 8.8,2.2 13.4,2.4 21,0.6 41.2,-3.3 61,-9.9 4.1,-1.4 8.5,-2.1 12.6,-3.4 6.8,-2 13,-5 17.9,-10.3 0.3,-0.4 0.8,-0.6 1.2,-0.9 1.5,3.2 3.1,6.2 4.4,9.3 5.4,12.8 10.8,25.6 16,38.5 0.7,1.7 1.5,2.2 3.3,2.2 4.2,0 7.5,-2.3 11.1,-3.9 1.8,-0.8 3.7,-1.4 6.1,-2.3 -0.2,1.3 -0.2,2 -0.4,2.1 -4.2,2 -8.3,4.2 -12.6,5.7 -2.2,0.8000004 -4.9,0.2 -7.4,0.1 -0.4,0 -0.7,-1.2 -1,-1.8 -0.2,-0.4 -0.2,-0.8 -0.3,-1.1 -4.4,-10.1 -8.8,-20.3 -13.2,-30.4 -2,-4.7 -4.1,-9.3 -6.2,-13.9 -0.2,-0.4 -0.5,-0.7 -1.1,-1.5 -2.3,13.2 -0.9,26.1 -1.4,39 2.8,-0.3 4,1.2 4.9,3.6 1.6,3.9 3.2,7.9000004 5.7,11.2000004 4.7,6.6 7.9,14 11.2,21.1999996 0.9,2 2,3.9 3.3,5.9 0.3,-10.3 -2.5,-20.4999996 -1.3,-30.7999996 0.3,0 0.5,0 0.8,-0.1 0.1,0.8 0.1,1.5 0.2,2.3 0.8,7.79999996 1.7,15.6 2.5,23.3999996 0.4,3.6 0.9,7.2 1.1,10.8 0.1,2.3 0.9,3.8 3.4,3 2.8,-0.9 5.5,-2.2 8.3,-3.1 0.9,-0.3 2.1,0.1 3.6,0.2 -1,-13 -2,-26.39999964 -3.1,-39.8 0.3,0.4 1.2,1 1.3,1.7 0.7,3.3000004 1.6,6.7000004 1.9,10.10000036 0.6,7.30000004 0.9,14.59999964 1.4,21.89999964 0.1,1.7 0.6,3.3 1.4,4.8 -0.3,1.2 -0.4,2.5 -0.9,3.6 -0.2,0.4 -1.2,0.5 -2.2,0.9 0.2,1.8 -1.7,2.4 -3.6,3.3 -4.4,1.9 -8.9,2.2 -13.4,1.4 -4.2,-0.8 -4.8,-2.8 -2,-6.1 -0.4,-0.3 -0.8,-0.7 -1.2,-0.9 -2.7,-1 -4.5,-2.8 -5.5,-5.4 -4,-10.5 -9.5,-20.2999996 -15.1,-29.9999996 -0.4,-0.7 -0.9,-1.5 -1.4,-2.2 -0.5,-0.6 -1.1,-1.0000004 -1.9,-1.7000004 -0.8,0.5 -1.7,1 -2.4,1.7000004 -4.5,4.4 -10.3,6.5 -15.9,8.89999996 -10.6,4.40000004 -22,5.50000004 -33.1,8.00000004 -8.4,1.9 -16.8,2.8999996 -25.4,2.4999996 -11,-0.3999996 -21.9,-1.1999996 -32.9,-1.2999996 -7.8,-0.1 -15.1,-2.2 -22.4,-4.3 -4.5,-1.3 -9,-2.5 -13.3,-4.10000004 -7.4,-2.79999996 -14.1,-6.69999996 -19.6,-12.50000036 -2,-2.1 -4.5,-3.8 -6.4,-6 -1.9,-2.1 -3.3,-4.6 -4.8,-6.9 -2.7,-4.3 -5.2,-8.6 -7.9,-12.9 -0.8,-1.2 -1.8,-2.3 -2.7,-3.4 -1.8,-2.1 -1.6,-4.7 -1.6,-7.2 0,-11.6 0.1,-23.2 0.2,-34.8 0,-3.6 0.3,-7.1 0.4,-10.7 0.1,-1.5 0.7,-2.3 2.3,-2.9 7.9,-2.8 16,-4.900004 23.1,-9.500004 0.9,-0.6 2,-0.8 3.1,-1.2 6.1,-2.2 12.2,-4.7 18.4,-6.4 2.2,-0.6 4.9,0.2 7.2,0.9 5.6,1.7 11,4 16.5,5.7 11.5,3.5 23,7.2 35.1,7.3 8.1,0.1 16.1,-1.1 24.2,-1.7 4.7,-0.3 9,-1.9 13.3,-4 -2.1,-5.5 -4.2,-10.8 -6.3,-16.2 -2.3,-5.9 -4.6,-11.8 -7.1,-17.6 -1.2,-2.8 -2.9,-5.5 -4.6,-8 -0.7,-1 -2.2,-1.7 -3.5,-1.9 -5.6,-1 -11.2,-2 -16.8,-2.6 -10.6,-1 -21.3,-1.7 -32,-2.6 -8.3,-0.7 -16.5,-1.6 -24.4,-4.3 -7.1,-2.5 -14,-5.4 -20.9,-8.1 -0.8,-0.3 -1.6,-1 -2.4,-1 -4.7,0.1 -7.4,-3.3 -10.3,-6.1 -3,-2.9 -6,-5.9 -8.8,-9 -1.7,-1.9 -3,-4.1 -4.2,-6.4 -3,-5.9 -6.6,-11.5 -8.1,-18.1 -1.9,-8.5 -4,-17 -6.3,-25.5 -1.8,-6.7 -1.8,-13.5 -1.8,-20.3 0,-8.6 0.5,-17.3 1.3,-25.8 0.4,-4 2.3,-7.9 3.4,-11.8 2.5,-9 6.8,-17.1 12.2,-24.7 2,-2.8 5.1,-4.8 7.6,-7.2 1.2,-1.1 2.2,-2.4 3.3,-3.6 0.4,-0.4 0.8,-0.9 1.3,-1.2 6,-3.4 11.9,-7 18,-10.2 2.4,-1.2 5.2,-1.5 7.8,-2.2 1,-0.3 2,-0.8 3,-1.2 0.1,-2.9 0.1,-5.9 0.5,-8.8 0.1,-1 0.8,-2.4 1.7,-2.8 6.5,-3.2 13.4,-5.3 20.6,-5.9 2.5,-0.2 4,0.8 5.2,2.9 0.7,1.3 1.8,2.4 2.3,3.7 1.8,4.3 4.8,4.7 9.2,4 10.4,-1.8 20.7,-0.4 31,2 8.5,2 17.2,3.1 25.1,7 6.6,3.2 13,7.1 19.4,10.8 3.3,2 6.4,4.4 9,6.2 -0.4,2.1 -1.1,3.8 -1,5.5 0.6,8.8 1.5,17.5 2.2,26.3 0.9,10.8 1.6,21.7 2.5,32.5 0.1,0.8 0.6,1.5 1,2.2 0.7,1.1 0.9,2 -0.5,2.7 -2.9,1.4 -5.8,3 -8.8,4.1 -1.4,0.5 -3.1,-0.1 -4.6,-0.6 3.7,-1.7 7.4,-3.4 11.3,-5.3 -1.7,-21.4 -3.5,-43 -5.3,-65 -5.1,2.2 -10.6,4.5 -15.9,7.1 -5.4,2.6 -10.6,5.6 -16.1,8.4 2.6,-4.5 20.4,-13.7 33.4,-17.3 -0.7,-0.6 -1.2,-1.1 -1.8,-1.5 -6.7,-3.9 -13.3,-8 -20.2,-11.6 -2.5,-1.4 -5.5,-1.8 -8.4,-2.6 -5.2,-1.4 -10.6,-2.1 -15.4,-4.1 -8.6,-3.6 -17.5,-2.6 -26.3,-2.4 -6.1,0.1 -12.2,0.8 -18.4,0.9 -1.2,0 -2.3,-1.6 -3.9,-2.7 1.5,-0.7 2.1,-1 2.9,-1.4 -1.9,-3 -3.5,-6 -5.5,-8.6 -0.6,-0.8 -2.6,-1 -3.7,-0.7 -5.8,1.2 -11.5,2.6 -17.3,4 0.2,0.9 0.4,1.3 0.3,1.5 -2.2,4.3 1.9,6.3 3.5,9.2 0.5,1 1,2 1.6,3.2 -6.7,1.6 -6.7,1.6 -6.6,3.1 -1.2,0 -2.5,-0.4 -3.4,0.1 -7.8,3.6 -15.6,7.2 -23.4,10.9 -1.2,0.6 -2.1,1.6 -3.1,2.4 -0.2,-0.5 -0.3,-0.6 -0.4,-0.7 z m 103.3,288.500004 c 0,0.1 0,0.2 0,0.3 -3.3,0.2 -6.7,0.5 -10,0.7 -8.7,0.6 -17.1,-1.6 -25.6,-3.1 -10.5,-1.9 -20.8,-4.1 -30.5,-8.8 -5.1,-2.5 -9.2,-6.4 -14.4,-8.8 -3.6,-1.7 -7.4,-3.3 -10.6,-6.4 -4.4,-4.3 -9.7,-7.7 -14.6,-11.5 -2.5,-1.9 -4.8,-4 -7.7,-6.4 0,3.8 0,6.9 0,10 -0.1,8 -0.3,16.1 -0.4,24.1 0,1 -0.1,2.2 0.5,2.9 5.4,6.6 10.6,13.3 16.3,19.6 4.5,5 9.8,9.2 16.5,11.2 4.9,1.5000004 9.7,3.2000004 14.5,4.9000004 13.7,4.89999996 27.8,7.5 42.4,7.1 4.4,-0.1 8.8,0.5 13.2,0.5 5.3,0 10.8,0.3 16,-0.4 9,-1.30000004 17.9,-3.2 26.7,-5 10.8,-2.3 21.2,-5.6 29.3,-13.7000004 0.5,-0.5 1.1,-1.2 1.8,-1.5 2.6,-1.2 3,-3.3 3,-5.9 0.1,-6.4 -0.9,-12.9 1.2,-19.3 0.1,-0.3 -0.1,-0.7 -0.1,-1 -0.2,-1.5 -0.6,-3 -0.5,-4.5 0.1,-2.6 0.5,-5.2 0.8,-7.7 -11.4,5.4 -22.6,10.8 -34.1,16.3 0.3,-0.9 0.4,-1.3 0.6,-2 -13.9,4.6 -27.8,6.7 -41.9,8.4 2.5,0 5.1,0 7.6,0 z m 5.2,-160.400004 c 0.6,9.5 1.3,19.5 1.9,29.4 0,0.7 0.5,1.4 0.7,2.1 0.2,0.8 0.3,1.6 0.3,2.4 0.1,1.8 -0.6,4 0.2,5.3 1.8,3.3 4.6,6 6.4,9.2 2.8,5.1 5.3,10.4 7.3,15.8 2.5,6.7 4.6,13.5 9,19.8 4.1,-3.4 8.1,-6.8 12,-10 -1.9,-2.7 -3.6,-4.7 -4.8,-7 -5.1,-10.3 -10.1,-20.8 -15.2,-31.2 -1,-2 -1.2,-4.7 -3.7,-5.8 1.4,-2.4 -9.5,-25.3 -14.1,-30 z m -74.6,145.200004 c 7.7,5.3 16.3,8.1 25.5,9 -8.5,-3 -17,-6 -25.5,-9 z m -45,-150.400004 c -1.6,-4.6 -3.2,-9.1 -4.9,-13.7 0.5,5 1.8,9.7 4.9,13.7 z m 114.9,41.7 c 0,0.2 0,0.4 0,0.6 1.6,0.5 3.1,1 5.1,1.5 -0.1,-1.4 -0.1,-2.3 -0.2,-3.5 -2,0.6 -3.4,1 -4.9,1.4 z m -73.8,-187.7 c -0.2,3.1 0.5,4.1 3.4,4.8 -1.3,-1.8 -2.3,-3.2 -3.4,-4.8 z"
       id="path794"
       inkscape:connector-curvature="0" />
    <path
       d="m -1160.2201,-312.27476 c -7.5,-6.8 -8.6,-16.9 -15.4,-23.9 0,4 0,7.7 0,11.3 0,0.6 0.2,1.2 0.1,1.8 -0.4,3.3 0.5,6.2 2.1,9.3 2.9,5.7 5,11.7 7.4,17.6 2.4,5.8 4.7,11.7 7,17.5 0.2,0.4 0.3,0.8 0.4,1.3 0.3,-0.2 0.6,-0.4 0.9,-0.6 0,-1.6 0,-3.2 0,-4.8 -0.1,-8.4 -0.3,-16.9 -0.4,-25.3 0,-1.1 0.6,-1.1 1.7,-1.1 1.9,-0.2 3.8,-1.2 5.7,-1.8 3.5,-1.2 7.1,-2.2 10.4,-3.8 3.5,-1.7 8.1,-0.6 10.9,-4.2 0.5,-0.6 1.8,-0.6 2.9,-1 0,0.1 0.3,0.7 0.3,0.9 -8.5,8.4 -20.5,7 -30.6,12.4 0.6,9 1.3,18.8 2,28.7 13.2,-0.3 24.2,-6.2 35,-12.1 1.1,0.9 2.1,1.7 3.1,2.5 0.3,-0.4 0.4,-0.4 0.4,-0.5 0,-6.7 -0.3,-13.5 -3.2,-19.7 -1.3,-2.8 -3.7,-5 -5.4,-7.2 2.6,0.5 4.6,2.7 6.2,5.2 2.2,3.5 3.1,7.3 3.7,11.4 0.8,5.6 1.4,11.1 0.9,16.7 -0.2,2.3 1,4.7 1.3,7 0.5,4.1 0.8,8.2 -1,12.2 -0.4,1 -0.6,2.1 -0.8,2.9 2.5,-1 5,-2 7.5,-3.1 0.2,0.3 0.3,0.6 0.5,0.9 -4.6,0.6 -6.6,4.4 -9.6,7.1 -2.1,1.9 -4.8,3.2 -7.2,4.8 -0.7,0.4 -1.4,0.8 -2,1.1 -21.1,11.6 -42.1,23.4 -63.3,34.9 -10,5.5 -20.5,9.7 -31.9,11.7 -5.2,0.9 -10.1,1.3 -15.4,0.9 -6.5,-0.5 -13.1,-0.4 -19.7,-0.8 -10.8,-0.6 -21.4,-2.4 -31.8,-5.7 -19.5,-6.3 -39.2,-12.6 -57.5,-21.9 -11.6,-5.8 -22.6,-12.6 -32.5,-21.1 -0.3,-0.2 -0.5,-0.5 -0.7,-0.8 5.8,-6.2 12.7,-10.6 20.4,-14 19.1,-8.3 38.1,-16.8 57,-25.3 7.4,-3.3 14.5,-7.2 21.5,-10.7 -0.4,2.7 -2.1,5.2 -5.2,6.6 -18.2,8.2 -36.5,16.2 -54.6,24.5 -10.4,4.8 -20.7,10 -31,15.1 -1.4,0.7 -2.8,1.3 -4.7,2.1 3.3,2.5 6.1,4.9 9.1,6.9 11.3,7.8 23.3,14.4 35.9,20 2,0.9 3.5,0.3 5,-0.2 6.9,-2.5 13.7,-5.2 20.5,-7.9 4.6,-1.9 9.3,-3.7 13.7,-6.1 1.4,-0.8 2.5,-3 2.8,-4.8 2.4,-12.7 4.5,-25.5 7,-38.2 0.9,-4.7 2.8,-9.2 4.1,-13.8 0.6,-2.1 0.7,-4.3 1.1,-6.9 0.5,0.9 1.5,1.8 1.4,2.7 -0.1,2.1 -0.6,4.2 -1,6.3 -1.9,8.7 -3.9,17.3 -5.6,26 -1.7,8.6 -2.9,17.3 -4.4,26.3 0.6,0.2 1.3,0.5 2.4,0.9 -3.3,0.3 -4.9,2 -4.8,5.4 -0.5,-0.7 -0.8,-1.1 -0.8,-1.1 -11.8,4.6 -23.3,9.1 -35.5,13.9 9.5,3.4 18.4,6.6 27.3,9.9 11.4,4.2 23.1,7.2 35.1,8.7 6.5,0.8 13.1,1 19.6,1.2 6,0.2 12.1,-0.3 18.2,0 6.8,0.4 12.8,-1.5 18.7,-4.3 26.7,-13 52.7,-27.5 78.3,-42.5 2,-1.2 2.8,-2.5 3.3,-4.8 0.7,-3.3 2.6,-6.4 3.3,-9.7 0.8,-3.9 1,-8 1,-12 0,-2 -0.7,-4 -1.1,-5.5 -10.5,3.8 -21,7.7 -31.4,11.4 -0.5,0.2 -1.2,-0.1 -1.9,-0.2 1,-0.5 1.9,-1 3.3,-1.7 -5,-0.7 -5,-0.7 -5.3,2.6 -1,-1.7 -1.7,-2.9 -2.5,-4.2 -0.2,0.1 -0.4,0.2 -0.5,0.3 0,0.6 0,1.3 0,2.6 -1.7,-1.8 -3.4,-3.1 -4.3,-4.7 -2.3,-4.3 -4.6,-8.7 -6.4,-13.3 -2.9,-7.2 -5.3,-14.6 -8.1,-21.8 -0.6,-1.5 -2.4,-2.5 -3.1,-4 -0.9,-1.9 -1.7,-4 -1.7,-6 -0.1,-7 0.1,-14 0.2,-21 0,-7.1 1.3,-8.6 8,-11 5.1,-1.8 9.9,-4.2 15.1,-6.3 -1.7,-3.7 -3.4,-6.9 -4.6,-10.2 -1.9,-5.2 -4,-10.4 -5,-15.7 -0.7,-3.5 0.3,-7.3 0.5,-11 0.1,-1.3 0.4,-2.7 0.2,-4 -1.4,-8.4 0.2,-16.5 1.6,-24.6 1.2,-7.2 4,-13.8 7.2,-20.3 1.1,-2.3 3.2,-4.2 4.6,-6.5 3,-4.5 5.8,-9.2 8.8,-13.7 4.4,-6.6 10.6,-11.3 17.4,-15.2 8.2,-4.8 16.6,-9.2 25.9,-11.7 8.3,-2.19999 16.6,-3.89999 25.3,-3.39999 6,0.3 11.9,0.2 17.9,0.9 6.6,0.7 13.2,1.3 19.2,4.49999 0.7,0.4 1.3,0.9 2.6,1.7 -1.2,0.1 -1.7,0.3 -1.9,0.1 -6,-3 -12.6,-3.1 -18.9,-3.7 -10.3,-0.99999 -20.7,-1.29999 -31,0.3 -17.9,2.8 -33.9,10.1 -47.8,21.6 -6,4.9 -10.7,11.2 -13.1,18.9 -1.4,4.4 -3.7,8.5 -5.5,12.7 -3.4,8 -5.7,16.3 -5.2,25.1 0.6,11.1 1.8,22.2 3.1,33.2 0.3,2.3 2.3,4.5 3.6,6.7 0.3,0.5 0.7,0.9 0.8,1.7 -0.7,-0.6 -1.4,-1.2 -2.1,-1.8 -0.2,0.1 -0.3,0.2 -0.5,0.3 2.3,3.8 4.7,7.6 7.1,11.4 1.3,0.2 2.8,0.3 4.3,0.5 -8,2 -13.8,7.8 -20.8,11.3 -2.9,1.5 -6,2.8 -8.9,4.3 -0.6,0.3 -1,1.2 -1.3,1.9 -0.2,0.3 0,0.9 0,1.3 -0.6,4.3 0.3,7.9 3.6,10.9 1.4,1.3 2.1,3.3 3.1,5 2.7,4.8 5.3,9.8 8.4,15.4 z m -5.9,-83 c -0.3,0 -0.6,0.1 -1,0.1 0.2,3 -0.1,6.2 0.7,9.1 1.5,5.4 3.5,10.6 5.6,15.8 1.2,2.9 2.9,5.6 4.4,8.3 1.4,-0.5 2.4,-0.9 4.1,-1.5 -10.9,-8.1 -10.6,-20.7 -13.8,-31.8 z"
       id="path796"
       inkscape:connector-curvature="0" />
    <path
       d="m -1306.8201,-333.27476 c 8.4,-4.4 16.8,-8.8 25.9,-13.5 0.7,2.3 1.3,4.2 1.7,6.1 0.8,4 1.4,7.9 2,11.9 0.6,4.2 1.2,8.3 1.8,12.5 0.1,0.8 0,1.6 0.3,2.3 1.4,3.5 -0.2,6.1 -2.4,9.2 -1.7,-13.1 -3.3,-25.8 -4.9,-38.6 -0.4,0.2 -1.2,0.6 -1.9,1 -2.7,1.4 -5.4,2.7 -7.9,4.4 -8.4,5.3 -17.5,8.9 -27.2,11 -2.2,0.5 -4.3,1.7 -6.4,2.7 -12.1,5.9 -24.1,11.8 -36.2,17.8 -8.9,4.4 -17.8,8.7 -26.6,13.3 -4.6,2.4 -9,5.3 -13.6,7.9 -1,0.6 -2.3,0.6 -3.5,0.9 -3.1,-4.4 -6.7,-8.5 -9.3,-13.3 -3.8,-7 -6.9,-14.4 -10.4,-21.6 -0.5,-1 -1.3,-1.8 -1.9,-2.7 -0.1,-1.5 -0.5,-3.1 -0.2,-4.6 0.3,-1.5 1.4,-2.8 2.3,-4.6 0.5,0.9 0.7,1.4 0.9,1.7 11.2,-8.5 24.3,-13 36.5,-19.4 11.6,-6.1 23.8,-10.8 35.8,-16.2 5.9,-2.6 11.8,-5.3 17.8,-7.7 5,-2 10.3,-3.5 15.3,-5.5 7.1,-2.8 14.2,-5.7 20.9,-8.5 -1.1,-8.3 -1.8,-16 -3.3,-23.6 -1,-4.9 -0.8,-9.8 -0.8,-14.6 0,-0.6 0.6,-1.2 0.9,-1.9 0.4,0.6 1.1,1.1 1.1,1.6 -0.2,8.1 2,15.8 3.3,23.7 0.5,3.3 0.7,6.6 1.2,9.9 0.1,0.9 0.9,1.8 1.4,2.7 0.2,0.3 0.4,0.8 0.4,1.1 -0.8,4.8 -1,9.6 -2.9,14.3 -1.8,4.2 -2.4,8.9 -3.4,13.4 -0.9,3.6 -1.7,7.1 -2.6,10.7 -1.3,5.5 -2.7,10.7 -4.1,16.2 z m 11.7,-50.8 c -1.8,0.5 -2.9,0.7 -3.8,1.2 -7,3.4 -13.7,7.3 -21.4,8.9 -3.3,0.7 -6.4,2 -9.5,3.4 -7.1,3.1 -14,6.9 -21.2,9.5 -20.8,7.5 -39.9,18.5 -59.8,27.8 -3.5,1.6 -6.7,3.9 -9.8,6.1 -1.8,1.2 -2.3,2.9 -1.5,5.3 4.4,11.7 10,22.7 17.3,32.8 0.2,0.3 0.6,0.6 0.7,0.7 5.1,-2.9 10,-5.9 15,-8.5 7.8,-4.1 15.6,-8 23.6,-11.7 11,-5.2 22.3,-9.8 33.1,-15.3 5.7,-2.9 11.3,-6 17.6,-7.1 3.7,-0.7 5.9,-2.1 6.5,-6.2 0.7,-5.1 2.4,-10 3.5,-15 1,-4.1 1.5,-8.4 2.8,-12.5 1.3,-4.2 3.2,-8.2 4.7,-12.3 0.8,-2.1 1.3,-4.2 2.2,-7.1 z"
       id="path798"
       inkscape:connector-curvature="0" />
    <path
       d="m -1435.7201,-378.77476 c 0.3,-0.9 0.7,-1.7 0.8,-2.4 0.9,-7.7 1.4,-15.4 2.6,-23.1 1.4,-8.8 3.1,-17.7 5.2,-26.3 2.1,-8.5 5.6,-16.5 10.7,-23.7 5.6,-7.9 10.6,-16.2 16.7,-23.7 9.5,-11.8 19.8,-22.89999 33,-30.79999 7.5,-4.5 14.8,-9.2 22.6,-12.9 6.2,-3 12.9,-4.8 19.5,-6.9 7.9,-2.5 15.9,-5 24.3,-5.6 6.7,-0.5 13.4,-1 20,-1.5 0.5,0 1,0.1 1.7,0.7 -0.6,0.3 -1.2,0.9 -1.8,1 -4.1,0.8 -8.3,1.5 -12.4,2.3 -6.9,1.4 -13.8,2.5 -20.6,4.4 -9.2,2.6 -18.3,5.5 -27.2,8.9 -8.8,3.4 -16.7,8.6 -24.5,13.9 -16.3,10.99999 -29,25.49999 -40.2,41.49999 -1.8,2.6 -3.4,5.4 -5.3,8 -8.8,11.9 -13.3,25.5 -15.9,39.8 -1.7,9.3 -2.9,18.7 -4.2,28.1 -0.3,2.1 0,4.3 0,6.7 2.6,-1.1 5.1,-2.1 7.5,-3.1 5.4,-2.1 10.8,-4 16.2,-6.1 11,-4.3 22,-8.7 33,-13 7.6,-2.9 15.3,-5.4 22.8,-8.5 10,-4.2 19.8,-9 29.8,-13.2 2.7,-1.1 5.8,-1.2 8.7,-1.8 1,-0.2 2,-0.4 2.9,-0.9 2.7,-1.5 5.3,-3.1 8,-4.6 0.8,2.2 0.3,3.4 -1.6,4 -3,1 -5.9,2.3 -9,3.3 -9.5,3.1 -18.5,7.1 -27.4,11.4 -9.2,4.5 -18.9,7.9 -28.4,11.7 -7.4,3 -14.8,6.1 -22.3,8.9 -8.6,3.2 -17.2,6.1 -25.9,9.2 -4.5,1.6 -8.9,3.2 -13.4,4.8 -0.2,0.1 -0.5,0.2 -0.7,0.4 -3,2.2 -3.2,2.2 -5.2,-0.9 z"
       id="path800"
       inkscape:connector-curvature="0" />
    <path
       d="m -1038.4201,-448.37476 c 9,-5.2 17.6,-10.3 26.2,-15.3 1.2,1.9 1.6,2.6 -1.4,4.2 -7.1,3.6 -14.1,7.6 -21.1,11.5 -2.9,1.7 -5.7,1.8 -8.4,-0.3 -5.5,-4.2 -12.1,-6 -18.4,-8.6 -6,-2.5 -11.4,-1.5 -17.2,0.3 -2.7,0.8 -5.8,0.6 -8.2,1.8 -5.5,2.6 -10.4,5.8 -14,11.3 -3.4,5.3 -5.8,10.9 -7.4,16.8 -1,3.7 -1.3,7.7 -1.5,11.5 -0.2,4.8 -0.1,9.6 0.4,14.7 0.8,-1.3 1.4,-2.8 2.4,-4 6.8,-8.6 15.2,-15.3 25.7,-18.4 6,-1.8 12.6,-2.2 18.9,-0.5 0.8,0.2 1.7,0.6 2.5,0.5 2.5,-0.3 3.8,1.2 4.9,3 -5,-0.5 -10,-1.3 -15,-1.5 -12.1,-0.5 -21.9,4.8 -30.4,12.9 -3,2.9 -5.3,6.7 -7.7,10.2 -0.7,1 -1,2.4 -0.8,3.6 0.4,3 1.3,6 1.8,9 0.3,1.3 0.3,2.7 0.4,4.1 -0.3,0.1 -0.6,0.2 -1,0.3 -1.4,-2.7 -3.3,-5.2 -4.2,-8 -3.8,-12.2 -2.5,-24.7 -1.2,-37.2 0.1,-1.2 0.8,-2.3 0.9,-3.5 0.1,-1.4 1.7,-2.6 0.3,-4.2 -0.2,-0.3 0.1,-1.4 0.5,-1.9 2,-2.6 3.9,-5.4 6.3,-7.8 2.4,-2.4 5.2,-4.5 8,-6.5 3.6,-2.5 7.3,-4.8 11.1,-7 1.2,-0.7 2.8,-0.8 4.2,-1 3.9,-0.6 7.8,-1.1 11.7,-1.6 6,-0.8 11.8,-0.1 17.4,2.4 5.4,2.4 10.5,4.9 14.3,9.2 z"
       id="path802"
       inkscape:connector-curvature="0" />
    <path
       d="m -1578.2201,-26.974756 c -0.5,-0.3 -1.3,-0.5 -1.6,-1 -2.1,-3.1 -4.3,-6.2 -6.1,-9.5 -1.8,-3.3 -3.4,-6.8 -4.9,-10.3 -2.1,-5.1 -4,-10.3 -6.1,-15.4 -1.1,-2.7 -2.7,-5.2 -3.8,-7.9 -0.9,-2.1 -1.6,-4.3 -2.4,-6.4 0.4,-0.1 0.7,-0.3 1.1,-0.4 3.2,6.1 6.4,12.3 9.7,18.8 0.7,-0.6 1.9,-1.1 2.3,-2 3.2,-5.8 6.6,-11.5 9.2,-17.6 3.4,-8.1 6.3,-16.4 9.1,-24.700004 0.8,-2.3 0.3,-5 0.6,-7.5 0.3,-2.6 1.1,-5.2 1.2,-7.8 0.1,-2.4 0.8,-4.8 0.9,-7.1 0.1,-3.2 -0.9,-6.4 -1.5,-9.6 -0.2,0 -0.4,0 -0.6,-0.1 -0.8,3.6 -1.6,7.2 -2.6,10.7 -0.2,0.7 -1.1,1.3 -2.1,1.7 4.4,-16.2 5.4,-32.1 0,-48.2 0.5,0.8 1.2,1.5 1.4,2.3 1.2,5 2.7,10 3.3,15.1 0.6,4.9 0,9.8 0.3,14.7 0.1,2 1.3,4 2,6 2.8,8 3.1,16 1,24.2 -0.9,3.4 -1.3,7 -1.5,10.500004 -0.5,9.4 -3,18.4 -6.4,27.1 -2.5,6.6 -5.6,12.9 -8.5,19.3 -0.6,1.3 -1.4,2.7 -2.5,3.4 -1.9,1.2 -1,2.3 -0.4,3.4 2.8,5.4 5.7,10.8 8.6,16.2 0.3,0.5 0.4,1.1 0.6,1.6 -0.1,0.2 -0.2,0.4 -0.3,0.5 z m -15.1,-31.8 c 1.8,3.9 3.3,7.1 4.9,10.3 0.3,0 0.5,0.1 0.8,0.1 6.9,-12.7 11.3,-26.3 14.4,-40.4 -0.4,0.4 -0.6,0.8 -0.8,1.3 -3.7,9.3 -7.3,18.6 -14,26.3 -1.3,1.6 -2.3,2.9 -5.3,2.4 z"
       id="path804"
       inkscape:connector-curvature="0" />
    <path
       d="m -1344.1201,-417.27476 c 0.3,-3.9 0.1,-7.9 1.1,-11.6 2.1,-8.2 7.4,-14.4 13.8,-19.8 9.8,-8.2 20.6,-14.8 31.7,-20.9 3.3,-1.8 7,-2.4 10.8,-1.7 0.7,0.1 1.5,0.2 2.4,0.4 0.3,-5 0.5,-9.8 0.9,-14.6 0.8,-9.29999 1.5,-18.69999 2.6,-27.99999 0.6,-4.9 1.9,-9.7 2.8,-14.6 0.2,-1.4 -0.1,-2.9 0.1,-4.3 0.1,-0.7 0.7,-1.4 1.3,-2.5 2.4,3.5 1.6,6.7 1,9.7 -2,10.6 -2.8,21.3 -3,31.99999 -0.1,6.4 -1.3,12.8 -1.8,19.2 -0.1,1.6 0.5,3.3 0.9,5.2 -0.3,0.5 -1,1.5 -2.1,3.1 -0.7,-0.8 -1.3,-1.6 -2.4,-2.8 -4.4,-0.7 -9.2,-0.1 -13.7,2.5 -10.4,6.1 -20.8,12.4 -30,20.3 -5.9,5.1 -10.1,11.3 -12.8,18.5 -1,2.5 -1.3,5.3 -2,8 -0.2,0.6 -0.5,1.2 -0.8,1.8 -0.2,0.2 -0.5,0.2 -0.8,0.1 z"
       id="path806"
       inkscape:connector-curvature="0" />
    <path
       d="m -1703.2201,-253.67476 c -4,-1.9 -6.1,-5.4 -8,-9 -5.2,-9.9 -10.3,-19.8 -15.5,-29.6 -0.6,-1.2 -1.4,-2.3 -2.6,-3.4 0,0.6 0,1.2 0,1.8 0.9,12.4 1.8,24.8 2.5,37.2 0.1,1.8 0.5,2.9 2.4,3.1 6.9,0.8 13.8,1.7 20.8,2.6 0.9,0.1 1.8,0.4 2.7,0.6 -0.1,0.3 -0.1,0.6 -0.2,1 -2.1,0 -4.3,0.2 -6.4,0 -5.2,-0.7 -10.4,-1.6 -15.6,-2.4 -1.7,-0.3 -3.6,0 -5.2,-0.6 -2.7,-1 -5.3,-2.3 -7.8,-3.7 -5.6,-2.9 -10.7,-6.4 -14,-11.9 -0.3,-0.5 -0.5,-1.2 -0.6,-1.9 4.7,6.7 11,11.4 18.9,14.1 -0.6,-16.3 -1.2,-32.4 -1.9,-48.7 -5.6,1.9 -14.1,12.5 -17.4,20.4 0.6,-1.8 0.9,-3.7 1.8,-5.4 3.1,-6.2 7.1,-11.6 12.8,-15.7 0.4,-0.3 0.7,-1 0.8,-1.5 0.2,-1.8 0.8,-2.4 2.5,-1.5 0.5,0.3 1.2,0.3 1.2,0.8 0.5,1.7 0.7,3.5 1.5,5 6.9,12.6 14,25.2 21,37.8 1.5,2.6 3.1,5.2 4.6,7.8 0.8,1 1.2,2.1 1.7,3.1 z"
       id="path808"
       inkscape:connector-curvature="0" />
    <path
       d="m -1513.9201,-285.17476 c -13.9,3.4 -26.9,9.2 -40,15 -0.2,-0.2 -0.3,-0.3 -0.5,-0.5 1.3,-1.2 2.3,-2.9 3.8,-3.6 7.4,-3.5 14.8,-7 22.4,-10 4.1,-1.6 8.6,-2 13.2,-2.9 -0.1,-0.6 -0.2,-1.2 -0.2,-2 1.2,-0.1 2.4,-0.2 3,-0.2 10.3,13.4 18.8,27.5 27.7,41.4 1.4,2.2 1.2,3 -1.1,6.7 -4.4,-7.4 -8.8,-15.1 -13.5,-22.4 -4.8,-7.3 -10,-14.4 -14.8,-21.5 z"
       id="path810"
       inkscape:connector-curvature="0" />
    <path
       d="m -1040.1201,-404.27476 c -0.3,-2.1 -0.7,-4.1 -0.8,-6.2 -0.5,-11.5 -0.9,-22.9 -1.3,-34.4 0,-0.5 0.2,-1 0.6,-1.6 4.2,13.2 3.5,26.7 2.9,40.7 2.5,-2.1 4.6,-4.2 7,-5.9 3.7,-2.7 7.6,-5.4 11.5,-7.8 4.7,-2.8 9.6,-5.1 14.3,-7.7 0.7,-0.4 1.3,-1.6 1.2,-2.4 -0.3,-5.7 -0.8,-11.4 -1.2,-17.2 -0.2,-3.2 -0.3,-6.3 -0.6,-9.5 -0.1,-0.7 -0.8,-1.4 -1.3,-2.2 1.3,-0.9 2.3,-1.1 2.9,1 1.8,5.5 2,11.1 2.2,16.8 0.1,2.6 0.1,5.2 0.3,7.8 0.1,1.8 0,3.9 2.4,4 -5.7,5.2 -12.8,8.6 -19.5,12.5 -6.7,3.9 -13.1,8.4 -19.7,12.6 -0.2,-0.2 -0.6,-0.3 -0.9,-0.5 z"
       id="path812"
       inkscape:connector-curvature="0" />
    <path
       d="m -1697.1201,-311.47476 c 0.7,1.8 -0.6,0.8 -1.1,0.7 -4.1,-0.6 -8.2,-1.2 -12.4,-1.8 -0.1,0.3 -0.3,0.6 -0.4,0.9 1.2,1.8 2.4,3.7 3.6,5.5 9.1,14.3 17.1,29.2 23.8,44.7 1.2,2.7 2.5,5.3 3.9,7.8 0.4,0.7 1.5,1.4 2.3,1.4 7.1,-0.2 14.1,-0.6 21.2,-0.8 2.6,-0.1 5.2,0.3 8.5,0.5 -11,1.3 -21.5,0 -31.6,3.5 -6.8,-8.3 -9.8,-18.6 -14.8,-28 -5.1,-9.6 -10.6,-19 -15.8,-28.5 -1.3,-2.4 -2.2,-5 -3.3,-7.5 0.2,-0.3 0.5,-0.5 0.7,-0.8 5.2,0.9 10.4,1.7 15.4,2.4 l 0,0 z"
       id="path814"
       inkscape:connector-curvature="0" />
    <path
       d="m -1065.4201,-229.97476 c -0.2,-0.9 -0.7,-1.8 -0.5,-2.6 1.4,-7.6 3,-15.2 4.4,-22.9 2.6,-14.3 2.2,-28.7 1,-43.1 -0.9,-10.3 -2.8,-20.3 -6.6,-29.9 -0.6,-1.4 -0.6,-3 -0.7,-4.6 5.3,10.6 8.3,21.7 9.7,33.4 1.4,11.8 1.6,23.6 0.6,35.4 -0.9,11.7 -4,23 -7.1,34.3 -0.1,-0.1 -0.5,-0.1 -0.8,0 z"
       id="path816"
       inkscape:connector-curvature="0" />
    <path
       d="m -1505.8201,-175.17476 c 0.1,-2.5 0.4,-4.7 2.9,-6.3 10.7,-6.7 22.2,-11.3 34.3,-14.8 4.3,-1.3 8.4,-3 12.6,-4.4 0.8,-0.3 1.9,0.2 2.8,0.3 -0.4,0.8 -0.5,1.9 -1.2,2.4 -1.5,1 -3.1,1.8 -4.8,2.3 -5.9,1.9 -11.9,3.4 -17.7,5.7 -8.6,3.4 -17.1,7.2 -25.6,11.1 -1.4,0.6 -2.2,2.4 -3.3,3.7 z"
       id="path818"
       inkscape:connector-curvature="0" />
    <path
       d="m -1033.6201,-353.27476 c -12.3,6.2 -23.6,13.6 -37.2,15.1 13.6,-3.6 25.2,-11.8 38.6,-16.8 0,3.3 -0.1,6.2 0,9 0.4,7.4 0.9,14.8 1.2,22.2 0.2,4.7 0,9.5 -0.1,14.2 0,0.7 -0.5,1.4 -1.2,2 -1.2,-15.1 -3.6,-30.2 -1.3,-45.7 z"
       id="path820"
       inkscape:connector-curvature="0" />
    <path
       d="m -1587.6201,-195.97476 c -0.7,-0.4 -1.5,-0.6 -2,-1.2 -3.5,-4.6 -7.4,-9 -10.1,-14 -3.1,-5.6 -7.3,-10.1 -12.2,-13.8 -6.2,-4.7 -12.8,-9.2 -19.7,-12.7 -7.8,-4 -16.2,-6.7 -24.3,-10 -0.4,-0.2 -0.9,-0.4 -1.3,-0.7 13.6,2.5 25.9,8 37.5,15.2 14.4,9 24.7,21.8 32.7,36.5 -0.2,0.2 -0.4,0.5 -0.6,0.7 z"
       id="path822"
       inkscape:connector-curvature="0" />
    <path
       d="m -1282.9201,-542.07475 c -1.5,-1.4 -3.1,-2.8 -4.6,-4.3 -7.4,-7 -14.3,-14.4 -22.6,-20.5 -6.1,-4.5 -11.2,-10.4 -16.6,-15.8 -1.7,-1.7 -3,-3.9 -4.2,-6.2 1.1,0.9 2.3,1.8 3.4,2.8 3.2,2.9 6.3,5.9 9.4,8.8 1.8,1.6 3.5,3.3 5.3,4.9 5.8,5 11.9,9.8 17.4,15.1 4.7,4.6 8.8,9.8 13.2,14.7 -0.3,0.1 -0.5,0.3 -0.7,0.5 z"
       id="path824"
       inkscape:connector-curvature="0" />
    <path
       d="m -1604.4201,-78.574756 c -1.5,-1.5 -0.6,-2.5 0.5,-3.5 6.5,-5.7 12.5,-12 17,-19.400004 2.7,-4.4 4.9,-9.1 7.3,-13.7 0.7,-1.3 1.4,-2.7 2.4,-4.7 1.1,5.8 -0.4,10.2 -3.2,14.7 -0.3,-0.8 -0.5,-1.1 -0.7,-1.7 -5.9,11.100004 -13.7,20.400004 -23.3,28.300004 z"
       id="path826"
       inkscape:connector-curvature="0" />
    <path
       d="m -1674.8201,-252.77476 c -0.5,-1.8 -1.4,-3.6 -1.5,-5.4 -0.8,-9.5 -1.3,-19.1 -2.1,-28.6 -0.5,-5.6 -1.4,-11.2 -1.8,-16.9 0.7,2.1 1.8,4.1 2.1,6.3 1,6.7 1.9,13.5 2.6,20.2 0.8,8 1.3,16.1 1.9,24.1 -0.5,0.1 -0.8,0.2 -1.2,0.3 z"
       id="path828"
       inkscape:connector-curvature="0" />
    <path
       d="m -1051.7201,-398.97476 c 0.4,0.4 0.9,0.8 1.3,1.2 5.9,7 10.1,14.9 13.7,23.2 1.3,3 2.4,6 3.6,9.1 0.2,0.5 -0.1,1.2 -0.2,1.8 -0.5,-0.4 -1.3,-0.7 -1.6,-1.2 -2.7,-5.7 -5,-11.5 -7.9,-17.1 -2.5,-5 -5.6,-9.7 -8.4,-14.5 -0.4,-0.7 -0.8,-1.4 -1.2,-2.2 0.3,0.1 0.5,-0.1 0.7,-0.3 z"
       id="path830"
       inkscape:connector-curvature="0" />
    <path
       d="m -1041.8201,-486.97476 c 4.3,0 25,11.4 28.8,15.1 -5.6,-0.2 -10.9,-2.2 -14.9,-6 -2.1,-2 -4,-4.1 -6.6,-5.4 -2.6,-1.1 -4.9,-2.4 -7.3,-3.7 z"
       id="path832"
       inkscape:connector-curvature="0" />
    <path
       d="m -1098.0201,-383.87476 c 33.5,-14.7 36.5,-15.6 41.5,-14.3 -13.4,4.7 -27.4,9.5 -41.5,14.3 z"
       id="path834"
       inkscape:connector-curvature="0" />
    <path
       d="m -1053.8201,-298.37476 c 0.5,-0.7 0.8,-1.5 1.3,-1.7 4.2,-1.6 8.4,-3.2 12.8,-4.6 2.4,-0.7 4.4,-4 7,-1.9 -6,4.3 -13.1,6.6 -21.1,8.2 z"
       id="path836"
       inkscape:connector-curvature="0" />
    <path
       d="m -1697.0201,-311.47476 c -1.7,-1 -3.3,-1.9 -5.6,-3.2 8,1.1 13.9,5.3 20.3,9.8 -1,-0.1 -1.3,-0.1 -1.6,-0.2 -0.3,-0.1 -0.6,-0.4 -0.9,-0.5 -4.1,-2 -8.2,-4 -12.2,-5.9 -0.1,0 0,0 0,0 z"
       id="path838"
       inkscape:connector-curvature="0" />
    <path
       d="m -1054.8201,-415.67476 c 5.6,1.1 8.7,4.9 11.9,8.4 -0.2,0.3 -0.4,0.6 -0.6,0.8 -3.6,-2.9 -7.3,-5.9 -11.3,-9.2 z"
       id="path840"
       inkscape:connector-curvature="0" />
    <path
       d="m -1582.6201,-182.27476 c -1.7,-4.1 -3.5,-8.2 -5.4,-12.8 1,0.6 2.1,0.8 2.3,1.3 1.3,3.8 2.3,7.6 3.4,11.5 -0.1,-0.1 -0.2,-0.1 -0.3,0 z"
       id="path842"
       inkscape:connector-curvature="0" />
    <path
       class="st0"
       d="m -1263.4201,-68.674756 c 16.4,-1.3 34.1,-2.8 51.2,-4.2 -3.4,2.4 -41.2,5.5 -51.2,4.2 z"
       id="path844"
       inkscape:connector-curvature="0"
       style="fill:#ffffff" />
    <path
       class="st0"
       d="m -1332.2201,-78.274756 c 4,0.8 8,1.6 12,2.4 0,0.2 -0.1,0.4 -0.1,0.7 -4,-0.7 -8.1,-1.5 -12.1,-2.2 0,-0.3 0.1,-0.6 0.2,-0.9 z"
       id="path846"
       inkscape:connector-curvature="0"
       style="fill:#ffffff" />
    <path
       class="st0"
       d="m -1688.1201,-34.274756 c -2.6,0 -5.2,0 -7.7,0 14.1,-1.7 28,-3.9 41.9,-8.4 -0.2,0.7 -0.3,1.1 -0.6,2 11.5,-5.5 22.7,-10.8 34.1,-16.3 -0.3,2.6 -0.7,5.2 -0.8,7.7 -0.1,1.5 0.3,3 0.5,4.5 0,0.3 0.2,0.7 0.1,1 -2.1,6.3 -1,12.8 -1.2,19.3 -0.1,2.6 -0.4,4.7 -3,5.9 -0.7,0.3 -1.2,1 -1.8,1.5 -8.1,8.1000004 -18.5,11.4000004 -29.3,13.7000004 -8.9,1.9 -17.8,3.69999996 -26.7,5 -5.2,0.8 -10.7,0.5 -16,0.4 -4.4,0 -8.8,-0.6 -13.2,-0.5 -14.6,0.4 -28.7,-2.20000004 -42.4,-7.1 -4.8,-1.7 -9.6,-3.4 -14.5,-4.9000004 -6.7,-2 -12,-6.2 -16.5,-11.2 -5.7,-6.3 -11,-13 -16.3,-19.6 -0.5,-0.7 -0.5,-1.9 -0.5,-2.9 0.1,-8 0.3,-16.1 0.4,-24.1 0,-3.1 0,-6.3 0,-10 2.8,2.4 5.2,4.4 7.7,6.4 4.9,3.8 10.2,7.2 14.6,11.5 3.1,3.1 6.9,4.7 10.6,6.4 5.2,2.4 9.3,6.3 14.4,8.8 9.7,4.7 20,6.9 30.5,8.8 8.5,1.5 16.9,3.7 25.6,3.1 3.3,-0.2 6.7,-0.5 10,-0.7 0.1,-0.1 0.1,-0.2 0.1,-0.3 z"
       id="path848"
       inkscape:connector-curvature="0"
       style="fill:#ffffff" />
    <path
       class="st0"
       d="m -1682.9201,-194.67476 c 4.6,4.7 15.4,27.6 14.2,30.2 2.6,1.1 2.7,3.7 3.7,5.8 5.1,10.4 10,20.8 15.2,31.2 1.1,2.3 2.9,4.3 4.8,7 -3.9,3.3 -7.9,6.6 -12,10 -4.5,-6.3 -6.6,-13.1 -9,-19.8 -2,-5.4 -4.6,-10.7 -7.3,-15.8 -1.8,-3.3 -4.6,-6 -6.4,-9.2 -0.8,-1.4 -0.1,-3.5 -0.2,-5.3 0,-0.8 -0.1,-1.6 -0.3,-2.4 -0.2,-0.7 -0.6,-1.4 -0.7,-2.1 -0.7,-10.2 -1.3,-20.1 -2,-29.6 z"
       id="path850"
       inkscape:connector-curvature="0"
       style="fill:#ffffff" />
    <path
       class="st0"
       d="m -1757.5201,-49.474756 c 8.5,3 17,6 25.5,9 -9.2,-0.9 -17.8,-3.7 -25.5,-9 z"
       id="path852"
       inkscape:connector-curvature="0"
       style="fill:#ffffff" />
    <path
       class="st0"
       d="m -1802.5201,-199.87476 c -3.1,-4 -4.4,-8.7 -4.9,-13.7 1.6,4.6 3.3,9.1 4.9,13.7 z"
       id="path854"
       inkscape:connector-curvature="0"
       style="fill:#ffffff" />
    <path
       class="st0"
       d="m -1687.6201,-158.17476 c 1.5,-0.4 3,-0.8 4.8,-1.3 0.1,1.2 0.1,2 0.2,3.5 -1.9,-0.6 -3.5,-1.1 -5.1,-1.5 0,-0.3 0,-0.5 0.1,-0.7 z"
       id="path856"
       inkscape:connector-curvature="0"
       style="fill:#ffffff" />
    <path
       class="st0"
       d="m -1761.4201,-345.87476 c 1.1,1.6 2.2,3.1 3.4,4.8 -2.9,-0.7 -3.6,-1.7 -3.4,-4.8 z"
       id="path858"
       inkscape:connector-curvature="0"
       style="fill:#ffffff" />
    <path
       class="st0"
       d="m -1166.1201,-395.27476 c 3.2,11.1 2.9,23.7 13.8,31.8 -1.7,0.6 -2.7,1 -4.1,1.5 -1.4,-2.7 -3.2,-5.4 -4.4,-8.3 -2.1,-5.2 -4.1,-10.5 -5.6,-15.8 -0.8,-2.9 -0.5,-6 -0.7,-9.1 0.4,0 0.7,-0.1 1,-0.1 z"
       id="path860"
       inkscape:connector-curvature="0"
       style="fill:#ffffff" />
    <path
       class="st0"
       d="m -1295.1201,-384.07476 c -0.9,2.9 -1.4,5 -2.1,7 -1.5,4.1 -3.5,8.1 -4.7,12.3 -1.2,4.1 -1.8,8.3 -2.8,12.5 -1.2,5 -2.8,9.9 -3.5,15 -0.6,4.2 -2.8,5.6 -6.5,6.2 -6.3,1.1 -11.9,4.2 -17.6,7.1 -10.8,5.6 -22.1,10.2 -33.1,15.3 -7.9,3.7 -15.8,7.7 -23.6,11.7 -5,2.6 -9.9,5.6 -15,8.5 -0.1,-0.1 -0.5,-0.4 -0.7,-0.7 -7.4,-10.1 -13,-21.1 -17.3,-32.8 -0.9,-2.4 -0.3,-4.1 1.5,-5.3 3.1,-2.2 6.3,-4.4 9.8,-6.1 19.9,-9.3 39,-20.3 59.8,-27.8 7.3,-2.6 14.1,-6.4 21.2,-9.5 3.1,-1.3 6.2,-2.7 9.5,-3.4 7.8,-1.6 14.4,-5.6 21.4,-8.9 0.8,-0.3 1.9,-0.5 3.7,-1.1 z"
       id="path862"
       inkscape:connector-curvature="0"
       style="fill:#ffffff" />
    <path
       class="st0"
       d="m -1593.3201,-58.774756 c 3,0.5 4,-0.8 5.3,-2.4 6.6,-7.8 10.3,-17 14,-26.3 0.2,-0.5 0.4,-0.9 0.8,-1.3 -3.2,14.1 -7.5,27.7 -14.4,40.4 -0.3,0 -0.5,-0.1 -0.8,-0.1 -1.5,-3.2 -3.1,-6.4 -4.9,-10.3 z"
       id="path864"
       inkscape:connector-curvature="0"
       style="fill:#ffffff" />
  </g>
</svg>
