<?xml version="1.0" encoding="UTF-8" standalone="no"?>
<!-- Created with Inkscape (http://www.inkscape.org/) -->

<svg
   xmlns:dc="http://purl.org/dc/elements/1.1/"
   xmlns:cc="http://creativecommons.org/ns#"
   xmlns:rdf="http://www.w3.org/1999/02/22-rdf-syntax-ns#"
   xmlns:svg="http://www.w3.org/2000/svg"
   xmlns="http://www.w3.org/2000/svg"
   xmlns:sodipodi="http://sodipodi.sourceforge.net/DTD/sodipodi-0.dtd"
   xmlns:inkscape="http://www.inkscape.org/namespaces/inkscape"
   width="269.37637mm"
   height="197.7995mm"
   viewBox="0 0 954.48321 700.86437"
   id="svg3359"
   version="1.1"
   inkscape:version="0.91 r13725"
   sodipodi:docname="help.svg">
  <defs
     id="defs3361" />
  <sodipodi:namedview
     id="base"
     pagecolor="#ffffff"
     bordercolor="#666666"
     borderopacity="1.0"
     inkscape:pageopacity="0.0"
     inkscape:pageshadow="2"
     inkscape:zoom="0.35"
     inkscape:cx="2509.3844"
     inkscape:cy="-383.85351"
     inkscape:document-units="px"
     inkscape:current-layer="layer1"
     showgrid="false"
     fit-margin-top="0"
     fit-margin-left="0"
     fit-margin-right="0"
     fit-margin-bottom="0"
     inkscape:window-width="1920"
     inkscape:window-height="1056"
     inkscape:window-x="0"
     inkscape:window-y="24"
     inkscape:window-maximized="1" />
  <metadata
     id="metadata3364">
    <rdf:RDF>
      <cc:Work
         rdf:about="">
        <dc:format>image/svg+xml</dc:format>
        <dc:type
           rdf:resource="http://purl.org/dc/dcmitype/StillImage" />
        <dc:title></dc:title>
      </cc:Work>
    </rdf:RDF>
  </metadata>
  <g
     inkscape:label="Layer 1"
     inkscape:groupmode="layer"
     id="layer1"
     transform="translate(2134.3844,552.3557)">
    <g
       transform="translate(-2167.8012,-567.20129)"
       id="Layer_1" />
    <g
       transform="translate(-2167.8012,-567.20129)"
       id="Layer_2" />
    <path
       d="m -1460.7012,-109.70129 c 0.9,0 1.4,-0.1 1.9,-0.1 0,-0.3 0.1,-0.5 0.1,-0.8 -4.8,-16 -5.8,-32.5 -5.7,-49.1 0,-4.3 0.3,-8.6 0.4,-12.9 0.1,-6 2.6,-10.6 7.5,-14 1.5,-1.1 3.2,-1.9 4.8,-3 3,-2.1 6.2,-3.9 8.8,-6.4 5.1,-5.1 10.4,-5.6 16.9,-2.8 10.3,4.5 20.9,8.7 31.4,12.8 4.1,1.6 8.4,2.8 12.7,4 6.3,1.8 12.3,0 18.2,-1.7 2.1,-0.6 3.1,-3.6 2.2,-6.2 -0.5,-1.4 -1.2,-2.7 -2,-3.9 -6.8,-10.2 -13.7,-20.3 -20.5,-30.5 -0.7,-1.1 -1.4,-2.3 -1.7,-3.6 -1.2,-3.8 -3.7,-6.3 -7.5,-7.2 -3.9,-0.9 -7.9,-1.6 -11.9,-2.2 -4.5,-0.7 -9.1,-1.3 -13.6,-2 -17,-2.7 -32.1,-10.1 -45.6,-20.4 -12.1,-9.2 -23.6,-19.2 -35.2,-29.1 -3.2,-2.8 -6.2,-6.1 -8.5,-9.7 -9.5,-15 -23.6,-22.8 -40.5,-26.2 -3.4,-0.7 -6.9,-1.5 -10.1,-2.8 -9,-3.7 -18.3,-3.9 -27.8,-2.7 -13.7,1.8 -27.5,3.5 -41.2,5.2 -1.8,0.2 -3.8,0 -5.5,-0.6 -4.9,-1.6 -9.9,-2.5 -15.1,-2.4 -4.3,0 -8.6,0 -12.9,0 -5.9,0 -10.9,-2 -15.4,-6 -12.6,-11.7 -26.8,-21.2 -41.3,-30.3 -18,-11.3 -36.1,-22.5 -54.1,-33.9 -14.7,-9.3 -28.7,-19.5 -41.7,-31.2 -3.9,-3.5 -7.7,-4.4 -12.5,-2.4 -7.6,3.1 -15.3,5.8 -22.8,9.3 -8.4,4 -16.3,3.2 -24.4,-0.9 -7.2,-3.7 -10.8,-9.4 -10.7,-17.5 0,-0.8 0,-1.6 0,-2.4 0,-0.1 -0.1,-0.2 -0.4,-0.8 -0.8,1.5 -1.5,2.7 -2.7,4.8 -1.4,-6 -1.6,-10.7 2.3,-15 3.8,-4.2 7.4,-8.6 11,-12.9 0.6,-0.7 1.1,-1.5 1.8,-2.3 -7.4,-5.8 -14.6,-11.6 -21.9,-17.3 -7.4,-5.9 -14.6,-11.9 -22.1,-17.6 -7.4,-5.6 -14.8,-11.2 -22.5,-16.4 -7.8,-5.3 -16,-10 -23.9,-15.1 -7.8,-4.9 -16.2,-8.9 -23.4,-15 2,-1.9 3.7,-1.5 5.6,-1.2 13.2,2.4 25.1,7.7 36.5,14.5 11.2,6.7 21.7,14.5 32,22.6 13.7,10.7 27.3,21.4 41,32.1 2.2,1.7 4.6,3.3 7.2,5.2 3.4,-3.3 6.7,-6.4 9.9,-9.6 0.6,-0.6 1.1,-1.6 1.4,-2.4 1.1,-2.9 3,-4.5 5.9,-3.6 7.8,2.3 15.8,1 23.7,1.4 7.9,0.3 15.9,0.5 23.8,1 8.3,0.5 8.3,0.7 13.4,6.3 0.6,-1 1.1,-2 1.7,-3 0.3,0.1 0.8,0.1 1,0.3 3.9,3.4 7.8,6.6 11.5,10.2 5.8,5.7 9.9,16.2 9.5,23.8 -2.6,-1.9 -4.6,-4 -5.7,-7.1 -2.4,-6.7 -6.9,-12.1 -11.8,-17.2 -1.9,-1.9 -3.5,-4.4 -5.7,-5.6 -2.1,-1.1 -4.9,-1.1 -7.4,-1.3 -11.9,-1.1 -23.8,-2.2 -35.8,-3.2 -3.8,-0.3 -7.5,-0.6 -11.3,-0.9 -4.6,-0.4 -8.2,1.2 -10.5,5.3 -0.5,0.9 -1.2,1.8 -2,2.5 -4.4,3.9 -7.9,8.5 -10.9,13.4 -0.5,0.9 -1.4,1.6 -2.3,2.2 -6.9,5.4 -11.4,12.4 -13.8,20.7 -1.7,6.1 0,9.6 5.4,12.9 0.7,0.4 1.4,0.8 2.1,1.2 6.8,4.4 13.6,3.2 20.2,-0.3 3.2,-1.7 6.2,-3.7 9.5,-5.4 1.9,-1 4,-1.9 6,-2.2 6.5,-0.7 12.4,-3.6 18.4,-5.9 2.6,-1 5.3,-1.9 7.9,-3.1 3.8,-1.7 6.7,-0.9 9.2,2.3 3.6,4.6 7.2,9 10.8,13.6 2.1,2.8 4.1,5.6 6.5,9 -2,-0.4 -3.4,-0.7 -4.7,-1 -0.1,0.3 -0.3,0.5 -0.4,0.8 9,6.2 17.9,12.5 27.4,19.1 -0.2,-1.5 -0.2,-2.4 -0.4,-3.2 -0.4,-2.7 -1.1,-5.3 -1.3,-7.9 -0.3,-4.2 -1.2,-8 -3.5,-11.8 -1.9,-3.1 -3.1,-6.9 -3.8,-10.5 -1,-5 -1.2,-10.1 -1.7,-15.2 -0.1,-1 0.2,-2 0.3,-3.2 2.8,0.8 4.4,2.2 5.2,4.5 2.1,6.4 4.6,12.6 6.4,19.1 3.1,11.8 7.8,22.9 13.1,33.8 2,4 5.1,6.9 8.8,9.2 5.4,3.4 10.7,6.8 16.1,10 19.3,11.3 37.8,23.9 54.4,38.9 5.4,4.9 10.7,6.8 18.1,5.7 18.6,-2.8 37.4,-4.8 56.1,-7.1 10.2,-1.3 20.5,-2.5 30.5,0.4 12.4,3.6 24.7,7.6 36.8,12 9.6,3.5 16.8,10.4 22.9,18.6 2.4,3.2 4.8,6.5 7.3,9.7 3.8,4.8 8.2,8.9 13.1,12.5 3.6,2.6 7.1,5.4 10.5,8.2 10.9,9.1 22.8,16.7 35.2,23.4 7,3.8 14.5,5.5 22.3,6.3 6.9,0.7 13.9,1.8 20.7,3.2 6.3,1.3 11.2,5.1 14.7,10.5 8.9,13.8 17.7,27.6 26.7,41.4 2.5,3.8 2.6,7.4 0.8,11.4 -3.3,7.4 -8.9,10.8 -16.9,10.7 -2.1,0 -4.3,0.2 -6.4,0.4 -1.1,0.1 -2.2,0.6 -4.3,1.3 2,1.2 3.2,1.9 4.4,2.6 27.2,15.9 55.5,29.7 83.8,43.4 13.8,6.7 27.4,13.8 40.6,21.7 19.4,11.499995 39.2,22.599995 58.7,33.899995 3.8,2.2 7.5,4.7 11.5,7.2 -2,3.5 -3.9,6.7 -5.9,10.1 -1.1,-0.5 -2.1,-0.9 -2.9,-1.4 -22.1,-13.1 -44.3,-26.1 -66.4,-39.2 -14.5,-8.599995 -29.5,-16.199995 -44.7,-23.199995 -25.6,-11.8 -49.5,-26.7 -73.6,-41 -0.5,-0.3 -0.9,-0.6 -1.4,-0.9 -4.7,-3.3 -10.2,-6.1 -9.3,-12.9 -0.6,-0.4 -0.8,-0.7 -1,-0.7 -15,-3.2 -28.8,-9.6 -43,-15.1 -4.1,-1.6 -7.5,-1.4 -10.9,1.2 -3.4,2.6 -7,5 -10.5,7.5 -2.4,1.7 -3.6,3.9 -4,7.1 -2,19.2 -1.9,38.4 0.9,57.6 0.3,2.1 1,4.2 1.5,6.2 0.6,2.3 1.3,4.6 2.1,7 0.7,2.299995 0.6,4.599995 -1,6.499995 -1.1,1.3 -1.1,2.7 -0.6,4.1 0.4,1.1 0.8,2.3 1.2,3.4 7.3,18.6 11.8,38 16.8,57.3 3.6,14 8,27.6000003 12.6,41.3 1.2,3.6 2.2,7.2 3,10.9 1.4,6 4.4,10.9 9,14.9 0.3,0.3 0.6,0.5 0.9,0.8 17.9,12.9 33.8,28.5 53.2,39.3 4.3,2.4 8.1,5.8 12,8.9 17.3,13.500005 34.5,27.100005 51.8,40.700005 2.2,1.7 4.7,3.1 7.1,4.6 1.8,1.2 3.7,2.2 5.4,3.5 4.4,3.3 5.2,6.1 3.2,12.2 -3.1,0 -6.5,-0.3 -9.7,0.1 -5.3,0.6 -9.4,-1.3 -13.5,-4.6 -19.1,-15.2 -38.3,-30.1 -57.6,-45.100005 -2.8,-2.2 -5.6,-4.2 -8.4,-6.4 -8.7,-6.6 -17.4,-13.1 -26,-19.8 -2.9,-2.3 -5.7,-3.1 -9.3,-1.9 -5.1,1.7 -10.3,3 -15.5,4.5 -8.5,2.6 -17.1,3.7 -25.9,2.8 -1.7,-0.2 -3.5,-0.2 -5.2,-0.1 -4.7,0.3 -8.8,-1.2 -12.1,-4.5 -2.2,-2.1 -4.2,-4.5 -6.1,-7 -11.7,-15 -21.3,-31.4 -30,-48.3 -3.7,-7 -7.9,-13.7999997 -11.9,-20.5999997 -2.6,-4.4 -6,-8.2000003 -10,-11.6000003 -4.6,-3.9 -9.8,-5.8 -15.9,-6 -16.2,-0.4 -32.3,-1 -48.4,-1.6 -1.9,-0.1 -3.7,-0.4 -5.6,-0.7 -5.6,-1 -10,-3.9 -12.9,-8.8 -4.5,-7.6 -11.1,-10.5 -19.7,-9.8 -10.6,0.8 -21.2,1.3 -31.9,1.8 -2,0.1 -4,0 -6,-0.1 -7.6,-0.3 -12.6,-4.3 -15.2,-11.2 -1.2,-3 -2,-6.2 -3,-9.2 -4.1,-11.8 -8.7,-23.5 -12.4,-35.4 -6.3,-20.399995 -12,-40.999995 -17.9,-61.599995 -2,-7.1 -3.8,-14.3 -5.7,-21.4 -0.8,-3.1 -2.1,-5.8 -4.7,-8.3 -5.4,5.3 -10.7,3.6 -16.5,0.4 -3.8,-2.1 -8.2,-3.5 -12.5,-4.3 -6.1,-1.1 -11.7,-3.2 -16.6,-7 -5.3,-4.2 -11,-5.4 -17.4,-3.9 -5.9,1.4 -11.7,3 -17.6,4.5 -0.9,0.2 -1.8,0.7 -2.4,1.3 -5.3,4.8 -11.7,6.9 -18.6,8.1 -10.2,1.7 -20.4,3.4 -30.6,5.5 -9.5,1.9 -18.6,5.3 -27.2,9.8 -4.3,2.3 -8.8,3.4 -13.6,3 -10.9,-0.8 -21.7,-1.9 -32.6,-2.9 -2,-0.2 -4,-0.5 -6,-0.4 -4.7,0.2 -9.1,-0.8 -13.3,-2.8 -4.6,-2.3 -9.1,-4.6 -13.5,-7.2 -4.6,-2.7 -7.6,-6.9 -9.6,-11.7 -2.6,-6.2 -5.2,-12.4 -7.6,-18.7 -1.7,-4.5 -4.2,-7.9 -9,-9.7 -4.7,-1.8 -8.4,-5.3 -11.6,-9.2 -4.6,-5.6 -9.3,-11.2 -14.1,-16.6 -4.6,-5.1 -8.2,-10.7 -9.4,-17.5 -0.6,-3.2 -2.6,-5.6 -4.8,-7.7 -4.2,-4 -8.5,-7.9 -12.9,-11.6 -9.1,-7.7 -17.4,-16 -24.5,-25.6 -2.7,-3.7 -6,-7 -9.4,-9.9 -7.5,-6.3 -12,-13.9 -12.6,-23.9 -0.3,-5.3 -1.9,-10.6 -2.6,-15.9 -0.4,-2.7 -1.8,-4.3 -4.1,-5.5 -13.3,-6.5 -26.6,-13 -39.8,-19.6 -1.9,-0.9 -4,-1.7 -5.8,-2.8 -3.6,-2.2 -4.3,-6.8 -1.8,-10.2 1.5,-1.9 3.5,-2.6 5.7,-2 4.3,1.1 8.7,1.9 12.8,3.6 13.9,5.9 27.6,12.2 41.3,18.3 4.9,2.2 9.9,4.2 15.1,6.4 0.8,-0.8 1.5,-1.5 2.1,-2.4 2,-2.7 4,-5.4 5.9,-8.2 4.9,-7 11.7,-11.3 19.8,-13.9 11.3,-3.6 22.9,-6.2 34.6,-7.8 19.3,-2.6 38.6,-3.3 58,-2.7 5.2,0.2 10.1,1.5 14.9,3.4 4.4,1.8 8.3,4.5 11.4,8.1 2.2,2.5 4.5,5 6.7,7.6 4.8,5.5 4.8,11.9 -0.1,17.4 -4.1,4.6 -9,8.2 -14.7,10.4 -5.6,2.2 -11.4,4 -17.2,5.6 -12,3.1 -24,6 -36,8.9 -1.4,0.3 -2.7,0.9 -4.1,1.7 7.4,3.7 14.7,6.8 23.2,6.3 25.1,-1.5 50.3,-2.6 75.4,-3.8 3.1,-0.1 6.2,0.1 9.3,0.3 3,0.2 5.9,0 8.7,-1.1 3.1,-1.3 3.4,-1 3.8,2.8 3.7,1.1 7.5,2.8 11.5,3.2 6.3,0.6 11,4 15.8,7.5 3.4,2.4 5.1,5.9 5.6,9.9 0.7,5.4 -0.5,10.4 -4.2,14.7 -1,1.1 -1.9,2.2 -3,3.4 2.4,2.3 4.6,4.4 7.3,6.8 -2,1 -3.8,1.8 -6.1,3 1.3,0.2 2.1,0.5 2.9,0.5 7.7,0 15.3,0 23,-0.1 5.2,-0.1 10.2,0.7 15,2.5 1.7,0.6 2.9,1.4 3.5,3.4 0.4,1.4 2.2,2.7 3.6,3.4 5.8,2.9 6.9,4.6 6.5,11.1 -0.1,2.4 -0.5,4.8 -0.7,7.3 3.9,2.2 7.6,4.3 11.3,6.5 14.7,8.8 29.3,17.7 43.9,26.4 4.3,2.6 7,6.2 8.5,10.8 1.4,4.4 2.7,8.7 3.9,13.1 0.9,3.3 2.3,6.3 5.1,8.5 0.9,0.7 1.6,1.8 2.1,2.9 1.7,3.3 3.3,6.8 5,10.1 5.4,10.2 8.6,21.2 11.2,32.3 7.4,31.2 17,61.699995 26.8,92.199995 0.1,0.4 0.4,0.7 0.6,1.2 0.6,0.1 1.2,0.2 1.9,0.2 11.6,0 23.2,0 34.7,-0.1 2.8,0 5.6,-0.4 8.5,-0.6 3.1,-0.3 5.9,0 7.6,3.2 0.4,0.8 1.6,1.3 2.6,1.8 5.1,2.4 9.9,5.1 14,9.3 5.3,5.4 12.2,7.8 19.7,8.1 2.1,0.1 4.3,0.1 6.5,0 15,-0.3 29.8,1.3 44.6,3.9 4.5,0.8 8.4,2.5 11.6,6 2.5,2.9 5.9,4.2 9.8,3.9 3.3,-0.3 6.7,-0.8 10,-1.3 3.7,-0.6 7.3,-0.5 11.1,0.3 -7.9,2.3 -16.1,2.3 -24.5,4.1 0.8,1.5 1.4,2.6 2.1,3.7 9.5,13.9000003 19,27.7 28.5,41.6 6.9,10.1 13.7,20.3 20.6,30.4 4.7,7 10.8,8.2 18,3.6 2.3,-1.4 4.6,-2.8 7,-4 4.2,-2.1 4.8,-3.2 3.4,-7.6 -3.5,-11 -7.1,-22 -10.7,-33 -10.5,-32 -19.7,-64.3 -28.5,-96.8 -1.2,-4.4 -1.5,-9 -2,-13.5 0.3,-4.499995 0.2,-9.199995 0,-13.899995 z m -466.3,-124.4 0,0 c -1.2,-2.3 -2.4,-4.8 -3.8,-7.4 1.4,-0.1 2.5,-0.2 3.6,-0.2 15.3,-0.2 30.7,0 46,-0.5 14.4,-0.5 28.8,-1.1 43.1,-2.6 17.7,-1.8 34.2,-7.9 50,-15.9 4.2,-2.1 5.3,-5.9 3.3,-10.2 -0.7,-1.6 -2.1,-3 -2.4,-4.6 -1,-4.8 -4.3,-5.5 -8.4,-5.3 -1.5,0.1 -3,0.1 -4.4,0.1 -9,0.4 -18,0.9 -27,1.1 -11.7,0.2 -23.4,-0.2 -35.1,0.1 -10.2,0.3 -20.5,0.6 -30.6,1.9 -13.4,1.7 -26.7,3.1 -40.2,3.4 -2.7,0 -5.4,0.4 -8.1,0.5 -2,0.1 -3.2,0.8 -3.6,3 -0.2,1.1 -0.8,2.3 -1.6,3 -10.1,9.4 -13,20.6 -8.4,33.7 1,2.9 1.8,5.8 2.8,8.7 -1.3,0.3 -2.1,0.5 -3.3,0.7 1.7,3.3 3.3,6.1 4.7,9 2,4.1 4.4,8.2 5.4,12.5 1.1,5 4,6.9 8.5,7.8 3.2,0.6 6.3,1.3 9.4,2.1 6.9,1.8 13.7,4.1 20.6,5.6 12.4,2.8 24.2,1.5 35.5,-4.9 4,-2.3 8.6,-3.9 13.1,-4.9 10.2,-2.3 20.6,-4 30.9,-5.8 8,-1.4 15.8,-3.1 22.4,-8.3 3.1,-2.4 6.9,-3.5 10.9,-3.9 3.5,-0.4 7,-0.7 10.4,-1.1 8.7,-1.1 17.3,-2.5 25.5,-5.8 1.9,-0.8 3.2,-0.2 4.5,1.3 1.7,1.9 3.6,3.6 5.6,5.2 9.7,7.7 20.9,12.6 32.2,17.3 0.1,0 0.2,-0.1 0.6,-0.3 -0.2,-0.7 -0.4,-1.4 -0.7,-2.1 -1.7,-5.3 -2.7,-10.6 -0.5,-16.1 1.4,-3.5 0.5,-5.6 -2.8,-7.4 -3.8,-2 -7.7,-3.8 -11.7,-5.5 -12.5,-5.4 -25,-10.7 -37.5,-15.9 -4.6,-1.9 -9.5,-3.1 -14.6,-2.1 -0.6,0.1 -1.7,0.3 -1.9,0 -1.4,-2.1 -2.9,-0.6 -4.2,-0.2 -8.8,2.6 -17.4,5.5 -26.2,7.9 -28,7.5 -56.5,11.1 -85.5,8.9 -0.5,0 -1.1,0.1 -2.1,0.3 3.4,2.1 6.4,3.7 9.1,5.6 2.8,2 4.8,4.7 5.5,8.5 -0.9,0 -1.3,0.1 -1.7,0 -9.6,-3.4 -19.3,-6.8 -28.8,-10.4 -1.5,-0.6 -2.9,-1.9 -4,-3.2 -1.1,-1.8 -2.3,-3.5 -4.5,-3.6 z m 69.5,-104.3 c -3,3.4 -7.3,4.9 -12,5.3 -1.7,0.2 -3.5,0.3 -5.2,0.4 -16.7,0.9 -33.3,1.7 -50,2.7 -8.7,0.5 -17.5,1 -26,3 -4.6,1.1 -9.2,1.7 -14,0.7 -1.2,-0.2 -2.4,-0.1 -3.6,0 -7.2,0.6 -14.5,1 -21.7,1.8 -9.1,0.9 -18.2,1.9 -27.2,3.3 -3.4,0.5 -6.8,1.8 -9.8,3.4 -3.6,1.9 -3.9,5.4 -1.2,8.5 0.7,0.8 1.5,1.5 2.4,2.2 3.1,2.6 6.2,5.1 9.4,7.7 7.2,5.9 12.7,13.1 16.8,21.4 1.5,3 2.7,6.2 4,9.3 1.6,3.8 3.6,7.2 6.5,10.1 3.4,3.5 6.6,7.1 9.8,10.7 2,2.2 3.8,4.6 5.8,6.8 2.5,2.7 5.5,3.9 9.5,3.7 -2,-12.5 2.3,-23 9.5,-32.5 -1,-0.8 -1.6,-1.3 -2.2,-1.8 -3,-2.6 -6.2,-3.6 -10,-1.6 -0.6,0.3 -1.4,0.2 -2.4,0.2 3.5,-8.4 8.9,-13.8 18,-14.7 5.2,-0.5 10.5,-0.9 15.7,-1.3 8.6,-0.7 17.2,-1.2 25.7,-2.2 13.1,-1.5 26.1,-3.4 39.2,-5.3 8.2,-1.2 16.5,-2.5 24.7,-3.8 2,-0.3 3.5,-1 4.7,-2.7 1.8,-2.7 3.7,-5.2 5.6,-7.8 3.3,-4.5 3.1,-7.8 -1.2,-11.6 -1.4,-1.3 -2.9,-2.4 -4.5,-3.4 -3.9,-2.8 -7.9,-5.6 -11.8,-8.4 -1.6,-1.2 -3,-2.7 -4.5,-4.1 z m -125.8,3.8 c -3.4,-3.3 -7,-3.9 -10.9,-3.5 -3.3,0.4 -6.7,1.1 -10,1 -2.5,-0.1 -4.9,-0.3 -7.1,1.1 -1.5,-1.8 -1.7,-3.5 -0.5,-5 2.3,-3 4.6,-5.8 9.1,-5.5 5.4,0.4 10.4,-1.1 14.7,-4.5 1.1,-0.9 2.6,-1.4 4,-1.7 11.5,-2.8 23,-5.5 34.5,-8.3 8,-2 15.9,-4 23.8,-6.3 5.4,-1.6 10.1,-4.5 13.9,-8.6 2.2,-2.4 2.4,-3.9 0.6,-6.5 -5.8,-8.4 -13.4,-14.5 -23.8,-15.7 -5.3,-0.7 -10.7,-0.5 -16.1,-0.2 -12.1,0.5 -24.2,0.9 -36.3,2 -13.9,1.3 -27.6,4.5 -41,8.7 -7.7,2.4 -13.4,7.3 -17.3,14.3 -0.9,1.6 -1.7,2.9 -0.5,4.8 0.5,0.8 0.1,2.3 -0.3,3.4 -0.5,1.5 -1.3,2.9 -2,4.5 -1,0 -2,0 -3.2,0 -0.6,2.2 -1,4.3 -1.7,6.3 -2.4,7.1 -1.1,13.8 2.4,20.2 2.1,3.8 3.9,7.7 6.1,11.4 1.4,2.4 3.3,4.4 5,6.6 0.6,-0.5 0.9,-0.6 1,-0.8 2.1,-6.7 7,-10.3 13.6,-11.8 5.2,-1.2 10.5,-2.4 15.8,-3.1 8.6,-1.1 17.1,-1.8 26.2,-2.8 z"
       id="path1172"
       inkscape:connector-curvature="0" />
    <path
       d="m -1614.9012,-87.801295 c -0.3,-0.2 -0.7,-0.4 -0.9,-0.7 -3.4,-6.4 -6.8,-12.799995 -10.6,-19.899995 1.4,0.3 2.5,0.1 3,0.6 5.2,5.4 8.7,11.599995 9,19.199995 -0.1,0.3 -0.3,0.5 -0.5,0.8 z"
       id="path1174"
       inkscape:connector-curvature="0" />
    <path
       d="m -1565.7012,-70.301295 c -5.7,-10.9 -10.9,-20.9 -16.3,-31.299995 5.3,3.199995 15.4,22.399995 16.3,31.299995 z"
       id="path1176"
       inkscape:connector-curvature="0" />
    <path
       class="st0"
       d="m -1927.0012,-234.10129 c 2.3,0.2 3.4,1.8 4.8,3.4 1.1,1.3 2.4,2.6 4,3.2 9.6,3.6 19.2,6.9 28.8,10.4 0.4,0.1 0.8,0 1.7,0 -0.6,-3.8 -2.6,-6.5 -5.5,-8.5 -2.7,-1.9 -5.7,-3.5 -9.1,-5.6 1.1,-0.1 1.6,-0.3 2.1,-0.3 29,2.2 57.5,-1.4 85.5,-8.9 8.8,-2.4 17.5,-5.3 26.2,-7.9 1.3,-0.4 2.8,-1.9 4.2,0.2 0.2,0.3 1.3,0.1 1.9,0 5.1,-1 9.9,0.1 14.6,2.1 12.5,5.2 25,10.5 37.5,15.9 3.9,1.7 7.9,3.5 11.7,5.5 3.4,1.8 4.3,3.9 2.8,7.4 -2.2,5.5 -1.3,10.8 0.5,16.1 0.2,0.7 0.5,1.4 0.7,2.1 -0.4,0.2 -0.5,0.3 -0.6,0.3 -11.3,-4.7 -22.6,-9.5 -32.2,-17.3 -2,-1.6 -3.9,-3.3 -5.6,-5.2 -1.3,-1.5 -2.6,-2.1 -4.5,-1.3 -8.2,3.4 -16.8,4.7 -25.5,5.8 -3.5,0.4 -7,0.7 -10.4,1.1 -4,0.4 -7.8,1.5 -10.9,3.9 -6.6,5.2 -14.4,6.9 -22.4,8.3 -10.3,1.8 -20.7,3.5 -30.9,5.8 -4.5,1 -9.1,2.6 -13.1,4.9 -11.3,6.4 -23.1,7.7 -35.5,4.9 -6.9,-1.6 -13.7,-3.8 -20.6,-5.6 -3.1,-0.8 -6.3,-1.5 -9.4,-2.1 -4.4,-0.9 -7.3,-2.8 -8.5,-7.8 -1,-4.4 -3.5,-8.4 -5.4,-12.5 -1.4,-2.9 -3,-5.7 -4.7,-9 1.2,-0.3 2,-0.5 3.3,-0.7 -0.9,-2.9 -1.8,-5.8 -2.8,-8.7 -4.6,-13.1 -1.7,-24.3 8.4,-33.7 0.8,-0.7 1.4,-1.9 1.6,-3 0.3,-2.2 1.6,-2.9 3.6,-3 2.7,-0.1 5.4,-0.4 8.1,-0.5 13.5,-0.2 26.8,-1.7 40.2,-3.4 10.1,-1.3 20.4,-1.6 30.6,-1.9 11.7,-0.3 23.4,0.1 35.1,-0.1 9,-0.1 18,-0.7 27,-1.1 1.5,-0.1 3,0 4.4,-0.1 4,-0.2 7.4,0.4 8.4,5.3 0.3,1.6 1.7,3 2.4,4.6 2,4.3 0.9,8.1 -3.3,10.2 -15.8,8 -32.3,14.1 -50,15.9 -14.3,1.5 -28.7,2.1 -43.1,2.6 -15.3,0.5 -30.7,0.4 -46,0.5 -1.1,0 -2.1,0.1 -3.6,0.2 1,2.8 2.3,5.2 3.5,7.6 -0.2,-0.1 -0.5,-0.4 -0.9,-0.6 -1.3,-0.5 -2.4,-0.5 -2.9,1.1 -0.4,1.3 0.5,3.2 1.6,3.2 1.5,0.1 2.2,-0.8 2.4,-2.2 0,-0.5 -0.2,-1 -0.2,-1.5 z"
       id="path1178"
       inkscape:connector-curvature="0"
       style="fill:#ffffff" />
    <path
       class="st0"
       d="m -1857.5012,-338.40129 c 1.5,1.4 2.8,2.9 4.4,4.1 3.9,2.9 7.9,5.6 11.8,8.4 1.5,1.1 3.1,2.2 4.5,3.4 4.2,3.9 4.5,7.1 1.2,11.6 -1.9,2.6 -3.8,5.2 -5.6,7.8 -1.2,1.7 -2.8,2.4 -4.7,2.7 -8.2,1.2 -16.5,2.6 -24.7,3.8 -13,1.8 -26.1,3.7 -39.2,5.3 -8.5,1 -17.1,1.5 -25.7,2.2 -5.2,0.4 -10.5,0.8 -15.7,1.3 -9.1,0.8 -14.4,6.3 -18,14.7 1,-0.1 1.8,0.1 2.4,-0.2 3.8,-2.1 7,-1.1 10,1.6 0.6,0.5 1.2,1 2.2,1.8 -7.2,9.5 -11.5,20 -9.5,32.5 -3.9,0.2 -7,-1 -9.5,-3.7 -2,-2.2 -3.8,-4.5 -5.8,-6.8 -3.2,-3.6 -6.4,-7.3 -9.8,-10.7 -2.9,-3 -4.9,-6.4 -6.5,-10.1 -1.3,-3.1 -2.5,-6.2 -4,-9.3 -4.1,-8.3 -9.6,-15.5 -16.8,-21.4 -3.1,-2.6 -6.2,-5.1 -9.4,-7.7 -0.8,-0.7 -1.7,-1.4 -2.4,-2.2 -2.7,-3.1 -2.4,-6.6 1.2,-8.5 3,-1.6 6.4,-2.9 9.8,-3.4 9,-1.4 18.1,-2.3 27.2,-3.3 7.2,-0.7 14.5,-1.2 21.7,-1.8 1.2,-0.1 2.5,-0.3 3.6,0 4.7,1 9.4,0.3 14,-0.7 8.6,-2 17.3,-2.5 26,-3 16.7,-1 33.3,-1.8 50,-2.7 1.7,-0.1 3.5,-0.3 5.2,-0.4 4.9,-0.5 9.1,-1.9 12.1,-5.3 z"
       id="path1180"
       inkscape:connector-curvature="0"
       style="fill:#ffffff" />
    <path
       class="st0"
       d="m -1983.3012,-334.60129 c -9.1,0.9 -17.6,1.6 -26,2.7 -5.3,0.7 -10.6,1.9 -15.8,3.1 -6.6,1.5 -11.5,5.1 -13.6,11.8 -0.1,0.2 -0.4,0.3 -1,0.8 -1.7,-2.2 -3.5,-4.3 -5,-6.6 -2.2,-3.7 -4.1,-7.6 -6.1,-11.4 -3.5,-6.4 -4.8,-13 -2.4,-20.2 0.7,-2 1.1,-4.1 1.7,-6.3 1.2,0 2.2,0 3.2,0 0.7,-1.6 1.5,-3 2,-4.5 0.4,-1.1 0.8,-2.6 0.3,-3.4 -1.1,-1.9 -0.3,-3.3 0.5,-4.8 3.9,-7 9.6,-11.9 17.3,-14.3 13.4,-4.2 27,-7.4 41,-8.7 12,-1.1 24.2,-1.5 36.3,-2 5.4,-0.2 10.8,-0.4 16.1,0.2 10.4,1.3 18,7.3 23.8,15.7 1.8,2.6 1.6,4.1 -0.6,6.5 -3.9,4.1 -8.6,7 -13.9,8.6 -7.9,2.3 -15.8,4.3 -23.8,6.3 -11.5,2.8 -23,5.5 -34.5,8.3 -1.4,0.3 -2.9,0.9 -4,1.7 -4.4,3.4 -9.4,4.8 -14.7,4.5 -4.5,-0.3 -6.8,2.5 -9.1,5.5 -1.2,1.5 -1,3.3 0.5,5 2.2,-1.4 4.6,-1.1 7.1,-1.1 3.3,0.1 6.7,-0.6 10,-1 3.7,-0.3 7.2,0.3 10.7,3.6 z"
       id="path1182"
       inkscape:connector-curvature="0"
       style="fill:#ffffff" />
    <path
       d="m -1927.0012,-234.10129 c 0.1,0.5 0.3,1 0.2,1.5 -0.1,1.4 -0.9,2.3 -2.4,2.2 -1.1,-0.1 -2,-1.9 -1.6,-3.2 0.5,-1.6 1.6,-1.6 2.9,-1.1 0.3,0.1 0.6,0.4 0.9,0.6 0,0.1 0,0 0,0 z"
       id="path1184"
       inkscape:connector-curvature="0" />
  </g>
</svg>
