<?xml version="1.0" encoding="UTF-8" standalone="no"?>
<!-- Created with Inkscape (http://www.inkscape.org/) -->

<svg
   xmlns:dc="http://purl.org/dc/elements/1.1/"
   xmlns:cc="http://creativecommons.org/ns#"
   xmlns:rdf="http://www.w3.org/1999/02/22-rdf-syntax-ns#"
   xmlns:svg="http://www.w3.org/2000/svg"
   xmlns="http://www.w3.org/2000/svg"
   xmlns:sodipodi="http://sodipodi.sourceforge.net/DTD/sodipodi-0.dtd"
   xmlns:inkscape="http://www.inkscape.org/namespaces/inkscape"
   width="190.4662mm"
   height="193.29964mm"
   viewBox="0 0 674.88024 684.91997"
   id="svg3535"
   version="1.1"
   inkscape:version="0.91 r13725"
   sodipodi:docname="immersive.svg">
  <defs
     id="defs3537" />
  <sodipodi:namedview
     id="base"
     pagecolor="#ffffff"
     bordercolor="#666666"
     borderopacity="1.0"
     inkscape:pageopacity="0.0"
     inkscape:pageshadow="2"
     inkscape:zoom="0.35"
     inkscape:cx="1149.583"
     inkscape:cy="116.74569"
     inkscape:document-units="px"
     inkscape:current-layer="layer1"
     showgrid="false"
     fit-margin-top="0"
     fit-margin-left="0"
     fit-margin-right="0"
     fit-margin-bottom="0"
     inkscape:window-width="1920"
     inkscape:window-height="1056"
     inkscape:window-x="0"
     inkscape:window-y="24"
     inkscape:window-maximized="1" />
  <metadata
     id="metadata3540">
    <rdf:RDF>
      <cc:Work
         rdf:about="">
        <dc:format>image/svg+xml</dc:format>
        <dc:type
           rdf:resource="http://purl.org/dc/dcmitype/StillImage" />
        <dc:title></dc:title>
      </cc:Work>
    </rdf:RDF>
  </metadata>
  <g
     inkscape:label="Layer 1"
     inkscape:groupmode="layer"
     id="layer1"
     transform="translate(774.58297,35.812066)">
    <g
       transform="translate(-964.88297,-59.280981)"
       id="Layer_1" />
    <g
       transform="translate(-964.88297,-59.280981)"
       id="Layer_2" />
    <path
       d="m -386.18297,516.61901 c 1.4,0.5 1.3,1.7 0.6,3.2 -3.8,8.2 -7.3,16.5 -11.2,24.6 -3,6.2 -6.7,12 -9.8,18.1 -1.9,3.6 -3.3,7.5 -5,11.3 9.2,2.2 18.2,4.7 19,16.8 0.3,-0.7 0.8,-1.4 1,-2.1 0.5,-2.5 0.8,-5.1 1.5,-7.6 0.2,-0.9 1.1,-1.7 1.6,-2.6 1.5,-2.6 2.7,-5.5 4.6,-7.8 2.5,-3 5.2,-5.9 8.4,-8 7.6,-5.2 16,-8 25.3,-7.3 4.9,0.4 8.5,5 6.8,10 -2.1,6.4 -6.2,11.2 -12.3,14.2 -2.3,1.2 -4.4,2.8 -6.9,3.9 1.6,-1.5 2.9,-3.3 4.7,-4.4 4.7,-2.7 7.9,-6.7 10.6,-11.3 0.4,-0.8 0.8,-1.6 1.1,-2.5 1.3,-3.9 -1,-7.3 -5.1,-7.3 -10.7,0.1 -20,3.3 -27.6,11.2 -2.7,2.8 -4.7,5.9 -6.6,9.2 -1.8,3.1 -3.1,6.4 -3.9,9.8 -0.4,1.8 -1.1,3.6 -3.4,3.3 -1.2,3.5 -2.3,6.9 -3.4,10.2 -0.2,0 -0.4,-0.1 -0.6,-0.1 0.3,-1.9 0.7,-3.8 0.9,-5.7 0.3,-2.9 0.9,-5.9 0.5,-8.7 -0.5,-2.9 -2.2,-5.7 -5.1,-7 -3.2,-1.5 -6.6,-2.5 -9.9,-3.7 -1.5,-0.5 -3,-0.4 -3.1,1.9 -0.8,-0.2 -1.5,-0.4 -2.2,-0.6 0.1,-0.5 0.1,-0.9 0.2,-1.3 -0.9,0.6 -1.7,1.1 -3,1.9 0.2,-0.9 0.3,-1.4 0.4,-2.1 -4.2,-0.2 -8,1.4 -11.9,2.6 -2.2,0.7 -3.1,2 -3.5,4.3 -1.7,8.4 -3.5,16.7 -5.4,25.1 -0.3,1.2 -1,2.2 -1.5,3.3 -0.2,-0.1 -0.4,-0.1 -0.7,-0.2 1.9,-9.3 3.8,-18.7 5.7,-28 -0.2,-0.1 -0.3,-0.2 -0.5,-0.2 -0.6,1 -1.1,2 -1.7,3.2 -0.3,-0.5 -0.6,-0.9 -0.8,-1.2 -2.5,3.2 -5,6.5 -7.5,9.8 -0.5,0.7 -0.8,1.6 -0.8,2.4 -0.2,2.4 -0.3,4.9 -0.4,7.3 -0.2,0 -0.4,0 -0.6,0 -0.1,-2.3 -0.3,-4.7 -0.4,-7.5 -1.9,1.7 -3.5,3.1 -5.1,4.5 0.8,3.8 3.6,5.5 6.8,7 -3.1,-0.7 -6.1,-1.3 -7.6,-4.5 -0.5,-1 -1.2,-1.4 -2.5,-1.1 -4.2,0.8 -8.1,-2.1 -9.7,-6.2 -1.8,-4.8 -4,-9.5 -6.2,-14.1 -1.5,-3.1 -3,-3.6 -6.8,-2.8 0.1,0.4 0.2,0.7 0.4,1.4 -0.6,-0.4 -1.4,-0.7 -1.3,-0.9 0,-0.7 0.2,-1.8 0.6,-1.9 1.2,-0.4 2.6,-0.4 4,-0.6 -2.4,-4.2 -3.5,-8.9 -7,-12.6 -6.4,-6.9 -12.5,-14.2 -18.7,-21.4 -0.7,-0.8 -1.4,-1.6 -2.2,-2.2 -5.1,-3.2 -8.3,-8.4 -12.3,-12.7 -2.8,-3.1 -5.2,-6.6 -7.6,-10 -1.1,-1.5 -2.3,-1.7 -3.9,-1.2 -3.2,1 -6.5,2 -9.7,2.9 -11.7,3.5 -23.5,6.8 -35.1,10.5 -26.4,8.3 -51.6,19.3 -74.1,35.7 -4.6,3.3 -9,7 -13.4,10.6 -10.6,8.6 -11,18.9 -4.1,30 3.8,6 8.8,10.9 14.3,15.4 8.5,6.8 18.3,10.5 28.9,12 0.9,0.1 1.8,0.1 2.7,0.1 0.8,0 1.6,0 2.4,0 0,0.2 0,0.4 0,0.7 -2,0 -4,0.3 -6,0 -8.6,-1.4 -16.8,-3.8 -24.2,-8.6 -10.3,-6.8 -18.9,-15.2 -23.1,-27.1 -2.5,-7.1 -1.2,-13.7 3.9,-19.1 8,-8.4 17.4,-15.1 27.1,-21.4 11,-7.2 22.7,-12.9 34.7,-18.1 12,-5.2 24.2,-9.7 36.8,-13.2 6.7,-1.9 13.3,-4.1 19.9,-6.2 3.7,-1.1 7.5,-2 11.2,-3.1 3,-0.9 5.9,-1.8 8.7,-2.7 -1.8,-3.8 -4,-7.6 -5.4,-11.8 -1.5,-4.4 -2.5,-9.1 -3.2,-13.7 -0.6,-3.7 -0.1,-7.6 -0.8,-11.3 -0.3,-1.7 0,-3 0.4,-4.6 0.6,-2.3 -0.1,-4.5 -1.6,-6.5 -0.9,-1.2 -1.8,-2.5 -2.9,-3.5 -3.2,-2.8 -4.3,-6.4 -5.1,-10.3 -0.6,-3 -1.7,-5.9 -2.1,-8.9 -0.5,-3.4 -0.5,-6.9 -0.6,-10.4 -0.2,-5.4 -0.2,-10.8 -0.4,-16.3 -0.1,-2.3 -0.4,-4.6 -0.9,-6.8 -1.6,-6.7 -0.7,-13.4 0,-20.1 0.2,-2 0.4,-4 0.7,-6.6 -0.7,0.9 -1,1.3 -1.3,1.7 -0.1,-0.1 -0.2,-0.1 -0.3,-0.2 0.7,-1.9 1.5,-3.8 2.2,-5.8 2.4,-6 4.5,-12.1 7.2,-17.9 1.4,-3 3.5,-5.6 5.4,-8.4 3.7,-5.4 7.5,-10.6 11.1,-16.1 1.5,-2.4 2.4,-5.3 3.7,-7.9 1.2,-2.4 3.1,-4.7 3.6,-7.2 1.2,-6.6 4.6,-12.4 5.3,-19.1 0.5,-4.4 2.5,-8.7 3.9,-13.2 1.4,0 2.9,0 4.6,0 0.1,0.5 0.1,1 0.2,1.7 1,-0.5 1.9,-0.9 3,-1.5 -0.7,-0.2 -1.3,-0.3 -2.3,-0.5 1.3,-0.5 2.2,-0.9 3.1,-1.1 7.9,-2.1 14.9,-6.4 22.5,-9 4.3,-1.5 8.8,-2.5 13.1,-3.8 1.9,-0.6 3.8,-1.5 5.7,-2.2 -0.1,-0.2 -0.1,-0.4 -0.2,-0.7 -1.3,0.3 -2.7,0.8 -4,0.8 -7.6,0.2 -14.7,2.3 -21.5,5.6 -6,3 -12.4,5.3 -18.6,7.8 -1.4,0.6 -3,0.7 -4.5,0.9 -1.9,0.2 -2.5,-1 -2.7,-2.7 -0.1,-1.1 -0.5,-2.1 -0.8,-3.1 -0.2,-0.7 -0.5,-1.3 -0.5,-2 0.1,-3.6 0.2,-7.2 0.3,-10.8 0,-0.6 -0.1,-1.2 -0.4,-1.7 -1.5,-2.2 -1.4,-2.8 0.6,-4.3 -0.7,-2.2 -1.3,-4.3 -1.9,-6.5 -1.5,-5.6 -3.2,-11.1 -4.4,-16.7 -0.7,-3.1 -0.6,-6.4 -0.8,-9.5 -0.1,-0.8 0,-1.7 -0.1,-2.5 -1.6,-7.5 -3.4,-15 -4.7,-22.6 -0.7,-3.9 -0.6,-7.9 -0.9,-11.8 -0.3,-4.5 -0.8,-9 -0.9,-13.5 -0.3,-7.2 -0.6,-14.5 -0.4,-21.7 0.2,-8.1 1,-16.1 1.4,-24.1 0.1,-2.7 -0.3,-5.5 -0.5,-8.3 -0.2,-2.4 -0.2,-4.8 -0.5,-7.2 -0.2,-1.6 -0.6,-3.3 -1.3,-4.8 -3.8,-7.6 -7.8,-15.2 -9.9,-23.599995 -1.5,-5.8 -3.1,-11.7 -3.9,-17.6 -0.8,-6 -0.5,-12.199996 -1.1,-18.299996 -0.8,-9.1 -1.8,-18.3 -3.1,-27.3 -0.4,-2.6 -2.3,-5 -2.9,-7.6 -0.7,-3 -1,-6.2 -1.2,-9.4 -0.2,-2.7000004 -0.2,-5.4000004 -0.4,-8.1000004 0,-0.6 -0.4,-1.4 -0.9,-1.8 -3.3,-3.6 -4.3,-7.8 -3.6,-12.4999996 0.4,-3 0.9,-5.9 1.4,-8.8 0,-0.2 0.1,-0.5 0.2,-0.6 1.8,-1.8 2,-4.3 3,-6.500001 0,0.900001 0,1.800001 0,2.800001 1.2,-1.4 2.3,-2.700001 3.6,-3.800001 0.5,-0.4 1.6,-0.4 2.3,-0.3 1.8,0.3 2.5,-0.5 2.8,-2.1 0.2,-1 0.5,-2.3 1.1,-2.8 2,-1.2 4.3,-2.3 6.5,-2.9 0.9,-0.2 2.5,0.6 3.3,1.4 2,2.1 4.2,3.2 7.2,3.1 0.6,0 1.5,0.3 1.8,0.8 1.5,2.6 3.8,4.800001 3.8,8.100001 0,1.6 -0.1,3.1 1.7,4 0.7,0.3 1.1,1.8 1.1,2.8 0,0.7 -1,1.3 -1.4,2.1 -0.3,0.6 -0.5,1.3 -0.5,1.9 0,6.3999996 0,12.7999996 0,19.0999996 -1.1,-0.7 -2.2,-2.7 -2.1,-4.8 0.2,-5.3 0.4,-10.6 0.6,-15.7999996 0.1,-1.6 0.6,-3.2 -1.1,-4.3 -0.2,-0.1 -0.3,-0.5 -0.3,-0.7 -1,-3.4 -2,-6.8 -2.9,-9.700001 -2.4,-0.5 -4.1,-0.9 -6.1,-1.3 -2.8,5.800001 -3.9,12.000001 -0.4,18.400001 -0.2,0.1 -0.4,0.1 -0.6,0.2 -0.6,-0.8 -1.1,-1.5 -1.7,-2.3 1.1,14.4999996 2.8,28.9 6,43.1 -1.5,-0.9 -2.3,-2.3 -2.6,-4 -0.2,-1.1 -0.1,-2.3 -0.6,-3.3 -2.2,-5 -1.9,-10.5 -3,-15.7000004 -0.8,-3.8 -0.6,-7.70000004 -0.9,-11.6 -0.4,-4.6 -0.8,-9.2999996 -1.1,-13.8999996 -0.1,-1.8 0,-3.6 0.5,-5.4 0.1,0.4 0.2,0.8 0.3,1 0.6,-1.3 1.5,-2.8 1.7,-4.300001 0.2,-1.9 -0.1,-3.9 -0.6,-5.7 -0.3,-1.1 -1.7,-1.1 -2.5,-0.1 -0.7,0.9 -1.3,2 -2,2.9 -0.7,0.9 -1.6,1.8 -2.3,2.7 0.8,-0.1 1.9,-0.2 3,-0.3 -0.1,0.2 -0.2,0.6 -0.4,0.6 -2.1,0.6 -4.1,1.300001 -5.4,3.300001 -0.1,0.1 -1,-0.1 -1.4,-0.4 -0.5,-0.3 -0.9,-0.8 -1.6,-1.3 -0.4,0.7 -0.7,1.2 -0.9,1.8 -0.4,1.2 -0.9,2 -2.3,2.3 -1.9,0.5 -3,3.1 -2.7,5.5 0,0.3 0.2,0.6 0.1,0.8 -1.9,4.2 1.9,7.6999996 1.2,11.7999996 -0.1,0.6 0.4,1.7 1,1.99999996 2.7,1.5 1.8,4.30000004 2.4,6.50000004 0.3,1.1 0.2,2.4 0,3.5 -0.7,5.0000004 2.2,7.9000004 5.6,10.6000004 0.2,0.2 0.4,0.3 0.4,1 -1,-0.2 -1.9,-0.3 -2.8,-0.5 0.8,4.3 1.9,8.8 2.6,13.4 1.2,7.1 2.2,14.2 3.1,21.4 0.2,1.5 0,3 0,4.6 -0.2,6.999996 0.3,13.899996 1.9,20.699996 1.1,5 2,10.1 4,14.8 2.5,5.999995 6,11.699995 9,17.599995 0.6,1.2 0.9,2.6 0.8,3.9 -0.2,3.8 0.7,7.6 0.8,11.4 0.1,4 0.1,8.1 0,12.1 -0.1,6.1 -0.3,12.2 -0.4,18.4 -0.1,5.6 -0.2,11.1 0,16.7 0.2,8.3 0.5,16.5 1,24.8 0.2,3 1,6 1.5,9 0.4,2.2 0.6,4.4 1,6.5 0.8,4.3 1.8,8.6 2.6,12.9 0.5,2.9 0.9,5.8 1.1,8.7 0.7,7.7 2.5,15.2 5.4,22.4 0.8,2.1 1.4,4.3 2.1,6.5 1.2,-0.4 2.2,-0.6 3.3,-0.9 0,0.5 0,0.8 0.1,1.1 0.3,1.2 0.7,3.5 1,3.5 1.7,0 3.8,-0.1 5.1,-1.1 5.4,-4.4 10.6,-9 15.8,-13.6 2.6,-2.4 5,-5 7.6,-7.5 0.8,-0.8 1.7,-1.4 2.6,-2.1 2.6,-2 2.7,-2 1.6,-5.1 -0.1,-0.3 -0.2,-0.7 -0.3,-1.1 1.8,-0.7 1.8,-2 1.8,-3.7 -0.3,-7.6 -4.3,-14.1 -6.3,-21.3 -2,-7.4 -4.8,-14.5 -7,-21.8 -2,-6.6 -3.5,-13.3 -5.4,-19.9 -0.4,-1.3 -1,-2.6 -1.6,-3.9 -2.7,-5.9 -4.3,-12.1 -6,-18.4 -1.4,-5.2 -3.4,-10.2 -5.1,-15.3 -0.2,-0.7 -0.4,-1.3 -0.6,-2.2 3.2,1.6 3.3,4.8 4.5,7.3 0.7,1.5 0.9,3.2 1.7,4.6 3.7,6.2 5.3,13.3 7.4,20 3.7,11.9 6.7,24 10.2,35.9 1.8,6.2 4.2,12.2 6.2,18.3 1.4,4.5 2.6,9.2 3.8,13.8 0.9,3.4 1.5,6.8 0.4,10.2 -0.5,1.6 -1.6,3.2 -2.6,4.5 -1.1,1.3 -2.6,2.3 -3.7,3.6 -1.7,1.9 -3.3,3.9 -5.2,5.8 1.4,-0.9 3,-1.6 4.2,-2.7 1.9,-1.8 3.5,-3.9 5.3,-5.9 0.3,-0.3 0.6,-0.6 1,-0.8 1.5,-0.7 6.1,0.6 7,2 0.8,1.2 1.7,2.4 2.4,3.7 0.9,1.6 1.6,3.4 2.4,5.1 0.3,0.6 0.4,1.4 0.8,1.6 2.2,1.2 2.5,3.3 2.5,5.4 -0.2,5.1 -0.6,10.2 -0.9,15.4 -0.1,2 -0.9,3.3 -2.7,4.2 1,-0.1 2,-0.2 3.1,-0.3 -0.8,2.2 -2.7,3.1 -5.2,2.9 -3.9,-0.3 -7.7,-0.6 -11.6,-0.8 -1.6,-0.1 -3.2,0.1 -4.8,0 -9.6,-1 -18,2.6 -26.1,7.2 -1.5,0.8 -3,1.8 -4.7,2.2 -1.7,0.4 -2.3,1.6 -2.6,2.9 -1.1,4.5 -1.8,9.2 -3.1,13.6 -1.9,6.3 -4,12.6 -6.2,18.8 -0.7,1.8 -2.1,3.4 -3.1,5.2 -0.4,0.7 -0.9,1.5 -0.8,2.1 0.4,2.5 -1.2,4.1 -2.4,5.9 -5.2,8 -10,16.4 -15.6,24.1 -3.4,4.7 -3.8,9.9 -5.2,15.1 -2,7.7 -2.1,15.7 -2.4,23.6 -0.4,10.1 -0.1,20.2 0.5,30.2 0.3,4.7 2,9.3 3.1,13.9 0.4,1.5 0.5,3.1 1.1,4.6 2,5.4 6.8,8.9 9.6,13.8 2.2,3.8 4.1,7.9 1.1,11.8 -2.7,3.6 -1.8,7.3 -1.3,10.9 1.3,9.2 5.1,17.4 10.9,24.6 4.4,5.5 8.6,11.3 13.4,16.5 4.5,4.9 9.6,9.2 14.6,13.7 6,5.3 10.7,11.7 15,18.4 0.8,1.2 0.8,2.8 1.5,4 2.2,3.8 4.5,7.4 6.9,11.1 3.8,5.9 7.6,11.8 11.4,17.7 0.3,0.5 0.6,0.9 1.1,1.7 1.8,-1.7 3.6,-3.3 5.3,-5.1 0.4,-0.4 0.4,-1.3 0.3,-1.9 -1.3,-10.3 -2.5,-20.6 -4.1,-30.8 -1.6,-10 -4.6,-19.6 -8.2,-29 -2.1,-5.4 -4.1,-10.9 -6.7,-16.1 -1.8,-3.5 -4.3,-6.6 -6.8,-9.6 -6,-7.2 -10.4,-15.2 -14.1,-23.7 -1.3,-3 -2.1,-6.2 -3.1,-9.3 -0.1,-0.3 0.1,-0.9 0.4,-1.2 0.2,-0.2 0.8,-0.1 1.1,0.1 0.5,0.4 1.2,0.9 1.3,1.5 1.7,6.5 5.7,12 8.5,18 0.3,0.7 0.3,1.5 0.5,2.2 0.3,0.9 0.5,2 1.1,2.5 4.5,3.5 7.5,8.2 10.7,12.8 0.5,0.7 1,1.5 1.7,2.5 0.6,-1.1 1.1,-2.1 1.7,-3 0.2,-0.3 0.9,-0.7 1.1,-0.6 0.4,0.2 0.9,0.8 0.8,1.2 -0.4,1.7 -1,3.4 -1.5,5.2 1.8,4.4 3.9,9.1 5.7,13.9 0.6,1.5 2.3,0.7 3,2.1 0.5,1 1.7,1.6 2.6,2.4 0.7,-1.4 1.9,-2 3.4,-1.1 1.2,0.7 2.2,1.9 3.2,2.8 1.2,-1.8 1.2,-1.7 3.1,0 2.7,2.4 4.8,5.2 6.4,8.4 0.4,0.9 1.1,1.7 2.1,2.4 0,-1 0.1,-2 0.1,-3 0.1,-1 -0.1,-1.8 1.1,-2.5 0.8,-0.5 0.7,-2.4 1.1,-4 0.1,0 0.6,0 1.6,-0.1 -0.8,-3.3 -1.5,-6.4 -2.4,-10.1 1.6,1.2 2.9,2.2 4.3,3.1 1,0.6 2.2,1 3.3,1.4 0.2,0.1 0.9,-0.4 0.9,-0.6 0.3,-2.8 1.7,-5.5 0,-8.3 -0.8,-1.3 -0.3,-2.2 1.2,-2.6 1.4,-0.3 1.9,-1.8 0.8,-2.6 -1.7,-1.4 -3.5,-2.7 -5.5,-3.7 -1.8,-0.8 -2.5,-1.9 -2,-3.7 0.7,-2.8 0.9,-5.7 3.1,-8 0.4,-0.5 0.5,-1.3 0.8,-1.9 0.4,-0.7 1,-1.4 1.5,-2 0.2,0.1 0.5,0.2 0.7,0.2 -0.4,-1.4 -0.8,-2.8 -1.2,-4.3 -0.6,0.3 -1.1,0.6 -1.7,0.9 -1.7,-7.9 -0.9,-15.7 -0.3,-23.5 0.1,-2 0.2,-4 0.5,-6 0.1,-0.6 0.5,-1.1 0.8,-1.7 0.3,0.6 0.9,1.2 0.9,1.8 0.1,2.9 0.3,5.7 -0.1,8.6 -0.4,2.9 0.4,5.1 1.8,7.6 1.1,2.1 1.8,4.4 2.4,6.7 1,3.9 1.6,7.9 2.9,11.7 0.7,2 2.3,3.6 3.5,5.4 0.4,0.6 0.8,1.3 0.9,2 0.3,3.6 0.4,7.2 0.6,10.9 -0.4,-0.7 -0.8,-1.3 -1.3,-2.2 -2,5.8 -4.1,11.3 -5.6,16.9 -1.9,7 -3.8,14.1 -4.8,21.3 -0.8,5.5 -2.2,10.7 -3.6,16 -0.6,2.3 -1.6,4.5 -2.4,6.9 2.2,-0.6 4.4,-1.4 6.6,-1.9 2.1,-0.4 4.3,-0.5 6.4,-0.9 0.7,-0.1 1.6,-0.6 1.9,-1.1 3.4,-5.9 6.9,-11.7 10,-17.8 4.2,-8.1 8.3,-16.3 12.3,-24.6 1.7,-3.4 3.2,-6.9 4.5,-10.5 1.4,-4.2 2.1,-8.5 0.8,-13 -0.8,-2.7 -2.3,-4.6 -4.1,-6.5 -1,-1.1 -1.5,-2.2 -0.8,-3.6 0.3,-0.6 0.7,-1 1.1,-1.5 0.5,0.4 1,0.8 1.4,1.3 0.3,0.3 0.4,0.8 1,1 -0.4,-1.5 -0.9,-3 -1,-4.6 -0.6,-4.6 -1.3,-9.2 -1.5,-13.9 -0.4,-10.6 -1.1,-21.2 -0.3,-31.7 0.5,-7.1 -0.7,-13.6 -1.8,-20.4 -0.9,-5.4 -1.4,-10.9 -2.1,-16.3 -0.4,-3.2 -1.4,-6.3 -1.4,-9.4 0,-4.5 -2.4,-8.2 -3.8,-12.1 -0.8,-2.2 -1.2,-4.1 0.8,-5.9 3.2,5.3 5.4,11 6.5,17.2 1.1,6.7 2.5,13.4 3.5,20.1 1.1,7.3 2.3,14.7 2.7,22.1 0.3,5.4 -1,10.8 -1,16.2 0,8.9 0.4,17.8 0.8,26.7 0.1,3.2 0.5,6.3 0.8,9.5 0,0.5 0.1,1 0,1.5 -0.7,2.1 -0.1,3.8 1,5.8 1.1,2.1 1.2,4.7 1.6,7.1 0.2,1.3 0.1,2.8 0.1,4.1 -1.7,0.4 -2,1.2 -2.2,2.5 z m -55.5,25.8 c -0.8,0.7 -1.4,1.8 -2.3,2.1 -1.5,0.4 -2,-0.8 -2.6,-2 -0.9,-1.9 -2.1,-3.6 -3.3,-5.6 -2,2.6 -2.9,2.4 -6.5,-1.1 3.1,9.2 5.6,18.4 6.7,27.8 1.1,9.5 1.8,19 2.7,29 2.9,-4.1 5.4,-7.7 8,-11.3 0.9,-1.2 2.3,-2.1 2.9,-3.4 1.1,-2.5 2,-5.1 2.6,-7.8 1.3,-5.6 2.2,-11.3 3.4,-16.9 0.8,-4 1.8,-7.9 2.7,-11.9 -1.4,-0.2 -2.9,-0.3 -4.5,-0.5 0,1.7 0,3.4 0,5.2 -0.1,1.6 -0.6,3.2 -2.3,3.6 -1.7,0.4 -3.3,0.1 -4.3,-1.6 -1,-2.1 -2.2,-4 -3.2,-5.6 z m 18.3,-41.2 c -0.6,0.6 -1.4,0.9 -1.6,1.4 -0.8,2.1 -1.4,4.2 -2.1,6.3 -0.1,0.3 0.2,0.8 0.4,1 1.7,1.3 3.4,2.5 5.3,3.9 0.6,-1.4 1.1,-2.6 1.6,-3.7 -1.2,-2.9 -2.4,-5.8 -3.6,-8.9 z m -39.3,89.9 c -0.1,0.1 -0.2,0.1 -0.3,0.2 0.4,1.2 1,2.3 1.1,3.5 0.4,3.9 1.2,4.9 5.3,5.4 -2.2,-3.2 -4.2,-6.2 -6.1,-9.1 z m -5.1,-308.8 c 0,0.2 0,0.3 0,0.5 3.6,0 7.2,0 10.8,0 0,-0.2 0,-0.3 0,-0.5 -3.6,0 -7.2,0 -10.8,0 z m -37.3,-15.5 c 0,0.9 0,1.9 0,3 0.5,0.1 0.9,0.1 1.3,0.2 0.4,0 0.8,0.1 1.1,0.1 -0.8,-1.2 -1.6,-2.3 -2.4,-3.3 z"
       id="path1229"
       inkscape:connector-curvature="0" />
    <path
       d="m -387.78297,462.31901 c 2.5,0 5.2,-0.3 7.8,0.1 7.6,1 15.2,2.6 22.8,3.5 14.2,1.6 28.4,2.7 42.6,4.1 10.7,1 21.3,2 31.9,3.2 9.1,0.9 18.1,2.1 27.1,3 8.2,0.9 16.5,1.6 24.7,2.4 12.3,1.2 24.5,2.4 36.8,3.6 11.1,1.1 22.2,1.9 33.3,3.1 14.5,1.5 28.9,3.2 43.4,4.8 5.1,0.6 10.2,1.3 15.3,1.9 0.7,0.1 1.4,0.3 2.099997,0.4 0,0.7 0.1,1.3 0.1,2 -0.299997,0.1 -0.599997,0.2 -0.799997,0.2 -7.3,-0.8 -14.7,-1.5 -22,-2.3 -15,-1.6 -30,-3.3 -45,-4.8 -13.2,-1.4 -26.4,-2.6 -39.7,-3.9 -11.3,-1.1 -22.6,-2.1 -33.9,-3.2 -9.9,-1 -19.8,-2.1 -29.6,-3.2 -8.6,-0.9 -17.1,-1.7 -25.7,-2.6 -9.8,-1.1 -19.6,-2.4 -29.4,-3.4 -8.3,-0.9 -16.6,-1.4 -24.9,-2.4 -8.7,-1.1 -17.3,-2.4 -26,-3.8 -3.6,-1 -7.2,-2 -10.9,-2.7 z"
       id="path1231"
       inkscape:connector-curvature="0" />
    <path
       d="m -471.18297,452.61901 c 0.4,-3.8 0.6,-7.3 1.1,-10.8 0.3,-1.7 1.1,-3.3 1.7,-5 0.9,-2.9 2.9,-5 5.4,-6.7 4.7,-3.2 10,-5.5 15.5,-6.9 2.2,-0.6 3.5,0 5.9,2.3 -0.8,5.9 -5.5,11.3 -1.1,17.7 0.9,0 2.5,-0.3 3.9,0.1 1.5,0.4 2.8,1.2 4.1,2.1 0.3,0.2 0.1,1.1 0.2,1.6 -0.5,-0.1 -1,-0.1 -1.4,-0.3 -2.1,-1.6 -4.7,-1.4 -6.8,-0.7 -8.4,2.6 -16.7,5.6 -25.1,8.5 -1.4,0.5 -2.8,1.2 -4.1,2.1 -1.8,1.2 -1.8,2.9 -0.3,4.4 0.8,0.8 2,1.8 0.7,2.6 -0.7,0.4 -2.4,-0.1 -3.3,-0.7 -1,-0.8 -1.8,-2.1 -2.4,-3.3 -0.3,-0.6 -0.2,-1.8 0.2,-2.2 2.1,-1.9 4.1,-3.5 5.8,-4.8 z m 24.1,-12.5 c -6.8,0.4 -12.6,4 -16.4,9.4 5,-1.5 9.9,-3.1 14.8,-4.6 3.2,-0.9 3.5,-1.9 1.6,-4.8 z"
       id="path1233"
       inkscape:connector-curvature="0" />
    <path
       d="m -445.48297,256.01901 c -0.2,-1 -0.4,-1.5 -0.3,-2 0.4,-2.3 0.7,-4.5 1.2,-6.8 2.1,-10.1 2,-20.3 0.1,-30.4 -2.8,-15.1 -7.9,-29.5 -13.8,-43.6 -1.1,-2.6 -2.9,-4.9 -4.3,-7.4 -6,-10.3 -12,-20.5 -18,-30.8 -1.3,-2.3 -2.7,-4.5 -3.8,-6.9 -0.7,-1.5 -0.9,-3.3 -1.3,-5 -0.1,-0.4 0.3,-0.8 0.5,-1.2 0.4,0.2 1,0.3 1.3,0.7 1.9,2.8 3.8,5.7 5.6,8.6 4.6,7.6 9,15.3 13.6,22.9 7.3,12.2 14.1,24.6 17.7,38.5 1.8,7 4,13.9 5.7,20.9 1.9,7.9 1.9,15.9 1.7,24 -0.1,6.3 -2.7,11.7 -4.9,17.2 0,0.3 -0.4,0.6 -1,1.3 z"
       id="path1235"
       inkscape:connector-curvature="0" />
    <path
       d="m -236.48297,641.01901 c 0.2,0.9 0.3,1.7 0.4,2.2 -2.1,-1 -4.2,-2.3 -6.5,-3.1 -5.3,-1.9 -9.9,-5 -14.2,-8.6 -0.6,-0.5 -1,-1.5 -1,-2.3 0,-0.5 1.1,-1 1.8,-1.2 9.1,-2.6 18.1,-5.3 27.3,-7.7 9.3,-2.4 18.7,-4.3 28,-6.8 18.7,-5.1 37.1,-11.4 54.2,-20.7 7,-3.8 13.5,-8.4 18.5,-14.7 2.1,-2.6 3.6,-5.5 3.9,-8.8 0.5,-5 -1.7,-8.9 -4.8,-12.4 -4.5,-5.1 -10.1,-8.8 -16.2,-11.6 -13.4,-6.3 -26.9,-12.4 -40.4,-18.5 -6.1,-2.8 -12.2,-5.7 -18.5,-8.1 -5.3,-1.9 -10.8,-3 -16.3,-4.5 -13.6,-3.8 -27.6,-5.2 -41.5,-7.1 -16.5,-2.3 -33,-2.9 -49.6,-2.4 -3.6,0.1 -7.2,0.5 -10.8,0.8 0,-0.2 0,-0.4 0,-0.6 4.5,-0.3 9,-0.7 13.5,-0.9 13.4,-0.7 26.7,0.1 40,1.6 21.5,2.5 43,5.8 63.9,12 0.3,0.1 0.5,0.2 0.8,0.3 12.5,5.4 24.9,10.9 37.4,16.3 10.5,4.5 21.1,9.1 30.8,15.3 5.6,3.6 10.8,8 12.7,14.9 1,3.8 0.4,7.4 -1.4,10.8 -3.4,6.5 -9,11.1 -14.8,15.3 -9.5,6.7 -20.2,11.1 -31,15.3 -14.4,5.5 -29.1,9.8 -44,13.5 -11.9,2.9 -23.8,6.3 -35.7,9.4 -1,0.3 -2,0.4 -3.1,0.6 -0.9,0.2 -1.8,0.6 -2.8,0.9 5.4,5.5 12.6,7.9 19.4,10.8 l 0,0 z"
       id="path1237"
       inkscape:connector-curvature="0" />
    <path
       d="m -285.18297,544.41901 c 4.8,1.1 9.6,2 14.4,3.2 9.1,2.2 17.6,6.1 26,10.1 6.7,3.2 13.5,6.2 20.3,9.3 1.1,0.5 2.1,1.2 3,1.9 2.5,1.9 2.5,4.1 -0.3,5.5 -3.1,1.6 -6.3,2.8 -9.6,4 -5,1.8 -10,3.4 -15,5.1 -0.7,0.2 -1.6,0.8 -1.8,1.4 -1.8,4.5 -5.1,7.5 -9.1,10 -7,4.5 -15,6.6 -22.8,8.9 -10,3 -19.9,6.2 -29.8,9.4 0,0.3 -0.1,0.5 -0.1,0.8 1.8,0.8 3.7,1.6 5.5,2.5 2.8,1.3 5.6,2.6 8.4,4.1 4.9,2.6 3.5,6.6 -0.4,8.9 -4.9,2.9 -10.1,5.2 -15.1,7.9 -3.2,1.7 -6.2,3.6 -9.2,5.5 -0.3,0.2 -0.4,0.8 -0.6,1.4 -0.2,-0.9 -0.4,-1.5 -0.7,-2.4 4.1,-2.3 8.1,-4.6 12.1,-6.8 3.7,-2 7.6,-3.8 11.4,-5.7 0.6,-0.3 1.2,-0.7 1.7,-1.2 3.1,-3 3.8,-4.3 -0.2,-6.6 -2.9,-1.7 -6.1,-2.9 -9.2,-4.4 -1.6,-0.8 -3.1,-1.8 -4.7,-2.5 -0.5,-0.2 -1.2,-0.4 -1.7,-0.2 -5.4,1.9 -10.7,3.9 -16,6 -0.7,0.3 -1.1,1 -1.7,1.6 0.6,0.5 1.1,1.1 1.7,1.3 3.3,1.1 6.7,1.9 9.9,3.1 1.7,0.6 3.3,1.4 4.8,2.5 2,1.4 2.1,4.2 0,5.4 -2.9,1.8 -5.7,4 -9.7,4.1 0.4,-0.3 0.6,-0.6 0.8,-0.6 3.2,-0.2 5.4,-2.5 7.9,-4 1.7,-1 1.8,-3.4 -0.1,-4.2 -3,-1.4 -6.2,-2.4 -9.3,-3.6 -1.9,-0.7 -3.9,-1.2 -5.7,-2 -0.8,-0.4 -1.7,-1.4 -1.7,-2.1 0,-0.8 1,-1.8 1.8,-2.2 3.8,-1.6 7.6,-3.1 11.4,-4.6 2.7,-1 5.4,-1.9 7.9,-3.6 3.2,-2.3 7,-3.6 10.6,-5.2 9,-4 18,-7.8 26.9,-11.8 7.8,-3.5 15.5,-7.1 23.3,-10.7 2.1,-1 1.6,-2.7 1.3,-4.2 -0.7,-3.2 -2.8,-5.5 -5.4,-7.4 -6.2,-4.6 -13.2,-7.7 -20.1,-10.9 -16.5,-7.6 -34,-11.3 -51.7,-14.1 -5.8,-0.9 -11.6,-1.5 -17.4,-2.2 -0.6,-0.1 -1.2,-0.2 -1.8,-0.3 0,-0.2 0,-0.4 0.1,-0.5 5.2,0.5 10.5,0.9 15.7,1.5 12.8,1.4 25.5,3.9 37.7,7.8 8.9,2.9 17.5,6.7 26,10.7 4.7,2.2 9,5.2 13.2,8.2 3.4,2.4 5,6 4.8,10.4 0.4,-0.1 0.8,-0.1 1.2,-0.2 6,-1.9 12,-3.9 18,-5.9 2.1,-0.7 4.2,-1.6 6.1,-2.7 2.3,-1.2 2.4,-2.9 0.2,-4.3 -2.7,-1.7 -5.5,-3.2 -8.4,-4.6 -10.1,-4.6 -20.1,-9.6 -30.5,-13.5 -7.3,-2.8 -15.1,-4.2 -22.7,-6.2 -0.6,-0.2 -1.2,-0.3 -1.8,-0.5 0.1,-0.3 0.1,-0.5 0.2,-0.6 z m 36,40.2 c -19.7,8.9 -39.1,17.7 -58.4,26.5 0.7,0.2 1.2,0 1.7,-0.1 9.5,-2.9 19,-5.8 28.5,-8.7 8,-2.5 16,-4.8 22.7,-10.1 2.4,-2.1 4.3,-4.3 5.5,-7.6 z"
       id="path1239"
       inkscape:connector-curvature="0" />
    <path
       d="m -387.38297,403.21901 c 1.7,0 3.4,-0.1 5.2,0 7.6,0.6 15.2,1.3 22.8,1.8 4.6,0.3 9.2,0.2 13.8,0.5 8.2,0.4 16.4,0.9 24.6,1.4 7.9,0.5 15.8,0.8 23.7,1.4 16.9,1.3 33.7,2.4 50.6,4.1 18.5,1.9 37,4.3 55.6,6.5 17.1,2.1 34.3,4.2 51.3,6.6 12.8,1.8 25.6,3.9 38.4,5.8 1.1,0.2 2.099997,0.4 1.499997,2.1 -3.799997,-0.6 -7.499997,-1.3 -11.299997,-1.9 -14.7,-2.2 -29.3,-4.4 -44,-6.5 -11.7,-1.7 -23.4,-3.2 -35.2,-4.7 -12.9,-1.6 -25.8,-3.1 -38.8,-4.6 -14.2,-1.6 -28.4,-3.1 -42.6,-4.4 -7.1,-0.7 -14.2,-1 -21.2,-1.4 -17.6,-0.9 -35.2,-1.7 -52.7,-2.7 -9.7,-0.5 -19.4,-1.3 -29.1,-2 -3.7,-0.3 -7.3,-0.7 -11,-1 -0.6,-0.1 -1.1,-0.3 -1.6,-0.4 -0.1,-0.2 0,-0.4 0,-0.6 z"
       id="path1241"
       inkscape:connector-curvature="0" />
    <path
       d="m -514.38297,9.7190186 c 0.5,2.7000004 0.9,5.3000004 1.5,8.0000004 0.5,2 1.1,4 1.8,5.9 3,7.5 7.8,14.1 11.8,21.1 5.8,10.4 9.7,21.399996 13.3,32.599996 2.4,7.4 2.7,15.1 2.5,22.799995 -0.1,6.4 -0.5,12.8 -2.6,18.9 -0.1,0.2 -0.2,0.5 -0.3,0.8 -0.9,-0.7 -1.8,-1.3 -2.9,-2.1 0,1 0,1.5 0,2.5 -1,-1.5 -1.6,-2.2 -0.6,-3.7 0.9,-1.5 1.2,-3.6 1.3,-5.4 0.3,-6.2 0.7,-12.399995 0.5,-18.499995 -0.4,-9 -2.6,-17.6 -6.1,-26 -1.5,-3.699996 -2.7,-7.599996 -4.4,-11.199996 -2.6,-5.6 -5.5,-11.2 -8.3,-16.7 -1.5,-2.9 -3.4,-5.6 -4.7,-8.5 -1.2,-2.7 -2.1,-5.7 -2.6,-8.6 -0.6,-3.4 -0.7,-7 -1,-10.5 0,-0.4 0.1,-0.8 0.2,-1.2000004 0.1,-0.1 0.4,-0.2 0.6,-0.2 z"
       id="path1243"
       inkscape:connector-curvature="0" />
    <path
       d="m -455.98297,338.61901 c 3.9,-2.5 7.9,-2.4 12.1,-1.8 6.9,1 13.7,2.4 20.1,5.2 0.2,0.1 0.4,0 0.8,0 -0.5,-1.3 -0.7,-2.7 -1.3,-3.7 -2.4,-4 -4.9,-7.9 -7.5,-11.7 -2.9,-4.2 -6.1,-8.2 -8.9,-12.5 -1,-1.6 -1.5,-3.6 -2,-5.4 -0.1,-0.4 0.3,-0.9 0.4,-1.4 0.4,0.3 0.9,0.5 1.1,0.9 3.4,6.9 8,12.8 13.4,18.2 1.4,1.4 2.1,3.4 3.3,5 2.8,3.7 4.5,8 5.8,12.4 0.6,1.9 1.6,3.2 3.2,4.5 4.5,3.6 8.6,7.6 9.9,13.5 0.5,2.4 0.5,5 0.5,7.5 -0.1,6.4 -0.4,12.8 -0.7,19.2 -0.1,1.2 -0.4,2.5 -0.9,3.6 -0.3,0.5 -1.3,0.6 -2.1,0.8 -0.1,0 -0.7,-1.1 -0.5,-1.4 1.8,-3.5 1.1,-7.2 1.3,-10.9 0.3,-4.8 0.1,-9.6 0.2,-14.4 0.1,-4.1 -1.6,-7.4 -4.1,-10.5 -1.3,-1.7 -3.1,-3 -4.7,-4.4 -0.6,-0.5 -1.5,-0.6 -2.2,-1 -0.5,-0.2 -1.4,-0.5 -1.5,-0.9 -0.8,-2.7 -3.3,-3.7 -5.5,-4.4 -4.8,-1.7 -9.7,-3 -14.6,-4.2 -3.1,-0.8 -6.3,-1.5 -9.6,-1.9 -1.9,-0.5 -3.8,-0.3 -6,-0.3 z"
       id="path1245"
       inkscape:connector-curvature="0" />
    <path
       d="m -570.68297,433.71901 c -3.2,1.3 -6.7,3 -10.5,4.3 -13.6,4.4 -27.2,8.5 -40.7,12.9 -18.7,6.1 -37.4,12.3 -55.9,18.7 -26.2,9.1 -52.2,18.5 -78.3,27.8 -5.7,2 -11.5,3.9 -17.3,5.9 -0.3,0.1 -0.6,0.1 -1.2,0.2 3.1,-1.3 6,-2.6 9,-3.7 9.8,-3.7 19.6,-7.3 29.4,-10.9 20.5,-7.5 41,-15.2 61.6,-22.6 11.4,-4.1 23,-7.9 34.6,-11.7 14.9,-4.8 29.9,-9.5 44.9,-14.2 5.4,-1.7 10.8,-3.2 16.1,-4.8 0.6,-0.2 1.2,-0.4 1.7,-0.8 2.3,-1.3 4.7,-1.5 6.6,-1.1 z"
       id="path1247"
       inkscape:connector-curvature="0" />
    <path
       d="m -497.68297,130.21901 c -0.6,-0.5 -1.4,-0.8 -1.6,-1.4 -1.8,-4 -4.2,-7.7 -4.2,-12.5 0,-2.4 -0.7,-4.9 -1.3,-7.3 -2.5,-9.499995 -5.1,-18.999995 -7.7,-28.499995 -2.5,-9.2 -5.2,-18.399996 -7.6,-27.699996 -1.1,-4.1 -1.6,-8.4 -2.2,-12.7 -0.3,-2.2 -0.4,-4.4 -0.4,-6.6 0,-0.5 0.4,-1 0.7,-1.5 0.3,0.5 0.8,0.9 0.9,1.4 2,11.7 5.2,23 8.8,34.199996 2.2,6.9 3.6,14 5.5,20.9 2.1,7.5 4.3,14.899995 6.4,22.399995 0.5,1.7 0.5,3.6 0.8,5.3 0.4,2.4 0.9,4.8 1.4,7.1 0.4,2.1 0.9,4.3 1.4,6.4 -0.4,0.3 -0.7,0.4 -0.9,0.5 z"
       id="path1249"
       inkscape:connector-curvature="0" />
    <path
       d="m -542.68297,649.01901 c -0.8,0 -1.4,0.2 -1.7,0 -4.7,-2.5 -10.2,-2.4 -15.1,-4.2 -1.3,-0.5 -2.8,-0.8 -4.2,-1.1 -1.9,-0.4 -1.7,-1.6 -1.1,-2.8 0.8,-1.7 1.8,-3.3 2.7,-4.8 0.9,-1.4 0.3,-2.5 -1,-3.1 -1.1,-0.5 -2.4,-1.1 -3.5,-1 -10.3,0.7 -19.6,-3 -29.1,-6 -8,-2.6 -13,-8.2 -17.3,-14.8 -1.8,-2.7 -1.7,-5.7 -1.3,-8.8 0.8,-6.9 5.1,-11.6 9.7,-16.2 8.8,-8.9 20.3,-12.5 31.8,-16.1 9.9,-3.1 20,-5.8 30,-8.6 1.1,-0.3 2.2,-0.2 3.7,-0.3 -11.6,3.6 -22.9,6.9 -34.1,10.5 -7.5,2.4 -15.1,4.9 -21.8,9.2 -6.3,4.1 -12.2,9 -15.7,15.9 -3.1,6.3 -3.6,11.4 1.3,16.6 1.3,1.4 2.4,2.9 3.6,4.4 3.3,4.1 8.1,5.8 12.8,7.4 5,1.7 9.9,3.6 15,4.7 3.5,0.8 7.2,0.5 10.8,0.8 1.5,0.1 3.2,0.3 4.6,0.9 3.5,1.6 2.9,4.1 1.2,6.8 -0.8,1.2 -1.6,2.4 -2.5,3.8 7,2.4 14.7,2.4 21.2,6.8 z"
       id="path1251"
       inkscape:connector-curvature="0" />
    <path
       d="m -547.68297,511.31901 c -2.9,0.8 -5.9,1.4 -8.8,2.3 -16.5,5.6 -32.1,13.1 -47.6,21 -14.7,7.6 -28.7,16.4 -42.3,25.9 -6.8,4.7 -13.9,9.4 -19.2,16 -3.5,4.4 -7,8.8 -8.8,14.3 -2.8,8.4 -1,16.1 3.7,23 5.3,7.6 12,13.9 20.6,17.8 0.7,0.3 1.5,0.7 2.2,1 -0.1,0.2 -0.1,0.3 -0.2,0.5 -1.6,-0.7 -3.3,-1.3 -4.9,-2.1 -8.2,-3.9 -14.3,-10.1 -19.1,-17.5 -3.6,-5.5 -5.8,-11.6 -4.8,-18.3 0.5,-3.2 1.5,-6.5 3,-9.2 5.1,-8.9 12,-16.3 20.4,-22.3 7.1,-5 14.3,-9.9 21.5,-14.7 4.5,-2.9 9.2,-5.5 13.8,-8.1 6.5,-3.7 13,-7.5 19.8,-10.7 10,-4.8 20.2,-9.3 30.4,-13.6 5.1,-2.1 10.5,-3.5 15.8,-5.1 1.7,-0.5 3.2,-0.2 4.5,-0.2 z"
       id="path1253"
       inkscape:connector-curvature="0" />
    <path
       d="m -236.48297,641.01901 c -1.2,-1.2 -2.5,-2.4 -3.7,-3.7 -1.7,-1.9 -1.4,-4.3 1,-5.3 2.9,-1.3 6,-2.3 9,-3.2 22.8,-6.6 45.8,-12.7 68.4,-19.8 13.7,-4.3 26.5,-10.9 37.3,-20.6 5.4,-4.9 10.1,-10.5 15.3,-15.7 2.8,-2.8 5.9,-5.3 8.8,-7.9 0.2,0.1 0.399997,0.2 0.599997,0.3 -0.2,0.6 -0.299997,1.5 -0.799997,1.9 -8.3,6.5 -15.1,14.3 -22.4,21.8 -3.5,3.6 -7.9,6.6 -12.3,9.2 -14.3,8.6 -29.8,14.2 -45.8,18.6 -13.3,3.7 -26.6,7.6 -39.9,11.4 -5.1,1.4 -10.2,2.8 -15.3,4.1 -0.7,0.2 -1.3,0.5 -1.9,0.8 -1.9,1 -2.2,2.3 -0.7,4 2.8,3.3 6.5,5.4 10.5,7 2.8,1.2 5.6,2.2 8.3,3.3 -2.4,1 -8.9,-1.5 -16.4,-6.2 l 0,0 z"
       id="path1255"
       inkscape:connector-curvature="0" />
    <path
       d="m -524.68297,390.71901 c 3,3.6 6.7,6.3 11.1,8.1 2.4,1 4.3,3.2 6.4,5 0.5,0.4 0.6,1.3 1,2 0.4,0.7 0.8,1.5 1.4,1.9 3.2,2.2 7.1,3.7 9.5,6.6 2.5,3 4,7.1 5.4,10.9 2.6,7.3 1.8,15 1.5,22.5 -0.2,5.6 -0.5,11.2 -1.1,16.8 -0.2,2.2 -1.4,4.2 -2.5,6.2 0.3,-2.4 0.9,-4.7 0.9,-7.1 0,-7.9 -0.3,-15.8 -0.3,-23.8 0,-4.3 -0.1,-8.6 -1.3,-12.8 -1.8,-6.4 -5,-11.8 -10,-16.3 -0.4,-0.4 -1.1,-0.6 -1.6,-0.9 -1.8,-1 -3.1,-2.1 -4.4,-4 -1.7,-2.5 -4.6,-4.4 -7.4,-5.8 -3.4,-1.7 -6.1,-3.8 -8.1,-6.9 -0.4,-0.6 -0.6,-1.5 -0.9,-2.2 0.1,0 0.3,-0.1 0.4,-0.2 z"
       id="path1257"
       inkscape:connector-curvature="0" />
    <path
       d="m -729.68297,579.41901 c 2.6,-1.8 5.1,-3.6 7.7,-5.3 5.2,-3.4 10.2,-6.9 15.5,-10.1 13.8,-8.3 27.6,-16.8 41.7,-24.5 15.7,-8.6 31.8,-16.7 47.8,-24.7 16.9,-8.5 34,-16.8 51.1,-25.2 2.8,-1.4 5.7,-2.6 8.7,-3.7 -59,28.4 -117.1,58.4 -172,94.3 -0.2,-0.4 -0.3,-0.6 -0.5,-0.8 z"
       id="path1259"
       inkscape:connector-curvature="0" />
    <path
       d="m -578.38297,489.71901 c -7,3.8 -13.8,7.6 -20.9,11.3 -13.1,6.8 -26.3,13.3 -39.4,20.1 -23.6,12.3 -47.2,24.7 -70.8,37.1 -6.5,3.4 -12.9,6.8 -19.5,10 -4.4,2.2 -9,4 -13.6,5.9 -0.5,0.2 -1.2,0.2 -1.4,0.2 55,-28.2 110.1,-56.6 165.3,-84.9 0.2,0.1 0.2,0.2 0.3,0.3 z"
       id="path1261"
       inkscape:connector-curvature="0" />
    <path
       d="m -449.58297,394.71901 c -1.9,1.3 -3.9,2.5 -5.7,4 -1.2,1 -2.2,3.3 -3,3.2 -2.1,-0.3 -2.9,1.2 -4.1,2.1 -4.9,3.9 -8.2,9 -11.6,14.1 -1.1,1.7 -2.3,3.3 -3.4,4.9 -0.1,0.2 -0.3,0.3 -0.4,0.4 -1,0.6 -2.3,1.1 -3.1,1.9 -0.7,0.8 -1,2.1 -1.5,3.2 -1.3,-2.8 -0.5,-5 1.5,-6.9 2,-1.8 3.5,-4.2 5.2,-6.4 2.7,-3.5 5.2,-7.1 8,-10.4 1.8,-2 4.1,-3.5 6.1,-5.3 0.5,-0.5 1,-1.4 1,-2.1 0,-2.5 -0.4,-5 -0.3,-7.4 0.1,-2.6 1.3,-4.7 3.2,-6.6 2.1,-2.1 4,-4.4 6,-6.7 0.4,-0.5 0.9,-1 1.7,-1.3 -0.1,0.4 -0.1,0.9 -0.3,1.2 -1.8,3.2 -3.5,6.5 -5.6,9.5 -2.3,3.3 -1.8,6.8 -1.5,10.5 2.6,-0.9 4.7,-3 7.6,-2.8 0,0.5 0.1,0.7 0.2,0.9 z"
       id="path1263"
       inkscape:connector-curvature="0" />
    <path
       d="m -535.38297,634.01901 c -2,-0.9 -3.7,-1.8 -5.5,-2.3 -11.9,-3.4 -23.9,-6.9 -35.9,-10.2 -5.3,-1.5 -10.9,-2.2 -16.2,-3.9 -5.5,-1.7 -9.4,-5.7 -10.5,-11.4 -1,-5.3 0.2,-10.5 3.3,-15.3 4.3,-6.6 11.2,-9.5 17.7,-13 11.3,-6.1 23.5,-9 36.1,-11 -0.6,0.2 -1.3,0.3 -1.9,0.5 -0.7,0.2 -1.4,0.3 -2,0.5 -9.2,2.1 -18.3,4.4 -26.8,8.4 -5.2,2.4 -10.2,5.4 -15.1,8.4 -4.1,2.4 -7.1,6 -8.7,10.4 -4.2,11.4 -0.8,19.2 11.1,22.5 7.8,2.1 15.8,3.3 23.6,5.5 9.9,2.8 19.6,6.1 29.4,9.3 0.8,0.3 1.4,1.1 2.1,1.6 -0.7,0.6 -1.3,1.4 -2,1.8 -2.4,1.4 -4.9,2.8 -7.3,4.1 0.1,0.3 0.2,0.5 0.2,0.8 3.3,-0.5 6.6,-1 9.9,-1.5 8.1,-1.2 16.2,-2.5 24.3,-3.5 3.2,-0.4 6.5,-0.1 9.2,-0.1 -0.8,0.2 -2.1,0.7 -3.5,0.8 -11,0.7 -22,2.1 -32.9,4.2 -2.6,0.5 -5.4,0.4 -8.2,0.3 2.2,-3.4 6.3,-4.1 9.6,-6.9 z"
       id="path1265"
       inkscape:connector-curvature="0" />
    <path
       d="m -308.08297,500.21901 c 5.4,-0.8 10.8,-2.1 16.2,-2.4 7.6,-0.5 15.3,-0.9 22.9,-0.5 10.9,0.7 21.9,1.4 32.5,3.5 30,5.9 60,12.3 89.9,19.1 12.9,2.9 25.5,7.2 37.5,13.1 2.9,1.4 5.6,3.1 8.3,4.7 0.5,0.3 0.799997,1 0.799997,1.7 -4.999997,-2.5 -9.699997,-5.5 -14.899997,-7.4 -10.4,-4 -20.8,-7.9 -31.5,-10.9 -13,-3.6 -26.2,-6.4 -39.3,-9.3 -14.9,-3.3 -29.8,-6.6 -44.8,-9.4 -17.4,-3.3 -34.9,-5.6 -52.7,-4.4 -8.3,0.5 -16.6,1.5 -24.8,2.3 -0.1,0.1 -0.1,0 -0.1,-0.1 z"
       id="path1267"
       inkscape:connector-curvature="0" />
    <path
       d="m -443.48297,304.21901 c -0.5,-2.1 -1.3,-4.2 -1.5,-6.4 -0.3,-3.7 0,-7.4 -0.2,-11.1 -0.1,-1.2 -0.9,-2.3 -1.2,-3.5 -0.2,-0.7 -0.1,-1.5 0.1,-2.1 0.2,-0.8 1,-1.6 1,-2.4 0.2,-5.5 0.2,-10.9 0.2,-16.4 0,-0.4 -0.5,-0.9 -0.9,-1.2 -4.1,-3.1 -6.7,-7.3 -9.2,-11.7 -0.6,-1.1 -1.4,-2 -2,-3.1 -0.9,-1.6 -1.6,-3.2 -2.4,-4.9 -0.2,-0.4 -0.2,-0.8 -0.3,-1.2 0.5,0.1 1.1,0 1.4,0.3 1.4,1.4 2.7,2.9 3.9,4.5 3.8,5.3 7.5,10.6 11.3,15.9 0.1,0.2 0.4,0.3 0.4,0.4 -0.3,4.4 1.1,8.8 0.5,13.3 -0.3,2.5 -0.6,5 -0.9,7.5 0,0.3 -0.1,0.6 0,0.8 1.8,3.2 0.7,6.8 1.1,10.2 0.2,2.5 0.6,5 0.7,7.5 0,1.2 -0.6,2.5 -0.9,3.7 -0.3,-0.1 -0.7,-0.1 -1.1,-0.1 z"
       id="path1269"
       inkscape:connector-curvature="0" />
    <path
       d="m -433.38297,445.81901 c 0,-4.2 0.3,-8.2 -0.1,-12.1 -0.4,-4.6 -1.4,-9.2 -2.3,-13.7 -0.7,-3.6 -1.8,-7.2 -2.6,-10.8 -0.1,-0.4 -0.1,-1.1 0.2,-1.3 2.8,-2.1 0.4,-4.8 1,-7.2 -1.8,-0.9 -3.6,-2 -5.4,-2.8 -0.9,-0.4 -2.1,-0.3 -3,-0.6 -0.4,-0.1 -0.7,-0.7 -1.1,-1 0.4,-0.3 0.7,-0.9 1.1,-0.9 4,-0.2 7.7,0.7 10.5,3.9 0.5,0.5 0.9,1.4 0.8,2.1 -0.3,2.4 -0.8,4.7 -1.1,7.1 -0.1,0.8 0.3,1.6 0.6,2.4 1.5,5.8 3.2,11.6 4.5,17.5 0.6,2.7 0.4,5.5 0.4,8.3 0,2 -0.2,4 -0.2,6.1 0.1,1.6 -0.7,2.6 -3.3,3 z"
       id="path1271"
       inkscape:connector-curvature="0" />
    <path
       d="m -489.08297,627.21901 c 12.2,9.9 26.6,13.8 41.5,16.2 15.3,2.5 30.6,2.5 45.9,-0.7 9.1,-1.9 17.7,-5.1 25.7,-10 2.3,-1.4 4.7,-2.8 7.2,-4 -1.3,1.1 -2.5,2.4 -3.9,3.4 -2.1,1.3 -4.5,2.3 -6.6,3.6 -8.7,5.6 -18.5,8 -28.4,9.5 -17.1,2.5 -34.1,1.7 -50.9,-2.6 -8.3,-2.2 -16.3,-5.2 -23.7,-9.6 -2.5,-1.6 -4.6,-3.9 -6.8,-5.8 z"
       id="path1273"
       inkscape:connector-curvature="0" />
    <path
       d="m -345.88297,373.61901 c 2.1,-12.7 1.1,-25.3 -0.7,-37.9 -1.5,-10.2 -4.6,-20 -8.9,-29.4 -1.2,-2.6 -1.9,-5.4 -3,-8.1 -0.5,-1.3 -1.3,-2.5 -2,-4 1.7,-0.4 2.5,1.1 3,2.3 4.4,9.1 8.1,18.4 10.8,28.1 2.7,9.6 3.8,19.3 3.8,29.2 0,3.5 -0.1,7 -0.2,10.4 -0.1,3.5 -1.1,6.6 -2.8,9.4 z"
       id="path1275"
       inkscape:connector-curvature="0" />
    <path
       d="m -333.18297,362.31901 c -0.7,-4.1 -1.2,-7.8 -1.9,-11.5 -2,-10.2 -3.9,-20.5 -6.4,-30.6 -1.5,-6.2 -4.1,-12.2 -6.3,-18.3 -0.6,-1.7 -1.4,-3.6 -4.2,-2.8 1.1,-1.5 2.3,-1.8 3.4,-0.8 1.1,0.9 2.2,2 2.8,3.3 3.3,6.1 5.6,12.6 7.2,19.2 2,8.6 3.7,17.2 5.3,25.9 0.7,3.9 0.8,7.9 1,11.8 0.1,1.3 -0.6,2.5 -0.9,3.8 z"
       id="path1277"
       inkscape:connector-curvature="0" />
    <path
       d="m -573.58297,285.91901 c -2.9,-4.4 -4.6,-9.3 -6.1,-14.3 -3.2,-10.6 -4.3,-21.6 -4.9,-32.5 -0.6,-9.6 -0.8,-19.3 -0.4,-29 0.4,-8.4 2.4,-16.6 6.6,-24.1 0.8,-1.4 2.1,-2.6 3.2,-4.1 -0.2,0.9 -0.3,1.7 -0.6,2.3 -5.2,8.1 -7.5,17.2 -7.8,26.6 -0.3,10.9 0.1,21.8 0.7,32.7 0.5,10.3 2.1,20.5 5.2,30.4 1.3,4 2.8,8 4.1,12 z"
       id="path1279"
       inkscape:connector-curvature="0" />
    <path
       d="m -467.58297,295.01901 c 1.7,0.2 3.5,0.4 5.3,0.8 3.5,0.7 7,1.4 10.5,2.1 0.2,0 0.4,0.3 0.8,0.5 -4.2,-0.6 -8.2,-1.2 -12.4,-1.9 2.3,3.1 4.3,5.7 6.1,8.1 2.8,0.8 5.7,1.6 8.5,2.6 0.6,0.2 0.9,1.2 1.1,2 -2.6,-2.5 -5.8,-2.3 -9,-2.2 0.9,3.9 1.8,7.5 2.5,11.3 0.3,1.6 0.3,3.2 0.3,4.8 0,0.4 -0.6,0.7 -0.8,1.1 -0.2,-0.4 -0.4,-0.8 -0.5,-1.2 -1.1,-5 -2.2,-10 -3.5,-14.9 -0.1,-0.4 -1.2,-1 -1.6,-0.9 -3.4,0.8 -6.7,1.8 -10,2.6 -1.4,0.3 -2.9,0.2 -4.4,-0.2 5,-1.5 9.9,-3 15.1,-4.6 -1.7,-3.1 -4,-5.9 -7,-8 -0.5,-0.4 -1.5,-0.3 -2.2,-0.1 -2.6,1 -5.2,2.1 -7.9,3.1 -0.7,0.3 -1.4,0.6 -2.3,0.4 1.9,-1.1 3.6,-2.4 5.6,-3.3 1.8,-0.9 3.9,-1.4 5.8,-2.1 z"
       id="path1281"
       inkscape:connector-curvature="0" />
    <path
       d="m -565.88297,267.11901 c -4.4,-7.6 -6.9,-15.6 -8.5,-24 -1.5,-8.2 -1.6,-16.3 -1.3,-24.5 0.2,-5.1 0.2,-10.6 3,-15.3 0.3,-0.5 0.9,-0.8 1.6,-1.4 -0.8,2.3 -1.7,4.1 -1.9,5.9 -2.1,16.5 -1.2,32.9 3.6,48.9 0.9,3.1 2.2,6.1 3.3,9.2 0.2,0.3 0.1,0.6 0.2,1.2 z"
       id="path1283"
       inkscape:connector-curvature="0" />
    <path
       d="m -409.48297,458.31901 c -0.7,-3.6 -3.1,-5.9 -6.1,-7 -3.9,-1.4 -8,-1.9 -12,-2.8 -0.3,-0.1 -0.5,-0.1 -0.8,-0.2 0,-0.2 -0.1,-0.5 -0.1,-0.7 1.4,-0.3 2.9,-1 4.3,-0.8 3.1,0.4 6.2,1 9,2.1 3.7,1.4 6.7,4 7.8,8.1 0.8,2.7 -0.2,4.1 -2.9,4 -3.7,-0.1 -7.3,-0.4 -11,-0.8 -1.2,-0.1 -2.3,-0.8 -3.4,-1.4 -0.4,-0.2 -0.5,-1 -0.7,-1.5 0.5,0 1,-0.2 1.4,-0.1 4.8,1.2 9.5,1.3 14.5,1.1 z"
       id="path1285"
       inkscape:connector-curvature="0" />
    <path
       d="m -473.88297,338.61901 c -3.8,-2.3 -7.9,-2.6 -12.1,-1.6 -8,2 -15.6,4.9 -22.7,9.2 -2.1,1.2 -4.2,2.4 -6.6,3.8 1,-1.2 1.7,-2.5 2.8,-3.3 6.2,-4.8 13.3,-8.1 20.7,-10.4 4.5,-1.4 9.1,-2.9 13.8,-1 1.6,0.6 2.9,1.8 4.3,2.8 0,0.2 -0.1,0.4 -0.2,0.5 z"
       id="path1287"
       inkscape:connector-curvature="0" />
    <path
       d="m -364.98297,604.31901 c 2.3,-1.4 4.6,-2.6 6.5,-4.1 1.9,-1.5 3.5,-3.4 4.9,-5.3 0.7,-0.9 0.9,-2.3 1,-3.5 0.2,-1.4 -0.8,-2.2 -2.2,-2.2 -4.6,-0.1 -8.3,1.7 -10.6,6.5 -0.2,0.4 -0.6,0.6 -0.9,0.9 -0.3,-0.3 -0.7,-0.7 -0.8,-1.1 -0.1,-0.4 -0.1,-1 0.1,-1.4 1.9,-4.8 8.8,-8.3 13.7,-7.1 2.2,0.5 3.7,3.6 2.8,6.3 -1.1,3.5 -3.7,5.8 -6.4,8 -2.3,1.9 -4.9,3.2 -8.1,3 z"
       id="path1289"
       inkscape:connector-curvature="0" />
    <path
       d="m -356.58297,620.91901 c 1.7,-1.1 3.2,-2.4 5,-3.3 5.8,-2.7 10.7,-6.7 15.2,-11.2 0.6,-0.6 0.8,-2 0.5,-2.8 -0.1,-0.5 -1.4,-0.9 -2.2,-1 -3.3,-0.3 -6.3,0.5 -9.2,2 -0.5,0.3 -1.2,0.3 -1.8,0.5 -0.1,-0.2 -0.3,-0.5 -0.4,-0.7 0.9,-0.6 1.8,-1.3 2.7,-1.8 2.9,-1.5 6,-2.3 9.2,-1.9 1.4,0.1 3.3,1 3.9,2.1 0.7,1.4 0.8,3.5 -0.7,4.8 -3,2.6 -6.1,5 -9.1,7.5 -2.6,2.1 -5.7,3.2 -9,4.1 -1.3,0.3 -2.4,1.5 -3.6,2.3 -0.3,-0.3 -0.4,-0.4 -0.5,-0.6 z"
       id="path1291"
       inkscape:connector-curvature="0" />
    <path
       d="m -534.78297,551.21901 c -2.8,-1.6 -3.9,-1.6 -4.9,0.7 -0.2,-2.4 -1.8,-2.6 -3.4,-2.9 -4.2,-0.8 -8.4,-1.8 -12,-4.4 -1.3,-1 -3.1,-1.8 -2.8,-4 0.1,-0.6 0.7,-1.4 1.2,-1.5 4.8,-0.8 9.4,-0.6 13,3.3 1.5,1.6 2.7,3.3 4.2,4.9 0.5,0.6 1.2,1 1.9,1.4 1.1,0.7 2.1,1.3 3.2,1.9 -0.1,0.1 -0.2,0.3 -0.4,0.6 z m -6.8,-3.9 c -1.6,-4.4 -8.8,-7.8 -14.2,-6.3 1,2.9 7.2,5.7 14.2,6.3 z"
       id="path1293"
       inkscape:connector-curvature="0" />
    <path
       d="m -343.78297,517.31901 c -4.1,0.9 -6.3,3.4 -8.5,5.7 -3.5,3.8 -6.1,8 -7.4,13.1 -0.1,0.3 -0.4,0.6 -0.6,0.9 -0.2,-0.3 -0.7,-0.8 -0.6,-1 0.8,-2.5 1.4,-5.1 2.6,-7.4 2.6,-4.7 6.1,-8.6 10.6,-11.6 0.8,-0.6 1.9,-0.9 2.8,-1.3 1.6,-0.6 2.5,0.2 2.1,1.6 -0.5,1.9 -1.3,3.8 -2.4,5.4 -2.5,3.6 -5.1,7.1 -7.9,10.5 -1.1,1.3 -2.2,3.3 -4.7,2.2 6.1,-4.8 10,-11.1 14,-18.1 z"
       id="path1295"
       inkscape:connector-curvature="0" />
    <path
       d="m -509.48297,586.31901 c -1.7,-2.1 -3.3,-4.3 -5,-6.4 -0.6,-0.8 -1.6,-1.3 -2.2,-2.2 -1.9,-2.9 -3.8,-5.6 -5.2,-8.9 -1.8,-4.3 -1.6,-8.4 -1.2,-12.6 0.2,-1.8 1.3,-3.6 2.4,-5.1 1.4,-1.8 3.6,-2 5.6,-0.8 3.5,2.2 5.5,5.4 5.9,9.6 -1.2,-1.8 -2.3,-3.7 -3.6,-5.4 -1.3,-1.8 -2.8,-3.8 -5.4,-3 -2.6,0.8 -3.3,3.2 -3.5,5.7 -0.1,2.6 -0.4,5.2 0.1,7.7 0.5,2.6 1,5.3 2.9,7.6 2,2.4 3.6,5.1 5.4,7.6 1.4,1.9 2.9,3.8 4.3,5.8 -0.1,0 -0.3,0.2 -0.5,0.4 z"
       id="path1297"
       inkscape:connector-curvature="0" />
    <path
       d="m -513.48297,584.01901 c -1,0.1 -2.1,0.5 -3,0.3 -8,-1.9 -16,-3.8 -24.1,-5.7 -1,-0.2 -2,-0.1 -3.5,-0.2 1.9,7.1 7.4,10.9 11.8,15.5 -0.2,0.2 -0.3,0.3 -0.5,0.5 -2.8,-2.5 -5.7,-4.8 -8.4,-7.5 -1.6,-1.6 -3,-3.6 -4,-5.6 -0.5,-1 -0.6,-3.3 0,-3.7 1.1,-0.7 3,-1 4.3,-0.6 8.2,1.9 16.3,4.1 24.4,6.2 0.9,0.2 1.9,0.2 2.9,0.3 0.1,0.2 0.1,0.3 0.1,0.5 z"
       id="path1299"
       inkscape:connector-curvature="0" />
    <path
       d="m -493.88297,627.01901 c 0.3,-7.2 -4.3,-11.3 -9.8,-14.4 -7.2,-4.2 -14.6,-7.9 -22,-11.8 -0.5,-0.3 -1,-0.6 -1.4,-1.4 0.6,0.2 1.3,0.4 1.9,0.7 8.4,3.4 16.7,7.1 24.3,12.2 3.4,2.2 5.8,5.4 7.5,9 0.7,1.6 0.1,3.8 0.1,5.8 -0.2,-0.1 -0.4,-0.1 -0.6,-0.1 z"
       id="path1301"
       inkscape:connector-curvature="0" />
    <path
       d="m -310.68297,534.71901 c 0.5,-1.3 0.8,-2.7 1.5,-3.9 1.9,-3.4 3.5,-7.1 6.9,-9.4 0.5,-0.3 1,-0.8 1.6,-1 1.7,-0.7 3.4,-1.6 4.9,0.1 1.3,1.5 1,4.6 -0.7,6 -2.7,2.2 -5.5,4.2 -9.2,4.8 -1.6,0.3 -3.1,2 -5,3.4 z m 3.5,-4.5 c 4,-0.7 6.9,-2.6 9.5,-5 0.7,-0.7 0.6,-2.2 0.8,-3.4 -1,0 -2.2,-0.3 -3.1,0 -3.5,1.6 -5.5,4.7 -7.2,8.4 z"
       id="path1303"
       inkscape:connector-curvature="0" />
    <path
       d="m -449.68297,502.11901 c 0.6,0.5 1.1,1.1 1.7,1.4 1.8,0.9 3.6,1.6 5.4,2.4 0.3,0.1 0.9,0 1.2,-0.3 2,-2 4,-4 4,-7.1 0,-0.5 0.3,-1.1 0.4,-1.6 0.6,0.3 1.8,0.6 1.8,0.9 0.2,1.7 0.4,3.6 -0.1,5.2 -0.5,1.5 -1.9,2.8 -3.1,4.1 -2.3,2.4 -6,2.6 -8.5,0.2 -1.4,-1.3 -2.3,-3.1 -3.5,-4.7 0.2,-0.1 0.5,-0.3 0.7,-0.5 z"
       id="path1305"
       inkscape:connector-curvature="0" />
    <path
       d="m -537.18297,603.01901 c -2.5,0 -5.1,0.2 -7.6,-0.1 -4.6,-0.5 -7.2,2.5 -10.3,4.8 2.4,2.8 5.7,2.6 8.8,2.6 4,0.1 7.9,-0.1 11.9,-0.4 1.4,-0.1 2.7,-0.9 4,-1.4 0.1,0.2 0.2,0.3 0.2,0.5 -1.6,0.7 -3.2,1.9 -4.9,2 -5.3,0.3 -10.6,0.4 -15.8,0 -1.9,-0.1 -3.7,-1.7 -5.4,-2.8 -0.3,-0.2 -0.3,-1.6 0.1,-1.9 2,-1.5 4.2,-2.9 6.4,-4.1 0.7,-0.4 1.7,-0.5 2.6,-0.5 3.4,0.1 6.7,0.3 10.1,0.5 -0.1,0.4 -0.1,0.6 -0.1,0.8 z"
       id="path1307"
       inkscape:connector-curvature="0" />
    <path
       d="m -498.18297,555.31901 c 0.4,0.3 1.4,0.7 1.9,1.4 3.2,4.2 4.5,9.2 5.5,14.4 0.7,3.7 1.9,7.4 3.2,11 0.2,0.6 2,0.9 3,1 1,0.2 2.1,0 3.1,0.3 -1,0.3 -1.9,0.5 -2.9,0.8 -2.1,0.8 -4.3,-0.3 -5,-2.5 -1,-3 -2.2,-5.9 -3,-8.9 -0.8,-2.9 -1,-5.9 -1.8,-8.7 -0.6,-2.3 -1.6,-4.4 -2.6,-6.5 -0.3,-0.9 -1,-1.7 -1.4,-2.3 z"
       id="path1309"
       inkscape:connector-curvature="0" />
    <path
       d="m -446.68297,476.61901 c 0.6,0.5 1.2,1.1 1.8,1.6 1.1,-1.3 1.9,-2.1 3.1,0.2 0.3,0.6 2.4,0.4 3.7,0.5 0.7,0 1.3,-0.1 2,-0.1 0.1,0.3 0.1,0.7 0.2,1 -1.3,0.4 -2.6,1.1 -3.8,1.1 -1.9,-0.1 -2.9,0.5 -3.4,2.2 -0.3,0.9 -0.5,1.8 -0.9,2.5 -0.3,0.4 -1,0.9 -1.4,0.8 -0.4,-0.1 -1,-0.7 -1.1,-1.2 -0.2,-0.6 -0.3,-1.5 0,-2 1.3,-2.2 1.2,-4.3 -0.9,-6.2 0.2,-0.2 0.4,-0.3 0.7,-0.4 z"
       id="path1311"
       inkscape:connector-curvature="0" />
    <path
       d="m -459.58297,427.31901 c -0.8,-1.7 -0.9,-3.2 0.3,-4.6 2.3,-2.5 4.5,-5.1 7.8,-6.1 1.5,-0.5 3.4,-0.1 5,0.3 0.3,0.1 0.4,1.7 0.5,2.6 -0.6,-0.1 -1.1,-0.2 -1.7,-0.2 -1.3,0 -2.9,-0.5 -3.9,0 -2.5,1.5 -4.7,3.4 -6.9,5.3 -0.5,0.5 -0.6,1.5 -1.1,2.7 z"
       id="path1313"
       inkscape:connector-curvature="0" />
    <path
       d="m -504.78297,126.51901 c -0.5,1 -1,2 -1.6,3 -0.1,-0.4 -0.6,-1.1 -0.4,-1.3 1,-1.4 -0.5,-2.1 -0.8,-3 -0.4,-1.1 -1.3,-2 -2.1,-2.9 -0.3,-0.3 -1.1,-0.5 -1.3,-0.4 -1,1.2 -2.6,2.5 -2.5,3.7 0.1,1.6 -0.5,2.6 -1.2,3.7 -0.3,0.5 -0.4,1.1 -0.8,2.3 -0.3,-1 -0.6,-1.4 -0.6,-1.9 0,-1.6 0.2,-3.4 0.3,-4.9 0.2,-1.7 2.4,-3.5 4.1,-4.6 1.1,-0.7 2.7,0.4 3.5,1.9 0.4,0.8 1.2,1.3 1.8,2 0.6,0.8 1.1,1.6 1.6,2.4 z"
       id="path1315"
       inkscape:connector-curvature="0" />
    <path
       d="m -460.88297,475.91901 c 3,0 6,0 9.1,0 0,0.2 0,0.5 0,0.7 -0.9,0.1 -1.9,0.3 -3,0.5 1.4,2.9 -1.3,4.5 -2.1,6.7 -0.1,0.4 -1.4,0.5 -2.1,0.7 -0.1,-1.2 -0.6,-2.4 -0.3,-3.5 0.3,-1.3 1.3,-2.4 2.1,-3.6 -1.4,-0.5 -2.6,-1.1 -3.7,-1.5 z"
       id="path1317"
       inkscape:connector-curvature="0" />
    <path
       d="m -584.88297,564.21901 c -2.4,0.3 -4.7,0.7 -7.1,0.9 -2.3,0.1 -4.6,0 -6.8,-0.1 -2.2,-0.1 -3,-1.8 -1.6,-3.6 2.7,-3.3 6.2,-4.5 10.5,-3.8 2.1,0.4 3.8,1 4.7,2.7 -1.5,-0.5 -3.1,-1.2 -4.8,-1.7 -3.3,-0.8 -6.2,0.3 -8.7,2.4 -0.7,0.5 -1,1.6 -1.4,2.3 0.7,0.3 1.4,0.9 2.1,0.9 3.4,-0.1 6.9,-0.4 10.3,-0.5 1,0 1.9,0.1 2.9,0.2 0,0.1 -0.1,0.2 -0.1,0.3 z"
       id="path1319"
       inkscape:connector-curvature="0" />
    <path
       d="m -297.58297,572.31901 c -0.3,0.9 -0.4,2 -0.9,2.3 -4.2,2.9 -8.9,4.5 -14.1,4.3 0.5,-5.2 7.2,-6.9 15,-6.6 z m -1.1,1.2 c -6.2,-0.5 -11.5,0.7 -13.1,5 4.8,-0.6 8.9,-2.2 13.1,-5 z"
       id="path1321"
       inkscape:connector-curvature="0" />
    <path
       d="m -473.48297,466.61901 c -0.5,2.6 -2.4,2 -3.9,1.3 -2.3,-1.1 -4.4,-2.4 -6.5,-3.9 -0.9,-0.7 -1.3,-2 -2.1,-3.1 1.5,-0.5 2.3,-0.9 2.6,0.9 0.1,0.7 1,1.4 1.7,1.8 1.8,1 3.6,2 5.5,2.9 0.7,0.1 1.6,0 2.7,0.1 z"
       id="path1323"
       inkscape:connector-curvature="0" />
    <path
       d="m -492.98297,344.91901 c 1.4,0.8 2.5,1.4 3.7,2.1 1.1,0.6 2.3,1.1 3.5,1.7 0.4,0.2 0.7,0.7 1,1 -0.4,0.3 -0.8,0.7 -1.3,0.8 -2.7,0.4 -6,-2.1 -6.9,-5.6 z"
       id="path1325"
       inkscape:connector-curvature="0" />
    <path
       d="m -427.48297,352.81901 c 0.5,-0.9 0.8,-1.4 1.1,-2 0.5,0.4 1,0.7 1.4,1.2 0.7,0.9 1.3,1.9 1.8,3 0.2,0.4 0,1.2 -0.3,1.4 -0.3,0.2 -1.2,0.1 -1.5,-0.1 -1,-1.1 -1.7,-2.3 -2.5,-3.5 z"
       id="path1327"
       inkscape:connector-curvature="0" />
    <path
       class="st0"
       d="m -441.68297,542.41901 c 0.9,1.5 2.2,3.5 3.3,5.4 1,1.8 2.7,2 4.3,1.6 1.7,-0.4 2.2,-2 2.3,-3.6 0.1,-1.7 0,-3.5 0,-5.2 1.6,0.2 3.1,0.4 4.5,0.5 -0.9,4 -1.9,7.9 -2.7,11.9 -1.2,5.6 -2.1,11.3 -3.4,16.9 -0.6,2.7 -1.5,5.3 -2.6,7.8 -0.6,1.3 -2.1,2.2 -2.9,3.4 -2.6,3.6 -5.1,7.2 -8,11.3 -0.9,-10 -1.7,-19.5 -2.7,-29 -1.1,-9.5 -3.6,-18.6 -6.7,-27.8 3.5,3.5 4.4,3.7 6.5,1.1 1.2,1.9 2.4,3.7 3.3,5.6 0.6,1.2 1.2,2.5 2.6,2 0.8,-0.1 1.4,-1.1 2.2,-1.9 z"
       id="path1329"
       inkscape:connector-curvature="0"
       style="fill:#ffffff" />
    <path
       class="st0"
       d="m -423.38297,501.21901 c 1.3,3.1 2.5,6 3.7,8.9 -0.5,1.1 -1,2.3 -1.6,3.7 -1.8,-1.3 -3.6,-2.6 -5.3,-3.9 -0.3,-0.2 -0.5,-0.7 -0.4,-1 0.6,-2.1 1.3,-4.2 2.1,-6.3 0.1,-0.5 0.8,-0.8 1.5,-1.4 z"
       id="path1331"
       inkscape:connector-curvature="0"
       style="fill:#ffffff" />
    <path
       class="st0"
       d="m -462.68297,591.11901 c 2,3 4,6 6,9 -4.1,-0.5 -4.9,-1.5 -5.3,-5.4 -0.1,-1.2 -0.7,-2.3 -1.1,-3.5 0.1,0 0.2,-0.1 0.4,-0.1 z"
       id="path1333"
       inkscape:connector-curvature="0"
       style="fill:#ffffff" />
    <path
       class="st0"
       d="m -467.78297,282.31901 c 3.6,0 7.2,0 10.8,0 0,0.2 0,0.3 0,0.5 -3.6,0 -7.2,0 -10.8,0 0,-0.2 0,-0.4 0,-0.5 z"
       id="path1335"
       inkscape:connector-curvature="0"
       style="fill:#ffffff" />
    <path
       class="st0"
       d="m -505.08297,266.81901 c 0.8,1 1.6,2.1 2.4,3.2 -0.3,0 -0.7,0 -1.1,-0.1 -0.4,0 -0.8,-0.1 -1.3,-0.2 0,-1 0,-2 0,-2.9 z"
       id="path1337"
       inkscape:connector-curvature="0"
       style="fill:#ffffff" />
    <path
       class="st0"
       d="m -447.08297,440.11901 c 2,2.8 1.6,3.8 -1.6,4.8 -5,1.5 -9.9,3.1 -14.8,4.6 3.8,-5.3 9.6,-9 16.4,-9.4 z"
       id="path1339"
       inkscape:connector-curvature="0"
       style="fill:#ffffff" />
    <path
       class="st0"
       d="m -249.18297,584.61901 c -1.2,3.3 -3.2,5.6 -5.6,7.5 -6.7,5.3 -14.7,7.7 -22.7,10.1 -9.5,2.9 -19,5.8 -28.5,8.7 -0.5,0.2 -1,0.3 -1.7,0.1 19.5,-8.7 38.8,-17.5 58.5,-26.4 z"
       id="path1341"
       inkscape:connector-curvature="0"
       style="fill:#ffffff" />
    <path
       class="st0"
       d="m -541.58297,547.31901 c -7,-0.6 -13.2,-3.4 -14.2,-6.3 5.4,-1.6 12.6,1.9 14.2,6.3 z"
       id="path1343"
       inkscape:connector-curvature="0"
       style="fill:#ffffff" />
    <path
       class="st0"
       d="m -307.18297,530.21901 c 1.7,-3.7 3.7,-6.8 7.3,-8.3 0.9,-0.4 2,0 3.1,0 -0.3,1.1 -0.1,2.7 -0.8,3.4 -2.7,2.3 -5.6,4.2 -9.6,4.9 z"
       id="path1345"
       inkscape:connector-curvature="0"
       style="fill:#ffffff" />
    <path
       class="st0"
       d="m -298.68297,573.51901 c -4.2,2.8 -8.3,4.4 -13.1,5 1.6,-4.3 6.9,-5.5 13.1,-5 z"
       id="path1347"
       inkscape:connector-curvature="0"
       style="fill:#ffffff" />
  </g>
</svg>
