<?xml version="1.0" encoding="UTF-8" standalone="no"?>
<!-- Created with Inkscape (http://www.inkscape.org/) -->

<svg
   xmlns:dc="http://purl.org/dc/elements/1.1/"
   xmlns:cc="http://creativecommons.org/ns#"
   xmlns:rdf="http://www.w3.org/1999/02/22-rdf-syntax-ns#"
   xmlns:svg="http://www.w3.org/2000/svg"
   xmlns="http://www.w3.org/2000/svg"
   xmlns:sodipodi="http://sodipodi.sourceforge.net/DTD/sodipodi-0.dtd"
   xmlns:inkscape="http://www.inkscape.org/namespaces/inkscape"
   width="270.62115mm"
   height="188.83688mm"
   viewBox="0 0 958.89386 669.10706"
   id="svg3543"
   version="1.1"
   inkscape:version="0.91 r13725"
   sodipodi:docname="interaction with real life environments.svg">
  <defs
     id="defs3545" />
  <sodipodi:namedview
     id="base"
     pagecolor="#ffffff"
     bordercolor="#666666"
     borderopacity="1.0"
     inkscape:pageopacity="0.0"
     inkscape:pageshadow="2"
     inkscape:zoom="0.35"
     inkscape:cx="2445.8755"
     inkscape:cy="-508.30361"
     inkscape:document-units="px"
     inkscape:current-layer="layer1"
     showgrid="false"
     fit-margin-top="0"
     fit-margin-left="0"
     fit-margin-right="0"
     fit-margin-bottom="0"
     inkscape:window-width="1920"
     inkscape:window-height="1056"
     inkscape:window-x="0"
     inkscape:window-y="24"
     inkscape:window-maximized="1" />
  <metadata
     id="metadata3548">
    <rdf:RDF>
      <cc:Work
         rdf:about="">
        <dc:format>image/svg+xml</dc:format>
        <dc:type
           rdf:resource="http://purl.org/dc/dcmitype/StillImage" />
        <dc:title></dc:title>
      </cc:Work>
    </rdf:RDF>
  </metadata>
  <g
     inkscape:label="Layer 1"
     inkscape:groupmode="layer"
     id="layer1"
     transform="translate(2070.8755,645.04848)">
    <g
       transform="translate(-2105.3521,-682.96537)"
       id="Layer_1" />
    <g
       transform="translate(-2105.3521,-682.96537)"
       id="Layer_2" />
    <path
       d="m -1676.5521,-498.16537 c 2.4,-0.2 4.8,-0.3 7.2,-0.5 0.2,-0.4 0.5,-0.7 0.7,-1.1 0.8,1.7 1.8,3.4 2.5,5.1 2.1,5.3 4.1,10.7 6.1,16 0.4,-0.4 0.8,-0.8 1.3,-1.1 1.5,0.6 3.1,1.2 5.1,2 2.8,-6.6 5.7,-13.7 9,-21.7 -7,3.2 -9.2,-2.3 -11.9,-5.2 -8.8,-9.7 -10.1,-21.3 -7.3,-33.8 2,-9 6.3,-16.8 11.4,-24.4 2.8,-4.2 5.1,-8.8 7.8,-13.1 1.3,-2.1 3.1,-4 4.6,-6 1.3,-1.8 2.5,-3.8 3.4,-6 5,-1.7 10.2,-2.4 15.9,-0.8 3.6,1 7.8,0 11.8,0.1 3.2,0.1 6.9,-0.3 9.4,1.3 5.2,3.2 9.5,7.6 12.2,13.4 6,13.1 8,26.8 6.5,41 -0.5,4.8 -1.3,9.8 -6.7,12.9 -3.3,1.9 -5.7,5.7 -8.2,8.8 -0.6,0.8 0.1,2.5 0.1,3.4 5.4,2.1 10.4,4 15.7,6.1 -0.3,-2.9 -0.6,-5.7 -1,-8.6 -0.1,-0.4 -0.2,-1.1 -0.5,-1.2 -4.2,-2.4 -2.7,-4.4 0.3,-6.4 0.5,-0.3 0.8,-0.8 1.2,-1.2 2.3,-2 4.8,-5 7.7,-3.4 2.2,1.2 3.9,4.6 4.4,7.3 0.9,4.8 1.1,9.8 1,14.7 -0.2,12.7 1.1,25.2 3.4,37.6 0.1,0.7 0,1.4 0,1.9 1.8,0.7 3.4,1.4 5.1,2 1.1,0.4 2.2,0.9 3.3,0.9 20.8,0.2 41.5,3.5 62.4,2.9 6,-0.2 12.1,0.5 18.1,0.5 2.3,0 4.8,-0.5 7,-1.4 7.4,-2.9 14.6,-6.3 22,-9.2 2.8,-1.1 5.9,-1.8 8.8,-2.4 0.8,-0.2 1.8,0.2 2.6,0.6 3.4,2 7,3.7 10,6.2 3.1,2.7 6.3,1.7 9.3,0.9 3.6,-1 7,-3 10.4,-4.6 0.5,-0.2 1,-0.9 1.5,-0.8 1,0.1 2,0.4 3,0.7 -0.5,0.8 -0.8,1.9 -1.5,2.3 -4,2.1 -8.1,3.9 -12.3,6 2.1,3.9 4.4,8.1 7.2,13.3 2.6,-6.6 4.9,-12.2 7.2,-17.9 0.3,-0.8 0.6,-2 1.2,-2.2 0.6,-0.2 1.7,0.4 2.3,0.9 6,4.5 11.9,9 17.9,13.5 0.5,0.4 1.3,0.6 1.9,0.6 8.9,0 17.8,0 26.3,0 1.7,-6.6 3.2,-13.2 5,-19.7 0.3,-1.1 1.3,-2.3 2.4,-2.9 7.6,-4.4 15.3,-8.6 24.5,-9.7 -2.5,-2.7 1.2,-7.4 -2.2,-10 -0.5,0 -1.1,0 -1.6,0.1 0.6,-1.9 1.2,-3.9 1.9,-6.1 -1.5,-0.1 -3.3,-0.3 -5.4,-0.5 -0.1,1.4 -0.2,2.7 -0.3,3.8 -3.1,0.4 -6.2,0.8 -8.5,-2.1 -0.8,-1.1 -1.9,-2 -2.7,-3.1 -12.1,-15.4 -12.7,-32.2 -5.9,-49.9 1.8,-4.8 3.3,-9.7 5.6,-14.2 1.6,-3.2 4,-6.3 6.8,-8.5 6,-4.6 12.3,-8.9 18.9,-12.8 3.1,-1.8 6.9,-3.3 10.4,-3.4 7.8,-0.1 14.1,3.9 18.2,10.2 9.6,14.8 9.9,31.4 8.1,48.2 -0.1,1.4 -1.4,2.6 -2,4 -5.9,12.4 -15,22 -25.9,29.9 -0.7,0.5 -1.2,1.8 -1.2,2.7 -0.1,3.2 -0.1,6.5 0,9.8 0.1,2.4 0.8,4.4 3.9,3.7 0.5,-0.1 1.4,0.1 1.6,0.4 1.3,3.3 4.3,2.3 6.6,2.4 5.2,0.2 9.2,3 11.1,7.2 2.3,5.3 3.2,11.3 4.6,17 0.2,0.6 -0.5,1.5 -0.8,2.2 -0.2,0.6 -0.6,1.6 -0.3,1.9 1.4,1.7 2.6,4.1 4.5,4.7 3.6,1.1 7.5,1.3 11.3,1.7 11.2,1.2 22.4,2.2 33.6,3.4 5,0.5 10,1.4 15.1,2.2 0.8,0.1 1.6,0.6 2.2,1.5 -6.6,-0.5 -13.2,-1.1 -19.8,-1.6 -4.2,-0.4 -8.3,-0.9 -12.5,-1.1 -10.4,-0.4 -20.9,-0.6 -31.3,-0.8 -0.9,0 -2.4,1.1 -2.5,1.9 -1,6.8 -1.8,13.7 -2.8,20.5 -0.1,0.9 -1.2,1.7 -1.9,2.6 -0.7,-0.9 -2,-1.9 -1.9,-2.7 0.8,-7.4 1.7,-14.7 2.9,-22 1.7,-9.9 2.1,-19.5 -2.9,-28.6 -2.1,-3.9 -4.8,-6.1 -9.5,-6.3 -4,-0.2 -7.6,0 -11.5,1.2 -5.1,1.5 -10.2,0.1 -14.1,-3.7 -1.8,-1.7 -3.5,-1.8 -5.3,-1 -5.2,2.3 -10.6,4.3 -15.3,7.4 -2.1,1.4 -3.3,5.3 -3.5,8.2 -0.6,10.9 -0.7,21.8 2.2,32.4 0.5,1.7 0.5,3.7 0.3,5.5 -0.4,4.8 0.7,9.1 3.4,13.1 0.8,1.2 1.1,2.8 1.7,4.4 1.2,-0.8 2.4,-1.7 3.7,-2.6 -6.4,-15.2 -2.6,-32 -8,-47.3 2.5,-0.2 3.4,0.6 3.9,3.5 0.6,4.4 1.1,8.7 1.6,13.1 0.7,7.2 1.2,14.3 2.1,21.5 0.3,2.5 1.5,5 2.2,7.1 2.4,-1 4.4,-1.8 7,-2.9 -4.3,-10 -0.5,-20.7 -1.9,-31.5 1.4,-0.2 2.3,-0.3 3.2,-0.4 8.8,-0.4 17.5,-0.6 26.2,-1.4 1.3,-0.1 2.4,-2.5 3.7,-4.1 0.5,0.1 1.4,0.3 2,0.4 -1.1,11.8 -2.2,23.4 -3.4,35.6 -6.8,1.4 -14.2,3 -21.5,4.5 -3.1,0.6 -6.3,0.6 -9.2,1.7 -3.3,1.2 -6.4,3.2 -9.3,5.2 -1.3,0.9 0.2,3.5 2.1,3.5 4.5,0 9.2,0.5 13.5,-0.5 9.9,-2.5 19.5,-5.7 29.3,-8.7 0.9,-0.3 1.9,-0.9 2.7,-0.7 4.4,1.2 6,-2 8.3,-4.5 6.1,-6.6 13.8,-10.3 22.6,-11.1 7.3,-0.7 14.8,-0.6 22.1,1.6 4.4,1.3 9.3,1.2 13.9,1.7 -0.2,1.3 -0.4,2.6 -0.6,3.7 -2.8,-0.2 -5.4,-0.4 -8,-0.7 -2.6,-0.3 -5.2,-0.7 -7.9,-0.9 -2.7,-0.2 -5.4,-0.5 -8.1,-0.4 -2.1,0 -4.1,0.7 -6.2,0.7 -13.7,0.6 -23.9,6.5 -29.8,19.2 -1.4,3 -1.1,5.7 0.9,7.7 5.2,4.8 10.8,9.1 17.8,11.1 4.5,1.3 9.1,2.3 13.1,3.3 2.6,24.7 0.1,48.9 -6.9,73 -0.6,-1.8 -1.7,-3.5 -1.6,-5.2 0.2,-3.9 0.9,-7.8 1.6,-11.7 0.7,-3.9 2,-7.7 2.4,-11.5 1.1,-10.3 1.8,-20.6 2.7,-30.8 0.2,-2.2 0.4,-4.4 0.6,-6.6 -5.3,5.2 -9.8,10.7 -14.5,16.1 -1,1.1 -2.2,2 -3.4,2.9 -0.5,-1.5 -1,-2.9 -1.5,-4.4 -0.1,-0.2 -0.3,-0.4 -0.4,-0.5 -4.5,-0.9 -9,-1.7 -13.5,-2.6 0.8,7.7 1.5,15.3 2.3,23.7 3.5,-4.8 6.6,-8.8 9.6,-12.9 0,1.2 -0.5,2 -1,2.8 -4.3,7.2 -10.9,13.5 -9.5,23 0,0.1 -0.1,0.2 -0.1,0.3 -1.3,8.4 -2.5,16.9 -3.9,25.7 5,-1.2 10,-2.4 14.8,-3.7 0.6,-0.2 1.3,-1.2 1.4,-2 0.8,-5.6 1.7,-11.3 2,-16.9 0.5,-7.8 0.5,-15.5 0.8,-23.3 0,-1 0.3,-1.9 0.5,-2.9 1,14.6 3.5,29.1 0.4,43.8 3.1,-0.6 5.7,-1.3 8.3,-1.5 4.3,-0.4 8.6,-0.6 9.5,-6.1 0,-0.1 0.1,-0.2 0.1,-0.3 5.8,-9.4 13.1,-17.4 22.3,-23.6 1.3,-0.9 3.1,-1 4.8,-1.5 -0.9,-10.6 -2.1,-21.7 -2.7,-32.8 -0.6,-10.4 -0.4,-20.9 -0.9,-31.3 -0.3,-5.2 -1.3,-10.3 -2,-15.4 -0.1,-0.8 -0.4,-1.6 -0.6,-2.3 0.3,-0.2 0.5,-0.3 0.8,-0.5 0.8,0.7 1.9,1.4 2.3,2.3 0.9,2.2 2,4.5 2.2,6.9 0.9,11.5 1.6,23.1 2.4,34.7 0.4,5.9 0.9,11.8 1.2,17.7 0.4,6.8 0.6,13.6 0.8,21 1.8,-3.1 3.3,-5.5 4.6,-8 0.4,-0.8 0.7,-1.9 0.6,-2.8 -0.5,-7.6 -1.4,-15.2 -1.6,-22.9 -0.3,-9.8 -0.1,-19.5 -0.1,-29.3 0,-9.7 0,-19.4 0,-29.9 -2.6,2.4 -4.5,4.2 -6.5,5.9 2.2,-3 4.5,-6.1 6.7,-9.1 0.9,-1.3 1.6,-2.7 2.8,-4.7 0.3,2.9 0.5,5.3 0.8,7.8 0.6,4.1 1.6,8.2 1.7,12.3 0.3,12 0.4,24.1 0.4,36.2 0.1,9.3 0,18.5 0,27.8 -0.5,0 0,0 0.4,0 -0.2,1.8 0.1,3.9 -0.6,5.5 -1,2.2 -3.2,4 -4.2,6.2 -2.6,5.4 -7.6,8 -12.2,11.3 -4.6,3.3 -9.2,6.8 -12.8,11 -2.7,3.2 -3.8,7.7 -6,12.5 5.7,-0.3 10.7,-0.6 15.7,-0.9 12.5,-0.7 24.9,-0.4 37.1,2.2 13,2.8 25.5,7 36.9,14 8.5,5.2 16.2,11.2 22.9,18.6 6.5,7.3 10.7,16 13.7,25.2 3.1,9.4 3.6,19 2.3,28.8 -4.2,31.6 -6.2,63.4 -6.6,95.3 -0.1,8.8 -0.2,17.6 -0.5,26.400004 -0.1,3.9 -0.5,7.8 -0.7,11.7 -0.4,-0.3 -0.9,-1.1 -1.5,-1.1 -2.7,-0.2 -2.7,-1.9 -2.6,-3.9 0.9,-16.100004 2.1,-32.100004 2.7,-48.200004 0.8,-19.7 1.3,-39.5 1.9,-59.2 0,-0.5 0,-1.1 0,-2.3 -2.4,3.2 -4.3,5.8 -6.4,8.4 -11.5,14.5 -26.6,23.9 -43.7,30.5 -22,8.5 -45.1,11.4 -68.5,12 -17.6,0.5 -35.2,0 -52.3,-3.9 -17.5,-4 -34.9,-8.7 -49.9,-19.4 -0.1,-0.1 -0.2,-0.2 -0.3,-0.2 -5.4,-0.5 -6.2,-5.2 -8.1,-9.2 -5.6,3.5 -11,6.8 -16.3,10.2 -1.4,0.9 -2.9,1.8 -4.1,2.9 -3.8,3.8 -2.5,8.6 -1.5,12.8 1.7,7.1 2.3,14.1 1.9,21.3 -0.4,6.7 0.2,13.5 -0.2,20.2 -0.7,12.300004 -1.7,24.500004 -2.5,36.800004 -0.6,8.6 -0.8,17.2 -1.7,25.7 -0.3,3 -2,5.8 -3.1,8.7 -0.3,-0.1 -0.6,-0.3 -0.9,-0.4 0,-7.2 -0.4,-14.3 0.1,-21.5 1.1,-17.5 2.9,-34.9 3.8,-52.400004 0.7,-14 0.5,-28.1 0.8,-42.2 0,-2.5 0,-5 0,-7.7 -8.6,0 -17,0 -25.6,0 1.6,2.2 3.6,4.1 4.6,6.4 0.8,1.9 1.1,4.7 0.2,6.4 -0.5,1 -3.8,1.2 -5.7,0.8 -8.1,-1.8 -14.4,-7.1 -20.9,-12 -2.1,-1.5 -4,-2.4 -6.6,-2.4 -4.4,-0.1 -8.8,-0.5 -13.1,-1 -5.1,-0.6 -9.9,0.7 -14.5,2.6 -7.9,3.2 -15.9,4.9 -24.4,3.7 -5,-0.7 -5.8,-2.7 -2.9,-7 0.3,-0.4 0.5,-0.7 1.1,-1.5 -1.6,-0.3 -2.9,-0.6 -4.2,-0.6 -19.4,-0.5 -38.6,-3.2 -57.8,-5.8 -12.4,-1.7 -25,-2.1 -37.4,-3.1 -11.4,-1 -22.8,-2.4 -34.3,-3.1 -10,-0.6 -20,-0.6 -30,-0.8 -15.8,-0.3 -31.6,-0.6 -47.4,-0.8 -1.6,0 -3.2,0.1 -5.6,0.3 1.4,1.7 2.3,3.1 3.6,4.2 4.9,4.3 7.3,9.4 6.5,16.2 -0.7,6.6 0.3,13.3 -0.7,19.8 -2.4,15.4 -0.9,30.9 -2.1,46.300004 -0.8,10.1 -0.6,20.2 -0.9,30.3 -0.1,2 0.7,2.3 2.6,1.7 1.2,-0.3 3.5,0.1 3.9,0.9 1,2.3 3.1,2.1 4.8,2.6 17.4,5.5 35.4,5.3 53.4,5.8 18.3,0.6 36.7,1.6 55,2.7 16.7,1 33.3,2.8 49.9,3.8 19.2,1.2 38.5,2 57.7,2.7 13.1,0.4 26.3,0 39.4,0.5 8.7,0.4 17.3,1.9 25.9,2.9 6.1,0.8 12.2,1.6 18.2,2.6 1.1,0.2 2.1,0.8 3.1,1.3 0,0.4 -0.1,0.8 -0.1,1.2 -2.1,0.3 -4.2,0.9 -6.3,0.8 -12.2,-0.8 -24.3,-2.3 -36.5,-2.6 -17.2,-0.5 -34.4,-0.1 -51.6,-0.2 -8.4,-0.1 -16.7,-0.3 -25.1,-0.8 -13.3,-0.8 -26.6,-1.9 -39.9,-2.9 -10.9,-0.8 -21.8,-1.5 -32.6,-2.2 -16,-1 -32,-1.8 -48,-2.7 -12.2,-0.6 -24.4,-1 -36.5,-1.8 -5.2,-0.3 -10.3,-1.2 -15.5,-2 -6,-0.9 -12,-1.8 -18,-2.7 -1.3,-0.2 -2.7,-0.6 -4.3,-0.9 0,8.3 0.1,16.6 0,25 -0.1,6.2 -0.6,12.4 -1.1,18.6 -0.1,1.8000002 -1.6,2.7000002 -3.3,1.7000002 -0.8,-0.4000002 -1.6,-2.1000002 -1.3,-2.7000002 2.6,-5.1 1.1,-10.4 1.3,-15.6 0.4,-15.2 0.3,-30.4 0.6,-45.6 0.4,-18.8 1.1,-37.600004 1.6,-56.400004 0,-0.8 -0.1,-1.5 -0.1,-2.6 -0.7,0.5 -1.1,0.6 -1.4,0.9 -10,9.8 -22.5,14.2 -35.9,16.9 -17.8,3.5 -35.8,5.6 -53.9,5.9 -14.7,0.2 -29.5,0.4 -44.3,-0.5 -17.9,-1.2 -35.9,-1.8 -53.5,-6 -9.9,-2.3 -19.6,-5.2 -28.3,-10.5 -7.9,-4.8 -14,-11.4 -17,-20.4 -0.3,-0.7 -0.6,-1.4 -0.7,-1.6 0,20.8 -0.6,42 0.2,63.300004 0.8,21 3.1,42 4.7,63 -0.5,0.1 -1,0.1 -1.5,0.2 -0.2,-0.7 -0.4,-1.5 -0.5,-2.2 -1,-9.6 -1.9,-19.2 -3.1,-28.7 -0.1,-0.9 -1.3,-2.2 -2.2,-2.4 -5.9,-0.9 -11.9,-1.8 -17.8,-2.2 -19.9,-1.4 -39.8,-2.5 -59.7,-4 -8,-0.6 -16,-2 -24.2,-3.1 0,0.4 0,1.2 0,1 -6,-1.2 -12,-2.1 -17.9,-3.6 -3.8,-1 -7.4,-2.6 -11,-4.2 -0.7,-0.3 -1.4,-1.3 -1.5,-2 -1.1,-9.8 -2.5,-19.5 -2.9,-29.300004 -0.7,-15.9 -0.7,-31.8 -0.9,-47.7 -0.2,-19.6 -0.1,-39.2 -0.7,-58.8 -0.3,-8.4 -2.4,-16.7 -3.1,-25.1 -0.2,-2.4 0.9,-5.7 2.6,-7.4 8.4,-8.7 17.7,-16.4 28.5,-22.4 4.1,-2.3 7.8,-5.5 11.5,-8.5 0.8,-0.6 1.3,-2.2 1.3,-3.2 -0.2,-6.3 -0.6,-12.5 -0.9,-18.8 -0.1,-2.8 -1,-4.3 -4.2,-4.7 -4.9,-0.6 -9.7,-2 -14.7,-3 0.4,-0.9 0.7,-1.5 1,-2.2 5.5,2.6 11.3,3 17.3,2.4 0.9,-0.1 1.9,1.1 2.9,1.3 6.5,1 13,1.8 19.6,2.7 0.7,0.1 1.5,-0.1 2.1,0.2 8.6,3.3 17.6,4.7 26.7,6.1 8,1.3 15.9,3.3 23.8,4.7 1.3,0.2 3.3,-0.3 4.2,-1.3 9,-9 17.7,-18.3 26.7,-27.4 3.5,-3.5 7.5,-6.5 11.1,-10 1.4,-1.3 2.2,-3.2 3.5,-5.2 -6.2,-2.6 -12.3,-5 -18.4,-7.6 -3,-1.3 -6.3,-1.8 -8.3,-5 -0.5,-0.8 -3.1,-0.8 -4.5,-0.3 -0.6,0.2 -0.7,2.3 -0.9,3.5 -0.1,0.5 0.3,1.1 0.4,1.5 -5.5,4.7 -11,9.3 -16.4,13.9 -0.6,0.5 -0.9,2 -1.4,2.1 -3.7,0.2 -7.4,0.6 -11,0.1 -12.3,-1.8 -24.6,-3.4 -36.6,-6.2 -6.9,-1.6 -11.6,0.6 -16.7,4.4 -4.9,3.7 -10.4,6.6 -15.5,10 -2.2,1.5 -4.1,3.4 -6.3,5 -0.7,0.5 -2,0.3 -3,0.5 0.3,-1 0.2,-2.4 0.9,-2.8 4,-2.9 8.1,-5.7 12.3,-8.4 6.7,-4.3 13.5,-8.5 20.2,-12.9 0.8,-0.5 1.6,-2 1.5,-3 -0.7,-9.4 -1.7,-18.7 -2.5,-28 -0.8,-9.7 -1.6,-19.3 -2.4,-29.1 2.1,-2 4.5,-4.3 7,-6.5 1.3,-1.1 2.6,-2.3 4.1,-3.1 14.5,-7.4 29.1,-14.8 43.7,-22.1 4.2,-2.1 8.4,-4.2 13.1,-6.6 3.6,18.5 7,36.2 10.4,54 1.5,-0.1 2.8,-0.2 4.3,-0.3 -1.5,-9.3 -3.1,-18.4 -4.2,-27.5 -0.3,-2.7 0.7,-5.9 2,-8.4 5.6,-10.5 14.5,-17.6 25,-22.9 0.6,-0.3 1.2,-0.7 1.8,-1.1 -4.6,-4 -5.3,-5.8 -3.7,-9.2 2.3,-4.7 8.2,-7.1 13.3,-5.4 0.6,0.2 1.3,0.5 1.9,0.8 -0.5,-10.4 1,-20.5 4,-30.4 0.5,-1.5 1.2,-3 2.2,-4.3 0.4,-0.5 1.5,-0.5 2,-0.6 -1.1,6.6 -2.3,12.8 -3.2,19 -0.9,6.2 -1.4,12.4 -2.1,18.6 -4.1,0.1 -8.4,-1.8 -12.5,1 -3.4,2.3 -3.8,4.4 0,6.3 2.1,1.1 4.8,1.1 7.3,1.4 1.2,0.1 2.4,-0.3 3.8,-0.5 0.4,1.4 0.8,2.5 1.2,3.7 -4.7,2.1 -9.5,4.1 -14.1,6.4 -9.2,4.6 -17,10.9 -22.3,19.9 -0.5,0.8 -0.9,1.9 -0.9,2.8 0.1,3.4 0.8,6.9 0.7,10.3 -0.1,2.6 0.8,4.3 2.7,6 8.5,7.5 18.7,9.2 29.5,9.6 2.5,0.1 5.1,-0.3 7.6,0 1.3,0.2 2.4,1.5 4.1,2.6 -3,1.5 -5.1,2.6 -7.3,3.7 0.1,0.3 0.1,0.6 0.2,0.8 5,0.2 10.1,0.5 15.1,0.5 0.9,0 2.2,-1.1 2.8,-2 3.4,-5.5 7,-10.9 9.8,-16.7 1.8,-3.8 2.4,-8.1 3.5,-12.2 0.5,-2 1,-4 1.4,-5.8 -6.1,0.9 -12,1.9 -17.9,2.6 -2.1,0.3 -4.3,0.4 -6.3,-0.1 -1.7,-0.5 -4.2,-1.7 -4.6,-3 -1.9,-6.6 -4.8,-13.1 -4,-20.2 0.1,-0.7 0.3,-1.3 0.7,-2.8 1,2.2 1.9,3.7 2.3,5.2 1.4,5.1 2.6,10.2 4,15.3 0.2,0.6 1.1,1.3 1.9,1.5 8.5,2.1 16.5,0.9 23.3,-3.5 2.5,1.7 4.5,3.1 6.4,4.4 -5.6,1.1 -2.8,7.1 -5.3,10.4 0.2,0.2 0.5,0.3 0.7,0.5 4.1,-4.4 8.2,-8.8 12.7,-13.7 0.6,1 1.3,2.1 2,3.3 -1.3,1.6 -2.8,3.6 -4.5,5.4 -9.9,10 -17,21.9 -23.9,33.9 -1.1,1.8 -4,3.3 -1.8,6 -1.1,0.5 -2.5,0.7 -3,1.5 -3.3,6.2 -8.3,11.2 -12.7,16.6 -0.7,0.9 -2.9,1 -4.3,0.7 -9.5,-1.6 -18.8,-3.8 -26.5,-8.9 -3.3,4.3 -6.5,8.3 -9.9,12.7 2.8,1.3 5.4,2.4 7.9,3.6 0.1,-0.1 0.2,-0.3 0.3,-0.4 -0.7,-0.8 -1.4,-1.7 -2.8,-3.3 4.5,2.5 8,4.8 11.7,6.5 5.4,2.6 10.9,5.1 16.5,7.1 1.5,0.6 4.3,0.1 5.5,-1 8.5,-8.2 16.8,-16.6 25.1,-25 2.6,-2.6 5.1,-5.4 7.7,-8.1 0.5,-0.5 1.5,-0.4 2.3,-0.6 -0.1,0.8 -0.3,1.6 -0.4,2.5 0,0.1 -0.1,0.2 -0.2,0.3 -6.4,3.6 -5.1,8.3 -3.2,14.3 3,9 4.6,18.4 6.6,27.6 0.5,2.2 1.2,3.2 3.6,3.2 3.2,0 6.3,0.4 9.9,0.7 1.2,-4.2 2.7,-8.6 3.6,-13.1 1.8,-8.5 3.3,-17.1 4.8,-25.6 0.7,-3.8 0.7,-7.8 1.3,-11.6 0.2,-1.4 1.1,-2.6 1.3,-4 0.3,-2 0.8,-4.2 0.3,-6 -1.5,-5.5 -3.2,-10.9 -5.2,-16.1 -1.1,-3 -1.4,-6.2 -2.4,-8.9 -2,-5.2 -5.4,-9.8 -8.2,-14.8 -2.1,1 -3.5,1.6 -5.8,2.7 7.7,-7.2 4.1,-15.2 4.2,-22.9 -2,1.8 -3.6,3.4 -5.4,4.7 -0.5,0.4 -1.9,-0.3 -2.8,-0.7 -0.2,-0.1 -0.3,-1.2 -0.3,-1.2 0.8,-0.3 1.7,-0.4 2.4,-0.7 0.9,-0.5 2.1,-1 2.6,-1.8 2.1,-3.3 2.5,-6.9 1.4,-11.7 -1.8,1.8 -3.2,3.1 -4.5,4.4 -1.6,-2.9 1.4,-5.8 6.2,-5.8 1.3,-16.4 0.7,-32.6 -4.3,-49.1 -15.1,0.7 -31.1,0.2 -46.8,-4.2 -0.1,0.4 -0.3,0.8 -0.4,1.2 0.9,0.8 1.8,1.5 2.7,2.3 1.8,1.6 1.6,2.9 -0.8,3.7 -2.3,0.8 -4.5,1.4 -7.4,2.3 2.9,4.7 7.6,5.3 11.6,7.8 -2.7,1.4 -4.8,1.9 -7.1,0.3 -1.2,-0.8 -3,-0.9 -4.1,-1.8 -1.5,-1.3 -3.1,-2.9 -3.9,-4.7 -1,-2.5 1,-4 2.9,-5.2 0.9,-0.5 1.8,-1 3,-1.5 -0.4,-1 -0.9,-1.8 -1.1,-2.8 -0.4,-2.6 0.4,-4.6 3.4,-4.3 4.9,0.5 9.7,1.5 14.7,1.9 8.8,0.7 17.5,1.3 26.3,1.8 3.4,0.2 6.9,0 10.3,0 2,10 4.6,19.1 5.5,28.4 0.9,9.3 0.2,18.7 0.2,27.8 10.2,3 20.9,2.5 29.2,11.2 8.6,-6.3 17.6,-12.6 26.3,-19.2 3.3,-2.6 6.1,-5.9 8.9,-9.1 3.3,-3.6 5.8,-3.4 7.3,1.3 1,3.1 1.5,6.5 1.6,9.7 0.2,8.4 -1.8,16.5 -2.8,24.7 -0.7,6.2 0.7,12.8 1.9,19.1 0.3,1.8 2.9,3.9 4.9,4.5 2.5,0.9 3.7,-1.7 4.7,-3.7 2.9,-5.6 7.2,-10.7 6.3,-17.6 -0.4,-2.8 -1.3,-5.6 -1.5,-8.4 -0.3,-5.2 0.1,-10.5 -0.2,-15.7 -0.5,-6.5 -1.4,-13 -2.1,-19.4 -3.4,0 -6.3,0 -9.2,0 -0.2,2.8 -0.4,5.4 -0.6,7.9 -0.2,0 -0.4,-0.1 -0.6,-0.1 -0.8,-3.9 -1.2,-7.9 -2.6,-11.5 -1.4,-3.7 -3.8,-7.1 -5.7,-10.6 -0.7,-1.3 -1.5,-2.6 -1.8,-4 -1,-4.4 0,-7.9 5.8,-8.5 -1.5,-3.3 -2.7,-6.2 -4.1,-8.9 -2.9,-5.7 0,-10.5 6.4,-10.8 2.9,-0.2 5.7,-0.4 8.3,-0.6 1.5,5.8 2.7,11.4 4.3,16.8 0.8,2.5 2.4,4.7 3.8,6.9 1.1,1.7 2,3.2 1,5.4 -0.4,0.8 -0.1,2.1 0.2,3.1 0.3,1 1.1,1.8 1.4,2.8 1.5,5.3 1.3,5.1 -3.5,5.5 -1.7,0.1 -3.4,0.4 -6.2,0.8 1.5,1.5 2.4,2.4 3.3,3.4 0.5,0.6 1,1.1 1.3,1.8 3.3,7.8 7.5,15.1 11.5,22.5 0.3,0.6 0.9,1 1.4,1.7 1.3,-2.8 2.6,-5.5 3.7,-7.9 -4.3,-4.2 -8.6,-8.4 -12.9,-12.7 -0.1,-0.1 0.3,-0.7 0.4,-0.9 4.4,3.8 8.8,7.5 13.1,11.2 0.1,-0.3 0.2,-0.6 0.3,-0.8 1.2,-0.2 2.3,-0.3 3.5,-0.5 0,0.8 0,1.7 0,2.6 1.5,0.7 3.2,1.5 4.9,2.3 -0.1,0.4 -0.2,0.7 -0.4,1.1 -2,-0.5 -4.1,-0.9 -7.1,-1.6 -1.3,3.8 -2.7,7.8 -4.2,12.3 -5.8,-6.4 -8.8,-14.1 -12.9,-21.2 0.3,1.8 0.4,3.7 1,5.4 2.6,7 1.7,14.2 1.6,21.3 0,3.1 0.6,6.3 1.1,9.4 0.3,2.5 1,4.7 -1.3,6.9 -1,1 -0.3,3.9 -0.2,5.9 0.1,1 0.7,1.9 1,2.8 -2.2,0.5 -4.2,0.9 -6.9,1.5 2.8,2.9 5.1,2.7 8,2.5 1.4,3.2 3,7.5 4.9,11.6 3.9,8.6 7.8,17.2 12,25.6 3.9,7.7 10,11.2 19.1,10.8 8.9,-0.5 17.8,-0.2 26.3,-3.5 -0.6,9.8 4.6,17.8 6.9,26.5 2.3,9.1 5,18.1 7.7,27 1.4,4.8 3.2,9.4 5,14.6 2.8,-1.7 5.5,-3.1 7.9,-4.8 2.5,-1.9 1.4,-4.7 0.8,-7 -1.8,-6.3 -4.1,-12.5 -5.9,-18.9 -3.2,-11.8 -6,-23.6 -9.1,-35.4 -1.3,-4.9 -2.8,-9.7 -4.4,-14.5 -0.4,-1.1 -1.4,-2 -2.2,-3 -1,-1.2 -2.1,-2.3 -3.3,-3.6 -6,0.4 -10.4,4.9 -15.2,8.3 -1.6,1.1 -2.5,3 -3.8,4.6 -0.4,0.4 -0.8,0.9 -1.2,1.2 -5.2,3.1 -10.7,5 -16.8,4.7 -1.3,-0.1 -2.5,-0.9 -4.4,-1.6 5,-0.6 9.2,-0.5 13,-1.8 3,-1 5.4,-3.8 8.1,-5.8 7.1,-5 14.1,-10.1 21.2,-15 2,-1.4 4.1,-2.6 6.3,-3.5 0.9,-0.4 2.7,-0.2 3.4,0.5 6.5,5.9 13.9,10.9 18.8,18.5 4.4,6.8 8.9,13.6 13.7,20.1 2.4,3.3 5.6,6.2 8.6,9 0.7,0.6 3,0.3 3.8,-0.4 4.5,-3.8 8.7,-7.8 13.4,-12.1 -2.1,-1.6 -3.7,-2.7 -5.1,-3.9 -4.7,-4.1 -9.6,-8.1 -14,-12.4 -10.4,-10.2 -18.5,-22.3 -26.2,-34.6 -1.4,-2.3 -3.1,-4.3 -4.6,-6.5 -3.2,-4.7 -7.9,-6.4 -13,-4.9 -5.9,1.7 -11.8,4 -17.3,6.9 -2.8,1.5 -4.5,5.1 -7,7.5 -3.2,3.1 -6.4,6.5 -10.2,8.8 -5.8,3.5 -11.5,7.6 -18.6,8.1 -0.9,0.1 -1.7,0.8 -2.6,1.2 -0.2,-0.4 -0.4,-0.7 -0.6,-1.1 0.8,-0.5 1.6,-1 2.4,-1.4 7.7,-3.8 15.4,-7.4 23,-11.3 1.2,-0.6 1.8,-2.3 2.6,-3.5 1,-1.5 0.1,-4.5 3.3,-4.3 0,0 0.4,-1.3 0.1,-1.7 -2.4,-3.4 -2.4,-6.7 -0.8,-10.5 0.5,-1.2 -0.5,-3.1 -0.8,-4.7 -0.8,-3.9 -1.6,-7.9 -2.2,-11.8 -1.2,-6.9 -2.3,-13.9 -3.4,-20.8 -0.7,-4 -2.3,-7.9 -0.8,-12.2 0.3,-1 -0.6,-2.5 -1.1,-3.7 -0.4,-1.2 -1,-2.3 -1.6,-3.5 0.9,-0.2 1.3,-0.3 1.3,-0.3 3,7.9 10.6,5.5 16.2,7 5.6,1.5 11.6,1.6 17.5,2.2 1.8,0.2 3.6,0 5.9,0 -0.8,-5 -1.4,-9.8 -2.3,-14.6 -0.2,-0.8 -1.5,-1.4 -2.4,-2.1 -2,-1.4 -4,-2.6 -6,-4 -0.5,-0.3 -1,-0.8 -1.1,-1.3 -0.6,-3.7 -1.8,-7.5 -1.5,-11.2 0.2,-2.1 2.8,-3.9 4.4,-5.9 0.3,0.2 0.6,0.4 0.9,0.6 0.5,-4.4 1,-8.7 1.5,-13.5 0.2,-0.1 1,-0.2 1.7,-0.5 5.1,-2.3 5.7,-2.1 7.4,3.1 1.2,3.8 2.3,7.7 3.5,11.6 -2,-0.8 -3.6,-1.7 -5.3,-2 -3.1,-0.5 -4,0.9 -2.7,3.9 0.4,0.9 0.5,1.9 0.8,2.9 -0.9,-0.5 -1.8,-0.9 -2.6,-1.4 -2.3,-1.4 -4.5,-0.7 -5.8,1.2 -0.4,0.6 0.8,3.2 1.9,4 2.2,1.4 5.1,1.8 7.2,3.3 1.7,1.2 3,2.5 4.3,0.1 1.1,-2.1 0,-3.6 -1.9,-4.7 -0.8,-2.1 -1.8,-3 -2.9,-3.9 z m -84.9,1.1 c -1.2,-5.6 -2.4,-11.2 -3.5,-16.3 -2.5,0 -4.6,-0.1 -6.6,0 -5.2,0.4 -7.2,3.8 -4.9,8.3 0.9,1.7 1.9,3.4 2.6,5.3 0.7,1.7 1.5,2.3 3.6,2.1 2.9,-0.2 6,-1.9 8.8,0.6 -0.3,0.3 -0.8,1 -1.2,1 -4.3,-0.4 -8.1,0.9 -12.1,2.5 -3.6,1.4 -3.8,3.5 -3.2,6.4 0.3,1.3 1.2,2.4 1.9,3.6 1.6,2.8 3.4,5.5 4.7,8.4 2.3,5.5 2.4,5.7 7.8,4.1 -0.7,-5.4 -1.4,-10.6 -2.1,-16 3.1,-0.8 7,0.8 9.3,-2.7 -4.1,-2.1 -8.3,1.5 -12,-0.5 0,-0.4 0,-0.8 0,-1.1 1.5,-0.1 3,-0.3 4.4,-0.4 -0.4,-0.8 -0.8,-1.5 -1.3,-2.4 2,-0.2 3.5,-0.4 5.4,-0.6 -0.6,-1 -1.1,-1.6 -1.6,-2.3 z m 117.9,-9.9 c -0.6,-0.5 -1.4,-0.8 -1.9,-1.4 -4.5,-6.1 -7.2,-13 -8.4,-20.4 -0.6,-3.8 -0.3,-7.9 0.6,-11.7 0.9,-3.8 2.4,-8 4.8,-10.9 2.3,-2.7 -0.6,-7.1 4.3,-9 2.6,-1 4,-5.2 5.9,-8 -1.8,0.6 -3.5,1.5 -4.2,2.8 -1.5,3.1 -2.6,2.4 -3.7,-0.4 -1.2,1.8 -2.2,3.4 -3.2,4.9 -5.5,8.8 -10.3,17.8 -11.5,28.4 -1.5,13.1 2.8,23.4 13.8,31.6 1.2,-2.2 2.2,-4.2 3.3,-6.1 3.1,-3.6 6.2,-7.1 9.6,-10.9 -12.2,-6.1 -13,-16.9 -12.9,-28.3 -3.4,6.5 -4.4,13.2 -2.4,20.1 1.9,6.6 3.9,12.9 5.9,19.3 z m -242.4,265.5 c -2.2,-1 -4.4,-2 -6.7,-3 1,-0.3 2,-0.7 2.7,-0.9 -5.5,-18.8 -11,-37.4 -16.7,-56.6 4.6,4.4 5.1,10.1 7,15.2 5,-0.9 9.7,-2.8 14.3,-2.5 12.2,0.7 24.2,-1.1 36.3,-2 3,-0.2 4.6,-1.4 4.7,-5 0.1,-5.6 1,-11.3 1.5,-16.9 0.1,-0.7 -0.1,-1.4 -0.1,-1.3 -2.8,0.3 -5.3,0.8 -7.7,0.9 -4.2,0.1 -8.5,0.2 -12.7,0.6 -13.8,1.2 -27.7,1.6 -41.6,1.6 -5.8,0 -11,-0.1 -14.7,5.2 -1.7,2.4 -3.8,4.5 -5.7,6.7 -0.6,0.3 -1.3,0.5 -1.8,0.9 -3.3,3.4 -6.5,7 -9.9,10.2 -3.2,3 -6.8,5.5 -11.9,4.2 0.5,0.6 0.8,1 1.2,1.6 -3.8,2.9 -6.3,-2.8 -9.7,-1.4 0.4,3.2 1.1,6.3 1.2,9.3 0.6,10.5 1,21.1 1.3,31.7 0.1,2.6 -0.4,5.2 -0.7,7.9 -3.8,-0.5 -3.8,-2.4 -3.3,-4.7 0.3,-1.2 0.8,-2.5 0.7,-3.7 -0.5,-14 -1,-28 -1.5,-42 -1.7,-0.3 -3.5,-0.6 -4.6,-0.7 1.2,15.9 2.3,31.7 3.5,48.2 -4.2,-1.9 -3.5,-4.8 -3.7,-7.3 -0.9,-13 -1.7,-26.1 -2.4,-39.2 -0.1,-2.2 -1,-2.9 -3.1,-3.4 -10.8,-2.6 -21.6,-5.5 -32.4,-7.9 -5.6,-1.2 -11.3,-1.6 -17.4,-2.3 1,5.8 2.3,10.6 2.7,15.5 1,10.6 1.6,21.3 2.3,31.9 0.1,0.9 -0.6,1.7 -0.9,2.6 -0.7,-0.7 -1.6,-1.4 -1.9,-2.3 -0.5,-1.3 -0.5,-2.7 -0.7,-4 -0.2,0 -0.4,0 -0.6,0.1 0.1,1.5 0.2,3 0.3,5.1 -1.3,-0.1 -2.4,-0.2 -3.5,-0.3 0.2,-1.1 0,-2.5 0.7,-3.1 4.6,-4.4 3,-9.8 2.9,-15 0,-1.2 -0.2,-2.3 -0.3,-3.5 -0.5,-8.8 -1.1,-17.7 -1.6,-26.8 -2.3,-0.2 -4.2,-0.4 -6.3,-0.7 2.6,15.3 3.6,30.2 2.6,45.6 -3.5,-5.1 -1.2,-10.6 -2.3,-16 -0.7,0.4 -1.2,0.6 -1.6,0.9 -10.5,8.8 -23.1,14.8 -33.4,24 -5.1,4.5 -7.2,8.8 -6.1,15.3 1.4,8.2 3.3,16.5 3.5,24.7 0.6,25.4 0.1,50.9 0.6,76.4 0.3,15.2 0.8,30.500004 2.8,45.500004 1.4,10.5 -1.2,9.2 10.6,12.2 1,0.3 2,0.5 3.1,0.6 2.9,0.2 5.8,0.1 8.7,0.4 1.7,0.2 3.3,1.2 4.9,1.5 15.1,3.4 30.6,3.9 46,4.8 19.5,1.2 39.2,-0.5 58.5,5.3 -0.5,-4.8 -1.3,-9.6 -1.4,-14.4 -0.2,-19.7 -0.1,-39.500004 -0.2,-59.200004 -0.1,-9.6 -0.4,-19.3 -0.5,-28.9 -0.1,-6.6 -0.1,-13.3 3.4,-19.3 2.2,-3.7 4.3,-7.4 6.7,-11 5.5,-8.1 12.3,-14.8 21.2,-19.1 2.4,-1.1 5,-2 7.4,-3 -3.8,2.8 -7.9,4.9 -11.7,7.4 -8.7,5.8 -13.8,14.6 -19,23.3 -9.8,16.6 -2.7,38.4 9.3,48 8,6.5 17.5,9.5 27.1,12.1 19.2,5.2 39,6.2 58.7,6.9 24.8,0.8 49.7,1.2 74.5,-2.5 12.2,-1.8 24.3,-3.5 35.8,-8.3 10.9,-4.5 20.5,-10.7 25.9,-21.6 2.9,-6 3.5,-12.3 -0.5,-18.3 -3.7,-5.6 -7.4,-11.1 -11,-16.8 -0.5,-0.8 -0.5,-1.8 -0.7,-2.7 0.9,-0.2 1.9,-0.6 2.8,-0.6 1.4,0 2.8,0.2 4.2,0.4 0,-0.2 0.1,-0.5 0.1,-0.7 -0.5,-0.3 -1,-0.5 -1.9,-1 4.1,0 7.7,-0.1 11.3,0 13.2,0.5 26.4,1.3 39.7,1.7 11.1,0.3 22.3,-0.2 33.5,0.5 16,1 31.9,2.8 47.8,4.1 8.4,0.7 16.9,1.2 25.3,2 18.5,1.8 36.9,3.8 55.4,5.7 7.8,0.8 15.9,2.4 21.7,-5.7 -0.1,-0.5 -0.3,-1.5 -0.3,-2.6 0.2,-7.5 0.3,-15 0.6,-22.6 0.5,-11.6 1,-23.2 1.6,-34.8 0.8,-14.5 2.4,-28.9 2.5,-43.4 0.1,-12.6 0.1,-25.3 3.9,-37.2 3.2,-10.1 -2,-19.4 -1.1,-29.1 0,-0.3 -0.1,-0.8 -0.4,-0.9 -4.5,-3.3 -5.9,-9.6 -13.3,-10.7 -9.2,-1.4 -18.2,-1.6 -27.3,-1.6 -5.8,0 -11.6,0.7 -17.4,0.4 -12.6,-0.7 -25.2,-1.8 -37.8,-2.7 -2.5,-0.2 -5.1,-0.3 -7.6,-0.7 -0.6,-0.1 -1.2,-0.8 -1.8,-1.2 0.6,-0.5 1.1,-1.3 1.7,-1.3 6.9,-0.4 13.8,-1 20.8,-0.9 8.6,0.1 17.1,0.8 25.7,1.1 5,0.2 10,-0.4 15,0 9.7,0.7 19.4,1.8 29.1,2.8 0.7,0.1 1.5,-0.2 2.5,-0.3 -6,-13.1 -10.5,-26.2 -11.9,-40.4 -1.3,-14.1 -0.5,-28 2.2,-41.3 -1.3,-0.2 -3.3,0 -3.6,-0.7 -1.1,-2.2 -2.9,-2 -4.7,-2 -23.4,0.1 -46.7,-2.1 -70.1,-4 -6.5,-0.5 -6.5,-0.5 -11.7,2.9 -0.3,0.2 -0.6,0.3 -0.9,0.5 -2.6,2 -5.1,4 -7.7,5.9 -1.1,0.8 -2.2,1.7 -3.4,2.4 -2,1.2 -4.7,1.4 -5.4,4.3 -0.1,0.4 -1.6,0.5 -2.4,0.7 -0.7,0.2 -1.6,0.1 -2.2,0.4 -13.4,7.1 -27.9,10.3 -42.8,10.9 -12.7,0.5 -25.8,1.3 -37.9,-4.5 -6.2,-3 -13.3,-5.3 -14.8,-13.2 -0.7,-3.8 -0.2,-7.9 0.2,-11.8 0.3,-2.8 1.2,-5.6 1.7,-7.8 -9.7,-1.9 -18.5,-3.7 -27.5,-5.5 3.6,7.6 6.8,15 10.6,22 3.8,6.9 8.1,13.5 11.6,19.2 -0.5,3.5 -0.9,6.1 -1.3,9 0.8,-0.3 1.3,-0.4 1.8,-0.7 4.1,-1.7 8.1,-3.2 12.5,-1 0.7,0.4 1.8,0 2.7,0.2 1.3,0.2 3,0.3 3.7,1.1 3.3,3.4 6.8,6.7 9.3,10.6 8.7,13.9 18.7,26.9 30.2,38.6 3.8,3.9 7.7,7.7 11.4,11.7 2.3,2.4 1.5,4.9 -0.8,6.8 -1.1,1 -2.5,1.6 -3.7,2.3 0.4,0.6 0.9,1.3 1.3,1.9 1.7,-0.4 3.5,-0.7 5.1,-1.3 6.4,-2.4 13,-4.3 18.1,-9.3 1.4,-1.4 3.9,-1.8 6,-2.7 1.8,-0.8 2.3,0.1 2.9,1.8 1.2,3.8 -0.1,6.6 -2.9,9 -3.3,2.8 -6.5,5.7 -9.9,8.2 -2.5,1.8 -5.4,3 -8.1,4.5 -1,0.6 -2.7,1.2 -2.9,2 -0.5,3.6 -3.7,4.5 -5.9,6.3 -1.6,1.3 -2.8,1.2 -4.2,-0.9 -1.6,-2.3 -4,-4 -6.1,-6 -0.5,-0.4 -1.1,-0.7 -1.5,-1.1 -0.1,-0.2 0.3,-1.1 0.5,-1.1 0.7,0 1.7,-0.1 2.2,0.3 2.7,2.2 5.2,4.5 8.1,7 1.4,-1.4 3.8,-2.7 4.4,-4.6 0.9,-2.5 2.3,-3.3 4.5,-4.1 2.4,-0.8 4.7,-2 6.7,-3.4 2.8,-1.9 5.2,-4.3 7.9,-6.3 2.1,-1.5 3.7,-3.1 1.9,-6.3 1.3,0.2 2.1,0.3 3.2,0.5 -0.1,-1.2 -0.2,-2.2 -0.3,-3.6 -2.1,1.1 -4.2,1.6 -5.5,2.9 -4.5,4.5 -10.3,6 -15.9,8.4 -1.7,0.7 -3,2.3 -5.1,3.9 -2.7,-0.8 -7,1.1 -7.9,4 -2.3,0.3 -4.2,0.5 -6.2,0.7 -2.5,0.3 -5,0.7 -5.4,-3 -0.1,-0.7 -1.2,-1.2 -1.9,-1.9 -3.4,-3.1 -7.2,-5.9 -10,-9.5 -8.7,-11 -14.7,-24.3 -27,-32.4 -2.5,-1.6 -4,-3.3 -5.8,0.3 -0.3,0.7 -1.4,1 -1.9,1.3 1.4,1.6 3.4,3 4.1,4.8 3.3,7.8 6.9,15.7 9.2,23.8 4.3,15 7.9,30.3 11.7,45.5 0.6,2.6 1.7,3.7 4.5,3.3 8.3,-1.1 16.6,-1.7 24.8,-3.1 19.2,-3.3 37.7,-9 55,-18.1 4.3,-2.3 8.5,-4.9 12.4,-7.7 6.1,-4.4 7.5,-10.6 3.1,-15.5 -3.5,-4 -3.4,-9 -5.1,-13.8 4,2.6 8.2,5.1 11,8.8 8.1,10.5 5.2,18 -3.4,25.4 -9.8,8.4 -21.8,13.5 -33.7,17.8 -20.5,7.4 -41.7,12.5 -63.8,13 -0.8,0 -1.6,0.2 -2.4,0.3 -2.7,0.7 -5.1,4.5 -4.3,7.2 2.1,7.5 6.9,12.6 13.4,16.7 5.1,3.3 9.4,7.7 13.9,11.8 0.7,0.6 0.9,2.2 0.7,3.1 -0.2,0.6 -1.6,1.1 -2.5,1.2 -2.7,0.1 -5.4,0.4 -8,-0.1 -4.8,-0.9 -9.9,-1.4 -13.1,-6.1 -0.6,-0.8 -2.1,-1.1 -3.3,-1.3 -5.4,-0.8 -5.7,-1.2 -6.8,-6.3 -1.2,-5.6 -2.9,-11.1 -4.3,-16.8 -2.7,1.3 -4.4,0.8 -5.2,-2.1 -0.5,-1.7 -1.3,-3.2 -2.1,-4.8 -0.4,-0.7 -1.2,-1.8 -1.8,-1.8 -3.3,-0.2 -6.6,-0.1 -10.6,-0.1 2.3,2.1 4.1,3.5 5.7,5.1 1.7,1.7 3.1,3.7 4.8,5.4 1.7,1.7 0.7,3 -0.4,4.2 -1.5,1.7 -5.2,1.6 -7,-0.2 -6,-6 -12,-12 -18.1,-17.9 -0.8,-0.8 -1.8,-1.3 -2.7,-1.9 -0.5,1 -1,2.1 -1.5,3.2 -1,-0.1 -2.2,-0.4 -3.3,-0.2 -0.8,0.1 -1.9,0.9 -2.1,1.6 -0.7,2.9 -1.1,5.9 -1.6,8.8 -0.6,3.4 -1.2,6.9 -1.9,10.4 -6.1,-1.8 -6.5,-2.6 -5,-8.2 0.8,-3.3 1.5,-6.7 1.9,-10.2 0.4,-3.2 -0.9,-4.1 -3.9,-3.1 -9.2,3 -18.6,5.7 -27.6,9.2 -3.5,1.3 -5.6,0.5 -8.2,-1.8 3.5,-2 6.9,-3.7 10.1,-5.7 3.3,-2 6.6,-4.1 10.1,-6.4 -5.8,-1.6 -11.2,-3 -16.6,-4.6 -7.3,-2.1 -14.1,-5.2 -19.4,-10.9 -8.8,-9.3 -10.5,-17.6 -4.6,-29.7 3.8,-7.9 9.4,-14.2 16.8,-19.4 -1.1,-0.2 -1.8,-0.4 -2.5,-0.5 -15.3,-0.3 -30.7,-0.7 -46,-0.9 -0.8,0 -2.1,1.3 -2.3,2.1 -2.6,13.1 -5.1,26.2 -7.7,39.2 -2,9.9 -4.1,19.8 -6.1,29.8 -0.2,1 0.1,2 -0.1,3 -0.5,3.5 -1.1,7.1 -1.8,10.6 -0.1,0.6 -0.9,1.4 -1.6,1.6 -2.3,0.8 -4.7,1.6 -7.1,2 -4.9,0.8 -9.8,1.3 -14.7,1.9 -10.2,1.3 -20.3,2.7 -30.5,4 -0.3,0.9 -0.7,1.6 -0.6,2.2 2.4,9 4.9,18 7.4,27.1 0.2,0.6 0.6,1.2 1.1,2 1.9,-1.3 3.9,-2.3 5.5,-3.8 0.7,-0.7 1.2,-2.6 0.8,-3.3 -3.2,-5.4 -0.9,-11 -2,-16.9 2.8,1.1 4.7,1.9 6.7,2.6 0.1,-0.3 0.3,-0.7 0.4,-1 -0.7,-0.8 -1.3,-1.6 -2.1,-2.6 3,-0.2 5.6,-0.4 8.4,-0.6 0,5.3 0.1,10.4 -0.1,15.5 -0.1,2.4 0.5,4.3 2.4,5.8 6.1,5 12.3,9.9 18.3,14.9 5,4.2 9.9,8.7 14.9,13.1 -2.9,1.8 -5.1,1 -7.5,-0.7 -9.5,-6.4 -19.1,-12.7 -29,-19.1 -4.9,7.2 -7.4,15.4 -10.1,23.8 -1.2,-0.1 -2.3,-0.1 -3.7,-0.2 1.4,-7.2 5.5,-13.6 4,-21.1 -2.2,1.2 -4.1,2.3 -6.1,3.2 -5.4,2.5 -11,4.6 -16.4,7.3 -3,1.5 -8.6,0.3 -9.9,-1.8 -2.1,-0.3 -3.5,-0.6 -4.9,-0.8 -1.1,-0.1 -2.5,-0.6 -3.1,-0.1 -4.1,3.1 -8.7,2.3 -13,1.6 -1.3,-0.2 -3.1,-2.3 -3.2,-3.7 -0.2,-3 0.8,-6.1 4.2,-7.2 4.6,-1.4 9.2,-2.7 13.8,-4 -0.3,-0.8 -0.7,-1.8 -1.2,-3.1 1.2,0.6 1.8,0.9 3,1.5 -0.6,-1.8 -1.1,-3.1 -1.6,-4.4 -4.1,-11.8 -8.3,-23.6 -12.4,-35.4 -0.5,-1.5 0,-3.3 0,-5 0.4,1.1 0.9,2.1 1.3,3.2 5,13.8 9.9,27.6 14.9,41.4 0.3,0.8 1.1,2.1 1.8,2.1 4,0.2 7.9,0.1 12.1,0.1 0.2,1.1 0.5,2.1 0.6,3 -4.4,2.1 -9.1,-2.2 -13.3,0.8 -0.7,-0.2 -1.9,-0.9 -2.8,-0.6 -4.2,1.1 -8.4,2.4 -12.5,3.9 -1.7,0.6 -4,1.1 -3.3,4.2 2.6,0.1 5.3,0.5 7.9,0.4 1.5,0 3.5,-1.5 4.5,-1 4.4,2.5 8.2,-0.9 11.9,-1.6 4.7,-0.5 8.5,-4.3 12.5,-6.8 1.9,-0.7 3.9,-1.3 5.7,-2.2 0.2,-0.1 -0.2,-1.5 -0.5,-3.3 -2.1,2.3 -3.6,3.9 -5.2,5.5 z m 510.2,-32.3 c -0.4,0.6 -1.1,1.2 -1.2,1.9 -0.8,5.4 -1.4,10.8 -2.1,16.2 -1.1,7.9 -2.2,15.7 -3.3,23.5 -0.1,-0.1 -0.4,-0.1 -0.5,-0.2 -6.5,-8 -13,-16 -19.3,-24.1 -1.5,-1.9 -3.1,-4 -0.6,-6.4 0.4,-0.4 0.1,-1.8 -0.2,-2.5 -0.6,-1.4 -1.5,-2.7 -2.6,-4.7 0,1.9 0,3 0,4.1 0.2,12.5 0.2,25.1 0.6,37.6 0.5,16.8 1.4,33.6 2,50.4 0,0.7 -0.2,1.7 -0.7,2.1 -0.4,0.3 -1.4,0 -2.1,-0.2 -1,-0.3 -1.9,-0.9 -2.8,-1.3 1.3,2.7 3,4.7 4.5,6.9 1.4,2.1 3.2,2.9 5.8,2.9 7.3,-0.2 14.6,0 22,-0.1 1.6,0 3.4,-0.2 4.7,-0.9 5.1,-3 10.1,-6.2 14.9,-9.7 3,-2.1 7.3,-3.3 7.4,-8.4 1.9,5.5 5,9.7 9.6,12.6 5.1,-6.6 10.1,-13.2 14.6,-19 -1,-9.4 -2,-18.6 -2.9,-27.8 -1.6,-17.8 -3.1,-35.6 -4.6,-53.5 -2.2,-0.4 -3.9,-0.4 -5.4,-1 -2.9,-1.2 -5.8,-2.3 -8.2,-4.2 -0.8,-0.6 -0.1,-3.3 -0.1,-5.1 0,-0.9 -0.1,-1.9 -0.2,-2.8 -0.4,-6 -1.1,-12 -1.1,-18 0.1,-10 0.4,-19.9 1.3,-29.9 0.7,-8.3 2.3,-16.5 3.5,-25 -1,-0.1 -1.9,-0.2 -2.8,-0.2 -7.5,-0.1 -15.1,-0.2 -22.6,-0.2 -2.2,0 -5,-0.7 -6.3,0.3 -1,0.8 -0.1,4 -0.2,6.1 -0.5,11.3 -1.1,22.5 -1.6,33.8 0,0.5 -0.3,1.1 -0.1,1.6 1.2,3.9 3.2,7.6 3.5,11.6 0.4,4.7 0.4,9.9 -1.2,14.2 -1.3,3.3 -0.5,6.3 -1.3,9.4 -1.1,4.1 2.2,5.7 4.7,7.6 0.2,0.2 0.4,0.5 0.9,1.1 -2.2,-0.2 -4,-0.3 -5.8,-0.4 0.1,0.5 0.2,1.1 0.2,1.6 l -0.4,0.1 z m 45.1,104.1 c 0,0.4 -0.1,0.9 -0.1,1.3 7.5,2.9 14.8,6 22.4,8.5 7.4,2.4 15,4.3 22.6,5.8 14.5,3 29.2,3.8 44,3.5 19.6,-0.3 39,-2.3 57.8,-7.8 21.6,-6.2 41,-16.2 55.4,-34.2 9.5,-11.8 14.3,-25.1 12.6,-40.3 -1.5,-13 -7.1,-24.6 -15.5,-34.5 -15.5,-18.2 -36.2,-27.3 -59.2,-31.9 -16.9,-3.3 -34,-1.2 -51,-2.6 -3,-0.2 -6.1,1.8 -9.3,2.4 -10.4,2.1 -20.8,4 -31.2,5.9 -2,0.4 -2.7,1.5 -3.3,3.3 -1.3,4.4 -2.9,8.8 -4.6,13.1 -1,2.5 -2.4,4.2 -5.7,3.1 -1.3,-0.4 -2.9,0.3 -4.1,0.4 0.4,12.1 1,23.9 1,35.8 -0.1,11.8 -1.1,23.7 -1.3,35.5 -0.1,5.9 -1.1,11.7 3.2,17.4 4.4,5.7 6.6,12.9 8.3,20 1.1,4.5 0.2,6 -4.4,5.6 -0.4,0 -0.8,0.3 -1.2,0.5 -0.4,0.5 -0.9,0.9 -1.3,1.4 -6.5,-7.6 -13.1,-15.1 -19.1,-22 -3,2 -5.3,3.6 -7.6,5.1 -2.8,1.7 -5.6,3.2 -8.4,4.7 z m -71.3,-167.3 c 1.6,-11.3 3.2,-21.7 4.7,-32.1 1.1,-7.7 1.9,-15.4 3.3,-23.1 2.1,-12 6,-23.8 5.6,-36.6 1.3,1.1 2.9,2.5 2.9,3.9 0.1,4.9 0.1,9.8 -0.8,14.6 -2.4,13.1 -5.3,25.9 -4.3,39.6 1,14 -0.2,28.1 -0.3,42.1 0,7 0.1,6.8 6.9,7.2 2.7,0.2 3.8,-0.5 3.8,-3.3 0.3,-12.8 0.6,-25.5 1,-38.3 0.4,-11.8 1.1,-23.6 1.8,-35.4 0.6,-11 1.7,-22 1.9,-33 0.2,-14 -10.6,-20.3 -20.4,-27.6 -2.5,5.5 -4.8,10.7 -7.2,15.8 -1.9,4 -4.1,4.3 -6.5,0.4 -2,-3.2 -3.7,-6.7 -5.6,-10 -0.6,-1.1 -1.5,-2.1 -2.6,-3.7 -2.3,4 -4.2,7.4 -6.1,10.8 -0.4,0.8 -0.7,2.1 -1.2,2.2 -0.8,0.1 -1.9,-0.5 -2.6,-1 -0.8,-0.6 -1.5,-1.5 -2,-2.4 -3.2,-5.5 -6.4,-11 -9.6,-16.6 -3.8,1.4 -8,2.6 -11.8,4.5 -4.5,2.2 -8.6,5.2 -13.1,7.4 -3,1.4 -5.1,5.6 -9.4,3.2 -8.4,43.6 3,75.6 15.9,92.5 -0.5,-4.1 -1.3,-8.7 -1.4,-13.2 -0.1,-4 -2.7,-7.1 -3.4,-10.6 -1.7,-9.1 -2.9,-18.3 -3.8,-27.5 -0.5,-4.6 -0.1,-9.2 0.1,-13.9 0,-0.7 0.8,-1.4 1.3,-2.1 0.5,0.7 1.1,1.3 1.3,2 0.2,0.5 0,1.1 -0.1,1.7 -0.9,8.4 0.2,16.7 2.4,24.8 5,18.8 9.9,37.6 12.7,56.9 0.3,2.3 1.5,2.9 3.5,2.9 14.5,0.2 29.2,3.1 43.1,-2.1 z m -442.7,-103.9 c -2.1,5.2 -0.9,10.3 -0.9,15.4 0,3.1 1.3,5.6 3.3,7.8 5.4,6 8.6,13.1 10.9,20.7 1.2,4.1 2.1,8.2 3.1,12.4 2,-6.3 3.4,-12.6 4.9,-19 1.2,-5.3 2.3,-6.4 7.4,-5.1 7.4,1.7 9.2,3.3 7.1,10.9 -2.1,7.4 -3.5,15 -5.3,22.8 19,0.2 38.1,-0.5 56.6,2 0.8,4 -1.5,5.8 -4.2,7.3 -8.8,4.9 -14.1,12.7 -17.6,21.7 -1.9,4.8 -2.7,10 0.5,14.7 4.9,7.2 11.4,12.6 20,14.9 7.5,2 15,3.9 22.6,5.6 1.7,0.4 3.7,-0.3 5.4,-1 3.3,-1.2 6.6,-2.7 9.7,-4 1,1.4 1.6,2.2 2.5,3.4 -1,-8.9 -2,-17.1 -3,-25.2 3.4,-0.4 6.1,-0.7 9.1,-1.1 0,4 0,8.1 0,12.1 0,2 -0.4,4.3 0.5,5.8 2.8,4.6 6.1,9 9.4,13.2 0.9,1.1 2.7,2.1 4.1,2.1 5.7,0.2 11.3,0.1 17,0.1 -4.9,-15.9 -9.9,-31.8 -14.6,-47 -2.4,0.3 -5,0.6 -7.5,1 -3.3,0.5 -6.5,1.1 -9.8,1.7 -1.2,0.2 -2.3,1.1 -3.5,1.1 -6.1,-0.1 -12.2,-0.6 -18.2,-0.4 -4.9,0.2 -8.2,-1.8 -10.5,-5.8 -5.4,-9.6 -8.5,-20 -11.5,-30.5 -1.8,-6.5 -4,-12.9 -5.9,-18.9 -3.1,-0.4 -5.4,-0.3 -7.4,-1 -1.5,-0.5 -3.1,-1.7 -3.7,-3.1 -1.1,-2.3 -1.7,-5 -2.2,-7.5 -0.6,-2.9 -0.6,-5.9 -1.2,-8.8 -1.9,-9.5 -4.1,-18.9 -6.3,-29.1 -9.8,7.7 -19.3,15.2 -29.2,22.9 -8.2,-10 -20.3,-9.7 -31.6,-12.1 z m 395,110.3 c -1.4,3.1 -3.3,5.9 -3.9,8.9 -0.9,5.2 -1.4,10.6 -1.4,15.9 -0.1,9 0.4,18.1 0.5,27.1 0.1,13.1 0.4,26.3 -0.2,39.4 -0.7,17.5 -2.2,35 -3.3,52.4 -0.1,1.6 0,3.1 0,4.8 2.8,-0.6 5.4,-3.2 7.3,0.5 0.1,0.2 0.6,0.2 1,0.1 4.1,-0.5 8.2,-1.1 12.5,-1.7 0,-1 0,-1.9 0,-2.8 -0.2,-14 0.2,-28 1.4,-42 0.7,-8.2 1,-16.4 1.4,-24.7 0.1,-3 0,-6 0.2,-9 0.3,-4.4 1,-8.7 1.3,-13.1 0.4,-7.9 0.5,-15.8 0.9,-23.7 0.2,-5.1 0.6,-10.3 0.9,-15.4 1.1,0.4 1.8,1.1 1.8,1.8 0.1,3.7 0.1,7.4 0.1,11.1 0.1,10.7 0.2,21.4 0.1,32.2 -0.1,7.1 -0.5,14.1 -0.9,21.2 -0.7,12.4 -1.6,24.8 -2.1,37.2 -0.4,9.4 -0.4,18.8 -0.7,28.2 -0.1,2.1 0.8,2.7 2.7,2.4 2.4,-0.3 4.9,-0.8 7.3,-0.9 5.4,-0.1 10.7,0 16.3,0 -0.3,-4.3 -0.9,-8.2 -0.9,-12.1 -0.3,-28.8 -0.8,-57.6 -0.7,-86.4 0,-12.6 -1.3,-25.3 2.6,-37.9 1.5,-4.8 0.7,-10.2 1,-15.5 -14.8,3.2 -29,0.9 -43.3,0.4 -0.2,0.9 -0.3,1.6 -0.5,2.5 -0.7,-0.3 -1.1,-0.6 -1.4,-0.9 z m 161.3,-31.6 c 0.1,-0.2 0.9,-1.4 0.6,-2.3 -2.6,-7.9 -5.3,-15.7 -8.1,-23.5 -0.3,-0.8 -1.7,-1.6 -2.6,-1.6 -4.3,0 -8.6,0.4 -12.8,0.6 -5.6,0.2 -11.2,0.9 -16.7,0.4 -2.9,-0.3 -3.7,0.3 -4.3,2.7 -2.2,9.4 -5,18.6 -6.8,28 -1.8,9.3 -3.2,18.8 -3.9,28.3 -1,15.4 -1.3,30.8 -1.9,45.8 6,6.6 13.7,5.9 21.4,5.8 9.9,-0.2 19.8,0 30.3,0 1.4,-9.2 3.4,-19.3 4.2,-29.5 1.3,-15.1 1.8,-30.3 2.4,-45.5 0.3,-3 -1,-5.9 -1.8,-9.2 z m -698,-45.7 c -0.3,0 -0.7,-0.1 -1,0 -7.6,4.4 -15.3,8.6 -22.7,13.3 -2.4,1.5 -3.6,4.2 -3.1,7.5 0.7,4.6 1,9.2 1.3,13.9 0.7,9.5 1.3,19 2.1,28.4 0.3,3.7 1,7.3 1.8,10.9 0.2,0.8 1.9,2 2.5,1.8 6.9,-2.9 14.2,-5.3 20.4,-9.3 7.8,-5 14.6,-11.4 21.9,-17.1 2.3,-1.8 4.4,-4 6.9,-5.1 5.5,-2.5 11.3,-4.4 17.7,-6.8 -3.4,-18.7 -6.8,-37.1 -10.3,-56.2 -8.3,4.3 -16.5,8.5 -25.6,13.2 2.7,-0.5 4.4,-0.8 7.1,-1.2 -9.4,4.7 -17.9,8.8 -26.2,13.2 -2.9,1.5 -5.5,3.8 -8.3,5.5 -1.7,1 -2.4,1.8 -2.3,4 0.4,10.2 0.4,20.4 0.7,30.6 0.2,6.1 0.5,12.2 0.7,18.3 0,0.7 -0.3,1.4 -0.5,2.1 -0.4,0 -0.8,0 -1.1,-0.1 -3.8,-17.1 -0.5,-34.4 -0.8,-51.7 -0.3,0 -0.9,0 -1.8,0 5.7,-6.8 13.5,-10.4 20.6,-15.2 z m 345.7,-71.6 c 0.9,2.1 2.2,3.8 1.9,4.4 -2.8,4.6 1,6.2 3.3,8.7 1.2,1.3 2.3,3.2 2.5,4.9 0.3,4.7 -0.3,9.5 0.2,14.2 0.6,5.5 -0.1,10.5 -3.4,15.1 -0.4,0.6 -0.6,1.3 -1.2,2.3 1.4,0 2.3,0.1 3.2,0 11.6,-1.1 23,-2.8 33.9,-7.2 5.7,-2.3 6.9,-4.2 5.6,-10.2 -0.2,-0.8 -0.6,-1.5 -0.7,-2.3 -0.7,-3.8 -1.8,-7.7 -1.8,-11.6 0,-5.8 0.8,-11.5 1.1,-17.3 0.1,-2 -0.3,-4.1 -0.5,-6.2 2.4,2.7 4.5,5.4 6,8.5 3.5,7.4 4.6,15.4 5.1,23.6 0.1,2.6 0.4,5.1 0.7,7.7 0.5,0.1 0.9,0.2 1.4,0.4 0.7,-1.3 2,-2.6 2,-3.9 -0.1,-6.9 -0.3,-13.9 -0.7,-20.8 -0.5,-7.8 -1.3,-15.7 -1.9,-23.5 -0.1,-1.5 0,-3 0,-4.6 0.4,-0.2 0.8,-0.5 1.3,-0.7 -3,-1.5 -6.1,-3 -9.1,-4.6 -4,-2.1 -6.5,-0.2 -9.3,2.5 -3.6,3.6 -7.3,7.1 -11.5,10.1 -8.1,5.8 -16.6,3 -19.7,-6.5 -1.3,-4 -2.7,-7.5 -6.5,-8 -1.6,3.9 -3.1,7.6 -4.6,11.2 -2.6,6 -5.2,12 -7.8,18.3 4.5,2.9 -4,3.2 -1.7,6.1 -6.7,-4.8 -11.4,-10.9 -14.5,-18.4 0,3.3 0.1,6.6 0.4,9.8 0,0.5 0.3,1 0.7,1.5 1,1.4 2.4,2.6 3.2,4.1 2.4,4.3 4.6,8.8 7.1,13.2 1.8,3.2 3.9,3.4 5.8,0.3 2.5,-4.1 4.3,-8.7 6.4,-13.1 0.7,-2.5 1.7,-4.8 3.1,-8 z m 32,-29.8 c 0.2,0.2 0.4,0.5 0.6,0.7 1.7,-0.8 3.6,-1.5 5.2,-2.6 6.6,-4.5 11.5,-10.3 14.6,-17.7 0.2,-0.6 0.8,-1 1.3,-1.5 0.7,-0.8 2,-1.5 2,-2.3 0,-6.9 0.3,-13.9 -0.4,-20.7 -0.5,-4.7 -2.5,-9.3 -3.7,-14 -1.8,-6.5 -5.2,-11.8 -10.5,-16 -4,-3.1 -8.5,-2 -13,-1.9 -2.9,0 -6.1,0.7 -8.6,-0.3 -4.7,-1.9 -9.2,-1.7 -13.2,-0.8 -3.8,6.4 -7.4,12.3 -11,18.3 7,-2.8 12.5,-6.7 16.8,-12.1 0.5,-0.7 2.1,-0.5 3.2,-0.7 -3.2,4.6 -8.3,7.4 -7,13 -1.4,0.9 -2.9,1.6 -4,2.8 -1.1,1.1 -2.2,2.5 -2.8,3.9 -1.8,4 -5.4,7.3 -4.9,12.3 0.4,3.8 0.5,7.6 0.6,11.5 0.3,7 5.2,13.9 12,15.7 7.7,2 15.2,1.6 21.8,-3.4 0.7,-0.5 1.6,-1.4 1.6,-2.1 0.1,-7.7 0.1,-15.4 0.1,-22.5 -2.9,0.6 -5.9,1.8 -8.8,1.7 -3.5,0 -2.3,-3.1 -2.1,-5.1 0.1,-1 1.1,-1.9 1.7,-2.9 0.6,1.3 1.1,2.7 1.7,4 0.1,0.2 0.3,0.3 0.5,0.6 2.2,-1 4.4,-2 7.4,-3.5 -1.4,-4.8 -2.9,-10.3 -4.5,-16 -1.8,1.3 -3.1,2.3 -4.5,3.1 -0.5,0.3 -1.4,0 -2.1,0 0.2,-0.7 0.3,-1.6 0.7,-2 1.5,-1.6 3.1,-3.1 5,-4.9 7.3,1.6 8.7,2.6 9.1,7.3 -1.4,-1 -2.6,-1.9 -4.6,-3.3 1.3,3.8 2.5,6.8 3.2,9.9 2.4,10.7 2.1,21.3 -0.5,32 -0.4,1.4 -1.1,3.4 -0.4,4.3 1.7,2.5 0.7,4.6 0,6.9 -0.7,3 -1.6,5.6 -2.5,8.3 z m 233.4,143.8 c 11.2,0 21.6,0 32,-0.1 0.8,0 2,-1.1 2.3,-1.9 2.1,-6.5 3.9,-13 5.9,-19.5 0.9,-2.7 2.2,-5.3 3.3,-7.9 -2,-0.7 -4.2,-1.1 -5.9,-2.2 -1.7,-1.1 -4.3,-3.3 -4,-4.4 1.3,-5 -0.2,-9.4 -1.3,-14.1 -2,-8.6 -3.3,-17.4 -5,-26.3 -8.8,-0.5 -17.6,-0.9 -26.2,-1.4 0.9,3.9 1.7,7.7 2.6,11.7 0.5,-0.3 1,-0.7 1.6,-1 -1.8,22.1 -3.5,44 -5.3,67.1 z m 42.5,-163.1 c -2.1,5.8 -3.6,12 -1.4,17.8 1.4,3.7 4.1,7.5 7.2,9.8 2.5,1.7 6.6,1.2 9.8,1.6 1.3,-2.1 2.7,-4 3.7,-6 1.7,-3.4 3.5,-6.8 4.7,-10.3 0.9,-2.7 0.8,-5.7 1.5,-8.5 3.4,-13.8 2,-27.1 -3.2,-40.2 -1.2,-3.1 -2.8,-4.5 -6.2,-3.4 -1.9,0.6 -4.1,0.5 -5.9,1.1 -1.5,0.5 -3.5,1.5 -3.9,2.8 -2.1,6.4 -5.3,12.6 -4.5,19.7 0.3,3.2 0.2,5.8 -3.3,8.1 -4.1,2.6 -3.2,5.9 1.5,7.5 z m 37.1,360.4 c 0.4,-0.3 0.9,-0.6 1.3,-0.9 -2.4,-4.3 -5,-8.5 -7.3,-12.8 -0.9,-1.8 -1.9,-3.8 -2,-5.7 -0.2,-4.3 0,-8.6 0.1,-12.9 0.6,-16.8 1.3,-33.6 1.7,-50.4 0.1,-7.5 -0.6,-15 -1,-22.8 -5.1,0 -9.6,0 -14.3,0 0.7,3.4 1.8,6.6 2,9.9 0.5,8.7 0.9,17.4 1,26.1 0.2,15.3 0,30.7 0.1,46 0,1.4 0.7,3.1 1.5,4.3 1.9,2.7 4.1,5.4 6.3,7.9 3.5,3.7 7.1,7.5 10.6,11.3 z m -570.3,-186.5 c -0.4,0 -0.8,-0.1 -1.2,-0.1 -6.2,6.7 -12.4,13.4 -18.6,20 -2.9,3 -5.6,6.7 -9.1,8.2 -3.4,1.4 -5.8,3.3 -8.2,5.7 -2.1,2.2 -4.6,4 -6.9,6 16.6,0 33,0 48.5,0 0,-1.9 0,-3.4 0,-4.8 1,0 2,0.1 3.6,0.2 -2.7,-11.7 -5.4,-23.5 -8.1,-35.2 z m 530.5,179.8 c 1.7,-0.2 2.3,-0.2 2.8,-0.3 6.8,-1.6 10.4,-7.1 14.2,-12.1 0.9,-1.1 1.6,-2.7 1.6,-4.1 0.1,-9.1 0.1,-18.1 -0.1,-27.2 -0.4,-17.4 -0.9,-34.8 -1.5,-52.2 0,-1.1 -1.2,-2.9 -2,-3 -2.9,-0.4 -5.9,-0.1 -9.1,-0.1 0.6,5.6 1.3,10.8 1.8,16.1 1.5,16.6 2.9,33.2 4.4,49.8 0.4,4.5 1,9 1.1,13.5 0,1.9 -0.7,4 -1.8,5.5 -3.4,4.5 -7.2,8.9 -11.4,14.1 z m -545.7,-193.1 c -19.2,-0.5 -36.7,-9.2 -55.8,-7.7 -0.2,7.1 -0.2,7.1 6.4,8.5 1.8,0.4 3.6,0.8 5.4,1.4 5.1,1.8 5.1,1.8 3.2,7.2 1.5,0.6 2.9,1.4 4.4,1.8 7.5,2.3 15,4.4 22.5,6.7 2.5,0.7 3.6,-0.5 4.7,-2.4 2.8,-4.8 5.7,-9.7 9.2,-15.5 z m -71.1,10.8 c -1.3,-2.2 -2.8,-1.9 -4.6,-0.6 -10.7,7.9 -21.5,15.7 -32.3,23.5 -1.8,1.3 -3.6,2.7 -5.7,4.2 0.7,0.2 1.1,0.3 1.4,0.3 9.7,1 19.2,5 29.2,2.2 0.1,0 0.3,0.2 0.4,0.4 2.3,2.2 4.8,1.3 6.9,-0.1 2.1,-1.4 3.8,-3.4 5.8,-4.9 3.4,-2.6 5.3,-7.2 10.1,-8.1 0.2,0 0.2,-1.2 0.4,-2.2 -1.7,0.8 -3,1.4 -4.4,2.1 -0.1,-0.1 -0.1,-0.2 -0.2,-0.4 1.6,-1.3 3.3,-2.6 5.2,-4.1 -4.1,-1.3 -8,0.5 -10.6,4.3 -1.9,2.8 -5,3.5 -8,1.6 -3.2,-2 -1,-4.4 -0.1,-6.3 1.9,-4 4.2,-7.8 6.5,-11.9 z m 311.1,-109.1 c -2.6,4.1 -4.7,7.8 -7.3,11.2 -2.5,3.4 -6.5,3.3 -9.2,0.2 -1.1,-1.3 -2,-2.8 -2.8,-4.4 -1.7,-3.3 -3.4,-6.7 -5.1,-10.1 -0.4,1.1 -0.4,2 -0.2,2.9 2,11 4.2,22 5.9,33 0.4,2.8 1.5,3.1 3.7,3.1 3.9,0 7.9,0.2 11.8,0.1 0.9,0 2.2,-0.3 2.7,-1 6,-7.5 5.9,-16.1 4.4,-25 -0.3,-1.8 0,-3.8 0,-6.6 -0.8,-0.6 -2.4,-2 -3.9,-3.4 z m 390.9,91.3 c -7.6,0 -14.1,-1.3 -20.1,-5.2 -2.9,-1.9 -5.8,-3.8 -8.8,-5.7 -5.6,-3.5 -9.1,-8.9 -4.6,-17.1 0.4,-0.8 0.6,-1.8 1.2,-3.3 -5.2,2.2 -9.7,4 -14.3,5.9 0.6,0.8 1,2.2 1.6,2.2 4.8,0.2 3.3,3.9 4.4,6.5 3.7,8.6 6.5,17.3 8.3,26.4 0.2,1.2 1.8,2.8 3,3.1 4.7,1 9.6,1.6 14.4,2.3 0.8,0.1 2,0 2.5,-0.6 4.1,-4.6 8.1,-9.4 12.4,-14.5 z m -45.4,-41.9 c 0,-8.2 0,-15.9 0,-23.8 -7,0.5 -14.7,1 -22.8,1.6 -0.5,8.7 -1,17.7 -1.5,26.8 8.8,-1.7 16.8,-3.2 24.3,-4.6 z m -274.9,-37.6 c 3.8,-1.9 3.7,-1.9 3.3,-5.3 -0.7,-5.5 -1.7,-11 -2,-16.5 -0.5,-9.8 -0.4,-19.7 -1,-29.5 -0.3,-4.6 -1.5,-9.1 -2.5,-14.5 -2.5,1.9 -4,3 -5.3,4.2 -0.5,0.5 -0.8,1.6 -0.7,2.4 1.1,6.4 2.6,12.8 3.4,19.3 1.4,11.1 2.4,22.4 3.6,33.5 0.4,2.1 0.9,4.2 1.2,6.4 z m -132.3,35.4 c 0.3,0.2 0.7,0.4 1,0.5 0,-3.3 1.5,-4.3 3.5,-3.7 1.3,-1.2 2.2,-2.6 3.3,-2.9 1.3,-0.4 2.8,0.1 4,0.2 -7,-13.5 -14.1,-27 -20.8,-39.8 2.9,14.8 5.9,30.2 9,45.7 z m 309.1,58.6 c -0.3,0 -0.6,0 -0.9,0 -0.7,4.8 -1.5,9.5 -2.2,14.3 -1.4,9.6 -3.1,19.1 -3.9,28.7 -0.6,7.4 -0.1,15 -0.1,22.8 1.2,-0.5 2.2,-0.9 3.3,-1.4 1.2,0.9 2.3,1.8 3.5,2.7 0.3,-0.9 0.2,-1.5 -0.1,-1.6 -3,-1.1 -3.6,-3.6 -3.1,-6.3 0.9,-4.7 2.2,-9.4 3.4,-14 0.3,-1.1 1.1,-2.4 0.8,-3.2 -2.5,-6.8 -1.6,-13.9 -1.6,-20.9 -0.1,-7 0.5,-14 0.9,-21.1 z m -271.9,82.9 c 0.5,2.6 0.8,5.3 1.5,7.8 0.3,0.9 1.5,1.8 2.4,2.1 2,0.8 5.1,0.5 6.2,1.9 5.4,6.6 12.7,5.8 20.1,5.8 -3.8,-3.9 -7.9,-7.5 -12.1,-10.7 -3.7,-2.8 -7.6,-5.4 -11.7,-8.2 -1.5,0.3 -3.9,0.8 -6.4,1.3 z m -293,-63.3 c 3.1,2 5.1,2.3 6.8,-0.9 2.2,-4.1 7.4,-6.2 12,-5.4 1.7,0.3 3.3,0.8 4.7,1.1 1.9,-2.5 3.6,-4.9 5.8,-7.7 -6.8,-0.8 -13.4,-1.7 -19.9,-2.4 -0.4,-0.1 -1.2,0.4 -1.4,0.8 -2.7,4.8 -5.3,9.6 -8,14.5 z m 331.2,-162.2 c 8.5,3.4 19,2.6 23.8,-2.6 -1.9,0.3 -4.2,0.8 -6.4,0.9 -3.3,0.2 -4,-0.6 -3,-3.9 1,-3.6 2.3,-7.2 3.3,-10.2 -4.9,0.9 -9.8,1.9 -14.7,2.8 0.4,4.4 1.5,9.1 -3,13 z m -262,227.2 c -2.2,-0.5 -5,-1.1 -7.9,-1.7 0,0.1 -0.2,0.3 -0.1,0.5 3.2,9.7 6.3,19.3 9.6,29 0.2,0.6 2,1.5 2.2,1.3 1.2,-1.1 3.3,-2.7 3.1,-3.8 -0.5,-4.1 -1.6,-8.1 -2.7,-12.1 -1.1,-4.3 -2.6,-8.5 -4.2,-13.2 z m 497.2,-34.3 c 2.5,0.6 5.9,0.5 6.7,1.9 2.6,4.5 3.8,9.6 2,14.4 1.8,-0.6 4,-1.4 6.8,-2.3 1,-6.7 -0.7,-14 -2.6,-21.2 -3.7,0 -7.1,0 -10.9,0 -0.8,2.5 -1.5,5.3 -2,7.2 z m -560.9,-49.6 c 3.5,0.3 6,0.5 8.4,0.7 4.6,0.4 9.3,-0.1 13.3,3 0.5,0.4 1.9,0.1 2.5,-0.3 1.5,-1.1 2.9,-2.3 4.1,-3.7 1.4,-1.6 1.2,-3 -1.1,-3.5 -3,-0.7 -6.6,-0.6 -9,-2.2 -4.7,-3.2 -8,-0.9 -11.6,1.6 -1.8,1.3 -3.7,2.5 -6.6,4.4 z m 5.7,72.5 c 3.1,2.4 4.5,1.8 6.2,-0.2 4.7,-5.5 9.6,-10.7 14.4,-16.1 3,-3.3 5.7,-6.9 9,-9.9 3.4,-3.2 7.4,-5.8 11.1,-8.7 2.2,-1.8 4.3,-3.6 6.8,-5.7 -2.5,-1 -4.4,-1.7 -6.7,-2.6 0.3,4.7 -2.1,7.3 -5.1,9.8 -3.9,3.3 -7.8,6.6 -11.5,10.1 -8.2,7.6 -16.1,15.4 -24.2,23.3 z m 18.4,-91.2 c 6.6,1.2 12.7,1.6 18.3,3.4 5.4,1.8 7.8,-2.4 11.7,-3.9 -11.1,0.5 -21.1,-2.2 -30.9,-8.9 0.3,3.8 0.6,6.7 0.9,9.4 z m 256.5,-101.7 c -0.4,0.3 -0.8,0.5 -1.2,0.8 0.2,1.8 0.4,3.7 0.6,5.5 1,8.8 2.1,17.5 3.1,26.3 0.3,3.1 0.4,6.3 0.3,9.4 -0.1,3.2 1.5,4.6 5.3,4.9 -0.3,-2.4 -0.5,-4.7 -0.8,-7 -2,-12.6 -3.9,-25.1 -6,-37.7 -0.1,-0.8 -0.8,-1.5 -1.3,-2.2 z m -1.1,42.8 c -0.4,-7.5 -0.8,-15 -1.3,-22.5 -0.1,-0.8 -0.5,-2.2 -1,-2.3 -1,-0.2 -2.1,0.3 -3.2,0.5 0.1,0.3 0.2,0.5 0.2,0.8 0.6,-0.1 1.1,-0.2 0.8,-0.2 -0.7,4.3 -1.5,8.7 -1.9,13.1 -0.4,4.9 1.5,8.7 6.4,10.6 z m 358.2,-40 c 3.7,3.5 10.1,4 13.6,0.5 -0.8,-0.3 -1.6,-0.7 -2.3,-0.8 -3.7,-0.3 -4.8,-2.4 -4.4,-5.8 0.2,-2.4 0,-4.8 0,-7.2 -2.4,-0.4 -4.5,-0.9 -6,-1.1 0.4,3.6 0.8,7.2 1,10.8 0,1 -1.1,2.1 -1.9,3.6 z m -315.7,-23.4 c 5.4,12.1 13.6,13.1 20.8,3.2 -6.9,0.8 -13.8,0.4 -20.8,-3.2 z m 332.6,104.6 c -0.5,-2.7 -1.8,-3.1 -4.6,-2.4 -8.3,2 -16.8,3.4 -25.3,5 0.3,1.9 2.3,1.7 4.2,1.6 1.8,-0.1 3.7,-0.4 5.5,-0.7 6.6,-1.2 13.9,1.6 20.2,-3.5 z m -128.4,-51.2 c 2.3,-3.7 4,-6.5 5.6,-9 -5,-2.9 -9.8,-5.6 -15,-8.6 3.2,5.9 6.1,11.3 9.4,17.6 z m -151.2,-40.1 c -0.4,0 -0.7,0 -1.1,0.1 0.6,12.2 1.1,24.5 1.7,37.1 1.5,-0.8 2.4,-1.3 3.5,-1.9 -1.4,-11.8 -2.8,-23.5 -4.1,-35.3 z m -51.9,-19.1 c 2.1,-1.3 3.4,-4.5 2.5,-8.1 -0.2,-0.7 -0.9,-1.7 -1.5,-1.9 -0.8,-0.2 -2.1,-0.1 -2.6,0.5 -2.2,2.6 -4.2,5.3 -6.7,8.5 2.8,0.4 5,0.6 8.3,1 z m 37.9,37.5 c -3.8,9.3 0.8,17.8 2.1,26.8 2.3,-1.8 -0.3,-20.9 -2.1,-26.8 z m -76.9,179.8 c 0.8,2.4 1.2,4.3 2,6.1 0.6,1.2 1.6,2.8 2.6,2.9 1.6,0.2 3.4,-0.7 4.8,-1.1 -1.5,-3.4 -2.6,-6 -3.6,-8.3 -1.8,0.1 -3.5,0.2 -5.8,0.4 z m -94.1,-188.1 c 2.9,-0.2 5.8,-0.5 8.7,-0.7 -2.5,-8.2 -3.3,-8.8 -8.1,-7.4 -0.2,2.6 -0.4,5.1 -0.6,8.1 z m 323.9,307.1 c 0,0.3 0.1,0.5 0.1,0.8 4.3,0.3 8.7,0.7 13.4,1 -3.6,-5.6 -7.5,-8.2 -10.5,-7.1 0.4,1.1 0.8,2.3 1.3,3.5 -1.6,0.7 -2.9,1.3 -4.3,1.8 z m -244.3,-319.8 c -0.1,0.6 -0.2,1.3 -0.3,1.9 1.7,0.9 3.4,2 5.2,2.8 1.2,0.5 2.5,0.8 3.9,1.1 1.4,0.2 2.9,0.3 4.3,0.3 0.3,0 0.9,-1.2 0.8,-1.3 -0.9,-1 -1.8,-2.1 -2.9,-2.6 -1.9,-0.8 -3.9,-1.4 -6,-1.8 -1.6,-0.4 -3.3,-0.3 -5,-0.4 z m -15.1,78.6 c 0.4,0 0.9,0.1 1.3,0.1 0.6,-0.9 2,-2 1.8,-2.8 -0.5,-2 -1.5,-4 -2.4,-5.9 -0.6,0.4 -1.9,0.8 -1.8,1.1 0.2,2.5 0.7,5 1.1,7.5 z m 21.7,-104.4 c -2.4,3.9 -1,7.7 3.1,8.9 -1,-2.9 -1.9,-5.6 -3.1,-8.9 z m -16.8,100.9 c 0.6,-0.2 0.9,-0.2 1.1,-0.4 0.9,-1.1 0.2,-7.2 -1,-7.7 -0.3,-0.1 -1.5,1 -1.4,1.4 0.2,2.3 0.8,4.5 1.3,6.7 z m 310.8,129.3 c 0.7,-5.6 -4.4,-3.8 -6,-6.1 -0.3,0.4 -0.6,0.8 -0.9,1.2 2.2,1.6 4.4,3.1 6.9,4.9 z m 62.4,-154.3 c -0.4,0 -0.8,-0.1 -1.2,-0.1 -0.2,4.2 -0.4,8.4 -0.6,12.6 0.1,0 0.2,0 0.3,0 0.5,-4.2 1,-8.4 1.5,-12.5 z m -116.2,265.5 c -0.3,-0.4 -0.5,-0.9 -0.8,-1.3 -2.5,1.2 -5,2.5 -7.5,3.7 2.7,-0.9 6.2,-0.1 8.3,-2.4 z m -18.7,-126.3 c -0.1,0 -0.2,-0.1 -0.4,-0.1 -0.2,3.5 -0.4,7 -0.6,10.5 0.3,0 0.7,0 1,0 0,-3.5 0,-7 0,-10.4 z"
       id="path1296"
       inkscape:connector-curvature="0" />
    <path
       d="m -1340.1521,-67.665366 c -8.5,8.8 -16.8,17.5 -25.1,26 -1.3,1.3 -2.5,2.8 -3.9,3.9 -0.9,0.7 -2.1,1 -3.2,1.5 0.3,-1.5 0.1,-3.2 0.9,-4.3 1.6,-2.3 3.7,-4.1 5.5,-6.2 3.6,-4.3 6.9,-8.8 10.6,-13 2.6,-2.9 5.7,-5.4 8.5,-8.1 0.7,-0.7 1.3,-1.7 1.3,-2.6 -0.2,-10.8 -0.6,-21.6 -0.7,-32.300004 -0.2,-17 -1.5,-33.8 -3.7,-50.6 -0.8,-6.1 -0.1,-12.4 0.1,-18.6 5,33.1 8.5,66.3 6.3,100.000004 3.3,-1.7 3.8,-1.3 4,2 0,0.9 0.6,2 1.2,2.8 4.4,6.2 10.2,10.8 16.9,14.1 10.1,4.9 20.2,9.9 30.5,14.4 9.1,4 18.8,5.6 28.7,6.6 29.2,3.1 56.1,-5.6 82.5,-16.2 10.7,-4.3 20.9,-10 31.3,-15.1 3,-1.5 5.9,-3.3 8.9,-4.7 4.9,-2.3 9.4,-5 13,-9.1 0.9,-1 2.1,-1.6 3.1,-2.4 0.3,0.2 0.5,0.4 0.8,0.6 -0.4,0.8 -0.8,1.7 -1.2,2.5 -4.1,7 -11,10.7 -17.6,14.8 -16,9.9 -33.1,17.4 -50.7,23.6 -15.8,5.5 -32,10.1 -48.8,11 -17.7,0.9 -35.3,-0.3 -51.7,-8.2 -10.4,-5.1 -20.7,-10.3 -30.9,-15.8 -7.1,-3.8 -12.7,-9.2 -16.6,-16.6 z"
       id="path1298"
       inkscape:connector-curvature="0" />
    <path
       d="m -1393.7521,-511.16537 c 1.1,4.7 2.4,9.9 3.3,15.2 0.3,1.7 0.1,4 -0.8,5.4 -2.6,4.1 -5.4,8 -8.6,11.6 -1.3,1.5 -2.3,2.5 -1.8,4.7 0.5,2.8 0.5,5.5 -3.9,5.4 0.1,-2 0.3,-4.1 0.4,-6.1 -5.2,0.9 -8.4,-0.5 -9.7,-4.4 0.5,-0.2 1.1,-0.5 1.5,-0.4 5.6,1.6 9.4,-1.5 12.7,-5.3 1.9,-2.3 3.5,-4.9 5,-7.5 0.5,-1 0.5,-2.4 0.4,-3.7 -0.3,-4.4 -0.8,-8.9 -1.2,-13.3 -0.1,-0.6 -0.1,-1.5 -0.5,-1.9 -2.9,-2.7 -0.7,-3.8 1.5,-5 1.9,-1.1 3.8,-2.2 5.5,-3.5 0.7,-0.6 1,-1.8 1.4,-2.8 -1.1,-0.4 -2.2,-1.1 -3.3,-1.1 -1.6,0 -3.5,1.9 -4.5,-1.1 -0.5,-1.4 -2.2,-1.5 -3.2,-3.1 -5.5,-8.7 -6.7,-18.7 -9.5,-28.2 -1.3,-4.5 -3.9,-8.7 -6,-13.3 0.4,-0.1 0.9,-0.3 1.9,-0.6 -2.8,-2.5 -2.7,-4.3 0.9,-5.7 0.9,-0.4 1.2,-2.3 1.8,-3.5 -2.7,-0.5 -4.5,-0.8 -6.3,-1.1 0.9,-1.4 2,-2.7 2.8,-4.2 1,-1.6 1.7,-3.3 2.6,-5 -0.4,-0.2 -0.7,-0.5 -1.1,-0.7 -1,1.2 -2,2.6 -3.1,3.7 -0.7,0.7 -1.7,1.2 -2.6,1.8 -0.1,-1.1 -0.3,-2.2 -0.4,-3.3 0,-0.3 0.1,-0.6 0.3,-1.3 -4.1,2.2 -7.8,4.3 -8.7,9.1 -0.3,1.6 -1,3.6 -3.1,2.5 -0.7,-0.4 -0.7,-2.8 -0.6,-4.2 0.1,-1.2 0.7,-2.4 1.1,-3.6 -0.4,-0.3 -0.9,-0.5 -1.3,-0.8 -1.3,1.6 -2.5,3.2 -3.9,4.7 -0.7,0.8 -1.7,1.2 -2.6,1.8 -0.1,-1.1 -0.4,-2.3 -0.1,-3.4 0.4,-1.7 1.1,-3.4 1.3,-5.3 -4,2.1 -6.3,5.4 -7,9.6 -0.3,1.9 -1.1,2 -2.7,2.1 -3.7,0.3 -7.7,0.3 -11.1,1.5 -7.7,2.8 -8.4,9.3 -2,14.6 0.1,0.1 0.2,0.1 0.3,0.2 4.9,3.9 4.4,6 -1.2,8.8 -2.7,1.4 -4.9,4 -7,6.3 -1.4,1.6 -0.6,3.2 0.5,5 2.2,3.6 6.8,5.8 6.6,10.8 -0.1,1.4 -0.6,2.8 -1.2,4.1 -0.4,1 -1.3,1.8 -2.1,3 1.3,0.5 2.2,0.9 3.3,1.3 0.2,2 0.4,4.1 0.8,6.1 0.6,2.7 1.8,4.8 4.9,5.7 1.3,0.4 2.1,2.2 3.1,3.3 -0.2,0.2 -0.5,0.4 -0.7,0.7 0.2,0.1 0.4,0.3 0.6,0.4 1.4,0.7 4.2,0.6 3.2,3 -0.4,1 -3,1.8 -4.5,1.7 -2.8,-0.3 -7,0.3 -5.6,-5.1 0.1,-0.4 -0.7,-1.1 -1.2,-1.5 -2,-2.1 -3.2,-4.3 -2.2,-7.5 0.7,-2.2 1.1,-4.7 -2.6,-5.9 -2.8,-0.9 -0.6,-3.7 0.3,-5 2.3,-3.2 1.5,-5.5 -0.9,-8.1 -2,-2.2 -3.7,-4.7 -5.4,-7.2 -1.7,-2.6 -0.2,-7.5 2.9,-10.1 1.3,-1.1 2.7,-2.3 4.1,-3.2 1.3,-0.8 2.8,-1.4 4.4,-2.1 -1.9,-2.2 -3.7,-4.1 -5.2,-6.2 -4.4,-6.4 -2.7,-12.5 4.6,-15.3 3.3,-1.2 6.9,-1.8 10.4,-2.1 2.1,-0.2 3.1,-0.9 4.2,-2.7 1.6,-2.6 3.4,-5.2 5.6,-7.4 2.8,-2.9 4.1,-2.4 5.1,0.7 2.4,0.4 4.4,0.7 7.1,1.1 0.9,-0.6 2.4,-2 4.2,-2.7 3.8,-1.4 7.7,-2.6 11.6,-3.6 0.6,-0.1 2.3,1.7 2.3,2.5 -0.1,2.5 -0.9,4.9 -1.4,7.6 3.9,3.7 3.9,7.1 -0.3,11.3 -2.7,2.7 -2.8,4.3 -0.1,6.8 4.8,4.3 5.7,10.4 7.6,16.1 2.5,7.3 4.6,14.7 6.7,21.2 3.6,0.4 7.1,0 9.6,1.3 4.1,2.1 4.2,6.6 0.8,9.8 -2.4,2.6 -5,4.4 -8,6.6 z"
       id="path1300"
       inkscape:connector-curvature="0" />
    <path
       d="m -1382.7521,-611.76537 c -10.5,0.3 -14.5,8 -18.3,15.4 -3.5,6.8 -3.6,14.2 0.4,21 1.3,2.2 3.2,4.2 5.3,5.7 5.7,4.1 8.6,10.9 7.2,18 -0.2,1.1 -0.4,2.2 -0.5,3.3 0.3,0.2 0.5,0.3 0.8,0.5 1.4,-1.7 3,-3.3 4.2,-5.2 1.3,-2.2 2.7,-3.2 5.4,-2.2 10.3,4 18.9,-0.4 27.5,-5.4 0.4,-0.2 0.9,-0.5 1,-0.9 2.1,-6.9 8.6,-12.8 4.8,-21.2 1,0.2 1.7,0.3 2.4,0.5 0.1,-0.3 0.2,-0.5 0.2,-0.8 -1,-0.3 -2,-0.9 -2.9,-0.8 -10.3,1.2 -19.7,-1.7 -28,-7.5 -5.5,-3.8 -7.4,-10.3 -8.4,-16.6 -2,-11.8 4.8,-19.8 12.5,-27.3 6.5,-0.2 10.7,-5.8 16.7,-7 0.7,-0.1 1.5,-0.2 2,-0.6 4.5,-3.7 8.9,-2 13.3,0 7.7,3.6 13.7,8.3 17.2,16.9 4.1,10.1 3.7,19.1 -2,27.7 -2.4,3.5 -6.7,6 -10.5,8.3 -2.4,1.5 -3.4,3 -3.1,5.8 0.2,2 0.3,3.9 0.3,5.9 0,0.9 -0.4,1.9 -0.6,2.8 -0.9,-0.4 -1.9,-0.6 -2.7,-1.1 -0.7,-0.4 -1.1,-1.1 -1.3,-1.3 -2.2,5.5 -4.4,11.1 -6.7,16.8 -0.4,1 -1,2.3 -1.9,2.8 -9.1,5.3 -18.3,10.1 -29.5,6.6 -1,-0.3 -2.6,0.6 -3.6,1.4 -2.3,1.8 -4.3,4.1 -6.7,5.6 -2.6,1.6 -3.9,0.5 -3.6,-2.6 0.3,-2.8 0.9,-5.5 1.2,-8.3 0.5,-4.6 -2.4,-8 -5.4,-10.2 -14.5,-11 -12.3,-28.8 -1.7,-40.6 2.6,-2.9 6.1,-5.3 9.5,-7.3 2.4,-1.5 3.4,-0.8 5.5,1.9 z m 10.1,-17.8 c -4.7,5.7 -8.1,11.7 -7.1,19.3 0.9,6.8 2.6,13.8 8.7,17.5 7,4.3 15.3,8.4 23.5,6.1 5.8,-1.6 6.5,1.7 8.7,4.4 0.1,0.1 0.4,0 0.9,0.1 0,-2.1 0.2,-4.2 -0.1,-6.2 -0.2,-2 0.4,-2.6 2.3,-3.4 9.9,-4 15.7,-11.3 16,-22.2 0.3,-11.1 -9.5,-24 -20.4,-26.9 -2,-0.5 -4.3,-1.2 -6.2,-0.7 -3.5,1 -7,2.4 -10.1,4.2 -3.5,2 -6.6,4.8 -10.1,6.8 -1.7,1 -3.6,2.9 -6.1,1 z"
       id="path1302"
       inkscape:connector-curvature="0" />
    <path
       d="m -1696.3521,-8.1653658 c -2.3,6.1 -7,8.79999996 -12,11.7 -17.1,9.7999998 -36,14.0999998 -55,17.4999998 -19.1,3.4 -38.5,3.5 -58,2.4 -13.3,-0.7 -26.7,-0.9 -39.8,-3.5 -11.8,-2.3 -22.9,-6.6 -33.1,-13.0999998 -2.7,-1.7 -5.3,-3.4 -7.9,-5.2 0.2,-0.3 0.3,-0.5 0.5,-0.80000004 2.2,1.20000004 4.4,2.40000004 6.5,3.70000004 12.4,7.9999998 26.2,12.0999998 40.8,13.7999998 20.7,2.5 41.5,2.7 62.3,1.9 19.4,-0.8 38.3,-4.9 57,-10.4999998 13,-3.9 23.9,-11.8 36.2,-16.8 0.6,-0.1 1.3,-0.6 2.5,-1.1 z"
       id="path1304"
       inkscape:connector-curvature="0" />
    <path
       d="m -1726.8521,-507.26537 c -0.8,-1.9 -1.8,-3.7 -2.3,-5.6 -1.3,-5.3 -2.3,-10.7 -3.7,-15.9 -0.5,-2.1 -1.7,-4 -2.7,-6.3 -1.1,1 -1.8,1.6 -2.6,2.4 -0.8,-0.9 -1.5,-1.8 -2.4,-2.8 0.9,-1 1.7,-1.9 2.5,-2.8 -0.3,-0.1 -0.7,-0.2 -1,-0.3 0.2,-1 0.1,-2.3 0.7,-3 1.9,-2.4 4,-4.6 6,-6.9 -0.3,-0.4 -0.7,-0.9 -1,-1.3 -3.1,1.9 -6.2,3.8 -9.3,5.7 -0.3,-0.2 -0.5,-0.4 -0.8,-0.7 2.6,-3.1 5.3,-6.1 8.3,-9.6 -9.8,2.8 -18,7 -25.5,12.9 -7.8,6.1 -10.2,15.3 -13.6,24.4 -3,-6 3.9,-20.1 13.8,-27.5 8.5,-6.5 18,-11.4 29.9,-11.6 -1.9,1.8 -3.6,3.4 -5.5,5.2 1.9,0.3 3.7,0.1 4.8,0.9 0.5,0.4 -0.1,2.5 -0.3,4.1 0.4,0.3 1.8,1.1 1.7,1.6 -0.5,3 -0.9,6.3 -4.2,7 1.3,1.2 2.8,2.4 3.8,3.9 0.5,0.8 -0.2,2.2 0,3.3 1.4,6.2 3,12.4 4.3,18.6 0.3,1.1 -0.6,2.8 -0.9,4.3 l 0,0 z"
       id="path1306"
       inkscape:connector-curvature="0" />
    <path
       d="m -1428.5521,-483.96537 c -5.1,1.1 -9.1,1.1 -12.8,-3.1 -2,-2.3 -6.2,-2.7 -9,-4.6 -1.2,-0.8 -1.8,-3.2 -1.9,-5 -0.1,-1.4 0.4,-3.5 3,-2.3 0.4,0.2 1.1,-0.6 1.7,-0.6 3.7,-0.2 7.3,-0.3 11,-0.3 0.3,0 0.6,1.3 0.9,1.9 -1,0.4 -2,1.3 -3,1.3 -2,0 -4,-0.4 -5.7,-0.6 -0.5,0.6 -0.8,0.8 -0.8,1 0,2 -0.5,5.3 0.3,5.7 3.1,1.6 6.6,2.8 10,2.9 3.5,0.1 6.6,-0.1 8.7,3.1 0.7,1 1.5,2 1.6,3.1 0.8,5.8 1.5,11.6 2.2,17.4 -4.4,0.3 -4.7,0 -4.9,-4.2 -0.3,-5 -0.9,-10.2 -1.3,-15.7 z"
       id="path1308"
       inkscape:connector-curvature="0" />
    <path
       d="m -1747.3521,-490.26537 c -0.1,1.1 -0.2,2.3 -0.3,4.4 -1.1,-1.5 -2.3,-2.4 -2.2,-3.2 0.5,-3.6 1.4,-7.1 4.3,-9.5 0.3,0.1 0.7,0.3 1,0.4 -0.6,1.7 -1.1,3.4 -1.8,5.5 5.3,3.3 10.7,2.1 16.5,0.9 0.1,0.5 0.7,1.7 0.5,1.9 -2.5,2 -1.1,4.6 -1.4,7 -0.3,2.7 -0.1,5.8 -3.3,6.9 -2.8,1 -7.7,-0.9 -9,-3.6 -1.2,-2.4 -1.8,-5.2 -2.6,-7.8 -0.3,-1 -0.5,-2 -0.7,-3.1 -0.4,0 -0.7,0.1 -1,0.2 z"
       id="path1310"
       inkscape:connector-curvature="0" />
    <path
       d="m -1726.8521,-507.16537 c 0.8,-1 1.5,-2 2.4,-2.9 1.7,-1.7 4.7,-1.6 6.5,0.4 1.8,2 1.9,4.4 -0.3,5.7 -5,2.9 -5.1,7.4 -4.8,12.2 0.2,3.4 -0.1,6.8 0.1,10.1 0.1,1.8 1,3.5 2,5.3 -1.2,6.4 -6.2,8.4 -12.1,9.2 -0.1,0 -0.2,0 -0.3,0 -7.8,0.4 -7.8,0.4 -4.6,7.2 -2.5,-0.2 -3.8,-1.2 -4.6,-4.8 -0.6,-2.7 -1.8,-3.7 -4.4,-4.2 -2.2,-0.4 -4.2,-1.6 -6.2,-2.5 0.2,-0.4 0.3,-0.8 0.5,-1.2 2.5,0.7 4.9,1.4 7.4,2.1 5.6,1.6 11.2,2.2 16.7,0 1.4,-0.5 2.6,-1.4 3.8,-2.4 0.6,-0.5 1.3,-1.6 1.1,-2 -3.1,-6.2 -0.1,-12.8 -1.6,-19 -1.3,-5.2 0.8,-8.2 4.9,-10.7 0.8,-0.5 1.3,-1.8 1.4,-2.9 0,-0.5 -1.3,-1.6 -2,-1.5 -1.1,0.1 -2.1,0.9 -3.1,1.5 -0.3,0.2 -0.5,0.8 -0.8,1.4 -0.7,-0.4 -1.4,-0.7 -2,-1 0,-0.1 0,0 0,0 z"
       id="path1312"
       inkscape:connector-curvature="0" />
    <path
       d="m -1416.2521,-501.96537 c -1.2,0.7 -2,1.2 -2.9,1.7 -0.4,-0.9 -1,-1.8 -1.1,-2.7 -0.1,-1.1 -0.2,-2.4 0.3,-3.4 0.7,-1.4 1.8,-2.6 2.7,-3.9 0.9,1.1 1.7,2.4 2.7,3.4 1.5,1.5 3,3.5 4.9,4.1 3.8,1.4 7.9,2 12.2,3 0.8,2.6 0.2,3.6 -3.1,3.6 -6,-0.2 -11.5,-1.6 -15.7,-5.8 z"
       id="path1314"
       inkscape:connector-curvature="0" />
    <path
       d="m -1416.2521,-555.46537 c -2.8,1.1 -5.8,2 -8.3,3.5 -5.1,3.1 -8.6,7.6 -11.1,13 -0.4,0.8 -1.5,1.3 -2.2,2 -0.3,-1 -1.2,-2.2 -1,-3 2.5,-7.7 7.5,-13.6 14.7,-17.1 2.1,-1 5.2,0.1 7.9,0.2 0,0.5 0,0.9 0,1.4 z"
       id="path1316"
       inkscape:connector-curvature="0" />
    <path
       d="m -1814.7521,-525.46537 c -2.7,1.5 -3.8,0.3 -4,-2.4 -0.7,-9.9 0.8,-19.3 6.7,-27.5 1.2,-1.7 2.4,-4.2 5.6,-2.8 -8.8,9.4 -10.2,20.7 -8.3,32.7 z"
       id="path1318"
       inkscape:connector-curvature="0" />
    <path
       d="m -1803.3521,-528.46537 c -3,-7.7 0.3,-16.2 6.7,-21.8 0.8,-0.7 2.1,-0.8 3.4,-0.8 -4.8,5.7 -8.1,11.6 -7.9,19.1 0,1 -1.2,2 -2.2,3.5 z"
       id="path1320"
       inkscape:connector-curvature="0" />
    <path
       d="m -1871.6521,-434.76537 c 3.5,3.1 5,6.5 4.3,11.4 -1.1,-1.5 -1.9,-2.5 -2.3,-3 -3.8,0.4 -7.2,1 -10.7,1 -1.1,0 -2.3,-1.4 -3.4,-2.2 1.1,-0.4 2.1,-0.8 3.2,-1.1 0.4,-0.1 0.9,0 1.4,0 6.1,-0.1 6.1,-0.1 7.5,-6.1 z"
       id="path1322"
       inkscape:connector-curvature="0" />
    <path
       d="m -1728.8521,-465.86537 c 3.5,-1 11.4,12.5 10.6,17.9 -4.9,-0.1 -11.6,-1.9 -12.5,-4.1 3.5,0.6 6.5,1.1 10.9,1.8 -3.3,-5.6 -6.2,-10.5 -9,-15.6 z"
       id="path1324"
       inkscape:connector-curvature="0" />
    <path
       d="m -1882.0521,-478.46537 c -2.7,2.3 -5.2,4.5 -7.7,6.6 -0.3,-0.2 -0.6,-0.4 -0.8,-0.6 0.9,-1.5 1.6,-3.1 2.7,-4.5 1.1,-1.4 2.5,-2.7 3.9,-3.9 2.5,-2.1 4.5,-0.1 6,1.3 2.2,2.1 3.8,4.7 6,7.5 -5,0 -7.2,-3.5 -10.1,-6.4 z"
       id="path1326"
       inkscape:connector-curvature="0" />
    <path
       d="m -2035.2521,-384.06537 c -0.5,-1.4 -1.5,-2.8 -1.3,-4.1 0.7,-7.3 0.8,-14.9 5.7,-21 0.8,-0.9 2.4,-1.2 3.8,-1.3 -7.5,7.5 -7.2,16.9 -7,26.3 -0.4,0.1 -0.8,0.1 -1.2,0.1 z"
       id="path1328"
       inkscape:connector-curvature="0" />
    <path
       d="m -1789.9521,-534.26537 c -1.1,0.3 -2.1,0.6 -3.5,1 -0.3,-5.4 0,-10.2 4.3,-13.7 0.7,-0.6 1.9,-0.6 2.9,-0.9 -0.1,1 0,2.1 -0.4,3 -1.2,3.3 -2.6,6.6 -4,9.9 0.3,0.2 0.5,0.5 0.7,0.7 z"
       id="path1330"
       inkscape:connector-curvature="0" />
    <path
       d="m -2023.8521,-389.86537 c -3.8,-0.8 -4.6,-2.6 -4.3,-6.1 0.5,-4.4 2,-8.1 4.5,-11.4 0.5,-0.7 1.8,-0.8 2.8,-1.2 -0.3,0.8 -0.4,1.9 -0.9,2.5 -4.2,4.8 -5.2,11.2 -2.1,16.2 z"
       id="path1332"
       inkscape:connector-curvature="0" />
    <path
       d="m -1411.2521,-530.66537 c -0.9,1.2 -1.6,2.2 -2.4,3.3 -0.7,-0.8 -1.5,-1.5 -2,-2.4 -0.8,-1.4 -1.7,-2.8 -2.1,-4.4 -0.2,-0.8 0.1,-2.3 0.7,-2.6 0.7,-0.4 2.3,-0.2 2.7,0.4 1.2,1.6 2,3.6 3.1,5.7 z"
       id="path1334"
       inkscape:connector-curvature="0" />
    <path
       d="m -1433.7521,-488.56537 c -3.1,-0.7 -5.9,-1.2 -8.6,-2 -0.6,-0.2 -1,-1 -1.5,-1.6 0.6,-0.5 1.2,-1.4 1.9,-1.5 3.3,-0.6 6.5,1.3 8.2,5.1 z"
       id="path1336"
       inkscape:connector-curvature="0" />
    <path
       d="m -1733.8521,-454.26537 c 6,-3.8 -0.8,-6.6 -0.4,-10.1 3.6,1.3 5.3,4.8 4.6,8.4 -0.4,2.4 -1.9,2.2 -4.2,1.7 z"
       id="path1338"
       inkscape:connector-curvature="0" />
    <path
       d="m -1742.8521,-528.46537 c -5.5,-0.4 -5.7,-0.2 -8.8,6.6 -1.1,-2.3 0.2,-6.4 2.9,-7.9 1.9,-1.1 4,-1.5 5.9,1.3 z"
       id="path1340"
       inkscape:connector-curvature="0" />
    <path
       d="m -1736.4521,-506.76537 c -0.6,-2.8 -1.3,-5.5 -1.8,-8.3 -0.1,-0.4 0.9,-1 1.4,-1.5 0.4,0.5 1,1 1.1,1.5 0.3,2.7 0.5,5.4 0.7,8 -0.4,0.1 -0.9,0.2 -1.4,0.3 z"
       id="path1342"
       inkscape:connector-curvature="0" />
    <path
       d="m -1741.8521,-516.86537 c 0.4,3.4 0.7,6.8 1.1,10.2 -2.7,-1.1 -3.5,-5.7 -1.1,-10.2 z"
       id="path1344"
       inkscape:connector-curvature="0" />
    <path
       d="m -1885.6521,-461.56537 c 0.9,3.6 1.7,6.4 2.5,9.4 -3.4,-0.9 -4.7,-5.1 -2.5,-9.4 z"
       id="path1346"
       inkscape:connector-curvature="0" />
    <path
       class="st0"
       d="m -1921.1521,-290.06537 c 0,1.7 -0.5,3.5 0,5 4,11.8 8.2,23.6 12.4,35.4 0.5,1.3 0.9,2.6 1.6,4.4 -1.1,-0.6 -1.8,-0.9 -3,-1.5 0.5,1.3 0.9,2.3 1.2,3.1 -4.6,1.3 -9.3,2.6 -13.8,4 -3.5,1.1 -4.4,4.1 -4.2,7.2 0.1,1.3 1.9,3.5 3.2,3.7 4.4,0.7 9,1.5 13,-1.6 0.7,-0.5 2.1,0 3.1,0.1 1.4,0.2 2.8,0.4 4.9,0.8 1.3,2.1 6.9,3.3 9.9,1.8 5.4,-2.7 10.9,-4.8 16.4,-7.3 2,-0.9 3.9,-2 6.1,-3.2 1.6,7.5 -2.6,13.8 -4,21.1 1.4,0.1 2.6,0.1 3.7,0.2 2.6,-8.4 5.2,-16.6 10.1,-23.8 9.8,6.5 19.5,12.7 29,19.1 2.4,1.6 4.5,2.5 7.5,0.7 -5,-4.4 -9.9,-8.9 -14.9,-13.1 -6,-5.1 -12.2,-10 -18.3,-14.9 -1.9,-1.5 -2.5,-3.4 -2.4,-5.8 0.2,-5.1 0.1,-10.2 0.1,-15.5 -2.8,0.2 -5.4,0.4 -8.4,0.6 0.8,1 1.5,1.8 2.1,2.6 -0.1,0.3 -0.3,0.7 -0.4,1 -2,-0.8 -3.9,-1.5 -6.7,-2.6 1.1,5.8 -1.2,11.5 2,16.9 0.4,0.7 -0.1,2.6 -0.8,3.3 -1.6,1.5 -3.6,2.5 -5.5,3.8 -0.4,-0.8 -0.9,-1.4 -1.1,-2 -2.5,-9 -5,-18 -7.4,-27.1 -0.2,-0.6 0.3,-1.3 0.6,-2.2 10.2,-1.3 20.4,-2.7 30.5,-4 4.9,-0.6 9.8,-1.2 14.7,-1.9 2.4,-0.4 4.8,-1.2 7.1,-2 0.7,-0.2 1.5,-1 1.6,-1.6 0.7,-3.5 1.2,-7 1.8,-10.6 0.1,-1 -0.1,-2.1 0.1,-3 2,-9.9 4.1,-19.8 6.1,-29.8 2.6,-13.1 5,-26.2 7.7,-39.2 0.2,-0.9 1.5,-2.2 2.3,-2.1 15.3,0.2 30.7,0.5 46,0.9 0.7,0 1.3,0.2 2.5,0.5 -7.4,5.3 -12.9,11.6 -16.8,19.4 -5.9,12 -4.2,20.4 4.6,29.7 5.4,5.7 12.1,8.8 19.4,10.9 5.3,1.5 10.7,3 16.6,4.6 -3.5,2.2 -6.8,4.4 -10.1,6.4 -3.2,1.9 -6.6,3.7 -10.1,5.7 2.6,2.3 4.7,3.1 8.2,1.8 9.1,-3.5 18.4,-6.2 27.6,-9.2 3,-1 4.3,0 3.9,3.1 -0.4,3.4 -1,6.8 -1.9,10.2 -1.4,5.6 -1.1,6.4 5,8.2 0.6,-3.5 1.2,-6.9 1.9,-10.4 0.5,-2.9 0.9,-5.9 1.6,-8.8 0.2,-0.7 1.3,-1.4 2.1,-1.6 1.1,-0.2 2.3,0.1 3.3,0.2 0.6,-1.2 1,-2.2 1.5,-3.2 0.9,0.6 1.9,1.1 2.7,1.9 6,5.9 12,12 18.1,17.9 1.7,1.7 5.4,1.8 7,0.2 1.1,-1.2 2.1,-2.5 0.4,-4.2 -1.7,-1.7 -3.2,-3.7 -4.8,-5.4 -1.6,-1.6 -3.3,-3 -5.7,-5.1 4,0 7.3,-0.1 10.6,0.1 0.6,0 1.4,1.1 1.8,1.8 0.8,1.5 1.6,3.1 2.1,4.8 0.8,2.9 2.5,3.3 5.2,2.1 1.5,5.7 3.1,11.2 4.3,16.8 1.1,5.1 1.4,5.5 6.8,6.3 1.2,0.2 2.7,0.5 3.3,1.3 3.2,4.7 8.3,5.2 13.1,6.1 2.6,0.5 5.3,0.2 8,0.1 0.9,0 2.3,-0.6 2.5,-1.2 0.3,-0.9 0,-2.5 -0.7,-3.1 -4.5,-4.1 -8.8,-8.6 -13.9,-11.8 -6.5,-4.2 -11.3,-9.3 -13.4,-16.7 -0.8,-2.7 1.6,-6.6 4.3,-7.2 0.8,-0.2 1.6,-0.3 2.4,-0.3 22.1,-0.5 43.3,-5.6 63.8,-13 11.9,-4.3 23.9,-9.4 33.7,-17.8 8.6,-7.4 11.5,-14.8 3.4,-25.4 -2.8,-3.6 -7,-6.2 -11,-8.8 1.6,4.8 1.5,9.8 5.1,13.8 4.4,4.9 3,11.1 -3.1,15.5 -3.9,2.9 -8.1,5.5 -12.4,7.7 -17.3,9.1 -35.8,14.8 -55,18.1 -8.2,1.4 -16.6,2 -24.8,3.1 -2.8,0.4 -3.9,-0.7 -4.5,-3.3 -3.8,-15.2 -7.3,-30.4 -11.7,-45.5 -2.3,-8.2 -5.9,-16 -9.2,-23.8 -0.8,-1.9 -2.7,-3.3 -4.1,-4.8 0.5,-0.3 1.6,-0.6 1.9,-1.3 1.9,-3.6 3.4,-2 5.8,-0.3 12.3,8.1 18.3,21.4 27,32.4 2.8,3.6 6.6,6.3 10,9.5 0.7,0.6 1.8,1.2 1.9,1.9 0.4,3.7 2.9,3.3 5.4,3 2,-0.2 3.9,-0.5 6.2,-0.7 1,-2.9 5.3,-4.9 7.9,-4 2.1,-1.6 3.4,-3.2 5.1,-3.9 5.5,-2.3 11.4,-3.9 15.9,-8.4 1.3,-1.3 3.4,-1.8 5.5,-2.9 0.1,1.4 0.2,2.4 0.3,3.6 -1,-0.1 -1.8,-0.3 -3.2,-0.5 1.8,3.2 0.2,4.8 -1.9,6.3 -2.7,2 -5.1,4.4 -7.9,6.3 -2.1,1.4 -4.4,2.6 -6.7,3.4 -2.2,0.8 -3.7,1.5 -4.5,4.1 -0.6,1.9 -3,3.2 -4.4,4.6 -2.8,-2.5 -5.4,-4.8 -8.1,-7 -0.5,-0.4 -1.4,-0.4 -2.2,-0.3 -0.2,0 -0.6,1 -0.5,1.1 0.4,0.5 1.1,0.7 1.5,1.1 2.1,1.9 4.5,3.7 6.1,6 1.4,2 2.6,2.2 4.2,0.9 2.2,-1.9 5.3,-2.8 5.9,-6.3 0.1,-0.8 1.8,-1.4 2.9,-2 2.7,-1.5 5.6,-2.7 8.1,-4.5 3.5,-2.5 6.7,-5.4 9.9,-8.2 2.8,-2.4 4.1,-5.2 2.9,-9 -0.5,-1.6 -1.1,-2.5 -2.9,-1.8 -2,0.9 -4.5,1.2 -6,2.7 -5.1,5.1 -11.7,6.9 -18.1,9.3 -1.6,0.6 -3.4,0.9 -5.1,1.3 -0.4,-0.6 -0.9,-1.3 -1.3,-1.9 1.3,-0.8 2.6,-1.4 3.7,-2.3 2.3,-2 3,-4.4 0.8,-6.8 -3.7,-4 -7.5,-7.8 -11.4,-11.7 -11.6,-11.7 -21.5,-24.6 -30.2,-38.6 -2.5,-3.9 -6,-7.2 -9.3,-10.6 -0.8,-0.8 -2.5,-0.9 -3.7,-1.1 -0.9,-0.2 -2,0.2 -2.7,-0.2 -4.4,-2.2 -8.5,-0.8 -12.5,1 -0.5,0.2 -1,0.4 -1.8,0.7 0.4,-2.9 0.8,-5.5 1.3,-9 -3.5,-5.7 -7.9,-12.3 -11.6,-19.2 -3.8,-7 -7,-14.4 -10.6,-22 9,1.8 17.8,3.6 27.5,5.5 -0.5,2.2 -1.5,5 -1.7,7.8 -0.4,3.9 -0.9,8 -0.2,11.8 1.5,7.9 8.6,10.2 14.8,13.2 12.1,5.8 25.2,5 37.9,4.5 14.9,-0.6 29.4,-3.8 42.8,-10.9 0.6,-0.3 1.5,-0.2 2.2,-0.4 0.8,-0.2 2.3,-0.3 2.4,-0.7 0.7,-2.9 3.5,-3.1 5.4,-4.3 1.2,-0.7 2.3,-1.5 3.4,-2.4 2.6,-2 5.1,-4 7.7,-5.9 0.3,-0.2 0.6,-0.3 0.9,-0.5 5.2,-3.4 5.2,-3.4 11.7,-2.9 23.3,1.9 46.6,4.1 70.1,4 1.8,0 3.6,-0.2 4.7,2 0.3,0.7 2.3,0.5 3.6,0.7 -2.7,13.3 -3.5,27.1 -2.2,41.3 1.3,14.2 5.8,27.3 11.9,40.4 -1,0.1 -1.7,0.3 -2.5,0.3 -9.7,-0.9 -19.4,-2 -29.1,-2.8 -5,-0.4 -10,0.1 -15,0 -8.6,-0.3 -17.1,-1 -25.7,-1.1 -6.9,-0.1 -13.8,0.5 -20.8,0.9 -0.6,0 -1.1,0.9 -1.7,1.3 0.6,0.4 1.1,1.1 1.8,1.2 2.5,0.3 5.1,0.5 7.6,0.7 12.6,0.9 25.2,2 37.8,2.7 5.8,0.3 11.6,-0.4 17.4,-0.4 9.1,0 18.2,0.1 27.3,1.6 7.4,1.2 8.8,7.4 13.3,10.7 0.2,0.2 0.4,0.6 0.4,0.9 -0.9,9.7 4.3,18.9 1.1,29.1 -3.8,12 -3.8,24.6 -3.9,37.2 -0.1,14.5 -1.7,28.9 -2.5,43.4 -0.6,11.6 -1.1,23.2 -1.6,34.8 -0.3,7.5 -0.5,15 -0.6,22.6 0,1 0.2,2.1 0.3,2.6 -5.7,8.1 -13.9,6.5 -21.7,5.7 -18.5,-1.8 -36.9,-3.9 -55.4,-5.7 -8.4,-0.8 -16.9,-1.3 -25.3,-2 -15.9,-1.4 -31.8,-3.1 -47.8,-4.1 -11.1,-0.7 -22.3,-0.2 -33.5,-0.5 -13.2,-0.4 -26.4,-1.2 -39.7,-1.7 -3.6,-0.1 -7.2,0 -11.3,0 0.9,0.5 1.4,0.7 1.9,1 0,0.2 -0.1,0.5 -0.1,0.7 -1.4,-0.1 -2.8,-0.4 -4.2,-0.4 -0.9,0 -1.9,0.4 -2.8,0.6 0.2,0.9 0.2,2 0.7,2.7 3.6,5.6 7.3,11.2 11,16.8 4,6 3.4,12.4 0.5,18.3 -5.4,10.9 -15,17 -25.9,21.6 -11.5,4.8 -23.7,6.4 -35.8,8.3 -24.7,3.7 -49.6,3.3 -74.5,2.5 -19.7,-0.6 -39.5,-1.7 -58.7,-6.9 -9.6,-2.6 -19.1,-5.6 -27.1,-12.1 -11.9,-9.7 -19.1,-31.4 -9.3,-48 5.1,-8.7 10.3,-17.5 19,-23.3 3.8,-2.5 7.9,-4.7 11.7,-7.4 -2.5,1 -5,1.8 -7.4,3 -9,4.2 -15.7,11 -21.2,19.1 -2.4,3.5 -4.5,7.3 -6.7,11 -3.5,6 -3.5,12.6 -3.4,19.3 0.1,9.6 0.4,19.3 0.5,28.9 0.1,19.7 0,39.500004 0.2,59.200004 0,4.8 0.9,9.7 1.4,14.4 -19.3,-5.8 -39,-4.2 -58.5,-5.3 -15.4,-0.9 -30.8,-1.4 -46,-4.8 -1.7,-0.4 -3.3,-1.3 -4.9,-1.5 -2.9,-0.3 -5.8,-0.2 -8.7,-0.4 -1,-0.1 -2.1,-0.3 -3.1,-0.6 -11.8,-3 -9.3,-1.7 -10.6,-12.2 -1.9,-15 -2.5,-30.300004 -2.8,-45.500004 -0.5,-25.4 -0.1,-50.9 -0.6,-76.4 -0.2,-8.3 -2.1,-16.5 -3.5,-24.7 -1.1,-6.5 1.1,-10.8 6.1,-15.3 10.4,-9.2 22.9,-15.2 33.4,-24 0.4,-0.3 0.9,-0.5 1.6,-0.9 1.1,5.4 -1.2,10.9 2.3,16 1.1,-15.4 0,-30.3 -2.6,-45.6 2.1,0.2 4,0.4 6.3,0.7 0.5,9.1 1.1,17.9 1.6,26.8 0.1,1.2 0.3,2.3 0.3,3.5 0,5.2 1.7,10.7 -2.9,15 -0.6,0.6 -0.5,2.1 -0.7,3.1 1.1,0.1 2.3,0.2 3.5,0.3 -0.1,-2.1 -0.2,-3.6 -0.3,-5.1 0.2,0 0.4,0 0.6,-0.1 0.2,1.3 0.3,2.8 0.7,4 0.3,0.9 1.3,1.5 1.9,2.3 0.3,-0.9 1,-1.8 0.9,-2.6 -0.7,-10.7 -1.3,-21.3 -2.3,-31.9 -0.5,-4.9 -1.7,-9.7 -2.7,-15.5 6.1,0.8 11.8,1.1 17.4,2.3 10.9,2.4 21.6,5.3 32.4,7.9 2,0.5 2.9,1.1 3.1,3.4 0.7,13.1 1.6,26.1 2.4,39.2 0.2,2.5 -0.5,5.4 3.7,7.3 -1.2,-16.5 -2.4,-32.3 -3.5,-48.2 1.1,0.2 2.9,0.5 4.6,0.7 0.5,14 1.1,28 1.5,42 0,1.2 -0.4,2.5 -0.7,3.7 -0.5,2.2 -0.5,4.2 3.3,4.7 0.2,-2.7 0.8,-5.3 0.7,-7.9 -0.3,-10.6 -0.8,-21.1 -1.3,-31.7 -0.2,-3.1 -0.8,-6.2 -1.2,-9.3 3.4,-1.4 5.9,4.3 9.7,1.4 -0.4,-0.5 -0.8,-1 -1.2,-1.6 5.1,1.3 8.7,-1.2 11.9,-4.2 3.5,-3.3 6.6,-6.8 9.9,-10.2 0.4,-0.5 1.2,-0.6 1.8,-0.9 l -0.1,-0.1 c -0.5,4.1 0.9,7.4 4.2,9.9 l -0.3,-0.9 z m -144.7,56.1 c 0,0.4 0,0.8 -0.1,1.2 12.2,1.4 24.4,2.8 36.6,4 9.3,0.9 18.7,1.3 28.1,2.1 11.5,1.1 23,2.4 34.6,3.6 18.8,1.9 37.6,3.8 56.5,5.3 7,0.6 14.1,0.2 21.2,0.2 0.6,0 1.2,-0.5 2.6,-1.2 -60.4,-7 -119.8,-12.8 -179.5,-15.2 z"
       id="path1348"
       inkscape:connector-curvature="0"
       style="fill:#ffffff" />
    <path
       class="st0"
       d="m -1330.6521,-169.66537 c 2.8,-1.6 5.6,-3 8.4,-4.7 2.4,-1.4 4.6,-3.1 7.6,-5.1 6,6.9 12.5,14.5 19.1,22 0.4,-0.5 0.9,-0.9 1.3,-1.4 0.4,-0.2 0.8,-0.5 1.2,-0.5 4.6,0.4 5.5,-1.1 4.4,-5.6 -1.7,-7.2 -3.9,-14.3 -8.3,-20 -4.3,-5.7 -3.3,-11.5 -3.2,-17.4 0.2,-11.8 1.2,-23.7 1.3,-35.5 0.1,-11.8 -0.6,-23.6 -1,-35.8 1.2,-0.1 2.8,-0.9 4.1,-0.4 3.3,1.1 4.8,-0.6 5.7,-3.1 1.7,-4.3 3.2,-8.7 4.6,-13.1 0.6,-1.9 1.3,-3 3.3,-3.3 10.4,-1.9 20.8,-3.9 31.2,-5.9 3.1,-0.6 6.3,-2.6 9.3,-2.4 17,1.4 34.1,-0.7 51,2.6 23,4.6 43.7,13.7 59.2,31.9 8.4,9.9 14,21.4 15.5,34.5 1.8,15.2 -3.1,28.4 -12.6,40.3 -14.4,18 -33.8,27.9 -55.4,34.2 -18.8,5.4 -38.2,7.5 -57.8,7.8 -14.8,0.2 -29.5,-0.6 -44,-3.5 -7.6,-1.6 -15.2,-3.5 -22.6,-5.8 -7.6,-2.4 -14.9,-5.6 -22.4,-8.5 0,-0.4 0,-0.8 0.1,-1.3 z"
       id="path1350"
       inkscape:connector-curvature="0"
       style="fill:#ffffff" />
    <path
       class="st0"
       d="m -1401.9521,-336.96537 c -13.8,5.2 -28.6,2.3 -43.2,2 -1.9,0 -3.1,-0.6 -3.5,-2.9 -2.8,-19.3 -7.7,-38.1 -12.7,-56.9 -2.2,-8.1 -3.3,-16.3 -2.4,-24.8 0.1,-0.6 0.3,-1.2 0.1,-1.7 -0.3,-0.7 -0.9,-1.4 -1.3,-2 -0.4,0.7 -1.3,1.4 -1.3,2.1 -0.1,4.6 -0.5,9.3 -0.1,13.9 1,9.2 2.1,18.4 3.8,27.5 0.7,3.6 3.3,6.6 3.4,10.6 0.1,4.5 1,9.1 1.4,13.2 -12.9,-16.8 -24.3,-48.9 -15.9,-92.5 4.2,2.4 6.4,-1.7 9.4,-3.2 4.5,-2.2 8.6,-5.2 13.1,-7.4 3.9,-1.9 8,-3.1 11.8,-4.5 3.3,5.6 6.4,11.2 9.6,16.6 0.5,0.9 1.2,1.7 2,2.4 0.7,0.6 1.8,1.1 2.6,1 0.5,0 0.7,-1.4 1.2,-2.2 1.9,-3.4 3.8,-6.8 6.1,-10.8 1.1,1.6 1.9,2.6 2.6,3.7 1.9,3.3 3.6,6.8 5.6,10 2.4,3.8 4.7,3.6 6.5,-0.4 2.4,-5.1 4.7,-10.3 7.2,-15.8 9.7,7.3 20.5,13.6 20.4,27.6 -0.1,11 -1.3,22 -1.9,33 -0.6,11.8 -1.3,23.6 -1.8,35.4 -0.5,12.8 -0.8,25.5 -1,38.3 -0.1,2.8 -1.2,3.5 -3.8,3.3 -6.8,-0.4 -6.9,-0.3 -6.9,-7.2 0.1,-14 1.3,-28.2 0.3,-42.1 -1,-13.6 2,-26.5 4.3,-39.6 0.9,-4.8 0.8,-9.7 0.8,-14.6 0,-1.4 -1.6,-2.7 -2.9,-3.9 0.4,12.8 -3.5,24.5 -5.6,36.6 -1.3,7.7 -2.2,15.4 -3.3,23.1 -1.4,10.5 -3,20.9 -4.6,32.2 z"
       id="path1352"
       inkscape:connector-curvature="0"
       style="fill:#ffffff" />
    <path
       class="st0"
       d="m -1375.5521,-273.96537 c -0.1,-0.6 -0.2,-1.1 -0.2,-1.6 1.9,0.1 3.6,0.3 5.8,0.4 -0.5,-0.6 -0.7,-0.9 -0.9,-1.1 -2.5,-1.9 -5.8,-3.5 -4.7,-7.6 0.8,-3 0,-6.1 1.3,-9.4 1.7,-4.3 1.6,-9.5 1.2,-14.2 -0.3,-3.9 -2.3,-7.7 -3.5,-11.6 -0.1,-0.5 0.1,-1.1 0.1,-1.6 0.5,-11.2 1.1,-22.5 1.6,-33.8 0.1,-2.1 -0.8,-5.2 0.2,-6.1 1.3,-1.1 4.2,-0.4 6.3,-0.3 7.5,0.1 15.1,0.1 22.6,0.2 0.9,0 1.8,0.2 2.8,0.2 -1.2,8.5 -2.8,16.7 -3.5,25 -0.8,9.9 -1.2,19.9 -1.3,29.9 -0.1,6 0.7,12 1.1,18 0.1,0.9 0.2,1.9 0.2,2.8 0,1.7 -0.8,4.4 0.1,5.1 2.4,1.8 5.4,3 8.2,4.2 1.5,0.6 3.1,0.6 5.4,1 1.5,17.8 3,35.7 4.6,53.5 0.8,9.2 1.9,18.3 2.9,27.8 -4.5,5.8 -9.5,12.3 -14.6,19 -4.6,-2.9 -7.8,-7.1 -9.6,-12.6 -0.2,5 -4.4,6.2 -7.4,8.4 -4.8,3.4 -9.8,6.6 -14.9,9.7 -1.3,0.8 -3.1,0.9 -4.7,0.9 -7.3,0.1 -14.7,-0.1 -22,0.1 -2.6,0.1 -4.4,-0.8 -5.8,-2.9 -1.5,-2.2 -3.2,-4.2 -4.5,-6.9 0.9,0.4 1.9,1 2.8,1.3 0.7,0.2 1.7,0.5 2.1,0.2 0.5,-0.4 0.7,-1.4 0.7,-2.1 -0.7,-16.8 -1.5,-33.6 -2,-50.4 -0.4,-12.5 -0.4,-25.1 -0.6,-37.6 0,-1.1 0,-2.3 0,-4.1 1.1,2 2,3.3 2.6,4.7 0.3,0.8 0.6,2.2 0.2,2.5 -2.5,2.5 -0.9,4.6 0.6,6.4 6.4,8.1 12.9,16.1 19.3,24.1 0.1,0.2 0.4,0.2 0.5,0.2 1.1,-7.8 2.2,-15.7 3.3,-23.5 0.7,-5.4 1.4,-10.8 2.1,-16.2 0.1,-0.7 0.8,-1.3 1.2,-1.9 0.7,5.4 1.4,10.9 2.1,16.3 -0.3,0 -0.7,0.1 -1,0.1 -0.1,-1.1 -0.2,-2.2 -0.2,-3.3 -1.3,5.1 -2,10.2 -2.8,15.3 -0.8,5.2 -1.6,10.5 -2.3,15.5 3.4,2.6 4.8,-0.8 7,-1.3 3.3,-0.8 4,-3 4.3,-5.6 0.3,-2.9 0.2,-5.8 0.7,-8.6 1.3,-7.6 2.6,-15.2 4.1,-22.8 0.5,-2.7 -0.4,-4.1 -3.2,-4.3 -2.6,-0.3 -5.5,-0.9 -8.3,-1.4 z"
       id="path1354"
       inkscape:connector-curvature="0"
       style="fill:#ffffff" />
    <path
       class="st0"
       d="m -1844.6521,-440.86537 c 11.3,2.4 23.4,2.1 31.6,12.2 9.9,-7.7 19.4,-15.2 29.2,-22.9 2.2,10.2 4.3,19.6 6.3,29.1 0.6,2.9 0.6,5.9 1.2,8.8 0.5,2.6 1,5.2 2.2,7.5 0.6,1.3 2.3,2.6 3.7,3.1 2,0.7 4.3,0.6 7.4,1 1.9,6 4,12.4 5.9,18.9 3,10.5 6.2,20.9 11.5,30.5 2.3,4 5.6,6 10.5,5.8 6.1,-0.2 12.1,0.3 18.2,0.4 1.2,0 2.3,-0.9 3.5,-1.1 3.3,-0.6 6.5,-1.2 9.8,-1.7 2.5,-0.4 5.1,-0.7 7.5,-1 4.7,15.2 9.6,31.1 14.6,47 -5.7,0 -11.4,0.1 -17,-0.1 -1.4,-0.1 -3.3,-1 -4.1,-2.1 -3.4,-4.3 -6.6,-8.6 -9.4,-13.2 -0.9,-1.5 -0.5,-3.8 -0.5,-5.8 -0.1,-4.1 0,-8.1 0,-12.1 -2.9,0.4 -5.7,0.7 -9.1,1.1 1,8.1 1.9,16.4 3,25.2 -0.9,-1.2 -1.5,-2 -2.5,-3.4 -3.1,1.3 -6.4,2.8 -9.7,4 -1.7,0.6 -3.7,1.3 -5.4,1 -7.6,-1.6 -15.1,-3.6 -22.6,-5.6 -8.6,-2.3 -15,-7.7 -20,-14.9 -3.2,-4.7 -2.4,-9.9 -0.5,-14.7 3.5,-9 8.8,-16.8 17.6,-21.7 2.7,-1.5 5,-3.3 4.2,-7.3 -18.6,-2.4 -37.6,-1.7 -56.6,-2 1.8,-7.8 3.2,-15.4 5.3,-22.8 2.1,-7.6 0.3,-9.2 -7.1,-10.9 -5.2,-1.2 -6.2,-0.2 -7.4,5.1 -1.4,6.3 -2.9,12.6 -4.9,19 -1,-4.1 -1.9,-8.3 -3.1,-12.4 -2.3,-7.6 -5.5,-14.7 -10.9,-20.7 -2,-2.2 -3.2,-4.7 -3.3,-7.8 0,-5.1 -1.2,-10.2 0.9,-15.5 z"
       id="path1356"
       inkscape:connector-curvature="0"
       style="fill:#ffffff" />
    <path
       class="st0"
       d="m -1449.6521,-330.56537 c 0.3,0.2 0.7,0.6 1.2,1 0.2,-0.9 0.3,-1.6 0.5,-2.5 14.3,0.5 28.5,2.8 43.3,-0.4 -0.3,5.3 0.5,10.8 -1,15.5 -3.9,12.5 -2.5,25.2 -2.6,37.9 -0.1,28.8 0.4,57.6 0.7,86.4 0,3.9 0.6,7.8 0.9,12.1 -5.5,0 -10.9,-0.1 -16.3,0 -2.4,0.1 -4.9,0.6 -7.3,0.9 -1.9,0.3 -2.8,-0.3 -2.7,-2.4 0.3,-9.4 0.3,-18.8 0.7,-28.2 0.6,-12.4 1.5,-24.8 2.1,-37.2 0.4,-7.1 0.8,-14.1 0.9,-21.2 0.1,-10.7 -0.1,-21.4 -0.1,-32.2 0,-3.7 0,-7.4 -0.1,-11.1 0,-0.7 -0.7,-1.4 -1.8,-1.8 -0.3,5.1 -0.6,10.3 -0.9,15.4 -0.3,7.9 -0.5,15.8 -0.9,23.7 -0.2,4.4 -0.9,8.7 -1.3,13.1 -0.2,3 -0.1,6 -0.2,9 -0.4,8.2 -0.7,16.5 -1.4,24.7 -1.2,14 -1.7,28 -1.4,42 0,0.9 0,1.8 0,2.8 -4.3,0.6 -8.4,1.1 -12.5,1.7 -0.3,0 -0.9,0 -1,-0.1 -2,-3.7 -4.5,-1.1 -7.3,-0.5 0,-1.7 -0.1,-3.3 0,-4.8 1.1,-17.5 2.6,-34.9 3.3,-52.4 0.5,-13.1 0.2,-26.3 0.2,-39.4 0,-9 -0.5,-18.1 -0.5,-27.1 0,-5.3 0.5,-10.7 1.4,-15.9 0.8,-3.1 2.7,-5.9 4.1,-9 z m 7.2,11.1 c 1.8,4 6.9,5 20,3.7 1.1,-0.1 2.1,-1.1 3.2,-1.6 -0.2,-0.3 -0.3,-0.5 -0.5,-0.8 -7.5,-0.5 -15,-0.9 -22.7,-1.3 z"
       id="path1358"
       inkscape:connector-curvature="0"
       style="fill:#ffffff" />
    <path
       class="st0"
       d="m -1288.3521,-362.16537 c 0.8,3.4 2.1,6.3 2,9.1 -0.5,15.2 -1.1,30.4 -2.4,45.5 -0.8,10.2 -2.9,20.3 -4.2,29.5 -10.5,0 -20.4,-0.1 -30.3,0 -7.7,0.1 -15.4,0.8 -21.4,-5.8 0.6,-15 0.8,-30.4 1.9,-45.8 0.6,-9.5 2.1,-18.9 3.9,-28.3 1.8,-9.4 4.5,-18.7 6.8,-28 0.6,-2.5 1.4,-3 4.3,-2.7 5.5,0.5 11.1,-0.2 16.7,-0.4 4.3,-0.2 8.6,-0.5 12.8,-0.6 0.9,0 2.3,0.8 2.6,1.6 2.8,7.8 5.5,15.6 8.1,23.5 0.1,1 -0.7,2.2 -0.8,2.4 z"
       id="path1360"
       inkscape:connector-curvature="0"
       style="fill:#ffffff" />
    <path
       class="st0"
       d="m -1218.0521,-420.96537 c 1.9,-1.8 3.9,-3.5 6.5,-5.9 0,10.4 0,20.2 0,29.9 0,9.8 -0.2,19.5 0.1,29.3 0.2,7.6 1.1,15.3 1.6,22.9 0.1,0.9 -0.2,2 -0.6,2.8 -1.3,2.5 -2.8,4.9 -4.6,8 -0.3,-7.4 -0.5,-14.2 -0.8,-21 -0.3,-5.9 -0.8,-11.8 -1.2,-17.7 -0.8,-11.6 -1.4,-23.1 -2.4,-34.7 -0.2,-2.3 -1.3,-4.7 -2.2,-6.9 -0.4,-0.9 -1.5,-1.5 -2.3,-2.3 -0.3,0.2 -0.5,0.3 -0.8,0.5 0.2,0.8 0.5,1.6 0.6,2.3 0.7,5.1 1.8,10.3 2,15.4 0.5,10.4 0.3,20.9 0.9,31.3 0.6,11.1 1.8,22.2 2.7,32.8 -1.8,0.5 -3.6,0.6 -4.8,1.5 -9.2,6.2 -16.5,14.1 -22.3,23.6 -0.1,0.1 -0.1,0.2 -0.1,0.3 -0.9,5.5 -5.1,5.8 -9.5,6.1 -2.6,0.2 -5.2,0.9 -8.3,1.5 3.1,-14.7 0.6,-29.2 -0.4,-43.8 -0.2,1 -0.5,1.9 -0.5,2.9 -0.3,7.8 -0.3,15.6 -0.8,23.3 -0.4,5.7 -1.2,11.3 -2,16.9 -0.1,0.7 -0.8,1.8 -1.4,2 -4.9,1.3 -9.8,2.5 -14.8,3.7 1.3,-8.8 2.6,-17.2 3.9,-25.7 0,-0.1 0.1,-0.2 0.1,-0.3 -1.4,-9.6 5.1,-15.8 9.5,-23 0.5,-0.8 1,-1.6 1,-2.8 -3,4.1 -6.1,8.2 -9.6,12.9 -0.8,-8.4 -1.6,-15.9 -2.3,-23.7 4.6,0.9 9,1.7 13.5,2.6 0.1,0.1 0.3,0.3 0.4,0.5 0.5,1.5 1,2.9 1.5,4.4 1.1,-1 2.4,-1.8 3.4,-2.9 4.7,-5.4 9.2,-10.8 14.5,-16.1 -0.2,2.2 -0.4,4.4 -0.6,6.6 -0.9,10.3 -1.6,20.6 -2.7,30.8 -0.4,3.9 -1.7,7.7 -2.4,11.5 -0.7,3.9 -1.4,7.8 -1.6,11.7 -0.1,1.6 1,3.3 1.6,5.2 7,-24.1 9.5,-48.4 6.9,-73 -3.9,-1 -8.5,-2 -13.1,-3.3 -7,-2 -12.7,-6.2 -17.8,-11.1 -2.1,-1.9 -2.3,-4.7 -0.9,-7.7 6,-12.7 16.1,-18.6 29.8,-19.2 2.1,-0.1 4.1,-0.7 6.2,-0.7 2.7,0 5.4,0.2 8.1,0.4 2.6,0.2 5.2,0.6 7.9,0.9 2.6,0.3 5.2,0.4 8,0.7 0.2,-1 0.4,-2.4 0.6,-3.7 -0.4,0.2 -0.5,0.3 -0.5,0.3 z"
       id="path1362"
       inkscape:connector-curvature="0"
       style="fill:#ffffff" />
    <path
       class="st0"
       d="m -1986.3521,-407.86537 c -7.2,4.7 -14.9,8.3 -20.8,15.2 0.9,0 1.5,0 1.8,0 0.3,17.3 -3,34.6 0.8,51.7 0.4,0 0.8,0 1.1,0.1 0.2,-0.7 0.5,-1.4 0.5,-2.1 -0.2,-6.1 -0.5,-12.2 -0.7,-18.3 -0.3,-10.2 -0.3,-20.4 -0.7,-30.6 -0.1,-2.2 0.6,-3 2.3,-4 2.9,-1.7 5.4,-4 8.3,-5.5 8.4,-4.4 16.8,-8.5 26.2,-13.2 -2.7,0.5 -4.4,0.7 -7.1,1.2 9,-4.7 17.2,-8.9 25.6,-13.2 3.5,19.1 6.9,37.5 10.3,56.2 -6.4,2.4 -12.2,4.3 -17.7,6.8 -2.6,1.1 -4.7,3.4 -6.9,5.1 -7.3,5.8 -14.2,12.1 -21.9,17.1 -6.2,4 -13.5,6.4 -20.4,9.3 -0.5,0.2 -2.3,-1 -2.5,-1.8 -0.8,-3.6 -1.4,-7.2 -1.8,-10.9 -0.8,-9.5 -1.4,-19 -2.1,-28.4 -0.4,-4.6 -0.6,-9.3 -1.3,-13.9 -0.5,-3.3 0.7,-6 3.1,-7.5 7.4,-4.7 15.1,-8.9 22.7,-13.3 0.5,-0.1 0.9,0 1.2,0 z m 13.5,48.2 c 2.1,-4.5 4.3,-8.9 6.2,-13.4 4.4,-10.3 8.8,-20.7 12.8,-31.2 1.1,-2.9 1,-6.2 1.4,-9.4 -2.2,6.1 -4,12.2 -6.5,18 -4,9.1 -8.5,18 -12.5,27.1 -1,2.7 -0.8,5.9 -1.4,8.9 -4.3,2.8 -8.6,5.7 -13,8.6 1.8,-4.3 4.1,-8.3 6.4,-12.2 8.6,-14.6 16,-29.8 21.6,-45.8 0.8,-2.3 0.7,-4.9 1,-7.3 -0.5,-0.1 -1.1,-0.1 -1.6,-0.2 -0.4,2.1 -0.5,4.4 -1.3,6.4 -3.1,8 -6,16.1 -9.7,23.8 -5.8,12.2 -12.1,24.2 -18.2,36.2 -0.3,0.6 -1.2,1 -1.8,1.5 -3.2,2.4 -6.5,4.8 -9.7,7.3 -0.6,0.5 -0.7,1.4 -1.1,2.2 5.9,-2.9 11,-6.1 16,-9.4 9.8,-6.3 19.7,-12.6 29.5,-18.8 4.1,-2.6 7.9,-5.4 10,-10.6 -8.5,7.9 -18.3,13 -28.1,18.3 z"
       id="path1364"
       inkscape:connector-curvature="0"
       style="fill:#ffffff" />
    <path
       class="st0"
       d="m -1640.6521,-479.46537 c -1.4,3.2 -2.4,5.5 -3.5,7.8 -2.1,4.4 -3.9,8.9 -6.4,13.1 -1.9,3.1 -4,2.9 -5.8,-0.3 -2.5,-4.3 -4.6,-8.8 -7.1,-13.2 -0.8,-1.5 -2.2,-2.7 -3.2,-4.1 -0.3,-0.4 -0.6,-1 -0.7,-1.5 -0.2,-3.2 -0.4,-6.4 -0.4,-9.8 3.1,7.5 7.8,13.6 14.5,18.4 -2.3,-2.9 6.3,-3.2 1.7,-6.1 2.7,-6.2 5.3,-12.3 7.8,-18.3 1.5,-3.7 3,-7.4 4.6,-11.2 3.8,0.5 5.2,4 6.5,8 3.1,9.4 11.6,12.3 19.7,6.5 4.1,-3 7.9,-6.5 11.5,-10.1 2.8,-2.8 5.3,-4.6 9.3,-2.5 3,1.6 6.1,3.1 9.1,4.6 -0.4,0.2 -0.8,0.5 -1.3,0.7 0,1.5 -0.1,3 0,4.6 0.6,7.8 1.4,15.7 1.9,23.5 0.4,6.9 0.7,13.9 0.7,20.8 0,1.3 -1.3,2.6 -2,3.9 -0.5,-0.1 -0.9,-0.2 -1.4,-0.4 -0.2,-2.6 -0.5,-5.1 -0.7,-7.7 -0.5,-8.1 -1.6,-16.1 -5.1,-23.6 -1.4,-3.1 -3.6,-5.8 -6,-8.5 0.2,2.1 0.6,4.1 0.5,6.2 -0.3,5.8 -1.2,11.5 -1.1,17.3 0,3.9 1.1,7.7 1.8,11.6 0.1,0.8 0.6,1.5 0.7,2.3 1.3,6.1 0.1,7.9 -5.6,10.2 -10.9,4.4 -22.3,6.1 -33.9,7.2 -0.9,0.1 -1.8,0 -3.2,0 0.5,-1.1 0.7,-1.8 1.2,-2.3 3.3,-4.5 4,-9.5 3.4,-15.1 -0.5,-4.7 0.1,-9.5 -0.2,-14.2 -0.1,-1.7 -1.3,-3.6 -2.5,-4.9 -2.3,-2.5 -6.2,-4.2 -3.3,-8.7 0.7,-0.5 -0.6,-2.1 -1.5,-4.2 z m 40.9,10.3 c 0,-0.5 -0.1,-0.9 -0.1,-1.4 -1.9,0 -4.1,-0.7 -5.5,0.1 -4.6,2.7 -9,1.9 -13.8,0.1 0.7,1.6 1.6,3 2.8,3.6 6.2,3 11.4,0.2 16.6,-2.4 z"
       id="path1366"
       inkscape:connector-curvature="0"
       style="fill:#ffffff" />
    <path
       class="st0"
       d="m -1608.6521,-509.26537 c 0.8,-2.6 1.7,-5.2 2.5,-7.8 0.7,-2.3 1.7,-4.4 0,-6.9 -0.6,-0.9 0.1,-2.9 0.4,-4.3 2.7,-10.6 3,-21.3 0.5,-32 -0.7,-3.1 -1.9,-6.1 -3.2,-9.9 1.9,1.4 3.2,2.3 4.6,3.3 -0.4,-4.7 -1.8,-5.8 -9.1,-7.3 -1.9,1.8 -3.5,3.3 -5,4.9 -0.4,0.5 -0.5,1.3 -0.7,2 0.7,0 1.6,0.3 2.1,0 1.4,-0.8 2.7,-1.8 4.5,-3.1 1.6,5.7 3.1,11.1 4.5,16 -3,1.4 -5.2,2.4 -7.4,3.5 -0.3,-0.3 -0.4,-0.4 -0.5,-0.6 -0.6,-1.3 -1.1,-2.7 -1.7,-4 -0.6,0.9 -1.6,1.8 -1.7,2.9 -0.3,2 -1.4,5 2.1,5.1 2.9,0 5.9,-1.1 8.8,-1.7 0,7 0,14.8 -0.1,22.5 0,0.7 -0.9,1.5 -1.6,2.1 -6.7,5 -14.2,5.4 -21.8,3.4 -6.8,-1.8 -11.7,-8.6 -12,-15.7 -0.1,-3.8 -0.2,-7.7 -0.6,-11.5 -0.5,-5 3,-8.3 4.9,-12.3 0.7,-1.4 1.7,-2.8 2.8,-3.9 1.1,-1.1 2.7,-1.8 4,-2.8 -1.3,-5.6 3.8,-8.4 7,-13 -1.1,0.2 -2.6,0 -3.2,0.7 -4.4,5.4 -9.9,9.3 -16.8,12.1 3.6,-6.1 7.2,-12 11,-18.3 4,-0.9 8.5,-1.2 13.2,0.8 2.5,1 5.7,0.4 8.6,0.3 4.4,-0.1 9,-1.2 13,1.9 5.3,4.1 8.8,9.5 10.5,16 1.3,4.7 3.2,9.2 3.7,14 0.7,6.8 0.4,13.8 0.4,20.7 0,0.8 -1.3,1.5 -2,2.3 -0.4,0.5 -1,0.9 -1.3,1.5 -3.1,7.4 -8,13.2 -14.6,17.7 -1.6,1.1 -3.4,1.7 -5.2,2.6 -0.2,-0.8 -0.4,-1 -0.6,-1.2 z m -1.9,-25.6 c -0.8,-1.7 -1.6,-3.5 -2.3,-5.2 -0.9,0.9 -1.9,1.8 -2.9,2.9 -0.2,-0.1 -0.7,-0.3 -1.2,-0.4 -3.9,-0.9 -7.6,2.3 -11.7,0.5 -0.6,-0.3 -2.2,1.8 -3.4,2.8 0.8,0.9 1.6,1.8 2.5,2.5 0.7,0.5 1.8,0.7 2.2,1.3 1.9,2.8 4.3,2.3 6.7,1.1 3.2,-1.7 6.3,-3.5 10.1,-5.5 z m -16.9,-17 c -0.1,-0.4 -0.2,-0.9 -0.3,-1.3 -2.5,0.8 -4.9,1.5 -7.5,2.3 -0.3,-1.5 -0.6,-2.9 -0.9,-4.3 -0.3,0 -0.7,0 -1,0 -1,1.9 -2.1,4 -0.7,6.2 1.5,2.2 5.3,1 10.4,-2.9 z"
       id="path1368"
       inkscape:connector-curvature="0"
       style="fill:#ffffff" />
    <path
       class="st0"
       d="m -1925.2521,-299.66537 c 1.9,-2.2 4,-4.3 5.7,-6.7 3.8,-5.3 8.9,-5.2 14.7,-5.2 13.9,0 27.8,-0.4 41.6,-1.6 4.3,-0.4 8.5,-0.5 12.7,-0.6 2.5,0 4.9,-0.5 7.7,-0.9 0,0 0.1,0.7 0.1,1.3 -0.5,5.6 -1.4,11.3 -1.5,16.9 -0.1,3.6 -1.7,4.7 -4.7,5 -12.1,0.9 -24.1,2.8 -36.3,2 -4.6,-0.3 -9.4,1.6 -14.3,2.5 -1.9,-5 -2.4,-10.7 -7,-15.2 5.7,19.2 11.1,37.8 16.7,56.6 -0.7,0.2 -1.7,0.6 -2.7,0.9 2.3,1 4.5,2 6.7,3 l 0,0 c -4,2.5 -7.8,6.3 -12.2,7.2 -3.7,0.7 -7.4,4.2 -11.9,1.6 -1,-0.6 -3,0.9 -4.5,1 -2.6,0.1 -5.3,-0.2 -7.9,-0.4 -0.8,-3.1 1.6,-3.6 3.3,-4.2 4.1,-1.4 8.3,-2.7 12.5,-3.9 0.9,-0.2 2.1,0.5 2.8,0.6 4.2,-2.9 8.9,1.4 13.3,-0.8 -0.2,-0.9 -0.4,-1.8 -0.6,-3 -4.2,0 -8.1,0.1 -12.1,-0.1 -0.6,0 -1.5,-1.3 -1.8,-2.1 -5,-13.8 -9.9,-27.6 -14.9,-41.4 -0.4,-1.1 -0.9,-2.1 -1.3,-3.2 l 0,0.1 c -1.4,-3.3 -2.8,-6.6 -4.2,-9.9 l 0.1,0.5 z"
       id="path1370"
       inkscape:connector-curvature="0"
       style="fill:#ffffff" />
    <path
       class="st0"
       d="m -1375.2521,-365.46537 c 1.8,-23.1 3.5,-45 5.3,-67.1 -0.6,0.4 -1.1,0.7 -1.6,1 -0.9,-4 -1.7,-7.8 -2.6,-11.7 8.6,0.5 17.4,0.9 26.2,1.4 1.6,8.9 2.9,17.7 5,26.3 1.1,4.7 2.6,9.1 1.3,14.1 -0.3,1.1 2.3,3.3 4,4.4 1.7,1.1 3.8,1.5 5.9,2.2 -1.1,2.6 -2.4,5.2 -3.3,7.9 -2.1,6.5 -3.9,13 -5.9,19.5 -0.3,0.8 -1.5,1.9 -2.3,1.9 -10.4,0.1 -20.8,0.1 -32,0.1 z"
       id="path1372"
       inkscape:connector-curvature="0"
       style="fill:#ffffff" />
    <path
       class="st0"
       d="m -1332.7521,-528.56537 c -4.7,-1.5 -5.6,-4.8 -1.5,-7.5 3.5,-2.3 3.6,-4.9 3.3,-8.1 -0.8,-7.1 2.4,-13.3 4.5,-19.7 0.4,-1.2 2.4,-2.2 3.9,-2.8 1.9,-0.7 4,-0.5 5.9,-1.1 3.4,-1.1 5,0.3 6.2,3.4 5.1,13.1 6.5,26.4 3.2,40.2 -0.7,2.8 -0.6,5.8 -1.5,8.5 -1.2,3.6 -3,6.9 -4.7,10.3 -1,2 -2.4,3.9 -3.7,6 -3.2,-0.4 -7.3,0.2 -9.8,-1.6 -3.2,-2.3 -5.9,-6.1 -7.2,-9.8 -2.2,-5.9 -0.8,-12 1.4,-17.8 z m 5.6,11.1 c 2.4,3.9 7.4,4.9 11.1,2.2 3.5,-2.5 3.7,-4.6 0.8,-8.1 -2.5,6.9 -3.9,7.4 -11.9,5.9 z m 8,-32.1 c -3.4,2.9 -3.1,5.3 -2.1,7.7 0.3,0.8 1,1.4 1.5,2.1 0.7,-0.7 1.9,-1.4 1.9,-2.1 -0.1,-2.3 -0.7,-4.6 -1.3,-7.7 z m 5.9,-6.3 c -2.7,-4.7 -6.6,-5.6 -9.4,-1.9 3.9,-1.8 6.8,-0.5 9.4,1.9 z"
       id="path1374"
       inkscape:connector-curvature="0"
       style="fill:#ffffff" />
    <path
       class="st0"
       d="m -1295.6521,-168.16537 c -3.5,-3.8 -7.1,-7.5 -10.5,-11.4 -2.2,-2.5 -4.4,-5.1 -6.3,-7.9 -0.8,-1.2 -1.5,-2.8 -1.5,-4.3 -0.1,-15.3 0,-30.7 -0.1,-46 -0.1,-8.7 -0.4,-17.4 -1,-26.1 -0.2,-3.3 -1.3,-6.5 -2,-9.9 4.7,0 9.3,0 14.3,0 0.4,7.8 1.1,15.3 1,22.8 -0.3,16.8 -1.1,33.6 -1.7,50.4 -0.1,4.3 -0.4,8.6 -0.1,12.9 0.1,1.9 1,3.9 2,5.7 2.3,4.3 4.8,8.6 7.3,12.8 -0.5,0.4 -0.9,0.7 -1.4,1 z"
       id="path1376"
       inkscape:connector-curvature="0"
       style="fill:#ffffff" />
    <path
       class="st0"
       d="m -1865.9521,-354.66537 c 2.7,11.7 5.4,23.5 8,35.1 -1.7,-0.1 -2.6,-0.1 -3.6,-0.2 0,1.4 0,2.9 0,4.8 -15.5,0 -31.9,0 -48.5,0 2.3,-2 4.7,-3.8 6.9,-6 2.4,-2.5 4.9,-4.3 8.2,-5.7 3.6,-1.5 6.3,-5.2 9.1,-8.2 6.3,-6.6 12.4,-13.3 18.6,-20 0.5,0.2 0.9,0.2 1.3,0.2 z"
       id="path1378"
       inkscape:connector-curvature="0"
       style="fill:#ffffff" />
    <path
       class="st0"
       d="m -1335.4521,-174.86537 c 4.2,-5.2 7.9,-9.6 11.3,-14.2 1.1,-1.5 1.9,-3.7 1.8,-5.5 -0.1,-4.5 -0.7,-9 -1.1,-13.5 -1.5,-16.6 -2.9,-33.2 -4.4,-49.8 -0.5,-5.3 -1.2,-10.6 -1.8,-16.1 3.2,0 6.2,-0.2 9.1,0.1 0.8,0.1 1.9,2 2,3 0.6,17.4 1.1,34.8 1.5,52.2 0.2,9.1 0.2,18.1 0.1,27.2 0,1.4 -0.7,3 -1.6,4.1 -3.8,5 -7.4,10.5 -14.2,12.1 -0.4,0.2 -1,0.2 -2.7,0.4 z"
       id="path1380"
       inkscape:connector-curvature="0"
       style="fill:#ffffff" />
    <path
       class="st0"
       d="m -1881.1521,-367.96537 c -3.5,5.8 -6.4,10.7 -9.2,15.6 -1.1,1.9 -2.3,3.1 -4.7,2.4 -7.5,-2.3 -15,-4.4 -22.5,-6.7 -1.5,-0.5 -3,-1.2 -4.4,-1.8 1.9,-5.4 1.9,-5.4 -3.2,-7.2 -1.7,-0.6 -3.5,-1 -5.4,-1.4 -6.6,-1.4 -6.6,-1.4 -6.4,-8.5 19,-1.7 36.6,7.1 55.8,7.6 z"
       id="path1382"
       inkscape:connector-curvature="0"
       style="fill:#ffffff" />
    <path
       class="st0"
       d="m -1952.2521,-357.16537 c -2.3,4.1 -4.6,8 -6.5,12 -0.9,1.9 -3.1,4.3 0.1,6.3 3,1.9 6.1,1.1 8,-1.6 2.6,-3.9 6.5,-5.6 10.6,-4.3 -1.9,1.5 -3.5,2.8 -5.2,4.1 0.1,0.1 0.1,0.2 0.2,0.4 1.4,-0.6 2.7,-1.3 4.4,-2.1 -0.2,1 -0.2,2.2 -0.4,2.2 -4.9,0.9 -6.7,5.5 -10.1,8.1 -2,1.5 -3.7,3.5 -5.8,4.9 -2.1,1.4 -4.6,2.3 -6.9,0.1 -0.1,-0.1 -0.3,-0.4 -0.4,-0.4 -10,2.8 -19.5,-1.2 -29.2,-2.2 -0.3,0 -0.6,-0.1 -1.4,-0.3 2.1,-1.5 3.9,-2.9 5.7,-4.2 10.8,-7.8 21.5,-15.6 32.3,-23.5 1.8,-1.4 3.3,-1.7 4.6,0.5 z"
       id="path1384"
       inkscape:connector-curvature="0"
       style="fill:#ffffff" />
    <path
       class="st0"
       d="m -1641.1521,-466.26537 c 1.5,1.3 3.1,2.8 3.9,3.6 0,2.8 -0.3,4.7 0,6.6 1.5,8.9 1.6,17.5 -4.4,25 -0.5,0.6 -1.8,1 -2.7,1 -3.9,0 -7.9,-0.1 -11.8,-0.1 -2.2,0 -3.2,-0.2 -3.7,-3.1 -1.7,-11.1 -3.9,-22 -5.9,-33 -0.2,-0.9 -0.1,-1.8 0.2,-2.9 1.7,3.4 3.3,6.8 5.1,10.1 0.8,1.5 1.6,3.1 2.8,4.4 2.7,3.1 6.6,3.1 9.2,-0.2 2.6,-3.6 4.7,-7.3 7.3,-11.4 z"
       id="path1386"
       inkscape:connector-curvature="0"
       style="fill:#ffffff" />
    <path
       class="st0"
       d="m -1250.2521,-374.96537 c -4.3,5.1 -8.3,9.9 -12.3,14.6 -0.5,0.5 -1.7,0.7 -2.5,0.6 -4.8,-0.6 -9.7,-1.2 -14.4,-2.3 -1.2,-0.3 -2.7,-1.9 -3,-3.1 -1.8,-9.1 -4.6,-17.9 -8.3,-26.4 -1.2,-2.7 0.4,-6.4 -4.4,-6.5 -0.5,0 -1,-1.4 -1.6,-2.2 4.6,-1.9 9.1,-3.8 14.3,-5.9 -0.5,1.6 -0.7,2.5 -1.2,3.3 -4.4,8.2 -1,13.6 4.6,17.1 3,1.8 5.9,3.7 8.8,5.7 5.8,3.9 12.4,5.2 20,5.1 z"
       id="path1388"
       inkscape:connector-curvature="0"
       style="fill:#ffffff" />
    <path
       class="st0"
       d="m -1295.6521,-416.86537 c -7.6,1.4 -15.5,2.9 -24.3,4.6 0.5,-9.1 1,-18.1 1.5,-26.8 8.2,-0.6 15.8,-1.1 22.8,-1.6 0,7.9 0,15.6 0,23.8 z"
       id="path1390"
       inkscape:connector-curvature="0"
       style="fill:#ffffff" />
    <path
       class="st0"
       d="m -1643.6521,-507.06537 c -1.1,2 -2.1,3.9 -3.3,6.1 -11,-8.3 -15.4,-18.6 -13.8,-31.6 1.2,-10.6 6,-19.6 11.5,-28.4 1,-1.6 2,-3.1 3.2,-4.9 1.1,2.8 2.1,3.5 3.7,0.4 0.7,-1.4 2.4,-2.3 4.2,-2.8 -1.9,2.8 -3.3,7 -5.9,8 -4.9,1.9 -2,6.3 -4.3,9 -2.5,3 -3.9,7.1 -4.8,10.9 -0.9,3.8 -1.2,7.9 -0.6,11.7 1.2,7.4 3.9,14.3 8.4,20.4 0.4,0.6 1.2,0.9 1.9,1.4 l -0.2,-0.2 z"
       id="path1392"
       inkscape:connector-curvature="0"
       style="fill:#ffffff" />
    <path
       class="st0"
       d="m -1570.5521,-454.46537 c -0.4,-2.2 -0.9,-4.3 -1.1,-6.4 -1.2,-11.2 -2.2,-22.4 -3.6,-33.5 -0.8,-6.5 -2.3,-12.9 -3.4,-19.3 -0.1,-0.8 0.1,-1.9 0.7,-2.4 1.3,-1.3 2.8,-2.3 5.3,-4.2 1,5.4 2.2,9.9 2.5,14.5 0.6,9.8 0.5,19.7 1,29.5 0.3,5.5 1.3,11 2,16.5 0.4,3.4 0.4,3.4 -3.4,5.3 z"
       id="path1394"
       inkscape:connector-curvature="0"
       style="fill:#ffffff" />
    <path
       class="st0"
       d="m -1702.8521,-419.06537 c -3.1,-15.5 -6.1,-30.9 -9,-45.7 6.7,12.8 13.7,26.3 20.8,39.8 -1.1,-0.1 -2.7,-0.6 -4,-0.2 -1.1,0.3 -2,1.7 -3.3,2.9 -2,-0.6 -3.5,0.4 -3.5,3.7 -0.4,-0.1 -0.7,-0.3 -1,-0.5 z"
       id="path1396"
       inkscape:connector-curvature="0"
       style="fill:#ffffff" />
    <path
       class="st0"
       d="m -1393.7521,-360.46537 c -0.3,7.1 -1,14.1 -1,21.2 0,7 -0.9,14.1 1.6,20.9 0.3,0.9 -0.5,2.1 -0.8,3.2 -1.2,4.7 -2.5,9.3 -3.4,14 -0.5,2.6 0,5.1 3.1,6.3 0.3,0.1 0.4,0.7 0.1,1.6 -1.2,-0.9 -2.3,-1.8 -3.5,-2.7 -1.1,0.4 -2.2,0.9 -3.3,1.4 0,-7.9 -0.5,-15.4 0.1,-22.8 0.8,-9.6 2.6,-19.2 3.9,-28.7 0.7,-4.8 1.5,-9.5 2.2,-14.3 0.4,-0.1 0.7,-0.1 1,-0.1 z"
       id="path1398"
       inkscape:connector-curvature="0"
       style="fill:#ffffff" />
    <path
       class="st0"
       d="m -1761.4521,-497.06537 c 0.5,0.6 1,1.2 1.7,2.2 -1.8,0.2 -3.4,0.4 -5.4,0.6 0.5,0.9 0.8,1.6 1.3,2.4 -1.4,0.1 -2.9,0.3 -4.4,0.4 0,0.4 0,0.8 0,1.1 3.7,2 7.9,-1.6 12,0.5 -2.4,3.4 -6.3,1.9 -9.3,2.7 0.7,5.4 1.4,10.7 2.1,16 -5.4,1.6 -5.5,1.4 -7.8,-4.1 -1.2,-2.9 -3.1,-5.6 -4.7,-8.4 -0.7,-1.2 -1.6,-2.3 -1.9,-3.6 -0.7,-2.9 -0.5,-4.9 3.2,-6.4 4,-1.5 7.8,-2.9 12.1,-2.5 0.3,0.1 0.8,-0.6 1.1,-0.9 l 0,0 z"
       id="path1400"
       inkscape:connector-curvature="0"
       style="fill:#ffffff" />
    <path
       class="st0"
       d="m -1665.6521,-277.56537 c 2.6,-0.5 4.9,-1 6.4,-1.4 4.1,2.9 8,5.4 11.7,8.2 4.2,3.3 8.3,6.8 12.1,10.7 -7.4,0 -14.7,0.9 -20.1,-5.8 -1.1,-1.4 -4.2,-1.1 -6.2,-1.9 -1,-0.4 -2.2,-1.3 -2.4,-2.1 -0.7,-2.4 -1,-5.1 -1.5,-7.7 z"
       id="path1402"
       inkscape:connector-curvature="0"
       style="fill:#ffffff" />
    <path
       class="st0"
       d="m -1958.6521,-340.86537 c 2.6,-4.9 5.2,-9.7 7.9,-14.5 0.2,-0.4 0.9,-0.8 1.4,-0.8 6.6,0.8 13.1,1.6 19.9,2.4 -2.1,2.8 -3.9,5.2 -5.8,7.7 -1.3,-0.3 -3,-0.8 -4.7,-1.1 -4.7,-0.8 -9.8,1.4 -12,5.4 -1.6,3.2 -3.6,2.9 -6.7,0.9 z"
       id="path1404"
       inkscape:connector-curvature="0"
       style="fill:#ffffff" />
    <path
       class="st0"
       d="m -1627.4521,-503.06537 c 4.5,-3.9 3.4,-8.7 3,-13 4.9,-0.9 9.8,-1.8 14.7,-2.8 -1,3 -2.3,6.5 -3.3,10.2 -1,3.3 -0.3,4.1 3,3.9 2.2,-0.1 4.5,-0.6 6.4,-0.9 -4.8,5.2 -15.3,6.1 -23.8,2.6 z"
       id="path1406"
       inkscape:connector-curvature="0"
       style="fill:#ffffff" />
    <path
       class="st0"
       d="m -1643.5521,-506.96537 c -2,-6.4 -4,-12.7 -5.9,-19.2 -2,-6.9 -0.9,-13.6 2.4,-20.1 -0.1,11.3 0.7,22.2 12.9,28.3 -3.3,3.8 -6.5,7.4 -9.6,10.9 0.1,0 0.2,0.1 0.2,0.1 z"
       id="path1408"
       inkscape:connector-curvature="0"
       style="fill:#ffffff" />
    <path
       class="st0"
       d="m -1889.4521,-275.86537 c 1.5,4.7 3,8.9 4.2,13.1 1.1,4 2.3,8 2.7,12.1 0.1,1.2 -1.9,2.7 -3.1,3.8 -0.2,0.2 -1.9,-0.7 -2.2,-1.3 -3.3,-9.6 -6.5,-19.3 -9.6,-29 -0.1,-0.2 0.1,-0.4 0.1,-0.5 2.9,0.7 5.8,1.3 7.9,1.8 z"
       id="path1410"
       inkscape:connector-curvature="0"
       style="fill:#ffffff" />
    <path
       class="st0"
       d="m -1392.2521,-310.16537 c 0.5,-1.9 1.2,-4.6 1.9,-7.3 3.8,0 7.3,0 10.9,0 1.9,7.2 3.6,14.5 2.6,21.2 -2.8,0.9 -4.9,1.7 -6.8,2.3 1.8,-4.8 0.6,-9.9 -2,-14.4 -0.7,-1.3 -4,-1.2 -6.6,-1.8 z"
       id="path1412"
       inkscape:connector-curvature="0"
       style="fill:#ffffff" />
    <path
       class="st0"
       d="m -1761.3521,-497.16537 c -2.8,-2.5 -6,-0.7 -8.9,-0.4 -2.1,0.2 -2.9,-0.4 -3.6,-2.1 -0.7,-1.8 -1.7,-3.5 -2.6,-5.3 -2.3,-4.5 -0.3,-8 4.9,-8.3 2.1,-0.1 4.1,0 6.6,0 1.1,5.1 2.3,10.6 3.6,16.1 -0.1,0.1 0,0 0,0 z"
       id="path1414"
       inkscape:connector-curvature="0"
       style="fill:#ffffff" />
    <path
       class="st0"
       d="m -1953.1521,-359.76537 c 2.9,-1.8 4.9,-3 6.8,-4.3 3.6,-2.5 6.8,-4.9 11.6,-1.6 2.4,1.6 6,1.5 9,2.2 2.3,0.5 2.5,1.9 1.1,3.5 -1.2,1.4 -2.6,2.6 -4.1,3.7 -0.6,0.4 -2,0.7 -2.5,0.3 -4,-3.1 -8.8,-2.6 -13.3,-3 -2.6,-0.3 -5.1,-0.5 -8.6,-0.8 z"
       id="path1416"
       inkscape:connector-curvature="0"
       style="fill:#ffffff" />
    <path
       class="st0"
       d="m -1947.4521,-287.26537 c 8.1,-7.9 16.1,-15.7 24.2,-23.3 3.7,-3.5 7.6,-6.9 11.5,-10.1 3,-2.5 5.4,-5.1 5.1,-9.8 2.3,0.9 4.2,1.6 6.7,2.6 -2.5,2.1 -4.6,3.9 -6.8,5.7 -3.7,2.9 -7.6,5.5 -11.1,8.7 -3.3,3 -6,6.6 -9,9.9 -4.8,5.3 -9.7,10.6 -14.4,16.1 -1.7,1.9 -3.2,2.6 -6.2,0.2 z"
       id="path1418"
       inkscape:connector-curvature="0"
       style="fill:#ffffff" />
    <path
       class="st0"
       d="m -1929.0521,-378.46537 c -0.3,-2.7 -0.6,-5.7 -0.9,-9.4 9.8,6.7 19.8,9.4 30.9,8.9 -3.8,1.5 -6.3,5.7 -11.7,3.9 -5.7,-1.8 -11.8,-2.2 -18.3,-3.4 z"
       id="path1420"
       inkscape:connector-curvature="0"
       style="fill:#ffffff" />
    <path
       class="st0"
       d="m -1672.5521,-480.16537 c 0.5,0.7 1.2,1.4 1.3,2.2 2,12.6 4,25.1 6,37.7 0.3,2.2 0.5,4.5 0.8,7 -3.9,-0.3 -5.4,-1.7 -5.3,-4.9 0.1,-3.1 0,-6.3 -0.3,-9.4 -0.9,-8.8 -2,-17.5 -3.1,-26.3 -0.2,-1.8 -0.4,-3.7 -0.6,-5.5 0.4,-0.3 0.8,-0.5 1.2,-0.8 z"
       id="path1422"
       inkscape:connector-curvature="0"
       style="fill:#ffffff" />
    <path
       class="st0"
       d="m -1673.6521,-437.36537 c -5,-1.8 -6.9,-5.6 -6.4,-10.6 0.4,-4.4 1.3,-8.7 1.9,-13.1 0.3,-0.1 -0.3,0.1 -0.8,0.2 -0.1,-0.3 -0.2,-0.5 -0.2,-0.8 1.1,-0.2 2.2,-0.7 3.2,-0.5 0.5,0.1 1,1.4 1,2.3 0.5,7.5 0.9,15 1.3,22.5 z"
       id="path1424"
       inkscape:connector-curvature="0"
       style="fill:#ffffff" />
    <path
       class="st0"
       d="m -1315.4521,-477.36537 c 0.8,-1.5 1.9,-2.5 1.9,-3.6 -0.1,-3.6 -0.6,-7.2 -1,-10.8 1.5,0.3 3.6,0.7 6,1.1 0,2.4 0.2,4.8 0,7.2 -0.4,3.4 0.7,5.5 4.4,5.8 0.8,0.1 1.5,0.5 2.3,0.8 -3.5,3.5 -9.9,3 -13.6,-0.5 z"
       id="path1426"
       inkscape:connector-curvature="0"
       style="fill:#ffffff" />
    <path
       class="st0"
       d="m -1631.1521,-500.76537 c 7,3.6 13.9,4 20.8,3.2 -7.1,9.9 -15.4,8.9 -20.8,-3.2 z"
       id="path1428"
       inkscape:connector-curvature="0"
       style="fill:#ffffff" />
    <path
       class="st0"
       d="m -1298.5521,-396.16537 c -6.3,5.1 -13.6,2.4 -20.3,3.5 -1.8,0.3 -3.7,0.6 -5.5,0.7 -1.8,0.1 -3.8,0.3 -4.2,-1.6 8.5,-1.6 17,-3 25.3,-5 3,-0.7 4.2,-0.3 4.7,2.4 z"
       id="path1430"
       inkscape:connector-curvature="0"
       style="fill:#ffffff" />
    <path
       class="st0"
       d="m -1426.9521,-447.36537 c -3.3,-6.3 -6.3,-11.7 -9.4,-17.6 5.2,3 10,5.7 15,8.6 -1.6,2.5 -3.3,5.3 -5.6,9 z"
       id="path1432"
       inkscape:connector-curvature="0"
       style="fill:#ffffff" />
    <path
       class="st0"
       d="m -1578.1521,-487.46537 c 1.4,11.8 2.7,23.5 4.1,35.3 -1.1,0.6 -2.1,1.1 -3.5,1.9 -0.6,-12.6 -1.1,-24.9 -1.7,-37.1 0.3,0 0.7,-0.1 1.1,-0.1 z"
       id="path1434"
       inkscape:connector-curvature="0"
       style="fill:#ffffff" />
    <path
       class="st0"
       d="m -1676.5521,-498.16537 c 1.1,0.8 2.1,1.7 3.3,2.5 1.9,1.1 3,2.7 1.9,4.7 -1.3,2.5 -2.6,1.2 -4.3,-0.1 -2.1,-1.5 -5,-1.9 -7.2,-3.3 -1.1,-0.7 -2.4,-3.4 -1.9,-4 1.3,-1.8 3.5,-2.6 5.8,-1.2 0.8,0.5 1.8,0.9 2.6,1.4 -0.1,0.1 -0.2,0 -0.2,0 z"
       id="path1436"
       inkscape:connector-curvature="0"
       style="fill:#ffffff" />
    <path
       class="st0"
       d="m -1630.0521,-506.56537 c -3.3,-0.4 -5.5,-0.6 -8.3,-0.9 2.5,-3.2 4.5,-6 6.7,-8.5 0.5,-0.5 1.8,-0.7 2.6,-0.5 0.7,0.2 1.3,1.1 1.5,1.9 0.9,3.5 -0.5,6.7 -2.5,8 z"
       id="path1438"
       inkscape:connector-curvature="0"
       style="fill:#ffffff" />
    <path
       class="st0"
       d="m -1592.1521,-469.06537 c 1.7,5.9 4.3,25.1 2.1,26.8 -1.2,-9 -5.8,-17.5 -2.1,-26.8 z"
       id="path1440"
       inkscape:connector-curvature="0"
       style="fill:#ffffff" />
    <path
       class="st0"
       d="m -1669.0521,-289.26537 c 2.3,-0.1 4,-0.2 5.8,-0.4 1,2.3 2.1,4.8 3.6,8.3 -1.4,0.4 -3.1,1.2 -4.8,1.1 -1,-0.1 -2,-1.8 -2.6,-2.9 -0.8,-1.8 -1.2,-3.7 -2,-6.1 z"
       id="path1442"
       inkscape:connector-curvature="0"
       style="fill:#ffffff" />
    <path
       class="st0"
       d="m -1763.1521,-477.36537 c 0.2,-3 0.4,-5.5 0.6,-8.1 4.8,-1.5 5.6,-0.8 8.1,7.4 -2.9,0.2 -5.8,0.5 -8.7,0.7 z"
       id="path1444"
       inkscape:connector-curvature="0"
       style="fill:#ffffff" />
    <path
       class="st0"
       d="m -1439.2521,-170.26537 c 1.3,-0.6 2.7,-1.1 4.3,-1.8 -0.4,-1.2 -0.8,-2.3 -1.3,-3.5 3,-1.1 6.9,1.4 10.5,7.1 -4.7,-0.4 -9,-0.7 -13.4,-1 0,-0.2 0,-0.5 -0.1,-0.8 z"
       id="path1446"
       inkscape:connector-curvature="0"
       style="fill:#ffffff" />
    <path
       class="st0"
       d="m -1683.5521,-490.06537 c 1.7,0.1 3.4,0.1 5.1,0.4 2,0.4 4.1,0.9 6,1.8 1.1,0.5 2,1.7 2.9,2.6 0.1,0.1 -0.5,1.3 -0.8,1.3 -1.4,0 -2.9,-0.1 -4.3,-0.3 -1.3,-0.2 -2.7,-0.5 -3.9,-1.1 -1.8,-0.8 -3.5,-1.8 -5.2,-2.8 0,-0.7 0.1,-1.3 0.2,-1.9 z"
       id="path1448"
       inkscape:connector-curvature="0"
       style="fill:#ffffff" />
    <path
       class="st0"
       d="m -1698.6521,-411.46537 c -0.4,-2.5 -0.9,-4.9 -1.1,-7.4 0,-0.3 1.2,-0.8 1.8,-1.1 0.8,2 1.9,3.9 2.4,5.9 0.2,0.8 -1.2,1.9 -1.8,2.8 -0.4,-0.1 -0.8,-0.2 -1.3,-0.2 z"
       id="path1450"
       inkscape:connector-curvature="0"
       style="fill:#ffffff" />
    <path
       class="st0"
       d="m -1676.9521,-515.86537 c 1.1,3.3 2,6 3.1,8.9 -4.1,-1.2 -5.5,-5 -3.1,-8.9 z"
       id="path1452"
       inkscape:connector-curvature="0"
       style="fill:#ffffff" />
    <path
       class="st0"
       d="m -1693.7521,-414.96537 c -0.5,-2.3 -1.1,-4.4 -1.4,-6.7 -0.1,-0.4 1.1,-1.5 1.4,-1.4 1.2,0.5 1.9,6.6 1,7.7 -0.1,0.2 -0.4,0.2 -1,0.4 z"
       id="path1454"
       inkscape:connector-curvature="0"
       style="fill:#ffffff" />
    <path
       class="st0"
       d="m -1382.9521,-285.66537 c -2.5,-1.7 -4.7,-3.3 -7,-4.9 0.3,-0.4 0.6,-0.8 0.9,-1.2 1.7,2.3 6.8,0.5 6.1,6.1 z"
       id="path1456"
       inkscape:connector-curvature="0"
       style="fill:#ffffff" />
    <path
       class="st0"
       d="m -1885.9521,-241.46537 c 1.5,-1.6 3,-3.2 5.2,-5.5 0.3,1.8 0.7,3.2 0.5,3.3 -1.8,0.9 -3.7,1.5 -5.7,2.2 0,0 0,0 0,0 z"
       id="path1458"
       inkscape:connector-curvature="0"
       style="fill:#ffffff" />
    <path
       class="st0"
       d="m -1320.5521,-439.96537 c -0.5,4.2 -1,8.3 -1.5,12.5 -0.1,0 -0.2,0 -0.3,0 0.2,-4.2 0.4,-8.4 0.6,-12.6 0.4,0 0.8,0.1 1.2,0.1 z"
       id="path1460"
       inkscape:connector-curvature="0"
       style="fill:#ffffff" />
    <path
       class="st0"
       d="m -1436.7521,-174.46537 c -2,2.3 -5.6,1.5 -8.3,2.4 2.5,-1.2 5,-2.5 7.5,-3.7 0.2,0.4 0.5,0.9 0.8,1.3 z"
       id="path1462"
       inkscape:connector-curvature="0"
       style="fill:#ffffff" />
    <path
       class="st0"
       d="m -1455.4521,-300.76537 c 0,3.5 0,6.9 0,10.4 -0.3,0 -0.7,0 -1,0 0.2,-3.5 0.4,-7 0.6,-10.5 0.1,0 0.2,0 0.4,0.1 z"
       id="path1464"
       inkscape:connector-curvature="0"
       style="fill:#ffffff" />
    <path
       class="st0"
       d="m -1372.6521,-629.56537 c 2.5,1.8 4.4,-0.1 6,-1 3.5,-2 6.6,-4.8 10.1,-6.8 3.2,-1.8 6.6,-3.3 10.1,-4.2 1.9,-0.5 4.2,0.2 6.2,0.7 10.9,3 20.7,15.8 20.4,26.9 -0.3,10.9 -6.1,18.2 -16,22.2 -1.9,0.8 -2.5,1.4 -2.3,3.4 0.2,2 0.1,4.1 0.1,6.2 -0.5,0 -0.8,0 -0.9,-0.1 -2.2,-2.7 -2.9,-6 -8.7,-4.4 -8.2,2.3 -16.4,-1.8 -23.5,-6.1 -6.1,-3.7 -7.7,-10.7 -8.7,-17.5 -0.9,-7.6 2.5,-13.6 7.2,-19.3 z"
       id="path1466"
       inkscape:connector-curvature="0"
       style="fill:#ffffff" />
    <path
       d="m -2065.8521,-233.96537 c 59.7,2.5 119.2,8.2 179.4,15.3 -1.4,0.6 -2,1.2 -2.6,1.2 -7.1,0 -14.2,0.4 -21.2,-0.2 -18.8,-1.6 -37.7,-3.5 -56.5,-5.3 -11.5,-1.1 -23,-2.5 -34.6,-3.6 -9.3,-0.9 -18.7,-1.2 -28.1,-2.1 -12.2,-1.2 -24.4,-2.7 -36.6,-4 0.1,-0.5 0.1,-0.9 0.2,-1.3 z"
       id="path1468"
       inkscape:connector-curvature="0" />
    <path
       d="m -1925.3521,-299.76537 c 1.4,3.3 2.8,6.6 4.2,9.9 -3.4,-2.5 -4.7,-5.8 -4.2,-9.9 z"
       id="path1470"
       inkscape:connector-curvature="0" />
    <path
       d="m -1375.5521,-273.96537 c 2.8,0.5 5.7,1.1 8.5,1.3 2.8,0.3 3.7,1.7 3.2,4.3 -1.5,7.6 -2.9,15.2 -4.1,22.8 -0.5,2.8 -0.4,5.8 -0.7,8.6 -0.3,2.6 -1,4.8 -4.3,5.6 -2.2,0.5 -3.6,3.9 -7,1.3 0.7,-5 1.5,-10.2 2.3,-15.5 0.7,-5.1 1.5,-10.2 2.8,-15.3 0.1,1.1 0.2,2.2 0.2,3.3 0.3,0 0.7,-0.1 1,-0.1 -0.7,-5.4 -1.4,-10.9 -2.1,-16.3 0,0.2 0.2,0 0.2,0 z m -2.8,38.7 c 0.2,0.5 0.5,1 0.7,1.4 1.4,-0.5 2.7,-1.1 4.1,-1.6 -0.5,-0.8 -0.9,-1.6 -1.4,-2.5 -1.1,0.9 -2.2,1.8 -3.4,2.7 z"
       id="path1472"
       inkscape:connector-curvature="0" />
    <path
       d="m -1442.4521,-319.46537 c 7.7,0.4 15.2,0.8 22.7,1.2 0.2,0.3 0.3,0.5 0.5,0.8 -1.1,0.6 -2.1,1.5 -3.2,1.6 -13.1,1.4 -18.2,0.4 -20,-3.6 z"
       id="path1474"
       inkscape:connector-curvature="0" />
    <path
       d="m -1972.8521,-359.66537 c 9.7,-5.3 19.6,-10.4 28.3,-18.4 -2.1,5.2 -5.9,8 -10,10.6 -9.9,6.3 -19.7,12.6 -29.5,18.8 -5.1,3.2 -10.1,6.5 -16,9.4 0.4,-0.7 0.5,-1.7 1.1,-2.2 3.2,-2.5 6.5,-4.9 9.7,-7.3 0.6,-0.5 1.5,-0.9 1.8,-1.5 6.1,-12 12.4,-24 18.2,-36.2 3.7,-7.7 6.6,-15.8 9.7,-23.8 0.8,-2 0.9,-4.2 1.3,-6.4 0.5,0.1 1.1,0.1 1.6,0.2 -0.3,2.4 -0.2,5 -1,7.3 -5.6,16 -13,31.2 -21.6,45.8 -2.3,3.9 -4.5,7.9 -6.4,12.2 4.2,-2.8 8.6,-5.7 12.8,-8.5 l 0,0 z"
       id="path1476"
       inkscape:connector-curvature="0" />
    <path
       d="m -1972.7521,-359.66537 c 0.4,-2.9 0.3,-6.1 1.4,-8.7 3.9,-9.1 8.5,-18 12.5,-27.1 2.5,-5.8 4.3,-11.9 6.5,-18 -0.5,3.2 -0.3,6.5 -1.4,9.4 -4,10.5 -8.4,20.8 -12.8,31.2 -1.9,4.4 -4.2,8.8 -6.2,13.2 -0.1,0 0,0 0,0 z"
       id="path1478"
       inkscape:connector-curvature="0" />
    <path
       d="m -1599.7521,-469.16537 c -5.2,2.6 -10.4,5.5 -16.6,2.4 -1.2,-0.6 -2.1,-2 -2.8,-3.6 4.8,1.8 9.2,2.6 13.8,-0.1 1.4,-0.8 3.6,-0.1 5.5,-0.1 0,0.4 0.1,0.9 0.1,1.4 z"
       id="path1480"
       inkscape:connector-curvature="0" />
    <path
       d="m -1610.5521,-534.86537 c -3.8,2 -6.9,3.9 -10.2,5.5 -2.4,1.2 -4.8,1.7 -6.7,-1.1 -0.4,-0.6 -1.6,-0.8 -2.2,-1.3 -0.9,-0.8 -1.7,-1.7 -2.5,-2.5 1.2,-1 2.8,-3.1 3.4,-2.8 4.1,1.9 7.8,-1.4 11.7,-0.5 0.6,0.1 1.1,0.4 1.2,0.4 1.1,-1 2,-1.9 2.9,-2.9 0.8,1.7 1.6,3.4 2.4,5.2 z"
       id="path1482"
       inkscape:connector-curvature="0" />
    <path
       d="m -1627.4521,-551.86537 c -5,3.9 -8.9,5.1 -10.3,2.9 -1.4,-2.2 -0.3,-4.3 0.7,-6.2 0.3,0 0.7,0 1,0 0.3,1.4 0.5,2.7 0.9,4.3 2.6,-0.8 5,-1.6 7.5,-2.3 0,0.4 0.1,0.9 0.2,1.3 z"
       id="path1484"
       inkscape:connector-curvature="0" />
    <path
       d="m -1327.1521,-517.46537 c 8,1.5 9.4,1 11.9,-5.9 2.9,3.5 2.7,5.6 -0.8,8.1 -3.7,2.7 -8.7,1.7 -11.1,-2.2 z"
       id="path1486"
       inkscape:connector-curvature="0" />
    <path
       d="m -1319.1521,-549.56537 c 0.5,3.1 1.1,5.4 1.2,7.8 0,0.7 -1.2,1.4 -1.9,2.1 -0.5,-0.7 -1.2,-1.3 -1.5,-2.1 -0.9,-2.5 -1.1,-4.9 2.2,-7.8 z"
       id="path1488"
       inkscape:connector-curvature="0" />
    <path
       d="m -1313.2521,-555.86537 c -2.7,-2.4 -5.5,-3.7 -9.4,-1.9 2.9,-3.7 6.8,-2.8 9.4,1.9 z"
       id="path1490"
       inkscape:connector-curvature="0" />
    <path
       class="st0"
       d="m -1378.3521,-235.26537 c 1.2,-0.9 2.3,-1.8 3.5,-2.7 0.5,0.8 0.9,1.6 1.4,2.5 -1.4,0.5 -2.7,1.1 -4.1,1.6 -0.3,-0.5 -0.5,-0.9 -0.8,-1.4 z"
       id="path1492"
       inkscape:connector-curvature="0"
       style="fill:#ffffff" />
  </g>
</svg>
