<?xml version="1.0" encoding="UTF-8" standalone="no"?>
<!-- Created with Inkscape (http://www.inkscape.org/) -->

<svg
   xmlns:dc="http://purl.org/dc/elements/1.1/"
   xmlns:cc="http://creativecommons.org/ns#"
   xmlns:rdf="http://www.w3.org/1999/02/22-rdf-syntax-ns#"
   xmlns:svg="http://www.w3.org/2000/svg"
   xmlns="http://www.w3.org/2000/svg"
   xmlns:sodipodi="http://sodipodi.sourceforge.net/DTD/sodipodi-0.dtd"
   xmlns:inkscape="http://www.inkscape.org/namespaces/inkscape"
   width="250.08356mm"
   height="185.84053mm"
   viewBox="0 0 886.12284 658.49007"
   id="svg3395"
   version="1.1"
   inkscape:version="0.91 r13725"
   sodipodi:docname="learning.svg">
  <defs
     id="defs3397" />
  <sodipodi:namedview
     id="base"
     pagecolor="#ffffff"
     bordercolor="#666666"
     borderopacity="1.0"
     inkscape:pageopacity="0.0"
     inkscape:pageshadow="2"
     inkscape:zoom="0.35"
     inkscape:cx="966.63283"
     inkscape:cy="46.387892"
     inkscape:document-units="px"
     inkscape:current-layer="layer1"
     showgrid="false"
     fit-margin-top="0"
     fit-margin-left="0"
     fit-margin-right="0"
     fit-margin-bottom="0"
     inkscape:window-width="1920"
     inkscape:window-height="1056"
     inkscape:window-x="0"
     inkscape:window-y="24"
     inkscape:window-maximized="1" />
  <metadata
     id="metadata3400">
    <rdf:RDF>
      <cc:Work
         rdf:about="">
        <dc:format>image/svg+xml</dc:format>
        <dc:type
           rdf:resource="http://purl.org/dc/dcmitype/StillImage" />
        <dc:title></dc:title>
      </cc:Work>
    </rdf:RDF>
  </metadata>
  <g
     inkscape:label="Layer 1"
     inkscape:groupmode="layer"
     id="layer1"
     transform="translate(591.63283,79.739971)">
    <g
       transform="translate(-648.72198,-103.99608)"
       id="Layer_1" />
    <g
       transform="translate(-648.72198,-103.99608)"
       id="Layer_2" />
    <path
       d="m -298.72198,254.70392 c -0.3,-3.5 -0.6,-6.3 -0.9,-9.2 -0.7,-7.9 2.2,-13.2 9.4,-16.6 2.3,-1.1 4.7,-1.9 7.3,-2.9 0,-1.5 0,-3 0,-4.5 0,-19.8 0,-39.6 0.1,-59.4 0,-3.1 0.6,-6.3 1.4,-9.3 2.2,-8.3 4.8,-16.6 7.1,-24.9 2,-7.5 6.7,-12.5 13.6,-15.9 16.7,-8.1 34.3,-13.400001 52.6,-15.800001 24,-3.2 48.2,-5.5 72.4,-6.6 10.4,-0.5 20.8,-0.3 31.2,-0.4 13.299995,0 26.699995,-0.2 39.999995,0.3 10.1,0.4 20.2,1.6 30.3,2.9 14.1,1.8 28.1,4.2 41.8,8.400001 13.7,4.2 26.6,9.9 38.7,17.6 6.1,3.9 11.8,8.4 16.8,13.7 5.5,5.7 7.4,12.7 6.7,20.3 -0.8,8.4 -7.9,15.1 -16.4,15.9 -2.8,0.3 -3.9,-0.6 -4.2,-3.5 -0.2,-2.5 -1.2,-4.4 -3.5,-5.4 -4.8,-2.2 -9.9,-2.5 -15.9,-2.7 0.8,1.2 1.1,2.1 1.7,2.5 2.9,2 5.9,3.9 8.9,5.8 2.2,1.3 4.4,2.6 6.7,3.7 4.9,2.4 6.2,10.6 0,14 -1.9,1 -4,1.5 -6.2,2.4 2.3,1.2 4.5,2.4 6.8,3.6 -0.1,0.2 -0.1,0.4 -0.2,0.6 -0.8,0 -1.7,-0.1 -2.5,0 -5.4,0.6 -10.8,1.2 -16.2,1.9 -1.5,0.2 -2.5,1.1 -3,2.6 -2.3,6.2 -7.3,8.5 -13.3,9.1 -4,0.4 -8.1,0.3 -12.19999999,0.4 -2.60000001,0.1 -5.30000001,0 -8.40000001,0 -1.4,12.5 -2.7,24.9 -4.2,37.9 3.1,-1.1 5.7,-2 8.2,-2.8 4.60000001,-1.5 9.3,-2.6 14.2,-1.2 2,0.6 4.1,1.4 5.9,2.5 6,3.6 7.7,8 6,14.8 -0.2,0.7 -0.4,1.5 -0.6,2.4 1.3,0 2.4,0 3.5,0 19.7,-0.2 39.4,-0.7 59,-0.4 11.8,0.2 23.400005,2.9 34.800005,6.2 16.9,5 33.7,10.4 50.5,15.7 11.4,3.6 21.5,9.6 31.5,15.9 1.7,1.1 2.3,2.6 2.7,4.3 2.7,10.7 5.3,21.4 8.2,32.1 5.6,20.7 12.2,41.1 20.1,61.1 4.2,10.5 9.6,20.5 15.6,30.1 5.3,8.6 9.9,17.5 13.8,26.7 4.1,9.7 8,19.5 11.8,29.3 1.3,3.4 2.1,7 3.1,10.6 0.3,1.1 0.3,2.4 0.4,3.6 -2.1,0.3 -3,-0.7 -3.8,-2 -3.2,-5.3 -7.1,-10.4 -9.5,-16 -9.1,-20.9 -20.1,-40.8 -30.8,-60.8 -5.4,-10 -10,-20.2 -13.4,-31 -5.1,-16.1 -10.5,-32.1 -15.8,-48.1 -3.1,-9.6 -4.8,-19.5 -6.4,-29.4 -0.5,-3.3 -0.1,-6.8 -0.1,-10.7 -0.9,-0.3 -2.2,-0.8 -3.5,-1.3 -19.7,-6.8 -40,-11.3 -60.3,-16.1 -9,-2.1 -18,-4.2 -27.1,-6.2 -11.100005,-2.4 -22.300005,-3.7 -33.600005,-4 -18.2,-0.5 -36.4,-0.8 -54.4,1.2 -17.69999999,1.9 -35.3,4.4 -52.8,7.1 -21.6,3.3 -42.7,9.2 -63.7,15.1 -6.299995,1.8 -12.499995,4.2 -18.699995,6.4 -2.9,1 -5.8,1.9 -8.9,1.7 -1.1,-0.1 -2.3,0.2 -3.3,0.6 -2.6,1.1 -3.8,3.3 -2.5,5.9 2.3,4.4 1.6,8.5 0.3,12.9 -9.3,30.1 -15.5,61 -22.1,91.8 -2.5,11.5 -4.9,23.1 -7.2,34.7 -0.5,2.6 -0.8,5.2 -1.2,8.2 1,-0.4 1.6,-0.5 2.1,-0.9 10.5,-7.1 22.4,-11.3 34.1,-16 20.6,-8.3 42.099995,-13 64.099995,-16.1 34.7,-4.9 69.6,-5.6 104.5,-3.9 13.8,0.7 27.7,1.3 41.4,2.5 59.400005,5.4 114.700005,23.2 165.000005,55.7 5.6,3.6 10.8,8 16.2,12.1 1,0.8 1.8,2 2.8,3.2 -2.1,1.2 -3.5,0.4 -4.9,-0.3 -5.5,-2.7 -10.9,-5.5 -16.4,-8.2 -25.6,-12.7 -51.6,-24.4 -78.6,-33.8 -23.1,-8.1 -46.8,-13.4 -71.000005,-16.6 -35.8,-4.7 -71.8,-6.6 -107.9,-5.8 -32.3,0.7 -64.4,4.3 -95.599995,12.9 -10.3,2.8 -20.2,6.6 -30.3,10.1 -7.9,2.7 -14.8,7.3 -21.9,11.5 -1.9,1.1 -3.7,2.2 -6,1.4 -0.7,-3.6 -0.7,-3.6 1.5,-6.8 -2.2,-5.1 -1.3,-10.6 -0.8,-16 1.1,-11.9 3.8,-23.5 6.5,-35.2 5.4,-23.5 10.8,-47 16.4,-70.4 1.4,-5.8 3.5,-11.4 5.3,-17.1 1.2,-3.7 1.3,-7.4 0.9,-11.5 -6.2,-2.2 -12.4,-4.6 -18.6,-6.7 -20.7,-7 -41.1,-14.7 -62.4,-19.8 -13.2,-3.2 -26.6,-5.2 -39.9,-8.2 -17.3,-3.9 -34.8,-3.5 -52.3,-2.8 -9.3,0.4 -18.5,0.6 -27.8,1.3 -10.8,0.8 -21.4,2.4 -31.9,5.3 -9.3,2.6 -17.8,6.7 -25.1,13.1 -1.1,1 -2.6,1.8 -4,2 -2,0.3 -3.1,1.5 -4,3.1 -1.6,2.7 -3.4,5.4 -5.1,8.1 -4.3,7 -9,13.8 -14.3,20.1 -4.4,5.3 -8.2,11.3 -11.4,17.5 -8.6,16.6 -18.7,32.3 -28.2,48.4 -12.1,20.4 -23.5,41.2 -35.2,61.9 -4.2,7.4 -8.1,14.9 -12.5,22.3 -3.2,5.5 -6.7,10.8 -10.4,16 -3.4,4.8 -4.6,4.8 -9.3,0.5 -5.4,10 -10.8,19.9 -16.3,29.8 -1.6,-1.9 -0.9,-3.6 0,-5.4 7.7,-14.1 15.4,-28.3 23.1,-42.4 11,-20 21.1,-40.6 29.9,-61.6 8,-19.1 17.6,-37.4 27.5,-55.6 2.3,-4.1 4.4,-8.3 6.6,-12.5 0.5,-1 0.9,-2 1.5,-3.4 -3.4,-0.5 -6.5,-1 -9.7,-1.4 -2.1,-0.2 -4,0.6 -5.4,2.3 -0.7,0.9 -1.3,1.9 -1.8,2.9 -6.4,11.7 -13,23.3 -19.2,35.1 -6.2,11.9 -11.9,24.1 -17.9,36.2 -1.7,3.4 -3.6,6.7 -5.4,10.1 -3.3,6.4 -6.8,12.8 -9.8,19.4 -3.8,8.2 -7.7,16.3 -12.3,24.1 -2.1,3.6 -3.7,7.5 -5.4,11.3 -8.5,18.7 -14.6,38.4 -22,57.6 -3.5,9 -7.3,17.9 -10.9,26.8 -0.3,0.7 -0.5,1.4 -0.9,2.5 1.7,0 2.8,-0.9 3.9,-1.5 15,-8.3 30.3,-16 46.2,-22.4 21.8,-8.8 44.4,-15.2 67.3,-20.6 20.2,-4.8 40.5,-9.6 60.7,-14.4 1.2,-0.3 2.4,-0.7 3.5,-1.3 -15.2,1.1 -30.1,3.9 -45,7.3 -14.7,3.3 -29.3,6.9 -44.5,10.4 0.7,-2.4 2.3,-2.3 3.4,-2.6 8.7,-2.4 17.4,-4.8 26.1,-7 24.4,-6.1 49.1,-10.4 74.2,-13.2 15.1,-1.7 30.2,-3.9 45.2,-6.4 22.4,-3.7 44.9,-5.5 67.5,-3.9 10.5,0.7 20.9,2.6 31.3,4 2.3,0.3 4.5,0.9 6.8,1 11.4,0.6 21.2,5.7 31,10.9 4.3,2.2 8,5.3 10.2,9.9 0.7,1.5 2.8,2.7 4.5,3.2 13.7,4.3 27.4,5 40.9,-1 1.6,-0.7 3.3,-1.3 4.9,-2 0.8,-0.3 1.7,-0.7 2,0.7 0.1,0.3 1.3,0.4 2,0.3 2.3,-0.4 4.5,-0.9 6.7,-1.3 1.7,-0.3 3.2,-0.6 3.6,-2.7 0.2,-0.7 1,-1.5 1.8,-1.9 2.2,-1.2 4.6,-1.9 6.4,-3.9 0.6,-0.7 2.4,-0.5 3.6,-0.5 1.8,0 3.4,-0.3 5,-1.5 8.999995,-7.1 19.399995,-10.9 30.599995,-12.9 17.9,-3.3 35.7,-6.7 53.6,-9.5 9.6,-1.5 19.4,-2.2 29.2,-2.7 16,-0.8 32,-1.6 48,-0.3 12,1 24,2.2 35.9,4 13.800005,2.1 27.600005,4.2 41.200005,7.5 14.8,3.6 29.3,8.4 43.8,13 19.6,6.2 39.2,12.4 58.6,19.1 11,3.8 21.8,8.4 32.7,12.6 3.3,1.3 6.6,2.4 10.3,3 -0.7,-1 -1.3,-2.1 -2,-3.1 -5,-6.7 -10,-13.5 -14.9,-20.2 -1.4,-1.9 -3.1,-3.3 -5.3,-4.2 -4.4,-2 -8.8,-4 -13.1,-6 -3.8,-1.8 -7.8,-2.8 -12,-3.4 -2.8,-0.4 -5.6,-1.6 -8.2,-2.8 -38.6,-18 -77.7,-34.6 -119.4,-43.9 -16.700005,-3.7 -33.600005,-6.6 -50.700005,-8.2 -7.1,-0.7 -14.1,-2.1 -21.1,-3 -23.6,-3 -47.1,-2.5 -70.4,2.7 -21.2,4.8 -42,11 -62.299995,18.7 -8.3,3.2 -15.9,7.3 -22,13.9 -1.1,1.2 -2.3,1.9 -4.1,1.3 -0.9,-2 0.3,-3.4 1.4,-4.8 4.6,-6 10.7,-10.1 17.7,-12.8 9.799995,-3.8 19.699995,-7.5 29.599995,-10.9 19.9,-6.8 40.2,-12 61,-14.6 12.7,-1.6 25.6,-1.9 38.4,-0.6 20.8,2.1 41.6,4.6 62.4,7.3 12.8,1.7 25.500005,4.2 38.000005,8 8.4,2.5 17,4.3 25.4,6.7 13.3,3.8 26.2,8.9 38.8,14.6 14.4,6.6 28.9,13 43.4,19.5 4.2,1.9 8.2,3.9 12.4,5.7 3.2,1.4 6.6,2.4 10.4,3.8 0,-2 0,-3.4 0,-5.5 2,0.6 3.5,0.9 5,1.5 3.5,1.6 6.4,4.1 8.8,7.2 6.9,9 13.8,17.9 20.5,27 1.7,2.3 2.8,5.1 4.2,7.7 1.3,2.4 2.6,4.9 4.1,7.3 1.4,2.3 1.7,4.5 0.3,6.8 -1.4,2.3 -3.6,3.2 -6.2,2.9 -1.7,-0.2 -3.4,-0.9 -5.1,-1.6 -15.7,-6.2 -31.4,-12.4 -47,-18.7 -13.9,-5.7 -28.2,-10 -43,-12.4 -23.1,-3.7 -45.7,-9.7 -68.1,-16.1 -14.3,-4 -28.700005,-7.7 -43.500005,-9.1 -6.4,-0.6 -12.9,-1.2 -19.4,-1.1 -26.2,0.1 -52.3,0.4 -78.5,0.9 -6.6,0.1 -13.1,1.5 -19.7,2.2 -6.9,0.8 -13.9,1.6 -20.8,2.1 -11.8,0.9 -23,3.9 -33.7,8.8 -3.2,1.5 -5.8,3.5 -7.5,6.7 -1.799995,3.6 -4.699995,6.2 -7.899995,8.6 -7.8,5.8 -16.5,9.4 -26.1,11 -4.3,0.7 -8.5,1.4 -12.7,2.2 -5.8,1.1 -11.6,0.8 -17.4,0 -6.3,-0.8 -12.6,-1.9 -18.8,-2.8 -9.8,-1.4 -16.8,-6.6 -21.7,-15 -0.3,-0.4 -0.6,-0.9 -0.7,-1.3 -1,-3 -3.2,-3.8 -6.2,-3.9 -5.7,-0.1 -11.4,-0.5 -17.1,-0.9 -12.7,-0.9 -25.3,-2 -38,-2.8 -15.9,-1 -31.7,-0.2 -47.5,1.5 -18,2 -36.1,4 -54.1,6.4 -42.3,5.8 -84.3,12.9 -125.1,26 -14.6,4.7 -29.6,8.4 -44,13.5 -10.5,3.7 -20.6,8.7 -30.7,13.2 -2.1,0.9 -3.9,2.4 -5.8,3.7 -1.8,1.2 -3.5,2.5 -5.4,3.6 -4,2.3 -5.6,1.5 -6.2,-3.1 -0.2,-0.2 -0.5,-0.4 -0.9,-0.6 -6.1,-2.9 -7.8,-6.7 -5.3,-12.9 2.4,-6 5.1,-11.9 7.6,-17.9 3.2,-7.5 6.6,-14.9 9.5,-22.4 3.5,-9.1 6.4,-18.5 10,-27.5 6,-15.1 11.7,-30.3 18.6,-45 5.3,-11.3 12.3,-21.9 18.5,-32.8 2.6,-4.5 5.2,-9 7.4,-13.7 7.3,-15.5 15.3,-30.7 24.2,-45.3 4,-6.6 7.1,-13.8 10.7,-20.6 1.5,-2.8 2.9,-5.7 4.8,-8.2 3.4,-4.7 8.2,-7.3 14.1,-6.7 5.7,0.5 9.5,-1.7 12.1,-6.7 2.4,-4.5 6.4,-6.6 11.4,-7.1 5,-0.5 10,-1.3 15.1,-2 2.5,-0.3 4.5,-1.7 6.1,-3.6 1.8,-2.2 3.5,-4.3 5.2,-6.6 3.3,-4.5 6.8,-8.9 11.2,-12.4 0.7,-0.6 1.4,-1.2 1.8,-1.9 1.2,-2.1 3,-2.8 5.1,-2.2 1.8,0.5 2.9,-0.5 4.1,-1.4 6.4,-4.4 12.8,-8.6 20.1,-11.5 10,-4 20.4,-6.1 31.1,-6.9 13,-1 26.1,-1.7 39.2,-2.5 0.7,-0.9 2.1,-1.1 3.9,-1.3 z m 340.499995,-78.4 c 0.1,-0.3 0.2,-0.7 0.2,-1 -1.3,-0.9 -2.6,-1.8 -4,-2.7 -3.9,-2.8 -8,-5.5 -11.8,-8.4 -3,-2.3 -3.7,-5 -2.6,-8 1.4,-3.7 4.5,-5 8.1,-5.3 8.1,-0.7 14.9,2.6 21.3,6.9 1.8,1.2 2.2,3 1.5,5 -0.2,0.7 -0.5,1.4 -0.9,2.3 1,0 1.7,0.2 2.4,0.1 4.8,-1 10.2,-7.3 9.2,-13.2 -1.2,-6.9 -4.9,-12.1 -10.2,-16.4 -11.9,-9.7 -25.1,-17.2 -39.4,-22.8 -27.2,-10.7 -55.6,-14.800001 -84.6,-15.700001 -29.3,-0.9 -58.699995,-0.4 -87.999995,1.3 -21.3,1.2 -42.5,3.700001 -63.5,7.000001 -10.5,1.7 -20.9,4.1 -30.8,8.3 -1.2,0.5 -2.4,1.2 -3.9,1.9 3.7,3.9 2.4,7.5 0.6,11.2 -2,4.1 -4.3,8.2 -5.6,12.5 -3.8,12.8 -6.7,25.8 -7.3,39.2 -0.6,12.8 -1,25.6 -1.4,38.4 -0.1,1.5 -0.2,3.1 0,4.6 0.4,4.2 2.2,7.4 6.5,9 0.2,-0.6 0.4,-0.9 0.3,-1.3 -0.5,-14.7 2.3,-29.1 3.8,-43.6 0.3,-2.5 1.1,-4.7 3.5,-5.8 2.7,0.9 4.1,2.6 4.3,5.3 0.2,2.5 0.6,5.1 0.5,7.6 -0.5,8 -1.3,15.9 -2,23.9 -0.5,5.4 -0.9,10.8 -1.4,16.6 8.2,0.9 13.2,6.2 18,12.8 0.4,-1.5 0.6,-2.2 0.7,-2.8 0.5,-3 0.9,-6 1.4,-9 0.2,-1.4 0.9,-2 2.2,-1.5 0.1,0.4 0.3,0.7 0.3,0.9 -0.5,8.2 -1,16.4 -1.4,24.7 -0.1,3 0.5,3.6 3.6,4.4 2.3,0.6 4.8,0.9 7.1,1.5 13.2,3.8 26.3,7.6 39.5,11.5 1.4,0.4 2.9,0.8 4.4,1.2 0.4,-2.9 0.6,-5.4 1,-7.9 0.7,-4.4 1.2,-8.8 2.2,-13.1 0.6,-2.8 2.5,-4.3 4.7,-4.2 2.2,0.1 4,1.7 4.7,4.3 0.3,1 0.4,2 0.3,3 -0.2,2.3 -0.6,4.5 -0.9,6.8 -0.6,4.9 -1.3,9.8 -1.9,14.7 10.5,5.5 20.7,10.9 30.9,16.3 1.7,0.9 3.1,0.5 4.6,-0.4 3.4,-2.1 7,-4.2 10.4,-6.3 0.8,-0.5 1.6,-1.1 2.4,-1.7 -2.4,-3.7 -3.4,-7.6 -3.4,-11.8 0,-4 0,-8.1 0,-12.4 -4.8,-0.4 -9.1,-0.9 -13.6,-1.3 -1.9,8.9 -2.3,17.7 -4.4,26.9 -2.8,-4.6 -2.9,-8.7 -2.5,-12.9 1,-10.7 1.9,-21.5 2.9,-32.2 0.1,-0.7 0.3,-1.5 0.5,-2.2 0.2,0 0.4,0 0.6,0 1,5.2 1.9,10.4 2.9,15.9 3.7,-0.2 7,-0.4 10.4,-0.7 4.1,-0.4 4.1,-0.4 4.9,-4.3 0.8,-4 1.5,-8 2.2,-12 0.4,-2.3 1.1,-3.1 2.7,-2.9 2,0.3 2.4,1.7 2.3,3.3 0,1 -0.1,2 -0.2,3 -1.1,8.2 -2.3,16.3 -3.2,24.5 -0.7,6 -0.8,12.1 -0.3,18.5 4.7,-1.7 9.1,-3.2 13.3,-4.7 -0.1,-1.6 -0.4,-2.7 -0.3,-3.8 0.5,-5.3 1,-10.6 1.6,-15.9 0.3,-2.8 0.8,-5.5 1,-8.3 0.1,-1.5 1,-2.3 2.299995,-2.7 1.6,-0.5 2.8,0.2 3.7,1.4 0.6,0.9 0.9,2.1 1.1,3.2 0.2,1.5 0.1,3 0.1,4.6 0,5.7 0,11.4 0,17.8 19.8,-5 39.2,-9.9 58.7,-14.9 0,-3.8 -0.1,-7.2 0,-10.6 0.1,-2.9 0.2,-5.8 -2.7,-8 1.4,-1.6 2.7,-3 4,-4.4 -0.1,-0.2 -0.3,-0.4 -0.4,-0.7 -3,1.8 -6.1,2.4 -9.5,1.9 -11.7,-1.6 -23.4,-3.5 -35.1,-4.6 -8.4,-0.8 -17,-0.7 -25.499995,-0.9 -2.2,0 -4.3,0.7 -6.6,1 0.4,-4.3 1.7,-6.2 5.6,-6.7 6.899995,-0.8 13.899995,-1.5 20.799995,-1.6 12.7,-0.2 25,2.5 37.1,5.9 4.9,1.4 10.4,0.4 14.6,4.1 0.1,0.1 0.5,0.1 0.7,0 3.9,-0.7 7.9,-1.4 11.9,-2.2 1.6,-12.4 3,-24.3 4.6,-36.5 -10.5,-2.6 -20.6,-5.1 -31.2,-7.7 0,1.8 0.1,3.2 0,4.6 -0.3,3.5 -2.3,5.6 -5.8,6 -1.6,0.2 -3.3,0.1 -4.9,0.1 -2.5,-0.1 -5,-0.3 -7.7,-0.4 -0.1,1.2 -0.2,2.2 -0.2,3.2 -0.2,4.2 -1.6,6 -5.7,6.8 -2.4,0.5 -4.8,0.8 -7.2,0.7 -15,-0.2 -29.999995,-0.9 -44.799995,-3.2 -14.3,-2.2 -28.5,-4.7 -42.7,-7.4 -19.3,-3.7 -38.4,-8.6 -56.7,-15.9 -0.6,-0.2 -1.2,-0.3 -1.8,-0.5 -2.4,4.5 -4.7,8.8 -7,13 -5.8,-1.8 -5.3,-3.9 -4.6,-7.5 0.3,-1.6 0.9,-3.2 1.5,-4.7 0.6,-1.5 1.4,-2.9 2.1,-4.4 -3.9,-3.1 -7.6,-6 -11.4,-8.8 -5.1,-3.8 -8.2,-8.9 -10.8,-14.5 -0.6,-1.4 -0.8,-2.6 0.9,-4 0.9,1.2 1.9,2.3 2.8,3.4 1.9,2.4 3.6,4.9 5.8,7 4.3,4.1 9.6,6.6 14.8,9.2 1.6,0.8 3,0.4 4.2,-0.7 1.8,-1.6 3.5,-3.3 5.2,-5 8.7,-8.7 19.4,-12.7 31.6,-12.9 14.3,-0.3 26.5,5 37.4,13.8 0.8,0.7 1.4,1.6 2.8,3.1 -1.9,-0.3 -2.9,-0.4 -3.9,-0.6 -10.7,-2.8 -21.5,-4.9 -32.5,-6.1 -13.5,-1.5 -23.7,4.4 -33.1,14.2 23.2,7 46.2,12.8 69.6,16.8 23.5,4 47.1,6.6 71.799995,6.1 -2.6,-3.1 -5,-5.1 -7.6,-6.9 -4.8,-3.3 -9.7,-6.5 -14.599995,-9.7 -0.8,-0.6 -1.7,-1.1 -2.5,-1.8 -2.2,-2 -1.9,-4.6 0.8,-5.9 1.3,-0.6 2.999995,-0.9 4.299995,-0.5 5.2,1.3 10,3.6 14.1,7.2 6.4,5.6 14.1,7.7 22.4,8.3 1.1,0.1 2.2,-0.2 3.6,-0.3 -1.2,-2.5 -2.8,-3.9 -4.8,-5.1 -3.3,-1.9 -6.6,-3.8 -9.9,-5.8 -2.1,-1.3 -2.6,-2.9 -1.9,-4.8 0.8,-2 2.5,-2.9 5,-2.2 2.4,0.7 4.7,1.8 7.1,2.7 1.9,0.8 3.9,1.5 5.8,2.3 0,-1 -0.2,-1.5 -0.6,-1.9 -3.2,-2.9 -6.4,-5.8 -9.7,-8.6 -7,-5.9 -15,-9 -24.2,-8.2 -3.3,0.3 -6.5,1.2 -9.699995,1.8 -2.2,0.4 -4.5,0.9 -6.7,0.9 -1,0 -2.7,-0.9 -2.9,-1.7 -0.3,-1.1 0.3,-2.6 0.9,-3.8 0.3,-0.6 1.2,-0.9 1.8,-1.3 4.8,-3.6 10.399995,-4.4 16.199995,-4.8 11.7,-0.7 22,2.8 31,10.3 3.2,2.6 5.7,5.8 7.5,9.5 1.2,2.5 1.3,4.9 -0.5,7.1 -0.3,0.4 -0.6,0.9 -1,1.5 0.8,0.3 1.3,0.6 1.8,0.7 10,2.4 20,4.6 30,7.1 3.3,0.8 6.4,1.4 9.3,-1 0.1,-0.1 0.5,0.1 1.1,0.1 0.9,1 1.2,3.3 3.4,3.2 7.1,-0.1 14.2,0 21.3,-0.3 2.3,-0.1 3.9,-1.6 4.6,-4.2 -1.3,-0.4 -2.5,-0.8 -3.7,-1.2 -4,-1.2 -8,-2.5 -12,-3.7 -3.6,-1.1 -5.3,-3.8 -6,-7.2 -0.2,-0.9 0.4,-2.4 1.2,-2.8 1.2,-0.7 2.90000001,-1.2 4.3,-1.1 2.2,0.2 4.5,0.8 6.6,1.6 5.1,2 10,4.2 15.2,6.4 2.5,-3.6 6.2,-4.3 10,-4.6 2.9,0.4 5.8,0.3 8.7,0.1 z m -471.599995,142.7 c -4,0 -7.1,-0.2 -10,0.1 -1.1,0.1 -2.5,0.9 -3.1,1.8 -3.9,5.3 -8.1,10.5 -11.3,16.2 -6,10.7 -11.8,21.6 -17,32.7 -8.9,19.2 -17.3,38.7 -25.9,58 -0.2,0.5 -0.3,1.1 -0.5,1.7 0.2,0.1 0.4,0.2 0.6,0.3 22.3,-36.6 44.5,-73.3 67.2,-110.8 z m 194.4,-58.6 c 0,-3 0.1,-5.5 -0.1,-8 -0.1,-0.8 -0.8,-1.9 -1.5,-2.4 -3.9,-2.9 -7.8,-5.7 -11.8,-8.4 -2.6,-1.7 -5.4,-2.7 -8.5,-3 -2,-0.2 -4,-0.5 -6,-0.9 -2.2,-0.4 -4.2,-0.6 -5.7,1.7 -1.2,1.8 -3.2,2.4 -5.4,2.3 -1.1,0 -2.3,0 -3.4,0 -3.3,0 -5,1.1 -5.8,4.3 -0.7,2.6 -0.9,5.4 -1.3,8.4 16.8,2.1 32.9,4.1 49.5,6 z m 203.499995,4.2 c 3.4,-0.6 6.1,-1 8.8,-1.5 8.6,-1.4 17.3,-2.7 25.9,-4.1 2.6,-0.4 5.3,-0.9 7.3,-2.9 1.8,-1.8 3.9,-3.6 3.4,-6.4 -0.5,-2.8 -3.2,-3.5 -5.5,-4.1 -9.8,-2.4 -18.5,-0.7 -25.6,7.3 -3.8,-2.1 -3.6,-6 -3.9,-9.7 -4.7,1.4 -8.1,3.7 -8.6,9 -0.1,3.9 -1,7.8 -1.8,12.4 z m -107.899995,254.8 c -12.3,0 -24.5,0 -36.8,0 12.3,2.5 24.5,5.9 36.8,0 z"
       id="path1543"
       inkscape:connector-curvature="0" />
    <path
       d="m -128.62198,51.603919 c -2.7,4.3 -3.6,4.5 -7.5,2 -2.2,-1.4 -4.3,-3.2 -6.7,-4.4 -4,-2.1 -8.1,-4.3 -12.3,-5.8 -11.2,-3.8 -19.9,-10.5 -26.1,-20.5 -6.2,-10.199999 -10.2,-21.0999993 -9.2,-33.199999 1.1,-13.5 4.8,-26.2 12.4,-37.5 3.8,-5.7 8.2,-11 12.5,-16.3 1.4,-1.7 3.2,-3.3 5.2,-4.4 7.2,-4 14.6,-7.7 22.7,-9.7 3.5,-0.9 7.3,-1.4 10.9,-1.5 16.2,-0.4 31.899995,1.9 46.899995,8.3 11.7,5 22.1,12 31,21 6.5,6.6 11.5,14.2 14.7,22.9 3.4,9.3 3.5,18.6999997 -0.1,27.89999971 -2.5,6.39999999 -5.2,12.70000029 -7.9,19.00000029 -1.7,4.099999 -4.2,7.499999 -7.6,10.399999 -6.3,5.4 -12.5,10.8 -18.9,16 -4.5,3.6 -9.9,5.2 -15.6,5.4 -9.5,0.3 -18.999995,0.4 -28.599995,0.5 -5.1,0 -10.4,-0.1 -15.8,-0.1 z m -9.6,-119.199999 c -2,2.9 -5.1,2.6 -7.7,2.7 -6.5,0.1 -11.3,3.2 -14.6,8.3 -4.6,7 -8.8,14.2 -12.7,21.6 -3,5.8 -4.4,12.2 -4.8,18.7 -0.6,9.7999997 2.6,18.4999997 8.2,26.4 3.9,5.5 8.7,10.199999 13.9,14.599999 4.2,3.5 8.3,7.1 12.5,10.6 0.7,0.6 1.2,1.4 1.8,2.1 -0.2,0.2 -0.3,0.4 -0.5,0.6 -2.6,-1.5 -5.2,-2.9 -7.7,-4.6 -2.6,-1.8 -5.2,-3.6 -7.7,-5.6 -2.3,-1.9 -4.6,-4 -6.7,-6.2 -2.2,-2.299999 -4.2,-4.799999 -6,-7.299999 -1.8,-2.4 -3.3,-4.9000003 -4.9,-7.4000003 -0.2,0.1 -0.5,0.2 -0.7,0.3 0.2,0.7 0.2,1.4 0.5,2 4.2,7.5000003 9.2,14.3999993 16.1,19.4999993 5.9,4.4 12.1,8.4 18.1,12.7 3,2.1 6.3,3 10,2.9 10,-0.3 20.1,-0.3 30.1,-0.8 8.699995,-0.4 17.399995,-1.4 26.199995,-2 2.1,-0.2 3.9,-1 5.4,-2.4 6.3,-5.5 12.7,-11 18.9,-16.6 1.3,-1.1 2.4,-2.699999 3.1,-4.199999 2.8,-6.2 5.5,-12.5000003 8.2,-18.80000029 4.1,-9.59999971 4,-19.19999971 0,-28.79999971 -3.5,-8.5 -8.7,-15.7 -15.5,-21.9 -7.9,-7.3 -17,-12.8 -26.9,-17.1 -13.4,-5.8 -27.499995,-7.9 -41.899995,-8.2 -6.9,-0.1 -13.7,0.8 -20.2,3.1 -0.7,0.3 -1.4,0.7 -2.4,1.3 2.7,1.5 6.4,0.9 7.9,4.5 z"
       id="path1545"
       inkscape:connector-curvature="0" />
    <path
       d="m -513.72198,489.20392 c 0.5,-3 2.1,-5.5 4,-7.6 3.8,-4.1 7.5,-8.3 11.9,-11.7 5.8,-4.5 11.9,-8.7 18.3,-12.3 32.2,-18.2 66.8,-30.2 103.2,-36.5 6.4,-1.1 12.8,-1.7 19.3,-2 13.2,-0.6 26.4,-2.1 39.6,-1.1 11,0.8 22,1.9 33,3 19.4,1.9 38.5,5.1 57,11.3 18.8,6.3 37.3,13.3 55.9,20 1.4,0.5 2.7,1.3 4.1,2 0.2,0.1 0.2,0.4 0.5,0.9 -0.7,0.2 -1.3,0.6 -1.9,0.6 -4.2,0.2 -8.3,-0.2 -12.4,-1.2 -15.1,-3.8 -30.1,-8 -44.8,-13.4 -15.7,-5.8 -32,-9.1 -48.6,-10.9 -16.9,-1.8 -33.9,-3.4 -50.9,-4 -41.6,-1.6 -81.6,6.2 -119.8,22.8 -11.9,5.1 -23.6,10.6 -35.1,16.6 -11,5.7 -20.7,13.3 -29.4,22.1 -1.6,1.5 -1.6,1.5 -3.9,1.4 z"
       id="path1547"
       inkscape:connector-curvature="0" />
    <path
       d="m -535.42198,520.10392 c 1.1,-1 2.3,-2 3.5,-2.9 11.5,-8.5 23.9,-15.5 37.4,-20.2 23.6,-8.3 47.2,-16.3 71.5,-22.4 23.3,-5.9 46.9,-9.9 70.9,-11.6 4.8,-0.4 9.6,-0.2 14.5,-0.3 6.2,-0.1 12.4,-0.4 18.7,-0.3 8.4,0.1 16.8,0.2 25.1,0.7 13.4,0.7 26.9,1.5 40.3,2.7 14.5,1.4 29,3.3 43.5,5.1 4,0.5 8,1.2 12,2.2 4.2,1 8.2,2.4 12.3,4.3 -1.1,-0.1 -2.3,-0.1 -3.4,-0.3 -13.3,-2.9 -26.9,-3.8 -40.4,-5.1 -15,-1.5 -30.1,-2.9 -45.1,-4.2 -7.7,-0.6 -15.4,-1 -23.2,-1.2 -9.8,-0.2 -19.6,0.1 -29.3,-0.1 -34.2,-0.6 -67.5,4.5 -100.4,13.3 -23.7,6.3 -47.1,13.3 -69.9,22.4 -11.1,4.4 -21.8,9.6 -32,15.8 -1.7,1 -3.5,2 -5.2,3 -0.4,-0.3 -0.6,-0.6 -0.8,-0.9 z"
       id="path1549"
       inkscape:connector-curvature="0" />
    <path
       d="m -78.421985,64.403919 c -3.2,2.1 -6.3,4 -10.1,4.2 -12.999995,0.6 -26.099995,1.1 -39.099995,1.5 -2.9,0.1 -5.8,-0.5 -8.6,-1.2 -1.6,-0.4 -3.3,-1.4 -4.6,-2.6 -2.6,-2.3 -2.3,-4.2 1.1,-6.8 0.1,1.2 0.2,2.3 0.4,3.7 3.1,0.3 6.2,1 9.3,0.9 14.8,-0.5 29.6,-1.1 44.499995,-1.7 2.5,-0.1 5,-0.4 7.1,2 z"
       id="path1551"
       inkscape:connector-curvature="0" />
    <path
       d="m -136.42198,75.603919 c 1.8,-0.1 3.3,-0.4 4.7,-0.3 8.3,0.5 16.7,1.2 25,1.7 5.3,0.3 10.299995,-1.2 15.299995,-2.6 1,-0.3 1.9,-1.2 2.8,-1.8 1,-0.7 1.9,-1.5 3.3,-2.5 0.4,1.2 0.9,2 0.9,2.8 0,4.3 -1.9,7.9 -5.9,9.4 -5,1.8 -10.199995,2.7 -15.399995,4 -0.5,0.1 -1,0 -1.5,-0.2 -8.3,-2.2 -16.6,-4.4 -24.9,-6.6 -1.6,-0.7 -3.4,-1.1 -4.3,-3.9 z"
       id="path1553"
       inkscape:connector-curvature="0" />
    <path
       d="m -11.421985,-31.49608 c -0.2,-0.6 -0.4,-1.1 -0.6,-2 3.6,1 7.4,0.8 11,3.5 -1.3,0.9 -2.1,1.9 -3.2,2.3 -3.9,1.4 -7.8,2.8 -11.8,4 -1.9,0.6 -3.8,0.6 -5,-1.7 2.1,-3.6 6.6,-3.7 9.6,-6.1 z"
       id="path1555"
       inkscape:connector-curvature="0" />
    <path
       d="m -189.42198,36.003919 c -1.7,1 -3.5,1.8 -5.1,2.9 -3.4,2.4 -7.3,3.5 -11.2,4.6 -1.8,0.5 -2.9,-0.2 -3.8,-2.1 0.8,-0.7 1.5,-1.6 2.4,-2.1 3,-1.7 6,-3.3 9,-4.9 3.5,-1.8 6.4,-1.1 8.7,1.6 z"
       id="path1557"
       inkscape:connector-curvature="0" />
    <path
       d="m -15.121985,52.503919 c -4.8,-1.1 -9.5,-2.4 -13.7,-4.9 -1.6,-0.9 -2.6,-2.4 -2.1,-4.9 6.5,1.1 11.8,4.2 15.8,9.8 z"
       id="path1559"
       inkscape:connector-curvature="0" />
    <path
       d="m -134.22198,481.30392 c -8.1,4.3 -35.1,2.2 -44.4,-3.7 5.2,1.2 9.8,2.5 14.5,3.2 5,0.7 10.1,0.9 15.1,1 4.9,0.1 9.8,-0.3 14.8,-0.5 z"
       id="path1561"
       inkscape:connector-curvature="0" />
    <path
       d="m -4.521985,28.603919 c -1.5,0 -2.8,0.3 -3.8,-0.1 -4.5,-1.7 -9,-3.1 -14,-2.8 4,-3.1 8.4,-3.5 13,-2.5 2.4,0.6 4.7,1.6 4.8,5.4 z"
       id="path1563"
       inkscape:connector-curvature="0" />
    <path
       d="m -222.22198,12.80392 c 6.1,-0.4 12.2,-0.8 18.3,-1.2 0.6,2.3 -0.3,3.7 -2,3.7 -5.2,-0.1 -10.3,-0.5 -15.5,-0.8 -0.3,0 -0.6,-0.4 -0.9,-0.6 0,-0.4 0.1,-0.7 0.1,-1.1 z"
       id="path1565"
       inkscape:connector-curvature="0" />
    <path
       d="m -223.32198,-49.69608 c 4.2,0.6 7.9,1.9 11.7,3.2 0.5,0.2 1,1.4 1,2.1 0,0.4 -1.2,1.3 -1.6,1.2 -3.8,-1.6 -7.5,-3.3 -11.2,-5.1 -0.1,0 0,-0.4 0.1,-1.4 z"
       id="path1567"
       inkscape:connector-curvature="0" />
    <path
       d="m -43.521985,-65.39608 c 2.6,-4.9 6.6,-6.7 11.2,-5.2 -3.8,1.8 -7.2,3.4 -11.2,5.2 z"
       id="path1569"
       inkscape:connector-curvature="0" />
    <path
       d="m -187.62198,-72.29608 c -3.1,-1.9 -5.9,-4.2 -8.7,-7.1 2.6,0 5.6,2.5 8.7,7.1 z"
       id="path1571"
       inkscape:connector-curvature="0" />
    <path
       class="st0"
       d="m 41.778015,176.30392 c -2.9,0.2 -5.8,0.4 -8.7,0.6 -3.9,0.3 -7.6,1 -10,4.6 -5.2,-2.2 -10.2,-4.4 -15.2,-6.4 -2.1,-0.8 -4.4,-1.4 -6.6,-1.6 -1.39999999,-0.1 -3,0.3 -4.3,1.1 -0.7,0.4 -1.3,2 -1.2,2.8 0.6,3.4 2.4,6.1 6,7.2 4,1.2 8,2.5 12,3.7 1.2,0.4 2.4,0.8 3.7,1.2 -0.6,2.6 -2.3,4.1 -4.6,4.2 -7.1,0.2 -14.2,0.2 -21.3,0.3 -2.3,0 -2.5,-2.2 -3.4,-3.2 -0.6,-0.1 -0.9,-0.2 -1.1,-0.1 -2.9,2.4 -6,1.8 -9.3,1 -10,-2.5 -20,-4.8 -30,-7.1 -0.5,-0.1 -0.9,-0.3 -1.8,-0.7 0.4,-0.6 0.7,-1.1 1,-1.5 1.8,-2.3 1.7,-4.7 0.5,-7.1 -1.8,-3.7 -4.3,-6.9 -7.5,-9.5 -9,-7.5 -19.3,-11 -31,-10.3 -5.8,0.3 -11.399995,1.2 -16.199995,4.8 -0.6,0.5 -1.5,0.7 -1.8,1.3 -0.5,1.2 -1.2,2.7 -0.9,3.8 0.2,0.8 1.9,1.7 2.9,1.7 2.3,0 4.5,-0.5 6.7,-0.9 3.199995,-0.6 6.399995,-1.5 9.699995,-1.8 9.2,-0.8 17.2,2.3 24.2,8.2 3.3,2.8 6.5,5.7 9.7,8.6 0.4,0.4 0.6,0.9 0.6,1.9 -1.9,-0.8 -3.9,-1.6 -5.8,-2.3 -2.4,-0.9 -4.7,-2 -7.1,-2.7 -2.5,-0.8 -4.2,0.1 -5,2.2 -0.8,1.9 -0.3,3.5 1.9,4.8 3.2,2 6.6,3.8 9.9,5.8 2,1.2 3.6,2.6 4.8,5.1 -1.4,0.1 -2.5,0.3 -3.6,0.3 -8.3,-0.5 -16,-2.6 -22.4,-8.3 -4.1,-3.6 -8.9,-5.9 -14.1,-7.2 -1.3,-0.3 -3.099995,-0.1 -4.299995,0.5 -2.7,1.3 -2.9,3.8 -0.8,5.9 0.7,0.7 1.6,1.2 2.5,1.8 4.899995,3.3 9.699995,6.5 14.599995,9.7 2.6,1.8 5,3.8 7.6,6.9 -24.699995,0.5 -48.299995,-2 -71.799995,-6.1 -23.4,-4 -46.3,-9.8 -69.6,-16.8 9.4,-9.8 19.7,-15.7 33.1,-14.2 11,1.2 21.8,3.3 32.5,6.1 0.9,0.2 1.9,0.3 3.9,0.6 -1.3,-1.5 -1.9,-2.5 -2.8,-3.1 -10.9,-8.8 -23.2,-14.1 -37.4,-13.8 -12.2,0.3 -22.8,4.3 -31.6,12.9 -1.7,1.7 -3.5,3.4 -5.2,5 -1.2,1.1 -2.6,1.5 -4.2,0.7 -5.3,-2.6 -10.6,-5.1 -14.8,-9.2 -2.2,-2.1 -3.9,-4.7 -5.8,-7 -0.9,-1.1 -1.8,-2.3 -2.8,-3.4 -1.6,1.3 -1.5,2.5 -0.9,4 2.5,5.6 5.7,10.7 10.8,14.5 3.8,2.8 7.4,5.7 11.4,8.8 -0.7,1.5 -1.5,2.9 -2.1,4.4 -0.6,1.5 -1.2,3.1 -1.5,4.7 -0.7,3.7 -1.2,5.7 4.6,7.5 2.3,-4.2 4.6,-8.5 7,-13 0.6,0.2 1.2,0.2 1.8,0.5 18.3,7.3 37.4,12.2 56.7,15.9 14.2,2.7 28.4,5.2 42.7,7.4 14.8,2.2 29.799995,3 44.799995,3.2 2.4,0 4.8,-0.3 7.2,-0.7 4.1,-0.8 5.5,-2.7 5.7,-6.8 0,-1 0.1,-2 0.2,-3.2 2.7,0.2 5.2,0.3 7.7,0.4 1.6,0.1 3.3,0.1 4.9,-0.1 3.5,-0.4 5.5,-2.4 5.8,-6 0.1,-1.4 0,-2.7 0,-4.6 10.6,2.6 20.7,5.1 31.2,7.7 -1.5,12.2 -3,24.1 -4.6,36.5 -4,0.7 -7.9,1.5 -11.9,2.2 -0.2,0 -0.6,0.1 -0.7,0 -4.2,-3.7 -9.8,-2.7 -14.6,-4.1 -12.1,-3.4 -24.4,-6.1 -37.1,-5.9 -7,0.1 -13.9,0.8 -20.799995,1.6 -3.9,0.4 -5.2,2.3 -5.6,6.7 2.2,-0.4 4.4,-1.1 6.6,-1 8.499995,0.1 16.999995,0 25.499995,0.9 11.7,1.1 23.4,3 35.1,4.6 3.4,0.5 6.5,-0.1 9.5,-1.9 0.1,0.2 0.3,0.4 0.4,0.7 -1.3,1.4 -2.5,2.8 -4,4.4 2.9,2.2 2.8,5 2.7,8 -0.1,3.4 0,6.8 0,10.6 -19.5,4.9 -38.9,9.8 -58.7,14.9 0,-6.4 0,-12.1 0,-17.8 0,-1.5 0.1,-3.1 -0.1,-4.6 -0.1,-1.1 -0.5,-2.3 -1.1,-3.2 -0.8,-1.2 -2.1,-1.9 -3.7,-1.4 -1.299995,0.4 -2.099995,1.2 -2.299995,2.7 -0.3,2.8 -0.8,5.5 -1,8.3 -0.6,5.3 -1.1,10.6 -1.6,15.9 -0.1,1.1 0.1,2.3 0.3,3.8 -4.3,1.5 -8.6,3.1 -13.3,4.7 -0.5,-6.5 -0.3,-12.5 0.3,-18.5 0.9,-8.2 2.1,-16.3 3.2,-24.5 0.1,-1 0.2,-2 0.2,-3 0.1,-1.7 -0.3,-3.1 -2.3,-3.3 -1.6,-0.2 -2.3,0.6 -2.7,2.9 -0.7,4 -1.3,8 -2.2,12 -0.8,3.9 -0.9,3.9 -4.9,4.3 -3.4,0.3 -6.8,0.5 -10.4,0.7 -1,-5.5 -2,-10.7 -2.9,-15.9 -0.2,0 -0.4,0 -0.6,0 -0.2,0.7 -0.5,1.5 -0.5,2.2 -1,10.7 -2,21.5 -2.9,32.2 -0.4,4.2 -0.3,8.3 2.5,12.9 2.1,-9.3 2.5,-18 4.4,-26.9 4.5,0.4 8.8,0.8 13.6,1.3 0,4.3 0,8.4 0,12.4 0,4.2 1,8 3.4,11.8 -0.9,0.6 -1.6,1.2 -2.4,1.7 -3.5,2.1 -7,4.1 -10.4,6.3 -1.5,1 -3,1.3 -4.6,0.4 -10.2,-5.4 -20.4,-10.8 -30.9,-16.3 0.6,-4.9 1.3,-9.8 1.9,-14.7 0.3,-2.3 0.7,-4.5 0.9,-6.8 0.1,-1 0,-2 -0.3,-3 -0.7,-2.6 -2.6,-4.2 -4.7,-4.3 -2.2,-0.1 -4.1,1.3 -4.7,4.2 -0.9,4.3 -1.5,8.7 -2.2,13.1 -0.4,2.5 -0.6,5 -1,7.9 -1.6,-0.4 -3,-0.8 -4.4,-1.2 -13.2,-3.8 -26.3,-7.7 -39.5,-11.5 -2.3,-0.7 -4.7,-1 -7.1,-1.5 -3.1,-0.8 -3.7,-1.4 -3.6,-4.4 0.4,-8.2 0.9,-16.4 1.4,-24.7 0,-0.2 -0.1,-0.5 -0.3,-0.9 -1.3,-0.4 -2,0.2 -2.2,1.5 -0.5,3 -0.9,6 -1.4,9 -0.1,0.7 -0.3,1.4 -0.7,2.8 -4.8,-6.7 -9.8,-12 -18,-12.8 0.5,-5.7 0.9,-11.2 1.4,-16.6 0.7,-8 1.5,-15.9 2,-23.9 0.2,-2.5 -0.3,-5 -0.5,-7.6 -0.2,-2.7 -1.6,-4.4 -4.3,-5.3 -2.4,1.1 -3.2,3.3 -3.5,5.8 -1.5,14.5 -4.3,28.9 -3.8,43.6 0,0.3 -0.2,0.7 -0.3,1.3 -4.3,-1.6 -6.1,-4.8 -6.5,-9 -0.2,-1.5 -0.1,-3 0,-4.6 0.5,-12.8 0.8,-25.6 1.4,-38.4 0.6,-13.4 3.5,-26.4 7.3,-39.2 1.3,-4.3 3.5,-8.4 5.6,-12.5 1.9,-3.7 3.2,-7.3 -0.6,-11.2 1.6,-0.8 2.7,-1.4 3.9,-1.9 9.9,-4.2 20.3,-6.6 30.8,-8.3 21.1,-3.3 42.2,-5.8 63.5,-7.000001 29.3,-1.7 58.699995,-2.2 87.999995,-1.3 28.9,0.9 57.4,5.000001 84.6,15.700001 14.3,5.6 27.5,13.1 39.4,22.8 5.3,4.3 9,9.5 10.2,16.4 1,5.9 -4.4,12.2 -9.2,13.2 -0.7,0.1 -1.5,0 -2.4,-0.1 0.4,-0.9 0.6,-1.6 0.9,-2.3 0.7,-2 0.3,-3.8 -1.5,-5 -6.4,-4.3 -13.2,-7.6 -21.3,-6.9 -3.6,0.3 -6.7,1.6 -8.1,5.3 -1.2,3 -0.5,5.7 2.6,8 3.8,2.9 7.8,5.6 11.8,8.4 1.3,0.9 2.6,1.8 4,2.7 -0.1,-0.4 -0.1,0 -0.2,0.3 z m -172.799995,65.8 c -0.5,-2.8 -1.6,-4.2 -3.4,-5 -3,-1.3 -5.9,-3 -9.1,-3.8 -6.4,-1.5 -12.9,-3.2 -19.4,-3.7 -20.1,-1.4 -40.3,-2.3 -60.5,-3.2 -2.6,-0.1 -5.3,0.3 -7.9,0.7 -0.7,0.1 -1.3,0.8 -2.8,1.8 1.9,0.6 3,1.1 4.2,1.3 1.7,0.3 3.5,0.4 5.3,0.5 13,1.2 26,2.6 39.1,3.4 14.4,1 28.9,1.8 43,5.4 3.6,0.9 7.3,1.7 11.5,2.6 z"
       id="path1573"
       inkscape:connector-curvature="0"
       style="fill:#ffffff" />
    <path
       class="st0"
       d="m -429.82198,319.00392 c -22.7,37.5 -45,74.2 -67.2,110.9 -0.2,-0.1 -0.4,-0.2 -0.6,-0.3 0.2,-0.6 0.2,-1.2 0.5,-1.7 8.6,-19.4 17,-38.8 25.9,-58 5.2,-11.1 11,-22 17,-32.7 3.2,-5.7 7.4,-10.9 11.3,-16.2 0.7,-0.9 2,-1.7 3.1,-1.8 3,-0.4 6,-0.2 10,-0.2 z"
       id="path1575"
       inkscape:connector-curvature="0"
       style="fill:#ffffff" />
    <path
       class="st0"
       d="m -235.42198,260.40392 c -16.6,-2 -32.8,-3.9 -49.5,-5.9 0.4,-3 0.6,-5.8 1.3,-8.4 0.8,-3.3 2.5,-4.3 5.8,-4.3 1.1,0 2.3,0 3.4,0 2.1,0 4.2,-0.6 5.4,-2.3 1.6,-2.3 3.5,-2.1 5.7,-1.7 2,0.4 4,0.7 6,0.9 3.1,0.2 6,1.3 8.5,3 4,2.7 7.9,5.5 11.8,8.4 0.7,0.5 1.4,1.6 1.5,2.4 0.3,2.5 0.1,5 0.1,7.9 z"
       id="path1577"
       inkscape:connector-curvature="0"
       style="fill:#ffffff" />
    <path
       class="st0"
       d="m -31.921985,264.60392 c 0.8,-4.6 1.6,-8.5 2,-12.4 0.5,-5.4 3.8,-7.6 8.6,-9 0.3,3.7 0.1,7.6 3.9,9.7 7.1,-8.1 15.8,-9.8 25.6,-7.3 2.3,0.6 5,1.3 5.5,4.1 0.5,2.8 -1.6,4.7 -3.4,6.4 -2,1.9 -4.7,2.4 -7.3,2.9 -8.6,1.4 -17.3,2.8 -25.9,4.1 -2.9,0.5 -5.6,0.9 -9,1.5 z"
       id="path1579"
       inkscape:connector-curvature="0"
       style="fill:#ffffff" />
    <path
       class="st0"
       d="m -139.82198,519.40392 c -12.3,5.9 -24.5,2.5 -36.8,0 12.3,0 24.5,0 36.8,0 z"
       id="path1581"
       inkscape:connector-curvature="0"
       style="fill:#ffffff" />
    <path
       class="st0"
       d="m -138.22198,-67.59608 c -1.5,-3.6 -5.2,-2.9 -8.1,-4.8 1,-0.6 1.7,-1.1 2.4,-1.3 6.5,-2.3 13.3,-3.2 20.2,-3.1 14.5,0.3 28.599995,2.4 41.899995,8.2 9.9,4.3 18.9,9.8 26.9,17.1 6.7,6.2 11.9,13.4 15.5,21.9 4,9.6 4.2,19.2 0,28.79999971 -2.7,6.29999999 -5.4,12.60000029 -8.2,18.80000029 -0.7,1.6 -1.8,3.099999 -3.1,4.199999 -6.2,5.6 -12.6,11 -18.9,16.6 -1.6,1.4 -3.3,2.2 -5.4,2.4 -8.7,0.7 -17.4,1.6 -26.199995,2 -10,0.5 -20.1,0.5 -30.1,0.8 -3.7,0.1 -7,-0.8 -10,-2.9 -6,-4.2 -12.2,-8.3 -18.1,-12.7 -6.9,-5.2 -11.9,-12.099999 -16.1,-19.4999993 -0.3,-0.6 -0.3,-1.3 -0.5,-2 0.2,-0.1 0.5,-0.2 0.7,-0.3 1.6,2.5 3.1,5.0000003 4.9,7.4000003 1.9,2.5 3.9,5 6,7.299999 2.1,2.2 4.3,4.3 6.7,6.2 2.4,2 5,3.9 7.7,5.6 2.5,1.6 5.1,3.1 7.7,4.6 0.2,-0.2 0.3,-0.4 0.5,-0.6 -0.6,-0.7 -1.1,-1.5 -1.8,-2.1 -4.1,-3.6 -8.3,-7.1 -12.5,-10.6 -5.1,-4.399999 -10,-8.999999 -13.9,-14.5999993 -5.6,-7.9 -8.8,-16.6 -8.2,-26.3999997 0.4,-6.5 1.8,-12.9 4.8,-18.7 3.9,-7.4 8.1,-14.6 12.7,-21.6 3.3,-5.1 8.2,-8.2 14.6,-8.3 2.8,0.2 5.9,0.5 7.9,-2.4 z m 38.299995,52.4 c 0.2,1.4 0.2,2.3 0.4,3.2 0.8,5.0999997 3.6,8.5999997 8.5,10.1999997 1.7,0.6 3.4,0.90000001 5.2,1.30000001 1.5,0.4 3.1,0.6 5.1,1.1 -2.6,3.49999999 -4.8,6.49999999 -7.1,9.50000029 -4.1,5.4 -7.4,11.199999 -8.9,17.899999 -0.3,1.4 -1.4,2.7 -2.4,3.7 -1.399995,1.5 -1.999995,3.2 -1.999995,5.2 0.1,2.4 1.1,4.7 2.399995,4.8 2.1,0.2 3.1,-1.4 4.1,-2.9 2.2,-3.6 4.3,-7.2 6.6,-10.7 8.3,-13.199999 16.7,-26.3999993 25,-39.599999 1.1,-1.7 2.4,-3.3 1.9,-6.1 -1.9,2.5 -3.6,4.7 -5.4,7 -0.3,-0.9 -0.5,-1.5 -0.7,-2 -0.3,0 -0.5,0 -0.6,0 -1,0.9 -2.1,1.8 -3.1,2.6999997 -5.3,4.8 -12.9,6.1 -18.8,3.3 -3.5,-1.7 -5.6,-4.1999997 -5.7,-8.2999997 0,-1.7 0.4,-2.8 2,-3.6 3.9,-2.1 7.7,-4.5 11.5,-6.8 0.9,-0.5 1.8,-1.1 2.4,-1.8 1.3,-1.5 0.9,-2.8 -1,-3.5 -0.8,-0.3 -1.7,-0.5 -2.6,-0.5 -6,-0.4 -10.8,1.9 -13.9,7 -2.1,3.4 -4.899995,4.7 -8.599995,4.4 -2.4,-0.2 -4.7,-0.8 -7.1,-1.2 -1.3,-0.2 -2.7,-0.6 -4,-0.4 -7.7,0.8 -14.2,-1.9 -20,-6.6 -2.4,-2 -3.7,-4.8 -4.5,-7.8 -0.7,-2.5 -1.7,-5 -2.9,-7.4 -1.6,-3.3 -4.5,-3.5 -6.9,-0.7 -1.9,2.3 -2.1,5.1 -0.8,7.5 1.6,3.2 3.7,6 5.5,9 1.4,2.4 3,4.7 4,7.3 3.4,9 6.5,18.1999997 9.8,27.1999997 1.9,5.2000003 3.4,10.4000003 3.9,15.7999993 0.1,1.2 0.5,2.4 0.8,3.6 0.2,0 0.4,-0.1 0.6,-0.1 -0.2,-3.1 -0.4,-6.299999 -0.6,-9.399999 0.3,-0.1 0.6,-0.1 0.9,-0.2 1.3,2.9 2.5,5.899999 3.8,8.999999 2.3,-2.1 2.3,-4.4 1.7,-6.599999 -0.5,-2 -1.2,-3.9 -2,-5.8 -3.7,-9.3000003 -7.5,-18.6000003 -11.2,-27.9 -0.5,-1.1 -0.8,-2.3 -1.5,-4.2 4.7,1.3 8.8,2.5 12.9,3.7 0.2,-0.7 0.4,-1.3 0.7,-2.1 7.5,0.7 14.9,1.2 22.599995,1.8 z"
       id="path1583"
       inkscape:connector-curvature="0"
       style="fill:#ffffff" />
    <path
       d="m -131.02198,242.10392 c -4.2,-1 -7.9,-1.7 -11.6,-2.6 -14.1,-3.6 -28.5,-4.4 -43,-5.4 -13,-0.9 -26,-2.3 -39.1,-3.4 -1.8,-0.2 -3.6,-0.2 -5.3,-0.5 -1.1,-0.2 -2.2,-0.7 -4.2,-1.3 1.4,-1 2.1,-1.7 2.8,-1.8 2.6,-0.4 5.3,-0.8 7.9,-0.7 20.2,1 40.3,1.8 60.5,3.2 6.5,0.5 13,2.1 19.4,3.7 3.2,0.8 6.1,2.5 9.1,3.8 1.9,0.8 3,2.3 3.5,5 z"
       id="path1585"
       inkscape:connector-curvature="0" />
    <path
       d="m -99.921985,-15.19608 c -7.699995,-0.6 -15.099995,-1.1 -22.499995,-1.7 -0.3,0.8 -0.4,1.3 -0.7,2.1 -4.1,-1.2 -8.2,-2.4 -12.9,-3.7 0.6,1.9 1,3 1.5,4.2 3.7,9.2999997 7.5,18.5999997 11.2,27.9 0.7,1.9 1.5,3.8 2,5.8 0.6,2.299999 0.6,4.499999 -1.7,6.599999 -1.3,-3.1 -2.6,-6.099999 -3.8,-8.999999 -0.3,0.1 -0.6,0.1 -0.9,0.2 0.2,3.099999 0.4,6.299999 0.6,9.399999 -0.2,0 -0.4,0.1 -0.6,0.1 -0.3,-1.2 -0.7,-2.4 -0.8,-3.6 -0.6,-5.499999 -2.1,-10.699999 -3.9,-15.7999993 -3.3,-9.1 -6.4,-18.1999997 -9.8,-27.1999997 -1,-2.6 -2.6,-4.9 -4,-7.3 -1.8,-3 -3.9,-5.9 -5.5,-9 -1.2,-2.5 -1.1,-5.2 0.8,-7.5 2.3,-2.9 5.3,-2.6 6.9,0.7 1.2,2.4 2.2,4.9 2.9,7.4 0.9,3 2.1,5.8 4.5,7.8 5.8,4.7 12.4,7.4 20,6.6 1.3,-0.1 2.7,0.2 4,0.4 2.4,0.4 4.7,1 7.1,1.2 3.7,0.3 6.499995,-1 8.599995,-4.4 3.1,-5.1 7.9,-7.4 13.9,-7 0.9,0.1 1.8,0.2 2.6,0.5 1.9,0.7 2.3,2 1,3.5 -0.7,0.7 -1.6,1.3 -2.4,1.8 -3.8,2.3 -7.6,4.6 -11.5,6.8 -1.6,0.9 -2.1,1.9 -2,3.6 0.1,4.1 2.2,6.5999997 5.7,8.2999997 5.9,2.8 13.5,1.4 18.8,-3.3 1,-0.8999997 2.1,-1.7999997 3.1,-2.6999997 0.1,-0.1 0.2,0 0.6,0 0.2,0.5 0.4,1.1 0.7,2 1.8,-2.3 3.4,-4.5 5.4,-7 0.5,2.8 -0.8,4.4 -1.9,6.1 -8.3,13.1999997 -16.7,26.4 -25,39.599999 -2.2,3.5 -4.4,7.2 -6.6,10.7 -0.9,1.5 -2,3.1 -4.1,2.9 -1.3,-0.1 -2.399995,-2.4 -2.399995,-4.8 -0.1,-2 0.6,-3.7 1.999995,-5.2 1,-1.1 2.1,-2.4 2.4,-3.7 1.5,-6.7 4.8,-12.499999 8.9,-17.899999 2.3,-3.0000003 4.5,-6.1000003 7.1,-9.50000029 -2.1,-0.4 -3.6,-0.7 -5.1,-1.1 -1.7,-0.4 -3.5,-0.80000001 -5.2,-1.30000001 -4.9,-1.6 -7.8,-5.1 -8.5,-10.1999997 -0.3,-1 -0.3,-1.9 -0.5,-3.3 z m 10.9,38.599999 c 6.5,-7.099999 17.8,-24.6999993 18.6,-28.5999993 -3.3,3.4 -17.6,25.2000003 -18.6,28.5999993 z M -145.72198,-30.59608 c -0.8,-4.6 -3,-8.7 -5.5,-10.3 2,3.9 3.1,7.4 5.5,10.3 z"
       id="path1587"
       inkscape:connector-curvature="0" />
    <path
       class="st0"
       d="m -89.021985,23.403919 c 1,-3.399999 15.4,-25.1999993 18.6,-28.5999993 -0.8,3.9 -12.2,21.4000003 -18.6,28.5999993 z"
       id="path1589"
       inkscape:connector-curvature="0"
       style="fill:#ffffff" />
    <path
       class="st0"
       d="m -145.72198,-30.59608 c -2.4,-2.9 -3.5,-6.4 -5.5,-10.3 2.5,1.6 4.7,5.7 5.5,10.3 z"
       id="path1591"
       inkscape:connector-curvature="0"
       style="fill:#ffffff" />
  </g>
</svg>
