<?xml version="1.0" encoding="UTF-8" standalone="no"?>
<!-- Created with Inkscape (http://www.inkscape.org/) -->

<svg
   xmlns:dc="http://purl.org/dc/elements/1.1/"
   xmlns:cc="http://creativecommons.org/ns#"
   xmlns:rdf="http://www.w3.org/1999/02/22-rdf-syntax-ns#"
   xmlns:svg="http://www.w3.org/2000/svg"
   xmlns="http://www.w3.org/2000/svg"
   xmlns:sodipodi="http://sodipodi.sourceforge.net/DTD/sodipodi-0.dtd"
   xmlns:inkscape="http://www.inkscape.org/namespaces/inkscape"
   width="147.51755mm"
   height="188.90326mm"
   viewBox="0 0 522.69997 669.34225"
   id="svg5477"
   version="1.1"
   inkscape:version="0.91 r13725"
   sodipodi:docname="open source_4 copy 10.svg">
  <defs
     id="defs5479" />
  <sodipodi:namedview
     id="base"
     pagecolor="#ffffff"
     bordercolor="#666666"
     borderopacity="1.0"
     inkscape:pageopacity="0.0"
     inkscape:pageshadow="2"
     inkscape:zoom="0.35"
     inkscape:cx="1764.9214"
     inkscape:cy="-328.18602"
     inkscape:document-units="px"
     inkscape:current-layer="layer1"
     showgrid="false"
     fit-margin-top="0"
     fit-margin-left="0"
     fit-margin-right="0"
     fit-margin-bottom="0"
     inkscape:window-width="1920"
     inkscape:window-height="1056"
     inkscape:window-x="0"
     inkscape:window-y="24"
     inkscape:window-maximized="1" />
  <metadata
     id="metadata5482">
    <rdf:RDF>
      <cc:Work
         rdf:about="">
        <dc:format>image/svg+xml</dc:format>
        <dc:type
           rdf:resource="http://purl.org/dc/dcmitype/StillImage" />
        <dc:title></dc:title>
      </cc:Work>
    </rdf:RDF>
  </metadata>
  <g
     inkscape:label="Layer 1"
     inkscape:groupmode="layer"
     id="layer1"
     transform="translate(1389.9214,465.16606)">
    <g
       transform="translate(-1612.6214,-506.82383)"
       id="Layer_1" />
    <g
       transform="translate(-1612.6214,-506.82383)"
       id="Layer_2" />
    <path
       d="m -947.92143,170.37618 c 0,-1.1 0,-2 0,-2.9 -0.7,-21 -1.6,-42 -2,-63 -0.5,-26.100003 -1.1,-52.300003 -0.4,-78.400003 0.3,-14.3 0.7,-28.5000001 1.1,-42.8 0.3,-9.7 0.7,-19.4 0.8,-29.1 0.1,-12 0,-24 0,-36.1 -0.1,-29.599997 -0.3,-59.299997 -0.1,-88.899997 0.1,-16.7 1,-33.3 1.6,-50 0.4,-10.7 0.9,-21.4 1.6,-32.1 0.9,-15.2 1.9,-30.5 3.2,-45.7 1.3,-15.1 3.1,-30.1 4.6,-45.1 0.2,-2.2 0.3,-4.4 2.7,-5.6 1.3,0.8 1.7,2 1.8,3.5 0.6,7.5 0.1,14.9 -0.3,22.3 -1.1,18.4 -1.7,36.9 -1.7,55.3 0.1,21.6 -0.9,43.3 -1.8,64.9 -0.9,21.3 -1.6,42.6 -1.5,64 0.1,25.7 0.1,51.399997 -0.2,76.999997 -0.2,16.1 -1.1,32.1 -1.5,48.1 -0.3,13.49999987 -0.7,27 -0.6,40.5 0,25 0.2,50 0.5,74.900003 0.1,9.1 0.7,18.1 1.1,27.2 0.4,10.4 0.7,20.8 -0.1,31.2 -0.2,3 -0.3,6 -0.6,9.1 -0.1,1.7 -0.4,3.3 -0.6,5.3 0.3,0.1 0.8,0.5 1.3,0.7 8.6,4.3 17.7,7.5 26.7,10.7 11.1,4 22.2,8 33.3,11.9 4.2,1.5 7.9,4 11.6,6.3 0.1,0.1 0.1,0.3 0.2,0.6 -0.5,0 -0.9,0 -1.3,-0.1 -19.1,-5.5 -38.2,-11.3 -56.5,-19.2 -5.8,-2.5 -11.2,-5.7 -16.8,-8.5 -0.7,-0.4 -1.4,-0.7 -2.1,-1.1 -0.3,0.1 -0.7,0.2 -1,0.4 -2,1.2 -4,0.9 -6,-0.1 -1.5,-0.8 -3,-1.6 -4.5,-2.4 -1,-0.5 -1.8,-0.5 -2.8,0.2 -3.1,2.3 -6.5,2.3 -9.9,0.6 -3.6,-1.8 -7.2,-3.7 -10.7,-5.6 -16.9,-8.9 -33.89997,-17.7 -51.59997,-25.2 -3.8,-1.6 -7.6,-3.6 -11.2,-5.6 -11.9,-6.6 -24.2,-12.2 -36.9,-17 -19.9,-7.6 -39,-16.9 -57.8,-26.700003 -7.4,-3.8 -14.6,-7.8 -21.5,-12.5 -0.6,-0.4 -1.3,-0.8 -2,-1.3 -1.7,-1.2 -3.4,-1.2 -5.2,-0.2 -1.8,0.9 -3.7,1.6 -5.6,2.3 -8.7,3.3 -17.4,6.5 -26.1,9.9 -31.7,12.300003 -64.1,22.200003 -97.3,29.700003 -6.8,1.5 -13.6,3.2 -20.6,3.7 -5.4,0.4 -10.7,-0.3 -15.7,-2.4 -1.2,-0.5 -2.4,-1.2 -3.4,-2 -2.1,-1.7 -2.6,-3.9 -1.7,-6.5 0.2,-0.4 0.3,-0.9 0.6,-1.3 2,-2.2 1.8,-4.8 1.6,-7.4 -1.3,-29.100003 -2,-58.100003 -1.1,-87.200003 0.8,-25.0000001 1.2,-50.1 1.8,-75.1 0.1,-3.5 0,-7 0,-10.8 -1.9,0 -3.6,-0.2 -5.4,0 -9,0.7 -15.4,-3.2 -20,-10.6 -5.4,-8.7 -6.7,-17.9 -3.9,-27.699997 1.9,-6.6 4.9,-12.5 9,-18 2.2,-2.9 4.8,-5.3 7.9,-7.1 1.7,-1 3.6,-1.4 5.6,-1 2.1,0.4 3.7,1.5 4.4,3.7 0.4,1.4 0.2,1.8 -1.2,2.2 -1.5,0.4 -3,0.7 -4.5,1.1 -1.3,0.3 -2.4,0.9 -3.4,1.9 -8.7,9 -12.6,19.7 -11.4,32.199997 0.6,6.1 3.5,10.8 8.7,14.2 2.3,1.5 4.9,2.3 7.7,2.4 2.2,0 4.3,0 6.6,0 0.4,-1.4 0.6,-22.4 0,-25.5 -0.8,1.1 -1.4,2 -2,2.9 -1.7,2.4 -3.1,2.7 -5.7,1.2 -1.8,-1 -3,-2.5 -3.3,-4.6 -0.2,-1.199997 -0.3,-2.499997 -0.3,-3.699997 0.1,-3.8 1.8,-6.5 5.5,-7.8 0.4,-0.2 0.8,-0.4 1.4,-0.6 -0.3,-0.8 -0.6,-1.6 -1.1,-2.8 2.3,0.7 4.3,1.3 6.5,2 0.1,-0.9 0.1,-1.5 0.1,-2.1 0.4,-28.5 0.4,-56.9 1.1,-85.4 0.8,-28.6 0.5,-57.2 0.3,-85.9 -0.1,-17.8 0,-35.5 0,-53.3 0,-1.5 0,-2.9 0.1,-4.4 0.1,-1.2 0.3,-2.3 1.4,-3.3 0.1,0.4 0.3,0.7 0.3,0.9 0.7,8.7 1.3,17.3 2,26 0.7,9.2 1.4,18.4 2.1,27.6 0.6,7.7 1.1,15.3 1.5,23 0.4,6 0.7,11.9 1,17.9 0.1,1.7 0.6,3.1 2.1,3.9 3,1.6 5.8,3.6 9.1,4.5 0.4,0.1 0.7,0.2 1.1,0.2 0.1,0 0.2,-0.2 0.4,-0.3 -0.2,-1.2 -1.1,-1.7 -2.2,-2.1 -3.1,-1 -5.3,-3.1 -7.1,-5.8 -1.2,-1.8 -1.6,-3.6 -0.6,-5.8 4.3,0.1 6.4,3.9 9.9,6 0.3,-1.7 0.5,-3.1 0.7,-4.7 -2.9,-1.3 -5.5,-2.5 -8.2,-3.8 -0.9,-0.4 -1.8,-0.9 -2.6,-1.5 -1.7,-1.2 -2.6,-2.7 -1.6,-5.1 1.3,0.1 2.8,0.2 4.5,0.3 -0.7,-0.8 -1.2,-1.5 -1.8,-2.2 -1.3,-1.5 -1.7,-3.3 -1.8,-5.2 -0.1,-0.9 0.2,-1.7 1.1,-1.8 0.6,-0.1 1.5,0.4 1.7,0.8 1.3,2.4 3.2,3.9 5.8,4.6 1.6,0.5 1.6,2.1 2.3,3.3 -1.6,1.2 -3.2,1.6 -5.1,1.9 1.8,1 3.6,2 5.7,3.1 2.3,-29.4 4.6,-58.4 6.9,-87.6 -0.8,-0.4 -1.6,-0.7 -2.4,-1 -3.3,-1.2 -6.5,-2.5 -9.8,-3.7 -0.9,-0.3 -1.7,-0.6 -1.9,1 0.7,0.5 1.5,1.1 2.3,1.7 1.7,1.3 3.5,2.6 5.2,3.9 1.5,1.1 2.3,2.5 2.6,4.3 -1.9,0.5 -3.5,0.2 -5.1,-0.9 -3.1,-2.1 -6.2,-4.1 -9.4,-6.3 -1.2,0.8 -2.5,0.5 -3.8,-0.4 2,-4.2 7.3,-6.9 12.4,-6.1 1.6,0.3 3.2,0.7 4.7,1.1 3.6,0.9 4.6,0.6 6.6,-2.6 0.3,0.2 0.6,0.4 0.8,0.7 1.4,1.7 3.2,2.8 5.2,3.3 17.4,4.5 33.8,11.7 50.4,18.5 29.3,12.1 57.7,26 85.8,40.5 1.7,0.9 3.5,1.7 5.2,2.6 2.4,1.3 4.7,1.2 7.1,-0.1 9.1,-5 18.4,-9.6 28,-13.8 14.2,-6.2 29,-10.7 44.1,-14.6 19.8,-5.1 39.6,-10.4 59.3,-15.8 7.4,-2 14.59997,-4.7 22.09997,-6.4 8.7,-2.1 17.5,-3.6 26.2,-5.2 5.3,-1 10.6,-1.7 15.8,-2.5 1.8,-0.3 3.7,-0.4 5.6,-0.5 0.4,0 0.8,0.3 1.3,0.4 -0.7,1.3 -1.9,1.3 -2.9,1.6 -2.6,0.6 -5.1,1.1 -7.7,1.7 -14.6,3.3 -29,7.3 -43.3,11.8 -19.29997,6.1 -38.89997,11 -58.39997,16.4 -19.5,5.4 -38.8,11.4 -58.2,17.3 -3.7,1.1 -7.3,2.7 -10.8,4.3 -6.3,2.8 -12.6,5.6 -19.2,7.7 -2.2,0.7 -4.3,1.5 -5.8,3.2 -0.6,0.7 -1.2,1.4 -1.8,2.1 -5.3,-2.6 -10.7,-5.3 -16.1,-8 -18,-8.8 -35.8,-17.8 -53.9,-26.3 -21.6,-10.2 -43.6,-19.4 -65.9,-27.9 -2.7,-1 -5.3,-2.1 -8,-3.1 -0.8,-0.3 -1.6,-0.5 -2.7,-0.8 0,1.1 0,1.8 0,2.6 0.2,17.5 -0.3,34.9 -0.8,52.3 -0.4,16.1 -0.4,32.3 -0.7,48.4 -0.9,63.8 -0.2,127.5 -0.2,191.299997 0,26.2 0.1,52.3999999 0.1,78.7 0,16.3 -0.9,32.6 -2,48.8 -0.7,10.9 -0.8,21.9 -1.1,32.800003 0,1.2 0.2,2.5 -0.9,3.8 -0.2,-2 -0.4,-3.6 -0.6,-5.3 -0.4,-5.000003 -1,-10.000003 -1.2,-15.100003 -0.4,-11.2 -0.7,-22.5 -0.9,-33.7 -0.6,-34 -1.1,-67.9 -1.6,-101.9 -0.3,-22.9 -0.7,-45.8 -1,-68.599997 -0.1,-3.3 -0.2,-6.7 -0.3,-10 0,-0.7 -0.1,-1.4 -0.2,-2.2 -4.4,0.5 -7.3,-1.9 -10.1,-4.5 -0.9,-0.9 -2,-1.7 -3,-2.6 -1.2,2.9 -1,3.8 1.4,4.8 2.8,1.2 4.7,3.2 6.6,5.3 1.1,1.2 1.4,2.6 1.2,4.1 -0.5,2.9 -0.2,5.7 0.4,8.5 0.7,3.3 0,6.7 -0.3,10 -0.4,5.799997 -1.1,11.599997 -1.7,17.399997 -0.1,1.1 -0.2,2.2 -0.5,3.2 -0.3,1.2 -0.9,2.2 -2.2,2.4 -1.3,0.2 -2.2,-0.4 -3,-1.4 -0.9,-1.2 -1.2,-2.6 -1.2,-4.2 0.2,-6.4 0.3,-12.7 0.5,-19.099997 0,-1.9 0,-3.9 -0.3,-5.8 -0.4,-2.4 0.1,-4.6 1.2,-6.7 0.5,-0.9 0.9,-1.8 1.4,-2.8 -1.3,-1 -2.5,-2 -4.1,-3.2 -0.6,8.2 -0.8,16 -1.1,23.899997 -0.3,7.9 -0.7,15.8 -1,23.8 0.9,0 1.4,0 2.3,0 -4.1,9.4 -3.1,19.2 -3,28.9 1.2,-1.3 2.2,-4.6 1.9,-6.1 -0.7,-3.7 -0.1,-7.1 1.8,-10.3 0.5,-0.8 0.7,-1.6 0.5,-2.6 -0.4,-2.2 0.7,-3.1 2.9,-2.3 1.4,0.5 2.8,1.4 4.3,2.2 -1,1.7 -1.9,3.2 -2.9,4.9 0.4,0.4 0.8,0.9 1.2,1.3 1.6,1.6 3.3,3.1 4.9,4.7 2,2 1.9,2.8 -0.3,4.4 -0.4,0.3 -0.8,0.7 -1.4,1.1 0.7,1.2 1.3,2.3 2,3.5 0.7,1.1 1.3,2.3 2.1,3.6 -1.4,0.5 -2.6,0.9 -4.1,1.4 0.9,1.3 1.6,2.4 2.4,3.5 1.4,2.1 1.3,2.3 -1,3.3 -0.3,0.1 -0.5,0.3 -0.8,0.4 0,0.5 0,1 0,1.4 0.1,2.2 -0.3,2.7 -2.5,3 -0.5,0.1 -0.9,0.1 -1.4,0.1 -0.4,0 -0.7,0.1 -1.3,0.1 1.1,1.7 2.1,3.2 3.3,4.9 -0.9,0.3 -1.5,0.5 -2.5,0.8 0.2,1.8 0.3,3.7 0.6,5.6 0.2,1.3 0.5,2.6 0.8,3.9 0.2,1 0.5,1.9 -0.9,2.2 2.1,2.4999999 5.3,3.6999999 6.1,7.0999999 -0.8,0.2 -1.4,0.3 -2.1,0.5 -1.3,0.3 -2.2,-0.1 -3.1,-1.1 -3.2,-3.6 -6.6,-6.9999999 -9.8,-10.4999999 -0.5,-0.5 -1.1,-1 -2,-1.9 0,1.6 -0.1,2.7 0,3.7 0.1,0.5 0.4,1.2 0.9,1.5 3.5,3.0999999 7,6.0999999 10.6,9.0999999 1.5,1.3 1.8,2.99999997 2.2,4.9 -1.9,-0.1 -3.5,-0.20000003 -5.5,-0.40000003 1.6,2.20000003 3.1,4.30000003 4.7,6.40000003 1.5,2 1.5,2 0.4,4.5000001 1,1.6 1.8,3.3 1.4,5.4 -1.4,0.5 -2.7,0.3 -4,-0.5 -2.1,-1.4 -4.3,-2.7 -6.9,-4.3 2.3,3.8 6.4,5.8 7.3,10.2 -1.8,0.1 -3.3,0.2 -5.2,0.4 1.3,1.9 2.9,2.7 4.2,3.8 1.4,1.1 2.8,2.2 4.2,3.3 -2.3,2.7 -3.7,2.8 -6.2,0.8 -2.4,-2 -4.7,-4.1 -7,-6.1 -0.6,-0.5 -1.2,-0.9 -1.8,-1.4 -0.8,2.4 -0.7,3 1,4.3 1.9,1.5 3.8,2.9 5.7,4.4 2.2,1.8 4.2,3.7 6.4,5.4 1.5,1.2 2.1,2.8 2.3,4.7 -2,0.3 -3.7,0 -5.1,-1.5 -3.1,-3.3 -6.2,-6.5 -9.3,-9.8 -0.4,-0.4 -0.6,-0.9 -0.9,-1.4 -0.2,0.1 -0.4,0.2 -0.6,0.3 -0.1,0.4 -0.2,0.8 -0.2,1.1 0.4,1.7 1.3,3.1 2.6,4.3 4.5,4 9,8.1 13.5,12.1 0.3,0.3 0.6,0.7 1.1,1.1 -1.9,1.2 -3.8,1.1 -5.6,0.3 -1.1,-0.5 -2.1,-1.3 -3.1,-2.1 -1,-0.8 -2,-1.7 -3,-2.5 -0.1,0.1 -0.2,0.2 -0.4,0.3 3.8,4.5 7.6,9 11.4,13.4 -0.4,1.1 -1,1 -1.7,0.8 -2.3,-0.7 -4.3,-1.9 -5.9,-3.6 -1.6,-1.8 -3.1,-3.6 -4.7,-5.5 -1.2,-1.4 -2.4,-2.8 -3.6,-4.3 -1.1,2.7 -1,3.2 0.9,4.9 4.7,4.1 9.3,8.4 12.9,13.6 0.7,1.1 1.4,2.2 2.2,3.4 -1.4,0.1 -2.8,-0.1 -3.6,0.4 -1,0.6 -1.5,1.9 -2.1,2.9 0.6,2.8 3,5 2.4,8.1 -1.5,0.4 -2.3,-0.3 -3.1,-1 -3.1,-3 -6.3,-5.8 -8.6,-9.4 -0.2,-0.3 -0.3,-0.6 -0.6,-0.7 -0.7,1.3 -0.7,2.5 0.1,3.6 0.5,0.7 1.1,1.3 1.6,2 4.2,4.4 8.5,8.9 12.7,13.3 1.1,1.1 2,2.4 2.9,3.6 0.8,1.1 1.1,2.4 0.8,3.7 -1.4,0.4 -2.7,0.2 -3.7,-0.8 -1.7,-1.6 -3.6,-3.2 -5.2,-5 -2.5,-2.7 -4.9,-5.6 -7.4,-8.4 -0.4,-0.5 -0.9,-0.9 -1.8,-1.2 0,0.4 0,0.9 0.2,1.1 1,1.4 2,2.8 3.1,4 3.1,3.3 6.3,6.6 9.5,9.9 1.7,1.8 2.2,4 2.6,6.4 -2.9,-0.6 -5.3,-1.6 -7.2,-3.7 -1.9,-2.1 -4,-4.2 -6,-6.2 -0.6,-0.6 -1.2,-1.1 -2.1,-2 0.2,2.1 0.9,3.5 2,4.6 1.4,1.3 2.9,2.6 4.3,4 1.9,2 3.6,4.000003 5.4,6.100003 0.7,0.8 1,1.7 0.6,2.9 -1.1,0.2 -2,-0.4 -2.8,-1.1 -2.3,-2 -4.5,-4 -6.8,-6.000003 -0.6,-0.6 -1.3,-1.1 -2.1,-1.7 -1.3,2.4 -1.3,4.700003 -0.4,7.000003 0.7,1.6 1.6,3 2.6,4.4 1.1,1.6 2.6,2.9 3.6,4.5 1,1.5 2.1,1.5 3.5,1.2 5.4,-1.2 10.7,-2.4 16.1,-3.6 32.2,-7.5 63.8,-16.800003 94.7,-28.800003 9.5,-3.7 18.8,-7.8 28.1,-11.7 0.7,-0.3 1.4,-0.7 2.1,-1 0.9,-5.2 0.9,-5.2 6.8,-6.8 0,-0.7 0,-1.6 0,-2.4 0.3,-11.4 -0.4,-22.8 -1.3,-34.2 -1.5,-19.7000001 -2.3,-39.3 -1.9,-59 0.5,-27.3 0.6,-54.6 1,-81.899997 0.1,-8.7 0.4,-17.4 0.9,-26 0.4,-6.9 1.3,-13.7 1.9,-20.6 0.8,-9 1.5,-18.1 2.2,-27.1 0.9,-11.4 1.8,-22.7 2.6,-34.1 1,-13.7 2.1,-27.4 3,-41.1 0.4,-6.7 0,-13.3 -0.8,-20 -0.1,-1.1 -0.2,-2.2 -0.2,-3.3 2,1.2 4,3.8 4.8,6.1 2.2,6.5 3,13.3 3.1,20.1 0.1,7.5 0.2,15.1 0.1,22.6 -0.1,6.5 -0.7,13 -1,19.5 -0.4,8.5 -0.8,17 -1.2,25.6 -0.5,12.6 -1.4,25.1 -2.8,37.6 -2.1,19.3 -3.1,38.6 -3.3,57.999997 -0.3,30.2 -0.6,60.3 -1,90.4999999 -0.1,11.3 0.9,22.6000001 1.6,33.9000001 0.4,6.8 0.8,13.6 1.1,20.4 0.3,5.7 0.5,11.3 0.5,17 0,2.7 1.1,4.2 3.5,5.4 26.9,13.4 54.6,25.1 82.3,37.100003 12.5,5.4 24.7,11.1 36.9,17.2 9.8,5 20,9.2 29.9,14 14.29997,7 28.49997,14.4 42.79997,21.6 2.4,1.2 4.1,3.2 5.7,5.4 1.4,2 3,3.7 5.2,4.9 1.9,1.6 3.6,2.2 5.9,1.6 z m -373.39997,-360.2 c 0.6,-0.7 0.9,-1.1 1.3,-1.5 1.4,-1.3 2.1,-1.4 3.6,-0.2 0.6,0.5 1.2,1 1.8,1.5 2.2,1.7 3.7,2.6 5.1,2.8 0,-1.4 0,-2.9 0,-4.3 -3.3,-0.4 -6.2,-1.4 -8.4,-3.8 -2.4,-2.6 -2,-5.6 -1.1,-8.7 -0.7,-0.5 -1.4,-1 -2.3,-1.7 0,5.4 0,10.4 0,15.9 z m 11.9,42.4 c 0,-1.3 0,-2.2 0,-3.2 0,-0.9 0,-1.8 0,-2.7 -6.3,0.3 -7.2,-1.6 -9.9,-4.7 -0.5,-0.6 -1,-1.2 -1.5,-1.8 -0.3,-0.4 -0.8,-0.6 -1.4,-1.2 -0.2,2.4 -0.3,4.5 0.1,6.8 3,-0.3 5.1,1.2 7.1,3 1,0.9 2,1.7 3,2.5 0.7,0.5 1.5,0.8 2.6,1.3 z m -11.6,-90.5 c 2.2,-0.2 4.1,0.2 5.8,1.2 1.7,0.9 3.3,2 5,2.9 0.4,0.2 0.9,0.3 1.3,0.5 0,-1.7 0,-3.2 0,-4.6 -0.3,-0.1 -0.3,-0.1 -0.4,-0.1 -0.2,0 -0.5,0 -0.7,0.1 -2.6,0.9 -4.9,0 -6.9,-1.6 -1.1,-0.9 -2.1,-2 -3.2,-3 -0.4,-0.3 -0.8,-0.6 -1.4,-1 0.2,1.9 0.3,3.7 0.5,5.6 z m 11.8,33.3 c 0.2,-2.1 0.1,-3.9 -0.2,-5.9 -1.4,0 -2.6,0 -3.7,0 -1.2,0 -2.4,-0.2 -3.7,0.3 0.4,0.4 0.6,0.6 0.9,0.8 2.1,1.6 4.2,3.1 6.7,4.8 z m -12,40 c 0.1,0 0.4,-0.1 0.4,-0.2 0.8,-2.3 1.6,-4.7 2.3,-7 0.1,-0.3 0.1,-0.8 -0.1,-1.1 -0.9,-1.3 -1.8,-2.6 -2.9,-4.1 -0.5,4 -0.3,11.1 0.3,12.4 z m -4.1,125.899997 c -0.2,4.7 2.7,7.8 6.3,7.4 -2.1,-2.6 -4.2,-5 -6.3,-7.4 z m -10.5,-67.699997 c -2.1,0.5 -2.9,1.2 -3,2.9 -0.1,1.4 -0.5,3 1.1,4.499997 0.7,-2.699997 1.3,-4.899997 1.9,-7.399997 z m 15.3,-119.2 c -0.1,0.1 -0.2,0.2 -0.4,0.3 0,1.4 0,2.8 0,4.5 1.4,-0.2 2.6,-0.3 4.2,-0.5 -1.5,-1.7 -2.7,-3 -3.8,-4.3 z m -6.3,278.399997 c -0.5,1.6 -0.7,3.1 -0.2,4.7 0.8,-0.5 1.4,-0.9 2.1,-1.4 -0.7,-1.1 -1.3,-2.2 -1.9,-3.3 z m 5.6,-239.899997 c -0.3,1.9 -0.3,1.9 0.5,2.8 0.5,-1.5 0.5,-1.5 -0.5,-2.8 z m -6.6,246.699997 c 0.2,0 0.4,-0.1 0.6,-0.1 -0.1,-0.4 -0.2,-0.7 -0.3,-1.1 -0.1,0 -0.4,0.1 -0.4,0.1 -0.1,0.3 0,0.7 0.1,1.1 z"
       id="path2059"
       inkscape:connector-curvature="0" />
    <path
       d="m -1161.2214,-314.92382 c -0.4,-0.9 -0.2,-1.4 0.6,-1.7 0.7,-0.2 1.5,-0.4 2.2,-0.6 24.4,-7.1 48.8,-14.1 73.2,-21.4 18.1,-5.4 35.6,-12.6 53.1,-19.8 13.3,-5.5 26.7,-10.90001 40.59997,-14.80001 10.3,-2.9 20.7,-5.2 31.1,-7.7 2.4,-0.6 4.8,-1.1 7.2,-1.7 3.5,-0.9 4.5,-2.3 4.4,-5.8 -0.4,-12.1 -0.9,-24.2 -1.4,-36.3 -0.2,-3.8 -0.8,-7.6 -1.1,-11.3 -0.6,-7.1 -0.6,-14.1 2.2,-20.8 0.4,-1.1 0.8,-2.2 2.3,-2.5 0.9,0.5 1.2,1.4 1.2,2.4 0,0.2 0,0.3 0,0.5 -0.8,10.1 1,20 1.8,29.9 1.2,12.7 2.1,25.5 1.7,38.3 0,1.4 -0.4,2.5 -1.6,3.4 -2.2,1.8 -4.4,3.7 -6.7,5.4 -1.2,0.9 -2.8,1.4 -4.2,1.8 -8.3,2.2 -16.7,4.2 -25,6.3 -14.5,3.7 -28.49997,8.90001 -42.39997,14.40001 -14.8,5.8 -29.5,11.8 -44.3,17.4 -18.6,7 -37.8,12.5 -57.1,17.3 -9.1,2.2 -18.2,4.7 -27.2,7.1 -3.7,0.8 -7.2,0.2 -10.6,0.2 z"
       id="path2061"
       inkscape:connector-curvature="0" />
    <path
       d="m -949.92143,-463.62383 c -0.7,0.2 -1.4,0.5 -2.1,0.6 -45.2,9.1 -89.49997,21.4 -133.69997,34.2 -13.3,3.8 -26.7,7.6 -39.9,11.6 -4.9,1.5 -9.7,3.7 -14.5,5.7 -3.7,1.5 -7.4,3.2 -11.1,4.8 -0.6,0.2 -1.2,0.3 -2.1,0.6 0.5,-1.4 1.4,-1.6 2,-2 11.9,-7.1 24.5,-12.4 37.7,-16.2 13.6,-3.9 27.3,-7.7 41,-11.4 25.1,-6.8 50.2,-13.8 75.39997,-20.3 12.1,-3.1 24.5,-5.2 36.8,-7.8 2,-0.4 4,-0.7 5.9,-1.2 1.7,-0.4 3.2,0.1 4.6,0.8 0,0.2 0,0.4 0,0.6 z"
       id="path2063"
       inkscape:connector-curvature="0" />
    <path
       d="m -1287.3214,-53.623823 c -2.6,-3.6 -5,-7.1 -5.4,-11.5 -1.4,-16.3 -1.2,-32.7 -0.1,-48.999997 0.2,-3.7 0.4,-7.4 0.6,-11.1 0.1,-1.1 0.3,-2.1 0.4,-3.1 1.9,-0.2 3.7,-0.5 5.5,-0.6 1.4,-0.1 2.2,0.7 2.4,2.5 0.4,3.2 0.8,6.5 0.9,9.7 0.8,13.6 0.2,27.299997 -1.2,40.899997 -0.6,5.7 -0.8,11.4 -1,17.2 -0.2,1.8 -0.7,3.4 -2.1,5 z m -2.4,-12.9 c 0.2,0 0.4,0 0.5,0 0.2,-2.1 0.4,-4.3 0.5,-6.4 0.5,-12.7 1,-25.4 1.5,-38.099997 0.2,-4.3 0.4,-8.7 0.5,-13 0.1,-2.3 -0.6,-2.8 -3,-2.5 0,19.9 0,39.999997 0,59.999997 z"
       id="path2065"
       inkscape:connector-curvature="0" />
    <path
       d="m -1081.5214,-359.92382 c -0.1,1.3 0,2.7 -0.3,4.1 -2.3,12.6 -15.3,15.6 -23.6,9.4 -5.1,-3.8 -6.6,-10.8 -3.7,-16.5 1.6,-3.10001 3.8,-5.90001 6.4,-8.20001 3.8,-3.5 8.3,-5 13.3,-3 5.2,2.1 7.5,6.4 7.9,11.90001 0.1,0.7 0,1.5 0,2.3 z m -6.3,0 c -0.2,-1.2 -0.2,-2.8 -0.7,-4.3 -1.2,-3.40001 -5.6,-5.40001 -8.9,-2.70001 -3.1,2.50001 -5.8,5.30001 -8.1,8.50001 -1.2,1.7 -1.2,3.3 -0.1,4.9 1.2,1.8 2.8,3.3 4.8,4.2 5.4,2.5 11.2,-0.3 12.4,-6.1 0.3,-1.3 0.4,-2.7 0.6,-4.5 z"
       id="path2067"
       inkscape:connector-curvature="0" />
    <path
       d="m -966.12143,-391.32383 c 3.1,3 3.2,4.1 0.7,7.2 -0.7,0.9 -1.7,1.6 -2.7,2.1 -6.5,3 -13.1,2.7 -19.7,0.2 -2.9,-1.1 -4.4,-3.8 -4.7,-6.7 -0.4,-5.6 -0.5,-11.1 -0.6,-16.7 0,-1.6 0.8,-2.5 2.5,-2.9 1.2,-0.3 2.4,-0.4 3.7,-0.5 4.1,-0.5 8.1,-1.1 12.2,-1.6 0.4,0 0.8,0 1.4,0 0.2,0.8 0.5,1.6 0.6,2.4 0.1,1.4 -0.4,2.3 -1.7,2.7 -1,0.3 -2.1,0.5 -3.2,0.5 -3.5,0.1 -7,0 -10.4,0 -0.2,1.7 0.4,5.1 1.3,7.6 2.5,-0.5 5,-1.1 7.6,-1.7 0.2,0 0.4,-0.2 0.7,-0.2 4,-1.2 4.4,-1 6.7,3.1 -4.8,1.4 -9.8,2.1 -14.5,3.4 -0.3,2.9 0.8,4.5 3.7,4.8 5,0.5 9.9,0 14.4,-2.5 0.6,-0.3 1.2,-0.7 2,-1.2 z"
       id="path2069"
       inkscape:connector-curvature="0" />
    <path
       d="m -1159.5214,-409.32383 c 0.2,0.4 0.6,0.8 0.7,1.2 1.8,6.3 3.1,12.6 3,19.2 -0.1,9.2 -0.7,18.3 -1.8,27.40001 -0.9,7.2 -1.5,14.5 -1.5,21.8 0.1,6.5 0,13 0,19.5 0,0.8 0,1.5 0,2.3 -3.4,-0.9 -5.8,-3.6 -6.1,-7.2 -0.1,-1.2 -0.1,-2.5 0,-3.7 0.7,-10.6 1.4,-21.2 2.2,-31.8 1,-12.50001 2.2,-25.00001 3.2,-37.50001 0.2,-2.8 -0.2,-5.7 -0.3,-8.6 0,-0.8 0,-1.7 0,-2.5 0.2,0 0.4,0 0.6,-0.1 z"
       id="path2071"
       inkscape:connector-curvature="0" />
    <path
       d="m -1023.1214,-376.32383 c 1.3,0.8 2.6,1.7 4.1,2.7 -2.4,2.6 -5.3,3.6 -8.6,3.3 -2,-0.2 -4,-0.6 -6,-0.9 -0.7,-0.1 -1.3,-0.2 -2.3,-0.3 0,1.5 -0.1,2.8 0,4 0.2,2.80001 -0.9,4.80001 -3.4,6.20001 -1.2,-1.3 -2.1,-2.8 -2.3,-4.60001 -0.4,-4.4 -1.1,-8.8 -1.3,-13.2 -0.3,-5.9 2.2,-10.9 6.2,-15 2.5,-2.6 7.6,-2.6 10.7,-0.1 1.4,1.2 2.8,2.5 4,3.9 1.9,2 2.5,4.5 1.5,7.1 -0.7,2.2 -1.7,4.4 -2.6,6.9 z m -8.1,-15.7 c -1.8,0.1 -3,1 -3.6,2.4 -0.7,1.5 -1.4,3.2 -1.6,4.8 -0.3,1.5 -0.2,3.2 0.1,4.8 0.2,1.5 0.8,1.9 2.3,1.5 2,-0.5 4,-1 6,-1.8 1,-0.4 1.9,-1.1 2.6,-1.8 1.1,-1 1.4,-2.3 0.8,-3.8 -1,-2.5 -2.8,-4.4 -5.2,-5.7 -0.5,-0.2 -1.1,-0.3 -1.4,-0.4 z"
       id="path2073"
       inkscape:connector-curvature="0" />
    <path
       d="m -1137.8214,-339.12382 c 1.3,-1.2 2.5,-1.3 3.9,-1.2 3.8,0.3 7.4,-0.4 10.7,-2.5 1.7,-1 3,-2.4 3.9,-4.4 -1.7,-0.8 -3.3,-1.5 -5,-2.2 -3.9,-1.6 -7.9,-3.2 -11.9,-4.8 -0.6,-0.2 -1.1,-0.5 -1.7,-0.8 -3.2,-1.6 -3.9,-4.1 -2,-7.1 0.5,-0.8 1.3,-1.6 2,-2.2 3.4,-2.80001 7.2,-4.90001 11.3,-6.20001 2.8,-0.9 5.2,-0.5 7.2,1.9 -0.3,0.6 -0.7,1.3 -1.1,2 -0.4,0.8 -1,1.1 -1.9,1.1 -2.6,0 -4.8,1.00001 -6.9,2.40001 -1.5,1 -2.9,2 -4.3,3.1 -0.4,0.3 -0.6,0.8 -1.1,1.3 0.7,0.4 1.2,0.7 1.8,0.9 4.1,1.5 8.2,3 12.2,4.4 1.1,0.4 2.2,0.7 3.3,1.2 3.3,1.6 4.6,4.9 2.8,8.2 -0.9,1.7 -2.1,3.3 -3.5,4.6 -4.6,4.3 -10.2,5.2 -16.2,4.8 -1.3,-0.1 -2.3,-0.9 -2.8,-2.1 -0.1,-0.7 -0.4,-1.5 -0.7,-2.4 z"
       id="path2075"
       inkscape:connector-curvature="0" />
    <path
       d="m -957.12143,42.976177 c -0.5,0.2 -1,0.5 -1.5,0.5 -5.9,0.7 -11.7,1.3 -17.6,1.9 -9.9,1.1 -19.7,2.1 -29.59997,3.1 -9.7,1 -19.4,2 -29.2,3 -9.8,1 -19.6,2 -29.4,3.1 -8.1,0.8 -16.2,1.7 -24.3,2.5 -10.1,1 -20.2,2.1 -30.3,3.1 -7.9,0.7 -15.9,1.3 -23.9,1.9 -1,0.1 -2.1,-0.1 -3.2,-0.1 0,-0.2 0,-0.3 0,-0.5 1.6,-0.2 3.2,-0.4 4.9,-0.6 10.9,-1.2 21.9,-2.2 32.8,-3.5 11.2,-1.3 22.5,-2.6 33.7,-4 9.9,-1.2 19.7,-2.3 29.6,-3.4 9.2,-1 18.3,-2.1 27.5,-3.1 8.8,-0.9 17.6,-1.8 26.39997,-2.5 9.5,-0.8 19,-1.5 28.5,-2.1 1.7,-0.1 3.5,0 5.3,0 0.2,0.2 0.3,0.4 0.3,0.7 z"
       id="path2077"
       inkscape:connector-curvature="0" />
    <path
       d="m -1054.3214,-415.22383 c 0,0.7 -0.1,1.3 0,2 0.5,3.7 1.1,7.4 1.6,11 0.1,0.8 0.2,1.5 0.2,2.3 0.1,2 0.1,2 -1.6,3.6 -1.4,-0.5 -2.2,-1.4 -2.3,-3 -0.6,-5.9 -1.4,-11.7 -2,-17.5 -0.2,-1.9 0.8,-3.4 1.7,-5.1 2.3,0.7 4.3,1.6 5.8,3.6 2.5,3.3 4.9,6.6 7.4,9.8 1,1.3 2.1,2.5 3.4,3.5 1.9,1.5 3.4,1.1 4.7,-0.9 2,-3.1 2.8,-6.6 2.8,-10.2 0,-2.9 -0.4,-5.7 -0.6,-8.6 -0.2,-1.9 -0.4,-3.8 -0.6,-5.8 1.8,-0.3 3.2,0 4.5,0.7 0.8,0.4 1.7,1.4 1.8,2.2 0.7,5.8 1.5,11.6 0,17.3 -0.9,3.3 -2.5,6.2 -4.9,8.6 -2.6,2.7 -5.7,3.2 -8.8,1.1 -2,-1.3 -3.8,-3 -5.3,-4.8 -2.2,-2.6 -4,-5.5 -6.1,-8.2 -0.4,-0.6 -0.9,-1.1 -1.3,-1.7 -0.1,0 -0.3,0.1 -0.4,0.1 z"
       id="path2079"
       inkscape:connector-curvature="0" />
    <path
       d="m -1049.5214,-362.12382 c -0.1,1.1 -0.5,1.7 -1.4,1.7 -1.4,0.1 -2.8,0.4 -4.1,0.5 -1.4,0.1 -2.4,0.7 -3.2,1.9 -1.3,1.8 -2.8,3.5 -4.3,5.2 -1.4,1.5 -3.2,2.4 -5.2,2.8 -3.5,0.7 -6.7,-1.3 -7.6,-4.8 -0.1,-0.5 -0.3,-1.1 -0.2,-1.6 0.2,-4.8 0.4,-9.60001 0.5,-14.40001 0,-1.2 0.6,-2 1.7,-2.6 1.2,0.8 1.7,1.9 1.8,3.3 0.2,3.2 0.6,6.30001 0.8,9.50001 0.1,1.7 0.9,3.1 1.8,4.5 2,-0.9 3.5,-2.1 4.6,-3.9 1.8,-3.1 2.9,-6.40001 3,-9.90001 0.1,-2.5 -0.1,-5 -0.1,-7.4 0,-2.1 0.8,-3.3 2.4,-3.8 2.5,-0.8 4.4,0.3 4.6,3 0.1,1.9 0.1,3.7 0.1,5.6 0,0.4 0,0.8 -0.1,1.2 -0.4,4 0.8,7.30001 4.9,9.20001 z"
       id="path2081"
       inkscape:connector-curvature="0" />
    <path
       d="m -1107.3214,-393.22383 c 0.2,2.1 0.3,3.9 0.5,5.8 0.1,1.4 0.1,2.8 0.3,4.2 0.3,2 -0.6,3.4 -2.3,4.4 -1.2,-0.8 -1.9,-1.8 -2.1,-3.2 -0.7,-5.7 -1.4,-11.4 -2.1,-17.1 -0.2,-1.3 0.2,-2.5 1.1,-3.4 2.1,-2.3 4.2,-4.6 6.5,-6.7 3.4,-3 7.1,-2.7 10.4,0.4 2,1.9 3.3,4.3 3.6,7.1 0.2,1.9 -0.3,3.5 -1.8,4.8 -2,1.6 -4.3,2.8 -6.9,3.1 -1.6,0.2 -3.2,0.3 -4.9,0.4 -0.7,0 -1.4,0.1 -2.3,0.2 z m -1.1,-3.5 c 0.9,-0.1 1.5,-0.1 2.1,-0.2 2.7,-0.5 5.5,-1.1 8.2,-1.7 0.5,-0.1 0.9,-0.2 1.4,-0.3 1.9,-0.7 2.6,-1.9 2,-3.8 -0.6,-2 -1.8,-3.6 -3.6,-4.6 -1.9,-1 -3.6,-0.9 -5.1,0.6 -2.9,2.6 -4.5,5.8 -5,10 z"
       id="path2083"
       inkscape:connector-curvature="0" />
    <path
       d="m -1338.5214,-10.623823 c -0.4,-0.2 -0.8,-0.3 -1.2,-0.5 -10.6,-5.6 -21.8,-9.9 -33,-14.3 -1.4,-0.5 -2.7,-1.1 -4.1,-1.7 -5.8,-2.5 -8.3,-4.1 -13.1,-8.8 0.9,-0.9 1.8,-0.3 2.7,0 6.5,2.5 13,4.9 19.5,7.5 5,2 10,4.1 15.1,6.1 3.3,1.3 6.2,3.1 8.9,5.4 1.5,1.3 2.9,2.5 4.4,3.8 0.6,0.7 1.1,1.3 0.8,2.5 z"
       id="path2085"
       inkscape:connector-curvature="0" />
    <path
       d="m -1001.6214,-398.02383 c -1.7,1.2 -3.2,2.4 -4.9,3.4 -1.6,1 -2.7,2.3 -2.8,4.2 -0.2,2.3 -0.5,4.6 -0.5,6.9 0,3.2 1.8,4.6 4.9,4.1 1.3,-0.2 2.6,-0.6 3.8,-0.9 0.8,-0.2 1.69997,-0.2 2.79997,-0.4 0,0.6 0.1,1.1 0,1.5 -0.3,0.9 -0.9,1.7 -1.3,2.7 -0.49997,1.3 -1.29997,2.4 -2.79997,2.5 -2.2,0.3 -4.5,0.7 -6.7,0.4 -3.4,-0.5 -5.4,-2.9 -6.4,-6 -0.9,-2.7 -0.7,-5.5 -0.1,-8.3 0.7,-3.5 1.9,-6.7 4.1,-9.5 1,-1.3 2.2,-2.4 3.8,-2.9 2.8,-0.7 4.1,-0.3 6.1,2.3 z"
       id="path2087"
       inkscape:connector-curvature="0" />
    <path
       d="m -1086.2214,-409.92383 c 1.4,-0.5 1.8,-0.1 2,0.9 0.3,2.1 0.7,4.3 1.1,6.6 3.1,-0.5 6.1,-1 9,-2.1 0.5,-0.2 1,-0.4 1.5,-0.6 2.5,-0.9 3.6,-0.5 5.5,1.8 -0.8,1.5 -2.2,2.3 -3.9,2.5 -3,0.5 -6.1,0.9 -9.2,1.3 -0.8,0.1 -1.7,0.2 -2.6,0.3 0,2.3 -0.2,4.4 0,6.6 0.2,2 1.3,2.6 3.3,1.9 1.3,-0.5 2.5,-1.2 3.8,-1.8 1.6,-0.8 3.1,-1.7 4.6,-2.6 2.3,2.5 2.1,4.5 -0.8,6 -2.8,1.5 -5.7,2.9 -8.9,3.4 -3.7,0.6 -6.4,-1.5 -6.4,-5.2 0.3,-6.4 0.7,-12.7 1,-19 z"
       id="path2089"
       inkscape:connector-curvature="0" />
    <path
       d="m -1308.8214,-327.22382 c 1,1.5 2.1,3 3.2,4.5 -5.9,1 -14.9,-7.3 -14.8,-12.8 0.7,0.3 1.4,0.6 2.4,1 -0.7,-2.3 -2.2,-3.9 -3.2,-6 0.8,-1 1.6,-2.1 2.4,-3 1.3,-1.3 2.4,-1.6 4,-0.6 2.7,1.8 5.4,3.7 8,5.5 0.5,0.4 1,0.8 1.2,1.4 0.3,0.7 0.7,1.7 0.4,2.1 -0.4,0.6 -1.4,0.9 -2.2,0.9 -0.9,0 -1.8,-0.4 -2.7,-0.6 -0.5,-0.1 -1,-0.2 -1.8,0 0.4,0.5 0.9,1.1 1.4,1.6 0.3,0.3 0.8,0.5 1.2,0.8 2.4,1.5 2.5,2.1 0.9,4.4 -0.2,0.2 -0.3,0.5 -0.4,0.8 z"
       id="path2091"
       inkscape:connector-curvature="0" />
    <path
       d="m -1137.6214,-386.72383 c 0,-0.5 -0.2,-1 0,-1.3 2.4,-4.2 4.8,-8.3 7.3,-12.5 0.9,-1.5 2.4,-1.7 3.9,-1.6 4.5,0.1 8,2.8 9.2,7.2 1.5,5.6 0.6,10.9 -2.5,15.8 -1.8,2.7 -4.3,4.4 -7.5,5 -4.2,0.8 -8.2,-1.8 -9.1,-6 -0.3,-1.6 -0.5,-3.2 -0.8,-5.3 0.8,0.4 1.4,0.5 1.5,0.8 0.2,0.6 0.3,1.3 0.3,2 0.2,2.9 2.1,4.4 4.6,5.3 2.5,0.9 4.7,0.7 6.6,-1.4 3.6,-3.9 5,-8.5 4.2,-13.7 -0.3,-1.9 -1.2,-3.5 -2.6,-4.8 -1.8,-1.7 -3.7,-1.8 -5.7,-0.2 -0.8,0.7 -1.6,1.5 -2.2,2.4 -1.4,1.9 -2.6,3.8 -4,5.7 -0.7,1 -1.6,1.9 -2.3,2.8 -0.4,-0.1 -0.7,-0.2 -0.9,-0.2 z"
       id="path2093"
       inkscape:connector-curvature="0" />
    <path
       d="m -1315.9214,-294.22382 c -2.4,-2.6 -5,-5.1 -6,-8.5 0.6,-0.8 1.1,-0.6 1.7,-0.2 3.7,2.7 7.3,5.5 11,8.2 1,0.8 1.2,1.9 1.2,3.3 -1.6,0 -3.1,0 -4.8,0 0.4,0.6 0.6,1 0.9,1.4 1.5,1.7 3,3.3 4.5,5 0.3,0.3 0.5,1.1 0.3,1.4 -0.2,0.3 -0.9,0.6 -1.3,0.5 -1.3,-0.3 -2.6,-0.6 -3.7,-1.3 -2.6,-1.8 -5.2,-3.7 -7.6,-5.7 -0.9,-0.7 -1.5,-2 -1.9,-3.1 -0.2,-0.6 0.3,-1.7 0.8,-2.2 0.3,-0.3 1.3,-0.2 1.9,0.1 1,0.4 1.8,1.1 2.7,1.6 0,-0.3 0.1,-0.4 0.3,-0.5 z"
       id="path2095"
       inkscape:connector-curvature="0" />
    <path
       d="m -1307.3214,-308.62382 c -2.2,1 -4,-0.7 -6.1,-0.5 2.1,2.3 5.7,3.1 6.8,6.4 -1.5,1.1 -2.9,1.4 -4.6,0.5 -2.1,-1.2 -4.4,-2.3 -6.5,-3.6 -2.1,-1.4 -3.8,-3.1 -4.2,-6.1 1,-0.2 2,-0.4 3.3,-0.7 -0.4,-0.7 -0.8,-1.3 -1.1,-2 -0.7,-1.5 -1.4,-2.9 -2,-4.4 -0.3,-0.7 -0.1,-1.5 0.7,-1.7 0.8,-0.2 1.3,0.2 1.6,1 0.9,2.9 3.1,4.5 5.7,5.8 1.1,0.6 2.2,1.2 3.3,1.8 1.7,1 1.9,1.2 3.1,3.5 z"
       id="path2097"
       inkscape:connector-curvature="0" />
    <path
       d="m -1308.8214,-315.92382 c -1.9,0.4 -3.4,0 -4.8,-1.4 -2.3,-2.2 -4.7,-4.3 -7,-6.4 -0.5,-0.5 -1.1,-1 -1.3,-1.6 -0.2,-0.6 -0.1,-1.6 0.3,-1.8 0.5,-0.4 1.7,-0.6 2.1,-0.2 3.5,2.7 7.5,4.9 10.2,8.6 0.6,0.8 1.5,1.7 0.5,2.8 z"
       id="path2099"
       inkscape:connector-curvature="0" />
    <path
       d="m -1307.7214,-277.32382 c -0.2,0.3 -0.2,0.6 -0.4,0.7 -0.7,0.9 -3.2,1.5 -4.2,0.9 -2.7,-1.7 -5.3,-3.4 -8,-5.1 -0.2,-0.1 -0.4,-0.3 -0.6,-0.4 -0.8,-0.7 -1,-1.9 -0.5,-2.7 0.6,-1 1.5,-0.9 2.4,-0.5 3.1,1.5 6.2,3.1 9.3,4.6 0.3,0.2 0.7,0.4 0.9,0.7 0.6,0.6 0.8,1.2 1.1,1.8 z"
       id="path2101"
       inkscape:connector-curvature="0" />
    <path
       d="m -1084.3214,-413.62383 c 6.6,-3.1 13.2,-6.2 20,-9.4 0.3,0.9 0.5,1.7 0.8,2.6 -6.5,3.7 -13,7 -20.6,7.2 -0.1,0 -0.1,-0.2 -0.2,-0.4 z"
       id="path2103"
       inkscape:connector-curvature="0" />
    <path
       class="st0"
       d="m -1321.3214,-189.82382 c 0,-5.5 0,-10.5 0,-15.9 0.9,0.7 1.6,1.2 2.3,1.7 -0.9,3.1 -1.3,6.1 1.1,8.7 2.2,2.4 5.1,3.4 8.4,3.8 0,1.5 0,2.9 0,4.3 -1.4,-0.3 -2.9,-1.1 -5.1,-2.8 -0.6,-0.5 -1.2,-1 -1.8,-1.5 -1.5,-1.2 -2.3,-1.1 -3.6,0.2 -0.4,0.4 -0.7,0.8 -1.3,1.5 z"
       id="path2105"
       inkscape:connector-curvature="0"
       style="fill:#ffffff" />
    <path
       class="st0"
       d="m -1309.4214,-147.42382 c -1.1,-0.5 -1.9,-0.8 -2.5,-1.2 -1.1,-0.8 -2.1,-1.6 -3,-2.5 -2,-1.8 -4.1,-3.3 -7.1,-3 -0.4,-2.2 -0.3,-4.3 -0.1,-6.8 0.6,0.5 1,0.8 1.4,1.2 0.5,0.6 1,1.2 1.5,1.8 2.7,3.1 3.6,5 9.9,4.7 0,0.9 0,1.8 0,2.7 -0.1,0.8 -0.1,1.7 -0.1,3.1 z"
       id="path2107"
       inkscape:connector-curvature="0"
       style="fill:#ffffff" />
    <path
       class="st0"
       d="m -1321.0214,-237.92382 c -0.1,-1.9 -0.3,-3.7 -0.4,-5.7 0.6,0.4 1,0.7 1.4,1 1.1,1 2.1,2.1 3.2,3 2,1.7 4.3,2.5 6.9,1.6 0.2,-0.1 0.5,-0.1 0.7,-0.1 0.1,0 0.1,0 0.4,0.1 0,1.4 0,2.9 0,4.6 -0.4,-0.2 -0.9,-0.3 -1.3,-0.5 -1.7,-1 -3.3,-2 -5,-2.9 -1.8,-0.9 -3.7,-1.3 -5.9,-1.1 z"
       id="path2109"
       inkscape:connector-curvature="0"
       style="fill:#ffffff" />
    <path
       class="st0"
       d="m -1309.2214,-204.62382 c -2.5,-1.8 -4.7,-3.3 -6.8,-4.8 -0.2,-0.2 -0.4,-0.4 -0.9,-0.8 1.4,-0.5 2.6,-0.3 3.7,-0.3 1.2,0 2.3,0 3.7,0 0.5,2 0.6,3.8 0.3,5.9 z"
       id="path2111"
       inkscape:connector-curvature="0"
       style="fill:#ffffff" />
    <path
       class="st0"
       d="m -1321.2214,-164.62382 c -0.6,-1.4 -0.8,-8.5 -0.2,-12.3 1.1,1.5 2,2.8 2.9,4.1 0.2,0.3 0.2,0.8 0.1,1.1 -0.7,2.3 -1.5,4.7 -2.3,7 -0.1,0.1 -0.3,0.1 -0.5,0.1 z"
       id="path2113"
       inkscape:connector-curvature="0"
       style="fill:#ffffff" />
    <path
       class="st0"
       d="m -1325.3214,-38.723823 c 2.1,2.4 4.1,4.8 6.3,7.4 -3.6,0.4 -6.4,-2.7 -6.3,-7.4 z"
       id="path2115"
       inkscape:connector-curvature="0"
       style="fill:#ffffff" />
    <path
       class="st0"
       d="m -1335.8214,-106.42382 c -0.7,2.6 -1.2,4.7 -1.9,7.299997 -1.7,-1.499997 -1.3,-3.099997 -1.1,-4.499997 0.2,-1.6 0.9,-2.3 3,-2.8 z"
       id="path2117"
       inkscape:connector-curvature="0"
       style="fill:#ffffff" />
    <path
       class="st0"
       d="m -1320.5214,-225.62382 c 1.2,1.3 2.3,2.5 3.8,4.2 -1.6,0.2 -2.8,0.4 -4.2,0.5 0,-1.6 0,-3.1 0,-4.5 0.1,0 0.3,-0.1 0.4,-0.2 z"
       id="path2119"
       inkscape:connector-curvature="0"
       style="fill:#ffffff" />
    <path
       class="st0"
       d="m -1326.8214,52.776177 c 0.6,1.1 1.2,2.2 1.9,3.4 -0.7,0.5 -1.3,0.8 -2.1,1.4 -0.6,-1.7 -0.3,-3.2 0.2,-4.8 z"
       id="path2121"
       inkscape:connector-curvature="0"
       style="fill:#ffffff" />
    <path
       class="st0"
       d="m -1321.2214,-187.12382 c 1.1,1.3 1.1,1.3 0.5,2.8 -0.8,-0.9 -0.8,-0.9 -0.5,-2.8 z"
       id="path2123"
       inkscape:connector-curvature="0"
       style="fill:#ffffff" />
    <path
       class="st0"
       d="m -1327.8214,59.576177 c -0.1,-0.4 -0.1,-0.7 -0.2,-1.1 0,0 0.2,-0.1 0.4,-0.1 0.1,0.4 0.2,0.7 0.3,1.1 -0.2,0 -0.4,0 -0.5,0.1 z"
       id="path2125"
       inkscape:connector-curvature="0"
       style="fill:#ffffff" />
    <path
       class="st0"
       d="m -1289.7214,-66.523823 c 0,-20 0,-39.999997 0,-59.999997 2.4,-0.3 3.1,0.2 3,2.5 -0.1,4.3 -0.3,8.7 -0.5,13 -0.5,12.699997 -1,25.399997 -1.5,38.099997 -0.1,2.1 -0.3,4.3 -0.5,6.4 -0.1,0 -0.3,0 -0.5,0 z"
       id="path2127"
       inkscape:connector-curvature="0"
       style="fill:#ffffff" />
    <path
       class="st0"
       d="m -1087.8214,-359.92382 c -0.2,1.8 -0.3,3.2 -0.6,4.7 -1.2,5.7 -7,8.6 -12.4,6.1 -2,-0.9 -3.6,-2.4 -4.8,-4.2 -1.1,-1.7 -1.1,-3.3 0.1,-4.9 2.3,-3.2 5.1,-6 8.1,-8.50001 3.3,-2.7 7.7,-0.8 8.9,2.70001 0.5,1.3 0.5,2.9 0.7,4.1 z"
       id="path2129"
       inkscape:connector-curvature="0"
       style="fill:#ffffff" />
    <path
       class="st0"
       d="m -1031.2214,-392.02383 c 0.4,0.1 0.9,0.2 1.4,0.4 2.4,1.3 4.2,3.1 5.2,5.7 0.6,1.5 0.3,2.8 -0.8,3.8 -0.8,0.7 -1.7,1.5 -2.6,1.8 -1.9,0.7 -4,1.3 -6,1.8 -1.5,0.3 -2.1,0 -2.3,-1.5 -0.2,-1.6 -0.3,-3.2 -0.1,-4.8 0.3,-1.6 0.9,-3.3 1.6,-4.8 0.6,-1.4 1.7,-2.3 3.6,-2.4 z"
       id="path2131"
       inkscape:connector-curvature="0"
       style="fill:#ffffff" />
    <path
       class="st0"
       d="m -1108.4214,-396.72383 c 0.4,-4.2 2.1,-7.4 4.9,-10 1.6,-1.4 3.3,-1.6 5.1,-0.6 1.9,1 3.1,2.6 3.6,4.6 0.5,1.9 -0.2,3.1 -2,3.8 -0.4,0.2 -0.9,0.2 -1.4,0.3 -2.7,0.6 -5.5,1.1 -8.2,1.7 -0.4,0.2 -1.1,0.2 -2,0.2 z"
       id="path2133"
       inkscape:connector-curvature="0"
       style="fill:#ffffff" />
  </g>
</svg>
