<?xml version="1.0" encoding="UTF-8" standalone="no"?>
<!-- Generator: Adobe Illustrator 19.1.0, SVG Export Plug-In . SVG Version: 6.00 Build 0)  -->

<svg
   xmlns:dc="http://purl.org/dc/elements/1.1/"
   xmlns:cc="http://creativecommons.org/ns#"
   xmlns:rdf="http://www.w3.org/1999/02/22-rdf-syntax-ns#"
   xmlns:svg="http://www.w3.org/2000/svg"
   xmlns="http://www.w3.org/2000/svg"
   xmlns:xlink="http://www.w3.org/1999/xlink"
   xmlns:sodipodi="http://sodipodi.sourceforge.net/DTD/sodipodi-0.dtd"
   xmlns:inkscape="http://www.inkscape.org/namespaces/inkscape"
   version="1.1"
   id="Layer_1"
   x="0px"
   y="0px"
   viewBox="0 0 410.20001 91.500003"
   xml:space="preserve"
   inkscape:version="0.91 r13725"
   sodipodi:docname="edx-openedx-logo-color.svg"
   width="410.20001"
   height="91.5"><metadata
     id="metadata82"><rdf:RDF><cc:Work
         rdf:about=""><dc:format>image/svg+xml</dc:format><dc:type
           rdf:resource="http://purl.org/dc/dcmitype/StillImage" /><dc:title></dc:title></cc:Work></rdf:RDF></metadata><defs
     id="defs80" /><sodipodi:namedview
     pagecolor="#ffffff"
     bordercolor="#666666"
     borderopacity="1"
     objecttolerance="10"
     gridtolerance="10"
     guidetolerance="10"
     inkscape:pageopacity="0"
     inkscape:pageshadow="2"
     inkscape:window-width="1280"
     inkscape:window-height="1000"
     id="namedview78"
     showgrid="false"
     fit-margin-top="5"
     fit-margin-left="5"
     fit-margin-right="5"
     fit-margin-bottom="5"
     inkscape:zoom="0.7425"
     inkscape:cx="8.272495"
     inkscape:cy="-2.6827775"
     inkscape:window-x="0"
     inkscape:window-y="24"
     inkscape:window-maximized="1"
     inkscape:current-layer="Layer_1" /><style
     type="text/css"
     id="style3">
	.st0{clip-path:url(#SVGID_2_);}
	.st1{clip-path:url(#SVGID_4_);}
	.st2{clip-path:url(#SVGID_6_);fill:#209FDA;}
	.st3{clip-path:url(#SVGID_6_);fill:#026BA4;}
	.st4{clip-path:url(#SVGID_6_);fill:#78212E;}
	.st5{clip-path:url(#SVGID_6_);fill:#8A8C8F;}
	.st6{clip-path:url(#SVGID_6_);fill:#B72768;}
	.st7{fill:#209FDA;}
	.st8{fill:#8A8C8F;}
</style><g
     id="Logo"
     transform="translate(-199.7,-242.60001)"><defs
       id="defs6"><rect
         id="SVGID_1_"
         x="427.5"
         y="242.39999"
         width="178.60001"
         height="114.6" /></defs><clipPath
       id="SVGID_2_"><use
         xlink:href="#SVGID_1_"
         style="overflow:visible"
         id="use10"
         x="0"
         y="0"
         width="100%"
         height="100%" /></clipPath><g
       class="st0"
       id="g12"
       clip-path="url(#SVGID_2_)"><defs
         id="defs14"><rect
           id="SVGID_3_"
           x="428.60001"
           y="247.60001"
           width="176.3"
           height="81.5" /></defs><clipPath
         id="SVGID_4_"><use
           xlink:href="#SVGID_3_"
           style="overflow:visible"
           id="use18"
           x="0"
           y="0"
           width="100%"
           height="100%" /></clipPath><g
         class="st1"
         id="g20"
         clip-path="url(#SVGID_4_)"><defs
           id="defs22"><rect
             id="SVGID_5_"
             x="428.60001"
             y="247.60001"
             width="176.3"
             height="81.5" /></defs><clipPath
           id="SVGID_6_"><use
             xlink:href="#SVGID_5_"
             style="overflow:visible"
             id="use26"
             x="0"
             y="0"
             width="100%"
             height="100%" /></clipPath><polygon
           class="st2"
           points="553.9,260.5 561.3,260.5 561.3,247.6 537.2,247.6 537.2,262 558,287.6 537.2,313.3 537.2,315.9 547.1,315.9 547.1,329.1 561.3,329.1 561.3,315.9 553.1,315.9 567,298.7 567,298.7 580.9,315.9 572.7,315.9 572.7,329.1 604.9,329.1 604.9,315.9 598.8,315.9 575.9,287.6 598,260.5 604.9,260.5 604.9,247.6 572.7,247.6 572.7,260.5 580,260.5 567,276.6 "
           id="polygon28"
           clip-path="url(#SVGID_6_)"
           style="fill:#209fda" /><polygon
           class="st3"
           points="528.9,260.5 535.9,260.5 537.2,262 537.2,247.6 528.9,247.6 "
           id="polygon30"
           clip-path="url(#SVGID_6_)"
           style="fill:#026ba4" /><polygon
           class="st3"
           points="547.1,315.9 537.2,315.9 537.2,313.3 535.1,315.9 528.9,315.9 528.9,329.1 547.1,329.1 "
           id="polygon32"
           clip-path="url(#SVGID_6_)"
           style="fill:#026ba4" /><path
           class="st4"
           d="m 477.2,309.8 11.4,0 c -1.4,3.4 -3.3,6.4 -5.6,9.1 -2.4,-2.7 -4.4,-5.8 -5.8,-9.1"
           id="path34"
           clip-path="url(#SVGID_6_)"
           inkscape:connector-curvature="0"
           style="fill:#78212e" /><path
           class="st4"
           d="m 483.1,276.2 c -3.3,3.6 -5.7,7.9 -7.1,12.7 0.5,1 1,2.1 1.3,3.3 l 11.3,0 c 0.3,-1.1 0.8,-2.2 1.3,-3.2 -1.3,-4.9 -3.7,-9.3 -6.8,-12.8 z m -5.8,15.9 c 0.5,1.7 0.8,3.5 0.8,5.4 0,1.8 -0.2,3.5 -0.7,5.1 l 11.1,0 c -0.5,-1.6 -0.7,-3.3 -0.7,-5.1 0,-1.9 0.3,-3.7 0.8,-5.4 l -11.3,0 z m 0,0 -2,0 c -0.3,1.8 -0.5,3.6 -0.5,5.4 0,1.7 0.1,3.4 0.4,5.1 l 2.2,0 c 0.4,-1.6 0.7,-3.3 0.7,-5.1 -0.1,-1.9 -0.3,-3.7 -0.8,-5.4 z"
           id="path36"
           clip-path="url(#SVGID_6_)"
           inkscape:connector-curvature="0"
           style="fill:#78212e" /><path
           class="st5"
           d="m 535.9,260.5 -7,0 0,-12.9 -13.3,0 0,12.9 8.6,0 0,11.1 c -5,-3.6 -11.1,-5.7 -17.9,-5.7 -9.2,0 -17.5,3.9 -23.3,10.2 3.2,3.6 5.5,7.9 6.8,12.7 3.1,-5.8 9.2,-9.8 16.3,-9.8 10.2,0 18,8.3 18,18.4 l 0,0.1 c -0.1,10.1 -7.9,18.3 -18,18.3 -7.1,0 -13.2,-4 -16.3,-9.8 l 0,0 c -0.6,-1.1 -1.1,-2.3 -1.4,-3.5 l -13.3,0 c 0.2,1.2 0.5,2.4 0.8,3.6 0.4,1.2 0.8,2.4 1.3,3.6 l 11.4,0 c -1.4,3.4 -3.3,6.4 -5.6,9.1 5.8,6.3 14.1,10.2 23.3,10.2 6.7,0 12.9,-2.1 17.9,-5.7 1.7,-1.2 3.3,-2.6 4.7,-4.2 l 0,-3.3 6.2,0 2.1,-2.6 0,-51.2 -1.3,-1.5 z m -11.7,62.9 0,5.7 4.7,0 0,-9.9 c -1.4,1.6 -3,3 -4.7,4.2 z M 476,288.8 c -0.3,1.1 -0.6,2.2 -0.7,3.3 l 2,0 c -0.4,-1.1 -0.8,-2.2 -1.3,-3.3 z"
           id="path38"
           clip-path="url(#SVGID_6_)"
           inkscape:connector-curvature="0"
           style="fill:#8a8c8f" /><path
           class="st6"
           d="m 490.6,292.1 c -0.2,-1.1 -0.4,-2.2 -0.7,-3.2 -0.5,1 -1,2.1 -1.3,3.2 -0.5,1.7 -0.8,3.5 -0.8,5.4 0,1.8 0.2,3.5 0.7,5.1 l 2.2,0 c 0.3,-1.7 0.4,-3.4 0.4,-5.1 -0.1,-1.8 -0.2,-3.6 -0.5,-5.4 z m -30.4,-26.2 c -15.6,0 -28.6,11.3 -31.1,26.2 l 13.3,0 c 2.3,-7.5 9.3,-13 17.6,-13 7,0 13,4 15.9,9.8 1.4,-4.8 3.8,-9.1 7.1,-12.7 -5.5,-6.3 -13.6,-10.3 -22.8,-10.3 z m 13.3,43.9 c -3.3,3.8 -8,6.2 -13.5,6.2 -8.4,0 -15.5,-5.6 -17.7,-13.3 l 32.9,0 c -0.3,-1.7 -0.4,-3.4 -0.4,-5.1 0,-1.8 0.2,-3.7 0.5,-5.4 l -46.3,0 c -0.3,1.8 -0.5,3.6 -0.5,5.4 0,1.7 0.1,3.4 0.4,5.1 l 0,0 c 2.4,15 15.5,26.5 31.2,26.5 9.2,0 17.3,-3.9 22.9,-10.2 -2.4,-2.6 -4.4,-5.7 -5.8,-9.1 l -3.7,0 z"
           id="path40"
           clip-path="url(#SVGID_6_)"
           inkscape:connector-curvature="0"
           style="fill:#b72768" /></g></g></g><g
     id="g42"
     transform="translate(-199.7,-242.60001)"><path
       class="st7"
       d="m 411.8,319 0.2,0 0,-51.3 6.1,0 0,60.2 -7.7,0 -35,-51.8 -0.2,0 0,51.8 -6.1,0 0,-60.2 7.6,0 35.1,51.3 z"
       id="path44"
       inkscape:connector-curvature="0"
       style="fill:#209fda" /></g><g
     id="g46"
     transform="translate(-199.7,-242.60001)"><path
       class="st7"
       d="m 327.2,322.4 32.2,0 0,5.4 -38.3,0 0,-60.2 37.3,0 0,5.4 -31.2,0 0,20.7 29.2,0 0,5.4 -29.2,0 0,23.3 z"
       id="path48"
       inkscape:connector-curvature="0"
       style="fill:#209fda" /></g><g
     id="g50"
     transform="translate(-199.7,-242.60001)"><path
       class="st7"
       d="m 276.1,267.7 17,0 c 3.1,0 5.8,0.3 8.3,1 2.5,0.7 4.6,1.6 6.4,3 1.8,1.3 3.2,3 4.1,5 1,2 1.4,4.4 1.4,7.1 0,2.7 -0.5,5.1 -1.5,7.1 -1,2 -2.4,3.7 -4.2,5 -1.8,1.3 -3.9,2.3 -6.5,3 -2.5,0.7 -5.3,1 -8.4,1 l -10.7,0 0,28 -6.1,0 0,-60.2 z m 6.1,27 10.4,0 c 4.8,0 8.5,-0.9 11,-2.8 2.5,-1.9 3.7,-4.6 3.7,-8.2 0,-3.7 -1.3,-6.5 -3.9,-8.2 -2.6,-1.7 -6.2,-2.6 -10.8,-2.6 l -10.4,0 0,21.8 z"
       id="path52"
       inkscape:connector-curvature="0"
       style="fill:#209fda" /></g><g
     id="g54"
     transform="translate(-199.7,-242.60001)"><path
       class="st7"
       d="m 266.7,297.1 c 0,4.5 -0.8,8.7 -2.4,12.5 -1.6,3.8 -3.7,7.1 -6.5,9.9 -2.8,2.8 -6,4.9 -9.8,6.5 -3.8,1.6 -7.9,2.4 -12.3,2.4 -4.4,0 -8.5,-0.8 -12.3,-2.4 -3.8,-1.6 -7.1,-3.7 -9.8,-6.5 -2.8,-2.8 -4.9,-6.1 -6.5,-9.9 -1.6,-3.8 -2.4,-8 -2.4,-12.5 0,-4.5 0.8,-8.7 2.4,-12.5 1.6,-3.8 3.7,-7.1 6.5,-9.9 2.8,-2.8 6,-4.9 9.8,-6.5 3.8,-1.6 7.9,-2.4 12.3,-2.4 4.4,0 8.5,0.8 12.3,2.4 3.8,1.6 7.1,3.7 9.8,6.5 2.8,2.8 4.9,6.1 6.5,9.9 1.6,3.8 2.4,8 2.4,12.5 z m -6.4,0.1 c 0,-3.5 -0.6,-6.8 -1.7,-9.9 -1.1,-3.1 -2.7,-5.9 -4.9,-8.3 -2.1,-2.4 -4.7,-4.3 -7.8,-5.7 -3.1,-1.4 -6.5,-2.1 -10.3,-2.1 -3.8,0 -7.2,0.7 -10.3,2.1 -3.1,1.4 -5.6,3.3 -7.8,5.7 -2.1,2.4 -3.8,5.1 -4.9,8.3 -1.1,3.1 -1.7,6.4 -1.7,9.9 0,3.5 0.6,6.8 1.7,9.9 1.1,3.1 2.7,5.9 4.9,8.2 2.1,2.3 4.7,4.2 7.8,5.6 3.1,1.4 6.5,2.1 10.3,2.1 3.8,0 7.2,-0.7 10.3,-2.1 3.1,-1.4 5.6,-3.3 7.8,-5.6 2.1,-2.3 3.8,-5.1 4.9,-8.2 1.1,-3.1 1.7,-6.4 1.7,-9.9 z"
       id="path56"
       inkscape:connector-curvature="0"
       style="fill:#209fda" /></g></svg>