<?xml version="1.0" encoding="UTF-8" standalone="no"?>
<!-- Created with Inkscape (http://www.inkscape.org/) -->

<svg
   xmlns:dc="http://purl.org/dc/elements/1.1/"
   xmlns:cc="http://creativecommons.org/ns#"
   xmlns:rdf="http://www.w3.org/1999/02/22-rdf-syntax-ns#"
   xmlns:svg="http://www.w3.org/2000/svg"
   xmlns="http://www.w3.org/2000/svg"
   xmlns:sodipodi="http://sodipodi.sourceforge.net/DTD/sodipodi-0.dtd"
   xmlns:inkscape="http://www.inkscape.org/namespaces/inkscape"
   width="120.01324mm"
   height="200.89822mm"
   viewBox="0 0 425.24378 711.8441"
   id="svg4844"
   version="1.1"
   inkscape:version="0.91 r13725"
   sodipodi:docname="smart skilled worker.svg">
  <defs
     id="defs4846" />
  <sodipodi:namedview
     id="base"
     pagecolor="#ffffff"
     bordercolor="#666666"
     borderopacity="1.0"
     inkscape:pageopacity="0.0"
     inkscape:pageshadow="2"
     inkscape:zoom="0.35"
     inkscape:cx="-689.52101"
     inkscape:cy="744.4935"
     inkscape:document-units="px"
     inkscape:current-layer="layer1"
     showgrid="false"
     fit-margin-top="0"
     fit-margin-left="0"
     fit-margin-right="0"
     fit-margin-bottom="0"
     inkscape:window-width="1920"
     inkscape:window-height="1056"
     inkscape:window-x="0"
     inkscape:window-y="24"
     inkscape:window-maximized="1" />
  <metadata
     id="metadata4849">
    <rdf:RDF>
      <cc:Work
         rdf:about="">
        <dc:format>image/svg+xml</dc:format>
        <dc:type
           rdf:resource="http://purl.org/dc/dcmitype/StillImage" />
        <dc:title></dc:title>
      </cc:Work>
    </rdf:RDF>
  </metadata>
  <g
     inkscape:label="Layer 1"
     inkscape:groupmode="layer"
     id="layer1"
     transform="translate(-1064.521,-565.01161)">
    <g
       transform="translate(749.66475,547.85566)"
       id="Layer_1" />
    <g
       transform="translate(749.66475,547.85566)"
       id="Layer_2" />
    <path
       d="m 1242.7648,1025.8557 c -1.6,0.8 -2.6,3.1 -1.5,4.5 1,1.3 1.3,2.4 1.1,4 -0.2,1.1 0.1,2.2 0.2,3.3 0,0.4 0.2,1 0,1.2 -3.2,2.9 -1.2,6.5 -1.2,9.7 0.1,5.1 0.8,10.2 1.3,15.2 0.4,3.6 1.2,7.2 1.6,10.8 0.5,4.8 0.8,9.6 1.2,14.5 0.9,11.4 1.8,22.9 2.5,34.3 0.3,4.1 -0.1,8.3 0,12.4 0,1.1 0.4,2.3 0.6,3.8 10.3,-1.6 20.7,-3.2 31.3,-4.9 -0.7,-1.1 -1.1,-2 -1.7,-2.9 -1.2,-1.8 -2.1,-1.6 -3.2,0.2 -0.5,0.8 -1.6,1.2 -2.4,1.7 0,-1.6 -0.2,-2.8 0.1,-3.9 0.3,-1 1,-1.9 1.7,-3.1 -0.5,-0.8 -1.2,-2.1 -1.9,-3.3 0.2,-0.1 0.4,-0.3 0.6,-0.4 0.4,0.4 0.8,0.8 1.2,1.1 3.9,3.2 6.2,7.5 8.7,11.7 0.4,0.6 0.9,1.2 1.3,1.8 2.2,2.9 4.6,5.7 6.5,8.7 1.9,3 3.4,3.8 6.2,2.5 0.6,0 1.2,0 1.8,-0.1 3.1,-0.9 6.2,-1.8 9.3,-2.8 1.3,-0.4 2.7,-0.8 4.5,-1.4 -5.9,0 -10.5,4.1 -16.2,2.2 0.3,0.9 0.5,1.6 0.6,2.2 -2.5,0.1 -3.2,-1.9 -4.7,-3.6 2.6,-0.3 4.9,-0.5 7.1,-1 3.1,-0.7 6.1,-1.9 9.2,-2.5 4.3,-0.8 8.7,-1.3 13.1,-1.9 0.6,-0.1 1.3,0.3 2.3,0.5 -0.2,1.2 -0.7,2.4 -0.7,3.6 0,0.9 0.5,1.9 0.9,2.8 2.2,5.1 3.6,10.4 3.7,16 0,1.8 0.4,3.5 0.2,5.3 -0.1,0.8 -0.9,1.5 -1.3,2.3 -0.5,-0.8 -1.2,-1.6 -1.4,-2.5 -0.8,-4.3 -1.3,-8.7 -2.3,-13 -0.7,-3.2 -1.9,-6.3 -2.9,-9.6 -1.5,0.6 -2.8,1.2 -3.9,1.7 3.2,9.1 6.3,18.1 9.4,27.1 11.2,1.8 22.5,2.3 34,0.8 7.1,-0.9 14.2,-1.3 21.2,-2.2 19.6,-2.4 38.4,-7.5 55.4,-17.9 3,-1.8 6.1,-3.7 8.8,-5.8 1.4,-1.1 2.7,-2 4.1,-3 4.9,-3.3 9.3,-7.1 13.9,-10.9 0.8,-0.7 1.2,-1.8 2,-2.9 1.2,0.1 3.4,-1.7 4.3,-3.9 4.1,-10.9 8.4,-21.6 11.5,-32.8 3.6,-13.3 5.2,-26.7 5.2,-40.4 0,-4.5 -1.5,-9 -2.5,-13.4 -4.8,-21.4 -13.2,-41.3 -26.2,-59.20004 -10.8,-14.9 -23,-28.6 -36.9,-40.7 -13,-11.4 -26.2,-22.6 -39.6,-33.6 -5,-4.2 -10.6,-7.8 -15.9,-11.6 -0.6,-0.4 -1.5,-0.5 -2,-1 -0.5,-0.5 -0.8,-1.3 -1.2,-1.9 0.6,-0.3 1.3,-0.8 1.9,-0.7 0.7,0 1.5,0.4 2.1,0.8 9,6.3 18.3,12.3 26.8,19.2 12.9,10.5 25.4,21.4 37.7,32.6 11.5,10.4 21.6,22.3 30.6,35 8.7,12.2 16,25.30004 20.6,39.60004 2.7,8.6 5.2,17.3 7.3,26.1 0.7,2.9 0.1,6.2 0.1,9.3 0.1,4.1 0.2,8.3 0.3,12.4 0.2,3.8 0.4,7.5 0.6,11.3 -0.2,0 -0.4,0 -0.6,0.1 -0.1,-1.6 -0.3,-3.3 -0.4,-4.9 -0.1,0 -0.2,0 -0.3,-0.1 -0.1,0.5 -0.3,0.9 -0.3,1.4 -0.2,7.7 -2.3,15 -4.4,22.3 -0.7,2.5 -2.1,4.8 -3,7.3 -2.3,6.3 -4.6,12.6 -6.9,18.8 -0.2,0.4 -0.4,0.9 -0.7,1.3 -2.9,4.4 -6,8.8 -8.8,13.3 -1.7,2.7 -4.1,4.4 -6.7,5.9 -2.4,1.4 -4.7,2.8 -7.2,4.1 -1.1,0.6 -1.3,1.3 -1,2.3 2.9,11.1 5.9,22.3 8.8,33.4 0.4,1.7 0.5,3.4 1,5.1 0.8,2.5 1.8,5 2.7,7.5 0.2,0.5 0.1,1.1 0.2,1.6 -0.6,-0.1 -1.5,-0.1 -1.7,-0.4 -1.6,-3 -3.3,-5.9 -4.3,-9 -2.6,-8.1 -5,-16.4 -7.3,-24.6 -1.2,-4.3 -1.7,-8.8 -2.6,-13.4 -1.3,0.7 -2.5,1.2 -3.7,2 -4.7,3 -9.5,6 -14.1,9.2 -6,4.1 -12.8,6.3 -19.8,8.2 -0.6,0.2 -1.2,0.3 -1.8,0.5 -0.1,0 -0.2,0.2 -0.7,0.6 3.3,-0.7 6.2,-1.3 9,-1.9 0.1,0.2 0.1,0.4 0.2,0.6 -6.7,2 -13.3,4 -20,5.9 -9,2.5 -18.3,2.9 -27.6,3 -8,0.1 -16.1,0.1 -24.1,-0.1 -5.2,-0.2 -10.4,-1 -15.7,-1.4 -0.9,-0.1 -1.9,0.4 -2.9,0.6 -1,0.2 -2,0.5 -3,0.7 -3.2,0.6 -6.3,1.5 -9.5,1.5 -3.1,0 -6.2,-0.8 -9.3,-1.5 -1.2,-0.3 -2.1,-0.3 -3,0.6 -1.3,1.3 -2.7,2.4 -3.9,3.7 -5.2,5.7 -12.1,9.3 -18,14.2 -0.2,-0.2 -0.3,-0.3 -0.5,-0.5 6.9,-6.9 13.8,-13.9 20.8,-20.9 -0.3,-0.4 -0.7,-0.8 -0.8,-1.3 -0.1,-0.6 0.1,-1.3 0.1,-2 0.7,0.1 1.5,0 2,0.3 0.9,0.7 1.5,1.5 2.3,0 -1.4,-1.6 -2.7,-3.1 -4.3,-4.9 -0.1,0.9 -0.1,1.6 -0.2,2.8 -0.7,-1.1 -1.2,-1.7 -1.5,-2.4 -2,-4 -3.8,-8.1 -6,-12 -1.8,-3.1 -4.1,-5.9 -6.2,-8.8 -2,-2.8 -4.1,-5.6 -6.2,-8.4 -0.4,-0.5 -1.2,-0.9 -1.8,-0.9 -8.3,1.2 -16.7,2.7 -25,3.9 -3.1,0.4 -6.4,0.3 -9.5,0.6 -1.2,0.1 -2.4,0.9 -3.6,1.1 -6.2,1.1 -12.4,1.9 -18.6,3.1 -3,0.6 -5.6,2.1 -7.6,4.5 -0.8,0.9 -2,1.5 -2.9,2.3 -0.5,0.5 -0.9,1.2 -1.2,1.7 -0.7,0.1 -1.5,0.1 -2.1,0.4 -2.1,1.5 -4.3,3.1 -6.2,4.8 -0.6,0.5 -0.5,1.7 -0.7,2.5 -0.2,0.9 -0.2,1.8 -0.3,2.7 -0.9,-0.1 -1.9,-0.3 -3.2,-0.5 -2.2,2.9 -3.4,6.8 -4.5,10.7 -1.1,3.9 -2,8 -2.8,12 -0.7,3.6 -1.3,7.3 -1.8,11 -0.4,2.6 0.9,4.8 2.2,6.9 0.6,1 0.8,2.2 1.5,3.1 1.9,2.5 4.5,4 7.6,4.6 5.5,1.1 11,2.2 16.5,3.4 0.5,0.1 0.9,0.8 1.2,1.3 1.5,2.2 2.7,4.7 4.4,6.7 3.1,3.4 8.7,3.2 11.7,-0.2 0.4,-0.5 0.3,-1.5 0.5,-2.3 1.5,0.5 3.1,0.9 4.8,1.5 -0.5,0.7 -0.7,1.1 -1.1,1.6 5.1,0.9 10.1,1.4 15,0.1 5.6,-1.5 8.4,-7.7 6.2,-13.4 -0.1,-0.3 -0.3,-0.5 -0.4,-0.7 -0.4,-1 -0.7,-2 -1,-3 -1,0.4 -2.1,0.8 -3.1,1.1 -0.1,0 -0.3,0 -0.5,0 1,-4.6 5.5,-5.3 8.5,-7.4 3.7,-2.5 7.8,-4.6 11.8,-6.7 0.9,-0.5 1.9,-0.7 2.9,-0.8 -2.2,2.5 -4.2,5.1 -7.5,6.5 -3.9,1.7 -7.4,4.3 -11.4,6.7 4.2,1.7 4.5,4.9 4.5,8.5 -0.1,3.5 -0.5,6.7 -3.6,9.1 1.4,3.1 4.4,3.2 7.1,3.2 6.1,0 12.2,0 18.3,-0.3 16.3,-1 32.6,-2 48.8,-3.5 15.2,-1.4 30.4,-3.3 45.6,-5.3 18.1,-2.4 36.2,-4.9 54.2,-7.9 7.4,-1.2 14.5,-3.8 21.8,-5.9 2.1,-0.6 4,-1.7 6.1,-2.4 0.8,-0.3 1.9,0 3,0 -2.8,1.3 -5.4,2.2 -7.9,3.6 -9,5.1 -18.8,7.5 -28.9,8.9 -14.7,2.1 -29.3,4.3 -44,6.2 -11.9,1.6 -23.8,3.1 -35.7,4.2 -16,1.5 -32.1,2.8 -48.2,3.8 -10.5,0.6 -21,0.7 -31.5,0.9 -4.3,0.1 -7.3,-0.4 -10.1,-4.2 -7.3,3.6 -14.8,2.4 -22.8,0.3 2.9,3.4 2.7,7 3.4,10.3 0.6,2.8 1.3,5.6 2.1,8.4 0.5,1.8 1.1,3.7 1.7,5.5 0.2,0.6 0.5,1.4 1,1.7 2.2,1.2 1.3,2.9 0.8,4.5 -1.2,4.2 -2.5,8.4 -3.6,12.6 -0.2,0.7 0.7,1.6 0.9,2.4 0.4,1.3 0.8,2.5 1.2,3.8 -1.4,0 -2.8,0 -4.2,0 -1.6,-2.7 -3.9,-5.2 -3.5,-8.8 0.1,-0.5 -1,-1.2 -1.7,-1.6 -1.8,-1 -3.6,-2 -5.5,-3 -0.8,0.8 -1.6,0.9 -2.1,-0.5 -1.7,-4.2 -3.4,-8.4 -5.1,-12.7 -2,-5.1 -4.1,-10.3 -5.9,-15.5 -1,-2.8 -1.4,-5.7 -2,-8.6 -0.1,-0.5 0.1,-1.1 0.2,-1.6 0.2,0 0.4,-0.1 0.6,-0.1 0.8,1.5 1.7,3 2.3,4.6 2.3,6.5 4.6,13 6.9,19.4 0.9,2.5 1.9,5 2.8,7.6 0.6,1.9 1.8,2.6 3.7,1.7 2.4,-1.2 4.7,-2.7 7,-3.9 0.8,-0.4 1.8,-0.7 2.6,-1 -1.7,-7.2 -3.4,-14.9 -5.2,-22.7 -2.9,1.5 -5.9,0.8 -8.8,0.1 -4.5,-1.2 -6.3,-5 -7.9,-8.9 -0.3,-0.6 -0.8,-1.4 -1.3,-1.5 -2.5,-0.3 -5.2,-0.2 -7.7,-0.6 -4,-0.8 -8.1,-1.5 -11.9,-3 -2.4,-1 -4.7,-2.9 -6.4,-5 -4.3,-5.2 -4.9,-11.2 -3.3,-17.6 1.9,-7.1 3.3,-14.3 5.2,-21.4 1,-3.5 2.5,-6.8 5.1,-9.6 0.5,-0.5 0.8,-1.7 0.5,-2.4 -2.7,-8.7 -4.2,-17.6 -6,-26.5 -1.3,-6.4 -3.8,-12.6 -5.4,-18.9 -2.3,-8.5 -4.3,-17.1 -6.4,-25.7 -0.4,-1.8 -0.8,-3.6 -1.1,-5.5 -0.4,-3.1 1.1,-4.8 4.1,-5.5 2.2,-0.5 4.2,-1.5 6.4,-2.1 1,-0.3 2.1,-0.2 2.8,-0.2 1.2,2.5 2.5,4.5 3.3,6.8 1.1,3.2 2,6.4 2.8,9.7 1.1,4.4 2,8.9 3,13.3 1.4,5.8 2.9,11.6 4.2,17.5 0.6,3 0.6,6.2 1,9.2 0.4,2.9 1,5.7 1.6,8.5 0.9,3.6 2,7.2 3,11 1.2,0.1 1.9,-0.5 1.5,-2.1 -1.7,-6.9 -1.7,-13.9 -0.9,-21 0.4,-3.5 0.2,-7.1 0.3,-10.6 0.1,-11.7 1.6,-23.3 3.5,-34.9 3.2,-19.2 6.6,-38.3 9.9,-57.4 0.6,-3.7 1.1,-7.5 1.7,-11.5 -0.9,0.4 -1.6,0.6 -2.2,0.9 -7.7,3.5 -15.2,7.5 -23.1,10.5 -7.7,2.9 -15.6,5 -23.6,7.1 -10.3,2.7 -20.7,5.1 -31,7.4 -2.5,0.6 -5.2,0.3 -7.8,0.5 -2.5,0.2 -5,0 -7.2,1.8 -0.3,0.3 -0.9,0.2 -1.4,0.2 -6.7,0 -13.5,0.3 -19.9,-1.8 -3.3,-1.1 -6.3,-3 -9.3,-4.8 -2.6,-1.5 -5,-3.2 -7.4,-5 -0.9,-0.7 -1.4,-1.8 -2.1,-2.8 -0.7,-0.9 -1.4,-1.7 -0.5,-2.9 0.2,-0.2 -0.7,-1.3 -1.2,-1.8 -0.5,-0.5 -1.2,-0.8 -2.3,-1.5 1.1,-0.1 1.7,-0.1 2.3,-0.2 0,-0.2 0,-0.4 -0.1,-0.5 -0.5,-1.4 -0.9,-2.8 -1.6,-4 -3,-5.5 -3.2,-11.6 -3.4,-17.70004 -0.3,-8.3 0.4,-16.5 2.9,-24.4 1.6,-5.3 3.8,-10.6 6.3,-15.5 7.1,-13.9 15.1,-27.2 26.4,-38.2 5,-4.9 9.9,-9.8 15,-14.6 2.2,-2.1 4.7,-3.9 7,-5.8 1.4,-1.2 2.6,-2.6 4,-3.8 0.4,-0.4 1.3,-0.2 2,-0.3 0.1,0.7 0.5,1.6 0.2,2 -0.9,1.3 -1.8,2.6 -3,3.6 -9.5,7.8 -18.1,16.5 -26.5,25.4 -7.8,8.2 -13.5,17.9 -19,27.6 -5.2,9.1 -9.4,18.7 -11,29.2 -0.8,5.4 -0.6,10.9 -0.9,16.30004 0,0.3 0.1,0.6 0.1,0.8 -0.9,6.8 1.6,12.9 3.9,19.1 0.2,0.6 1.1,1.3 1.8,1.4 2.1,0.4 2.7,1.6 1.6,3.3 -0.3,0.5 -0.2,1.7 0.1,2 2.3,1.9 4.7,3.7 7,5.5 3.6,2.7 7.9,3.8 12.3,4.4 0.6,0.1 1.2,0.4 1.8,0.5 2,0.5 4,0.7 6,-0.4 1.4,-0.7 3,-1.5 4.7,0.2 0.5,0.5 2.1,0.2 3.1,0 5.2,-0.9 10.3,-2 15.5,-2.9 8,-1.5 16.1,-2.9 24.1,-4.4 16.8,-3.1 32.6,-9.1 47.7,-16.9 2.5,-1.3 5.2,-2.3 7.8,-3.4 1.2,-0.5 1.8,-1.2 2,-2.6 1.1,-9.10004 2.3,-18.10004 3.4,-27.20004 0.9,-7.9 1.7,-15.8 2.6,-23.7 0.1,-1 0,-2.3 1.5,-2.3 1.6,0 1.5,1.3 1.6,2.4 0.2,7.3 -0.5,14.6 -1.5,21.9 -1.3,8.8 -2.3,17.7 -3.3,26.60004 -0.1,0.6 0.2,1.2 0.2,1.8 0,1.7 0.4,3.2 -0.8,5 -1.1,1.7 -0.9,4.2 -1.3,6.4 -2.9,16.5 -6,32.9 -8.7,49.5 -2.5,15.6 -5,31.2 -5.8,47 -0.4,8 -1.1,16 -1.5,24 -0.1,2.5 0.3,4.9 0.5,7.6 2.1,-0.3 4.1,-0.3 5.8,-0.9 8.2,-3.1 16.8,-4.5 25.4,-5.4 0.3,0 0.5,-0.1 1.1,-0.3 -0.2,-0.9 -0.5,-1.8 -0.7,-2.7 -0.4,-1.6 -0.8,-3.2 -1.1,-4.8 -0.8,-5.1 -1.2,-10.2 -2.2,-15.3 -1.7,-8.5 -2,-17.1 -2.5,-25.7 -0.3,-5.4 -1,-10.9 -1.4,-16.3 -0.3,-3.6 -0.1,-7.2 -0.6,-10.8 -1.4,-9.2 -1.4,-18.5 -1.1,-27.8 0.2,-5 1,-10 4,-14.4 2.5,-3.6 6,-5.4 9.9,-6.6 3.1,-0.9 6.4,-1.1 9.5,-2 5.5,-1.5 11,-3.2 16.5,-4.8 11.9,-3.4 23.7,-6.9 35.7,-9.90004 14.9,-3.7 30,-7.2 45,-10.4 10.4,-2.2 21,-3.7 31.5,-5.5 0.8,-0.1 1.6,-0.3 2.8,-0.5 -3.3,-4.4 -6.5,-8.6 -9.6,-12.8 -0.6,-0.8 -1.3,-1.5 -1.7,-2.3 -0.3,-0.6 -0.1,-1.4 -0.1,-2.1 0.7,0.1 1.6,0 2,0.4 2.5,2.6 5.3,5.1 7.3,8.1 1.6,2.4 2.2,5.4 3.4,8.5 2.6,-0.4 5.6,-0.8 8.7,-1.2 3.7,-0.5 7.4,-0.9 11.1,-1.5 1.3,-0.2 2.3,0.3 2.7,1.4 1.2,3.3 2.8,6.7 3.3,10.1 1.3,9.30004 2,18.70004 3,28.00004 0.8,7.3 1.6,14.6 2.5,21.8 0.4,3.3 1.4,6.5 1.8,9.8 0.4,2.8 0.3,5.7 0.7,8.4 0.9,6.2 1.9,12.4 2.9,18.6 0.2,1.3 0.7,2.7 1.1,4.4 3.7,-5.2 5.7,-11.1 8.1,-17 1.2,9.5 -2.2,19 -11,23.7 -2,1.1 -3.8,2.6 -5.7,3.8 -1.5,1 -3.1,1.7 -4.6,2.7 -0.9,0.6 -1.7,1.6 -2.6,2.2 -1.1,0.7 -2.3,1.3 -3.5,1.9 -0.7,0.4 -1.5,0.8 -2.2,1.1 -4.1,1.7 -8.2,3.3 -12.2,4.9 -0.3,0.1 -0.7,0.1 -1,0.3 -4.2,4.1 -10,4.8 -15.2,6.8 -15.6,5.9 -31.8,9.3 -47.8,13.7 -3,0.8 -6,1.5 -9.2,2.3 1.8,2.9 3.9,5.6 1.3,9.2 -0.3,-0.5 -0.8,-1 -1,-1.5 -1,-2 -2,-4.1 -3.1,-6.1 -0.2,-0.3 -0.7,-0.8 -1,-0.7 -2.3,0.2 -2.2,-1.5 -2.5,-2.9 -0.1,-0.4 0,-1 -0.2,-1.3 -2.7,-3 -5.4,-5.9 -8.2,-8.8 -0.5,-0.5 -1.5,-0.9 -2.1,-0.7 -0.5,0.2 -0.7,1.2 -0.8,2 -0.6,3.9 -0.9,7.8 -1.9,11.6 -0.6,2.5 -1.7,-0.2 -2.5,-0.2 0.6,-4.2 1.2,-8.2 1.8,-12.5 -6.7,0.6 -13.5,0 -19.9,2.7 -1.3,0.6 -2.6,0.8 -3.4,2.2 -0.7,1.2 -2.2,1.3 -3.6,0.4 2,-4.3 6,-5.9 10.1,-6.8 4.1,-0.9 8.5,-1 12.7,-1.6 2.2,-0.3 4.3,-0.9 6.4,-1.3 1.3,-0.2 2.5,-0.6 3.7,0.8 3.6,3.9 7.4,7.7 11.2,11.4 0.5,0.5 1.6,0.7 2.3,0.6 10,-2.4 20,-4.8 30,-7.4 11.6,-3.1 23.1,-6.6 34.2,-9.8 0.4,-2.6 1.1,-4.7 1.1,-6.7 -0.1,-7.3 -0.3,-14.5 -0.7,-21.7 -0.4,-6.6 -1.2,-13.1 -1.6,-19.6 -0.3,-5.1 -0.3,-10.2 -0.5,-15.3 0,-1.2 -0.1,-2.4 -0.4,-3.5 -0.1,-0.4 -1.4,-0.9 -1.5,-0.7 -2.8,3 -6.5,1.9 -9.8,2.4 -12,1.7 -24,3 -35.9,4.9 -11.2,1.8 -22.3,4.1 -33.4,6.3 -10,1.9 -20.1,3.8 -30.1,6 -2.4,0.5 -4.6,2 -7,3 -0.3,0.1 -0.7,0.3 -0.8,0.6 -0.4,1 -0.9,2.1 -2.2,1.1 -0.9,-0.7 -0.7,-2.6 0.5,-3.5 1.1,-0.8 2.3,-1.6 3.5,-2.1 4,-1.4 7.9,-2.9 12,-3.7 18,-3.6 35.9,-7.1 54,-10.4 10.9,-2 21.9,-3.7 33,-5.2 3.9,-0.5 7.9,0.3 11.8,0.1 2,-0.1 4.5,-0.6 5.8,-2 1.4,-1.5 1.7,-4 2.3,-6.2 0.1,-0.4 -0.5,-1.1 -0.8,-1.9 -0.7,0.1 -1.7,0.1 -2.4,0.4 -5.8,3 -12.3,3.6 -18.6,4.6 -14.1,2.2 -28.3,4 -42.5,6.3 -10.8,1.7 -21.7,3.4 -32.4,5.9 -9.9,2.3 -19.6,5.6 -29.4,8.6 -1.1,0.3 -2,1.2 -3.1,1.6 -1,0.3 -2.2,0.2 -3.3,0.2 -0.1,-0.3 -0.1,-0.6 -0.2,-0.9 4.1,-1.9 7.9,-4.4 12.2,-5.6 10.9,-3.2 21.9,-6.4 33.1,-8.7 13.6,-2.8 27.4,-4.7 41.1,-6.8 12.6,-1.9 25.3,-3.6 38,-5.5 1.1,-0.2 2.2,-0.8 3.4,-0.9 2.5,-0.2 4.9,-0.3 7.4,-0.4 0,0.2 0,0.5 0.1,0.7 -0.6,0.2 -1.2,0.3 -1.6,0.4 5.5,24 8.6,48.4 11.6,73.3 3.7,-1.8 7.3,-3.7 10.9,-5.6 0.2,-0.1 0,-1.4 -0.3,-1.6 -1.2,-0.7 -2.5,-1.1 -3.6,-2 1.3,0.3 2.5,0.5 4.3,0.8 -0.7,-5.2 -1,-10.2 -2,-15.2 -2.2,-10.8 -4.7,-21.5 -6.9,-32.2 -0.9,-4.2 -1.2,-8.6 -1.8,-12.9 -0.4,-3.1 -1,-6.2 -1.4,-9.4 -0.3,-2.2 -0.3,-4.4 -0.4,-6.6 -0.2,-3.8 -0.5,-7.7 -0.7,-11.5 -0.1,-1.1 -0.3,-1.7 -1.6,-1.5 -11.1,1.8 -22.3,3.2 -33.3,5.3 -15.2,3 -30.3,6.6 -45.4,9.8 -10.7,2.3 -21.4,4.2 -32.1,6.4 -9.3,1.9 -18.6,4.2 -27.9,6.2 -4.2,0.9 -8.4,0.6 -12.3,-1.4 -0.6,-0.3 -0.8,-1.3 -1.2,-1.9 0.7,0.1 1.3,0.1 2,0.2 1.6,0.2 3.2,0.9 4.6,0.7 6.1,-0.9 12.1,-1.9 18.1,-3.2 11.4,-2.5 22.7,-5.5 34.1,-7.9 18.7,-4 37.5,-7.8 56.3,-11.7 7.3,-1.5 14.7,-2.8 22.2,-3 4.6,-0.1 9.3,-0.5 13.9,-1 0.7,-0.1 1.5,-0.7 2.1,-1.2 3.1,-3.30004 6.3,-6.60004 9.3,-10.00004 2.5,-2.9 4.6,-6.2 6.9,-9.3 -0.1,-0.2 -0.2,-0.4 -0.3,-0.7 -2.5,0.4 -5,0.8 -7.5,1.2 -15.2,2.5 -30.4,5 -45.6,7.6 -17.3,2.9 -34.4,6.8 -51.4,11.50004 -4.9,1.4 -10,2.3 -14.8,3.8 -4.5,1.4 -9,2.8 -13.1,5 -4.1,2.1 -8.4,3 -12.7,4 -5,1.1 -10.1,1.5 -15.1,2.6 -2.5,0.5 -4.8,1.9 -7.1,2.9 0.1,0.3 0.2,0.5 0.2,0.8 4.8,-0.6 9.7,-1.1 14.4,-2 14,-2.8 28.1,-5.6 42,-8.7 11.3,-2.5 22.6,-5.4 33.9,-7.8 7.8,-1.7 15.8,-2.9 23.7,-4.40004 1.6,-0.3 3.1,-0.6 4.6,-1.2 3.8,-1.3 7.6,-1.2 10.4,-1 -20.1,4.40004 -41.2,9.00004 -62.3,13.60004 0,0.2 0.1,0.5 0.1,0.7 11.5,-2.1 22.9,-4.2 34.4,-6.5 11.5,-2.3 22.9,-4.90004 34.4,-7.30004 0.1,0.2 0.1,0.4 0.2,0.6 -2.7,0.6 -5.4,1.3 -8.1,1.90004 -6.5,1.6 -13,3.4 -19.5,4.7 -18.9,3.6 -37.8,7 -56.7,10.6 -15.1,2.9 -30.1,5.9 -45.1,8.9 -1,0.2 -2,0.4 -3,0.5 0.7,-0.4 1.4,-0.9 2.1,-1.1 2,-0.5 4,-0.9 6,-1.4 -2.1,-0.1 -4.1,0.1 -6.2,0.2 -1.8,0.1 -3.8,-0.1 -5.5,0.3 -0.9,0.2 -1.6,1.5 -2.4,2.4 0.4,0.3 0.8,0.5 1.2,0.7 z m 155.1,-19.9 c 0.3,1.9 0.5,3.6 0.8,5.3 0.7,3.6 1.5,7.2 2,10.8 0.6,3.9 0.7,7.8 1.4,11.7 1.6,9.1 3.4,18.1 5.1,27.1 1.6,8.3 3.3,16.7 4.9,25 0.4,2.3 0.6,4.6 1,7.5 1.8,-0.7 3.5,-1 4.8,-1.9 1.5,-1 2.6,-2.4 4,-3.6 0.4,-0.4 1.2,-0.3 1.9,-0.4 0,0.2 0,0.4 0.1,0.6 2.1,-0.8 2.3,-2.2 1.7,-4.2 -0.5,-1.8 -0.8,-3.8 -1.1,-5.7 -1.4,-9.5 -3,-19 -4.2,-28.5 -1.4,-11.2 -2.5,-22.4 -3.7,-33.6 -0.5,-4.5 -1.1,-9 -1.6,-13.5 -0.1,-1.1 -0.7,-2.80004 -0.3,-3.30004 1.1,-1 0.6,-2 0.6,-3 -0.1,-1.2 -0.2,-2.3 -0.3,-3.5 -0.4,-2.8 -0.8,-5.6 -1.2,-8.4 -0.2,-0.1 -0.4,-0.1 -0.6,-0.2 -3.4,8 -10.1,13.5 -15.6,20.30004 1.4,0.4 2.4,0.8 3.5,1.1 0,0.1 -0.1,0.2 -0.1,0.3 -1,0.1 -1.9,0.1 -3.1,0.1 z m -192.1,147.5 c -1,-3.8 -2.2,-7.4 -3,-11 -1.1,-5.4 -1.9,-10.8 -2.9,-16.2 -0.7,-3.8 -1.6,-7.6 -2.5,-11.8 -3.1,1.8 -4.7,5.5 -9.1,4.2 5.3,13.2 5.4,27.2 10,40.2 2.7,-2 5.1,-3.7 7.5,-5.4 z m -21.7,-50 c 0.8,-0.3 1.1,-0.5 1.5,-0.6 2.2,-0.9 4.4,-2.1 6.7,-2.5 1.8,-0.3 2.1,-0.9 1.8,-2.4 -0.4,-1.5 -1,-3 -1.2,-4.6 -0.5,-5.1 -2.2,-9.8 -4.2,-14.2 -2.3,0.7 -4.4,1.5 -6.5,1.9 -2,0.4 -2.8,1.3 -2.3,3.3 0.3,1.7 0.7,3.4 1.1,5 0.9,4.7 2,9.3 3.1,14.1 z m 200.1,-64.5 c 1.8,1.8 2.6,4 2.8,6.7 0.4,6 0.7,12 1.2,18 0.7,9 1.8,18 2.3,27 0.4,5.6 1.1,11.4 -2.9,16.5 2.7,-1.1 5.3,-2.2 8.2,-3.4 -3.2,-22.6 -6.3,-45.1 -9.5,-67.6 -0.2,0 -0.4,-0.1 -0.6,-0.1 -0.5,0.9 -1,1.9 -1.5,2.9 z m -156.8,221.9 c 2.6,1.4 5,2.7 7.4,4 2.5,-1.8 2.4,-1.9 3.1,-4.9 0.4,-1.8 1.2,-3.5 1.9,-5.3 -2.1,-0.6 -2.9,-0.3 -4.4,1.3 -0.6,0.6 -1.2,1.1 -1.9,1.5 -1.9,1.1 -3.8,2.1 -6.1,3.4 z m -32.6,-158 c -3.4,1.4 -6.6,2.7 -9.9,4 0.3,1.1 0.7,2.2 0.9,2.9 3.4,-1.2 6.6,-2.4 9.9,-3.5 -0.3,-1.2 -0.5,-2.2 -0.9,-3.4 z m -6.8,13.9 c 0.7,-0.6 1.2,-1.2 1.9,-1.6 1,-0.6 2.1,-1.1 3.1,-1.7 1,-0.6 2,-1.3 3,-2 0.2,-0.2 0.2,-0.6 0.4,-1.5 -3.4,1.1 -6.4,2.1 -9.5,3.1 0.4,1.6 0.8,2.6 1.1,3.7 z m 100.3,31.2 c 0.2,-0.1 0.4,-0.3 0.6,-0.4 -2,-3.1 -4,-6.1 -6.1,-9.1 -0.3,-0.5 -1.3,-0.5 -2,-0.7 -0.1,0.3 -0.3,0.5 -0.4,0.8 2.6,3.1 5.3,6.2 7.9,9.4 z m 20.5,28.4 c 0,0.2 0,0.4 0,0.6 2.6,0 5.2,0 7.8,0 0,-0.2 0,-0.4 0,-0.6 -2.6,0 -5.2,0 -7.8,0 z"
       id="path2388"
       inkscape:connector-curvature="0" />
    <path
       d="m 1247.2648,924.45566 c -1.3,3.6 -4.3,4.4 -7.4,5 -1.5,0.3 -3,0.6 -4.3,1.2 -5,2.2 -9.9,4.5 -14.8,7 -8,4 -14.7,9.7 -21.3,15.8 -5.3,4.9 -11,9.4 -16.6,14.1 -1.5,1.2 -3,2.4 -4.5,3.5 -0.2,0.1 -0.5,0.3 -0.7,0.3 -2.7,-0.6 -3,1.6 -3.7,3.2 -0.9,2.1 -1.2,4.6 -2.4,6.5 -4.3,7.3 -8.5,14.8 -13.5,21.60004 -3.9,5.3 -9.1,9.6 -13.7,14.4 -0.2,0.2 -0.5,0.3 -1,0.3 2.6,-3.9 5.1,-8 8,-11.7 7.8,-10.20004 14.7,-20.90004 20.2,-32.50004 5,-10.5 9.9,-21 14.4,-31.7 2,-4.7 3,-9.8 4.3,-14.7 0.7,-2.6 1.4,-5.3 2.1,-8 0.2,-0.8 0.2,-1.6 0.2,-2.3 -5.1,-1.4 -10.2,-2.2 -14.9,-4.1 -6.5,-2.6 -12.8,-5.8 -19.2,-8.8 -1.2,-0.5 -2.5,-0.9 -3.5,-1.7 -0.7,-0.5 -1.1,-1.5 -1.6,-2.3 0.8,-0.4 1.6,-1.3 2.3,-1.2 1.4,0.3 2.8,1.1 4.2,1.7 5.8,2.7 11.6,5.5 17.4,8.2 0.6,0.3 1.3,0.4 2,0.6 0.5,-1.1 1,-2.2 1.6,-3.5 -6.7,-1.8 -13.3,-3.7 -19.4,-8.1 0.2,1.2 0.3,1.7 0.4,2.4 -4.1,-1.3 -1.4,-4.5 -2,-6.9 -0.8,1 -1.5,1.8 -2.1,2.6 -2.2,2.7 -5.7,3.1 -8.1,0.6 -1.3,-1.3 -2.5,-3.1 -3.1,-4.8 -3.7,-11 -4.2,-22.3 -2.5,-33.8 0.7,-4.8 4,-6.2 9.1,-3.6 -0.6,-2 -1.1,-3.8 -1.8,-5.6 -2.5,-6.4 1.6,-12.7 8.8,-12.4 0,-2 0.1,-4 0,-5.9 -0.1,-3.2 1.4,-5.8 4,-7 2,-0.9 4.6,-0.5 6.9,-0.7 0,-2.1 -0.3,-4.9 0.1,-7.5 0.4,-2.5 1.1,-5.1 2.2,-7.4 1,-2 4.3,-2.1 6.1,-0.6 0.9,0.8 1.8,1.5 2.6,2.4 0.8,0.9 1.4,1.9 2.2,3.1 1.5,-3.9 2.9,-7.5 4.4,-11.4 -1.3,-0.4 -2.6,-0.5 -3.6,-1.1 -2.1,-1.1 -4.1,-2.4 -6.1,-3.7 -0.5,-0.3 -0.7,-1.4 -0.6,-2.1 0.5,-2.8 0.8,-5.8 1.8,-8.5 1.7,-4.9 3.7,-9.8 5.7,-14.6 5.7,-13.5 13.6,-25.8 22.1,-37.7 1.7,-2.4 2.5,-4.5 2.2,-7.1 -0.7,-6.8 1.6,-13.1 3.4,-19.4 1.2,-4.5 3.7,-4.8 8.6,-3.9 3.3,0.6 6.7,1.1 10,1.5 0.6,0.1 1.4,-0.1 1.8,-0.5 2.8,-2.8 5.6,-5.7 8.4,-8.5 0.4,-0.4 0.8,-0.9 1.3,-1.5 -2,-0.7 -3.9,-1.4 -5.8,-1.9 -3.3,-0.9 -5,-3.6 -6.8,-6.1 -0.9,-1.1 -0.1,-4.8 1.1,-5.7 3.2,-2.7 7.1,-3.1 10.9,-2.4 3.3,0.7 6.5,1.6 9,4.2 1,1.1 3,1.3 4.5,2.1 3.1,1.5 6.1,3.1 9.2,4.5 1.6,0.8 3.3,1.4 5.6,2.3 -0.7,-2.1 -1.2,-3.6 -1.6,-5.2 -0.4,-1.2 -0.7,-2.5 -1.2,-4.1 -8.1,-3.5 -17,-6.9 -26.3,-8.7 -5.8,-1.1 -11.6,1.8 -14.3,7 -1,2 -0.4,5 1.9,6.8 -1.3,0.1 -2.3,0.6 -2.7,0.2 -1,-0.7 -2,-1.7 -2.3,-2.8 -1.4,-4.4 1,-7.6 3.9,-10.4 4,-3.8 9,-4.9 14.4,-3.9 0.5,-3.8 3.5,-5.5 6.4,-7.2 5,-3 9.7,-1.9 14.6,0.7 6.1,3.1 12.4,5.8 18.6,8.5 4.4,1.9 9,1.7 13.7,1.7 0.1,-0.2 0.1,-0.4 0.2,-0.6 -1.6,-0.4 -3.3,-0.7 -4.9,-1.1 -3.6,-0.7 -7.3,-1.2 -10.9,-2.3 -2.3,-0.7 -4.1,-2.4 -4.7,-5 -0.4,-1.8 0.2,-3.1 1.8,-3.6 3.5,-1.1 7,-1.4 10.6,-0.8 7.4,1.1 13.9,4.3 20.3,8 6.6,3.8 13.5,6.9 20.9,8.4 4.1,0.8 7.6,3 11.6,4.1 4.4,1.3 8.9,2.1 13.4,2.8 5,0.8 10.1,1.1 15.2,2 2.6,0.4 5.2,1.4 7.7,2.4 1.9,0.8 1.8,2.7 1.1,4.3 -2.8,7.4 -6,14.7 -8.4,22.2 -2.2,6.6 -3.9,13.4 -5.3,20.2 -1.7,8.3 -3,16.6 -4.4,24.9 -0.3,1.6 0.1,3.4 0.1,5.1 0,0.4 0.1,0.9 0,1.2 -2.5,6.4 -2,13.2 -2.5,19.8 -0.7,10.4 -0.9,20.9 -1.4,31.3 -0.4,8.9 -1,17.8 -1.4,26.7 -0.2,4.7 0,9.4 -0.1,14.1 0,1.1 -0.1,2.2 -0.4,3.3 -0.9,3.5 0.1,6.9 0.9,10.2 1.6,7.1 3.5,14 5.2,21.1 0.1,0.6 -0.1,1.6 -0.5,1.9 -0.4,0.3 -1.7,0.1 -1.9,-0.3 -0.9,-1.5 -1.9,-3.1 -2.3,-4.7 -1.6,-7 -3,-14 -4.3,-21.1 -0.6,-3.4 -1,-6.8 -1.2,-10.2 -0.1,-0.9 0.7,-1.8 0.9,-2.8 0.2,-0.8 0.4,-1.7 0.3,-2.6 -1.1,-9.8 0.1,-19.6 0.6,-29.4 0.4,-8.1 0.7,-16.3 1,-24.5 0.2,-5.9 0.5,-11.7 0.8,-17.6 0.1,-1.4 0.2,-2.7 -0.9,-4 -0.6,-0.7 -0.4,-2.5 -0.2,-3.7 0.2,-1.2 0.9,-2.3 1.3,-3.1 -3.5,-1.1 -6.7,-2.1 -9.9,-3.1 -9.2,-2.9 -18.6,-4.9 -28.2,-5.9 -1.6,-0.2 -3.2,-0.9 -4.8,-1.4 -0.3,-0.1 -0.5,-0.3 -0.8,-0.2 -1,0.1 -2,0.4 -3,0.3 -0.9,-0.1 -1.8,-0.6 -2.9,-0.9 0.1,0.9 0.2,1.6 0.3,2.4 -3.2,-1 -3.9,2.6 -6.3,3.6 0,-1 0,-1.8 0,-2.7 -0.6,-0.2 -1.1,-0.3 -1.6,-0.6 -1.7,-0.9 -2.4,-0.1 -2.7,1.5 -0.7,3.2 -2.2,4.4 -5.4,3.9 -7.4,-1.1 -14.9,-2.2 -22.3,-3.5 -8.2,-1.4 -16.3,-3 -24.5,-4.6 -1.1,-0.2 -2.4,-0.2 -3.4,-0.7 -1.3,-0.7 -2.4,-1.9 -4.1,-3.2 -1.9,0.2 -3.2,-1 -3.5,-3.6 -1.3,-10.5 0.8,-20.6 3.4,-30.7 1.1,-4.3 2.6,-8.4 6.1,-11.5 -4.6,-1.3 -6,-1.1 -7.9,1.1 0.5,0.7 1,1.5 1.6,2.2 -0.1,0.1 -0.2,0.2 -0.2,0.4 -0.8,-0.4 -1.6,-0.8 -2.5,-1.2 -0.2,0.1 -0.4,0.1 -0.5,0.2 -5.7,6.4 -11.5,12.7 -17,19.3 -8.7,10.4 -15.6,22 -21.7,34 -3.2,6.3 -5.9,12.8 -8.4,19.4 -1,2.6 -1.2,5.5 -1.5,8.3 -0.1,0.7 0.5,1.8 1,2.1 2.2,0.8 4.5,1.5 6.9,2 3.6,0.8 7.2,2 10.7,1.9 4,-0.1 7.6,1.1 11.4,1.3 0.8,1.3 0.4,2.2 -0.2,3.5 -1.3,2.6 -2.2,5.5 -2.6,8.4 -1.2,8.2 -2.2,16.4 -2.9,24.7 -1,10.4 -0.9,20.8 0.9,31.2 2.4,14.1 9.8,24.4 22.2,31.3 7,3.9 14.5,6.4 22,9 0.6,0.2 1.4,0.6 1.5,1.1 1.5,6.2 5.5,11.2 7.9,17 0.7,1.7 1.8,3.4 0.4,5.5 -5,-6.9 -9.6,-13.7 -11.1,-22.7 -13.1,-1 -25,-5.7 -35.1,-15.7 -0.9,2.1 -1.8,3.8 -2.4,5.5 -1.4,3.9 -2.6,7.8 -3.8,11.8 -0.6,1.8 -0.8,3.8 -1.4,5.6 -0.2,0.7 -0.9,1.3 -1.4,1.9 -0.6,-0.5 -1.2,-1.1 -2,-1.7 -0.5,0.1 -1.2,0.2 -2,0.3 -2.2,0.1 -4.4,0 -6.5,0.1 -0.3,0 -0.8,0.7 -0.9,1.1 -1.7,6.9 -3,13.9 -5.1,20.6 -1.7,5.7 -4.2,11.1 -6.6,16.5 -1.4,3.4 -3.2,6.7 -4.8,10 0.1,0.1 0.3,0.2 0.4,0.4 2.6,-2 5.4,-3.9 7.9,-6.1 5.2,-4.6 10,-9.5 15.3,-14.1 5.5,-4.7 11.5,-8.9 18.1,-12 5.1,-2.4 10.2,-4.7 15.2,-7 0.3,-0.1 0.7,-0.3 1,-0.3 3.5,0.5 7.1,0.7 10.3,-1.4 z m 128.6,-234.7 c -1.6,-0.3 -2.9,-0.5 -4.1,-0.8 -3.2,-0.7 -6.3,-1.8 -9.5,-2.1 -7.9,-0.7 -15.8,-1.9 -23.4,-4.4 -0.5,-0.2 -1.1,-0.2 -1.6,-0.3 -1.5,-0.2 -3,-0.4 -4.4,-0.7 -1.6,-0.4 -3.1,-1.1 -4.7,-1.6 -7.6,-2.1 -14.7,-5.2 -21.4,-9.2 -5.9,-3.5 -12,-6.4 -18.8,-7.5 -2.9,-0.5 -5.8,-0.2 -9.4,0.9 1.4,1.4 2.2,2.8 3.4,3.4 2.1,1.1 4.4,1.9 6.7,2.5 3.4,0.9 6.9,1.4 10.3,2.1 1.5,0.3 2.5,1.4 2.4,2.9 -0.1,1.5 -1.4,1.6 -2.6,1.8 -7.8,0.7 -15.3,-0.6 -22.3,-3.9 -5.4,-2.5 -10.9,-5.2 -16.1,-8.1 -4.9,-2.7 -12.2,0.5 -14.2,4.5 0.7,0.5 1.4,1.3 2.2,1.6 7.2,2.6 14.4,5.2 21.6,7.8 0.8,0.3 1.6,0.5 2.4,0.4 1.6,-0.1 3.1,-0.6 4.6,-0.7 5.9,-0.5 10.8,1.5 14.7,5.9 2.3,2.5 4.6,4.9 6.8,7.5 1.3,1.4 2.5,2.9 3.5,4.6 2.8,4.5 3.7,9.7 4.8,14.8 0.3,1.6 0.1,2.9 -1.5,3.3 -1.6,0.4 -2.4,-0.7 -2.7,-2.2 -0.7,-4.7 -3.2,-8.6 -5.3,-12.7 -2,-3.7 -5,-6.2 -8.8,-7.8 -2.3,-0.9 -4.7,-2 -6.9,-3.1 -2.4,-1.3 -4.9,-1.3 -7.3,-0.3 -0.6,0.3 -1.4,1.2 -1.4,1.8 0,1.5 -0.7,2.2 -2.2,2 -3.8,-0.5 -7.2,-1.9 -10.4,-4.2 -1.7,-1.2 -3.7,-2 -5.5,-3 0.9,2.4 -0.4,3.7 -1.7,5 -0.6,0.6 -1.5,0.8 -2,1.4 -0.5,0.6 -0.6,1.4 -0.9,2.1 -1.1,0.5 -2.5,0.8 -3.4,1.6 -2.9,2.7 -5.6,5.7 -8.4,8.6 -0.3,0.4 -0.5,0.9 -0.5,0.9 2.4,1.6 4.7,3.1 7,4.6 0.4,0.3 1,0.9 1,1.3 -0.1,0.5 -0.7,1.1 -1.2,1.2 -3,0.7 -4.1,3.1 -4.8,5.6 -1.5,5.3 -2.6,10.6 -3.8,15.9 -0.2,1 -0.3,2.1 -0.4,3.2 0.5,-1 0.6,-2.1 0.9,-3.2 1.2,-4.4 2.3,-8.8 4.9,-12.6 1.7,-2.7 3.2,-5.5 4.8,-8.3 0.2,-0.3 0.8,-0.7 1.1,-0.6 0.3,0.1 0.9,0.6 0.9,0.9 -0.1,1.1 -0.3,2.2 -0.7,3.1 -1.9,3.9 -4.2,7.5 -5.8,11.5 -3.1,7.6 -3.8,15.6 -3.4,23.3 1.1,0.4 1.9,0.5 2.4,0.9 3,2.4 6.1,4.4 10,5 6.6,1 13.1,1.8 19.7,3 6.6,1.2 13.5,1.3 19.9,3.6 0.4,0.2 1,0 1.4,-0.1 0.7,-2.2 -0.2,-2.7 -2.1,-2.9 -4.5,-0.5 -9,-1.3 -13.6,-1.9 -11,-1.3 -21.9,-3.2 -32.3,-6.9 -1.9,-0.7 -3.5,-2.1 -5.2,-3.2 0.1,-0.2 0.2,-0.5 0.3,-0.7 0.7,0.1 1.5,0 2.2,0.2 3.2,1 6.3,2.4 9.6,2.9 14,2.4 28.1,4.7 42.1,6.9 0.6,0.1 1.5,-0.5 1.8,-1 1.3,-2.3 2.4,-4.7 3.7,-6.9 3.8,-6.8 6.5,-13.9 7.1,-21.4 -4.8,-2 -9.5,-4 -14.2,-5.9 -4.4,-1.7 -8.7,-4 -13.2,-4.8 -9.4,-1.7 -18.9,-2.6 -28.3,-3.9 -0.1,-2 0.8,-2.6 3.2,-2.3 2.7,0.3 5.5,0.6 8.2,0.7 10.6,0 20.7,2.1 30.2,7 4.8,2.5 9.5,4.9 14.4,7.5 0.1,-0.4 0.2,-0.8 0.4,-1.1 0.5,-0.8 1,-1.7 1.7,-2.4 0.2,-0.2 1.2,0.1 1.2,0.3 0.2,1 0.3,2 0.1,2.9 -0.3,2.1 -0.8,4.1 -1.3,6.2 -0.8,3.6 -1.3,7.3 -2.7,10.7 -1.7,4.3 -4.1,8.3 -6.2,12.4 -0.5,0.9 -0.9,1.8 -1.3,2.8 3,1 3,1 4,-1.7 0.2,-0.5 0.5,-1 0.7,-1.5 4.4,-9.8 8.6,-19.6 9.5,-30.5 0.1,-0.6 0.8,-1.1 1.2,-1.6 0.5,0.6 1.3,1.1 1.3,1.7 0,2.5 0,5 -0.4,7.4 -0.8,5.7 -2.7,11.1 -5,16.4 -1.2,2.9 -2.5,5.8 -3.8,8.9 17.3,1.1 34.3,3.2 50.1,10.9 0.8,-3.4 0.8,-3.5 -2,-4.6 -12.9,-5.1 -26.5,-7.1 -40.3,-8.1 -1.1,-0.1 -2.3,-0.6 -3.3,-1.2 -0.4,-0.2 -0.7,-1.5 -0.5,-1.7 0.4,-0.5 1.2,-0.7 1.9,-0.7 0.9,0 1.9,0.3 2.8,0.4 4.3,0.3 8.6,0.2 12.8,0.9 9.5,1.7 19.1,3.1 28.1,7.1 0.5,0.2 1,0.3 1.4,0.4 1.5,-8.5 2.7,-17 4.5,-25.3 1.7,-7.8 3.5,-15.7 6.1,-23.2 2.5,-7.3 6,-14.5 9.2,-22.3 z m -221.9,165.8 c -0.9,0.3 -1.8,0.7 -2.7,0.7 -2.9,-0.1 -3.3,0.1 -3.7,3 -0.9,6.6 -1,13.3 0.1,19.8 0.7,4.2 1.7,8.4 3.3,12.3 1.4,3.5 3.1,3.3 5.3,0.2 2.3,-3.4 3,-7.2 3.5,-11.2 0.3,-2.9 1,-5.9 -1.4,-8.5 -0.4,-0.5 -0.1,-1.7 0,-2.6 0.1,-0.4 0.5,-0.9 0.9,-1.1 0.2,-0.1 0.7,0.4 1,0.8 0.6,0.7 1.2,1.3 1.7,2 0.6,0.9 1.5,1.9 1.6,2.9 0.2,2.5 0.1,5 0.1,7.8 0.9,-1.3 1.6,-2.5 2.5,-3.3 0.5,-0.5 1.5,-0.5 2.3,-0.5 0.3,0 0.9,0.8 0.8,1 -0.2,0.5 -0.8,0.9 -1.2,1.4 -0.3,0.3 -0.7,0.7 -1,1 -2.5,4 -3.3,8.6 -4,13.2 -0.1,0.6 0.5,1.5 1.1,1.8 2.8,1.4 5.6,3 8.7,3.8 7.9,2.1 15.8,3.9 23.7,5.8 2.8,0.7 5.5,1.5 7.4,4 -5.2,-1 -10.5,-2.1 -15.5,-3.1 -0.7,1.4 -1.3,2.6 -2.1,4 6.1,1.1 12.1,2.2 18.3,3.3 2,-5.7 3.8,-11.5 5.9,-17.1 0.8,-2.1 2.1,-3.9 3.3,-5.9 -4.2,-4.8 -6.8,-10.7 -8.5,-17.1 -0.2,0 -0.3,0.1 -0.5,0.1 0.2,3.4 0.4,6.8 0.7,10.7 -0.5,-1 -0.9,-1.5 -0.9,-2 -0.8,-4.9 -1.9,-9.7 -2.4,-14.7 -0.8,-7.8 -1.2,-15.6 -1.7,-23.4 -0.2,-2.6 0,-5.1 0,-7.7 0.2,0 0.5,-0.1 0.7,-0.1 0.3,0.6 0.6,1.2 0.8,1.8 0.2,0.7 0.1,1.5 0.1,2.3 0,0.7 0.1,1.4 0.1,2 2.1,-13.6 2.5,-27.5 6.7,-41.3 -5.5,1.3 -10.6,0.5 -15.8,-0.5 -0.1,1.8 0.2,3.4 -0.3,4.8 -1.2,3.5 -2.8,6.9 -4.2,10.3 -0.2,0.5 -0.3,1.4 0,1.8 3.2,4.3 5,9.3 6.2,14.3 1.2,4.9 1.8,9.9 2.6,14.9 0.6,4.3 1.3,8.6 1.6,12.9 0.4,6 0.2,12 0.5,18 0.3,6.9 0.7,13.9 1.1,20.8 -0.6,-0.6 -1.3,-1.3 -1.4,-2 -0.5,-3 -1.1,-6 -1.2,-9 -0.3,-6.9 -0.4,-13.8 -0.7,-20.7 -0.2,-5.5 -0.5,-11 -0.7,-16.5 -1.6,2.4 -3.7,3.8 -6.9,3.5 0.4,0.6 0.6,0.9 0.7,1.1 4.3,4.9 5.2,10.5 3.3,16.6 -0.6,1.9 -2.1,3.3 -4,3.2 -2.8,-0.2 -5.6,-0.6 -8.3,-0.9 -0.5,1.7 -1,4.1 -1.9,6.3 -0.5,1.2 -1.7,2.2 -3.2,1.2 -2.2,-1.4 -4.5,-2.7 -6.4,-4.4 -2.5,-2.2 -5,-4.4 -6.8,-7.1 -3.4,-4.5 -6.2,-9.8 -9.2,-14.7 z m 36.9,11.3 c 0.1,0 0.2,-0.1 0.3,-0.1 -0.5,-1.9 -0.8,-3.8 -1.4,-5.6 -0.8,-2.4 -1.9,-4.7 -2.9,-7 -0.4,-0.9 -1,-1.7 -1.6,-2.5 -1.8,-2.4 -4.2,-4.5 -5.5,-7.1 -2.1,-4.5 -3.3,-9.4 -5.4,-13.9 -0.9,-1.9 -1,-4.6 -4.4,-5.1 -4.1,-0.5 -6.1,0.8 -6.4,5 -0.2,2.6 0.6,5 1.5,7.4 0.8,2.1 1.3,4.3 2.2,6.3 1.6,3.5 3.9,6.7 5,10.4 1.7,5.5 5.4,9.5 8.5,14 0.8,1.2 2.2,2.2 3.6,2.7 4.9,1.8 6.5,1.2 6.4,-4 0.1,-0.2 0.1,-0.3 0.1,-0.5 z m 2.4,-22 c 0,0 0.1,0 0.1,0 0,-0.9 0.1,-1.8 0,-2.7 -0.9,-6.1 -1.9,-12.3 -6.1,-17.3 -1.1,-1.3 -1.3,-3.3 -2.4,-4.5 -1.3,-1.4 -3.2,-2.3 -2.2,-4.7 0.1,-0.3 -0.1,-0.8 -0.4,-1.1 -1.1,-1.4 -2,-3 -3.3,-4.2 -2,-2 -3.2,-1.7 -3.8,1.1 -1.1,4.6 -0.5,9.2 0.4,13.8 0.4,1.8 0.5,3.7 0.9,5.5 0.9,3.8 1.3,7.8 4,10.9 2.1,2.5 4.3,4.9 6.5,7.3 0.7,0.8 1.5,1.4 2.4,1.9 2.1,1.2 3.7,0.4 3.9,-2 0.1,-1.4 0,-2.7 0,-4 z m -17.2,33.6 c 0.6,-1.8 0.7,-3.3 1.5,-4 1.9,-1.6 1,-2.7 0.1,-4.2 -3.3,-5.4 -6.5,-10.7 -9.7,-16.1 -0.5,-0.9 -0.6,-2.1 -1.1,-3.1 -1.8,-3.9 -3.7,-7.8 -5.5,-11.7 -5.2,-0.3 -7.7,2.9 -6.3,7.7 2.2,7.8 6.4,14.5 10.7,21.1 2.5,3.9 6.6,6.7 10.3,10.3 z m 70.2,-196.9 c -3.4,-1.3 -6.8,-1.8 -10.2,-0.2 -2,0.9 -2.2,2 -1,3.9 2.2,3.4 5.9,4.4 9.4,5.5 1.2,0.4 2.8,0 4,-0.4 1,-0.3 1.9,-1.3 2.9,-1.9 1.2,-0.7 1.8,-1.8 0.7,-2.8 -1.5,-1.3 -2.6,-4.1 -5.6,-2.1 -0.1,-0.8 -0.2,-1.4 -0.2,-2 z m -24.1,24.8 c -3.6,-1.7 -4.6,-1.3 -5.5,2.6 -0.2,1 0,2.1 0,3.2 0,0.7 0.2,1.4 0,2 -0.6,2 -1.5,4 -2.1,6 -0.5,1.8 -0.7,3.7 -1,5.8 3.9,-2.6 4.6,-6.5 5.6,-10.3 0.8,-3.1 1.9,-6.1 3,-9.3 z m -0.1,9.9 c 0.2,0.1 0.4,0.2 0.6,0.4 1.7,-2 3.4,-3.9 5.2,-6 -1.2,-0.7 -2.1,-1.2 -2.9,-1.6 -0.9,2.4 -1.9,4.8 -2.9,7.2 z m -35.5,100.2 c 0.3,0.1 0.5,0.2 0.8,0.2 0.6,-2.2 1.2,-4.3 1.9,-6.5 -0.1,0 -0.3,-0.1 -0.4,-0.1 -0.8,2.1 -1.5,4.3 -2.3,6.4 z"
       id="path2390"
       inkscape:connector-curvature="0" />
    <path
       d="m 1282.1648,959.55566 c -2.3,1.9 -4.1,3.6 -6.1,5.1 -4.6,3.5 -9.7,5.9 -15.6,5.9 -3.6,0 -7,-2.6 -7.9,-6.1 -0.4,-1.7 -0.4,-3.5 -0.6,-5.6 -1.8,1.6 -3.8,3 -5.4,4.7 -1.8,1.9 -3.2,4 -4.9,6 -0.5,0.5 -1.5,1.2 -2,1 -0.7,-0.2 -1.6,-1.2 -1.5,-1.8 0.1,-2.2 0.6,-4.3 0.9,-6.5 0.1,-0.5 0.1,-1 0.2,-1.4 0.6,-5.7 0.8,-11.5 1.8,-17.1 0.9,-4.6 2.2,-9.2 4.6,-13.4 0.5,-0.9 0.7,-2 1.1,-3.1 0.5,-1.3 1.8,-1.6 2.7,-1 0.5,0.4 0.6,1.9 0.4,2.7 -1.2,3.7 -2.9,7.4 -3.9,11.1 -1.2,4.6 -2.1,9.3 -2.8,13.9 -0.4,2.3 -0.1,4.7 -0.1,7.6 2.8,-3.4 7.1,-4.7 9,-8.6 0.3,-0.7 1.4,-1 2.5,-1.7 -0.3,1.8 -0.6,3.1 -0.8,4.3 0.2,0.1 0.4,0.1 0.6,0.2 0.7,-1.9 1.3,-3.8 1.9,-5.7 0.4,-1.2 0.4,-2.5 1,-3.5 0.4,-0.8 1.5,-1.2 2.3,-1.8 0.5,0.7 1.1,1.3 1.3,2 0.4,1.2 0.7,2.4 0.7,3.6 0,0.8 -0.6,1.5 -1,2.3 -0.5,-0.6 -1.1,-1.1 -1.6,-1.7 -0.9,1.6 -1.9,3.5 -3,5.3 -0.5,0.9 -1.5,1.6 -1.7,2.6 -0.3,2.3 0,4.5 1.6,6.4 1.6,2.1 3.5,2.8 6,2.2 4.9,-1.1 9.3,-3.3 13.3,-6.4 1.7,-1.3 4,-1.9 6.4,-3.1 -3.2,-7.2 -6.6,-14.5 -10,-22 -0.8,0.4 -1.2,0.7 -1.6,0.8 -0.3,0 -0.8,-0.2 -1,-0.4 -0.1,-0.1 0.1,-0.6 0.2,-0.9 1.4,-2.1 3.5,-2.2 4.8,0 2.2,3.7 4.4,7.5 6.1,11.5 5.6,12.3 11,24.8 16.4,37.2 0.7,1.6 1.1,3.4 1.6,5.3 1.1,-1.3 2.2,-2.5 3.2,-3.7 6.3,-7.7 12.7,-15.3 19,-23.1 9.9,-12.4 17.8,-26 22.7,-41.2 2.3,-7.3 5.5,-14.3 9.9,-20.7 0.6,-0.9 1.3,-1.8 2.2,-0.9 0.6,0.5 1,2.1 0.6,2.6 -5.6,8.9 -8.3,18.9 -12.2,28.5 -5.1,12.7 -12.2,24.2 -20.9,34.6 -4.8,5.7 -9.4,11.5 -14.2,17.1 -2.3,2.8 -4.8,5.4 -7.3,8.1 -1.3,1.3 -3.8,1.3 -4.8,-0.4 -1.8,-3 -3.5,-6.1 -5,-9.3 -3,-6.9 -5.9,-13.9 -9.1,-21.5 z"
       id="path2392"
       inkscape:connector-curvature="0" />
    <path
       d="m 1311.4648,619.55566 c -2,0.4 -3.5,0.7 -5,0.9 0,-0.1 -0.1,-0.2 -0.1,-0.3 0.9,-0.5 1.8,-0.9 2.6,-1.4 -3.6,-5 -7.1,-10.1 -10.8,-15.1 -3.4,-4.6 -4.8,-9.6 -3.4,-15.3 0.9,-3.5 0.8,-7.2 2.1,-10.5 2.3,-6.4 7.1,-10 14,-10.7 3.1,-0.3 6.1,-1 9.1,-1.5 4.8,-0.8 9.5,-0.8 14.3,-0.3 5,0.5 9.2,2.6 13.5,4.7 3.5,1.7 5.1,5.1 5.9,8.8 0.3,1.3 0.4,2.6 0.6,4.2 0.6,-0.5 1.1,-0.7 1.3,-1.2 2.6,-4.3 6.7,-5.8 11.5,-5.7 4,0.1 8,0.6 11.9,0.9 5.1,0.4 10.1,1.1 15.1,-0.9 1.2,-0.5 2.8,-0.2 4.7,-0.3 -1,0.9 -1.5,1.4 -2.1,2 2.5,1 4.3,2.3 4,5.2 -0.3,3.1 -0.3,6.2 -3.8,8.1 -2.5,1.4 -4.8,2.1 -7.7,1.8 -0.5,3 -1.1,6 -4.5,6.8 -1.8,0.4 -3.7,0.4 -5.5,0.3 -1,-0.1 -1.5,0 -2.1,1 -2,3.6 -4.9,4.8 -8.9,3.9 -1.3,-0.3 -2.2,0 -3.2,1 -2.7,2.6 -5.5,5.5 -9.8,4.9 -2,-0.3 -4.1,-0.9 -5.7,-2 -1.6,-1 -2.4,-0.7 -3.3,0.7 -2.3,3.7 -3.6,7.6 -3.3,12 0.1,1.5 1.1,2.8 1.3,4.7 -0.8,-0.4 -1.6,-0.8 -2.9,-1.4 -0.2,0.3 -0.4,0.8 -0.8,1.2 -4.7,5.5 -10.8,8 -17.8,8.1 -3.7,0 -7.4,-0.7 -11.1,-1.3 -2.7,-0.4 -6,-4.4 -6.1,-6.9 0,-0.6 0.5,-1.1 0.7,-1.7 0.4,0.4 1,0.8 1.1,1.3 0.7,2.1 3.2,4.3 5.4,4.5 3.1,0.4 6.1,0.9 9.2,1.1 2,0.1 4.2,-0.2 6.1,-0.8 4.2,-1.4 8.2,-3.2 11.3,-6.8 -1.5,-7.4 0.8,-13.6 5.9,-19.2 4.7,-5.2 6.1,-11.6 5.5,-18.5 -0.3,-3.5 -0.4,-7 -2.3,-10 -0.7,-1.2 -2,-2.2 -3.2,-2.9 -1.9,-1.2 -4,-2.1 -6,-3.1 -0.7,-0.3 -1.4,-0.5 -2.1,-0.7 -6.3,-1.4 -12.5,-1.3 -19,-0.8 -4.7,0.3 -9.2,1.4 -13.2,3.5 -3.7,2 -7,5 -7.7,9.6 -0.5,3.3 -0.8,6.6 -1.2,9.9 -0.5,3.2 0.5,6 2.3,8.5 2.9,4 5.9,8 8.6,12.1 1.9,2.5 3.1,4.9 4.6,7.6 z m 83.8,-41.2 c -1.3,0.4 -2.6,1 -3.9,1.2 -5.7,0.6 -11.4,0.1 -17.1,-0.6 -6.2,-0.7 -12.8,-1.8 -17.7,4 -1.2,1.4 -2,2.6 -2,4.4 0,2.6 0.3,5.3 -0.2,7.8 -0.9,4.2 -2.3,8.2 -5.5,11.5 1.5,0.4 2.7,0.8 3.9,1 5.5,1 9.9,-1.8 11.7,-7.1 0.2,-0.5 0.9,-1.3 1.3,-1.2 0.6,0 1.4,0.6 1.6,1.1 0.6,1.5 1.8,1.8 3.2,1.7 2.4,-0.1 3.4,-1.8 4.2,-3.8 1,-2.6 0.9,-2.6 3.6,-1.7 4,1.4 6.4,0.4 7.6,-3.2 1.1,-3.2 1.1,-3.2 4.7,-3.1 3.8,0.2 6.6,-2.3 7.3,-6 0.7,-2.7 -1.5,-4 -2.7,-6 z"
       id="path2394"
       inkscape:connector-curvature="0" />
    <path
       d="m 1168.7648,734.25566 c -3.2,1.6 -6.4,3.1 -9.6,4.8 -1.6,0.9 -3.2,1.9 -4.6,3.1 -2.3,1.9 -4.8,3 -7.7,3.7 -4.8,1.2 -9.5,3 -14.3,4.2 -7.5,1.9 -15.2,1.8 -22.9,1 -7.7,-0.8 -14.7,-3.7 -21.5,-7.1 -4.5,-2.2 -7.8,-5.8 -10.5,-9.8 -5.5,-7.9 -9.2,-16.7 -11.8,-25.9 -2,-7.4 -1.6,-14.9 0.1,-22.2 1.3,-5.8 3,-11.5 5.2,-16.9 2.9,-7.2 6.5,-14.2 9.9,-21.2 0.5,-1 1.5,-2 2.5,-2.6 2.5,-1.4 4.3,-3.3 6.2,-5.4 2.7,-3.1 5.8,-5.7 8.6,-8.6 1.8,-1.9 3.8,-3.7 5,-6 1.7,-3.2 4.2,-5.5 7,-7.4 3.8,-2.6 7.9,-4.8 12,-7 1.4,-0.8 3.1,-0.9 4.7,-1.4 0.9,-0.3 1.8,-0.7 2.7,-1 1.5,-0.4 3,-0.9 4.5,-1.2 1.3,-0.3 2.7,-0.5 4.1,-0.4 -1.2,0.4 -2.4,0.8 -3.6,1.2 -1.6,0.5 -3.1,0.9 -4.7,1.4 -1.2,0.4 -2.3,1 -3.4,1.3 -5.8,1.4 -10.4,5.1 -15.2,8.3 -3.7,2.5 -6,6.1 -8,9.9 -0.4,0.7 -0.9,1.4 -1.5,1.9 -4.7,4.2 -9.4,8.4 -12.9,13.7 -0.3,0.4 -0.7,0.9 -1.2,1.1 -3,1.3 -4.6,3.7 -6,6.5 -5.5,11.1 -10.1,22.5 -12.6,34.7 -2.4,11.5 -0.4,22.3 4.9,32.6 2.6,5.1 5.6,10.1 8.8,15 2.1,3.3 5.5,5.4 9,7.1 16.2,7.6 32.7,7.9 49.4,1.9 0.9,-0.3 1.8,-0.6 2.8,-0.8 3.7,-0.8 7,-2.4 10.3,-4 4.5,-2.2 9.4,-3.4 14.1,-5 0,0.1 0.1,0.3 0.2,0.5 z"
       id="path2396"
       inkscape:connector-curvature="0" />
    <path
       d="m 1135.3648,604.65566 c 1.6,-1 3.2,-2.3 5,-3.1 4.4,-2 9.2,-2.1 14,-2.3 11.7,-0.4 22,4.1 32.3,8.6 6.1,2.7 11.3,6.6 16.1,11.1 3.2,3 6.3,6 9.4,9 2.9,2.7 4.5,6.2 6.2,9.7 2,4 1.7,8.3 2.2,12.5 1.1,8.6 0,17 -2.2,25.2 -2.2,8 -5.1,15.9 -7.6,23.9 -1.8,5.9 -3.9,11.6 -8.1,16.1 -3.4,3.6 -7,7.1 -12.1,8.6 -3.6,1.1 -7,2.9 -10.6,4.4 0.2,4.2 0.5,8.4 0.7,12.6 0.1,1.5 -1.4,2.5 -2.9,2 -2.6,-0.8 -4.5,-2.4 -5.5,-5.1 -0.3,-0.8 -1,-1.4 -1.2,-2.1 -0.2,-0.8 0,-1.7 0.1,-2.6 0.8,0.2 1.7,0.2 2.2,0.6 1,1 1.8,2.3 2.9,3.8 -0.2,-2.4 -0.3,-4.5 -0.5,-6.6 -0.2,-2.7 1,-4 3.7,-4 0.3,0 0.7,-0.1 0.9,-0.3 3.8,-2.7 7.8,-5.1 11.8,-7.5 5.8,-3.4 10.4,-8.5 12.7,-15.1 2.1,-6 4.3,-12 6.2,-18 2,-6.2 4.1,-12.5 5.4,-18.9 1.3,-6.3 1.5,-12.7 0.7,-19.2 -0.5,-3.8 -0.8,-7.6 -2.4,-11.2 -2.1,-4.7 -5.5,-8.3 -9.1,-11.7 -3.5,-3.3 -7,-6.7 -10.9,-9.6 -9.7,-7.5 -21.1,-11.8 -32.9,-14 -8,-1.5 -16.6,-1.6 -24.3,2.5 -0.7,0.4 -1.3,0.7 -2,1.1 0,-0.2 -0.1,-0.3 -0.2,-0.4 z"
       id="path2398"
       inkscape:connector-curvature="0" />
    <path
       d="m 1349.8648,900.35566 c -0.8,3.9 -3.8,4.9 -6.6,5.7 -9,2.2 -17.4,5.8 -25.7,9.8 -10.7,5.2 -21.9,8.7 -33.4,11.6 -5.4,1.3 -10.6,3.2 -15.9,5 -0.6,0.2 -1.3,1.2 -1.4,1.8 -0.7,6 -1,12.1 -1.8,18.1 -0.5,3.4 -1.6,6.8 -2.5,10.2 -0.2,0.6 -1,0.9 -1.5,1.3 1,-10.8 1.9,-21.4 2.8,-32 0.1,-1.6 0.6,-2.2 2.3,-2.5 1.8,-0.2 3.5,-1.2 5.2,-1.7 6.4,-1.8 12.7,-3.7 19.1,-5.4 10.6,-2.8 20.5,-7.3 30.4,-11.9 7.8,-3.6 15.7,-6.8 24.2,-8 1.7,-0.2 3.1,-1.2 4.8,-2 z"
       id="path2400"
       inkscape:connector-curvature="0" />
    <path
       d="m 1334.0648,644.55566 c -1.5,0.3 -3.1,0.6 -4.6,1 -3.5,1 -6.9,2.1 -10.4,3 -3.1,0.8 -6.1,0.5 -8.9,-1.2 -2.2,-1.3 -3,-3.2 -2.4,-5.8 0.1,-0.6 -0.3,-1.7 -0.8,-2.1 -1.3,-1.2 -2,-2.5 -1.7,-4.2 0.1,-0.5 0.7,-0.9 1.1,-1.3 0.3,0.4 0.7,0.9 0.8,1.3 0.3,2.2 3.8,5 6.5,4.9 1.6,0 3.2,-0.3 4.7,-0.7 4.9,-1.2 9.8,-2.4 14.6,-3.9 2.2,-0.7 4.7,-0.9 6.4,-3 0.3,-0.4 1.5,-0.1 2.7,-0.1 -1,1.9 -1.8,3.3 -2.6,4.8 1.6,2.6 1.2,4.1 -1.8,6 0.4,2.7 -1.6,6.1 -4.5,7.1 -4.2,1.5 -8.4,3.3 -12.7,4.2 -3.1,0.6 -6.6,0.3 -9.8,-0.2 -2.4,-0.3 -3.6,-3.1 -2.5,-4.7 0.4,-0.6 1.3,-0.8 2,-1.2 0.1,0.6 0.2,1.2 0.5,1.7 0.4,0.6 1,1.5 1.4,1.5 3.2,-0.2 6.5,-0.4 9.6,-1.1 3.1,-0.7 6,-1.8 9,-3 1.4,-0.6 2.5,-1.6 3.8,-2.5 -0.2,-0.1 -0.3,-0.3 -0.4,-0.5 z m 3.9,-7.2 c -1.3,0.4 -2.6,0.8 -3.9,1.2 -3.8,0.9 -7.6,1.5 -11.3,2.7 -4.2,1.3 -8.2,2.8 -12.6,1 0.5,2 2.4,3.6 4.7,3.3 3.9,-0.5 7.7,-1.4 11.5,-2.2 2.3,-0.5 4.6,-1.4 6.9,-1.9 2.5,-0.5 4.4,-2 4.7,-4.1 z"
       id="path2402"
       inkscape:connector-curvature="0" />
    <path
       d="m 1290.8648,839.55566 c 0.3,-0.5 0.5,-0.8 0.9,-1.4 -2.2,-1.3 -4.4,-2.7 -6.2,-3.8 -0.7,2.6 -1,5.3 -2.3,7.5 -1.5,2.4 -3.6,4.6 -5.9,6.3 -5.6,4.3 -12.1,6.7 -18.8,9 -9.6,3.3 -19.5,4.5 -29.6,3.3 -4.9,-0.6 -9.3,-2.5 -12.6,-6.3 -0.5,-0.6 -0.6,-1.4 -0.9,-2.2 0.2,-0.1 0.3,-0.1 0.5,-0.2 1.4,0.8 2.9,1.6 4.3,2.5 4.6,3.1 9.8,3.2 15.1,3.4 11.6,0.2 22.4,-3.2 32.8,-7.8 4,-1.8 7.6,-4.4 10.7,-7.7 2.9,-3.1 3.9,-9.5 -0.5,-12.7 -1.9,-1.4 -2.2,-3 -1.1,-4 1,-1 3.6,-0.7 4.5,0.9 2.4,4.1 6.9,5.3 10.4,7.8 1.2,0.9 2.3,2.1 3.2,3.3 0.4,0.5 0.3,2 -0.1,2.3 -0.7,0.5 -1.8,0.5 -2.8,0.5 -0.3,0.2 -0.8,-0.3 -1.6,-0.7 z"
       id="path2404"
       inkscape:connector-curvature="0" />
    <path
       d="m 1385.9648,614.55566 c 1.8,0.4 3.4,0.5 4.8,1.2 6.9,3.4 13.1,7.8 18.1,13.7 4.1,4.9 7.6,10.1 11.4,15.2 0.2,0.3 0.3,0.6 0.4,0.9 2.3,6.2 4.8,12.2 6.7,18.5 1.6,5.3 2.7,10.7 3.5,16.2 0.7,4.8 0.8,9.6 0.9,14.5 0.1,5 0.2,10.2 -0.5,15.1 -0.7,5.3 -1.7,10.6 -4.7,15.3 -1.1,1.7 -2,3.5 -3,5.3 -0.2,-0.1 -0.4,-0.1 -0.6,-0.2 0.1,-0.5 0.1,-1.1 0.3,-1.6 5.2,-11.2 5.5,-23.1 5.6,-35.1 0.1,-9.5 -1.1,-18.8 -3.8,-27.8 -3.4,-11.3 -6.9,-22.6 -14.9,-31.9 -4.5,-5.1 -9.1,-10 -15,-13.7 -2.8,-1.8 -5.9,-3.6 -9.2,-5.6 z"
       id="path2406"
       inkscape:connector-curvature="0" />
    <path
       d="m 1312.4648,853.55566 c 10.9,-2.9 20.2,-7.7 28.4,-14.7 6.1,-5.2 7.1,-14.6 3.9,-20.8 -1,-1.9 -2.3,-2.9 -4.5,-2.5 -6.4,1.2 -11.7,4.1 -15.2,9.7 -0.3,0.4 -1,0.6 -1.7,0.7 1.3,-4.5 3.9,-7.8 7.7,-10.1 1.8,-1.1 3.4,-2.2 5.6,-2.9 7.1,-2.2 11.2,0 12.6,7.3 1.2,6.4 0.6,12.6 -3.3,18 -1.8,2.5 -4.2,4.6 -6.7,6.5 -5.8,4.4 -12,8.3 -19,10.3 -1.9,0.6 -4.2,0 -6.3,-0.1 -0.4,-0.1 -0.8,-0.7 -1.5,-1.4 z"
       id="path2408"
       inkscape:connector-curvature="0" />
    <path
       d="m 1411.2648,730.55566 c 0.7,-3.7 0.8,-7.6 2.2,-11 2.6,-6.2 3.1,-12.7 3.7,-19.2 0.8,-9.6 1.1,-19.3 -0.7,-28.8 -3.4,-18.7 -11.8,-34.6 -28.4,-45.1 -4,-2.5 -8.1,-5.2 -13.2,-4.8 -0.4,0 -0.9,-0.2 -1.7,-0.4 5.1,-1.6 9.1,0.4 13.1,2.4 12,6.2 20.2,16 26.1,27.9 3.2,6.4 5.1,13.1 6.8,19.9 0.5,2 0.5,4.1 0.5,6.2 0.1,8.8 0.5,17.7 0,26.5 -0.3,5.3 -1.3,10.7 -4.3,15.6 -1.6,2.6 -2,6 -3,9 -0.2,0.6 -0.4,1.2 -0.6,1.8 -0.2,0.1 -0.4,0.1 -0.5,0 z"
       id="path2410"
       inkscape:connector-curvature="0" />
    <path
       d="m 1321.9648,600.65566 c 3,0 5.5,-0.1 8,0.1 1.1,0.1 2.6,0.6 3.1,1.5 0.7,1.1 -0.3,2.3 -1.5,3 -2.4,1.4 -3.1,3.6 -3.3,6.2 -0.3,3.6 -0.8,7.1 -1.1,10.7 -2.1,-0.8 -2.8,-2.3 -2.6,-4.5 0.3,-3.8 0.2,-7.6 1.8,-11.2 0.2,-0.5 1.2,-1.3 1.5,-1.2 2.1,0.9 2.7,-0.9 4.1,-2.1 -0.8,-0.1 -1.2,-0.3 -1.6,-0.3 -3.2,0.1 -6.4,0.3 -9.5,0.3 -0.9,0 -1.8,-0.7 -2.7,-1.1 0.4,-1 0.7,-2.2 1.4,-2.8 2.4,-2.1 4.9,-4 7.4,-6 -3,0.2 -5.9,0.3 -8.9,0.4 -0.5,0 -1,0.1 -1.4,0 -1.5,-0.7 -3.6,-1.1 -4.1,-2.2 -0.9,-1.8 0,-4.1 1.6,-5.4 6,-4.9 12.8,-7.1 20.6,-6.1 0.4,0.1 0.9,0.1 1.2,0.4 0.3,0.3 0.7,0.8 0.6,1.1 0,0.3 -0.7,0.6 -1.1,0.7 -0.5,0.1 -1.1,0 -1.7,0 -6.1,0.2 -11.8,1.5 -16.7,5.3 -0.8,0.6 -1.4,1.6 -2.5,2.8 1.4,0.3 2.2,0.6 3.1,0.6 4.3,-0.3 8.7,-0.7 13,-1 0.9,-0.1 1.7,0.2 2.6,0.4 -0.4,0.9 -0.7,2.1 -1.4,2.7 -2.9,2.4 -5.9,4.6 -8.9,6.8 -0.2,0 -0.4,0.2 -1,0.9 z"
       id="path2412"
       inkscape:connector-curvature="0" />
    <path
       d="m 1093.1648,682.65566 c 0.8,-0.4 1.2,-0.6 1.7,-0.8 -0.1,-0.2 -0.2,-0.4 -0.3,-0.5 -1.5,-1.2 -1.4,-2 0.3,-2.8 4.4,-2 9,-3.5 14,-3.4 2.1,0.1 5.6,2.4 6.3,4.4 2.1,6 -0.1,13.4 -5.3,17.2 -2.1,1.5 -4.1,3.2 -6.4,3.9 -1.3,0.4 -3.2,-0.9 -4.8,-1.4 0.3,-0.6 0.4,-1.4 0.9,-1.8 0.4,-0.3 1.2,-0.1 2.2,-0.1 -0.3,-0.8 -0.5,-1.5 -0.9,-2.1 -1.7,-2.8 -3.5,-5.5 -5.2,-8.2 -1,-1.3 -1.7,-2.9 -2.5,-4.4 z m 4.4,2.5 c 2.3,3.3 4.7,6.8 7.1,10.3 4.5,-2.3 7.1,-6.1 7.5,-11 0.3,-3.6 -1.5,-6.5 -5.6,-5.9 -2.7,0.4 -5.4,1.1 -8.4,1.7 2.7,2.8 -1,3 -0.6,4.9 z"
       id="path2414"
       inkscape:connector-curvature="0" />
    <path
       d="m 1160.3648,651.95566 c 0.5,1.1 0.8,1.8 1.2,2.6 1.6,3.3 2.1,3.4 5.5,1.9 2.6,-1.2 5.4,-2 8.1,-2.9 0.4,-0.1 1.2,-0.1 1.3,-0.3 1.1,-2.1 2.2,-1.1 3.5,0 -0.2,0.2 -0.5,0.4 -0.6,0.6 -0.4,3.9 -3.7,3.8 -6.3,4.7 -1.8,0.6 -3.6,1.2 -5.1,2.2 -3.5,2.2 -7.4,0.1 -8.8,-3 -1.9,-4.1 -3.6,-8.3 -5.3,-12.4 -0.5,-1.2 -1.3,-2.6 -1,-3.5 0.3,-0.9 1.9,-1.4 3,-2 3.3,-1.7 6.5,-3.6 9.8,-5.1 1.2,-0.5 2.7,-0.2 4.2,-0.3 1.4,2.3 1.2,2.5 -1.4,3.4 -2.5,0.9 -4.9,2.1 -7.3,3.2 -0.6,0.3 -1.1,0.6 -1.7,0.8 -2.5,0.9 -2.7,1.4 -1.6,3.8 0.2,0.4 0.3,0.9 0.3,1.4 0.2,1.5 0.9,2 2.4,1.4 2.1,-0.8 4.3,-1.4 6.9,-2.2 0.2,0.7 1.1,1.9 0.8,2.6 -0.5,0.9 -1.7,1.7 -2.8,2.1 -1.5,0.5 -3.1,0.6 -5.1,1 z"
       id="path2416"
       inkscape:connector-curvature="0" />
    <path
       d="m 1296.7648,608.25566 c -0.8,1.4 0.3,4.1 -2.3,3.9 -1.5,-0.1 -3,-0.7 -4.9,-1.2 -0.9,2.1 -3,2.8 -5.7,2.1 -0.3,-0.1 -0.6,-0.1 -0.8,-0.3 -1.8,-2.4 -4.4,-2.2 -6.9,-2.3 -1.7,-0.1 -2.6,-1 -2.7,-2.7 0,-0.5 -0.2,-1.1 -0.6,-1 -2.7,-1 -5.5,-1.6 -7.9,-3 -2.6,-1.5 -2.7,-4 -1,-6.6 0.9,-1.3 1.7,-2.6 2.4,-3.7 -3.5,-1.4 -6.9,-2.5 -10.1,-4.1 -2.9,-1.4 -5.2,-3.6 -6.6,-6.6 -0.5,-1 -1.4,-1.9 -2,-2.9 -0.4,-0.7 -0.4,-1.6 -0.6,-2.5 0.7,-0.2 1.4,-0.5 2,-0.4 2.2,0.3 4.4,0.6 6.4,1.3 3.4,1.2 6.6,0 9.8,-0.2 3.6,-0.2 7.3,-0.7 10.9,-0.7 6.9,0 13.8,5.6 15.4,12.2 0.1,0.5 0.1,1.1 -0.3,1.8 -0.6,-1.4 -1.1,-2.9 -1.9,-4.2 -3.9,-6.3 -9.6,-8.9 -16.8,-8.5 -3.5,0.2 -7,1 -10.5,1.2 -2.4,0.2 -4.9,0 -7.3,-0.3 -2,-0.2 -4,-0.8 -5.9,-1.2 3.1,8.1 9.4,11.5 17.3,13 2.1,0.4 2.6,1.4 1.6,3.3 -0.4,0.9 -0.9,1.7 -1.5,2.4 -2.8,3.2 -1.6,5.3 2.2,6.4 1.6,0.5 3.4,0.4 5.1,0.4 1.1,0 1.7,0.3 1.8,1.4 0.5,2.9 0.8,3.2 3.8,2.9 1.7,-0.2 3,-0.5 4.1,1.5 0.8,1.5 2.5,1.2 3.5,-0.2 0.3,-0.4 0.7,-0.8 1.1,-1.2 2.2,-2.2 2.2,-2.2 4.3,0.1 1,1.1 2.1,1.9 3.4,0.3 0.3,-0.2 0.8,-0.3 1.2,-0.4 z"
       id="path2418"
       inkscape:connector-curvature="0" />
    <path
       d="m 1133.9648,674.75566 c 0.4,4.1 -2,7.6 -6.5,9.9 -3.1,1.6 -8.2,-0.5 -9.3,-3.8 -0.4,-1.3 -0.8,-2.6 -1,-4 -1,-5.2 1.4,-10.2 5.8,-12.9 2.7,-1.6 5.3,-1.1 7.6,1.3 2.2,2.3 3.3,5.1 3.4,9.5 z m -4.3,-0.5 c 0.2,-0.1 0.4,-0.2 0.6,-0.2 -0.9,-1.9 -1.7,-3.9 -2.8,-5.8 -0.7,-1.2 -2,-1.4 -3,-0.3 -1.3,1.5 -2.4,3.1 -3.4,4.8 -1.3,2.2 -0.8,4.1 1.4,5.5 0.8,0.5 1.3,1.3 2.1,1.9 0.5,0.3 1.4,0.6 1.8,0.4 2.5,-1.4 3.4,-3.6 3.3,-6.3 z"
       id="path2420"
       inkscape:connector-curvature="0" />
    <path
       d="m 1256.6648,1060.8557 c -1.7,6.2 -1.4,12.1 -0.8,18 0.8,8.4 2.1,16.7 2.6,25.1 0.6,9.6 0.7,19.3 0.9,29 0,0.6 -0.7,1.2 -1.1,1.8 -0.4,-0.6 -1.1,-1.2 -1.2,-1.9 -0.1,-1.5 0.1,-3 0.1,-4.6 -0.2,-5.7 -0.4,-11.5 -0.8,-17.2 -1,-12.1 -2.2,-24.2 -3.1,-36.3 -0.4,-5 -0.1,-10.1 1.2,-15 0.4,-1.5 1.3,-1.9 2.6,-1.5 1.4,0.4 2.9,0.8 2.6,2.8 -0.1,0.3 -0.9,0.6 -1.4,0.7 -0.6,0 -1,-0.5 -1.6,-0.9 z"
       id="path2422"
       inkscape:connector-curvature="0" />
    <path
       d="m 1263.9648,1096.0557 c 0.2,6.6 0.5,13.1 0.6,19.7 0,1.4 -0.8,2.9 -0.9,4.3 -0.1,2.4 0,4.8 0.2,7.2 0.1,1.4 0.7,2.8 0.9,4.2 0.1,0.6 -0.4,1.4 -0.6,2 -0.4,-0.5 -1,-0.8 -1.2,-1.4 -1.7,-4.4 -1.8,-9 -1.7,-13.6 0.2,-4.2 0.4,-8.3 -0.6,-12.5 -0.5,-2.2 0.3,-4.7 0.2,-7 -0.2,-10.4 -0.6,-20.9 -0.9,-31.3 0,-1.4 -0.2,-2.7 -0.2,-4.1 0,-0.3 0.3,-0.7 0.5,-1 0.3,0.2 0.9,0.3 1,0.5 0.4,0.9 0.9,1.9 0.9,2.9 0.7,10 1.3,20 1.9,30 0,0.1 -0.1,0.1 -0.1,0.1 z"
       id="path2424"
       inkscape:connector-curvature="0" />
    <path
       d="m 1149.6648,662.45566 c -1.2,-1.9 -2.1,-3.4 -3.2,-4.9 -0.9,-1.3 -2.4,-2.7 -1,-4.1 1.6,-1.6 3,0.3 3.8,1.4 1.4,1.8 2.8,3.8 3.6,5.9 1.3,3.5 -0.8,6 -4.5,5.8 -2.4,-0.1 -4.7,-0.6 -7.1,-0.9 0.4,1.3 0.9,3 1.4,4.6 0.2,0.7 0.6,1.5 0.5,2.2 -0.1,0.8 -0.5,1.9 -1.1,2.2 -0.6,0.3 -1.8,-0.1 -2.3,-0.6 -0.8,-1 -1.3,-2.2 -1.9,-3.4 -1.1,-2.4 -2.1,-4.9 -3.1,-7.4 -0.2,-0.4 -0.5,-0.8 -0.5,-1.1 0.1,-1.2 -0.1,-2.9 0.6,-3.6 1,-1 2.6,-0.8 4,0.3 1.3,1 2.7,1.9 4.1,2.8 2,1 4,1.5 6.7,0.8 z"
       id="path2426"
       inkscape:connector-curvature="0" />
    <path
       d="m 1324.0648,1114.2557 c -1.1,-0.1 -2.2,-0.2 -3.3,-0.4 -1.8,-0.3 -2.4,-1.4 -2.4,-3.3 0.1,-5.5 3.5,-8.6 7.7,-11.1 1.7,-1 3.9,-0.1 4.7,1.7 0.1,0.2 0.3,0.4 0.5,0.6 2.7,3.3 2.5,7.1 -0.8,9.8 -1.8,1.4 -4.2,2.2 -6.3,3.2 0.1,-0.2 0,-0.3 -0.1,-0.5 z m 3,-11.4 c -0.7,1.5 -1.6,2.9 -2.1,4.5 -0.2,0.7 0.2,2.1 0.7,2.3 1.5,0.6 3.3,0.4 4.1,-1.2 0.6,-1.1 0.8,-2.6 0.6,-3.9 -0.3,-1.5 -1.8,-1.7 -3.3,-1.7 z m -3.8,1.7 c -0.3,0 -0.7,-0.1 -1,-0.1 -0.6,2 -1.2,4 -1.6,6 -0.1,0.4 0.6,1.1 1.1,1.3 0.7,0.3 1.6,0.2 2.4,0.2 -3.4,-2.1 0,-5.1 -0.9,-7.4 z"
       id="path2428"
       inkscape:connector-curvature="0" />
    <path
       d="m 1341.4648,805.95566 c 0.2,-2.8 0.3,-5.6 0.6,-8.3 0.8,-6.5 1.7,-13 2.7,-19.4 0.3,-1.7 0.8,-3.4 1.5,-4.9 0.3,-0.7 1.5,-0.9 2.3,-1.3 0.3,0.8 1.1,1.8 0.8,2.4 -2.5,7.3 -3.1,14.9 -4,22.5 -0.3,2.5 -0.5,5.1 -0.9,7.6 -0.3,2.2 -1,2.4 -3,1.4 z"
       id="path2430"
       inkscape:connector-curvature="0" />
    <path
       d="m 1341.6648,780.45566 c -1,5.3 -2,10.6 -3.1,15.8 -0.7,3.4 -1.6,6.8 -2.6,10.2 -0.2,0.6 -1,1 -1.5,1.5 -0.2,-0.8 -0.7,-1.7 -0.6,-2.4 1.1,-5.2 2.5,-10.3 3.4,-15.5 0.8,-5.1 1,-10.4 1.5,-15.6 0,-0.3 0.2,-0.6 0.3,-0.9 0.4,0.2 1.1,0.3 1.1,0.6 0.4,1.4 0.7,2.9 0.9,4.4 0.1,0.6 0,1.2 0,1.9 0.3,0 0.5,0 0.6,0 z"
       id="path2432"
       inkscape:connector-curvature="0" />
    <path
       d="m 1322.3648,838.05566 c 4.5,-3.4 9.1,-6.9 13.6,-10.3 0.9,-0.7 1.7,-1.5 2.7,-2.2 0.6,-0.4 1.3,-0.5 2,-0.7 -0.1,1 0.2,2.5 -0.4,3 -4,3.6 -8.2,7.1 -12.5,10.3 -1.2,0.9 -3.3,0.6 -5,0.9 -0.1,-0.4 -0.3,-0.7 -0.4,-1 z"
       id="path2434"
       inkscape:connector-curvature="0" />
    <path
       d="m 1188.2648,637.65566 c -0.6,0.5 -1.3,1.2 -2.1,1.7 -0.2,0.1 -1,-0.5 -1.1,-0.8 -1.1,-4.5 -2.7,-8.8 -6,-12.2 -0.4,-0.4 -0.2,-1.6 -0.3,-2.4 0.7,0 1.7,-0.3 2.2,0.1 1.1,0.8 2.2,1.9 3,3 2,3.1 3.2,6.5 4.3,10.6 z"
       id="path2436"
       inkscape:connector-curvature="0" />
    <path
       d="m 1296.2648,1135.9557 c -1.8,-0.5 -0.8,-1.9 -0.6,-2.6 0.8,-3.3 1.9,-6.6 2.7,-10 0.3,-1.4 0.3,-2.9 0.6,-4.3 0.1,-0.5 0.4,-0.9 0.7,-1.3 0.3,0.4 0.9,0.9 0.9,1.3 0,1.6 -0.1,3.2 -0.4,4.7 -0.6,2.8 -1.4,5.6 -2.2,8.4 -0.4,1.2 -1.1,2.4 -1.7,3.8 z"
       id="path2438"
       inkscape:connector-curvature="0" />
    <path
       d="m 1187.4648,653.15566 c -0.1,-1.5 0.3,-2.7 2,-2.7 1.7,-0.1 2.8,1.5 2.8,3.6 0,1.3 -0.6,2.1 -2,2 -1.8,-0.1 -2.8,-1.2 -2.8,-2.9 z"
       id="path2440"
       inkscape:connector-curvature="0" />
    <path
       class="st0"
       d="m 1242.7648,1025.8557 c -0.4,-0.2 -0.9,-0.4 -1.3,-0.6 0.8,-0.8 1.5,-2.1 2.4,-2.4 1.8,-0.4 3.7,-0.2 5.5,-0.3 2,-0.1 4.1,-0.3 6.2,-0.2 -2,0.5 -4,0.9 -6,1.4 -0.7,0.2 -1.4,0.7 -2.1,1.1 -1.5,0.4 -3.1,0.7 -4.7,1 z"
       id="path2442"
       inkscape:connector-curvature="0"
       style="fill:#ffffff" />
    <path
       class="st0"
       d="m 1397.8648,1005.9557 c 1.1,0 2.1,0 3.1,0 0,-0.1 0.1,-0.2 0.1,-0.3 -1,-0.3 -2.1,-0.6 -3.5,-1.1 5.4,-6.70004 12.1,-12.20004 15.6,-20.30004 0.2,0.1 0.4,0.1 0.6,0.2 0.4,2.8 0.8,5.6 1.2,8.4 0.2,1.2 0.3,2.3 0.3,3.5 0.1,1 0.6,1.9 -0.6,3 -0.5,0.4 0.1,2.10004 0.3,3.30004 0.5,4.5 1.1,9 1.6,13.5 1.2,11.2 2.3,22.4 3.7,33.6 1.2,9.5 2.8,19 4.2,28.5 0.3,1.9 0.6,3.8 1.1,5.7 0.6,2 0.3,3.4 -1.7,4.2 0,-0.2 0,-0.4 -0.1,-0.6 -0.6,0.1 -1.4,0.1 -1.9,0.4 -1.4,1.1 -2.5,2.6 -4,3.6 -1.4,0.9 -3,1.2 -4.8,1.9 -0.4,-2.9 -0.6,-5.2 -1,-7.5 -1.6,-8.3 -3.3,-16.7 -4.9,-25 -1.7,-9 -3.5,-18.1 -5.1,-27.1 -0.7,-3.9 -0.8,-7.8 -1.4,-11.7 -0.5,-3.6 -1.4,-7.2 -2,-10.8 -0.3,-1.8 -0.5,-3.5 -0.8,-5.4 z m 19.2,53.2 c 0.2,-1.7 0.6,-3.3 0.6,-5 0,-1.8 -0.2,-3.6 -0.4,-5.4 -0.6,-7 -1.1,-14 -1.8,-21 -0.9,-8.4 -2.1,-16.7 -3.2,-25.1 -0.2,-1.8 -0.4,-3.70004 -0.6,-5.50004 -0.6,0.6 -0.8,1.2 -0.8,1.8 0.3,5.90004 0,12.00004 1,17.80004 2.4,14.1 3.4,28.2 5.2,42.4 z m -13.1,-60.50004 c -0.2,0 -0.3,0 -0.5,0 1.9,22.20004 3.8,44.50004 5.7,66.70004 -0.2,-22.3 -2.3,-44.6 -5.2,-66.70004 z"
       id="path2444"
       inkscape:connector-curvature="0"
       style="fill:#ffffff" />
    <path
       class="st0"
       d="m 1205.7648,1153.4557 c -2.4,1.7 -4.8,3.5 -7.5,5.4 -4.7,-13 -4.7,-27 -10,-40.2 4.4,1.4 6,-2.3 9.1,-4.2 0.9,4.2 1.8,8 2.5,11.8 1,5.4 1.8,10.8 2.9,16.2 0.8,3.6 2,7.2 3,11 z"
       id="path2446"
       inkscape:connector-curvature="0"
       style="fill:#ffffff" />
    <path
       class="st0"
       d="m 1184.0648,1103.4557 c -1.1,-4.8 -2.1,-9.4 -3.2,-14 -0.4,-1.7 -0.8,-3.4 -1.1,-5 -0.4,-2 0.4,-2.9 2.3,-3.3 2.1,-0.4 4.2,-1.2 6.5,-1.9 2,4.4 3.7,9.1 4.2,14.2 0.2,1.6 0.8,3.1 1.2,4.6 0.4,1.5 0,2.1 -1.8,2.4 -2.3,0.4 -4.4,1.6 -6.7,2.5 -0.3,0 -0.6,0.2 -1.4,0.5 z"
       id="path2448"
       inkscape:connector-curvature="0"
       style="fill:#ffffff" />
    <path
       class="st0"
       d="m 1384.1648,1038.9557 c 0.5,-1 1,-2 1.5,-2.9 0.2,0 0.4,0.1 0.6,0.1 3.2,22.5 6.3,45 9.5,67.6 -2.8,1.2 -5.5,2.3 -8.2,3.4 4,-5.2 3.2,-11 2.9,-16.5 -0.6,-9 -1.6,-18 -2.3,-27 -0.5,-6 -0.8,-12 -1.2,-18 -0.2,-2.7 -1,-4.9 -2.8,-6.7 z"
       id="path2450"
       inkscape:connector-curvature="0"
       style="fill:#ffffff" />
    <path
       class="st0"
       d="m 1227.3648,1260.8557 c 2.2,-1.3 4.1,-2.3 6,-3.4 0.7,-0.4 1.4,-0.9 1.9,-1.5 1.5,-1.6 2.3,-1.9 4.4,-1.3 -0.6,1.7 -1.4,3.5 -1.9,5.3 -0.7,3.1 -0.6,3.1 -3.1,4.9 -2.2,-1.4 -4.6,-2.6 -7.3,-4 z"
       id="path2452"
       inkscape:connector-curvature="0"
       style="fill:#ffffff" />
    <path
       class="st0"
       d="m 1194.7648,1102.8557 c 0.3,1.2 0.6,2.2 0.9,3.4 -3.3,1.2 -6.5,2.3 -9.9,3.5 -0.2,-0.7 -0.5,-1.8 -0.9,-2.9 3.4,-1.3 6.6,-2.6 9.9,-4 z"
       id="path2454"
       inkscape:connector-curvature="0"
       style="fill:#ffffff" />
    <path
       class="st0"
       d="m 1187.9648,1116.7557 c -0.4,-1.1 -0.7,-2.2 -1.2,-3.6 3.1,-1 6.1,-2 9.5,-3.1 -0.2,0.8 -0.2,1.3 -0.4,1.5 -1,0.7 -2,1.3 -3,2 -1,0.6 -2.1,1.1 -3.1,1.7 -0.5,0.3 -1.1,0.9 -1.8,1.5 z"
       id="path2456"
       inkscape:connector-curvature="0"
       style="fill:#ffffff" />
    <path
       class="st0"
       d="m 1288.2648,1147.9557 c -2.7,-3.2 -5.3,-6.3 -8,-9.5 0.1,-0.3 0.3,-0.5 0.4,-0.8 0.7,0.2 1.7,0.2 2,0.7 2.1,3 4.1,6.1 6.1,9.1 -0.1,0.2 -0.3,0.4 -0.5,0.5 z"
       id="path2458"
       inkscape:connector-curvature="0"
       style="fill:#ffffff" />
    <path
       class="st0"
       d="m 1297.1648,1148.8557 c -0.2,-0.6 -0.4,-1.3 -0.6,-2.2 5.7,2 10.3,-2.2 16.2,-2.2 -1.9,0.6 -3.2,1 -4.5,1.4 -3.1,0.9 -6.2,1.9 -9.3,2.8 -0.6,0.2 -1.2,0.1 -1.8,0.2 -0.1,0 0,0 0,0 z"
       id="path2460"
       inkscape:connector-curvature="0"
       style="fill:#ffffff" />
    <path
       class="st0"
       d="m 1308.7648,1176.3557 c 2.6,0 5.2,0 7.8,0 0,0.2 0,0.4 0,0.6 -2.6,0 -5.2,0 -7.8,0 0,-0.3 0,-0.5 0,-0.6 z"
       id="path2462"
       inkscape:connector-curvature="0"
       style="fill:#ffffff" />
    <path
       class="st0"
       d="m 1375.8648,689.75566 c -3.3,7.8 -6.8,15 -9.3,22.5 -2.5,7.6 -4.4,15.4 -6.1,23.2 -1.8,8.3 -3,16.7 -4.5,25.3 -0.4,-0.1 -0.9,-0.2 -1.4,-0.4 -9,-3.9 -18.6,-5.3 -28.1,-7.1 -4.2,-0.8 -8.5,-0.6 -12.8,-0.9 -0.9,-0.1 -1.9,-0.4 -2.8,-0.4 -0.7,0 -1.5,0.2 -1.9,0.7 -0.2,0.3 0.1,1.5 0.5,1.7 1,0.6 2.2,1.1 3.3,1.2 13.8,1 27.3,3 40.3,8.1 2.8,1.1 2.8,1.2 2,4.6 -15.8,-7.7 -32.8,-9.8 -50.1,-10.9 1.3,-3.1 2.5,-6 3.8,-8.9 2.3,-5.3 4.2,-10.7 5,-16.4 0.3,-2.4 0.4,-4.9 0.4,-7.4 0,-0.6 -0.9,-1.1 -1.3,-1.7 -0.4,0.5 -1.1,1.1 -1.2,1.6 -1,10.8 -5.2,20.7 -9.5,30.5 -0.2,0.5 -0.5,1 -0.7,1.5 -0.9,2.7 -0.9,2.7 -4,1.7 0.5,-0.9 0.9,-1.9 1.3,-2.8 2.1,-4.1 4.5,-8.1 6.2,-12.4 1.3,-3.4 1.8,-7.1 2.7,-10.7 0.5,-2 1,-4.1 1.3,-6.2 0.2,-1 0,-2 -0.1,-2.9 0,-0.2 -1.1,-0.4 -1.2,-0.3 -0.7,0.7 -1.2,1.6 -1.7,2.4 -0.2,0.3 -0.3,0.7 -0.4,1.1 -4.9,-2.5 -9.6,-5 -14.4,-7.5 -9.5,-4.9 -19.6,-7 -30.2,-7 -2.7,0 -5.5,-0.4 -8.2,-0.7 -2.4,-0.2 -3.2,0.3 -3.2,2.3 9.5,1.2 19,2.2 28.3,3.9 4.5,0.8 8.8,3.1 13.2,4.8 4.7,1.9 9.4,3.9 14.2,5.9 -0.6,7.5 -3.3,14.6 -7.1,21.4 -1.3,2.3 -2.4,4.7 -3.7,6.9 -0.3,0.5 -1.3,1.1 -1.8,1 -14.1,-2.2 -28.1,-4.4 -42.1,-6.9 -3.3,-0.6 -6.4,-2 -9.6,-2.9 -0.7,-0.2 -1.5,-0.1 -2.2,-0.2 -0.1,0.2 -0.2,0.5 -0.3,0.7 1.7,1.1 3.3,2.5 5.2,3.2 10.5,3.7 21.3,5.6 32.3,6.9 4.5,0.5 9,1.4 13.6,1.9 1.9,0.2 2.8,0.7 2.1,2.9 -0.4,0 -0.9,0.2 -1.4,0.1 -6.4,-2.3 -13.3,-2.4 -19.9,-3.6 -6.5,-1.2 -13.1,-2 -19.7,-3 -3.9,-0.6 -7,-2.6 -10,-5 -0.5,-0.4 -1.3,-0.5 -2.4,-0.9 -0.4,-7.7 0.3,-15.7 3.4,-23.3 1.6,-4 3.9,-7.6 5.8,-11.5 0.5,-0.9 0.6,-2.1 0.7,-3.1 0,-0.3 -0.5,-0.9 -0.9,-0.9 -0.3,-0.1 -0.9,0.3 -1.1,0.6 -1.6,2.7 -3.1,5.6 -4.8,8.3 -2.5,3.9 -3.7,8.3 -4.9,12.6 -0.3,1.1 -0.4,2.1 -0.9,3.2 0.1,-1.1 0.2,-2.1 0.4,-3.2 1.2,-5.3 2.4,-10.6 3.8,-15.9 0.7,-2.5 1.8,-4.9 4.8,-5.6 0.5,-0.1 1.1,-0.8 1.2,-1.2 0.1,-0.4 -0.5,-1 -1,-1.3 -2.2,-1.5 -4.5,-3 -7,-4.6 0,0 0.2,-0.5 0.5,-0.9 2.8,-2.9 5.5,-5.8 8.4,-8.6 0.9,-0.8 2.3,-1.1 3.4,-1.6 0.3,-0.6 0.4,-1.5 0.9,-2.1 0.5,-0.6 1.5,-0.8 2,-1.4 1.3,-1.3 2.6,-2.6 1.7,-5 1.9,1 3.9,1.8 5.5,3 3.1,2.3 6.6,3.7 10.4,4.2 1.5,0.2 2.2,-0.5 2.2,-2 0,-0.6 0.8,-1.5 1.4,-1.8 2.4,-1.1 4.8,-1 7.3,0.3 2.2,1.2 4.6,2.2 6.9,3.1 3.9,1.6 6.8,4 8.8,7.8 2.2,4.1 4.7,8 5.3,12.7 0.2,1.4 1,2.6 2.7,2.2 1.6,-0.4 1.8,-1.7 1.5,-3.3 -1.1,-5.1 -2,-10.3 -4.8,-14.8 -1,-1.6 -2.3,-3.1 -3.5,-4.6 -2.2,-2.5 -4.5,-5 -6.8,-7.5 -4,-4.4 -8.9,-6.3 -14.7,-5.9 -1.6,0.1 -3.1,0.6 -4.6,0.7 -0.8,0.1 -1.6,-0.1 -2.4,-0.4 -7.2,-2.6 -14.4,-5.1 -21.6,-7.8 -0.8,-0.3 -1.5,-1 -2.2,-1.6 2.1,-4 9.3,-7.3 14.2,-4.5 5.2,2.9 10.7,5.6 16.1,8.1 7.1,3.3 14.5,4.7 22.3,3.9 1.2,-0.1 2.6,-0.2 2.6,-1.8 0.1,-1.5 -0.9,-2.6 -2.4,-2.9 -3.4,-0.7 -6.9,-1.2 -10.3,-2.1 -2.3,-0.6 -4.6,-1.4 -6.7,-2.5 -1.2,-0.6 -2.1,-2 -3.4,-3.4 3.5,-1.1 6.4,-1.4 9.4,-0.9 6.8,1.1 12.9,4 18.8,7.5 6.7,4 13.9,7.2 21.4,9.2 1.6,0.4 3.1,1.2 4.7,1.6 1.4,0.4 2.9,0.5 4.4,0.7 0.5,0.1 1.1,0.1 1.6,0.3 7.6,2.5 15.4,3.7 23.4,4.4 3.2,0.3 6.3,1.4 9.5,2.1 1.3,0.1 2.6,0.3 4.2,0.6 z m -122.1,59 c 5.5,0 10.7,-1.2 15.7,-3.7 7.5,-3.7 12.2,-9.9 16.1,-16.9 0.7,-1.2 0.8,-2.7 -0.7,-3.1 -0.9,-0.3 -2.7,0.2 -3.2,0.9 -3.4,5.3 -8.1,9.2 -13.3,12.6 -2.9,1.9 -6.1,3.5 -9.3,4.9 -2.1,0.9 -3.3,-0.2 -2.8,-2.5 0.3,-1.5 0.8,-2.9 1.4,-4.3 1.8,-4.3 3.6,-8.6 5.4,-13 0.2,-0.6 0.4,-1.8 0,-2 -0.6,-0.4 -1.6,-0.6 -2.3,-0.3 -0.9,0.3 -1.9,1 -2.4,1.8 -1.2,1.8 -2.1,3.7 -3.2,5.5 -2.8,5 -5,10.2 -6.6,15.7 -0.6,2.2 0.7,4.3 3,4.3 0.8,0.1 1.5,0.1 2.2,0.1 z m 62.8,-26.6 c -5.6,-5.9 -12.6,-7.5 -19.4,-9.1 -8.5,-2 -17.2,-3.5 -25.8,-5.1 -5.5,-1 -11,-1.7 -16.5,-2.6 -2.3,-0.4 -4.7,-0.9 -7,-1.2 -0.8,-0.1 -1.7,0 -2.6,0 0.2,0.8 0.3,1.7 0.6,2.5 0.2,0.4 0.8,0.8 1.3,0.9 1.7,0.4 3.5,0.6 5.2,0.9 5.7,0.9 11.4,1.9 17.1,2.8 15,2.5 29.9,5.2 44.2,10.6 0.7,0.3 1.5,0.1 2.9,0.3 z m 33.1,29.2 c 0.2,0 0.3,-0.1 0.5,-0.1 0.9,-0.8 2,-1.6 2.8,-2.6 1.1,-1.2 2.7,-2.4 3.1,-3.9 0.9,-3.4 1.2,-6.9 1.7,-10.4 1,-6.1 1,-12.2 0.3,-18.4 -0.1,-0.8 -1.1,-2.2 -1.8,-2.2 -1.6,0 -1.2,1.5 -1.2,2.5 -0.1,4.7 0,9.4 -0.4,14 -0.3,3.8 -1.4,7.5 -1.7,11.2 -0.2,2.2 -0.8,4.1 -2.1,5.9 -0.7,1.2 -0.8,2.7 -1.2,4 z m -8,3.6 c 0,0.2 0,0.3 0,0.5 0.9,-0.3 2.2,-0.4 2.6,-1 1.6,-2.5 3.4,-5.1 4.3,-8 2.4,-7.5 3.7,-15.3 4.2,-23.2 0.2,-2.8 -0.5,-5.6 -0.9,-8.4 -0.1,-0.5 -1,-0.8 -1.5,-1.2 -0.2,0.6 -0.7,1.3 -0.7,1.9 0,1.5 0.4,3 0.3,4.5 -0.4,11.3 -2.5,22.2 -6.7,32.7 -0.2,0.9 -1,1.5 -1.6,2.2 z m 10,-47.9 c 0.1,-0.1 0.3,-0.2 0.4,-0.3 -0.7,-1.5 -1.4,-2.9 -2.1,-4.4 -2.7,-6 -7.6,-9.6 -13.4,-11.9 -7.9,-3.1 -16.2,-4.3 -24.6,-5.4 -2.9,-0.4 -5.9,-0.4 -8.8,-0.6 1.8,0.9 3.7,1.3 5.5,1.7 7.7,1.7 15.5,3.2 23.2,5.1 6.8,1.7 12.2,5.6 16.1,11.5 1.1,1.7 2.5,2.9 3.7,4.3 z m 3.7,-4.2 c 0.1,-0.1 0.2,-0.2 0.4,-0.3 -0.6,-1 -1.4,-2 -1.9,-3.1 -1.9,-4.1 -5.1,-7.1 -8.5,-9.9 -5.1,-4.1 -11.2,-5.8 -17.2,-7.9 -1,-0.3 -2.2,-0.2 -3.2,0 -0.4,0.1 -0.7,0.7 -1,1.1 0.3,0.2 0.6,0.5 0.9,0.6 1.7,0.5 3.4,0.8 5.1,1.4 8,2.5 14.9,6.8 20.2,13.5 1.3,1.8 3.4,3.1 5.2,4.6 z"
       id="path2464"
       inkscape:connector-curvature="0"
       style="fill:#ffffff" />
    <path
       class="st0"
       d="m 1153.9648,855.55566 c 2.9,4.9 5.7,10.1 9.1,15 1.8,2.7 4.4,4.9 6.8,7.1 1.9,1.7 4.2,3 6.4,4.4 1.5,1 2.7,0 3.2,-1.2 0.9,-2.2 1.4,-4.5 1.9,-6.3 2.7,0.3 5.5,0.7 8.3,0.9 1.9,0.1 3.4,-1.2 4,-3.2 1.8,-6.1 1,-11.7 -3.3,-16.6 -0.2,-0.2 -0.3,-0.4 -0.7,-1.1 3.2,0.2 5.2,-1.2 6.9,-3.5 0.2,5.5 0.5,11 0.7,16.5 0.2,6.9 0.3,13.8 0.7,20.7 0.2,3 0.7,6 1.2,9 0.1,0.8 0.7,1.5 1.4,2 -0.4,-6.9 -0.8,-13.9 -1.1,-20.8 -0.2,-6 -0.1,-12 -0.5,-18 -0.3,-4.3 -0.9,-8.6 -1.6,-12.9 -0.7,-5 -1.4,-10 -2.6,-14.9 -1.3,-5.1 -3,-10 -6.2,-14.3 -0.3,-0.4 -0.2,-1.3 0,-1.8 1.4,-3.5 2.9,-6.8 4.2,-10.3 0.5,-1.4 0.2,-3 0.3,-4.8 5.2,1 10.3,1.8 15.8,0.5 -4.2,13.8 -4.6,27.6 -6.7,41.3 0,-0.7 -0.1,-1.4 -0.1,-2 0,-0.8 0,-1.5 -0.1,-2.3 -0.1,-0.6 -0.5,-1.2 -0.8,-1.8 -0.2,0 -0.5,0.1 -0.7,0.1 0,2.6 -0.1,5.1 0,7.7 0.5,7.8 0.9,15.6 1.7,23.4 0.5,4.9 1.6,9.8 2.4,14.7 0.1,0.5 0.5,1 0.9,2 -0.3,-3.9 -0.5,-7.3 -0.7,-10.7 0.2,0 0.3,-0.1 0.5,-0.1 1.7,6.4 4.3,12.3 8.5,17.1 -1.1,2 -2.5,3.9 -3.3,5.9 -2.1,5.7 -4,11.4 -5.9,17.1 -6.1,-1.1 -12.2,-2.2 -18.3,-3.3 0.8,-1.4 1.4,-2.6 2.1,-4 5,1 10.2,2 15.5,3.1 -2,-2.4 -4.6,-3.3 -7.4,-4 -7.9,-1.9 -15.9,-3.7 -23.7,-5.8 -3,-0.8 -5.8,-2.4 -8.7,-3.8 -0.5,-0.3 -1.2,-1.3 -1.1,-1.8 0.7,-4.6 1.5,-9.1 4,-13.2 0.2,-0.4 0.6,-0.7 1,-1 0.4,-0.4 0.9,-0.8 1.2,-1.4 0.1,-0.2 -0.5,-1 -0.8,-1 -0.8,0 -1.8,0 -2.3,0.5 -0.9,0.9 -1.6,2.1 -2.5,3.3 0,-2.7 0.2,-5.3 -0.1,-7.8 -0.1,-1 -1,-1.9 -1.6,-2.9 -0.5,-0.7 -1.1,-1.4 -1.7,-2 -0.3,-0.3 -0.8,-0.9 -1,-0.8 -0.4,0.2 -0.9,0.7 -0.9,1.1 -0.2,0.9 -0.5,2.1 0,2.6 2.4,2.6 1.7,5.6 1.4,8.5 -0.4,3.9 -1.1,7.8 -3.5,11.2 -2.1,3.1 -3.9,3.3 -5.3,-0.2 -1.6,-3.9 -2.6,-8.1 -3.3,-12.3 -1.1,-6.6 -1,-13.2 -0.1,-19.8 0.4,-2.9 0.8,-3.1 3.7,-3 1,-0.3 1.9,-0.7 2.8,-1 z"
       id="path2466"
       inkscape:connector-curvature="0"
       style="fill:#ffffff" />
    <path
       class="st0"
       d="m 1190.8648,866.85566 c 0,0.1 0,0.3 0,0.4 0.1,5.2 -1.5,5.8 -6.4,4 -1.3,-0.5 -2.8,-1.5 -3.6,-2.7 -3.1,-4.5 -6.8,-8.5 -8.5,-14 -1.1,-3.6 -3.4,-6.9 -5,-10.4 -0.9,-2 -1.5,-4.2 -2.2,-6.3 -0.9,-2.4 -1.6,-4.7 -1.5,-7.4 0.2,-4.2 2.3,-5.5 6.4,-5 3.4,0.4 3.5,3.2 4.4,5.1 2.1,4.5 3.3,9.4 5.4,13.9 1.3,2.6 3.6,4.8 5.5,7.1 0.6,0.8 1.1,1.6 1.6,2.5 1,2.3 2.1,4.6 2.9,7 0.6,1.8 1,3.7 1.4,5.6 -0.2,0.2 -0.3,0.2 -0.4,0.2 z"
       id="path2468"
       inkscape:connector-curvature="0"
       style="fill:#ffffff" />
    <path
       class="st0"
       d="m 1193.2648,844.85566 c 0,1.3 0.1,2.6 0,3.9 -0.3,2.4 -1.9,3.2 -3.9,2 -0.9,-0.5 -1.7,-1.2 -2.4,-1.9 -2.2,-2.4 -4.4,-4.8 -6.5,-7.3 -2.6,-3.1 -3.1,-7.1 -4,-10.9 -0.4,-1.8 -0.5,-3.7 -0.9,-5.5 -1,-4.6 -1.5,-9.1 -0.4,-13.8 0.7,-2.7 1.8,-3.1 3.8,-1.1 1.3,1.2 2.2,2.8 3.3,4.2 0.2,0.3 0.5,0.9 0.4,1.1 -1,2.4 0.9,3.3 2.2,4.7 1.1,1.2 1.3,3.2 2.4,4.5 4.2,5 5.2,11.1 6.1,17.3 0.1,0.9 0,1.8 0,2.7 -0.1,0.1 -0.1,0.1 -0.1,0.1 z"
       id="path2470"
       inkscape:connector-curvature="0"
       style="fill:#ffffff" />
    <path
       class="st0"
       d="m 1176.0648,878.45566 c -3.7,-3.6 -7.8,-6.4 -10.4,-10.3 -4.3,-6.6 -8.5,-13.4 -10.7,-21.1 -1.3,-4.8 1.2,-8 6.3,-7.7 1.8,3.8 3.7,7.7 5.5,11.7 0.5,1 0.5,2.2 1.1,3.1 3.2,5.4 6.4,10.8 9.7,16.1 0.9,1.5 1.8,2.7 -0.1,4.2 -0.7,0.7 -0.8,2.2 -1.4,4 z"
       id="path2472"
       inkscape:connector-curvature="0"
       style="fill:#ffffff" />
    <path
       class="st0"
       d="m 1246.2648,681.55566 c 0.1,0.6 0.1,1.1 0.2,2 3,-2 4.1,0.7 5.6,2.1 1.1,1 0.4,2.1 -0.7,2.8 -1,0.6 -1.8,1.6 -2.9,1.9 -1.3,0.4 -2.8,0.8 -4,0.4 -3.5,-1.1 -7.2,-2.1 -9.4,-5.5 -1.2,-1.9 -1.1,-3 1,-3.9 3.4,-1.6 6.8,-1 10.2,0.2 z"
       id="path2474"
       inkscape:connector-curvature="0"
       style="fill:#ffffff" />
    <path
       class="st0"
       d="m 1222.1648,706.35566 c -1.1,3.2 -2.2,6.2 -3,9.3 -1,3.8 -1.6,7.7 -5.6,10.3 0.3,-2.1 0.5,-4 1,-5.8 0.6,-2 1.4,-4 2.1,-6 0.2,-0.6 0,-1.3 0,-2 0,-1.1 -0.3,-2.2 0,-3.2 0.9,-3.9 1.9,-4.3 5.5,-2.6 z"
       id="path2476"
       inkscape:connector-curvature="0"
       style="fill:#ffffff" />
    <path
       class="st0"
       d="m 1222.0648,716.25566 c 1,-2.4 1.9,-4.8 2.9,-7.2 0.8,0.4 1.7,0.9 2.9,1.6 -1.8,2.1 -3.5,4 -5.2,6 -0.2,-0.2 -0.4,-0.3 -0.6,-0.4 z"
       id="path2478"
       inkscape:connector-curvature="0"
       style="fill:#ffffff" />
    <path
       class="st0"
       d="m 1186.5648,816.45566 c 0.7,-2.1 1.5,-4.2 2.2,-6.3 0.1,0 0.3,0.1 0.4,0.1 -0.6,2.2 -1.2,4.3 -1.9,6.5 -0.2,-0.2 -0.4,-0.3 -0.7,-0.3 z"
       id="path2480"
       inkscape:connector-curvature="0"
       style="fill:#ffffff" />
    <path
       class="st0"
       d="m 1395.2648,578.35566 c 1.2,2 3.4,3.3 2.8,6.2 -0.7,3.7 -3.5,6.1 -7.3,6 -3.6,-0.2 -3.6,-0.2 -4.7,3.1 -1.3,3.7 -3.6,4.7 -7.6,3.2 -2.7,-0.9 -2.7,-0.9 -3.6,1.7 -0.7,1.9 -1.7,3.7 -4.2,3.8 -1.4,0.1 -2.5,-0.2 -3.2,-1.7 -0.2,-0.5 -1,-1.1 -1.6,-1.1 -0.4,0 -1.1,0.7 -1.3,1.2 -1.8,5.3 -6.3,8.1 -11.7,7.1 -1.3,-0.2 -2.5,-0.6 -3.9,-1 3.2,-3.3 4.6,-7.4 5.5,-11.5 0.5,-2.5 0.3,-5.2 0.2,-7.8 0,-1.8 0.9,-3 2,-4.4 5,-5.8 11.5,-4.7 17.7,-4 5.7,0.7 11.4,1.1 17.1,0.6 1.2,-0.4 2.5,-1 3.8,-1.4 z"
       id="path2482"
       inkscape:connector-curvature="0"
       style="fill:#ffffff" />
    <path
       class="st0"
       d="m 1337.9648,637.35566 c -0.3,2.2 -2.2,3.6 -4.8,4.1 -2.3,0.4 -4.6,1.3 -6.9,1.9 -3.8,0.8 -7.6,1.7 -11.5,2.2 -2.2,0.3 -4.1,-1.3 -4.7,-3.3 4.4,1.8 8.5,0.4 12.6,-1 3.7,-1.2 7.5,-1.8 11.3,-2.7 1.4,-0.4 2.7,-0.8 4,-1.2 z"
       id="path2484"
       inkscape:connector-curvature="0"
       style="fill:#ffffff" />
    <path
       class="st0"
       d="m 1097.5648,685.15566 c -0.4,-1.9 3.3,-2.1 0.7,-4.8 3,-0.6 5.6,-1.3 8.4,-1.7 4,-0.6 5.8,2.3 5.6,5.9 -0.4,4.9 -2.9,8.7 -7.5,11 -2.5,-3.6 -4.9,-7.1 -7.2,-10.4 z"
       id="path2486"
       inkscape:connector-curvature="0"
       style="fill:#ffffff" />
    <path
       class="st0"
       d="m 1129.6648,674.25566 c 0.1,2.7 -0.8,4.9 -3.3,6.2 -0.4,0.2 -1.3,-0.1 -1.8,-0.4 -0.8,-0.5 -1.3,-1.4 -2.1,-1.9 -2.1,-1.3 -2.7,-3.3 -1.4,-5.5 1,-1.7 2.1,-3.3 3.4,-4.8 0.9,-1.1 2.3,-0.9 3,0.3 1.1,1.8 1.9,3.8 2.8,5.8 -0.2,0.2 -0.4,0.2 -0.6,0.3 z"
       id="path2488"
       inkscape:connector-curvature="0"
       style="fill:#ffffff" />
    <path
       class="st0"
       d="m 1327.0648,1102.8557 c 1.5,-0.1 3,0.1 3.4,1.7 0.2,1.2 0,2.8 -0.6,3.9 -0.8,1.6 -2.6,1.8 -4.1,1.2 -0.5,-0.2 -0.9,-1.6 -0.7,-2.3 0.4,-1.5 1.3,-3 2,-4.5 z"
       id="path2490"
       inkscape:connector-curvature="0"
       style="fill:#ffffff" />
    <path
       class="st0"
       d="m 1323.2648,1104.5557 c 0.8,2.3 -2.6,5.3 0.8,7.4 -0.8,-0.1 -1.6,0 -2.4,-0.2 -0.5,-0.2 -1.2,-1 -1.1,-1.3 0.4,-2 1,-4 1.6,-6 0.4,0 0.8,0 1.1,0.1 z"
       id="path2492"
       inkscape:connector-curvature="0"
       style="fill:#ffffff" />
    <path
       d="m 1417.0648,1059.1557 c -1.9,-14.2 -2.9,-28.4 -5.3,-42.4 -1,-5.8 -0.7,-11.8 -1,-17.80004 0,-0.6 0.2,-1.2 0.8,-1.8 0.2,1.8 0.4,3.70004 0.6,5.50004 1.1,8.4 2.3,16.7 3.2,25.1 0.8,7 1.2,14 1.8,21 0.2,1.8 0.4,3.6 0.4,5.4 0.1,1.7 -0.2,3.4 -0.5,5 z"
       id="path2494"
       inkscape:connector-curvature="0" />
    <path
       d="m 1403.9648,998.65566 c 2.9,22.20004 5,44.40004 5.2,66.80004 -1.9,-22.2 -3.8,-44.5 -5.7,-66.70004 0.1,-0.1 0.3,-0.1 0.5,-0.1 z"
       id="path2496"
       inkscape:connector-curvature="0" />
    <path
       d="m 1253.7648,748.75566 c -0.7,0 -1.4,0 -2.1,0 -2.3,0 -3.7,-2.1 -3,-4.3 1.6,-5.5 3.8,-10.7 6.6,-15.7 1.1,-1.8 2,-3.8 3.2,-5.5 0.5,-0.8 1.5,-1.5 2.4,-1.8 0.7,-0.2 1.7,-0.1 2.3,0.3 0.3,0.2 0.2,1.4 0,2 -1.7,4.3 -3.6,8.6 -5.4,13 -0.6,1.4 -1,2.8 -1.4,4.3 -0.5,2.2 0.7,3.4 2.8,2.5 3.2,-1.4 6.4,-3 9.3,-4.9 5.2,-3.4 9.9,-7.3 13.3,-12.6 0.5,-0.7 2.3,-1.2 3.2,-0.9 1.5,0.4 1.4,1.9 0.7,3.1 -4,7 -8.6,13.2 -16.1,16.9 -5.1,2.4 -10.3,3.5 -15.8,3.6 z"
       id="path2498"
       inkscape:connector-curvature="0" />
    <path
       d="m 1316.5648,722.15566 c -1.3,-0.1 -2.2,0 -2.9,-0.3 -14.3,-5.4 -29.2,-8.1 -44.2,-10.6 -5.7,-1 -11.4,-1.9 -17.1,-2.8 -1.8,-0.3 -3.5,-0.5 -5.2,-0.9 -0.5,-0.1 -1.1,-0.5 -1.3,-0.9 -0.4,-0.8 -0.4,-1.7 -0.6,-2.5 0.9,0 1.8,-0.1 2.6,0 2.3,0.4 4.7,0.9 7,1.2 5.5,0.9 11.1,1.6 16.5,2.6 8.6,1.6 17.3,3.1 25.8,5.1 6.8,1.6 13.7,3.1 19.4,9.1 z"
       id="path2500"
       inkscape:connector-curvature="0" />
    <path
       d="m 1349.6648,751.35566 c 0.4,-1.3 0.6,-2.7 1.3,-3.8 1.2,-1.8 1.9,-3.7 2.1,-5.9 0.3,-3.8 1.4,-7.5 1.7,-11.2 0.4,-4.7 0.3,-9.4 0.4,-14 0,-1 -0.4,-2.6 1.2,-2.5 0.6,0 1.7,1.4 1.8,2.2 0.7,6.1 0.7,12.2 -0.3,18.4 -0.5,3.5 -0.8,7 -1.7,10.4 -0.4,1.5 -2,2.7 -3.1,3.9 -0.9,0.9 -1.9,1.7 -2.8,2.6 -0.3,-0.2 -0.5,-0.2 -0.6,-0.1 z"
       id="path2502"
       inkscape:connector-curvature="0" />
    <path
       d="m 1341.6648,754.95566 c 0.6,-0.7 1.3,-1.3 1.6,-2.2 4.1,-10.5 6.3,-21.4 6.7,-32.7 0,-1.5 -0.3,-3 -0.3,-4.5 0,-0.6 0.4,-1.3 0.7,-1.9 0.5,0.4 1.5,0.7 1.5,1.2 0.4,2.8 1.1,5.6 0.9,8.4 -0.5,7.9 -1.8,15.7 -4.2,23.2 -0.9,2.8 -2.7,5.4 -4.3,8 -0.4,0.6 -1.7,0.7 -2.6,1 0,-0.1 0,-0.3 0,-0.5 z"
       id="path2504"
       inkscape:connector-curvature="0" />
    <path
       d="m 1351.6648,707.05566 c -1.2,-1.4 -2.6,-2.7 -3.6,-4.2 -3.9,-5.9 -9.4,-9.8 -16.1,-11.5 -7.7,-1.9 -15.5,-3.4 -23.2,-5.1 -1.9,-0.4 -3.7,-0.9 -5.5,-1.7 2.9,0.2 5.9,0.2 8.8,0.6 8.3,1.1 16.7,2.4 24.6,5.4 5.8,2.3 10.8,5.9 13.4,11.9 0.7,1.5 1.4,2.9 2.1,4.4 -0.2,0.1 -0.4,0.1 -0.5,0.2 z"
       id="path2506"
       inkscape:connector-curvature="0" />
    <path
       d="m 1355.3648,702.85566 c -1.8,-1.6 -3.9,-2.9 -5.3,-4.7 -5.3,-6.7 -12.1,-10.9 -20.2,-13.5 -1.7,-0.5 -3.4,-0.9 -5.1,-1.4 -0.3,-0.1 -0.6,-0.4 -0.9,-0.6 0.3,-0.4 0.6,-1.1 1,-1.1 1.1,-0.1 2.3,-0.3 3.2,0 6,2.1 12.1,3.9 17.2,7.9 3.5,2.8 6.6,5.8 8.5,9.9 0.5,1.1 1.3,2 1.9,3.1 0,0.2 -0.2,0.3 -0.3,0.4 z"
       id="path2508"
       inkscape:connector-curvature="0" />
  </g>
</svg>
