<?xml version="1.0" encoding="UTF-8" standalone="no"?>
<!-- Created with Inkscape (http://www.inkscape.org/) -->

<svg
   xmlns:dc="http://purl.org/dc/elements/1.1/"
   xmlns:cc="http://creativecommons.org/ns#"
   xmlns:rdf="http://www.w3.org/1999/02/22-rdf-syntax-ns#"
   xmlns:svg="http://www.w3.org/2000/svg"
   xmlns="http://www.w3.org/2000/svg"
   xmlns:sodipodi="http://sodipodi.sourceforge.net/DTD/sodipodi-0.dtd"
   xmlns:inkscape="http://www.inkscape.org/namespaces/inkscape"
   width="276.86615mm"
   height="276.88364mm"
   viewBox="0 0 981.02179 981.08376"
   id="svg4707"
   version="1.1"
   inkscape:version="0.91 r13725"
   sodipodi:docname="speed.svg">
  <defs
     id="defs4709" />
  <sodipodi:namedview
     id="base"
     pagecolor="#ffffff"
     bordercolor="#666666"
     borderopacity="1.0"
     inkscape:pageopacity="0.0"
     inkscape:pageshadow="2"
     inkscape:zoom="0.35"
     inkscape:cx="307.64123"
     inkscape:cy="648.624"
     inkscape:document-units="px"
     inkscape:current-layer="layer1"
     showgrid="false"
     fit-margin-top="0"
     fit-margin-left="0"
     fit-margin-right="0"
     fit-margin-bottom="0"
     inkscape:window-width="1280"
     inkscape:window-height="1000"
     inkscape:window-x="0"
     inkscape:window-y="24"
     inkscape:window-maximized="1" />
  <metadata
     id="metadata4712">
    <rdf:RDF>
      <cc:Work
         rdf:about="">
        <dc:format>image/svg+xml</dc:format>
        <dc:type
           rdf:resource="http://purl.org/dc/dcmitype/StillImage" />
        <dc:title></dc:title>
      </cc:Work>
    </rdf:RDF>
  </metadata>
  <g
     inkscape:label="Layer 1"
     inkscape:groupmode="layer"
     id="layer1"
     transform="translate(-809.48912,-199.90244)">
    <g
       id="g5416"
       transform="translate(2.3824683e-5,-253.34648)">
      <g
         id="Layer_1"
         transform="translate(779.78912,573.82607)" />
      <g
         id="Layer_2"
         transform="translate(779.78912,573.82607)" />
      <path
         inkscape:connector-curvature="0"
         id="path2559"
         d="m 1639.9891,915.02607 c -0.8,0.3 -1.4,0.4 -1.9,0.7 -2.6,0.9 -3.7,2.6 -3.1,5.3 0.7,2.9 -0.1,5.3 -2,7.4 -3.5,4.1 -7.1,8.3 -10.7,12.4 -1.9,2.2 -2.1,4.3 -0.8,7 11,23.2 17.9,47.7 22,72.90003 4.1,25.3 5,50.9 4.1,76.5 -0.5,14.6 -2.6,29.1 -5,43.5 -1.4,8.6 -2.4,17.3 -3.6,26.3 2.1,0 4,0 5.9,0 10.3,0.2 20.7,0 31,0.9 9.4,0.8 18.6,3 28,4 11.6,1.3 23.3,2.4 35,3.1 9,0.6 18.1,0.2 27.1,0.6 4.1,0.1 7.4,-1.4 10.3,-3.9 0.9,-0.8 1.9,-1.6 2.9,-2.4 0.2,4.5 -4.7,10.1 -9.7,10.4 -13.1,0.8 -26.2,2.1 -39.2,0.5 -14.8,-1.7 -29.6,-4.1 -44.4,-6.1 -12.7,-1.7 -25.5,-2.7 -38.3,-2 -3.5,0.2 -7.1,0 -10.9,0 -0.5,2.5 -0.1,5.6 -0.9,8.5 -0.3,-0.1 -0.7,-0.2 -1,-0.2 -1.4,-6 -1.2,-12.1 -0.5,-18.2 2.3,-18 4.8,-35.9 6.7,-53.9 1.9,-17.4 1.8,-34.8 0.8,-52.3 -1.6,-28.9 -7.8,-57.00003 -16.1,-84.60003 -2.4,-7.8 -4.9,-15.6 -7.3,-23.4 -0.2,-0.7 -0.6,-1.4 -1.2,-2.8 -0.7,1.1 -1.1,1.9 -1.7,2.4 -13.7,13.4 -27.5,26.7 -41.2,40.1 -0.2,0.2 -0.5,0.5 -0.8,0.7 -1.5,1.3 -2.9,2.8 -5.1,1.9 -2.4,-1.1 -4.2,-2.9 -4.3,-5.6 -0.2,-5.7 -0.2,-11.4 -0.3,-17.2 0,-0.7 0,-1.4 0,-2.4 -0.9,0.4 -1.5,0.7 -2.2,1 -79.5,39.90003 -159.1,79.90003 -238.7,119.80003 -1.6,0.8 -2,1.7 -2,3.5 0.2,8.5 0.5,17 0.4,25.4 -0.4,18.6 -16.3,40.6 -40.4,41.9 -11.6,0.6 -23.1,1 -34.5,-1.8 -7.8,-1.9 -15,-5 -21.2,-10.2 -4.2,-3.5 -8.4,-7 -12.2,-10.9 -13.5,-14.2 -15.9,-34.7 -6.5,-52.7 6.5,-12.4 16.5,-21.1 28.9,-27.1 5.2,-2.5 10.7,-5.3 16.4,-6 16.5,-2.2 32,1.3 45.2,12.1 1,0.9 1.8,0.8 2.9,0.1 77.6,-44.8 157.9,-84.10003 240,-120.10003 6.4,-2.8 12.7,-5.6 19.1,-8.3 0.1,-0.1 0.2,-0.2 0.2,-0.2 -4.2,-5.7 -8.4,-11.3 -12.7,-17.1 3.4,-1.1 92.3,-0.7 93.5,0.5 z m -347.9,153.00003 c 1.1,1.3 2.1,2.3 2.9,3.3 0.9,1.1 1.7,2.2 2.5,3.3 2.2,3.3 4.5,3.9 7.9,1.8 0.6,-0.4 1.2,-0.9 1.9,-1.3 10.3,-6.9 20.5,-13.9 30.9,-20.6 4,-2.6 8.5,-4.4 12.9,-6.3 10.7,-4.6 21.8,-8.5 32.2,-13.8 28.8,-14.7 57.4,-30 86.1,-45.00003 20,-10.4 39.7,-21.5 60.6,-30 10.8,-4.4 21.5,-9.1 31.4,-15.5 1.7,-1.1 3.3,-2.3 4.8,-3.6 1.9,-1.8 2.1,-4.1 0.6,-6.6 -93.9,40 -185.1,85.10003 -274.7,134.30003 z m 0.8,63.4 c -2.1,0.7 -4,1 -5.4,1.9 -4.9,3.3 -10.1,5.1 -16.1,4.9 -2,-0.1 -4,-0.1 -6,-0.2 -2.1,-0.1 -4.3,0.1 -6.3,-0.5 -8.9,-2.7 -14.9,-8.8 -18.5,-17.3 -3,-7 -1.9,-14.2 -0.2,-21.3 3.3,-13.7 12.3,-22.9 24.4,-29.3 2.5,-1.4 5.2,-2.5 7.8,-3.8 0.6,-0.3 0.9,-1 1.3,-1.6 -0.2,-0.2 -0.3,-0.5 -0.5,-0.7 -2.2,0.2 -4.6,-0.1 -6.6,0.7 -18.9,7.6 -31.6,20.4 -34.7,41.2 -1,6.9 -1.3,13.9 1.7,20.5 6.7,14.5 18.5,22.4 34.9,21.7 6.2,-0.3 12,-1.7 16.9,-5.6 3.3,-2.6 6.3,-5.4 7.3,-10.6 z m -27.3,-74.8 c -8.4,-2.2 -16.2,-2.4 -24,0.3 -10.1,3.5 -18,10.3 -24.9,18.1 -8.8,10 -12.1,21.6 -9.1,34.7 0.9,3.9 2.5,7.7 3.8,11.5 0.4,-0.1 0.7,-0.1 1.1,-0.2 0,-4.7 -0.4,-9.5 0.1,-14.2 1.2,-13.3 6.8,-24.5 17,-33.3 7.4,-6.3 15.9,-10.5 25,-13.6 3.4,-1 6.9,-2 11,-3.3 z" />
      <path
         inkscape:connector-curvature="0"
         id="path2561"
         d="m 1575.4891,872.72607 c -0.8,0.8 -1.5,1.4 -2.3,2.1 -3.7,3.2 -5.9,3.3 -9.6,0 -1.7,-1.6 -3.3,-3.3 -5,-5 -9,-9.1 -18.5,-17.7 -30.1,-23.3 -10.3,-4.9 -20.9,-9.2 -31.6,-13.1 -25,-9.1 -50.9,-15.1 -77.1,-20 -26.5,-4.9 -52.9,-9.9 -79.4,-14.6 -13.5,-2.4 -27.1,-4.9 -40.7,-6.8 -14.2,-1.9 -28.5,-1.7 -42.7,-1.3 -12.5,0.4 -24.9,1.1 -37.4,1.9 -16.8,1.2 -33.4,3.7 -49.9,6.8 -14.5,2.7 -28.9,5.6 -43.4,8.5 -2.2,0.5 -4.5,1.4 -6.5,2.5 -6.4,3.4 -15.6,0.6 -18.1,-6.2 -2.5,-6.9 -4.3,-14.1 -6.2,-21.2 -1.7,-6.4 -3.3,-12.8 -4.9,-19.2 -0.1,-0.4 -0.2,-0.8 -0.4,-1.3 -1.9,0.6 -3.7,1.1 -5.6,1.7 -0.9,-3.8 -1.7,-7.4 -2.5,-11.1 -0.5,-2.2 1.1,-3 2.8,-3.7 6.7,-2.4 13.3,-4.8 20,-7.3 20.2,-7.4 40.3,-14.8 61.1,-20.2 21,-5.4 42.3,-9 63.8,-11.5 27.8,-3.1 55.7,-4.4 83.6,-3.6 84,2.3 163.5,21.6 237.2,62.8 30.8,17.2 59.3,37.7 85.8,61 2.4,2.1 2.7,3.5 1.1,6.3 -1.4,2.5 -2.8,4.9 -4.3,7.5 -0.8,-0.6 -1.5,-1.1 -2.2,-1.6 -17,-12.9 -33.7,-26.3 -51.1,-38.7 -43.7,-30.9 -91.8,-52.4 -143.4,-66.3 -25,-6.8 -50.5,-11.4 -76.3,-14.2 -26.8,-2.9 -53.6,-3.9 -80.5,-3.2 -61.9,1.8 -121.9,13.2 -179.2,37.1 -2.8,1.2 -5.6,2.4 -8.6,3.7 4.5,14.5 8.9,28.8 13.3,43.2 0.2,0.1 0.3,0.1 0.5,0.2 0.5,-1.1 1.2,-2.1 1.5,-3.3 0.8,-3.4 2.8,-5.7 6.2,-6.5 18.8,-4.6 37.6,-9.7 56.6,-13.7 12.2,-2.5 24.8,-3.7 37.3,-4.9 16.8,-1.5 33.7,-2.6 50.5,-3.6 11.9,-0.7 23.9,-0.5 35.7,0.8 19.2,2.1 38.3,4.4 57.5,6.5 26.5,2.9 52.7,7.7 78.7,13.7 16.6,3.9 33.2,7.3 49.3,13.1 19.5,7 38.8,14.6 57.6,23.2 10.1,4.6 19,10.9 26.6,18.9 0.9,0.9 1.7,1.8 2.6,2.6 3.1,2.8 5.4,5.9 7.2,9.8 1.6,3.7 4.6,6.8 7.4,9.8 3.1,3.4 6.8,6.3 10.5,9.6 12.7,-9 25.4,-19.4 36,-32.1 0.2,0.1 0.4,0.2 0.5,0.3 -1.2,2.5 -2,5.3 -3.7,7.4 -6.7,8.2 -13.7,16 -22.4,22.2 -1.1,0.8 -2.1,1.5 -3.3,2.2 -1.7,0.9 -2.9,2.1 -3.8,3.9 -1.3,2.8 -3.7,4.3 -6.8,4.1 -2.4,-0.1 -4.8,-0.5 -7.2,-0.8 0,-0.2 0,-0.4 -0.1,-0.5 1.8,-0.4 3.6,-0.7 5.5,-1.1 1.1,-0.2 2.2,-0.3 3.2,-0.6 0.5,-0.1 1.1,-0.7 1.2,-1.1 0.1,-0.3 -0.3,-1 -0.6,-1.3 -4.5,-3.1 -9.1,-6.8 -13.9,-10.5 z" />
      <path
         inkscape:connector-curvature="0"
         id="path2563"
         d="m 817.98912,1082.6261 c -2,2.2 -4.1,4.4 -6.1,6.7 -0.9,1 -1.6,0.9 -2.4,-0.2 2.4,-2 2.4,-4.8 2.8,-7.6 0.9,-6.6 1.9,-13.2 3.4,-19.7 15.4,-69.00003 47.9,-129.10003 94.2,-182.10003 41.3,-47.2 89.4,-85.8 144.79998,-115.2 1.5,-0.8 3.1,-1.5 4.6,-2.3 0.2,0.4 0.4,0.6 0.5,0.8 1.2,3.8 2.3,7.6 3.5,11.6 -1,0.6 -1.9,1.1 -2.9,1.7 -33.7,19.2 -65.49998,41.1 -94.69998,66.6 -59,51.2 -102.2,113.3 -127.7,187.40003 -0.3,0.9 -1.2,1.9 0.6,2.5 1.2,-2.1 2.4,-4.2 3.7,-6.2 12.8,-21.2 26,-42.10003 41.6,-61.40003 7,-8.6 14.7,-16.6 22.4,-24.6 15.7,-16.3 31.7,-32.4 47.6,-48.6 10.3,-10.5 22.1,-19.1 34.7,-26.5 13.59998,-7.9 27.09998,-16.2 40.99998,-23.5 9.6,-5.1 19.8,-8.9 29.8,-13.2 3.2,-1.3 6.4,-0.9 9.3,0.9 2.9,1.8 4.4,4.5 4.2,8 -0.2,3.6 -2.1,5.9 -5.5,7.3 -9.1,3.8 -18.2,7.5 -27.1,11.7 -22.3,10.7 -42.39998,24.8 -61.49998,40.4 -30.7,24.9 -59.3,51.9 -85.1,81.9 -4.8,5.6 -9.4,11.4 -13.5,17.5 -12.5,18.90003 -25,37.80003 -36.9,57.10003 -6,9.6 -10.7,20.1 -15.9,30.1 -0.7,1.3 -1.5,2.6 -2.2,4 -0.8,1.8 -2.2,2.4 -4,2.1 -1.4,-0.3 -2.7,-2.2 -2.7,-4 0,-0.9 0.1,-1.8 0.2,-2.6 -0.2,-0.3 -0.4,-0.4 -0.7,-0.6 z" />
      <path
         inkscape:connector-curvature="0"
         id="path2565"
         d="m 1647.4891,859.62607 c 3.5,-2.9 6.9,-5.7 10.3,-8.6 0.4,0.3 0.8,0.6 1.1,0.9 33.1,32.4 61.3,68.6 83.2,109.5 14.7,27.5 25.2,56.50003 33,86.60003 5.7,21.7 10.2,43.6 13.1,65.8 1.6,12.6 2.7,25.2 2.2,37.9 -0.1,3.4 -0.6,6.8 -0.9,10.3 -4.4,0.3 -8.4,0.6 -12.7,1 -0.1,-2 -0.3,-3.9 -0.4,-5.8 -0.6,-11.1 -0.9,-22.2 -1.7,-33.2 -2,-30.5 -7.7,-60.3 -16.8,-89.5 -16.5,-52.50003 -43.2,-99.30003 -78.9,-141.10003 -6.8,-7.9 -14,-15.4 -21,-23.1 -0.6,-0.7 -1.3,-1.4 -2.1,-2 -2.5,-2.1 -4.6,-2.2 -7,0 -5.7,5.2 -11.3,10.5 -16.9,15.8 -3.4,3.2 -6.7,6.5 -10,9.9 -1.8,1.9 -3.9,2.4 -6.6,2.2 0.6,-0.6 1,-1.1 1.4,-1.6 9.6,-9.6 19.1,-19.1 28.7,-28.6 1.3,-1.2 3.1,-1.9 4.7,-2.9 -0.7,-1.1 -1.7,-2.2 -2.7,-3.5 z" />
      <path
         inkscape:connector-curvature="0"
         id="path2567"
         d="m 1062.8891,780.82607 c 7.4,5.3 12.3,12.5 14.7,21.2 2.2,7.7 4,15.6 5.9,23.4 0.1,0.4 -0.2,0.9 -0.3,1.3 -0.4,-0.3 -1,-0.6 -1.1,-1.1 -2.2,-6.9 -4.3,-13.8 -6.5,-20.6 -1.4,-4.2 -2.5,-8.6 -4.6,-12.5 -1.8,-3.5 -4.8,-6.3 -7.2,-9.4 -0.5,-0.6 -1,-1.3 -1.5,-1.9 0.2,-0.2 0.4,-0.3 0.6,-0.4 z" />
      <path
         style="fill:#ffffff"
         inkscape:connector-curvature="0"
         id="path2569"
         d="m 1292.0891,1068.0261 c 89.6,-49.2 180.8,-94.30003 274.6,-134.20003 1.5,2.5 1.4,4.8 -0.6,6.6 -1.4,1.4 -3.1,2.5 -4.8,3.6 -9.8,6.4 -20.6,11.1 -31.4,15.5 -20.9,8.5 -40.6,19.5 -60.6,30 -28.7,15.00003 -57.2,30.30003 -86.1,45.00003 -10.4,5.3 -21.5,9.1 -32.2,13.8 -4.4,1.9 -8.9,3.7 -12.9,6.3 -10.4,6.7 -20.6,13.7 -30.9,20.6 -0.6,0.4 -1.2,0.9 -1.9,1.3 -3.4,2.1 -5.6,1.5 -7.9,-1.8 -0.8,-1.1 -1.6,-2.2 -2.5,-3.3 -0.7,-1.2 -1.6,-2.2 -2.8,-3.4 z"
         class="st0" />
      <path
         style="fill:#ffffff"
         inkscape:connector-curvature="0"
         id="path2571"
         d="m 1292.8891,1131.4261 c -1,5.1 -4,7.9 -7.2,10.5 -4.9,4 -10.8,5.4 -16.9,5.6 -16.4,0.7 -28.3,-7.2 -34.9,-21.7 -3,-6.6 -2.7,-13.5 -1.7,-20.5 3.1,-20.8 15.9,-33.7 34.7,-41.2 2,-0.8 4.4,-0.5 6.6,-0.7 0.2,0.2 0.3,0.5 0.5,0.7 -0.4,0.5 -0.7,1.3 -1.3,1.6 -2.6,1.3 -5.2,2.5 -7.8,3.8 -12.1,6.4 -21.1,15.6 -24.4,29.3 -1.7,7.1 -2.8,14.3 0.2,21.3 3.6,8.4 9.6,14.5 18.5,17.3 2,0.6 4.2,0.4 6.3,0.5 2,0.1 4,0.1 6,0.2 5.9,0.3 11.2,-1.6 16.1,-4.9 1.3,-0.8 3.2,-1 5.3,-1.8 z"
         class="st0" />
      <path
         style="fill:#ffffff"
         inkscape:connector-curvature="0"
         id="path2573"
         d="m 1265.5891,1056.6261 c -4.1,1.3 -7.6,2.3 -11.1,3.4 -9.1,3.1 -17.7,7.3 -25,13.6 -10.2,8.8 -15.7,20 -17,33.3 -0.4,4.7 -0.1,9.5 -0.1,14.2 -0.4,0.1 -0.7,0.1 -1.1,0.2 -1.3,-3.8 -2.9,-7.6 -3.8,-11.5 -3,-13.1 0.2,-24.7 9.1,-34.7 6.9,-7.9 14.8,-14.6 24.9,-18.1 7.9,-2.7 15.7,-2.6 24.1,-0.4 z"
         class="st0" />
    </g>
  </g>
</svg>
