<?xml version="1.0" encoding="UTF-8" standalone="no"?>
<!-- Created with Inkscape (http://www.inkscape.org/) -->

<svg
   xmlns:dc="http://purl.org/dc/elements/1.1/"
   xmlns:cc="http://creativecommons.org/ns#"
   xmlns:rdf="http://www.w3.org/1999/02/22-rdf-syntax-ns#"
   xmlns:svg="http://www.w3.org/2000/svg"
   xmlns="http://www.w3.org/2000/svg"
   xmlns:sodipodi="http://sodipodi.sourceforge.net/DTD/sodipodi-0.dtd"
   xmlns:inkscape="http://www.inkscape.org/namespaces/inkscape"
   width="284.12476mm"
   height="152.63422mm"
   viewBox="0 0 1006.7413 540.8299"
   id="svg4362"
   version="1.1"
   inkscape:version="0.91 r13725"
   sodipodi:docname="system.svg">
  <defs
     id="defs4364" />
  <sodipodi:namedview
     id="base"
     pagecolor="#ffffff"
     bordercolor="#666666"
     borderopacity="1.0"
     inkscape:pageopacity="0.0"
     inkscape:pageshadow="2"
     inkscape:zoom="0.35"
     inkscape:cx="772.65632"
     inkscape:cy="978.9864"
     inkscape:document-units="px"
     inkscape:current-layer="layer1"
     showgrid="false"
     fit-margin-top="0"
     fit-margin-left="0"
     fit-margin-right="0"
     fit-margin-bottom="0"
     inkscape:window-width="1920"
     inkscape:window-height="1056"
     inkscape:window-x="0"
     inkscape:window-y="24"
     inkscape:window-maximized="1" />
  <metadata
     id="metadata4367">
    <rdf:RDF>
      <cc:Work
         rdf:about="">
        <dc:format>image/svg+xml</dc:format>
        <dc:type
           rdf:resource="http://purl.org/dc/dcmitype/StillImage" />
        <dc:title></dc:title>
      </cc:Work>
    </rdf:RDF>
  </metadata>
  <g
     inkscape:label="Layer 1"
     inkscape:groupmode="layer"
     id="layer1"
     transform="translate(397.65632,-970.51868)">
    <g
       transform="translate(-409.81507,903.91868)"
       id="Layer_1" />
    <g
       transform="translate(-409.81507,903.91868)"
       id="Layer_2" />
    <path
       d="m 414.78494,1419.4187 c 2.9,0.6 5.8,1.4 8.7,1.9 21.3,3.4 40.8,11.7 59.7,21.6 8,4.2 15.8,8.8 23.4,13.5 2.6,1.6 4.7,4.1 6.7,6.4 1.8,2.1 0.8,7.4 -1.9,9.2 -3.1,2 -6.3,4.1 -9.8,5.5 -22.1,9.1 -45.2,14 -68.7,17.3 -16.1,2.2 -32.2,4.6 -48.4,6.7 -9.3,1.2 -18.7,1.9 -28,2.9 -9.3,1 -18.6,2.1 -28,3 -7.7,0.7 -15.5,1.2 -23.3,1.8 -7,0.6 -13.9,1.3 -20.8,1.9 -1.4,0.1 -2.9,0 -4.3,0 -15.1,0.1 -30.1,0.4 -45.2,0.1 -9.7,-0.2 -19.3,-1.3 -28.9,-1.8 -18.3,-1 -36.6,-2 -54.9,-2.8 -25.8,-1.2 -51.500004,-2.2 -77.300004,-3.2 -9.4,-0.3 -18.8,-0.3 -28.2,-0.3 -27.5,-0.1 -55.0000003,-0.1 -82.5,-0.2 -20.6,-0.1 -41.2,-0.5 -61.8,-0.7 -15.599996,-0.2 -31.199996,-0.2 -46.799996,-0.6 -12.9,-0.3 -25.8,-0.9 -38.6,-1.4 -13.6,-0.5 -27.2,-0.8 -40.8,-1.3 -16.5,-0.7 -32.9,-1.3 -49.4,-2.4 -14.6,-0.9 -29.10001,-1.9 -43.60001,-3.6 -11.1,-1.3 -22,-3.7 -33,-5.9 -11.4,-2.3 -22.6,-5.7 -33.2,-10.5 -5,-2.3 -9.9,-4.9 -12.6,-10.3 -1.6,-3.1 -1,-6 0.6,-8.6 4.5,-7.4 10.7,-13.4 17.6,-18.5 13.6,-9.9 29.5,-14.6 45.3,-19.7 7.1,-2.3 14.3,-4.5 22.1,-7 0,-10.1 -0.1,-20.4 0,-30.6 0.2,-13.4 0.6,-26.9 1,-40.3 0.3,-12.2 0.8,-24.3 1.1,-36.5 0.1,-1.9 -0.1,-3.8 -0.5,-5.6 -0.7,-2.9 -0.2,-5.3 1.2,-7.9 1.9,-3.4 3.4,-7 5.3,-11 0.8,2.1 1.7,3.7 2,5.5 1.9,11.3 3.80001,22.5 5.40001,33.8 2,14.9 2.4,29.9 2.2,45 -0.1,14.4 -0.2,28.8 -0.5,43.2 -0.1,3.7 -0.8,7.3 -1,10.9 -0.1,3.1 0.3,6.2 0.5,9.8 7.5,1.2 14.7,2.7 22,3.5 16.5,1.8 33.1,3.2 49.7,4.7 37.4,3.3 74.8,7.7 112.4,9.2 16.199996,0.6 32.199996,2.5 48.199996,4.9 2.6,0.4 5.4,0.1 8.5,0.1 0,-0.9 0,-1.9 0,-2.8 0.2,-12.9 0,-25.8 0.7,-38.7 0.7,-12.5 2.6,-24.9 3.2,-37.4 0.6,-12.4 0.5,-24.9 0.4,-37.3 0,-4.1 -1,-8.3 -1.3,-12.4 -0.2,-2.5 -0.6,-4.2 -3.6,-3.4 -0.1,0 -0.4,-0.1 -0.5,-0.1 -0.1,-0.1 -0.2,-0.2 -0.4,-0.4 27.2,-12.9 54.39999971,-25.7 81.5,-38.5 -0.1,-0.4 -0.2,-0.8 -0.3,-1.1 -5.5,-0.3 -10.9,-0.9 -16.4000003,-0.9 -17.2,-0.1 -34.3999997,0 -51.5999997,0.1 -7.6,0 -15.2,0.6 -22.8,0.4 -4.8,-0.1 -9.6,-0.8 -14.3,-1.6 -3.3,-0.5 -5.3,-4.4 -4.4,-7.5 0.5,-1.9 1,-4.1 0.6,-6 -1.2,-4.7 -0.3,-9.4 -0.1,-14.1 0.4,-10.3 0.8,-20.6 1.4,-30.8 0.8,-14.2 1.6,-28.4 2.6,-42.6 0.5,-7.1 1.4,-14.2 2.2,-21.3 0.1,-1.1 0.7,-2.2 1.1,-3.6 -31.799996,1.4 -63.499996,3.2 -95.499996,0 0.4,7.3 0.9,14.2 1.1,21.2 0.2,10.1 0.4,20.2 0.2,30.3 -0.2,8.2 -1.2,16.4 -1.3,24.6 -0.1,5.8 0.8,11.6 1.1,17.4 0.2,3.6 0.6,7.4 -3.3,9.9 -0.6,0.4 -0.7,2.3 -0.4,3.4 0.2,0.6 1.4,1.3 2.2,1.4 2.7,0.1 5.4,0 8.1,0 14.8,-0.3 29.5,-0.5 44.3,-1 5.4,-0.2 10.8,-1.2 16.3,-1.6 2.5,-0.2 4.999996,-0.1 7.499996,0.2 2.9,0.3 5.7,1.3 8.8,-1.1 -1.2,3.1 -2.6,4.6 -5.3,5.1 -12.899996,2.4 -25.899996,4 -39.099996,4 -12.2,-0.1 -24.3,0 -36.5,-0.2 -2.6,-0.1 -5.2,-1 -7.7,-1.9 -1.6,-0.5 -2.5,-1.6 -1.7,-3.8 1.1,-3.1 -1.3,-5 -3.4,-7.4 -7.3,2.5 -14.7,4.8 -21.9,7.6 -8.9,3.5 -18.1,5.8 -27.5,7.7 -11.1,2.2 -22.2,4.8 -33.2,7.6 -6.2,1.6 -12.2,3.8 -18.3,5.8 -0.8,0.3 -1.6,0.7 -2.3,1.7 3.5,0.6 7.1,1.2 10.6,1.7 13.4,2.1 26.9,4.1 40.3,6.2 17,2.6 33.9,5.4 50.9,8 12.4,1.9 24.8,3.7 37.1,5.8 15.2,2.5 30.3,5.1 45.499996,7.9 8.1,1.5 16,3.9 24,5.4 4.6,0.9 9.4,0.9 14.1,1.3 0.7,0.1 1.3,0.2 2.2,1 -0.5,0.3 -1,0.7 -1.5,0.8 -7.6,0.8 -15.1,1.1 -22.7,-0.3 -20.899996,-3.8 -41.799996,-7.7 -62.799996,-11.2 -26.7,-4.5 -53.5,-8.7 -80.3,-13 -14.7,-2.4 -29.5,-4.7 -44.2,-7.2 -6.5,-1.1 -13,-2.6 -19.5,-3.6 -1.7,-0.3 -3.5,0.5 -5.3,0.3 -0.9,-0.1 -1.7,-1.2 -2.5,-1.8 0.7,-0.8 1.5,-2.3 2.2,-2.3 4.7,0.4 8.2,-2.1 12.2,-4 6,-2.9 12.6,-5 19,-6.8 10.9,-3 22,-5.7 33,-8.3 12.6,-3 25.2,-5.8 37.8,-8.6 4.2,-0.9 8.4,-1.4 12,-2 -0.1,-10.7 -0.6,-21.1 -0.4,-31.5 0.3,-15.9 1.2,-31.8 1.7,-47.7 0.2,-5.2 -0.4,-10.5 -0.5,-15.8 0,-2.1 0.1,-4.3 0.6,-6.4 0.4,-1.7 1,-3.4 3,-4.3 3.4,-1.5 6.6,-3.6 10,-4.9 7.9,-2.9 15.9,-5.3 23.7,-8.2 6.7,-2.5 13.2,-5.3 20.4,-8.2 -0.1,1.3 -0.2,2.3 -0.3,3.6 17.9,0 36.299996,-0.1 54.599996,0.1 3.7,0 7.4,0.7 11.1,1.1 0.6,0.1 1.2,-0.2 1.9,-0.3 0.7,3.2 0.7,3.1 -2.4,3.2 -9.4,0.1 -18.8,0.4 -28.2,0.4 -9.8,0 -19.699996,-0.2 -29.499996,-0.6 -3.4,-0.1 -6.8,-1.1 -10.3,-1.5 -1.2,-0.1 -2.7,0.2 -3.8,0.7 -8.5,4.1 -17.2,7.4 -26.4,9.7 -4.2,1 -8.2,3 -12.2,4.7 -1.2,0.5 -2.1,1.4 -3.2,2.1 0.1,0.2 0.1,0.5 0.2,0.7 0.8,0.1 1.7,0.2 2.5,0.2 22.8,-0.1 45.6,-0.2 68.5,-0.4 8.199996,-0.1 16.399996,-0.3 24.699996,-0.5 0.5,0 1.1,-0.1 1.6,0.1 4.5,1.5 7.8,-1.3 10.7,-3.8 6.2,-5.3 13.2,-9.1 20.2,-13 5.7,-3.2 11.6,-6 17.6,-8.6 2.7,-1.2 5.8,-1.4 8.8,-2 0.2,0 0.6,0.3 0.9,0.5 -16.1,9.7 -32.2,19.3 -48.2,28.9 0.1,0.3 0.2,0.7 0.4,1 2.8,0 5.5,-0.1 8.3,0 6.9,0.3 13.7,0.8 20.6,1.2 1.2,0.1 2.5,0.3 3.7,0.3 18.3,-0.5 36.4999997,-1 54.8,-1.6 16.9,-0.5 33.8,-1.4 50.7,-1.8 13.6,-0.3 27.200004,-0.5 40.800004,-0.1 7.8,0.2 15.7,1.6 23.4,2.7 15.3,2.2 30.5,4.5 45.8,6.8 1,0.2 2.1,0.4 3.1,0.6 0.2,-0.2 0.3,-0.4 0.5,-0.6 -2.3,-2.2 -4.3,-4.5 -6.8,-6.4 -5.3,-4 -10.9,-7.7 -16.3,-11.8 -2.5,-1.9 -4.7,-4.1 -6.9,-6.3 -0.5,-0.5 -0.9,-1.5 -0.7,-2 0.2,-0.5 1.4,-1 1.9,-0.9 1.7,0.5 3.5,1 4.9,1.9 7.5,5 15,10 22.4,15.2 1.8,1.3 3.3,3 4.9,4.5 0.3,0.3 0.7,1 0.6,1.4 -1.2,4 0.5,7.5 1.7,11.1 0.7,2.2 0.8,4.7 0.8,7.1 0,4.4 -0.3,8.6 1.1,13.1 1.5,5 1.5,10.7 1.1,16 -0.9,11.9 -1.3,23.8 0.1,35.6 0.2,1.8 0,3.6 0,5.5 8.5,-1.5 16.6,-3 24.6,-5.9 9.2,-3.3 18.7,-6 28.3,-7.8 10.1,-1.9 20.5,-2.9 30.9,-1.9 10,0.9 19.9,2.3 30,3.4 0.2,-4.2 0.2,-8 0.7,-11.6 1.1,-8.7 2.5,-17.3 3.6,-26 1.6,-12.3 3.2,-24.7 4.6,-37.1 1.4,-12.2 2.3,-24.5 3.7,-36.8 0.9,-7.5 2.2,-15 3.3,-21.8 0.6,9 1.7,18.8 -0.2,28.6 -1.1,5.8 -1.4,11.7 -1.8,17.6 -0.8,10.2 -1.2,20.4 -2.2,30.5 -1.3,13.9 -3.1,27.7 -4.5,41.6 -0.5,4.9 -0.8,9.8 -1.1,14.5 14.6,1.7 28.8,3.3 43,4.9 0.1,-0.2 0.3,-0.4 0.4,-0.6 -6,-6.3 -12,-12.7 -18,-19 -1.7,2.3 -3.3,4.4 -5.1,6.8 0.1,0.2 0.4,0.9 0.8,2 -1.1,-0.4 -1.9,-0.8 -2.8,-1 -2.3,-0.6 -2.2,-2 -1.4,-3.7 1.3,-2.6 2.8,-5.1 4.1,-7.7 -2.4,-2.2 -4.6,-4.1 -6.9,-6.1 0,2.9 0,6.1 0,9.2 -0.3,0 -0.6,0.1 -0.9,0.1 -0.9,-3.8 -2.4,-7.6 -2.6,-11.4 -0.4,-7.3 -0.7,-14.7 0.2,-21.9 2.2,-17.2 3.7,-34.5 4.5,-51.8 0.6,-13.7 0.6,-27.4 1.2,-41.1 0.3,-7.5 1.2,-14.9 2.4,-22.3 0.3,19.5 0.7,39 1,58.5 0.1,0.1 0.3,0.1 0.4,0.2 2.4,-3.8 4.8,-7.6 7.2,-11.5 -1.7,-2.4 -3.4,-4.8 -5.1,-7.2 -2.4,-3.4 -2.4,-11 0,-14.3 1.5,-2.1 3,-4 0.3,-6.4 -0.6,-0.5 -0.2,-2.2 0.3,-3.5 1,1.2 2,2.4 3.1,3.6 2.1,-3.1 4.1,-6 5.8,-9 0.4,-0.7 -0.1,-2.1 -0.6,-2.9 -2.1,-4.3 -4.3,-8.5 -6.5,-12.7 0.2,-0.1 0.5,-0.3 0.8,-0.4 2.7,4.4 5.4,8.7 8.2,13.1 3.8,-1.8 3.2,-7.3 7.6,-8.2 -1.7,3 -3.3,5.9 -4.9,8.8 -0.3,0.6 -0.6,1.6 -0.3,2.1 2.3,3.9 4.8,7.7 7.6,12 1.8,-2.5 3.2,-4.4 4.6,-6.3 0.2,0.1 0.4,0.2 0.6,0.3 -0.9,1.4 -1.6,2.9 -2.6,4.2 -1.1,1.6 -1.1,2.7 0.4,4.2 2,2 3.8,4.3 5.3,6.7 0.6,1 0.4,2.6 0.5,4 -0.3,0.1 -0.5,0.2 -0.8,0.3 -2.6,-3.3 -5.1,-6.7 -7.8,-10.1 -1.8,2.8 -3.5,5.4 -5.1,8.1 -0.3,0.6 -0.5,1.7 -0.1,2.2 2.3,3.2 4.7,6.2 7.3,9.5 2.1,-3 4,-5.6 6,-8.5 1.6,4.8 -2.1,7.6 -3.6,11 0.9,2.8 4.4,4.1 3.9,8 -2.2,-1.5 -4.1,-2.8 -6.2,-4.2 -1.2,2.1 -2.6,4.4 -3.8,6.7 -0.2,0.4 -0.1,1.2 0.2,1.7 2.5,3.5 5,6.9 7.7,10.6 1,-1.4 1.7,-2.5 2.5,-3.7 0.2,0 0.4,0.1 0.6,0.1 0.3,4.9 0.6,9.9 0.9,15.6 -1.6,-1.8 -2.6,-3 -4,-4.5 -1.4,2.7 -2.9,5 -4,7.5 -0.3,0.6 0.4,1.8 0.9,2.5 2.4,3.2 5,6.1 7.2,9.4 0.9,1.4 1.4,3.2 1.7,4.8 0.4,2.2 0.4,4.4 0.6,6.9 -0.6,-0.4 -1,-0.6 -1.6,-0.9 -1.5,2.4 -2.9,4.9 -4.5,7.5 5.2,5.9 9.5,12.3 8.1,21.1 -0.2,-0.2 -0.5,-0.4 -0.7,-0.6 -0.2,-0.3 -0.4,-0.5 -0.7,-0.9 -0.2,0.2 -0.5,0.3 -0.6,0.5 -4.3,6.9 -4.2,6.8 0.1,13.7 2,3.2 3.4,6.8 5.4,10 2.2,3.6 4.7,6.9 7.1,10.4 0.4,0.5 0.6,1.2 1.1,2.1 -10.1,-5.1 -14.7,-14.6 -21,-23.4 -2.1,3.4 -4.1,6.5 -5.9,9.6 -0.3,0.5 -0.1,1.6 0.3,2.1 2.3,3.1 4.8,6.2 7.2,9.3 0.3,0.4 1.1,0.6 1.7,0.7 6.5,1.2 13,2.4 19.8,3.6 -0.1,-0.8 -0.2,-1.7 -0.3,-2.5 -0.3,-2.7 -2,-5.5 0.6,-8.1 0.3,-0.3 0.3,-1.2 0.2,-1.8 -0.5,-7 -1,-14 -1.5,-21 -0.4,-5.3 -0.7,-10.5 -1.2,-15.8 -0.5,-5.5 -1.3,-11 -1.4,-16.6 -0.3,-10.1 0.1,-20.2 -0.3,-30.3 -0.3,-8.6 -1.4,-17.3 -2,-25.9 -0.2,-2.2 0.2,-4.5 0.1,-6.7 -0.6,-14 -1.3,-28.1 -2,-42.1 -0.1,-2.7 -0.2,-5.3 -0.4,-8.5 -16.3,-0.8 -32.5,-1.6 -48.8,-5.6 0.7,7 -2.3,13.4 0.9,19.7 -0.3,-0.3 -0.7,-0.6 -1.4,-1.1 -0.5,4.1 -0.9,8 -1.3,11.2 -1.5,-8.3 -0.9,-17.2 0.6,-26 0.1,-0.5 0.2,-1.1 0.2,-1.6 0,-0.4 0,-0.9 -0.1,-1.4 -0.3,-0.1 -0.5,-0.3 -0.7,-0.3 -10.5,-0.8 -21,-1.6 -31.6,-2.4 -25.4,-2 -50.9,-3.9 -76.4,-3.7 -18,0.1 -36,0 -54,-0.2 -24.8,-0.3 -49.6,-0.8 -74.400004,-1.2 -17.5,-0.3 -34.9,-0.2 -52.4,-0.9 -7.3,-0.3 -14.5,-2.1 -21.7,-3.3 -8.1,-1.4 -16.3000003,-2.4 -24.6000003,-2.2 -9.0999997,0.2 -18.2999997,0 -27.3999997,0.1 -2.5,0 -5,0.4 -8.1,0.6 0,7.6 0,15.1 0,22.6 0,0.6 0.1,1.2 0.1,1.8 0.1,1.4 0,2.6 1.8,3.6 3.1,1.7 2.9,6.8 0.1,9.1 -2,1.6 -4.1,3.3 -5.5,5.4 -1,1.4 -1.5,3.7 -1.2,5.4 0.2,0.8 2.8,1.6 4.3,1.5 2.6,-0.1 5.2,-0.8 7.8,-1.4 0.5,-0.1 0.9,-0.9 1.3,-1.4 2,3.2 0.9,5.8 -3.7,7 -2.8,0.7 -5.9,1 -8.8,0.8 -4.4,-0.3 -7.6,-6.8 -5.6,-10.7 0.8,-1.6 1.8,-3.2 3,-4.7 1.1,-1.3 2.5,-2.4 3.6,-3.5 -1.2,-0.6 -2.3,-1 -3.4,-1.7 -0.2,-0.1 0,-1.4 0.3,-1.6 1.8,-1.2 3.7,-1.8 5.9,-0.3 0.2,-1.8 0.6,-3.2 -2.1,-2.6 -0.7,0.2 -2.5,-1.3 -2.5,-2.1 -0.6,-8.9 -1,-17.8 -1.5,-26.7 0.3,-0.1 0.5,-0.1 0.8,-0.2 -1,-0.2 -2,-0.5 -3.5,-0.9 1.1,-0.4 1.7,-0.5 2.3,-0.8 0.6,-0.3 1.2,-0.8 1.8,-1.2 -0.4,-0.5 -0.9,-1 -1.2,-1.6 -1.1,-2.2 -3.5,-2.1 -5.3,-3.2 -0.6,-0.3 -0.9,-1 -1.3,-1.5 0.7,-0.3 1.4,-0.9 2,-0.9 2.3,0 4.5,0.3 7.4,0.5 -0.2,-2.8 -0.3,-5.2 -0.7,-7.6 -0.4,-1.8 0.1,-2.3 1.8,-2.2 3.4,0.3 6.8,0.5 10.1,0.8 2.7,0.2 5.5,0.7 7.8,-1.4 0.2,-0.2 0.7,-0.2 1,-0.2 6,0.1 11.9,0.2 17.8999997,0.3 6.5,0.1 13,0.4 19.5000003,0.4 2.3,0 4.7,-0.5 7.1,-0.8 0,-0.1 -0.1,0.2 -0.3,0.8 2,0 3.9,0 5.8,0 16.3,-0.3 32.6,-0.4 48.8,-1.1 7.5,-0.3 14.9,-2.1 22.3,-3.2 23.700004,-3.7 47.400004,-7.3 71.100004,-11.1 12.1,-2 24.1,-4.4 36.2,-6.3 11.1,-1.70002 22.3,-3.00002 33.5,-4.50002 14.6,-1.9 29.3,-4 43.9,-5.7 20,-2.3 40,-4.4 60.1,-6.5 1.6,-0.2 2.4,-0.7 2.5,-2.4 0.2,-2.3 0.4,-4.6 0.8,-6.9 0.1,-0.8 0.8,-1.6 1.2,-2.3 0.6,0.6 1.6,1.2 1.7,1.9 0.2,2.8 2.9,3.1 4.4,4.8 2.7,-2.5 4.6,-5.8 8.9,-6.8 -1.3,1.3 -2.2,2.3 -3.3,3.4 1.2,1.3 2.3,2.5 3.6,4 1.7,-1.5 2.9,-2.5 4,-3.6 0.1,0 0.2,0.1 0.3,0.1 -0.9,1.5 -1.7,3 -2.7,4.7 2.7,0 5.2,0 7.9,0 -0.3,-3.5 -0.6,-7.1 -0.9,-11 3.2,1.6 3.4,4.3 3.9,7 0.3,1.6 0.8,3.1 1.3,4.7 -1,2.8 0.6,6 -0.1,9.2 6.8,0.9 13.4,2 18.4,6.7 -2.3,1.2 -4.1,-1.2 -6.5,-1.7 0,0.4 0,0.9 -0.1,1 -5.3,-0.7 -10.7,-1.5 -16.3,-2.3 0.3,5.20002 0.7,9.90002 0.8,14.70002 0.2,7.3 0.3,14.7 0.3,22 0,3 -0.7,6 -0.9,9.1 -0.2,2.6 -2.1,3.9 -3.8,5.4 1.7,-16.9 1.1,-33.7 1.7,-51.00002 -3.4,0.4 -6.5,0.8 -9.9,1.2 0.6,1 1,1.7 1.5,2.6 0.3,-0.7 0.6,-1.3 1.2,-2.8 0.7,3 1.7,5.10002 1.7,7.30002 0.2,10.5 0.1,21 0,31.4 0,2.8 0,5.6 -1.8,8.2 -1.2,1.6 0,3.6 2.2,3.7 3.8,0.2 7.7,0.1 11.5,0.3 1.5,0.1 3,0.2 4.5,0.5 1.8,0.4 2.3,-0.5 2.2,-2 -0.5,-6.9 -1.3,-13.9 -1.7,-20.8 -0.3,-6.1 -0.1,-12.3 2.6,-18.2 0.1,0.9 0.4,1.7 0.3,2.6 -1.2,8.1 0.2,16 1,24 0.4,4.4 0.2,8.9 0.2,13.4 0,0.5 -0.5,1.1 -0.8,1.8 2.5,0.4 5.1,0.7 8.2,1.2 -2.5,-4.4 -1.7,-8.8 -1.5,-13.1 0.2,-3.8 0.1,-7.5 0.1,-11.3 0,-7.3 0,-14.7 0,-22 0.4,0 0.7,-0.1 1.1,-0.1 0.3,1.7 0.7,3.3 0.8,5 0.4,6.1 0.8,12.1 0.9,18.2 0.2,7.2 0,14.5 0.4,21.7 0.2,3.2 1.2,6.3 1.8,9.3 14.7,-2 29.5,-4 44.2,-6.1 0,-0.4 0.1,-0.8 0.1,-1.2 -3.1,-1 -6.2,-1.7 -9.2,-3 -3.2,-1.3 -5.1,0.2 -7.2,2.1 -0.7,0.7 -1.8,0.9 -2.7,1.4 -0.1,-0.3 -0.3,-0.5 -0.4,-0.8 1.6,-1.4 3.2,-2.9 5.1,-4.6 -4.7,-1.7 -9.2,-3.3 -13.7,-4.8 -0.4,-0.1 -1.1,0 -1.5,0.3 -2.7,2.3 -5.3,4.7 -7.9,7 -0.4,0.3 -0.7,0.8 -1.1,1.1 -1.1,0.8 -2.3,1.6 -3.6,2.5 0,-1.3 -0.6,-3 1.9,-3.5 0.3,-0.1 0.7,-0.2 1,-0.4 2.8,-2.6 5.5,-5.2 8.4,-7.9 -2.3,-1 -4.6,-2 -6.9,-3 0.1,-0.2 0.1,-0.4 0.2,-0.5 2,0.7 4.1,1.2 6.1,2 1.5,0.6 2.4,0.2 3.5,-0.9 2.8,-2.9 5.9,-5.7 8.8,-8.5 0.2,0.1 0.3,0.3 0.5,0.4 -3,3.3 -6.1,6.5 -9.3,10 4.9,1.6 9.5,3.2 14.2,4.6 0.7,0.2 1.8,-0.4 2.4,-1 3.1,-3 6.1,-6.2 9.1,-9.3 0.2,0.2 0.4,0.3 0.6,0.5 -3,3.6 -5.9,7.2 -9,10.9 3.6,1.2 7.1,2.5 10.7,3.5 0.6,0.2 1.7,-0.2 2.1,-0.7 2.9,-4.1 5.7,-8.4 8.8,-12.9 -8.1,-3.2 -15.8,-6.3 -23.5,-9.3 0.1,-0.2 0.1,-0.3 0.2,-0.5 3.4,1 6.9,2 10.3,3.2 4.3,1.5 8.6,3.2 12.7,5 1.8,0.8 2.2,-0.4 2.8,-1.4 0.5,-0.8 0.9,-1.7 1.9,-2.3 -0.6,1.6 -1.2,3.3 -1.9,5.1 3.8,1.7 7.5,3.3 11.2,5.1 1.5,0.7 2.3,0.5 3.3,-1 2.1,-3.4 4.5,-6.6 6.9,-10.3 -1.5,-0.1 -2.9,-0.2 -4.5,-0.3 5,-1.5 9.2,0.7 13.4,2 4.1,1.3 8,3.1 12.1,4.8 2.3,-2.8 4.6,-5.7 6.9,-8.5 0.2,0.1 0.5,0.3 0.7,0.4 -1.9,3 -3.7,5.9 -5.8,9.1 3.8,1.7 7.5,3.4 11.1,5.1 -0.1,0.2 -0.2,0.4 -0.3,0.7 -3.7,-1.5 -7.5,-3.1 -11.8,-4.8 -1,1.8 -1.9,3.8 -3.1,5.7 -0.4,0.6 -1.4,0.8 -2.1,1.2 -0.2,-0.3 -0.5,-0.6 -0.7,-0.9 1.4,-2.3 2.8,-4.6 4.4,-7.3 -6.2,-2.4 -12.3,-4.8 -18.4,-7.1 -2.8,4.6 -5.2,8.7 -7.8,12.9 3.7,1.7 7.1,3.9 10.8,4.7 3.1,0.7 6.5,-0.4 9.8,-0.7 11.8,-1.1 23.5,-2.1 35.3,-3.2 4.6,-0.4 9.3,-0.8 13.9,-1.2 0.1,-2.9 0.3,-5.6 0.4,-8.4 0.3,0 0.6,0 0.9,0 0.2,1 0.5,2.1 0.8,3.4 2.5,-0.3 5,-0.5 7.5,-1 2.2,-0.4 3.8,0.5 5,1.9 1.7,2.1 3.5,2.5 5.1,1.8 1,-1.9 1.7,-3.4 2.4,-4.8 0.8,1.2 1.5,2.4 2.6,4.1 3.6,0.1 8.3,1.5 10.2,-4.6 -0.4,-0.1 -1,-0.4 -1.5,-0.5 -6.9,-1.6 -13.7,-3.7 -20.7,-4.8 -6.4,-1 -13,-1.1 -19.5,-1.4 -19.9,-0.9 -39.7,-1.6 -59.6,-2.8 -11.9,-0.7 -23.7,-2.1 -35.5,-3.6 -8.7,-1.1 -17.4,-2.8 -26.1,-4.2 -1.3,-0.2 -2.7,-0.1 -4,-0.6 1.8,0 3.7,-0.1 5.5,0 10.2,0.8 20.4,2 30.7,2.3 13.9,0.4 27.8,-0.1 41.7,0.2 9.6,0.2 19.1,0.9 28.7,1.4 0.4,0 0.9,0 1.4,-0.5 -2.1,-0.8 -4.1,-1.7 -6.3,-2.2 -11.1,-2.8 -22.1,-5.9 -33.3,-8.2 -26,-5.2 -52.1,-10.00002 -78.2,-15.00002 -0.8,-0.1 -1.5,-0.4 -2.2,-1.1 4.8,0.8 9.7,1.5 14.5,2.3 14.1,2.4 28.2,4.6 42.3,7.20002 18.9,3.5 37.7,7.6 56.3,12.3 13,3.3 25.9,7.1 38.9,9.9 5.8,1.3 11.9,0.7 17.9,1.1 5.3,0.3 10.7,0.9 16,1.2 1.4,0.1 2.9,-0.9 4.4,-0.8 6.4,0.2 12.9,0.4 19.29995,0.9 1.5,0.1 2.9,1.3 4.2,2.1 -15.49995,-1.2 -30.99995,-1.4 -46.49995,-1.2 0,0.3 -0.1,0.5 -0.1,0.8 3.1,0.4 6.2,1.4 9.2,1.2 4.2,-0.2 8.4,-1 12.4,0.7 1.7,0.7 3.1,2.3 4.7,3.4 0.5,0.4 1,0.8 1.6,1 2.9,0.7 5.9,1.3 8.9,2 0.9,0.2 1.8,0.5 2.8,0.8 -0.1,0.3 -0.1,0.7 -0.2,1 -4.2,-0.6 -8.3,-1.1 -12.5,-1.7 0,9.7 0,19.3 0,28.9 0,1.3 0.7,3.4 -1.3,3.6 -2.1,0.2 -3.2,-1.7 -3.3,-3.5 -0.1,-3.4 0.2,-6.8 0.3,-10.2 0,-0.4 0,-0.7 -0.5,-1.2 -2,3.4 -4,6.9 -6,10.3 0.3,0 0.7,-0.1 1,-0.1 0.7,0.8 1.4,1.6 2.2,2.4 -0.8,0.7 -1.5,1.4 -2.3,2 -0.3,0.2 -0.9,0.1 -1.3,0.3 -0.6,0.3 -1.1,0.7 -1.7,1.1 0.4,0.5 0.8,1 1.6,1.9 -1.2,0.6 -2.6,1.8 -3.4,1.5 -0.9,-0.3 -1.3,-2.1 -2,-3.3 -2.8,-0.5 -6,-1.2 -9.3,-1.6 -2.5,-0.3 -3.5,-1.8 -3.5,-4 0,-6.7 0.1,-13.4 0.2,-20.1 0,-0.8 0.1,-1.5 0.2,-2.6 -1.2,0.2 -2.2,0.3 -3.5,0.5 1.3,9.5 -3.1,18.8 0,28.3 -1.7,0.6 -3,0.4 -4.1,-1.2 -1.4,-2 -3.7,-2.3 -5.8,-1 -0.5,0.3 -1.3,0 -2,-0.1 -0.4,-0.1 -0.7,-0.5 -1.1,-0.5 -3.6,-0.4 -4.6,-1.6 -4.5,-5.2 0.1,-2.9 0,-5.7 0,-9.4 -1.2,1.1 -2,1.8 -2.8,2.6 -0.1,-2.3 -1.5,-1.1 -2.8,-1 -14,1.8 -28,3.7 -42,5.4 -10.1,1.2 -20.3,2.3 -30.4,3.2 -3.9,0.3 -7.9,0.1 -11.8,0 -9.8,-0.1 -19.5,-0.3 -29.3,-0.2 -5.3,0 -10.5,0.6 -15.8,0.9 -2.2,0.1 -4.4,0 -6.7,-0.4 3,-0.5 6,-1.3 9,-1.4 12.7,-0.7 25.3,-1.7 38,-1.8 17.2,-0.1 34.1,-2 51.1,-4.2 12.9,-1.6 25.9,-3.4 38.8,-5.1 4.1,-0.5 4.8,-1.4 5,-6.7 -28.4,2.7 -56.8,5.5 -85.2,8.2 0,0.3 -0.1,0.7 -0.1,1 1.2,0.8 2.3,1.5 3.5,2.3 -0.1,0.2 -0.1,0.4 -0.2,0.6 -0.6,-0.1 -1.3,0 -1.7,-0.3 -3.7,-2.9 -7.9,-2.2 -12.1,-1.7 -10.7,1.2 -21.3,2.4 -32,3.5 -5,0.5 -10,0.8 -15.1,1.2 -0.3,1.1 -0.6,2.1 -0.8,2.9 -4.2,-1.7 -8.5,-0.5 -13.1,-0.5 0.6,4.5 1.1,8.6 1.6,12.7 1,9.3 2.2,18.6 2.9,28 0.9,11.3 1.5,22.7 2.2,34 0.6,10.7 1.1,21.4 1.7,32.1 0.6,12 1.4,23.9 1.9,35.9 0.4,9.6 0.6,19.1 0.9,28.7 0,1.2 0.1,2.5 0.2,3.7 0.4,5.3 0.5,5.1 5.4,6.6 9.3,2.8 18.5,5.9 27.7,8.8 0.7,0.2 1.4,0.7 2,1.5 -1.3,-0.2 -2.6,-0.4 -3.9,-0.5 -4,-0.4 -8,-0.4 -12,-1 -5.7,-0.9 -11.4,-2.1 -17,-3.4 -1.9,-0.4 -3.2,-0.5 -4.2,1.4 -0.3,0.6 -1.1,0.8 -2.1,1.6 0,-1.8 0,-3 0,-4.6 -5.9,-1.2 -11.6,-2.3 -17.4,-3.4 -0.7,-0.1 -1.5,0.6 -2.3,1 -4.2,-3.3 -9.4,-3.1 -14.3,-3.7 -11,-1.4 -22,-2.6 -33.1,-3.7 -6.6,-0.6 -13.3,-0.7 -19.9,-1.3 -7.9,-0.8 -15.8,-1.9 -23.7,-2.8 -5.4,-0.6 -10.7,-1.4 -16.2,0.1 -4.2,1.1 -8.7,1 -13,1.8 -4.3,0.7 -8.6,1.7 -12.8,2.9 -5.1,1.4 -10.1,2.9 -15,4.8 -7.1,2.7 -14.4,3.8 -22,3.6 -1.1,0 -2.1,0 -3.5,0 -0.3,14 -0.6,27.9 -1,41.9 1.1,0.1 2.8,0.4 4.4,0.6 0.4,0.1 1.1,0.1 1.2,0.4 2.2,4.5 7.1,5.3 10.9,7.3 4.9,2.5 10.3,4 15.3,6.5 4.7,2.3 9.1,5.2 13.7,7.9 3.4,2 4.9,1.6 6.6,-0.8 2.2,1.8 4.4,3.8 7.1,6.1 -1.7,-0.3 -2.9,-0.5 -4.4,-0.7 0.7,1.2 1.3,2.3 2.2,3.8 -5.9,-1.9 -11.6,-3.1 -16.6,-5.6 -12.1,-6 -24.6,-10.6 -37.4,-14.6 -3.2,-1 -6.7,-2 -9.3,-3.9 -4.8,-3.5 -10.1,-3.7 -15.5,-4.1 -19.2,-1.6 -38.3,-3.1 -57.5,-4.7 -5.3,-0.4 -10.7,-0.9 -16.900004,-1.3 3.400004,2.7 2.700004,5.8 2.800004,8.8 0.1,11.8 0.5,23.6 0.4,35.5 0,8.9 -0.6,17.7 -0.7,26.6 -0.1,10.8 -0.3,21.7 0,32.5 0.2,5.2 1.7,10 6.2,13.7 7.4,6.2 15.5,11.2 23.7,16.1 6,3.6 12,7.6 17.4,12.1 16.1,13.5 32.1,27.2 47.9,41.2 9.1,8 17.6,16.5 26.4,24.8 0.4,0.4 0.9,0.7 1,1.2 0.2,0.6 0.1,1.3 0.2,1.9 -0.6,0 -1.2,0.2 -1.7,-0.1 -0.9,-0.4 -1.6,-1.1 -2.5,-1.6 -20.6,-14.2 -38.9,-31 -57.6,-47.4 -11.2,-9.8 -22.6,-19.3 -34.7,-27.9 -3.6,-2.5 -7.4,-4.6 -11,-7.2 -3.2,-2.3 -6.2,-4.8 -9,-7.6 -2.7,-2.7 -5,-5.7 -7.7,-8.9 -2.100004,0.4 -4.800004,1 -7.900004,1.6 -0.8,-8 -1.6,-15.7 -2.3,-23 -5.7,0.4 -11.5,1 -17.4,1.3 -8,0.4 -16.1,0.8 -24.1,1 -2.1,0.1 -4.3,-0.1 -6.4,-0.5 -0.9,-0.2 -1.6,-1.2 -2.8,-2.2 6.1,-0.3 11.2,-0.5 16.4,-0.8 7.6,-0.5 15.2,-1.1 22.7,-1.5 2.7,-0.1 5.4,0.1 8,0.1 3.5,0 3.6,-0.3 3.7,-3.8 0.2,-15.6 0.6,-31.2 0.8,-46.7 0.2,-11.1 0.2,-22.2 0.2,-33.3 0,-1.7 0,-3.4 -0.4,-5 -0.2,-0.7 -1.3,-1.5 -2.1,-1.6 -11.6,-0.9 -23.2,-1.7 -34.8,-2.5 -3.2,-0.2 -6.4,-0.5 -10,-0.8 -0.4,1.8 -1,3.5 -1.1,5.2 -1,22.3 -1.9,44.7 -2.8,67.1 -0.4,10.3 -0.4,20.6 -1.2,30.8 -0.4,6 -0.7,12.2 -3.9,17.6 -0.6,1 -1.3,2 -2.2,2.6 -17.4,12.2 -34.8000003,24.3 -52.2,36.4 -7.6,5.3 -15.2,10.7 -22.9,16 -1.4,0.9 -3.3,1.2 -5,1.6 -2.3,0.4 -4.6,0.6 -7.1,0.9 0,-1.4 0,-3 0,-4.9 -2.8,0.3 -5.4,0.7 -7.9,0.7 -4.6,0 -9.1,-0.4 -13.7,-0.6 -14.1,-0.7 -28.299996,-1.3 -42.399996,-2.1 -15,-0.9 -30,-1.7 -45,-3 -30.8,-2.7 -61.5,-5.7 -92.2,-8.8 -12,-1.2 -24,-2.2 -35.4,-6.5 -2.6,-1 -4.9,-2.7 -7.30001,-4 0.1,-0.3 0.2,-0.6 0.30001,-0.8 0.6,-0.1 1.2,-0.2 1.8,-0.3 0,-0.1 0.1,-0.3 0.1,-0.4 -5.10001,-7.6 -3.80001,-16.3 -3.80001,-24.7 0,-22 0.2,-44 0.3,-66 0,-1.5 -0.4,-3 -0.6,-4.5 -0.2,0 -0.5,0 -0.7,0 -0.7,33.1 -1.4,66.2 -2.1,99.4 -2.9,-1.9 -6,-3.7 -8.9,-5.7 -0.5,-0.3 -0.6,-1.4 -0.6,-2.1 -0.1,-3.1 0,-6.3 0,-9.8 -5.6,1.7 -11,3.2 -16.3,5.1 -12.3,4.4 -24.8,8.3 -36.7,13.5 -11.6,5 -20.9,13.4 -28.4,23.7 -3.9,5.4 -3.1,9.3 2.4,13.3 8.1,5.9 17.6,8.6 27.1,11.3 22.7,6.4 46,9.6 69.50001,11.4 28.5,2.1 57.1,3.5 85.7,3.8 19.9,0.2 39.7,1.5 59.6,2 15.9,0.4 31.9,0.5 47.8,0.7 19.799996,0.2 39.599996,0.6 59.399996,0.7 23.7,0.1 47.4999997,-0.2 71.2,-0.2 13.4,0 26.9,0.3 40.3,0.5 17.3,0.3 34.600004,0.4 51.800004,0.8 16.7,0.4 33.4,0.9 50.2,1.6 17.4,0.7 34.9,1.9 52.3,2.3 19.2,0.5 38.5,0.8 57.8,0.4 12.9,-0.3 25.7,-1.8 38.6,-2.9 10.6,-0.9 21.2,-1.8 31.8,-2.8 10.6,-1 21.2,-2 31.7,-3.2 11.4,-1.2 22.8,-2.3 34.1,-3.8 24.4,-3.4 48.7,-7.1 72.1,-15.1 5.8,-2 11.3,-4.8 16.7,-7.7 3,-1.6 3.3,-3.8 0.8,-6.1 -3.4,-3.1 -6.9,-6.1 -10.7,-8.4 -22,-13.2 -45.3,-23.2 -70.2,-29.5 -3.8,-1 -7.3,-2.7 -11,-4.1 -0.7,-0.3 -1.3,-0.9 -2,-1.3 1,-1.4 1.1,-1.7 1.3,-2 z m -221.7,-132.1 c -1.3,-2.7 -3.3,-5.1 -3.4,-7.5 -0.3,-6.5 0.4,-13 0.4,-19.6 0,-8.6 -0.2,-17.2 -0.4,-25.8 -0.2,-9.5 -0.4,-19 -0.5,-28.4 0,-2.8 0.9,-5.7 0.7,-8.5 -0.6,-10.3 -1.9,-20.6 1.1,-30.8 0.3,-1.2 0.6,-2.3 1,-4 -0.7,-0.3 -1.7,-1.1 -2.7,-1.2 -8.9,-0.7 -17.9,-1.2 -26.8,-1.8 -7.7,-0.5 -15.4,-0.7 -23,-1.9 -20.3,-3.2 -40.600004,-3.5 -61.100004,-3.1 -19,0.4 -37.9,0.5 -56.9,2 -17.0000003,1.4 -34.2,1 -51.2,1.1 -6,0 -12.1,-0.9 -18.1,-1.3 -5.8,-0.4 -11.6,-0.8 -17.4,-1.1 -1.7,-0.1 -3.5,0 -5.4,0 0,0.9 0,1.5 0,2.1 0.5,12.5 1.3,25 1.3,37.5 0,8.4 -1.2,16.8 -1.4,25.2 -0.4,11.4 -0.5,22.9 -0.6,34.4 -0.1,6.5 0,13 0,19.6 -0.1,0 0.6,0 1.2,0 9.6,-0.5 19.1,-1 28.7,-1.4 7,-0.3 13.9,-0.4 20.9,-0.5 22.5999997,-0.5 45.2,0.7 67.8,2.7 14.6,1.3 29.3,2.2 43.9,3.1 7.7,0.5 15.400004,0.7 23.000004,1.3 11.6,0.9 23.2,2 34.8,3 9.2,0.8 18.5,1.8 27.7,2.6 0.9,0.1 1.9,-0.5 2.8,-0.6 0.9,-0.1 2.3,-0.6 2.7,-0.1 3.2,2.9 7.3,1.9 10.9,3 z m -240.300004,169.1 c 1.2,-0.7 2,-1.1 2.8,-1.7 3.6,-2.7 7.1,-5.4 10.7,-8.1 9.6,-7.3 19.1,-14.8 28.8999997,-21.8 11.6,-8.4 23.4000003,-16.5 35.3000003,-24.5 3,-2 3.9,-4.2 3.9,-7.5 0.1,-9.4 0.2,-18.8 0.4,-28.2 0.5,-17.6 1,-35.2 1.7,-52.9 0.2,-6 0.9,-11.9 1.4,-17.9 0.4,-4.6 0.9,-9.2 1.4,-13.8 -4.4,-1 -8.6,-1.2 -12.1,2.8 -1.7,2 -4.2,3.4 -6.5,4.6 -9.9,5 -19.80000029,9.9 -29.8000003,14.6 -6.6999997,3.2 -13.4999997,6.2 -20.2999997,9 -5.6,2.3 -11.4,4.1 -17.1,6.1 -0.9,0.3 -1.7,0.8 -2.4,1.2 1,2.8 2.2,5.3 2.7,7.8 1.1,5.8 2.5,11.6 2.8,17.4 0.4,8.9 0.4,17.9 -0.1,26.8 -0.6,12.2 -2.2,24.3 -2.8,36.4 -0.6,13.3 -0.6,26.7 -0.8,40 0,1.4 0,2.8 0,4.1 1.3,0.2 2.4,0.4 3.5,0.6 0,0.2 0,0.3 0,0.5 -1.2,0.3 -2.3,0.6 -3.5,0.9 -0.1,1.3 -0.1,2.2 -0.1,3.6 z m 352.500004,-416.9 c 0,0.2 0.1,0.4 0.1,0.6 -10.9,-0.5 -21.8,-0.9 -32.6,-1.6 -6.3,-0.4 -12.7,-1.2 -19,-1.5 -5.7,-0.2 -11.5,0 -17.2,0 -5.8,0 -11.7,0.3 -17.5,0 -5.5,-0.2 -11,0.8 -16.5,0.7 -2.6,-0.1 -5.2,0.4 -7.8,0.4 -27.4,0 -54.8,-0.1 -82.3,-0.2 -2.1,0 -4.1,-0.2 -6.2,0.1 -2,0.3 -4.3,0.7 -6,1.8 -2.100004,1.4 -3.800004,1.1 -6.300004,-0.1 1.7,-0.4 2.8,-0.6 3.8,-0.8 0,-0.1 -0.1,-0.2 -0.1,-0.3 -29,0.3 -57.9,0.6 -84.7,0.9 12.8,2.4 27.9,4.7 43.2,4.7 17.3,-0.1 34.6,-0.4 51.900004,-0.4 23.1,0.1 46.2,0.7 69.3,0.8 22.9,0.1 45.9,-0.6 68.8,0 19.2,0.5 38.4,2.3 57.6,3.6 5.1,0.3 10.1,0.9 15.2,1.3 0.5,-14 1,-28 1.5,-41.9 0.4,0 0.8,0 1.1,0 0,12.9 0,25.8 0,38.8 2.9,2.7 6.6,3.5 10.5,3.9 3.3,0.4 6.5,0.9 9.8,1.7 8.9,2.1 17.8,3.8 27,3.5 4.8,-0.1 9.6,0.9 14.4,1.4 3.7,0.3 7.4,0.5 11.1,0.8 0,-1.9 0,-3.4 0,-4.4 -4.4,-0.4 -8.6,-0.8 -12.7,-1.2 -1.7,-0.2 -3.4,-0.6 -5.1,-0.6 -7.4,-0.2 -14.8,-0.3 -22.1,-1.9 -8.3,-1.8 -16.4,-4.1 -23.7,-8.5 -0.3,0.2 -0.8,0.6 -1.8,1.3 -0.5,-2 -1,-3.4 -1.1,-4.9 -0.5,-5.9 -0.4,-11.8 -1.4,-17.6 -0.9,-5.2 -0.1,-10.2 0.2,-14.4 0.6,4.9 1.4,10.5 2.1,16.2 0.6,4.8 0.9,9.6 1.5,14.4 0.1,0.9 0.9,2.1 1.6,2.4 4.5,1.7 9,3.3 13.6,4.6 3.6,1 7.3,1.6 11.5,2.6 -0.9,-1.2 -1.3,-1.8 -1.8,-2.4 -2.6,1.7 -2.8,1.6 -4.1,-1.4 -0.1,-0.4 -0.5,-0.7 -0.8,-0.9 -1.1,-0.8 -2.2,-1.5 -3.2,-2.1 -0.9,0.3 -1.8,0.8 -2.8,1 -0.3,0 -1,-0.9 -1,-1.3 0.2,-3.8 0.3,-7.6 0.7,-11.3 0.4,-3 1.2,-5.9 1.9,-9 -1.9,0 -3.2,0 -4.7,0 -0.3,5.7 -0.7,11.5 -1,17.2 -0.3,0 -0.6,0 -0.9,0 0,-5.4 0,-10.8 0,-16.2 0,-0.7 -0.1,-1.4 -0.5,-2 -1.4,-2.4 -1.3,-4.5 1.1,-5.6 1.9,-0.9 4.4,-0.9 6.6,-0.7 2.3,0.2 3.6,-0.3 3.9,-2.7 0.1,-0.8 0.4,-1.6 0.6,-2.3 1.1,-2.8 3.5,-2 5.5,-1.7 2.2,0.3 3.1,1.9 2.6,3.9 -0.5,1.8 -1.5,3.5 -2.1,4.8 0.4,1.2 0.8,2.3 1.1,3.3 0.4,1.4 1,2.8 1,4.1 0,2 -0.5,4.1 -0.6,6.1 -0.3,5.3 -0.5,10.5 -0.7,15.8 -0.1,1.9 1.4,3.7 2.3,3.6 0.5,-15.1 1,-30.1 1.5,-44.7 -1.6,0.6 -2.8,1.3 -4.1,1.5 -2.6,0.4 -5.3,0.3 -7.9,0.8 -1.7,0.3 -3.3,0.8 -4.1,-1.1 -0.9,-2 0.3,-3.20002 2,-4.10002 0.3,-0.2 0.6,-0.2 0.9,-0.3 -0.1,-0.2 -0.3,-0.3 -0.4,-0.5 -4,0.7 -8.1,1.4 -12.1,2.1 0,-0.2 -0.1,-0.3 -0.1,-0.5 4.2,-1.2 8.3,-2.4 12.5,-3.5 0,-0.1 -0.1,-0.3 -0.1,-0.4 -7.1,0.9 -14.2,1.8 -21.3,2.8 15.1,-4.8 30.4,-7.2 46.5,-6.3 -0.2,-2.4 -0.3,-4.6 -0.7,-6.6 -0.2,-0.9 -1.1,-2.5 -1.6,-2.4 -1.9,0.2 -4.5,-1.2 -5.7,1.8 -1.5,-1.4 -3.1,-1.7 -4.5,0.1 0.9,1.3 1.7,2.5 2.2,3.1 -1.8,0.3 -3.5,0.6 -5.8,1.1 -0.6,-0.9 0.2,-3.8 -2.5,-4 -1.8,-0.1 -3.7,0.5 -6.1,0.8 -0.7,-1 -1.6,-0.9 -2.4,1.1 -0.7,1.8 -1.6,3.4 -2.5,5.2 -0.3,-0.1 -0.6,-0.1 -0.8,-0.2 0.2,-1.9 0.5,-3.8 0.7,-5.8 -0.6,0 -1.2,-0.1 -1.8,0 -6.6,0.8 -13.1,1.6 -19.7,2.3 -17.7,2 -35.4,4 -53.1,6.2 -21,2.6 -41.9,5.2 -62.8,8.30002 -22.4,3.4 -44.6,7.6 -66.9,11.3 -11.6,1.9 -23.2,3.5 -34.8,5.2 -6.100004,0.9 -12.300004,1.7 -18.500004,2.6 2.7,0.4 5.4,0.5 8.1,0.3 32.600004,-1.9 65.200004,-3.9 97.800004,-5.8 4.2,-0.2 8.4,-0.3 12.6,-0.6 12.5,-0.8 25,-1.9 37.5,-2.5 13.8,-0.7 27.5,-1.1 41.3,-1.5 2.7,-0.1 5.5,0 8.2,0 0,0.1 0,0.2 0,0.3 -42.5,2.8 -85.1,5.5 -128,8.3 3,3.7 6.4,4.4 10.3,3.8 -1.2,0.3 -2.4,0.6 -3.5,0.8 3.9,3.5 7.7,6.9 11.5,10.2 0.6,0.5 1.6,0.6 2.5,0.6 5.2,0 10.4,-0.4 15.6,0 5.6,0.5 9.5,-2.7 14.4,-5 -4.2,-3.1 -8.2,-6.1 -10.6,-10.5 3,2.1 5.8,4.3 8.5,6.7 2.4,2.2 4.7,3.5 7.3,0.4 0.1,-0.1 0.3,-0.2 0.5,-0.3 5.8,-1.6 11,-4.3 15.9,-7.8 0.2,-0.2 0.6,-0.2 0.9,-0.2 0.2,0.2 0.4,0.4 0.6,0.6 -1.4,1.5 -2.6,3.4 -4.3,4.3 -3.7,2 -7.6,3.4 -11.4,5.1 -1,0.4 -1.9,1.1 -3.1,1.9 2.6,0.9 4.7,1.7 6.8,2.3 2.6,0.8 5.3,1.9 8,2 6.6,0.3 13.2,-0.1 19.8,0.3 8.6,0.5 17.1,1.6 25.7,2.3 9,0.6 17.6,1.1 26.3,1.7 z m -199.6,-4.9 c 0,-0.3 0,-0.5 0,-0.8 -3.9,-1.9 -7.800004,-3.9 -11.700004,-5.8 0.1,-0.2 0.2,-0.5 0.3,-0.7 1,0.4 1.9,0.7 2.9,1.1 3.100004,1.3 6.200004,2.7 9.400004,4 0.7,0.3 1.7,0.4 2.2,0.1 2.3,-1.2 4.5,-2.6 6.7,-3.8 2.5,-1.3 5,-2.5 7.6,-3.8 0.1,0.2 0.2,0.4 0.3,0.6 -4,2.7 -8.1,5.5 -12.5,8.5 2.4,0.6 4.4,1.5 6.3,1.5 20.5,0.1 41,0.1 61.6,0.1 0.6,0 1.2,-0.1 1.7,-0.2 -3,-2.6 -6,-5.2 -8.9,-7.8 -1.9,-1.7 -3.7,-2.3 -5.8,-0.3 -1.7,1.5 -3.6,2.9 -5.5,4.2 -0.8,0.6 -2,0.7 -3,1 -0.1,-0.2 -0.1,-0.4 -0.2,-0.6 3.3,-2.4 6.5,-4.8 9.8,-7.3 -2.9,-2.7 -5.9,-4.3 -10,-3.6 -3.5,0.6 -7.1,0.5 -10.7,0.7 -20.1,0.9 -40.2,1.7 -60.400004,2.8 -4.9,0.3 -10.1,-1.2 -14.7,1.6 -3.5,2 -6.9,4.1 -10.6,6.2 2.4,1.7 4.2,3 6.2,4.2 0.5,0.3 1.4,0.3 2,0.3 10,-0.3 20,-0.5 30.1,-0.9 2.200004,-0.2 4.500004,-0.9 6.900004,-1.3 z m -91.500004,-8.8 c -2.9,-0.2 -5.1000003,-0.4 -7.3000003,-0.5 -7.49999999,-0.4 -15,-0.6 -22.4999997,-1.2 -3.7,-0.3 -7.3,-1.2 -10.8,1 -1.2,0.7 -2.9,0.6 -4.4,0.6 -3.5,0 -7,-0.3 -10.2,-0.4 0,2.4 0,4.6 0,6.7 0.1,0 0.3,0 0.4,0 0.2,-1.1 0.3,-2.2 0.5,-3.4 0.3,0 0.5,0 0.8,0 0.2,1.5 0.4,3 0.6,4.6 18,1 35.9999997,2 53.7,3 -3.1,-6.8 -8.7000003,-3.6 -13.7000003,-3.7 2,-0.4 3.9,-0.7 6,-1.1 -0.4,-0.5 -0.7,-0.8 -0.9,-1.1 2.4,-1.3 4.7000003,-2.7 7.8000003,-4.5 z m 42.1,6.7 c -3.2,-4.6 -7.7,-5.6 -13.1,-4.1 -0.5,0.1 -1.1,0.1 -1.6,0.2 -9.4,1.2 -18.7,2.4 -28.3,3.6 1.7,2.1 3.3,4.4 6.3,4.5 9.9,0.2 19.9,0.3 29.8,0.4 0.7,0 1.4,-0.2 2,-0.6 1.7,-1.3 3.4,-2.8 4.9,-4 z m 294.000004,163 c -3.7,-4.1 -7.3,-8.1 -11.2,-12.5 -2.2,3 -4.5,5.9 -6.3,9 -0.8,1.3 -1.2,3.8 -0.5,4.7 2.8,3.6 6.2,6.8 9.5,10.3 3,-4.1 5.6,-7.7 8.5,-11.5 z m 3.3,3.7 c -2.7,4.1 -5.1,7.7 -7.2,10.8 4,4.1 7.7,8 11.1,11.6 1.8,-3.6 3.7,-7.3 5.7,-11.3 -3,-3.4 -6.1,-7.1 -9.6,-11.1 z m 90.4,-149.1 c 7,1 13.3,-1.1 18.7,-1.7 1.4,-2.8 2.5,-4.7 3.5,-6.7 -4.4,-2 -8.8,-4 -13.3,-6.1 -2.9,4.7 -5.8,9.3 -8.9,14.5 z m -93.4,120 c -2.7,3 -5.2,5.7 -7.8,8.6 3.8,4.2 7.5,8.2 11.3,12.3 2.1,-2.5 4,-4.8 5.8,-7.3 0.4,-0.6 0.5,-1.9 0.1,-2.5 -2.9,-3.6 -6,-7.2 -9.4,-11.1 z m 2.9,-70.7 c 2.3,-3.4 4.3,-6.3 6,-8.8 -2.9,-4.6 -5.6,-8.7 -8.4,-13.2 -2,3.3 -3.8,6.2 -5.4,9.2 -0.3,0.5 -0.1,1.6 0.3,2.1 2.3,3.4 4.7,6.8 7.5,10.7 z m 11.3,78.8 c 1.5,-2.3 2.9,-4.5 4.2,-6.7 0.2,-0.4 0.2,-1.3 0,-1.7 -3,-4.2 -6.2,-8.4 -9.4,-12.9 -2,3 -3.8,5.7 -5.7,8.5 3.6,4.2 7.2,8.4 10.9,12.8 z m 84.5,-159.1 c 27,2.1 54,4 81,3.9 -26.9,-3.8 -53.9,-4.9 -81,-3.9 z m -99.4,142.7 c 2.3,-3.1 4.4,-5.8 6.6,-8.8 -3,-3.4 -5.9,-6.7 -8.9,-10.2 -1.9,3.3 -3.6,6.2 -5.2,9.2 -0.3,0.6 -0.1,1.9 0.4,2.4 2.2,2.5 4.5,4.8 7.1,7.4 z m -3.5,-45.6 c -2.3,3.7 -4.5,7.3 -6.8,11 2.8,2.4 5.5,4.7 8.3,7.2 1.5,-2.4 3.3,-5.4 5.2,-8.4 -2.3,-3.3 -4.4,-6.5 -6.7,-9.8 z m 11.1,78.7 c 2.8,3.1 5.5,6.2 8.4,9.5 1.7,-2.6 3.2,-4.9 4.6,-7.3 0.2,-0.4 0.4,-1.1 0.1,-1.5 -2.1,-3.2 -4.4,-6.4 -6.7,-9.7 -2.3,3.3 -4.3,6.1 -6.4,9 z m -1.9,-65.3 c -1.8,3.1 -3.4,6 -5,8.9 2.9,3.2 5.8,6.4 8.8,9.7 1.7,-2.6 3.2,-5 4.7,-7.2 -2.9,-3.8 -5.6,-7.5 -8.5,-11.4 z m -12.3,-39.1 c -1.8,3 -3.5,5.8 -5,8.4 3.1,3.4 6,6.6 9.1,10 1.3,-1.8 2.5,-3.3 3.5,-5 0.4,-0.6 0.6,-1.8 0.2,-2.3 -2.5,-3.7 -5.2,-7.3 -7.8,-11.1 z m -4.2,67.3 c -6.2,7.9 -5.4,12.6 0.3,16.5 2.4,-2.6 4.8,-5.2 7.3,-7.9 -2.5,-2.9 -5,-5.7 -7.6,-8.6 z m -328.400004,-127.7 c 6.3,1.9 12.5,-0.5 18.7,-1.1 6.2,-0.7 12.4,-1.6 18.7,-2.4 0,-0.3 -0.1,-0.6 -0.1,-1 -1,0 -1.9,0 -2.9,0 -8.2,0 -16.5,0.2 -24.7,-0.1 -4.2,-0.2 -6.9,1.8 -9.7,4.6 z m 345.800004,91.8 c 1.5,-2.4 2.8,-4.4 3.9,-6.5 0.2,-0.4 0.2,-1.3 -0.1,-1.7 -2.3,-3 -4.8,-5.9 -7.2,-8.9 -4.2,7 -4.2,7 0.6,13.4 0.8,1 1.6,2.1 2.8,3.7 z m -396.200004,-82.2 c 15.8,-0.4 31.4999997,-0.8 47.2999997,-1.2 -2.4,-0.4 -4.8,-0.6 -7.19999999,-0.8 -11.99999971,-0.6 -24.09999971,-1.2 -36.09999971,-1.9 -3.9,-0.2 -4.5,0.4 -4,3.9 z m 377.100004,91.4 c -2.6,3 -1.9,15.9 0.8,17.9 1.9,-2.9 3.8,-5.8 5.6,-8.7 0.3,-0.5 0.1,-1.6 -0.3,-2.1 -1.9,-2.3 -4,-4.6 -6.1,-7.1 z m 243.5,-86.5 c 0,0 -0.2,-0.1 -0.2,-0.1 -4.8,6.3 -9.6,12.6 -14.7,19.3 5.2,0.6 5.2,0.5 7.1,-3.3 2.6,-5.3 5.2,-10.6 7.8,-15.9 z m -512.400004,-19.2 c -0.1,-0.2 -0.2,-0.5 -0.3,-0.7 -5,0.7 -10.1,1.5 -15.8,2.3 1.1,0.7 1.5,0.8 1.8,1.1 2.6,2.6 5.2,3.9 8.4,0.6 1.5,-1.5 3.9,-2.2 5.9,-3.3 z m 496.200004,24.8 c 2.2,-3.8 4,-7 6,-10.5 -2,0.3 -3.5,0.5 -5,0.6 -1.5,0.1 -2.1,0.8 -1.9,2.2 0.3,2.3 0.6,4.6 0.9,7.7 z m -96,-7.3 c -1.2,1.6 -2.4,3 -4,5.1 4.5,-0.6 8.2,-1.1 12.5,-1.7 -3.1,-1.3 -5.7,-2.3 -8.5,-3.4 z m -114.4,-62.60002 c 4.3,3.5 5.5,3.5 7.5,0.1 -1.2,-1.2 -2.4,-2.3 -3.8,-3.6 -1.3,1.2 -2.4,2.3 -3.7,3.5 z m 218.9,69.40002 c 0.1,0 0.1,0.1 0.2,0.1 3.1,-3.6 6.1,-7.1 9.2,-10.7 1.3,-1.5 1.1,-2.9 -0.1,-4.6 -3.3,5.3 -6.3,10.2 -9.3,15.2 z m -349.5,-14.6 c -4.2,-1.8 -8.3,-4 -12.6,0 4.3,0 8.4,0 12.6,0 z m 323.5,8.5 c -3.9,-0.1 -5,0.8 -5,3.9 0,0.7 0.8,1.8 1.1,1.8 0.8,0 1.8,-0.5 2.2,-1.2 0.8,-1.2 1.2,-2.8 1.7,-4.5 z m -5.1,-2.9 c 2.6,-1.7 6.6,0.9 7.8,-3.5 -2.8,0 -5.4,0 -8.3,0 0.2,1.1 0.3,2 0.5,3.5 z m -489.000004,-3.9 c 4.4,0 8,0 12.1,0 -2,-0.9 -3.4,-1.7 -5,-2.1 -1,-0.3 -2.1,-0.4 -3.1,-0.1 -1.1,0.4 -2.2,1.2 -4,2.2 z m 532.600004,4.4 c -2.1,4.1 -3.9,7.7 -5.8,11.2 0.2,0.1 0.4,0.2 0.6,0.3 2.3,-3.4 6.3,-5.8 5.2,-11.5 z m -35.6,8.3 c 4,-1.8 4.6,-3.1 3.5,-7.2 -1.1,2.5 -2.2,4.7 -3.5,7.2 z m -5,14 c 0.3,0.2 0.5,0.3 0.8,0.5 2.5,-2.5 3.5,-5.8 4.7,-9.1 -1.8,2.9 -3.6,5.8 -5.5,8.6 z m 7,0.5 c 0,-2.1 0,-3.9 0,-6.3 -1.2,2.3 -2.1,4 -3.1,6 1.2,0.1 1.9,0.2 3.1,0.3 z m -200.7,-81.80002 c -1,-1.3 -1.6,-2.1 -2.5,-3.2 -0.3,1.8 -0.5,3.3 -0.9,5.6 1.5,-1.2 2.6,-1.9 3.4,-2.4 z m 225.8,54.80002 c -3.7,0.9 -4.1,3.6 -4.7,6.1 1.4,-1.9 2.9,-3.8 4.7,-6.1 z"
       id="path2604"
       inkscape:connector-curvature="0" />
    <path
       d="m 438.78494,1398.0187 c -3.5,3 -6.6,6.7 -10.5,8.9 -7.8,4.4 -16.1,8.1 -24.3,11.8 -16.3,7.3 -32.7,14.4 -49,21.6 -9.1,4 -18.1,8.1 -27,12.4 -16.4,8 -32.8,15.9 -49,24.3 -8.9,4.6 -17.2,10.2 -25.8,15.4 -3.7,2.2 -7.4,4.4 -10.8,6.9 -1.6,1.2 -2.8,3.1 -5.1,2.4 -1,-0.3 -2.2,-1 -2.6,-1.9 -0.3,-0.7 0.3,-2.2 1,-2.7 3.6,-2.8 7.3,-5.7 11.1,-8.2 8.2,-5.4 16.5,-10.7 25,-15.7 5.7,-3.4 11.6,-6.4 17.5,-9.3 12.7,-6.3 25.4,-12.7 38.4,-18.5 18.8,-8.5 37.7,-16.7 56.8,-24.7 14,-5.9 28.4,-11.1 42.5,-16.8 3.2,-1.3 6,-3.5 9,-5.3 0.8,-0.5 1.6,-0.9 2.4,-1.3 0.1,0.2 0.2,0.5 0.4,0.7 z"
       id="path2606"
       inkscape:connector-curvature="0" />
    <path
       d="m 255.18494,1312.0187 c 1.2,-0.6 2.4,-1.3 3.6,-1.8 3.1,-1.2 6.4,-2.2 9.4,-3.5 4.5,-2 8.9,-4.2 13.4,-6.4 1.4,-0.6 2.7,-1.5 4.1,-1.9 21.9,-6.4 43.9,-12.8 65.9,-19.1 17.9,-5.1 35.9,-10.2 53.9,-15 7.4,-2 15,-3 22.5,-4.6 2.4,-0.5 4.8,-1.5 7.1,-2.2 0.9,-0.3 1.8,-0.6 2.7,-0.8 0.2,0.3 0.3,0.6 0.5,0.8 -3,1.8 -5.8,4.3 -9.1,5.4 -10.4,3.5 -20.9,6.5 -31.4,9.6 -17.6,5.1 -35.2,10.2 -52.8,15.1 -17.4,4.9 -34.8,9.6 -52.1,14.6 -3.9,1.1 -7.5,3.2 -11.3,4.7 -4.2,1.6 -8.4,3.1 -12.7,4.4 -2.9,0.9 -6,1.4 -9.1,1.9 -1.4,0.2 -2.9,0 -4.4,0 0,-0.3 -0.1,-0.7 -0.2,-1.2 z"
       id="path2608"
       inkscape:connector-curvature="0" />
    <path
       d="m 232.68494,1466.6187 c 1.1,-19.9 2.4,-38.2 3.1,-56.5 0.8,-21 1.1,-42 1.9,-63 0.2,-6.4 1.4,-12.7 2.1,-19.1 0.2,-1.9 0.3,-3.9 0.9,-5.8 0.3,-0.9 1.5,-1.6 2.2,-2.4 0.7,0.9 1.9,1.7 2,2.7 0.3,1.9 0.2,3.9 0.1,5.9 -0.6,19.7 -1.1,39.3 -2,59 -0.9,21.1 -2.3,42.1 -3.2,63.2 -0.5,11.2 -0.5,22.4 -1,33.5 -0.1,3.2 -1.2,6.5 -1.9,9.6 -0.1,0.5 -0.9,1 -1.4,1.2 -0.2,0.1 -1,-0.7 -1.1,-1.2 -0.6,-2 -1.5,-4.1 -1.5,-6.1 -0.3,-7.6 -0.2,-15.1 -0.2,-21 z"
       id="path2610"
       inkscape:connector-curvature="0" />
    <path
       d="m 444.18494,1312.3187 c 0,14.1 -0.3,28.3 0.1,42.4 0.3,9 1.8,17.9 2.7,26.9 0.2,1.6 1.4,3.7 -0.8,4.5 -2.1,0.7 -2.3,-1.8 -3.1,-3 -3,-4.5 -3.4,-9.6 -3.9,-14.8 -1.6,-16.9 -0.5,-33.8 -0.2,-50.6 0.1,-9.7 0.3,-19.3 0.5,-29 0.2,-9.1 0.5,-18.2 0.9,-27.3 0,-0.9 1.1,-1.7 1.7,-2.5 0.6,0.8 1.7,1.5 1.8,2.3 0.4,4.7 0.7,9.4 0.8,14.2 0.1,12.3 0,24.7 0,37 -0.2,-0.1 -0.4,-0.1 -0.5,-0.1 z"
       id="path2612"
       inkscape:connector-curvature="0" />
    <path
       d="m 378.58494,1065.3187 c 0.1,6.4 0.1,12.8 0.4,19.2 0.6,14.9 1.4,29.8 2,44.8 0.3,6.5 0.1,13.1 0.4,19.6 0.3,10 1,20 1.2,30 0.2,8.7 -0.1,17.4 -0.3,26 -0.1,4.6 -0.4,9.3 -0.7,13.9 0,0.6 -0.4,1.1 -0.6,1.6 -0.3,0 -0.5,0 -0.8,0.1 -0.3,-1.1 -0.5,-2.2 -0.8,-3.3 -3.3,-17 -2.5,-34.2 -2.9,-51.4 -0.3,-12.2 -0.2,-24.4 -0.3,-36.5 -0.1,-11.3 -0.5,-22.7 -0.4,-34 0.1,-9.2 0.7,-18.4 1.1,-27.6 0,-0.8 0.4,-1.7 0.6,-2.5 0.5,0.1 0.8,0.1 1.1,0.1 z"
       id="path2614"
       inkscape:connector-curvature="0" />
    <path
       d="m 155.98494,1123.6187 c -6.7,0.9 -13.9,2.1 -21.2,2.9 -4.7,0.5 -9.5,0.3 -14.2,0.4 -12,0.3 -24.000004,0.9 -36.000004,0.9 -13.8,0 -27.6,-0.3 -41.3,-1.1 -10.5,-0.6 -21,-2.1 -31.4,-3.4 -8.6000003,-1 -17.3000003,-2.3 -25.9,-3.4 0,-0.4 0,-0.7 0,-1.1 2.7,-0.1 5.3999997,-0.5 8.0999997,-0.4 4.3,0.2 8.5,0.9 12.8,1.2 17.6000003,1.3 35.2000003,4 52.9000003,3.7 12.4,-0.2 24.9,0.4 37.3,0.3 8.800004,-0.1 17.500004,-0.9 26.300004,-1.3 4.4,-0.2 8.8,-0.1 13.1,-0.1 3,0 6.2,0.3 9.1,-0.3 4.1,-0.7 7.5,0.8 10.4,1.7 z"
       id="path2616"
       inkscape:connector-curvature="0" />
    <path
       d="m 299.98494,1366.8187 c 2,6.4 4.1,12.7 6,19.1 0.7,2.2 1.3,4.5 1.7,6.8 0.1,0.6 -0.7,1.4 -1.1,2.2 -0.7,-0.5 -1.7,-0.8 -1.9,-1.5 -3.7,-11.2 -7.2,-22.5 -10.7,-33.7 -0.3,-0.9 0.5,-2.2 0.7,-3.3 0.9,0.5 2.1,0.7 2.7,1.4 3.5,4.3 6.9,8.6 10.9,13.7 0.2,-3.7 0.5,-6.6 0.6,-9.6 0.1,-3 0,-5.9 0.3,-8.9 0.1,-1 1.2,-1.8 1.8,-2.8 0.8,0.7 1.9,1.2 2.2,2.1 4.1,11.5 8.1,23.1 12.1,34.7 0.2,0.5 0.6,1.1 0.4,1.5 -0.3,0.8 -0.9,1.5 -1.3,2.3 -0.6,-0.5 -1.6,-0.8 -1.9,-1.5 -1.4,-3.7 -2.5,-7.5 -3.8,-11.2 -1.9,-5.5 -4,-11 -6.6,-16.5 -0.3,3.8 -0.4,7.6 -0.9,11.4 -0.1,1.1 -1,2.2 -1.6,3.3 -1,-0.6 -2.4,-1 -3.1,-1.9 -2.1,-2.6 -4,-5.4 -6,-8.2 -0.1,0.3 -0.3,0.4 -0.5,0.6 z"
       id="path2618"
       inkscape:connector-curvature="0" />
    <path
       d="m 285.38494,1370.5187 c -0.3,4 -0.5,8 -1,12 -0.1,1 -1,2.1 -1.9,2.7 -0.4,0.2 -1.8,-0.7 -2.4,-1.4 -2.1,-2.7 -4.1,-5.6 -6.1,-8.4 -0.2,0.1 -0.4,0.2 -0.6,0.3 0.7,2.4 1.4,4.8 2.2,7.3 1.8,5.9 3.6,11.8 5.4,17.7 0.6,1.9 0.2,3.2 -2.5,3.2 -0.8,-2.7 -1.6,-5.5 -2.5,-8.3 -2.7,-8.4 -5.4,-16.8 -8.2,-25.3 -0.3,-0.8 -0.7,-1.7 -0.7,-2.6 0,-0.9 0.6,-1.7 0.9,-2.6 0.8,0.3 1.9,0.5 2.4,1.1 3.1,3.7 6,7.6 9,11.4 0.5,0.7 1.1,1.3 2.3,1.9 0.1,-4.1 0.2,-8.3 0.4,-12.4 0.1,-2.1 0.1,-4.1 0.4,-6.1 0.1,-0.7 1,-1.7 1.5,-1.7 0.7,0 1.9,0.7 2.1,1.3 4.2,11.9 8.3,23.8 12.4,35.7 0.4,1.3 0.9,2.8 -1,3.3 -1.8,0.5 -1.9,-1.2 -2.3,-2.3 -2.8,-8.1 -5.7,-16.2 -8.5,-24.3 -0.3,-0.8 -0.7,-1.6 -1,-2.4 0.1,-0.1 -0.1,-0.1 -0.3,-0.1 z"
       id="path2620"
       inkscape:connector-curvature="0" />
    <path
       d="m -240.41506,1365.7187 c -0.9,6.4 -1.7,12.7 -2.7,19.1 -0.1,0.9 -1,2.3 -1.6,2.4 -1.8,0.1 -1.7,-1.3 -1.5,-2.7 1.7,-12.8 3.4,-25.5 5.1,-38.3 0.4,-2.9 1,-3.3 3.9,-2.9 5.8,0.9 8,3.7 7.6,9.6 -0.3,4.2 -1.8,7.8 -5.5,10.5 3,4.1 2.3,8.8 1.9,13.4 -0.1,2 -0.3,3.9 -0.3,5.9 0,1.4 -0.4,2.5 -1.9,2 -0.7,-0.2 -1.5,-1.4 -1.5,-2.1 0,-3.3 0.4,-6.6 0.5,-9.9 0,-1.5 0.1,-3.1 -0.4,-4.5 -0.4,-1.2 -1.7,-2.1 -2.5,-3.1 -0.4,0.2 -0.7,0.4 -1.1,0.6 z m 0.7,-4 c 1.4,-0.6 2.4,-0.8 2.9,-1.3 2.7,-2.7 4.1,-6.1 3.6,-9.9 -0.2,-1.3 -1.5,-2.5 -2.5,-3.5 -0.2,-0.2 -1.9,0.4 -1.9,0.8 -0.8,4.3 -1.4,8.8 -2.1,13.9 z"
       id="path2622"
       inkscape:connector-curvature="0" />
    <path
       d="m -130.91506,1387.8187 c -0.6,2.3 -1.1,4.6 -1.9,6.8 -0.3,0.9 -1.2,1.5 -1.8,2.3 -0.3,-1 -1.2,-2.1 -1,-2.9 1.4,-6 3,-11.9 4.6,-17.9 1.7,-6.4 3.3,-12.8 5.1,-19.2 0.3,-1.1 1.7,-1.9 2.6,-2.8 0.7,1 1.9,2 2,3 0.7,9.4 1.2,18.7 1.7,28.1 0.2,3.6 0,7.2 0,10.7 0,0.8 0,1.7 -0.3,2.3 -0.3,0.6 -1.1,1 -1.8,1.2 -0.2,0 -1,-0.9 -1,-1.5 -0.2,-2.4 -0.3,-4.8 -0.2,-7.2 0,-1.6 -0.6,-2.3 -2.2,-2.3 -1.9,-0.1 -3.8,-0.4 -5.8,-0.6 z m 7.2,-2.8 c 0,-7.3 0,-14.5 0,-21.6 -0.2,0 -0.4,0 -0.7,0 -1.6,6.9 -3.3,13.8 -5,20.8 2.2,0.3 4,0.5 5.7,0.8 z"
       id="path2624"
       inkscape:connector-curvature="0" />
    <path
       d="m 351.78494,1357.2187 c 3.5,1.8 5,4.9 6.3,8.2 1.1,2.8 2.1,5.7 3.3,8.5 0.5,1.2 0.7,2.1 -0.8,2.8 -1.6,0.7 -2,-0.4 -2.5,-1.5 -1.6,-3.9 -3.1,-7.8 -4.8,-11.6 -0.9,-2 -2.3,-3.5 -5.1,-2.5 0.2,1.1 0.4,2.2 0.7,3.2 1.5,5.1 3.2,10.2 4.6,15.4 0.3,0.9 -0.1,2.8 -0.7,3 -1.6,0.7 -1.9,-0.9 -2.3,-2.1 -3.7,-12 -7.4,-24 -11.1,-36.1 -1.1,-3.5 -0.6,-4.2 2.9,-5.1 4.8,-1.3 8.5,0.7 10.1,5.4 1.3,4.1 1.5,8.1 -0.6,12.4 z m -5,-0.1 c 3.3,-1.9 3.2,-4.8 2.9,-7.5 -0.3,-3 -0.9,-5.9 -4.1,-7.2 -0.2,-0.1 -0.3,-0.1 -0.5,-0.1 -1.5,-0.1 -2.5,0.4 -2,2.2 1.1,4 2.3,8.1 3.7,12.6 z"
       id="path2626"
       inkscape:connector-curvature="0" />
    <path
       d="m -221.71506,1377.6187 c -0.5,2 -1,3.9 -1.6,5.8 -0.4,1.3 -0.1,3.5 -2.4,3.1 -0.4,-0.1 -0.7,-2.7 -0.4,-4 1.2,-5.1 2.6,-10.2 3.9,-15.3 1.7,-6.7 3.5,-13.3 5.3,-20 0.2,-0.6 0.2,-1.3 0.6,-1.7 0.6,-0.7 1.5,-1.6 2.2,-1.5 0.7,0.1 1.7,1.2 1.8,1.9 0.6,4.4 1.3,8.9 1.4,13.3 0.4,8.7 0.4,17.4 0.6,26 0,0.8 0.2,1.7 -0.2,2.4 -0.4,0.7 -1.3,1.2 -2,1.8 -0.4,-0.7 -1,-1.4 -1.1,-2.1 -0.2,-2.4 -0.1,-4.8 -0.3,-7.2 -0.1,-0.6 -0.9,-1.6 -1.5,-1.7 -2,-0.5 -4.1,-0.6 -6.3,-0.8 z m 7.3,-2.9 c 0,-7.2 0,-14.3 0,-21.4 -0.2,0 -0.5,-0.1 -0.7,-0.1 -1.6,6.8 -3.3,13.7 -5,20.7 2.1,0.4 3.9,0.6 5.7,0.8 z"
       id="path2628"
       inkscape:connector-curvature="0" />
    <path
       d="m 401.48494,1352.5187 c -1.3,-8.6 -2.7,-17.3 -4,-25.9 -0.2,-1.3 -0.7,-2.7 -0.6,-4 0.1,-0.9 1,-1.7 1.6,-2.5 0.6,0.7 1.7,1.3 1.9,2 1.2,8.4 2.2,16.8 3.4,25.2 0.6,4.3 1.5,8.6 2.1,13 0.1,1.1 -0.3,2.8 -1,3.3 -1.7,1 -2.2,-0.8 -2.8,-1.9 -5.6,-10.9 -11.1,-21.8 -16.6,-32.7 -0.2,-0.4 -0.4,-0.8 -0.6,-1.2 -0.6,-1.1 -1.6,-2.2 0.1,-3.1 1.7,-0.9 2.6,0.1 3.3,1.6 2.3,4.7 4.6,9.5 6.9,14.2 2,4.1 4,8.1 6,12.2 0.1,-0.2 0.2,-0.2 0.3,-0.2 z"
       id="path2630"
       inkscape:connector-curvature="0" />
    <path
       d="m -263.41506,1385.3187 c 1.1,-9.3 2.2,-18.4 3.3,-27.6 0.5,-4.4 1.2,-8.9 1.7,-13.3 0.2,-2 0.9,-2.6 2.9,-2.2 6.5,1.2 10.1,7.6 7.7,14.4 -1.5,4.5 -4.4,7.9 -8.6,10.2 -0.8,0.5 -1.7,1.6 -1.9,2.5 -0.8,4.7 -1.4,9.4 -1.9,14.1 -0.1,2.1 -0.9,2.7 -3.2,1.9 z m 5.7,-21.7 c 4.6,-2.6 7.4,-7.3 6.8,-11.6 -0.4,-2.6 -1.1,-5.2 -4.4,-6.4 -0.8,6.1 -1.5,11.8 -2.4,18 z"
       id="path2632"
       inkscape:connector-curvature="0" />
    <path
       d="m 362.08494,1332.7187 c 1.5,0.8 3.2,1.4 4.5,2.4 0.5,0.4 0.3,1.7 0.4,2.6 -0.9,0 -1.8,0.1 -2.7,-0.1 -1.3,-0.2 -2.5,-0.5 -3.8,-0.8 -0.3,1.3 -1.1,2.9 -0.7,4 0.8,2.3 2,4.6 3.6,6.4 1.6,1.8 3.9,3.1 5.8,4.7 4.8,4.1 8.2,8.9 8.1,15.6 0,0.7 -0.1,1.4 -0.2,2.1 -0.8,3.6 -3,5.8 -5.5,5.7 -2.4,-0.1 -5.8,-3.6 -6.1,-6.4 -0.1,-0.7 0.4,-1.9 1,-2.1 0.5,-0.2 1.7,0.3 2.1,0.9 0.7,0.8 0.8,2 1.4,2.8 0.5,0.7 1.4,1.5 2,1.4 0.7,-0.1 1.6,-1 1.8,-1.7 0.3,-1.5 0.4,-3.1 0,-4.5 -1.1,-4.2 -3.1,-8 -6.5,-10.8 -2.6,-2.1 -5.1,-4.2 -7.5,-6.5 -2.9,-2.8 -4.2,-6.4 -3.6,-10.5 0.6,-3.2 2.6,-4.9 5.9,-5.2 z"
       id="path2634"
       inkscape:connector-curvature="0" />
    <path
       d="m 324.08494,1351.5187 c 2,5.6 3.8,10.9 5.7,16.3 1.8,-0.9 3.3,-1.7 4.8,-2.2 0.7,-0.2 1.5,0.1 2.3,0.3 -0.3,0.8 -0.3,1.9 -0.9,2.3 -1.5,1.1 -3.2,1.8 -5.1,2.8 1.3,4.3 2.7,8.5 4.1,13 2.2,-0.8 4.1,-1.7 6.1,-2.3 0.8,-0.2 1.9,0.2 2.8,0.4 -0.5,0.7 -0.9,1.5 -1.5,2.2 -0.1,0.2 -0.5,0.3 -0.7,0.4 -7.9,3.9 -8.7,3.6 -11.5,-4.5 -3.1,-9 -6.3,-18.1 -9.4,-27.1 -1.1,-3.2 -0.8,-3.8 2.4,-4.8 2,-0.6 3.9,-1.4 5.9,-1.9 0.7,-0.2 1.7,0.5 2.5,0.8 -0.5,0.8 -0.8,1.7 -1.5,2.2 -0.9,0.6 -2,0.8 -3,1.1 -0.8,0.4 -1.7,0.7 -3,1 z"
       id="path2636"
       inkscape:connector-curvature="0" />
    <path
       d="m 410.98494,1323.1187 c 1.9,5.5 3.7,10.8 5.6,16.3 1.6,-0.8 3,-1.6 4.4,-2.1 0.8,-0.3 1.8,-0.1 2.6,-0.1 -0.4,0.9 -0.6,2.2 -1.3,2.8 -1.3,1 -2.9,1.6 -4.6,2.5 1.4,4.3 2.7,8.5 4.1,12.8 2.9,-0.8 5.6,-1.6 8.3,-2.3 0.2,-0.1 0.7,0.7 1.2,1.3 -3.1,3 -6.9,3.7 -10.8,4.4 -0.4,0.1 -1.1,-0.8 -1.3,-1.3 -3.9,-11.2 -7.8,-22.4 -11.7,-33.7 -0.6,-1.7 -0.1,-3 1.7,-3.6 2.2,-0.7 4.4,-1.6 6.6,-2.1 0.9,-0.2 1.9,0.4 2.9,0.6 -0.6,0.8 -1.1,2 -1.9,2.4 -1.8,0.9 -3.7,1.4 -5.8,2.1 z"
       id="path2638"
       inkscape:connector-curvature="0" />
    <path
       d="m -201.21506,1374.2187 c 0.8,2.9 1.3,5.6 2.4,8.1 1,2.4 2.8,4 5.8,4 0.9,0 1.8,1.2 2.7,1.8 -1.1,0.5 -2.1,1.5 -3.2,1.5 -5.2,-0.3 -9.1,-4.2 -10.3,-10.4 -1.6,-8.8 0,-17.1 5,-24.6 2.1,-3.1 5,-5.2 8.9,-5 0.7,0 1.6,0.1 2,0.5 0.6,0.5 1,1.5 1,2.2 0,0.4 -1.2,1.2 -1.8,1.1 -5.9,-1 -8.1,3 -9.5,7.3 -1.2,4.3 -2,8.9 -3,13.5 z"
       id="path2640"
       inkscape:connector-curvature="0" />
    <path
       d="m -152.81506,1379.8187 c 0.8,2.8 1.5,5.6 2.6,8.3 0.9,2.3 2.8,3.6 5.5,3.6 1.3,0 3.2,0 2.6,2 -0.2,0.7 -2.2,1.5 -3.2,1.3 -4.4,-0.5 -7.6,-2.9 -9,-7.1 -3.6,-10.7 -1.5,-20.7 5.3,-29.6 1.9,-2.4 4.6,-3.7 7.8,-3.5 1.5,0.1 3.1,0.6 2.8,2.4 -0.1,0.6 -1.9,1.5 -2.8,1.4 -3.3,-0.5 -5.3,1.1 -6.8,3.7 -3.1,5.4 -4.1,11.3 -4.8,17.5 z"
       id="path2642"
       inkscape:connector-curvature="0" />
    <path
       d="m -110.01506,1397.6187 c 2.3,0 4.1,-0.2 5.9,0.1 1,0.2 1.9,1 2.9,1.6 -0.9,0.5 -1.8,1.3 -2.8,1.3 -3.1,0.2 -6.2,0.1 -9.6,0.1 0,-0.9 -0.1,-2 0,-3 0.8,-8.9 1.7,-17.8 2.4,-26.7 0.3,-3.7 0.4,-7.5 0.7,-11.2 0.1,-0.7 0.9,-1.4 1.4,-2.1 0.7,0.7 2,1.5 2,2.2 -0.3,5.7 -0.8,11.4 -1.3,17.1 -0.5,6.8 -1.1,13.6 -1.6,20.6 z"
       id="path2644"
       inkscape:connector-curvature="0" />
    <path
       d="m -176.61506,1354.2187 c -1.4,-0.1 -2.4,-0.1 -3.3,-0.4 -0.6,-0.2 -1.4,-1 -1.3,-1.5 0.1,-0.6 0.9,-1.6 1.4,-1.5 3.6,0.3 7.3,0.7 10.9,1.3 0.5,0.1 0.8,1.2 1.2,1.8 -0.6,0.3 -1.3,0.9 -1.9,0.9 -1,0.1 -2.1,-0.2 -3.6,-0.4 -0.3,3 -0.6,5.9 -0.9,8.8 -0.6,7.6 -1.2,15.1 -1.8,22.7 0,0.4 0.1,0.8 -0.1,1 -0.6,0.7 -1.2,1.3 -1.9,2 -0.4,-0.7 -1.3,-1.5 -1.3,-2.2 0.3,-5.7 0.8,-11.4 1.3,-17.1 0.5,-5 0.9,-10.1 1.3,-15.4 z"
       id="path2646"
       inkscape:connector-curvature="0" />
    <path
       d="m 271.08494,1408.0187 c -0.4,0.4 -1,1.3 -1.7,1.6 -0.3,0.1 -1.4,-0.8 -1.6,-1.5 -3.6,-12.1 -7.1,-24.3 -10.6,-36.5 -0.2,-0.8 0.7,-1.9 1,-2.8 0.8,0.5 2.2,0.9 2.5,1.6 3.5,12.1 6.9,24.2 10.3,36.3 -0.1,0.3 -0.1,0.5 0.1,1.3 z"
       id="path2648"
       inkscape:connector-curvature="0" />
    <path
       d="m 389.28494,1369.1187 c -0.5,0.4 -1,1.3 -1.8,1.5 -0.4,0.1 -1.4,-0.8 -1.6,-1.5 -3.6,-12.1 -7.1,-24.3 -10.6,-36.5 -0.4,-1.4 -0.2,-2.7 1.4,-2.8 0.7,0 1.9,0.9 2.1,1.6 3.5,12.1 6.9,24.2 10.3,36.3 0.1,0.4 0.1,0.7 0.2,1.4 z"
       id="path2650"
       inkscape:connector-curvature="0" />
    <path
       d="m -157.81506,1355.3187 c -1.5,9.6 -2.9,18.5 -4.3,27.4 -0.5,3.1 -1,6.2 -1.4,9.3 -0.1,0.6 -0.1,1.4 -0.4,1.8 -0.6,0.7 -1.5,1.2 -2.3,1.7 -0.3,-0.8 -1.1,-1.6 -1,-2.4 0.4,-3.8 1.1,-7.6 1.7,-11.4 1.2,-8.1 2.4,-16.3 3.7,-24.4 0.1,-0.6 0.3,-1.2 0.3,-1.8 0.1,-1.5 1.1,-2.1 2.4,-1.7 0.6,0.2 1,1.2 1.3,1.5 z"
       id="path2652"
       inkscape:connector-curvature="0" />
    <path
       d="m -131.31506,1222.6187 c -0.8,1.9 -1.6,3.9 -2.5,5.8 -0.3,0.6 -1,1 -1.6,1.5 -0.4,-0.5 -1,-0.9 -1.3,-1.5 -0.6,-1.6 -1.1,-3.4 -2.2,-5 -0.1,0.8 -0.1,1.6 -0.2,2.4 -0.1,4.2 -0.2,8.4 -0.4,12.6 0,0.5 -0.6,1 -1,1.5 -0.3,-0.5 -0.9,-1 -0.9,-1.6 0,-6.9 0.1,-13.8 0.3,-20.7 0,-0.6 0.7,-1.2 1,-1.9 0.4,0.5 1.1,0.9 1.3,1.5 1.2,2.9 2.2,5.9 3.6,9.7 1.4,-3.7 2.4,-6.7 3.6,-9.7 0.3,-0.8 1.2,-1.3 1.8,-1.9 0.3,0.8 0.9,1.5 0.9,2.3 0.2,7.2 0.2,14.3 0.3,21.5 0,0.7 -0.5,1.3 -0.8,2 -0.3,-0.1 -0.7,-0.1 -1,-0.2 0,-6 0,-12 0,-18 -0.2,-0.2 -0.6,-0.2 -0.9,-0.3 z"
       id="path2654"
       inkscape:connector-curvature="0" />
    <path
       d="m -101.01506,1241.2187 c -2.5,-6.6 -4.8,-12.7 -7.1,-18.8 -0.2,0 -0.4,0 -0.6,0 0,1.2 0,2.5 0,3.7 -0.1,4.3 -0.1,8.6 -0.2,12.9 0,0.6 -0.7,1.2 -1.1,1.7 -0.3,-0.5 -0.8,-1 -0.8,-1.5 0.1,-7.1 0.3,-14.1 0.5,-21.2 0,-0.6 0.7,-1.3 1,-1.9 0.6,0.5 1.5,1 1.7,1.6 1.9,5 3.8,10 6.1,15 0.1,-0.6 0.2,-1.2 0.2,-1.8 0.2,-4.3 0.3,-8.6 0.6,-12.9 0,-0.6 0.6,-1.1 0.899996,-1.6 0.4,0.5 1,1 1,1.5 -0.3,7.3 -0.8,14.6 -1.199996,22 0.1,0.2 -0.1,0.3 -1,1.3 z"
       id="path2656"
       inkscape:connector-curvature="0" />
    <path
       d="m -149.31506,1183.7187 c 0,6 0,12 0,18.1 0,0.1 -0.4,0.2 -1.1,0.5 -0.1,-1.1 -0.3,-2 -0.3,-2.8 0,-6.4 0,-12.9 0.2,-19.3 0,-0.9 0.7,-1.8 1.1,-2.7 0.7,0.7 1.6,1.3 1.9,2.2 1.9,4.8 3.6,9.7 5.9,14.6 0.2,-3.9 0.4,-7.8 0.6,-11.7 0.1,-1.1 -0.1,-2.2 0.2,-3.2 0.1,-0.6 0.8,-1 1.2,-1.5 0.3,0.6 0.8,1.1 0.8,1.7 -0.2,3.9 -0.6,7.9 -0.7,11.8 -0.1,3.5 0,6.9 0,10.4 -0.4,0.1 -0.7,0.2 -1.1,0.3 -0.5,-0.8 -1.2,-1.4 -1.5,-2.3 -2.1,-5.3 -4.1,-10.7 -6.1,-16 -0.4,-0.1 -0.8,-0.1 -1.1,-0.1 z"
       id="path2658"
       inkscape:connector-curvature="0" />
    <path
       d="m -94.815064,1228.1187 c 0,-3.7 0,-7.5 0,-11.2 0,-2.4 0.9,-3.2 3.2,-2.3 1.4,0.6 3,1.8 3.7,3.2 3.3,6.7 2.8,13.5 0.1,20.2 -0.4,0.9 -1.2,1.9 -2.1,2.3 -1.2,0.6 -2.7,0.8 -4,1.1 -0.3,-1.1 -0.8,-2.3 -0.8,-3.4 -0.1,-3.3 -0.1,-6.6 -0.1,-9.9 z m 2.4,-11.6 c 0,7.7 0,15.1 0,22.5 5.7,-4.5 4.9,-10.5 4.1,-16.4 -0.4,-2.3 -0.7,-5.1 -4.1,-6.1 z"
       id="path2660"
       inkscape:connector-curvature="0" />
    <path
       d="m -154.61506,1189.4187 c -0.3,3 -0.4,5.4 -0.9,7.7 -0.5,2.3 -1.5,4.4 -4.2,4.5 -2.6,0.2 -4.1,-1.6 -4.9,-3.9 -1.8,-5.6 -1.8,-11.4 -0.5,-17.1 0.6,-2.4 2.1,-4.3 4.8,-4.3 2.8,0 3.9,2.1 4.3,4.3 0.8,3.2 1.1,6.3 1.4,8.8 z m -9.6,-0.6 c 0.6,3.2 0.9,6 1.7,8.7 0.3,0.9 1.6,2 2.6,2.2 0.6,0.1 1.8,-1.4 2.1,-2.3 1.5,-5.7 1.3,-11.3 -0.6,-16.9 -0.3,-0.9 -1.4,-2 -2.1,-2 -0.7,0 -1.9,1.1 -2.2,2 -0.6,2.7 -1,5.6 -1.5,8.3 z"
       id="path2662"
       inkscape:connector-curvature="0" />
    <path
       d="m -165.81506,1227.9187 c 0,-3.8 0,-7.5 0,-11.3 0,-2.1 1.1,-3 2.8,-2.1 1.6,0.8 3.4,2 4.1,3.5 3.1,6.6 2.7,13.4 -0.1,20 -0.4,1 -1.4,2 -2.3,2.5 -1.1,0.6 -2.5,0.9 -3.8,0.7 -0.4,0 -0.7,-2 -0.7,-3.1 -0.1,-3.4 0,-6.8 0,-10.2 z m 2,11.2 c 4.1,-1.5 5.6,-6.8 4.5,-15.8 -0.5,-4.3 -1.7,-6.1 -4.5,-6.4 0,3.7 0,7.3 0,11 0,3.7 0,7.3 0,11.2 z"
       id="path2664"
       inkscape:connector-curvature="0" />
    <path
       d="m -116.21506,1240.4187 c -0.2,-1.1 -0.4,-2.2 -0.5,-3.4 -0.2,-1.6 -0.1,-3.1 -2.6,-3.1 -2.2,0 -3,0.8 -3.2,2.8 -0.1,1 -0.4,2 -0.6,3 -0.3,0 -0.6,0 -0.8,0 -0.1,-0.8 -0.4,-1.5 -0.3,-2.2 1,-7.2 2.1,-14.5 3.2,-21.7 0.1,-0.7 0.9,-1.4 1.3,-2 0.5,0.7 1.2,1.3 1.4,2 1.2,7.6 2.4,15.1 3.5,22.7 0.1,0.6 -0.3,1.3 -0.5,1.9 -0.3,0.1 -0.6,0.1 -0.9,0 z m -3.2,-21.1 c -0.2,0 -0.3,0 -0.5,0.1 -0.5,4.2 -1,8.4 -1.5,12.7 1.4,0 2.6,0 3.9,0 -0.6,-4.5 -1.2,-8.7 -1.9,-12.8 z"
       id="path2666"
       inkscape:connector-curvature="0" />
    <path
       d="m -150.61506,1218.6187 c 0,3.3 0,6.6 0,9.9 1.5,0 2.8,0 4.1,0 0.1,0.3 0.2,0.5 0.3,0.8 -1.3,0.5 -2.7,1.1 -4.3,1.8 0,2.4 0,5 0,8 1.8,0 3.4,0 5.5,0 -1.6,1.6 -6.1,2.2 -7.1,1.2 -0.4,-0.4 -0.6,-1.3 -0.6,-1.9 -0.1,-6.6 -0.1,-13.2 -0.2,-19.8 0,-1.6 0.7,-2.3 2.2,-2.2 1.7,0.1 3.3,0.2 5,0.3 0,0.4 0,0.9 0.1,1.3 -1.6,0.2 -3.1,0.4 -5,0.6 z"
       id="path2668"
       inkscape:connector-curvature="0" />
    <path
       d="m -118.81506,1190.6187 c -1.5,0.2 -2.3,0.4 -3.2,0.4 -3.7,0.2 -7.5,0.3 -11.2,0.4 -0.5,0 -1.1,-0.5 -1.6,-0.8 0.4,-0.4 0.7,-1.1 1.1,-1.1 4.4,-0.1 8.7,-0.1 13.1,-0.1 0.4,-0.1 0.8,0.4 1.8,1.2 z"
       id="path2670"
       inkscape:connector-curvature="0" />
    <path
       class="st0"
       d="m 193.08494,1287.3187 c -3.6,-1.1 -7.7,-0.1 -10.7,-3.2 -0.4,-0.4 -1.8,0 -2.7,0.1 -0.9,0.2 -1.9,0.7 -2.8,0.6 -9.3,-0.8 -18.5,-1.7 -27.7,-2.6 -11.6,-1 -23.2,-2.2 -34.8,-3 -7.7,-0.6 -15.400004,-0.8 -23.000004,-1.3 -14.6,-1 -29.3,-1.9 -43.9,-3.1 -22.6,-2 -45.1000003,-3.1 -67.8,-2.7 -7,0.1 -14,0.3 -20.9,0.5 -9.6,0.4 -19.1,0.9 -28.7,1.4 -0.6,0 -1.2,0 -1.2,0 0,-6.6 -0.1,-13.1 0,-19.6 0.1,-11.5 0.2,-22.9 0.6,-34.4 0.3,-8.4 1.5,-16.8 1.4,-25.2 -0.1,-12.5 -0.8,-25 -1.3,-37.5 0,-0.6 0,-1.2 0,-2.1 1.9,0 3.6,-0.1 5.4,0 5.8,0.3 11.6,0.7 17.4,1.1 6.1,0.4 12.1,1.3 18.1,1.3 17.1,-0.1 34.1999997,0.3 51.2,-1.1 19,-1.5 37.9,-1.6 56.9,-2 20.4,-0.5 40.800004,-0.1 61.100004,3.1 7.6,1.2 15.3,1.4 23,1.9 8.9,0.6 17.9,1.1 26.8,1.8 1,0.1 2,0.9 2.7,1.2 -0.4,1.6 -0.7,2.8 -1,4 -3,10.2 -1.7,20.5 -1.1,30.8 0.2,2.8 -0.8,5.7 -0.7,8.5 0.1,9.5 0.3,19 0.5,28.4 0.1,8.6 0.4,17.2 0.4,25.8 0,6.5 -0.7,13.1 -0.4,19.6 -0.1,2.6 1.9,5 3.2,7.7 z m -196.9000043,-67.7 c 3.60000001,-0.1 4.60000001,1.7 4.80000001,3.8 0.49999999,4.4 0.59999999,8.7 1.09999999,13.1 0.1,0.6 1.1,1.2 1.7,1.8 0.6,-0.6 1.5,-1.2 1.6,-1.8 0.2,-1.6 0,-3.2 -0.2,-4.8 -0.5,-5.1 0.6,-10.5 -3.5,-14.6 3.3,-3.7 4.3,-6.4 4.3,-11.2 0,-5.5 -2.9,-8.4 -8.4,-8.5 -3.4,-0.1 -3.7,0.2 -3.8,3.6 -0.2,5.8 -0.4,11.6 -0.5,17.4 -0.1,7.1 -0.2,14.1 -0.2,21.2 0,0.7 0.6,1.5 1.2,2 0.2,0.2 1.4,-0.1 1.6,-0.4 0.3,-0.7 0.4,-1.5 0.4,-2.3 -0.1,-6.4 -0.1,-12.7 -0.1,-19.3 z m 45.9000003,10.1 c 0.4,3.1 0.8,6 1.3,8.9 0.1,0.6 0.8,1.5 1.1,1.4 0.7,-0.2 1.4,-0.7 1.8,-1.2 0.3,-0.4 0.1,-1.2 0.1,-1.8 -0.4,-3.9 -0.6,-7.8 -1.3,-11.7 -1.5,-9.3 -3.1,-18.5 -4.9,-27.7 -0.2,-0.9 -1.5,-1.6 -2.3,-2.4 -0.7,0.8 -1.4,1.6 -2,2.4 -0.3,0.4 -0.3,1 -0.4,1.6 -1.8,12.3 -3.6,24.6 -5.2,36.9 -0.1,0.9 0.7,1.9 1.1,2.9 0.6,-0.8 1.6,-1.6 1.8,-2.5 0.5,-2.2 0.7,-4.5 1,-6.8 2.8,0 5.2,0 7.9,0 z m -25.9,7.4 c 0,-4.1 -0.1,-8.1 0.1,-12.1 0,-0.6 1.1,-1.4 1.8,-1.7 1.3,-0.5 2.8,-0.4 4.2,-0.9 0.6,-0.2 0.9,-1.2 1.3,-1.8 -0.6,-0.3 -1.3,-1 -1.9,-1 -1.8,0.1 -3.5,0.4 -5.5,0.7 0,-5.9 0,-11.5 0,-17.3 2.1,0 4,0.2 5.9,-0.1 0.9,-0.1 1.7,-1.1 2.6,-1.8 -0.9,-0.5 -1.7,-1.4 -2.6,-1.5 -2.2,-0.2 -4.5,-0.1 -6.7,-0.1 -2.1,0 -3.1,1 -3,3.2 0.1,2.5 0.2,5 0.2,7.5 0.1,9 0.3,18.1 0.3,27.1 0,1.9 0.7,2.6 2.4,2.6 2.7,0 5.4,0 8,-0.3 0.7,-0.1 1.3,-0.9 2,-1.4 -0.7,-0.5 -1.4,-1.3 -2.2,-1.4 -2.3,0.2 -4.5,0.3 -6.9,0.3 z m 72.5,-6.6 c -0.5,1.9 -0.9,3.8 -1.7,5.5 -0.3,0.7 -1.5,1.3 -2.4,1.3 -0.5,0 -1.1,-1.2 -1.4,-2 -0.3,-0.8 -0.1,-1.9 -0.4,-2.6 -0.4,-0.8 -1.2,-1.4 -1.9,-2.1 -0.5,0.7 -1.4,1.4 -1.4,2.2 0,1.6 0.3,3.2 0.9,4.7 1.5,3.6 5.3,4.4 8,1.5 1.3,-1.5 2.5,-3.4 3,-5.3 1.5,-5.3 0.2,-10.3 -2.5,-14.9 -1.3,-2.3 -3,-4.4 -4.5,-6.7 -1.7,-2.7 -2.7,-5.7 -1.7,-8.9 0.3,-1 1.1,-2.3 2,-2.5 0.8,-0.2 1.9,0.9 2.8,1.3 1,0.5 2,0.8 3.1,1.3 -0.1,-1.2 0.3,-2.9 -0.3,-3.4 -1.7,-1.3 -3.7,-2.5 -5.8,-2.9 -2.2,-0.3 -4,1.4 -4.5,3.5 -0.6,2.4 -1.3,5.3 -0.6,7.5 1.1,3.6 3.1,7 5.1,10.2 2.4,3.8 3.9,7.7 4.2,12.3 z m 34.300004,-11 c -0.2,0.1 -0.5,0.1 -0.7,0.2 1.2,4.2 1.9,8.5 3.6,12.5 1.8,4.3 5.6,6.4 10.4,6.1 0.9,-0.1 1.7,-1.1 2.5,-1.7 -0.9,-0.5 -1.8,-1.6 -2.5,-1.5 -3.7,0.4 -5.8,-1.6 -7.3,-4.4 -0.8,-1.4 -1.3,-3 -1.6,-4.5 -1,-5.3 -0.9,-10.5 0.5,-15.7 1.3,-4.6 2.6,-9.2 8.9,-8.7 0.5,0 1.5,-0.9 1.6,-1.4 0,-0.6 -0.6,-1.6 -1.2,-1.8 -0.8,-0.4 -1.9,-0.4 -2.9,-0.3 -3.8,0.5 -6.2,3.1 -7.9,6.3 -2.4,4.6 -3.2,9.7 -3.4,14.9 z m -70.200004,21.2 c 3.4,-0.5 6.6,-0.8 9.7,-1.4 0.9,-0.2 1.7,-1.1 2.5,-1.7 -0.9,-0.4 -1.9,-1.3 -2.8,-1.3 -1.9,0 -3.8,0.4 -6.1,0.7 -0.2,-5.7 -0.5,-11.1 -0.7,-16.6 -0.2,-6.5 -0.2,-13 -0.4,-19.6 -0.1,-3.5 -0.4,-3.7 -3.6,-3.4 0.5,14.4 1,28.6 1.4,43.3 z m 47,-39.4 c 0.1,1.2 0.300004,2.4 0.300004,3.7 0.3,9.5 0.6,18.9 0.9,28.4 0,1.2 -0.2,2.7 1.7,2.7 1.9,-0.1 1.6,-1.6 1.5,-2.8 -0.2,-5.4 -0.4,-10.7 -0.5,-16.1 -0.1,-5.2 0,-10.5 0,-16 0.9,0 2.1,0.1 3.2,-0.1 0.6,-0.1 1.2,-0.8 1.7,-1.2 -0.5,-0.6 -0.9,-1.6 -1.4,-1.6 -3.6,-0.2 -7.1,-0.3 -10.700004,-0.2 -0.5,0 -1,1.2 -1.5,1.9 0.6,0.4 1.1,1 1.7,1.2 0.9,0.2 1.9,0.1 3.1,0.1 z m -28.5,18.8 c -0.5,0 -1,0 -1.5,0 0,6.3 0,12.7 0.1,19 0,0.7 0.7,1.4 1.1,2 0.7,-0.5 1.6,-0.9 2.1,-1.6 0.4,-0.5 0.3,-1.4 0.3,-2.1 0.5,-12 1.1,-23.9 1.6,-35.9 0.1,-1.2 0.2,-2.6 -1.7,-2.6 -1.8,0 -2,1.1 -2,2.5 0,6.2 0,12.5 0,18.7 z m 45.900004,-0.4 c 0.2,0 0.5,0 0.7,0 0.3,-6.1 0.5,-12.1 0.8,-18.2 0.1,-1.3 0,-2.5 -1.9,-2.5 -1.9,0 -1.9,1.2 -1.9,2.5 -0.1,3.8 -0.3,7.7 -0.4,11.5 -0.3,8.8 -0.6,17.5 -0.9,26.3 0,0.6 0.7,1.8 1,1.8 0.8,-0.1 1.8,-0.5 2.1,-1.1 0.4,-0.8 0.4,-1.9 0.4,-2.9 0.1,-5.8 0.1,-11.6 0.1,-17.4 z"
       id="path2672"
       inkscape:connector-curvature="0"
       style="fill:#ffffff" />
    <path
       class="st0"
       d="m -47.215064,1456.4187 c 0,-1.5 0,-2.3 0,-3.4 1.2,-0.3 2.4,-0.6 3.5,-0.9 0,-0.2 0,-0.3 0,-0.5 -1.1,-0.2 -2.2,-0.4 -3.5,-0.6 0,-1.3 0,-2.7 0,-4.1 0.2,-13.3 0.2,-26.7 0.8,-40 0.6,-12.2 2.1,-24.3 2.8,-36.4 0.5,-8.9 0.5,-17.9 0.1,-26.8 -0.3,-5.8 -1.6,-11.6 -2.8,-17.4 -0.5,-2.6 -1.7,-5 -2.7,-7.8 0.7,-0.4 1.5,-0.9 2.4,-1.2 5.7,-2 11.5,-3.8 17.1,-6.1 6.9,-2.8 13.6,-5.8 20.2999997,-9 10.00000001,-4.7 20.0000003,-9.6 29.8000003,-14.6 2.4,-1.2 4.8,-2.7 6.5,-4.6 3.5,-4 7.6,-3.9 12.1,-2.8 -0.5,4.6 -1,9.2 -1.4,13.8 -0.5,6 -1.2,11.9 -1.4,17.9 -0.7,17.6 -1.2,35.2 -1.7,52.9 -0.3,9.4 -0.4,18.8 -0.4,28.2 0,3.2 -0.9,5.5 -3.9,7.5 -11.9,8 -23.7000003,16.1 -35.3000003,24.5 -9.7999997,7.1 -19.2999997,14.5 -28.8999997,21.8 -3.6,2.7 -7.1,5.4 -10.7,8.1 -0.7,0.4 -1.6,0.8 -2.7,1.5 z"
       id="path2674"
       inkscape:connector-curvature="0"
       style="fill:#ffffff" />
    <path
       class="st0"
       d="m 305.28494,1039.5187 c -8.6,-0.6 -17.3,-1.1 -25.9,-1.7 -8.6,-0.7 -17.1,-1.7 -25.7,-2.3 -6.6,-0.4 -13.2,0 -19.8,-0.3 -2.7,-0.1 -5.4,-1.2 -8,-2 -2.1,-0.6 -4.2,-1.4 -6.8,-2.3 1.2,-0.8 2.1,-1.5 3.1,-1.9 3.8,-1.7 7.8,-3.1 11.4,-5.1 1.7,-0.9 2.9,-2.8 4.3,-4.3 -0.2,-0.2 -0.4,-0.4 -0.6,-0.6 -0.3,0.1 -0.7,0.1 -0.9,0.2 -4.8,3.5 -10.1,6.2 -15.9,7.8 -0.2,0 -0.3,0.1 -0.5,0.3 -2.6,3.1 -4.9,1.8 -7.3,-0.4 -2.7,-2.4 -5.6,-4.6 -8.5,-6.7 2.4,4.4 6.4,7.3 10.6,10.5 -4.9,2.3 -8.9,5.4 -14.4,5 -5.2,-0.4 -10.4,0 -15.6,0 -0.8,0 -1.9,-0.1 -2.5,-0.6 -3.8,-3.3 -7.6,-6.7 -11.5,-10.2 1.1,-0.3 2.3,-0.6 3.5,-0.8 -3.9,0.5 -7.2,-0.2 -10.3,-3.8 42.9,-2.8 85.5,-5.6 128,-8.3 0,-0.1 0,-0.2 0,-0.3 -2.7,0 -5.5,-0.1 -8.2,0 -13.8,0.5 -27.5,0.8 -41.3,1.5 -12.5,0.6 -25,1.7 -37.5,2.5 -4.2,0.3 -8.4,0.3 -12.6,0.6 -32.6,1.9 -65.2,3.9 -97.800004,5.8 -2.7,0.2 -5.4,0 -8.1,-0.3 6.2,-0.9 12.3,-1.7 18.500004,-2.6 11.6,-1.7 23.2,-3.3 34.8,-5.2 22.3,-3.7 44.6,-7.9 66.9,-11.3 20.9,-3.20002 41.9,-5.70002 62.8,-8.30002 17.7,-2.2 35.4,-4.1 53.1,-6.2 6.6,-0.8 13.1,-1.6 19.7,-2.3 0.6,-0.1 1.2,0 1.8,0 -0.3,2 -0.5,3.9 -0.7,5.8 0.3,0.1 0.6,0.1 0.8,0.2 0.8,-1.7 1.8,-3.4 2.5,-5.2 0.8,-2 1.7,-2.1 2.4,-1.1 2.3,-0.4 4.2,-0.9 6.1,-0.8 2.7,0.1 1.9,3.1 2.5,4 2.3,-0.4 4,-0.7 5.8,-1.1 -0.5,-0.7 -1.3,-1.8 -2.2,-3.1 1.4,-1.8 2.9,-1.5 4.5,-0.1 1.2,-3 3.8,-1.6 5.7,-1.8 0.5,0 1.4,1.5 1.6,2.4 0.4,2.1 0.5,4.2 0.7,6.6 -16,-0.8 -31.4,1.6 -46.5,6.3 7.1,-0.9 14.2,-1.8 21.3,-2.8 0,0.1 0.1,0.3 0.1,0.4 -4.2,1.2 -8.3,2.4 -12.5,3.5 0,0.2 0.1,0.3 0.1,0.5 4,-0.7 8.1,-1.4 12.1,-2.1 0.1,0.2 0.3,0.3 0.4,0.5 -0.3,0.1 -0.6,0.1 -0.9,0.3 -1.6,0.9 -2.9,2.10002 -2,4.10002 0.9,1.9 2.4,1.4 4.1,1.1 2.6,-0.5 5.3,-0.4 7.9,-0.8 1.3,-0.2 2.5,-0.9 4.1,-1.5 -0.5,14.6 -1,29.6 -1.5,44.7 -0.8,0 -2.3,-1.7 -2.3,-3.6 0.2,-5.3 0.4,-10.5 0.7,-15.8 0.1,-2 0.6,-4.1 0.6,-6.1 0,-1.4 -0.6,-2.8 -1,-4.1 -0.3,-1.1 -0.7,-2.1 -1.1,-3.3 0.6,-1.4 1.6,-3 2.1,-4.8 0.5,-2 -0.3,-3.6 -2.6,-3.9 -2.1,-0.3 -4.4,-1.1 -5.5,1.7 -0.3,0.7 -0.5,1.5 -0.6,2.3 -0.3,2.4 -1.6,2.9 -3.9,2.7 -2.2,-0.2 -4.7,-0.2 -6.6,0.7 -2.4,1.1 -2.5,3.2 -1.1,5.6 0.3,0.6 0.5,1.3 0.5,2 0,5.4 0,10.8 0,16.2 0.3,0 0.6,0 0.9,0 0.3,-5.7 0.7,-11.4 1,-17.2 1.4,0 2.8,0 4.7,0 -0.7,3.2 -1.5,6.1 -1.9,9 -0.5,3.8 -0.6,7.6 -0.7,11.3 0,0.5 0.7,1.4 1,1.3 1,-0.2 2,-0.6 2.8,-1 0.9,0.6 2.1,1.3 3.2,2.1 0.3,0.2 0.7,0.5 0.8,0.9 1.2,2.9 1.5,3 4.1,1.4 0.4,0.6 0.9,1.2 1.8,2.4 -4.3,-0.9 -8,-1.5 -11.5,-2.6 -4.6,-1.3 -9.1,-2.9 -13.6,-4.6 -0.8,-0.3 -1.5,-1.5 -1.6,-2.4 -0.6,-4.8 -0.9,-9.6 -1.5,-14.4 -0.7,-5.6 -1.5,-11.3 -2.1,-16.2 -0.3,4.2 -1.1,9.2 -0.2,14.4 1,5.8 0.9,11.7 1.4,17.6 0.1,1.5 0.7,2.9 1.1,4.9 1.1,-0.8 1.5,-1.1 1.8,-1.3 7.3,4.4 15.4,6.7 23.7,8.5 7.3,1.6 14.7,1.8 22.1,1.9 1.7,0 3.4,0.4 5.1,0.6 4.1,0.4 8.3,0.8 12.7,1.2 0,1 0,2.5 0,4.4 -3.7,-0.2 -7.4,-0.4 -11.1,-0.8 -4.8,-0.4 -9.6,-1.5 -14.4,-1.4 -9.2,0.2 -18.1,-1.4 -27,-3.5 -3.2,-0.8 -6.5,-1.2 -9.8,-1.7 -3.9,-0.5 -7.6,-1.3 -10.5,-3.9 0,-13 0,-25.9 0,-38.8 -0.4,0 -0.8,0 -1.1,0 -0.5,13.9 -1,27.8 -1.5,41.9 -5.1,-0.4 -10.2,-1 -15.2,-1.3 -19.2,-1.3 -38.4,-3.1 -57.6,-3.6 -22.9,-0.6 -45.8,0.1 -68.8,0 -23.1,-0.1 -46.2,-0.7 -69.3,-0.8 -17.300004,-0.1 -34.600004,0.3 -51.900004,0.4 -15.4,0.1 -30.5,-2.2 -43.2,-4.7 26.7,-0.3 55.7,-0.6 84.7,-0.9 0,0.1 0.1,0.2 0.1,0.3 -1.1,0.2 -2.2,0.5 -3.8,0.8 2.5,1.1 4.2,1.4 6.300004,0.1 1.7,-1.1 3.9,-1.5 6,-1.8 2,-0.3 4.1,-0.1 6.2,-0.1 27.4,0.1 54.8,0.2 82.3,0.2 2.6,0 5.2,-0.4 7.8,-0.4 5.5,0.1 11,-0.9 16.5,-0.7 5.8,0.2 11.6,0 17.5,0 5.7,0 11.5,-0.3 17.2,0 6.3,0.3 12.7,1.1 19,1.5 10.9,0.6 21.8,1.1 32.6,1.6 -0.5,-0.2 -0.5,-0.4 -0.5,-0.6 z m -11.5,-10.3 c 3.7,-3.3 7.2,-6.6 10.8,-9.9 0.4,-0.4 1.1,-0.5 1.6,-0.9 0.4,-0.3 0.8,-0.8 0.8,-1.2 0,-0.4 -0.7,-1.1 -0.9,-1.1 -1.2,0.4 -2.6,0.7 -3.6,1.5 -3.4,2.6 -6.7,5.3 -10,8 -1.2,1 -2.4,1.2 -3.8,0.1 -2.1,-1.6 -4.5,-3 -6.7,-4.4 -0.4,-0.3 -0.9,-0.6 -1.3,-0.8 -0.2,0.3 -0.4,0.5 -0.6,0.8 2.8,2.2 5.6,4.4 8.4,6.7 -2.6,3.8 -7.2,2.5 -10.6,4.4 3.6,-0.1 7.3,-0.4 10.7,-1.5 1.9,-0.6 3.1,-1 5,0.1 2.2,1.3 4.3,3.6 7.2,2.2 -2.5,-1.3 -5,-2.8 -7,-4 z m -26.1,-9.8 c -0.1,-0.2 -0.2,-0.4 -0.3,-0.6 -4.4,2.1 -8.8,4.1 -13.2,6.2 -1.5,0.7 -2.4,0.4 -3.4,-0.8 -1.9,-2.1 -4,-3.9 -6.1,-5.8 -0.2,0.1 -0.3,0.2 -0.5,0.3 2,2.6 4,5.1 5.8,7.5 -1.8,1.6 -3.5,3 -5.1,4.5 0.2,0.2 0.3,0.4 0.5,0.6 1,-0.8 2,-1.6 3.1,-2.4 1.6,-1.1 2.8,-1.7 4.8,0 2.9,2.4 6.4,4.2 9.6,6.2 0.2,-0.3 0.4,-0.6 0.6,-0.9 -3.3,-2.5 -6.5,-5 -9.9,-7.6 4.9,-2.5 9.5,-4.8 14.1,-7.2 z"
       id="path2676"
       inkscape:connector-curvature="0"
       style="fill:#ffffff" />
    <path
       class="st0"
       d="m 105.68494,1034.6187 c -2.3,0.4 -4.6,1.1 -7.000004,1.2 -10,0.4 -20,0.7 -30.1,0.9 -0.7,0 -1.5,0 -2,-0.3 -1.9,-1.2 -3.8,-2.5 -6.2,-4.2 3.6,-2.1 7.1,-4.2 10.6,-6.2 4.7,-2.7 9.8,-1.3 14.7,-1.6 20.100004,-1.1 40.200004,-1.9 60.400004,-2.8 3.6,-0.2 7.2,-0.1 10.7,-0.7 4.1,-0.7 7.1,0.8 10,3.6 -3.3,2.4 -6.6,4.9 -9.8,7.3 0.1,0.2 0.1,0.4 0.2,0.6 1,-0.3 2.1,-0.4 3,-1 1.9,-1.3 3.8,-2.6 5.5,-4.2 2.2,-2 4,-1.4 5.8,0.3 2.9,2.6 5.9,5.2 8.9,7.8 -0.4,0.1 -1.1,0.2 -1.7,0.2 -20.5,0 -41,0 -61.6,-0.1 -2,0 -3.9,-0.9 -6.3,-1.5 4.5,-3 8.5,-5.7 12.5,-8.5 -0.1,-0.2 -0.2,-0.4 -0.3,-0.6 -2.5,1.2 -5.1,2.4 -7.6,3.8 -2.3,1.2 -4.4,2.7 -6.7,3.8 -0.6,0.3 -1.6,0.2 -2.2,-0.1 -3.2,-1.3 -6.3,-2.6 -9.400004,-4 -0.9,-0.4 -1.9,-0.7 -2.9,-1.1 -0.1,0.2 -0.2,0.5 -0.3,0.7 3.9,1.9 7.800004,3.9 11.700004,5.8 0,0.4 0.1,0.6 0.1,0.9 z"
       id="path2678"
       inkscape:connector-curvature="0"
       style="fill:#ffffff" />
    <path
       class="st0"
       d="m 14.184936,1025.8187 c -3,1.8 -5.4000003,3.2 -7.8000003,4.7 0.2,0.3 0.5,0.6 0.9,1.1 -2.1,0.4 -4.1,0.8 -6,1.1 5,0.1 10.6000003,-3.1 13.7000003,3.7 -17.7000003,-1 -35.6,-2 -53.7,-3 -0.2,-1.6 -0.4,-3.1 -0.6,-4.6 -0.3,0 -0.5,0 -0.8,0 -0.2,1.1 -0.3,2.2 -0.5,3.4 -0.1,0 -0.3,0 -0.4,0 0,-2.2 0,-4.3 0,-6.7 3.2,0.1 6.7,0.4 10.2,0.4 1.5,0 3.3,0.1 4.4,-0.6 3.5,-2.2 7.1,-1.3 10.8,-1 7.4999997,0.5 14.99999971,0.8 22.4999997,1.2 2.2,-0.1 4.3000003,0.1 7.3000003,0.3 z"
       id="path2680"
       inkscape:connector-curvature="0"
       style="fill:#ffffff" />
    <path
       class="st0"
       d="m 56.284936,1032.5187 c -1.5,1.2 -3.2,2.7 -5,4 -0.5,0.4 -1.3,0.6 -2,0.6 -9.9,-0.1 -19.9,-0.2 -29.8,-0.4 -3,-0.1 -4.5,-2.4 -6.3,-4.5 9.6,-1.2 18.9,-2.4 28.3,-3.6 0.5,-0.1 1.1,0 1.6,-0.2 5.5,-1.5 10.1,-0.5 13.2,4.1 z"
       id="path2682"
       inkscape:connector-curvature="0"
       style="fill:#ffffff" />
    <path
       class="st0"
       d="m 350.28494,1195.5187 c -2.8,3.8 -5.5,7.4 -8.6,11.6 -3.3,-3.5 -6.6,-6.7 -9.5,-10.3 -0.7,-0.9 -0.2,-3.4 0.5,-4.7 1.8,-3.1 4.1,-6 6.3,-9 4,4.3 7.6,8.3 11.3,12.4 z"
       id="path2684"
       inkscape:connector-curvature="0"
       style="fill:#ffffff" />
    <path
       class="st0"
       d="m 353.58494,1199.2187 c 3.5,4.1 6.7,7.7 9.6,11.1 -2,4 -3.9,7.7 -5.7,11.3 -3.4,-3.5 -7.1,-7.4 -11.1,-11.6 2.1,-3.1 4.5,-6.7 7.2,-10.8 z"
       id="path2686"
       inkscape:connector-curvature="0"
       style="fill:#ffffff" />
    <path
       class="st0"
       d="m 443.98494,1050.1187 c 3.1,-5.1 6,-9.8 8.9,-14.5 4.5,2.1 8.9,4.1 13.3,6.1 -1,2 -2,3.9 -3.5,6.7 -5.5,0.6 -11.7,2.7 -18.7,1.7 z"
       id="path2688"
       inkscape:connector-curvature="0"
       style="fill:#ffffff" />
    <path
       class="st0"
       d="m 350.58494,1170.1187 c 3.3,3.9 6.4,7.5 9.4,11.2 0.4,0.5 0.3,1.9 -0.1,2.5 -1.8,2.5 -3.8,4.8 -5.8,7.3 -3.8,-4.1 -7.4,-8.1 -11.3,-12.3 2.7,-2.9 5.1,-5.6 7.8,-8.7 z"
       id="path2690"
       inkscape:connector-curvature="0"
       style="fill:#ffffff" />
    <path
       class="st0"
       d="m 353.48494,1099.4187 c -2.8,-3.9 -5.2,-7.3 -7.6,-10.8 -0.4,-0.5 -0.6,-1.6 -0.3,-2.1 1.6,-3 3.4,-5.8 5.4,-9.2 2.9,4.5 5.5,8.7 8.4,13.2 -1.6,2.7 -3.6,5.5 -5.9,8.9 z"
       id="path2692"
       inkscape:connector-curvature="0"
       style="fill:#ffffff" />
    <path
       class="st0"
       d="m 364.78494,1178.2187 c -3.8,-4.4 -7.4,-8.6 -11,-12.7 1.8,-2.8 3.6,-5.4 5.7,-8.5 3.3,4.4 6.4,8.6 9.4,12.9 0.3,0.4 0.3,1.3 0,1.7 -1.2,2.1 -2.6,4.3 -4.1,6.6 z"
       id="path2694"
       inkscape:connector-curvature="0"
       style="fill:#ffffff" />
    <path
       class="st0"
       d="m 449.28494,1019.1187 c 27.1,-1 54.1,0.1 81,3.9 -27.1,0.1 -54,-1.8 -81,-3.9 z"
       id="path2696"
       inkscape:connector-curvature="0"
       style="fill:#ffffff" />
    <path
       class="st0"
       d="m 349.88494,1161.8187 c -2.6,-2.6 -5,-4.9 -7.2,-7.4 -0.5,-0.5 -0.7,-1.8 -0.4,-2.4 1.5,-3 3.3,-5.9 5.2,-9.2 3,3.5 5.9,6.8 8.9,10.2 -2.1,3 -4.2,5.7 -6.5,8.8 z"
       id="path2698"
       inkscape:connector-curvature="0"
       style="fill:#ffffff" />
    <path
       class="st0"
       d="m 346.38494,1116.2187 c 2.3,3.3 4.4,6.5 6.6,9.8 -1.8,3 -3.7,6 -5.2,8.4 -2.8,-2.4 -5.5,-4.7 -8.3,-7.2 2.4,-3.7 4.6,-7.3 6.9,-11 z"
       id="path2700"
       inkscape:connector-curvature="0"
       style="fill:#ffffff" />
    <path
       class="st0"
       d="m 357.48494,1194.9187 c 2.1,-2.9 4.1,-5.7 6.5,-9 2.3,3.4 4.6,6.5 6.7,9.7 0.2,0.3 0.1,1.1 -0.1,1.5 -1.4,2.3 -2.9,4.6 -4.6,7.3 -3,-3.2 -5.7,-6.3 -8.5,-9.5 z"
       id="path2702"
       inkscape:connector-curvature="0"
       style="fill:#ffffff" />
    <path
       class="st0"
       d="m 355.58494,1129.6187 c 2.9,4 5.6,7.6 8.4,11.4 -1.4,2.2 -3,4.6 -4.7,7.2 -3,-3.3 -5.9,-6.5 -8.8,-9.7 1.7,-2.9 3.4,-5.8 5.1,-8.9 z"
       id="path2704"
       inkscape:connector-curvature="0"
       style="fill:#ffffff" />
    <path
       class="st0"
       d="m 343.28494,1090.5187 c 2.7,3.7 5.3,7.3 7.7,11 0.3,0.5 0.2,1.7 -0.2,2.3 -1,1.7 -2.2,3.2 -3.5,5 -3,-3.3 -6,-6.6 -9.1,-10 1.6,-2.5 3.3,-5.3 5.1,-8.3 z"
       id="path2706"
       inkscape:connector-curvature="0"
       style="fill:#ffffff" />
    <path
       class="st0"
       d="m 339.08494,1157.8187 c 2.6,3 5,5.8 7.6,8.7 -2.5,2.7 -4.9,5.3 -7.3,7.9 -5.7,-4 -6.5,-8.7 -0.3,-16.6 z"
       id="path2708"
       inkscape:connector-curvature="0"
       style="fill:#ffffff" />
    <path
       class="st0"
       d="m 10.684936,1030.1187 c 2.8,-2.8 5.6,-4.8 9.7,-4.6 8.2,0.3 16.5,0.1 24.7,0.1 1,0 1.9,0 2.9,0 0,0.3 0.1,0.6 0.1,1 -6.2,0.8 -12.4,1.8 -18.7,2.4 -6.2,0.7 -12.4,3 -18.7,1.1 z"
       id="path2710"
       inkscape:connector-curvature="0"
       style="fill:#ffffff" />
    <path
       class="st0"
       d="m 356.48494,1121.9187 c -1.2,-1.6 -2,-2.6 -2.8,-3.7 -4.8,-6.4 -4.8,-6.4 -0.6,-13.4 2.4,3 4.9,5.9 7.2,8.9 0.3,0.4 0.3,1.2 0.1,1.7 -1.2,2 -2.4,4.1 -3.9,6.5 z"
       id="path2712"
       inkscape:connector-curvature="0"
       style="fill:#ffffff" />
    <path
       class="st0"
       d="m -39.715064,1039.7187 c -0.5,-3.6 0.1,-4.1 4,-3.9 12,0.7 24.1,1.3 36.09999971,1.9 2.39999999,0.1 4.79999999,0.4 7.19999999,0.8 -15.8,0.4 -31.4999997,0.8 -47.2999997,1.2 z"
       id="path2714"
       inkscape:connector-curvature="0"
       style="fill:#ffffff" />
    <path
       class="st0"
       d="m 337.38494,1131.1187 c 2.2,2.5 4.2,4.8 6.1,7.2 0.4,0.5 0.6,1.6 0.3,2.1 -1.8,3 -3.7,5.8 -5.6,8.7 -2.7,-2.1 -3.4,-15 -0.8,-18 z"
       id="path2716"
       inkscape:connector-curvature="0"
       style="fill:#ffffff" />
    <path
       class="st0"
       d="m 580.88494,1044.6187 c -2.6,5.3 -5.2,10.6 -7.8,15.9 -1.9,3.8 -1.9,3.8 -7.1,3.3 5,-6.6 9.9,-13 14.7,-19.3 0,0 0.2,0.1 0.2,0.1 z"
       id="path2718"
       inkscape:connector-curvature="0"
       style="fill:#ffffff" />
    <path
       class="st0"
       d="m 68.484936,1025.4187 c -2,1.1 -4.3,1.8 -5.8,3.3 -3.3,3.3 -5.8,2 -8.4,-0.6 -0.3,-0.3 -0.7,-0.5 -1.8,-1.1 5.7,-0.8 10.7,-1.6 15.8,-2.3 0,0.3 0.1,0.5 0.2,0.7 z"
       id="path2720"
       inkscape:connector-curvature="0"
       style="fill:#ffffff" />
    <path
       class="st0"
       d="m 564.68494,1050.2187 c -0.3,-3.1 -0.6,-5.4 -0.8,-7.7 -0.2,-1.4 0.4,-2.1 1.9,-2.2 1.5,-0.1 3,-0.4 5,-0.6 -2.1,3.6 -3.9,6.7 -6.1,10.5 z"
       id="path2722"
       inkscape:connector-curvature="0"
       style="fill:#ffffff" />
    <path
       class="st0"
       d="m 468.68494,1042.9187 c 2.7,1.1 5.4,2.1 8.5,3.4 -4.2,0.6 -8,1.1 -12.5,1.7 1.7,-2.1 2.8,-3.5 4,-5.1 z"
       id="path2724"
       inkscape:connector-curvature="0"
       style="fill:#ffffff" />
    <path
       class="st0"
       d="m 354.28494,980.31868 c 1.3,-1.2 2.4,-2.3 3.7,-3.5 1.3,1.3 2.6,2.5 3.8,3.6 -2,3.3 -3.1,3.3 -7.5,-0.1 z"
       id="path2726"
       inkscape:connector-curvature="0"
       style="fill:#ffffff" />
    <path
       class="st0"
       d="m 573.18494,1049.7187 c 3,-5 6.1,-9.9 9.3,-15.2 1.2,1.7 1.4,3.1 0.1,4.6 -3.1,3.6 -6.1,7.1 -9.2,10.7 -0.1,-0.1 -0.2,-0.1 -0.2,-0.1 z"
       id="path2728"
       inkscape:connector-curvature="0"
       style="fill:#ffffff" />
    <path
       class="st0"
       d="m 223.68494,1035.1187 c -4.1,0 -8.3,0 -12.6,0 4.2,-4 8.4,-1.7 12.6,0 z"
       id="path2730"
       inkscape:connector-curvature="0"
       style="fill:#ffffff" />
    <path
       class="st0"
       d="m 547.18494,1043.6187 c -0.6,1.7 -1,3.2 -1.7,4.6 -0.3,0.6 -1.4,1.1 -2.2,1.2 -0.4,0 -1.1,-1.2 -1.1,-1.8 0,-3.2 1.1,-4 5,-4 z"
       id="path2732"
       inkscape:connector-curvature="0"
       style="fill:#ffffff" />
    <path
       class="st0"
       d="m 542.08494,1040.7187 c -0.2,-1.5 -0.3,-2.4 -0.5,-3.5 2.9,0 5.5,0 8.3,0 -1.2,4.5 -5.1,1.8 -7.8,3.5 z"
       id="path2734"
       inkscape:connector-curvature="0"
       style="fill:#ffffff" />
    <path
       class="st0"
       d="m 53.084936,1036.8187 c 1.8,-1 2.9,-1.8 4.1,-2.2 0.9,-0.3 2.1,-0.2 3.1,0.1 1.5,0.5 3,1.2 5,2.1 -4.2,0 -7.8,0 -12.2,0 z"
       id="path2736"
       inkscape:connector-curvature="0"
       style="fill:#ffffff" />
    <path
       class="st0"
       d="m 585.68494,1041.2187 c 1.1,5.7 -2.9,8.2 -5.1,11.5 -0.2,-0.1 -0.4,-0.2 -0.6,-0.3 1.8,-3.6 3.6,-7.1 5.7,-11.2 z"
       id="path2738"
       inkscape:connector-curvature="0"
       style="fill:#ffffff" />
    <path
       class="st0"
       d="m 550.08494,1049.5187 c 1.2,-2.6 2.3,-4.7 3.5,-7.2 1.2,4.1 0.5,5.4 -3.5,7.2 z"
       id="path2740"
       inkscape:connector-curvature="0"
       style="fill:#ffffff" />
    <path
       class="st0"
       d="m 545.08494,1063.5187 c 1.8,-2.9 3.7,-5.7 5.5,-8.6 -1.2,3.3 -2.2,6.6 -4.7,9.1 -0.2,-0.1 -0.5,-0.3 -0.8,-0.5 z"
       id="path2742"
       inkscape:connector-curvature="0"
       style="fill:#ffffff" />
    <path
       class="st0"
       d="m 552.08494,1064.0187 c -1.1,-0.1 -1.9,-0.2 -3.1,-0.3 1,-2 1.9,-3.7 3.1,-6 0,2.4 0,4.2 0,6.3 z"
       id="path2744"
       inkscape:connector-curvature="0"
       style="fill:#ffffff" />
    <path
       class="st0"
       d="m 351.38494,982.21868 c -0.8,0.5 -1.8,1.2 -3.4,2.3 0.4,-2.3 0.6,-3.7 0.9,-5.6 0.8,1.1 1.5,2 2.5,3.3 z"
       id="path2746"
       inkscape:connector-curvature="0"
       style="fill:#ffffff" />
    <path
       class="st0"
       d="m 577.18494,1037.0187 c -1.8,2.3 -3.3,4.2 -4.7,6.1 0.6,-2.5 1,-5.2 4.7,-6.1 z"
       id="path2748"
       inkscape:connector-curvature="0"
       style="fill:#ffffff" />
    <path
       class="st0"
       d="m -239.71506,1361.7187 c 0.7,-5.1 1.3,-9.6 2.1,-14 0.1,-0.4 1.7,-1 1.9,-0.8 1,1 2.3,2.2 2.5,3.5 0.5,3.8 -0.9,7.2 -3.6,9.9 -0.5,0.6 -1.5,0.8 -2.9,1.4 z"
       id="path2750"
       inkscape:connector-curvature="0"
       style="fill:#ffffff" />
    <path
       class="st0"
       d="m -123.71506,1385.0187 c -1.7,-0.2 -3.5,-0.5 -5.6,-0.8 1.7,-7.1 3.3,-13.9 5,-20.8 0.2,0 0.4,0 0.7,0 -0.1,7.1 -0.1,14.3 -0.1,21.6 z"
       id="path2752"
       inkscape:connector-curvature="0"
       style="fill:#ffffff" />
    <path
       class="st0"
       d="m 346.78494,1357.1187 c -1.3,-4.5 -2.5,-8.6 -3.7,-12.7 -0.5,-1.8 0.5,-2.2 2,-2.2 0.2,0 0.4,0.1 0.5,0.1 3.3,1.3 3.9,4.3 4.1,7.2 0.3,2.8 0.4,5.7 -2.9,7.6 z"
       id="path2754"
       inkscape:connector-curvature="0"
       style="fill:#ffffff" />
    <path
       class="st0"
       d="m -214.41506,1374.7187 c -1.7,-0.2 -3.6,-0.5 -5.7,-0.8 1.7,-7 3.3,-13.8 5,-20.7 0.2,0 0.5,0.1 0.7,0.1 0,7.1 0,14.2 0,21.4 z"
       id="path2756"
       inkscape:connector-curvature="0"
       style="fill:#ffffff" />
    <path
       class="st0"
       d="m -257.71506,1363.6187 c 0.8,-6.1 1.6,-11.9 2.4,-18 3.2,1.3 4,3.8 4.4,6.4 0.6,4.2 -2.1,9 -6.8,11.6 z"
       id="path2758"
       inkscape:connector-curvature="0"
       style="fill:#ffffff" />
    <path
       class="st0"
       d="m -92.415064,1216.5187 c 3.4,1 3.8,3.7 4.1,6.1 0.8,5.9 1.6,11.9 -4.1,16.4 0,-7.3 0,-14.7 0,-22.5 z"
       id="path2760"
       inkscape:connector-curvature="0"
       style="fill:#ffffff" />
    <path
       class="st0"
       d="m -164.21506,1188.8187 c 0.5,-2.6 0.8,-5.5 1.6,-8.4 0.2,-0.8 1.4,-2 2.2,-2 0.7,0 1.8,1.2 2.1,2 1.9,5.5 2.1,11.2 0.6,16.9 -0.3,1 -1.5,2.4 -2.1,2.3 -1,-0.2 -2.3,-1.2 -2.6,-2.2 -0.8,-2.6 -1.2,-5.5 -1.8,-8.6 z"
       id="path2762"
       inkscape:connector-curvature="0"
       style="fill:#ffffff" />
    <path
       class="st0"
       d="m -163.81506,1239.1187 c 0,-3.9 0,-7.5 0,-11.2 0,-3.7 0,-7.3 0,-11 2.8,0.3 4,2.1 4.5,6.4 1.1,9.1 -0.4,14.3 -4.5,15.8 z"
       id="path2764"
       inkscape:connector-curvature="0"
       style="fill:#ffffff" />
    <path
       class="st0"
       d="m -119.41506,1219.3187 c 0.6,4.2 1.2,8.4 1.9,12.8 -1.3,0 -2.5,0 -3.9,0 0.5,-4.3 1,-8.5 1.5,-12.7 0.2,-0.1 0.4,-0.1 0.5,-0.1 z"
       id="path2766"
       inkscape:connector-curvature="0"
       style="fill:#ffffff" />
    <path
       d="m -3.8150643,1219.6187 c 0,6.6 0,12.9 0,19.2 0,0.8 0,1.6 -0.4,2.3 -0.2,0.4 -1.3,0.6 -1.6,0.4 -0.6,-0.5 -1.2,-1.3 -1.2,-2 0,-7.1 0,-14.1 0.2,-21.2 0.1,-5.8 0.3,-11.6 0.5,-17.4 0.1,-3.3 0.4,-3.6 3.8,-3.6 5.5,0.1 8.4,3.1 8.4,8.5 0,4.8 -1,7.5 -4.3,11.2 4.1,4.1 3,9.5 3.5,14.6 0.2,1.6 0.4,3.2 0.2,4.8 -0.1,0.7 -1,1.2 -1.6,1.8 -0.6,-0.6 -1.6,-1.1 -1.7,-1.8 -0.5,-4.4 -0.6,-8.7 -1.09999999,-13.1 -0.2,-2 -1.1,-3.8 -4.70000001,-3.7 z m 1.1,-4.2 c 0.9,-0.5 2.00000001,-0.8 2.50000001,-1.6 2.19999999,-3 3.29999999,-6.4 2.19999999,-10.1 -0.4,-1.2 -1.79999999,-2.3 -2.89999999,-3.2 -0.20000001,-0.2 -1.80000001,0.7 -1.80000001,1.1 -0.1,4.6 0,9 0,13.8 z"
       id="path2768"
       inkscape:connector-curvature="0" />
    <path
       d="m 42.084936,1229.7187 c -2.7,0 -5.1,0 -7.9,0 -0.3,2.3 -0.5,4.6 -1,6.8 -0.2,0.9 -1.2,1.7 -1.8,2.5 -0.4,-1 -1.3,-2 -1.1,-2.9 1.7,-12.3 3.5,-24.6 5.2,-36.9 0.1,-0.5 0.1,-1.1 0.4,-1.6 0.6,-0.9 1.3,-1.6 2,-2.4 0.8,0.8 2.1,1.5 2.3,2.4 1.7,9.2 3.4,18.4 4.9,27.7 0.6,3.9 0.9,7.8 1.3,11.7 0.1,0.6 0.2,1.4 -0.1,1.8 -0.4,0.6 -1.1,1.1 -1.8,1.2 -0.2,0.1 -1,-0.9 -1.1,-1.4 -0.5,-2.8 -0.9,-5.8 -1.3,-8.9 z m -0.6,-4 c -1,-7.2 -2,-14.2 -3,-21.2 -0.2,0 -0.3,0 -0.5,0 -0.9,7 -1.8,14.1 -2.7,21.3 2.3,-0.1 4.1,-0.1 6.2,-0.1 z"
       id="path2770"
       inkscape:connector-curvature="0" />
    <path
       d="m 16.184936,1237.1187 c 2.4,0 4.6,-0.1 6.8,0.1 0.8,0.1 1.5,0.9 2.2,1.4 -0.7,0.5 -1.3,1.3 -2,1.4 -2.7,0.2 -5.3,0.2 -8,0.3 -1.7,0 -2.4,-0.7 -2.4,-2.6 0,-9 -0.2,-18.1 -0.3,-27.1 0,-2.5 -0.1,-5 -0.2,-7.5 -0.1,-2.1 0.8,-3.2 3,-3.2 2.2,0 4.5,-0.1 6.7,0.1 0.9,0.1 1.7,0.9 2.6,1.5 -0.9,0.6 -1.7,1.6 -2.6,1.8 -1.8,0.3 -3.7,0.1 -5.9,0.1 0,5.8 0,11.5 0,17.3 2,-0.3 3.8,-0.6 5.5,-0.7 0.6,0 1.3,0.6 1.9,1 -0.4,0.6 -0.7,1.6 -1.3,1.8 -1.3,0.5 -2.8,0.4 -4.2,0.9 -0.7,0.3 -1.8,1.1 -1.8,1.7 -0.1,3.6 0,7.7 0,11.7 z"
       id="path2772"
       inkscape:connector-curvature="0" />
    <path
       d="m 88.684936,1230.5187 c -0.2,-4.6 -1.8,-8.5 -4.1,-12.2 -2,-3.3 -4,-6.6 -5.1,-10.2 -0.7,-2.2 0,-5.1 0.6,-7.5 0.5,-2.1 2.3,-3.9 4.5,-3.5 2,0.3 4.1,1.6 5.8,2.9 0.6,0.5 0.2,2.2 0.3,3.4 -1,-0.4 -2.1,-0.8 -3.1,-1.3 -1,-0.4 -2.1,-1.5 -2.8,-1.3 -0.8,0.2 -1.7,1.5 -2,2.5 -1,3.2 0,6.2 1.7,8.9 1.4,2.3 3.1,4.4 4.5,6.7 2.6,4.6 4,9.6 2.5,14.9 -0.5,1.9 -1.7,3.8 -3,5.3 -2.7,2.9 -6.5,2.1 -8,-1.5 -0.6,-1.4 -0.8,-3.1 -0.9,-4.7 0,-0.7 0.9,-1.4 1.4,-2.2 0.6,0.7 1.5,1.3 1.9,2.1 0.4,0.8 0.1,1.8 0.4,2.6 0.3,0.8 0.9,2 1.4,2 0.8,0 2,-0.6 2.4,-1.3 0.6,-1.8 1,-3.7 1.6,-5.6 z"
       id="path2774"
       inkscape:connector-curvature="0" />
    <path
       d="m 122.98494,1219.5187 c 0.2,-5.2 1,-10.3 3.5,-15 1.7,-3.2 4,-5.7 7.9,-6.3 0.9,-0.1 2,-0.1 2.9,0.3 0.6,0.3 1.2,1.2 1.2,1.8 0,0.5 -1.1,1.4 -1.6,1.4 -6.4,-0.5 -7.7,4.2 -8.9,8.7 -1.4,5.2 -1.5,10.4 -0.5,15.7 0.3,1.6 0.8,3.1 1.6,4.5 1.6,2.8 3.6,4.8 7.3,4.4 0.8,-0.1 1.7,1 2.5,1.5 -0.8,0.6 -1.7,1.6 -2.5,1.7 -4.8,0.3 -8.6,-1.8 -10.4,-6.1 -1.7,-3.9 -2.4,-8.3 -3.6,-12.5 0.2,0 0.4,0 0.6,-0.1 z"
       id="path2776"
       inkscape:connector-curvature="0" />
    <path
       d="m 52.784936,1240.7187 c -0.4,-14.7 -0.8,-28.9 -1.2,-43.2 3.2,-0.3 3.5,-0.1 3.6,3.4 0.2,6.5 0.2,13 0.4,19.6 0.1,5.4 0.4,10.8 0.7,16.6 2.2,-0.3 4.1,-0.7 6.1,-0.7 0.9,0 1.9,0.8 2.8,1.3 -0.8,0.6 -1.6,1.5 -2.5,1.7 -3.4,0.5 -6.6,0.8 -9.9,1.3 z"
       id="path2778"
       inkscape:connector-curvature="0" />
    <path
       d="m 99.784936,1201.3187 c -1.2,0 -2.2,0.2 -3,-0.1 -0.6,-0.2 -1.2,-0.8 -1.7,-1.2 0.5,-0.7 1,-1.9 1.5,-1.9 3.600004,-0.1 7.100004,0 10.700004,0.2 0.5,0 0.9,1 1.4,1.6 -0.6,0.4 -1.1,1.1 -1.7,1.2 -1.1,0.2 -2.3,0.1 -3.2,0.1 0,5.5 -0.1,10.7 0,16 0.1,5.4 0.3,10.7 0.5,16.1 0,1.2 0.3,2.7 -1.5,2.8 -1.9,0.1 -1.7,-1.4 -1.7,-2.7 -0.3,-9.5 -0.6,-18.9 -0.9,-28.4 -0.1,-1.3 -0.300004,-2.5 -0.400004,-3.7 z"
       id="path2780"
       inkscape:connector-curvature="0" />
    <path
       d="m 71.284936,1220.1187 c 0,-6.3 0,-12.5 0,-18.8 0,-1.4 0.1,-2.5 2,-2.5 2,0 1.8,1.4 1.7,2.6 -0.5,12 -1,23.9 -1.6,35.9 0,0.7 0.1,1.6 -0.3,2.1 -0.5,0.7 -1.4,1.1 -2.1,1.6 -0.4,-0.7 -1.1,-1.3 -1.1,-2 -0.1,-6.3 -0.1,-12.7 -0.1,-19 0.5,0.1 1,0.1 1.5,0.1 z"
       id="path2782"
       inkscape:connector-curvature="0" />
    <path
       d="m 117.18494,1219.7187 c 0,5.8 0,11.6 0,17.4 0,1 0,2.1 -0.4,2.9 -0.3,0.6 -1.4,1 -2.1,1.1 -0.3,0 -1,-1.2 -1,-1.8 0.2,-8.8 0.6,-17.5 0.9,-26.3 0.1,-3.8 0.3,-7.7 0.4,-11.5 0,-1.3 0,-2.5 1.9,-2.5 1.9,0 1.9,1.2 1.9,2.5 -0.3,6.1 -0.5,12.1 -0.8,18.2 -0.3,0 -0.6,0 -0.8,0 z"
       id="path2784"
       inkscape:connector-curvature="0" />
    <path
       d="m 293.78494,1029.2187 c 2,1.2 4.6,2.6 7,4 -2.8,1.4 -5,-1 -7.2,-2.2 -1.9,-1.1 -3.1,-0.7 -5,-0.1 -3.4,1.1 -7,1.3 -10.7,1.5 3.4,-2 8,-0.7 10.6,-4.4 -2.8,-2.2 -5.6,-4.4 -8.4,-6.7 0.2,-0.3 0.4,-0.5 0.6,-0.8 0.4,0.3 0.9,0.6 1.3,0.8 2.2,1.5 4.5,2.8 6.7,4.4 1.4,1 2.6,0.8 3.8,-0.1 3.3,-2.7 6.6,-5.4 10,-8 1,-0.8 2.3,-1.1 3.6,-1.5 0.2,-0.1 0.9,0.7 0.9,1.1 0,0.4 -0.4,0.9 -0.8,1.2 -0.5,0.4 -1.2,0.5 -1.6,0.9 -3.6,3.3 -7.2,6.6 -10.8,9.9 z"
       id="path2786"
       inkscape:connector-curvature="0" />
    <path
       d="m 267.68494,1019.4187 c -4.6,2.4 -9.2,4.7 -14,7.2 3.3,2.6 6.6,5.1 9.9,7.6 -0.2,0.3 -0.4,0.6 -0.6,0.9 -3.2,-2 -6.7,-3.8 -9.6,-6.2 -2,-1.7 -3.3,-1.1 -4.8,0 -1.1,0.7 -2.1,1.6 -3.1,2.4 -0.2,-0.2 -0.3,-0.4 -0.5,-0.6 1.6,-1.4 3.3,-2.9 5.1,-4.5 -1.8,-2.4 -3.8,-4.9 -5.8,-7.5 0.2,-0.1 0.3,-0.2 0.5,-0.3 2,1.9 4.2,3.7 6.1,5.8 1.1,1.2 2,1.5 3.4,0.8 4.4,-2.1 8.8,-4.1 13.2,-6.2 0,0.2 0.1,0.4 0.2,0.6 z"
       id="path2788"
       inkscape:connector-curvature="0" />
    <path
       class="st0"
       d="m -2.7150643,1215.4187 c 0,-4.9 0,-9.3 0.1,-13.7 0,-0.4 1.6,-1.2 1.80000001,-1.1 1.1,0.9 2.49999999,1.9 2.89999999,3.2 1.1,3.6 0,7.1 -2.19999999,10.1 -0.7,0.7 -1.80000001,1 -2.60000001,1.5 z"
       id="path2790"
       inkscape:connector-curvature="0"
       style="fill:#ffffff" />
    <path
       class="st0"
       d="m 41.484936,1225.7187 c -2.1,0 -4,0 -6.2,0 0.9,-7.2 1.8,-14.2 2.7,-21.3 0.2,0 0.3,0 0.5,0 1,7.1 2,14.1 3,21.3 z"
       id="path2792"
       inkscape:connector-curvature="0"
       style="fill:#ffffff" />
  </g>
</svg>
