<?xml version="1.0" encoding="UTF-8" standalone="no"?>
<!-- Created with Inkscape (http://www.inkscape.org/) -->

<svg
   xmlns:dc="http://purl.org/dc/elements/1.1/"
   xmlns:cc="http://creativecommons.org/ns#"
   xmlns:rdf="http://www.w3.org/1999/02/22-rdf-syntax-ns#"
   xmlns:svg="http://www.w3.org/2000/svg"
   xmlns="http://www.w3.org/2000/svg"
   xmlns:sodipodi="http://sodipodi.sourceforge.net/DTD/sodipodi-0.dtd"
   xmlns:inkscape="http://www.inkscape.org/namespaces/inkscape"
   width="273.42667mm"
   height="167.90941mm"
   viewBox="0 0 968.83464 594.95459"
   id="svg4069"
   version="1.1"
   inkscape:version="0.91 r13725"
   sodipodi:docname="video based.svg">
  <defs
     id="defs4071" />
  <sodipodi:namedview
     id="base"
     pagecolor="#ffffff"
     bordercolor="#666666"
     borderopacity="1.0"
     inkscape:pageopacity="0.0"
     inkscape:pageshadow="2"
     inkscape:zoom="0.35"
     inkscape:cx="1416.5602"
     inkscape:cy="757.4773"
     inkscape:document-units="px"
     inkscape:current-layer="layer1"
     showgrid="false"
     fit-margin-top="0"
     fit-margin-left="0"
     fit-margin-right="0"
     fit-margin-bottom="0"
     inkscape:window-width="1920"
     inkscape:window-height="1056"
     inkscape:window-x="0"
     inkscape:window-y="24"
     inkscape:window-maximized="1" />
  <metadata
     id="metadata4074">
    <rdf:RDF>
      <cc:Work
         rdf:about="">
        <dc:format>image/svg+xml</dc:format>
        <dc:type
           rdf:resource="http://purl.org/dc/dcmitype/StillImage" />
        <dc:title></dc:title>
      </cc:Work>
    </rdf:RDF>
  </metadata>
  <g
     inkscape:label="Layer 1"
     inkscape:groupmode="layer"
     id="layer1"
     transform="translate(1041.5602,-694.8849)">
    <g
       transform="translate(-1083.3486,631.0244)"
       id="Layer_1" />
    <g
       transform="translate(-1083.3486,631.0244)"
       id="Layer_2" />
    <path
       d="m -634.1486,1012.0244 c -5.2,0 -10.4,0 -15.6,0 -38.7,0 -77.4,-0.2 -116.1,0.1 -33.7,0.2 -67.4,0.8 -101.1,1.5 -18.3,0.4 -36.7,1.2 -55,2.2 -12.4,0.7 -24.7,2.3 -37,3.3 -7.9,0.7 -15.8,0.8 -23.6,1.6 -7.9,0.8 -15.9,1.9 -23.7,3.2 -2.6,0.4 -4.5,0.2 -6.7,-1.5 -3.9,-3 -8.2,-5.3 -11.8,-7.6 5.3,-14.6 10.3,-29.49999 16,-44.09999 2.9,-7.3 0.7,-14 -0.1,-21 -1.4,-12.1 -3,-24.2 -3.1,-36.2 -0.4,-29.1 0.2,-58.2 0.1,-87.2 0,-14.8 -0.8,-29.6 -1,-44.50001 -0.2,-11.9 0,-23.8 0,-36.2 -3.9,2.6 -7.8,4.7 -10,9.4 -4.6,9.7 -3.3,19.9 -3.6,30 -0.2,7.8 -1.1,15.50001 -1.1,23.30001 0,21.9 0.4,43.8 0.6,65.7 0.1,16.8 -0.2,33.6 0.2,50.4 0.2,8.2 1.4,16.4 2.1,24.7 0.7,7.3 1.2,14.7 2,22 0.9,7.9 2,15.8 2.9,23.8 0.4,3.4 -0.8,6.09999 -3.4,8.39999 -0.7,0.6 -0.6,2.1 -1.1,3.1 -0.7,1.6 -1.6,3.2 -2.4,4.8 -0.9,-1.5 -1.8,-3 -2.6,-4.5 -0.8,-1.4 -1.4,-2.9 -2.1,-4.3 -1,-2 -2.6,-3.99999 -2.9,-6.09999 -1.3,-11.2 -2.2,-22.4 -3.2,-33.6 -1.3,-13.6 -2.8,-27.2 -4,-40.9 -0.3,-4 0.1,-8 0.1,-12 0.1,-20.3 0.2,-40.6 0.2,-61 0,-15.9 -0.4,-31.8 -0.3,-47.7 0.1,-8.90001 1.3,-17.70001 1.4,-26.60001 0.1,-7.5 0.8,-14.7 3.8,-21.7 0.4,-0.9 0.3,-2.1 0.3,-3.2 0,-2 0.5,-3.3 2.8,-3.4 0.6,0 1.3,-0.1 1.6,-0.5 4.5,-4.8 10.8,-8 13.3,-14.6 0.2,-0.6 1.3,-1 2.6,-1.8 0,2.2 0,3.6 0,5.6 2.7,-1.9 4.9,-3.5 7.1,-5.1 2.3,-1.7 4.7,-1.7 6.5,0.4 1.8,2 0.7,3.8 -1.1,5.3 -2.9,2.4 -3.3,5.5 -3.1,9.1 0.4,10.7 -0.1,21.5 1.1,32.1 1.8,15.7 1.9,31.50001 2.4,47.30001 0,1.3 0,2.7 0,4 -0.1,29.8 -0.5,59.6 -0.2,89.4 0.1,10.8 1.9,21.5 2.5,32.3 0.2,4.1 -0.3,8.2 -1,12.2 -0.8,4.4 -0.4,5.3 3.8,6.9 10.2,4 20.8,4.2 31.5,3.2 25.7,-2.4 51.3,-5.2 77,-7.4 11.5,-1 23.1,-1 34.6,-1.3 32.2,-0.7 64.5,-1.2 96.7,-1.9 11.8,-0.2 23.6,-0.7 35.4,-1.1 0.8,0 1.6,-0.2 2.7,-0.4 2,-16.9 5.1,-33.7 -4.6,-49.3 -4.4,-7.1 -9,-14.3 -16.8,-19.2 -0.6,3.8 -0.9,7.1 -1.8,10.2 -3.5,11.7 -7.2,23.5 -11,35.1 -1.5,4.5 -5.3,5.9 -9.7,3.8 -7.4,-3.5 -12.9,-9.3 -17.9,-15.7 -0.3,-0.4 -0.3,-1.8 0,-1.9 0.9,-0.4 2.2,-0.8 2.9,-0.4 2,1.3 3.9,2.9 5.8,4.4 2.8,2.2 5.4,4.5 8.3,6.6 1.2,0.9 2.7,1.4 4.5,2.2 4.7,-14.3 9.9,-27.8 11.9,-42.5 -3.3,-0.2 -5,1.2 -6.6,3.4 -7.4,10.5 -12.6,16.4 -23.6,22.7 0.8,0.6 1.5,1.2 1.9,1.5 -3.2,0.6 -6.6,1.2 -9.9,1.8 -0.7,0.1 -1.7,0.3 -2.1,-0.1 -2.8,-2.6 -5.4,-0.7 -7.8,0.5 -6.6,3.3 -13.1,7 -19.7,10.3 -4.6,2.4 -9.4,4.5 -14.1,6.7 -0.4,0.2 -1,0.2 -1.4,0.4 -5.7,2.8 -7.3,2.3 -9.8,-3.7 -1.8,-4.3 -3.4,-8.8 -4.8,-13.3 -2.5,-8.2 -4.9,-16.5 -7.2,-24.8 -0.5,-1.8 -0.6,-3.8 -0.8,-5.7 -0.3,-3.4 -1.2,-3.9 -4,-1.9 -7.9,5.5 -12.4,13.6 -16,22.2 -6,14.4 -5.8,29.1 -1,43.8 0.4,1.1 0.5,2.3 1,4.3 -4.4,-3.6 -6.5,-7.7 -7.3,-12.2 -3.8,-21.7 1.3,-41 16,-57.5 2.6,-2.9 5.8,-6 10.7,-5.5 0.3,-1.5 0.5,-2.9 1,-5.2 3.8,20.2 9.6,38.7 16.9,56.4 14.8,-2.7 25.1,-12.7 38.7,-18.2 -21.3,-8.1 -40.2,-18.1 -54.5,-34.8 0.3,-0.5 0.6,-0.9 0.9,-1.4 2.8,2 5.5,3.9 8.3,5.9 15.8,11.5 32.7,21 51.6,26.6 1,0.3 2,0 3.1,0.1 2.3,0.2 4.6,0.4 6.9,0.6 0.2,0.5 0.4,1 0.7,1.4 7.2,-7.3 14.4,-14.6 21.5,-21.9 -0.2,-0.5 -0.5,-1 -0.7,-1.6 -2.6,0 -5.1,0.1 -7.7,0 -16.1,-0.4 -28.7,-8.3 -31,-25.6 -0.1,-0.6 -0.4,-1.1 -0.3,-0.9 -3.6,0.6 -6.9,1.5 -10.2,1.6 -1.3,0 -3.3,-1.9 -3.7,-3.3 -1.1,-3.9 3.1,-11.7 6.9,-13.5 0.4,-0.2 0.9,0 1.9,0 -3.1,4.1 -5.7,7.9 -5.2,12.9 4.4,0.9 6.9,-0.8 8.1,-4.9 0.9,-3.1 2.8,-6.1 -0.8,-8.8 0,0 0.9,-1.6 1.6,-2.3 1.2,-1.3 3.1,-2.1 3.9,-3.6 4.9,-9.6 12.3,-16.8 21.3,-22.5 6.3,-4 13.2,-2.7 19.8,-1.7 3.4,0.5 3.9,-0.7 3.8,-3.3 -0.3,-7.9 -0.8,-15.8 -1,-23.70001 -0.3,-7.9 -0.3,-15.9 -0.5,-23.8 -0.1,-1.8 -0.6,-3.5 -1,-5.9 -5.9,0.3 -12.1,0.3 -18.2,0.9 -20.5,2 -40.9,4.5 -61.3,6.2 -7.4,0.6 -10.8,5.4 -12.6,11 -2.7,8.3 -5.9,16.80001 -3.9,25.90001 0.2,0.7 -0.1,1.8 -0.5,2.4 -1.3,1.7 -2.1,3.3 -1.9,5.7 0.1,1.5 -1.4,2.8 -3.4,1.4 -3.4,-2.5 -7.1,-2.2 -10.8,-0.9 -2.7,1 -5.4,2.6 -5.2,6.2 0.2,2.9 3.8,5.9 7.2,6.2 1.9,0.2 3.9,0.1 5.8,0.2 3.7,0.2 6,2.2 6.4,5.9 1.2,9.8 2.4,19.7 3.5,29.5 0.3,2.9 0.3,5.8 0.1,8.7 -0.1,0.8 -1.2,1.6 -1.9,2.4 -0.7,-0.8 -2,-1.5 -2.1,-2.3 -0.8,-8.1 -1.3,-16.2 -2.1,-24.3 -0.5,-5.1 -1.2,-10.2 -1.9,-15.7 -6,0.8 -13,2.1 -17.6,-4.4 -1.5,-2.2 -2.6,-5.3 -2.6,-7.9 -0.1,-7.5 7.3,-11.3 20,-10.7 -0.4,-5.1 -1,-10.3 -1,-15.4 0,-4.80001 -0.2,-9.90001 1.1,-14.40001 1.7,-5.8 5.3,-11.1 7,-16.9 1.4,-5.1 4.1,-8.3 8.6,-10.4 8.9,-4.3 18,-8.2 27.9,-8.9 14.9,-1.1 29.8,-1.6 44.8,-2.3 5.3,-0.2 10.6,-0.1 15.9,0 9.3,0.2 12.1,2.3 14.9,10.8 0.2,0.6 0.3,1.2 0.5,1.7 1.9,4.4 1,6.4 -3.7,7.8 -0.7,0.2 -1.4,0.4 -2.1,0.7 -0.1,0 -0.2,0.2 -0.4,0.4 4.1,16 1.8,32.10001 -0.7,48.20001 3.4,-0.5 7,-2.9 8.9,2.7 -6.5,-0.6 -10.5,2.6 -12.7,8 3,1.8 6.2,3.8 9.6,5.8 4.1,-2.6 5.7,-6.6 5,-11.7 6.2,2.8 5.8,6.9 -1.5,15.3 7.2,8 10,17.6 9.5,28.4 -0.4,11 -4.4,19.9 -13.1,26.6 27.5,17.4 31.8,42.8 25.5,71.6 46,0.5 91.7,1.1 138,1.6 -0.2,-2.1 -0.6,-5.1 -0.7,-8.1 -0.5,-14.5 -0.9,-28.9 -1.5,-43.4 -0.3,-6.8 -1.3,-13.6 -1.2,-20.4 0.1,-12.8 0.6,-25.5 1.2,-38.3 0.8,-18.7 2.3,-37.4 2.7,-56.10001 0.4,-17.1 0,-34.3 -0.3,-51.4 -0.1,-4.9 -1.1,-9.8 -1.4,-14.7 -0.5,-6.6 -3.5,-12.1 -7.2,-17.2 -1.4,-2 -3.7,-3.3 -6.5,-5.7 2.5,0.2 4.8,-0.1 6.5,0.6 5.5,2.3 8.4,7.2 10.8,12.3 4,8.7 5.3,18.1 5.8,27.5 0.4,9 0.8,18 0.9,26.9 0.2,24.90001 -1,49.80001 -2.8,74.70001 -0.5,7.3 0.4,14.7 -0.4,21.9 -2,20.1 1,40.1 0.7,60.1 -0.1,8.3 -1.6,16.6 -2.3,25 -0.3,3.4 -0.1,6.9 -0.5,10.4 -0.2,1.3 -1.3,2.8 -2.4,3.5 -10.7,7 -21.5,13.8 -32.2,20.7 -7.6,4.9 -15.1,9.8 -22.5,15.09999 -2.2,1.5 -3.6,4.1 -5.4,6.1 -0.4,0.9 -0.3,1.3 -0.1,1.8 z m -148.3,-176.69999 c -0.2,0.2 -0.4,0.3 -0.6,0.5 -8.5,7.5 -13.2,16.6 -13.4,28.2 -0.1,6.3 2,11 6.5,15.1 11.8,10.5 31.1,9.7 41.7,3.9 6.3,-3.5 12.5,-6.9 15.3,-15 2.3,-6.7 3.5,-12.8 1.3,-19.4 -1.4,-4.1 -3.3,-8.1 -5.1,-12.1 -0.2,-0.5 -0.8,-1 -1.3,-1.3 -4.2,-2.4 -7.7,-5.4 -12.6,-7.1 -8.7,-3 -16.7,-2.7 -24.8,0.5 -2.8,1.1 -4.7,4.4 -7,6.7 z m 200.9,130.2 c -0.1,-0.2 -0.2,-0.5 -0.3,-0.7 -8.1,0.8 -16.1,2.2 -24.2,2.4 -19.7,0.5 -39.4,0.6 -59.1,0.8 -16.5,0.2 -33.1,0.3 -49.6,0.5 -1.6,0 -3.2,1.2 -4.8,1.7 -1,0.3 -2.1,0.3 -3.1,0 -1.5,-0.4 -3,-1.5 -4.4,-1.5 -12.9,0.4 -25.8,1.2 -38.6,1.4 -30.7,0.6 -61.3,0.5 -92,1.5 -24.4,0.9 -48.8,2.9 -73.1,4.8 -15.9,1.2 -31.6,4.2 -47.6,2.8 -8.2,-0.7 -15.9,-2.8 -22.9,-7.3 -0.7,-0.4 -1.4,-0.7 -1.7,-0.9 -5.1,14.1 -10,27.9 -14.8,41.29999 10.3,-1.7 20.8,-3.8 31.4,-5 15.3,-1.7 30.7,-2.8 46.1,-4.2 14,-1.2 28,-2.9 42.1,-3.59999 20.3,-0.9 40.6,-1.2 60.9,-1.5 34.8,-0.5 69.6,-0.8 104.4,-1 30.9,-0.2 61.8,-0.1 92.7,-0.3 5.9,0 11.8,0.5 17.3,-3.9 7.4,-5.9 15.5,-10.9 23.4,-16.1 5.7,-3.8 11.8,-7.4 17.9,-11.2 z m -175.7,-76.2 c -5.4,-0.3 -11.1,0.1 -16.5,-1 -5.4,-1 -10.5,-3.4 -15.3,-5 6.5,6.9 28.7,11.1 31.8,6 z m -79.4,-130.60001 c 0.2,0.7 0.4,1.3 0.5,2 7.6,-2 15.2,-4 22.8,-6 -0.1,-0.4 -0.2,-0.9 -0.3,-1.3 -7.7,1.8 -15.4,3.5 -23,5.3 z m 94.9,124.40001 c 0.4,0.3 0.8,0.5 1.1,0.8 4.7,-3.1 8.1,-8.2 8.1,-12.3 -3.1,4 -6.1,7.8 -9.2,11.5 z"
       id="path2837"
       inkscape:connector-curvature="0" />
    <path
       d="m -681.4486,1236.2244 c 10,0.2 20.1,0.6 30.1,0.7 26.6,0.3 53.3,0.5 79.9,0.8 21.8,0.2 43.6,0.1 65.3,0.8 21.8,0.7 43.5,2.2 65.2,3.4 18,0.9 35.9,1.7 53.9,2.6 18.7,0.9 37.4,1.5 56.1,2.8 23,1.7 46,4.1 69,6.2 7.2,0.6 14.5,1.5 21.8,1.5 2.5,0 5.2,-2 7.5,-3.5 11.2,-7.2 21.3,-15.7 29.6,-26.2 3.2,-4.1 7.2,-7.6 10.7,-11.4 7.6,-8.1 14.7,-16.5 19.2,-26.8 1.2,-2.8 3.5,-5.1 6.1,-7.5 -0.3,1.4 -0.1,3.2 -0.9,4.2 -4.2,5.8 -0.8,11.6 -0.1,17.4 0.3,2.7 1.3,5.2 1.8,7.9 0.1,0.5 -0.3,1.2 -0.5,1.7 -0.9,1.8 -1.9,3.7 -2.4,4.6 -2.4,1.5 -4.4,2.3 -5.7,3.8 -17,17.6 -33.7,35.4 -50.8,52.9 -2.3,2.3 -5.4,4.2 -8.4,5.4 -6.6,2.5 -12.6,5.7 -17.2,11.2 -0.7,0.8 -2.3,1.2 -3.5,1.1 -24.6,-2.3 -49.1,-4.8 -73.7,-6.9 -40.7,-3.4 -81.5,-6 -122.4,-6 -17.1,0 -34.3,-0.6 -51.4,-1.4 -21.9,-1.1 -43.7,-2.8 -65.5,-3.9 -10.2,-0.5 -20.4,-0.6 -30.6,-0.6 -18.8,0 -37.7,0.5 -56.5,0.4 -11.7,-0.1 -23.4,-0.4 -35,-1.4 -5.4,-0.5 -10.8,-2.6 -16.1,-4.2 -0.9,-0.3 -1.8,-2.1 -1.7,-3.1 0.1,-1 1.2,-2.3 2.2,-2.9 0.9,-0.6 2.2,-0.7 2.3,-0.7 -0.8,-3.2 -1.9,-6.2 -2.2,-9.3 -0.5,-4.8 -0.7,-9.7 -0.7,-14.5 0,-4.6 3,-7.6 6.5,-10 25.5,-17.7 50.9,-35.4 76.5,-52.7 12.2,-8.2 24.9,-15.6 37.4,-23.2 4.1,-2.5 8.4,-4.6 12.6,-6.9 0.9,-0.5 2,-0.9 3.1,-0.9 6.7,0.1 13.5,0.3 20.2,0.5 8.8,0.3 17.7,0.6 26.5,1 6.8,0.4 13.5,1.1 20.3,1.5 3.8,0.2 3.4,3.1 4.5,5.8 -7.9,-0.7 -15.3,-1.6 -22.8,-2 -13.7,-0.6 -27.4,-0.8 -41.1,-1 -1.6,0 -3.5,1.1 -4.9,2.2 -6,4.5 -11.6,9.4 -17.7,13.6 -16.4,11.3 -33,22.3 -49.5,33.5 -10,6.7 -20,13.4 -30,20.1 -7.2,4.8 -14.4,9.5 -21.5,14.4 -2,1.4 -3.8,3 -5.5,4.7 -0.6,0.7 -0.9,1.9 -0.9,2.9 -0.1,3.5 0.2,7.1 0,10.6 -0.1,3.1 -0.6,6.2 -1,9.8 4.1,0 8.6,0.1 13.1,0 15.4,-0.4 30.9,-1 46.3,-1.1 24.6,-0.1 49.1,0 73.7,0.2 26.5,0.2 53,0.3 79.5,1 38.7,1.1 77.3,2 115.9,4.5 35.3,2.3 70.5,6.6 105.7,10.1 7.9,0.8 15.9,1.8 24.6,2.8 -1.6,-6.2 -3.1,-12 -4.7,-18 3.6,0.1 6.4,4.7 7.7,10.8 5.9,-5.4 12.5,-11.2 18.6,-17.3 10.6,-10.7 21,-21.7 31.5,-32.5 2,-2.1 4.1,-4.2 6.4,-5.9 4.2,-2.9 3.8,-6.8 3,-11 -0.4,-2.1 -0.7,-4.3 -1.1,-6.6 -3.1,4.3 -5.8,8.6 -9,12.4 -11.3,13.8 -22.6,27.6 -36.5,39 -4.6,3.8 -10,6.7 -15.1,9.7 -1,0.6 -2.6,0.1 -4,0.1 -24.9,0.3 -49.8,-1.9 -74.6,-3.6 -30,-2 -59.9,-3.8 -89.9,-5.5 -33.7,-1.9 -67.4,-4.4 -101.2,-5.4 -37.8,-1.2 -75.7,-1 -113.5,-1.7 -18.1,-0.3 -36.2,-1.3 -54.3,-2.2 -3.5,-0.2 -6.9,-1.5 -10.4,-2.3 0.1,-0.3 0.1,-0.4 0.2,-0.5 z m 212.4,26.4 c 0,0.1 0,0.2 0,0.4 5.1,0 10.1,0 15.2,0 0,-0.1 0,-0.2 0,-0.4 -5.1,0 -10.2,0 -15.2,0 z"
       id="path2839"
       inkscape:connector-curvature="0" />
    <path
       d="m -466.2486,1037.1244 c -0.5,11.9 -1,23.8 -1.6,35.8 -0.2,3.5 -0.6,7 -0.8,10.5 -0.7,12.3 -1.4,24.7 -2.1,37.1 -0.2,3.5 -0.3,7 -0.5,10.6 -0.1,1.3 -0.2,2.6 -0.5,4.8 -3.2,-4.9 -4.2,-9.4 -4.1,-14.1 0.6,-18.1 1.2,-36.2 1.8,-54.3 0.1,-4.8 0,-9.7 -0.8,-14.6 -1.4,7 -3,14 -4.3,21 -3.6,19.5 -7.2,39 -6.9,58.9 0,2.5 -0.6,5 -1.1,7.5 -0.6,2.9 0.8,4.8 2.5,6.8 1.1,1.3 2.1,2.7 3.1,4.1 1.9,2.8 3.7,5.8 5.8,8.6 2,2.7 4.3,5.3 6.6,7.7 5.5,5.7 11.1,11.2 16.7,16.8 0.9,0.9 1.8,1.9 2.7,2.8 -0.2,0.3 -0.3,0.5 -0.5,0.8 -2.7,-1.5 -6,-2.5 -8.1,-4.7 -7.6,-7.8 -14.8,-16 -22,-24.2 -2.4,-2.7 -4.6,-5.6 -6.8,-8.5 -0.5,0.3 -1,0.5 -1.5,0.8 1,6.1 2.1,12.2 3.1,18.4 0.1,0.9 -0.2,2.1 -0.7,2.8 -0.4,0.5 -1.4,0.5 -2.2,0.7 -0.2,-0.8 -0.5,-1.7 -0.7,-2.5 -1.2,-4.5 -1.7,-9.3 -3.8,-13.3 -3,-5.9 -4.4,-12 -5.2,-18.4 -2.6,-20.6 0.8,-40.7 4.7,-60.7 2.6,-13.7 5.6,-27.4 8.6,-41 1.5,-6.9 3.6,-13.6 5.1,-20.5 0.4,-1.6 -0.1,-3.5 -0.3,-5.2 -0.1,-0.7 -0.5,-1.4 -0.5,-2.1 -0.1,-2.7 3.7,-6.5 7.6,-7.5 2.8,-0.7 5.3,0 7,2.6 0.9,1.3 1.9,2.5 2.8,3.7 0.4,-0.2 0.8,-0.4 1.2,-0.7 -2.2,-4 -3.8,-8.39999 -6.7,-11.79999 -5.9,-6.9 -11.9,-13.8 -20.5,-17.8 -3.2,-1.5 -5.8,-3.9 -4.6,-8.4 0.4,-1.3 -0.6,-3 -0.9,-4.6 -2,-9.5 -4.1,-19 -5.9,-28.5 -0.7,-3.5 -0.7,-7.1 -0.8,-10.7 0,-0.9 0.7,-2.1 1.4,-2.7 0.8,-0.7 2,-0.8 3,-1.2 -0.2,0.9 -0.4,1.9 -0.4,2.8 -0.1,1.2 -0.5,2.5 -0.2,3.6 2.5,10.7 5,21.5 7.7,32.2 0.9,3.8 2.1,7.5 3.5,11.1 0.4,1 1.7,1.9 2.8,2.5 10.5,5.6 18.5,13.8 24.2,24 1.9,3.29999 1.7,7.69999 2.7,11.59999 0.3,1.2 1.2,2.9 2,3.1 14.2,2.7 28.3,1.8 42.4,-2.1 -0.9,-2.6 -3.8,-5 -0.6,-7.8 5.2,7.8 13,9.6 21.6,9.6 9.2,0 18.1,-1.8 26.8,-4.6 2.4,-0.8 5,-0.9 7.5,-1.4 2.4,-0.5 4.7,-1.1 7.2,-1.7 -0.2,2.3 -1.1,4.4 -4.2,5.5 -12.7,4.8 -25.6,8.4 -39,7.8 -6.3,10.2 -2,20.8 -2.6,31.7 2.5,-1.5 4.7,-2.6 6.6,-3.9 4.9,-3.4 8.3,-2.4 11.1,2.9 1.7,3.3 3.6,6.4 5.4,9.6 0.5,-0.2 0.9,-0.4 1.4,-0.6 -0.3,-1 -0.5,-2 -0.9,-2.9 -4.3,-9.8 -8.4,-19.7 -7.3,-30.8 0.1,-1.1 0.9,-2.2 1.4,-3.3 0.6,1 1.6,1.9 1.7,3 1.7,11.6 5.5,22.3 11.5,32.4 0.4,0.7 0.9,1.4 2.2,3.2 2.3,-6.9 4.7,-12.9 6.3,-19 1.6,-6.2 2.3,-12.6 3.9,-18.8 0.9,-3.7 3.5,-6.5 7.4,-7.3 7.7,-1.7 13,-6.8 18.3,-12.1 0.8,-0.8 1,-2.1 1.4,-3.19999 0.5,-1.6 0.9,-3.2 1.4,-4.7 4.9,1.6 6.7,6.49999 3.8,10.19999 -5.8,7 -12.6,12.9 -21.4,15.7 -3,1 -4.2,2.6 -4.9,5.5 -1.7,8 -3.4,16 -5.9,23.8 -1.2,3.8 -4.1,7 -6.3,10.4 -1.4,2.1 -1.6,3.9 0.1,5.9 0.5,0.6 0.4,1.9 0.6,2.8 -1,-0.1 -2.2,0.2 -2.9,-0.3 -2.3,-1.5 -4.4,-3.3 -6.8,-5 -4.5,2.9 -9.4,1.2 -12.6,-4.9 -1.4,-2.7 -2.8,-5.4 -4.1,-8 -2.4,1 -4.7,2 -6.9,3 -3.1,1.3 -4.6,3.3 -3,6.8 0.9,2 1.7,4 2.5,6 1.7,4.8 2.8,9.5 2.3,14.8 -1,10.1 -0.3,20.4 -1.1,30.6 -1.3,15.2 -2.5,30.6 -10.3,44.3 -2,3.5 -4.4,6.8 -7.1,9.7 -7.4,8 -15,15.9 -24.3,21.8 -3.5,2.2 -7.2,2.6 -11.2,1.9 -3.3,-0.6 -3.6,-2.2 -1.6,-5 2.5,3.6 5.6,2.8 8.4,1 3.3,-2.1 6.7,-4.2 9.3,-7 6.8,-7.2 13.8,-14.4 19.6,-22.5 6,-8.3 8.6,-18.2 9.3,-28.4 1,-15.3 1,-30.6 2.7,-45.8 0.8,-7.5 -2.7,-13.1 -4.5,-19.5 -0.5,-1.7 -0.9,-3.5 -1.3,-5.2 -0.3,0.2 -0.6,0.5 -0.9,0.7 -1.4,-1.4 -2.8,-2.8 -4.2,-4.2 1.5,-1.4 3.1,-2.8 5.4,-4.9 0,-2.2 0,-5.8 0,-9.5 -22.1,7.9 -43.8,8.6 -65.2,-1.9 -2.1,-0.1 -4.6,-1.8 -5.5,1.8 -1.9,6.8 -1.9,7.5 0.7,8.4 0,-1.5 -0.2,-3 0.1,-4.4 0.4,-2.7 0.4,-6.1 4.7,-5.8 z m 0.5,-24.7 c -0.9,4.1 -2,7.9 -2.6,11.8 -1,6.5 -0.8,6.5 4.9,8.7 0.3,0.1 0.7,0.3 1,0.4 19.4,7.8 39,7.9 58.7,0.9 0.8,-0.3 1.8,-1.4 1.9,-2.1 0.5,-4.9 0.7,-9.9 1,-14 -2.9,-0.9 -5.2,-1.6 -7.5,-2.2 -0.6,-0.2 -1.2,-0.6 -1.7,-0.5 -5.9,1.3 -11.7,3.2 -17.6,3.8 -13.2,1.3 -26.1,1.4 -38.1,-6.8 z"
       id="path2841"
       inkscape:connector-curvature="0" />
    <path
       d="m -301.7486,817.62441 c 0,-0.7 -0.2,-1.6 0,-2.2 2.3,-5.7 1.9,-11.6 1.6,-17.6 -0.1,-1 0.7,-2.1 1.1,-3.10001 1.1,0.50001 2.5,0.80001 3.2,1.60001 4.6,5.3 9,10.8 13.5,16.2 0.4,0.5 0.8,1 0.9,1.5 0.6,3.4 2.8,3.8 5.7,3.3 2.3,-0.5 4.8,-0.8 6,1.9 1.2,2.9 -1.1,4.1 -3,5.4 -0.4,0.3 -0.7,0.6 -1.2,1.1 2.3,1.4 4.4,2.7 6.5,4 0.7,0.4 1.7,0.8 2,1.5 0.7,1.8 1.2,3.8 1.3,5.7 0,0.4 -2.7,0.7 -5,1.3 -5.9,9.8 -9.6,21.4 -12.1,33.5 -2.6,12.7 -4.8,25.5 -7.5,38.3 -1,5 -2.9,9.8 -4.2,14.7 -0.5,1.9 -0.6,3.9 -0.9,6.1 13.8,-3.3 32,9.7 31.4,26 -0.3,9.4 -2.5,17.7 -10.1,23.8 -5.3,4.3 -11.8,5.9 -18.3,6.2 -10.3,0.5 -20.7,0.2 -31,0.2 -3.1,0 -5.8,-0.8 -6.5,-4.5 -0.4,-2.3 0.5,-2.7 2.6,-2.6 13.9,1 27.9,1.8 41.7,-0.8 9.4,-1.7 14.6,-7.7 15.9,-17.1 1.8,-13 -3.8,-21.9 -16.1,-26.1 -5.5,-1.9 -9.7,0 -13.4,4 -0.9,0.9 -1.7,1.9 -3,3.3 -0.3,-2 -0.5,-3 -0.8,-4.8 -1.1,0.8 -1.9,1.2 -2.6,1.7 -5.1,4.8 -10.1,9.7 -15.2,14.5 -0.4,0.4 -1.6,0.5 -2,0.2 -0.5,-0.4 -1,-1.4 -0.9,-2 2.5,-19.5 4.9,-38.9 7.6,-58.4 1.2,-8.5 -0.7,-16.3 -4,-24 -0.3,-0.7 -1.8,-1.4 -2.8,-1.4 -12.8,-0.2 -25.5,-0.4 -38.3,-0.4 -7.2,0 -14.4,0 -21.5,0.7 -7.8,0.7 -7.8,1 -6.7,-6.6 0.4,-3 0.6,-6.1 1.6,-8.9 0.8,-2.3 2.2,-4.6 5.3,-4.7 11.4,-0.6 22.8,-1.7 34.2,-1.8 6.7,-0.1 13.5,1.2 20.1,2.3 1.7,0.3 3.4,1.9 4.6,3.3 3.1,3.6 6,7.4 9.2,11.5 1.2,-4.2 2.4,-8.4 3.8,-13.2 -2.8,-0.5 -5.5,-1.3 -8.3,-1.6 -9.5,-0.9 -18.1,-4.3 -26,-9.5 -3.9,-2.5 -7.6,-5.3 -11.6,-7.6 -2.8,-1.5 -5.9,-2.4 -8.9,-3.5 -3.3,-1.2 -6.6,-2.4 -9.9,-3.6 0,0 -0.2,0.2 -0.2,0.4 0.1,2.2 0.3,4.4 0.5,6.5 -2.2,0 -4.5,0.4 -6.7,0 -3,-0.5 -5.8,-1.4 -9,-2.2 0.1,1.4 0.2,2.6 0.2,3.9 -0.2,4.4 -3.1,8 -7.5,8.2 -10.3,0.4 -20.8,1 -30.8,-2.2 -7,-2.2 -12.8,-6.3 -16.3,-13.1 -2.1,-4.1 -1,-5.9 3.5,-5.7 9.3,0.4 18.7,0.8 27.7,1.2 0.1,-1.4 0.3,-2.6 0.4,-3.8 1.2,0.3 2.4,0.5 3.5,1 3,1.2 6,2.7 9.1,3.5 1.2,0.3 2.7,-1 4.1,-1.6 1,-0.4 2.3,-1.4 3.1,-1.1 0.8,0.3 1.9,1.8 1.8,2.7 -0.2,2.6 1.1,3.4 3.2,3.8 2.8,0.6 5.6,1.5 8.4,2.3 0.2,-0.2 0.5,-0.5 0.7,-0.7 -2.1,-2.6 -4.3,-5.2 -6.4,-7.8 -1.2,-1.4 -2.9,-2.7 -1.2,-4.7 1.6,-1.9 3.1,-0.6 4.8,0.3 5.1,2.5 10.3,4.9 15.5,7.2 0.8,0.4 2.2,0.6 2.7,0.1 2.3,-2.2 3.5,-0.3 5.2,0.9 12.6,9.4 24.7,19.9 41.6,20.7 4.7,0.2 9,1.7 12.1,5.5 0.6,0.8 0.8,3 0.2,3.5 -4,3.4 -5.2,8 -2.9,12.6 0.1,0.2 0.1,0.5 0.2,0.9 -3.1,0.8 -2.8,3.4 -2.9,5.8 -0.4,10.9 -0.1,21.9 -1.3,32.8 -1.4,13.4 -4,26.6 -6.1,40.2 3.4,-3.9 6.5,-8.1 10.2,-11.7 10.7,-10.1 11.6,-24.1 14.7,-37.1 2.9,-12.6 4.8,-25.6 8.4,-38 2.3,-8 6.9,-15.4 10.7,-23 0.7,-1.5 2.5,-2.5 4.1,-4 -2.6,-1.4 -5.5,-2.7 -8.3,-4.3 -1.2,-0.7 -2.1,-1.7 -3.1,-2.6 1,-1 1.9,-2.1 2.9,-3 0.7,-0.6 1.6,-0.8 2.4,-1.2 -0.2,-0.4 -0.4,-0.8 -0.5,-1.2 -1.9,0.9 -3.8,1.9 -5.9,2.6 -1.2,0.4 -2.6,0.2 -3.9,0.3 0.2,-1.2 0.5,-2.3 0.4,-3.5 -0.1,-1.7 0,-3.9 -1,-5.1 -3.1,-4.2 -6.7,-8 -10.6,-12.5 -0.9,5.8 -0.5,11.8 -5.7,15.4 l 0,0 z"
       id="path2843"
       inkscape:connector-curvature="0" />
    <path
       d="m -707.1486,706.2244 c -0.6,-0.2 -1.4,-0.2 -1.7,-0.5 -2.3,-3.59999 -5.8,-2.39999 -8.9,-2.29999 -17,0.3 -34.1,0.4 -51.1,1.3 -27.8,1.49999 -55.6,3.39999 -83.3,5.39999 -18.8,1.3 -37.6,3 -56.3,4.7 -12.3,1.1 -24.6,2.7 -37,3.8 -10,0.9 -20.1,1.2 -30.1,2.1 -10.4,0.9 -20.7,2.2 -31,3.3 -0.6,0.1 -1.8,0 -1.9,-0.3 -0.2,-0.7 -0.3,-1.9 0.2,-2.3 1,-0.9 2.3,-1.9 3.6,-2.2 7.4,-1.6 14.7,-3.2 22.1,-4.3 10.7,-1.5 21.5,-2.4 32.2,-3.6 16.3,-1.8 32.5,-4 48.9,-5.5 24.9,-2.29999 49.9,-4.49999 74.9,-6.29999 25.7,-1.8 51.4,-3.1 77.2,-4.3 10.7,-0.5 21.4,-0.3 32.1,-0.3 15.1,0 30.2,-0.1 45.2,0.1 23.7,0.3 47.2,2.4 70,9.6 1.1,0.39999 2.2,0.99999 3.3,1.49999 -0.1,0.4 -0.1,0.9 -0.2,1.3 -1.6,0 -3.1,0.2 -4.7,0 -23.2,-3.29999 -46.5,-3.19999 -69.9,-3.59999 -9,-0.2 -18,-0.3 -27,-0.2 -2.2,0 -4.5,1.1 -6.7,1.69999 0,0.1 0.1,0.5 0.1,0.9 z"
       id="path2845"
       inkscape:connector-curvature="0" />
    <path
       d="m -401.5486,1162.4244 c 5.5,-0.5 10.9,-1.4 16.4,-1.4 11.5,-0.1 23.1,0.2 34.6,0.6 2.5,0.1 4,-0.6 5,-3 6.3,-15.4 13.1,-30.6 19,-46.1 3.5,-9.1 10.5,-10.1 18.2,-7.3 1.8,0.7 3.5,1.7 5.2,2.5 12,-15.6 25.2,-30 34.3,-47.4 1.1,-2 2.3,-4 3.5,-6 0.4,-0.7 1,-1.4 1.7,-1.7 3.2,-1.4 11.1,3.2 12.1,7.5 -1.9,-1.2 -3.4,-2.3 -5.1,-3.1 -2.3,-1.1 -4.8,-1.6 -6.3,1.3 -7.2,14.4 -16.8,27 -27.3,39 -3.1,3.6 -6.1,7.2 -9.2,10.8 -0.2,0.2 -0.5,0.4 -0.5,0.5 -0.1,5.3 -5.3,7.3 -7.3,11.4 -2.1,4.2 -5.4,7.8 -8,11.7 -2.2,3.3 -4.3,6.8 -6.4,10.1 -0.4,0.7 -1,1.2 -1.9,1.6 4,-11.8 11.3,-21.8 17.8,-32.8 -1.7,-0.8 -3.2,-1.7 -4.9,-2.3 -6.4,-2.3 -10,-0.4 -12.6,5.8 -5.3,12.3 -10.8,24.4 -16.2,36.6 -1.5,3.5 -3,7 -4.6,10.8 2.9,-1.7 6,-3.5 9,-5.3 7.5,-4.6 15.1,-9.3 22.6,-14 0.7,-0.4 1.4,-1 1.8,-1.7 11,-17.7 25.4,-32.8 38.6,-48.9 6.7,-8.1 13,-16.7 19.3,-25.1 1.1,-1.4 1.5,-3.4 2.5,-5.7 1.2,4.7 -0.5,8.4 -2.7,11.4 -7.1,9.4 -14.4,18.6 -21.8,27.8 -5.2,6.4 -10.6,12.7 -16,19.1 0.6,1.1 1.2,2.2 1.9,3.4 4.9,-2.1 8.4,1.3 11.7,3.6 11.5,8.2 17.6,20.1 20.6,33.6 0.5,2.2 0.6,4.8 1.7,6.7 1.8,3.1 0.8,4.4 -2.5,6.1 2.6,0.8 5.3,2.4 7.9,2.3 2.2,-0.1 4.3,-2.1 6.8,-3.5 -0.7,2.1 -1.5,4.4 -2.2,6.5 22.8,0.5 46.5,-5.1 69.9,0.3 0,0.7 0,1.3 0,2 -5.2,0 -10.5,-0.1 -15.7,0 -14,0.4 -27.9,0.7 -41.9,1.3 -8,0.4 -15.2,-2 -22.1,-5.6 -2.6,-1.3 -3.9,-3.4 -4.4,-6.9 -2.7,-18.9 -10,-35.2 -28.2,-45 0.1,0.6 0.1,1 0.2,1.4 0.1,0.4 0.3,0.8 0.4,1.2 -0.3,0.2 -0.6,0.5 -0.9,0.7 -1.4,-1.9 -2.8,-3.8 -4.6,-6.3 -4.9,6.3 -9.4,12 -13.9,17.7 0.2,0.3 0.4,0.7 0.7,1 6.3,-2.5 12.6,-5.1 19,-7.7 -0.2,0.4 -0.2,1.2 -0.7,1.6 -3.4,2.7 -6.7,5.4 -11.5,5 -1.2,-0.1 -2.6,1.3 -3.9,2.1 -8.2,4.4 -16.5,8.7 -24.5,13.3 -4.7,2.7 -9.1,6 -13.5,9.5 6.7,-1.7 13.4,-3.5 20.2,-5.1 1,-0.3 2.2,0.1 3.3,0.1 1.2,0 2.4,0.1 3.5,-0.2 1.4,-0.4 2.8,-1.1 4.1,-1.7 0.1,0.4 0.3,0.7 0.4,1.1 -11.7,3.5 -23.4,7 -35.3,10.6 4.4,5.9 13.8,7.2 16.1,2.1 0.7,3.5 2.8,3.4 5.5,3.5 7.8,0.4 14.8,-2.3 22,-4.5 2.8,-0.9 5.6,-1.5 8.5,-1.8 1.3,-0.2 3,0.2 4,0.9 5,3.6 10.1,6.3 16.5,4.4 0.3,-0.1 0.7,0 1.1,0.1 0.3,0.1 0.6,0.2 1,0.3 -6.5,4.8 -12.6,3.9 -18.9,-0.4 -1.9,-1.3 -5.1,-1.4 -7.5,-0.9 -3.9,0.7 -7.6,2.8 -11.5,3.4 -5.8,1 -11.7,1.4 -17.6,1.7 -2.2,0.1 -3.7,0.4 -5.2,2.2 -6.5,7.3 -13.3,14.4 -20,21.6 -0.4,0 -0.8,-0.1 -1.3,-0.1 -0.3,-1.3 -1.1,-2.7 -0.8,-3.8 0.6,-2.5 1.5,-4.8 2.6,-7.1 2.2,-5 4.6,-9.9 6.9,-14.8 -1.1,-3.2 -8,-3.3 -4.4,-9 -18.2,-1.1 -36.3,0.2 -54.1,-1.9 -0.2,-0.4 -0.2,-1 -0.2,-1.7 z m 68.5,14.6 c -3.1,-0.2 -5.6,-0.4 -8.4,-0.6 -0.2,1.4 -0.6,2.5 -0.6,3.7 0,1.3 0.2,2.6 0.4,3.8 3.1,0.4 3.3,0.3 8.6,-6.9 z"
       id="path2847"
       inkscape:connector-curvature="0" />
    <path
       d="m -115.2486,1124.6244 c -1.9,2.4 -39.1,1 -49.8,-1.7 6.6,28.4 15.9,56.1 18.4,85.3 -0.3,0.1 -0.6,0.2 -0.9,0.3 -1.3,-3.3 -2.8,-6.5 -3.8,-9.9 -8.6,-30.7 -15.8,-61.9 -26,-92.1 -16.5,-49.1 -46.3,-88.6 -91,-116.09999 -1.8,-1.1 -3.6,-2.1 -5.1,-3.5 -0.7,-0.6 -0.8,-1.8 -1.1,-2.7 0.9,-0.1 2.1,-0.6 2.8,-0.2 4.5,2.1 9.1,4.1 13.3,6.7 11.4,7.1 21.8,15.29999 31.7,24.39999 13.1,12.1 23.7,25.9 32.9,41.1 8.1,13.4 15.5,27.2 20.8,42 2,5.7 4.1,11.5 5.4,17.3 0.9,4 3.2,4.7 6.6,4.8 12,0.5 24,0.9 36,1.7 3.3,0.3 6.4,1.7 9.8,2.6 z"
       id="path2849"
       inkscape:connector-curvature="0" />
    <path
       d="m -217.2486,1013.4244 c 34.9,0 69.4,-0.3 103.9,0.2 9.5,0.1 18.999995,2.1 28.499995,3.5 4.2,0.6 10.7,8.5 10.9,14 0.7,15.4 1.1,30.8 1.2,46.2 0.1,10.5 -0.1,21 -1.1,31.3 -1.5,15.7 -3.9,31.3 -6,46.9 -1.3,10.2 -2.7,20.5 -4.2,30.7 -0.4,2.8 -1.5,5.6 -2.4,8.8 -4.7,-4.6 -2.7,-9.4 -2.3,-13.6 1.2,-12.9 3.5,-25.7 4.9,-38.7 1.7,-15.7 3.3,-31.4 4.2,-47.2 1,-16.7 1.3,-33.5 1.6,-50.3 0.1,-6.4 -0.1,-12.8 -0.5,-19.2 -0.2,-4 -2.9,-6.2 -7.1,-6.3 -34.799995,-0.8 -69.499995,-1.5 -104.299995,-2.3 -6.8,-0.2 -13.6,-0.4 -20.4,-0.7 -2.6,0 -5.5,0.2 -6.9,-3.3 z"
       id="path2851"
       inkscape:connector-curvature="0" />
    <path
       d="m -386.0486,979.92441 c -9.5,-9 -20.4,-15.3 -34,-17.9 6.7,13.5 4.9,27.2 4.8,40.79999 -0.5,0.1 -1.1,0.2 -1.6,0.3 -1.1,-4.59999 -2.6,-9.09999 -3.4,-13.69999 -1,-5.7 -1,-11.6 -2.2,-17.3 -1.3,-6 -3.8,-11.7 -10.8,-13.2 -10,-9 -23.4,-11.5 -34.5,-18.4 -5.3,-3.3 -10.9,-6 -17.5,-4 -0.5,0.1 -1.8,-0.7 -1.9,-1.1 -0.1,-0.8 0.3,-2.2 0.9,-2.4 2.5,-0.9 5,-1.5 7.6,-2.1 1.4,-0.3 2.8,-0.3 4.3,-0.5 -6,-2.5 -11.9,-4.4 -17.2,-7.4 -9.3,-5.2 -14,-13.3 -13.4,-24.4 0.4,-6.1 3.2,-10.7 9.2,-11.4 7.1,-0.9 14.3,-1.2 21.4,-0.5 7.4,0.7 12.2,7.1 12.4,14.4 0,0.9 -0.7,2.1 -1.5,2.5 -0.5,0.3 -1.8,-0.3 -2.4,-0.9 -0.8,-0.7 -1.4,-1.7 -1.8,-2.7 -2.5,-6.4 -8,-7.3 -13.8,-7.2 -4.2,0.1 -8.5,0.4 -12.6,1.3 -1.4,0.3 -3.2,2.3 -3.5,3.8 -1.5,7.3 1.2,13.5 7.4,17.3 5.7,3.5 12.2,5.8 18.3,8.8 2.7,1.3 4.8,1.5 7.8,-0.3 6.6,-3.9 13.5,-2.7 20.2,0.1 0,0.4 0.1,0.9 0.1,1.3 -2.3,0.3 -4.5,1 -6.8,0.9 -7.5,-0.3 -13.2,1.3 -20.2,6.2 3.7,1.9 7.1,3.8 10.6,5.5 10.6,5.3 21.2,10.8 31.9,15.8 3.2,1.5 7,1.9 10.6,2.4 10.9,1.6 20.2,6.1 27.5,14.4 2.2,2.4 3.5,5.6 5.2,8.4 -0.4,0.6 -0.7,0.9 -1.1,1.2 z"
       id="path2853"
       inkscape:connector-curvature="0" />
    <path
       d="m -301.8486,817.52441 c 0.3,0.4 0.5,0.7 1.4,1.8 -11.4,-2.8 -22,-4.9 -32.4,-8.1 -16,-4.9 -31.8,-10.4 -47.6,-15.9 -13.4,-4.70001 -27,-6.80001 -42.1,-5.30001 1.9,1.2 3.1,2.2 4.5,2.9 4.8,2.20001 9.7,4.30001 14.7,6.40001 1.8,0.7 3.7,1.4 3,3.8 -0.8,2.5 -2.7,2.2 -4.8,1.5 -7.5,-2.4 -15,-4.9 -22.6,-6.9 -5.2,-1.4 -10.5,-1.1 -15.8,0.9 6.7,3.8 13.2,7.4 19.6,11.3 1.8,1.1 3.4,2.7 4.9,4.3 0.6,0.6 1,2.2 0.7,2.8 -0.5,0.7 -1.9,1.2 -2.8,1.1 -2.2,-0.3 -4.5,-0.9 -6.6,-1.7 -13.6,-5 -27.8,-6.5 -42.5,-7.2 4,4 7.5,8 11.5,11.4 4,3.4 8.5,6.1 13.2,9.4 -1.1,0.7 -1.6,1.3 -1.8,1.2 -11.4,-4.4 -21.3,-11 -29.3,-20.2 -1.1,-1.3 -1.9,-4.2 -1.3,-5.5 0.7,-1.3 3.4,-2.3 5.2,-2.3 11.8,0 23.5,1.7 34.9,4.5 1.2,0.3 2.3,0.4 3.5,0.6 0.1,-0.3 0.2,-0.7 0.3,-1 -4.3,-1.4 -8.5,-2.8 -12.8,-4.3 -0.8,-0.3 -1.7,-0.4 -2.4,-0.7 -3.4,-1.5 -3.7,-4.1 -0.9,-6.4 3.9,-3.30001 8.7,-4.10001 13.6,-4.40001 1.9,-0.1 3.9,0 5.8,0 -0.6,-5.4 0,-6.3 5.3,-6.8 10.9,-1 21.8,-1.3 32.5,1.6 7.6,2.1 15,4.7 22.5,7.1 15.7,5.10001 31.4,10.10001 47,15.40001 7.3,2.5 14.4,5.8 21.6,8.7 l 0,0 z"
       id="path2855"
       inkscape:connector-curvature="0" />
    <path
       d="m -509.2486,1214.6244 c 22.1,0.6 43.6,1.7 65.2,1.7 25.1,-0.1 50.1,-0.2 75,3.1 8.6,1.2 17.4,1.1 26.2,1.6 8,0.5 16,1 23.9,1.5 2.5,0.2 5,0.4 7.8,0.7 7.8,-11.3 15.9,-22.9 24.3,-35.1 -2.6,-0.3 -3.9,-0.5 -5.3,-0.7 -0.1,-0.3 -0.1,-0.5 -0.2,-0.8 1.9,-0.8 3.8,-1.8 5.8,-2.2 0.5,-0.1 1.9,1.4 2.1,2.3 0.8,4.8 -2.1,8.7 -4.5,12.3 -4.9,7.6 -10.6,14.8 -15.8,22.2 -0.6,0.8 -0.4,2.4 -1.1,3 -1.2,1 -2.9,2.3 -4.3,2.2 -10.9,-0.3 -21.8,-0.8 -32.7,-1.5 -23.8,-1.7 -47.6,-4.1 -71.5,-5.1 -18.4,-0.8 -37,0.2 -55.4,-0.3 -11.8,-0.4 -23.7,-2.1 -35.5,-3.4 -1.3,-0.1 -2.5,-0.9 -4,-1.5 z"
       id="path2857"
       inkscape:connector-curvature="0" />
    <path
       d="m -344.0486,1047.8244 c -3.9,6.5 -7.6,12.9 -11.4,19.2 -0.4,-0.1 -0.8,-0.3 -1.3,-0.4 0.3,-2 0.3,-4.1 1,-6 2.2,-5.9 4.7,-11.6 7.2,-17.4 1.5,-3.5 5.2,-3.7 7.9,-0.9 4.7,4.9 8.7,10.3 11.4,16.6 0.1,0.3 0.3,0.7 0.6,0.9 1.4,1.1 2.8,2.1 4.2,3.1 0.6,-1.4 1.6,-2.7 1.8,-4.1 2.1,-12.3 4.2,-24.6 6.1,-37 1.4,-8.8 2.4,-17.5 3.6,-26.29999 0.1,-0.8 0.1,-1.7 -0.3,-2.5 -1.3,-2.9 0,-4.4 2.6,-5.2 2.9,-0.8 4.7,0.9 4.8,3.5 0.1,4.1 -0.4,8.2 -1,12.29999 -2.1,13.3 -4.4,26.6 -6.6,39.9 -0.9,5.6 -1.7,11.2 -2.6,16.8 -0.7,3.9 -1.8,7.8 -6.3,8.8 -3.7,0.8 -9.6,-3 -11.6,-7.4 -2.3,-5 -4.9,-10.1 -10.1,-13.9 z"
       id="path2859"
       inkscape:connector-curvature="0" />
    <path
       d="m -234.3486,842.12441 c 3.7,0.8 7.6,1.2 11.2,2.3 10.7,3.3 12.1,14.7 7.3,22.5 -5.9,9.6 -13.6,17.6 -21.8,25.1 -0.5,0.4 -2.3,0.2 -2.7,-0.3 -1.3,-2 -1.5,-3.9 0.5,-6.1 6.1,-6.8 12,-13.6 17.6,-20.8 4.8,-6.1 3.4,-13.6 -6.4,-15.4 -9.7,-1.7 -17.4,1.7 -24.2,8 -2.2,2 -2.4,4.3 -0.5,6.7 0.7,0.8 1.4,1.8 1.6,2.8 0.1,0.8 -0.3,1.9 -0.9,2.5 -0.4,0.3 -1.8,0.2 -2.2,-0.2 -2.1,-2.2 -4.4,-4.3 -5.8,-6.9 -1.9,-3.6 0.6,-6.8 3,-9 6.5,-6 13.5,-11.3 23.3,-11.2 z"
       id="path2861"
       inkscape:connector-curvature="0" />
    <path
       d="m -103.4486,1043.7244 c -8,-0.4 -15.3,-1.1 -22.6,-1.2 -17.5,-0.4 -35,-0.2 -52.5,-0.9 -7.5,-0.3 -15,-2.2 -22.5,-3.5 -0.8,-0.2 -1.4,-1.7 -2.1,-2.6 1.1,-0.7 2.4,-2.2 3.3,-2 14.2,3.2 28.7,2.8 43,3.1 14.5,0.3 28.9,0.1 43.4,0.4 2.7,0.1 5.5,1 7.8,2.4 1.4,0.6 1.7,3.1 2.2,4.3 z"
       id="path2863"
       inkscape:connector-curvature="0" />
    <path
       d="m -400.1486,889.02441 c -9.4,-1.6 -18.8,-3.2 -28.2,-5 -2.8,-0.5 -4.8,-0.9 -7,1.8 -1.4,1.7 -4,2.9 -6.2,3.4 -4.2,1.1 -6.3,-0.7 -7.2,-5 -0.9,-4.5 -1.4,-8.9 1.9,-12.7 0.8,-0.9 3.5,-1.4 4.1,-0.8 5.4,5.5 12.6,6.4 19.5,8.2 6.3,1.7 12.7,3.2 18.9,5.1 1.8,0.5 3.2,2.1 4.8,3.2 -0.2,0.6 -0.4,1.2 -0.6,1.8 z m -44.4,-11.8 c -0.2,0.2 -0.5,0.3 -0.7,0.5 0.7,1.9 1.4,3.8 2.3,6.2 1.8,-1.2 3.1,-2.1 4.6,-3.1 -2.3,-1.3 -4.2,-2.5 -6.2,-3.6 z"
       id="path2865"
       inkscape:connector-curvature="0" />
    <path
       d="m -95.148605,1102.2244 c -1.2,0.5 -2.1,1.3 -2.8,1.1 -10.599995,-2.6 -20.999995,-0.3 -31.399995,1.7 -10.9,2 -21.7,3.9 -32.8,3 -2,-0.2 -4.1,-0.7 -5.7,-1.8 -0.8,-0.6 -0.6,-2.8 -0.8,-4.2 1.1,0 2.2,-0.1 3.3,0 2.9,0.4 5.9,1.7 8.7,1.4 10.1,-1.1 20.1,-2.9 30.2,-4.2 7.3,-0.9 14.7,-1.8 22,-2 2.5,-0.1 5.099995,1.8 7.599995,2.9 0.6,0.1 0.9,1 1.7,2.1 z"
       id="path2867"
       inkscape:connector-curvature="0" />
    <path
       d="m -457.2486,902.22441 c -0.6,-2.2 -1.8,-4.5 -1.6,-6.6 0.8,-8.9 1.9,-17.8 3.2,-26.7 1.2,-8 2.7,-15.9 4,-23.9 0.2,-1.3 0.1,-2.7 -0.2,-4 -0.7,-2.3 0.4,-3.5 2.2,-3.6 0.8,-0.1 2.5,1.5 2.6,2.5 0.4,4.4 1,9 0.5,13.4 -1.4,10.5 -3.3,21 -5.2,31.5 -1.1,5.8 -2.7,11.4 -4.1,17.1 -0.5,0.1 -1,0.2 -1.4,0.3 z"
       id="path2869"
       inkscape:connector-curvature="0" />
    <path
       d="m -113.4486,1201.7244 c -0.5,-1 -1.2,-1.9 -1.4,-2.9 -1.7,-10.7 1.7,-20.9 2.3,-31.4 0.8,-12.6 0.5,-25.2 0.7,-37.8 0,-1.3 -0.6,-2.7 -0.9,-4.1 0.4,-0.2 0.8,-0.3 1.2,-0.5 0.7,1.1 1.7,2.1 1.9,3.3 1.1,5.6 2.4,11.1 2.8,16.8 1,13.3 -0.8,26.4 -3.1,39.5 -0.9,5 -1.3,10.1 -2,15.1 -0.1,0.6 -0.4,1.1 -0.6,1.6 -0.3,0.1 -0.6,0.2 -0.9,0.4 z"
       id="path2871"
       inkscape:connector-curvature="0" />
    <path
       d="m -352.1486,903.42441 c -0.6,2.7 -1.8,3.6 -4.3,2.9 -5.6,-1.6 -11.2,-2.9 -16.7,-4.5 -1.9,-0.6 -3,-0.4 -4.7,0.9 -3.2,2.4 -6.9,4.4 -10.7,5.9 -3.1,1.2 -5.4,-1 -5.1,-4.4 0.3,-3.2 1,-6.4 1.3,-9.6 0.1,-1.5 -0.4,-3 -0.8,-5 14,4.7 27.4,9.2 41,13.8 z m -28.8,-4.4 c -3.3,-1.4 -5.9,-2.5 -9.5,-4 0.7,3.2 1.3,5.6 1.9,8.3 2.6,-1.5 4.8,-2.8 7.6,-4.3 z"
       id="path2873"
       inkscape:connector-curvature="0" />
    <path
       d="m -509.8486,830.82441 c 2.6,-3.5 4.8,-6.4 7,-9.3 0.5,-0.7 1,-1.6 1.6,-1.9 1.5,-0.7 3.2,-1.2 4.8,-1.7 0.3,1.6 1.1,3.2 0.8,4.7 -0.7,4.1 -2.2,8 -2.9,12 -0.4,2.5 0.1,5.2 -0.1,7.8 -0.1,1 -1,1.9 -1.5,2.9 -0.9,-0.7 -2.3,-1.2 -2.6,-2.1 -1.5,-5.3 0.5,-10.3 1.6,-15.3 0.2,-0.8 0.3,-1.6 0,-2.7 -2.5,3.4 -4.9,6.9 -7.6,10.1 -0.9,1.1 -2.5,1.5 -3.8,2.3 -0.4,-1.4 -1.2,-2.8 -1.1,-4.1 0.6,-5.3 1.7,-10.5 2.3,-15.8 0.7,-6.5 0.9,-13 1.4,-19.5 0.3,-3.50001 0.7,-6.90001 1.6,-10.40001 2.8,6.9 1.1,14.10001 1,21.10001 0,7.1 -1.5,14.1 -2.5,21.9 z"
       id="path2875"
       inkscape:connector-curvature="0" />
    <path
       d="m -104.5486,1094.4244 c 1.1,-8.3 2.3,-16.6 3.3,-25 0.9,-8.2 -1.6,-16.4 0,-24.7 3.499995,11 6.299995,22.1 3.999995,33.7 -0.9,4.7 -2,9.5 -2.7,14.3 -0.599995,3.5 -1.899995,3.8 -4.599995,1.7 z"
       id="path2877"
       inkscape:connector-curvature="0" />
    <path
       d="m -802.7486,834.22441 c 2.6,-3.1 5,-5.8 7.3,-8.6 0.9,-1.1 2.1,-2.3 2.4,-3.6 0.5,-2.6 0.4,-5.3 0.6,-8 -2.5,0.2 -5.5,-0.3 -7.4,0.9 -4.8,2.9 -9,6.6 -13.1,9.6 0.1,-2 1.9,-5.1 6.2,-9 3.6,-3.3 7.4,-6.2 12.8,-6.1 3.8,0 6,1.8 6.6,5.6 0.6,4.7 -0.5,9 -3.8,12.4 -2.8,2.9 -5.1,6.7 -9.8,6.8 -0.7,0.1 -1.3,0 -1.8,0 z"
       id="path2879"
       inkscape:connector-curvature="0" />
    <path
       d="m -274.6486,953.42441 c -4.2,-0.6 -8,-1.1 -11.7,-1.7 -6.2,-1.1 -11.4,0.3 -15.8,5.1 -3,3.3 -6.3,6.4 -9.6,9.4 -0.6,0.6 -1.8,0.4 -2.8,0.6 0.3,-0.8 0.4,-1.8 0.9,-2.4 3.5,-4.3 7,-8.7 10.7,-12.8 4.7,-5.2 10.9,-5.5 17.1,-4.2 3.5,0.7 6.8,2.7 10.1,4.3 0.5,0 0.7,0.8 1.1,1.7 z"
       id="path2881"
       inkscape:connector-curvature="0" />
    <path
       d="m -503.0486,1212.2244 c -0.7,-0.5 -1.5,-0.8 -1.6,-1.2 -0.1,-0.5 0.1,-1.5 0.5,-1.8 10.2,-7.1 15.9,-18.4 24.4,-27.1 1.3,-1.3 2.1,-3.2 3.2,-4.8 0.5,-0.7 1.2,-1.3 1.9,-2 0.3,1 1.1,2.3 0.8,3 -1.1,2.3 -2.5,4.5 -4.1,6.4 -5.8,7.1 -11.5,14.3 -17.6,21.2 -2,2.5 -4.9,4.2 -7.5,6.3 z"
       id="path2883"
       inkscape:connector-curvature="0" />
    <path
       d="m -363.5486,1098.1244 c -3.4,0.9 -5,-1.9 -5.7,-4.1 -0.7,-2.1 0,-4.9 0.5,-7.3 0.1,-0.4 2,-0.6 3.1,-0.7 0.7,-0.1 1.5,0 2.3,0.2 2.7,0.8 5.6,1.4 8.1,2.7 0.7,0.4 0.8,3.1 0.3,4.5 -1.1,3.4 -4.1,4.4 -7.3,4.9 -0.4,0.1 -0.8,-0.1 -1.3,-0.2 z m 4,-5.2 c 0,-0.5 -0.1,-1 -0.1,-1.5 -2.2,-0.5 -4.4,-1 -6.6,-1.5 -0.2,0.3 -0.4,0.7 -0.6,1 0.9,1.2 1.6,3.1 2.7,3.3 1.3,0.2 3,-0.8 4.6,-1.3 z"
       id="path2885"
       inkscape:connector-curvature="0" />
    <path
       d="m -504.0486,774.1244 c 6.5,10.4 13,20.7 19.5,31.10001 -6.4,-1.5 -20.6,-24.00001 -20.4,-30.50001 0.3,-0.2 0.6,-0.4 0.9,-0.6 z"
       id="path2887"
       inkscape:connector-curvature="0" />
    <path
       d="m -534.6486,845.42441 c 8.4,4.7 19.2,3.9 26.5,12.1 -3.8,-1.1 -7.3,-1.9 -10.7,-3.1 -4.8,-1.7 -9.5,-3.5 -14.2,-5.5 -1,-0.4 -1.8,-1.6 -2.7,-2.4 0.4,-0.3 0.7,-0.7 1.1,-1.1 z"
       id="path2889"
       inkscape:connector-curvature="0" />
    <path
       d="m -795.8486,799.42441 c -3.7,-1 -4.6,-3 -4.2,-6.30001 0.3,-1.8 -0.5,-3.8 -0.3,-5.7 0.1,-1.1 1,-2.2 1.5,-3.3 0.9,0.6 2.1,1 2.6,1.9 2.4,4.3 1.4,8.8 0.4,13.40001 z"
       id="path2891"
       inkscape:connector-curvature="0" />
    <path
       d="m -235.9486,912.32441 c -4.3,-0.1 -6.8,-2.1 -6.5,-4.4 0.4,-2.8 2.4,-4.1 5.1,-4.1 2.8,0 5.4,2.1 4.7,4.2 -0.6,1.8 -2.4,3.3 -3.3,4.3 z"
       id="path2893"
       inkscape:connector-curvature="0" />
    <path
       d="m -298.3486,956.42441 c -0.4,1.5 -1.6,3.4 -1.1,4.2 0.6,1 2.6,1.2 4.1,1.5 1.3,0.2 2.8,-0.2 3.9,0.3 1.1,0.5 2.1,1.8 2.6,3 0.2,0.6 -0.8,1.8 -1.2,2.7 -1,-0.6 -1.8,-1.3 -2.9,-1.7 -1.6,-0.6 -3.4,-0.8 -4.9,-1.6 -1.6,-0.8 -4.2,-2 -4.3,-3.1 -0.1,-1.7 1.6,-3.4 2.7,-5.1 0.3,-0.4 1.1,-0.2 1.1,-0.2 z"
       id="path2895"
       inkscape:connector-curvature="0" />
    <path
       d="m -809.1486,800.72441 c -3.7,-1.2 -3.3,-3.9 -3.2,-6.60001 0.1,-2.6 0,-5.2 0,-7.8 4,0.3 5.7,7.9 3.2,14.40001 z"
       id="path2897"
       inkscape:connector-curvature="0" />
    <path
       d="m -366.7486,1116.1244 c 1.9,-0.6 3.9,-1.9 5.8,-1.8 1.5,0.1 3.2,1.7 4,3.2 0.3,0.6 -1.2,3.3 -2.1,3.4 -1.7,0.1 -3.7,-0.6 -5.3,-1.5 -1,-0.5 -1.5,-1.9 -2.4,-3.3 z"
       id="path2899"
       inkscape:connector-curvature="0" />
    <path
       d="m -333.1486,949.42441 c 4.3,-7.4 2.6,-15.7 3.2,-24.4 3.2,6.9 1.4,20.1 -3.2,24.4 z"
       id="path2901"
       inkscape:connector-curvature="0" />
    <path
       class="st0"
       d="m -581.5486,965.52441 c -6.1,3.8 -12.2,7.4 -18.2,11.3 -7.9,5.2 -16,10.2 -23.4,16.1 -5.4,4.4 -11.4,3.8 -17.3,3.9 -30.9,0.2 -61.8,0.2 -92.7,0.3 -34.8,0.2 -69.6,0.5 -104.4,1 -20.3,0.3 -40.6,0.6 -60.9,1.5 -14.1,0.59999 -28.1,2.29999 -42.1,3.59999 -15.4,1.4 -30.7,2.4 -46.1,4.2 -10.6,1.2 -21.1,3.3 -31.4,5 4.8,-13.39999 9.8,-27.19999 14.8,-41.29999 0.3,0.2 1,0.5 1.7,0.9 7,4.4 14.7,6.6 22.9,7.3 16,1.4 31.8,-1.6 47.6,-2.8 24.4,-1.8 48.7,-3.9 73.1,-4.8 30.6,-1.1 61.3,-1 92,-1.5 12.9,-0.2 25.8,-1.1 38.6,-1.4 1.5,0 2.9,1.1 4.4,1.5 1,0.2 2.2,0.2 3.1,0 1.6,-0.4 3.2,-1.6 4.8,-1.7 16.5,-0.3 33.1,-0.4 49.6,-0.5 19.7,-0.2 39.4,-0.2 59.1,-0.8 8.1,-0.2 16.2,-1.6 24.2,-2.4 0.4,0.1 0.5,0.3 0.6,0.6 z"
       id="path2903"
       inkscape:connector-curvature="0"
       style="fill:#ffffff" />
    <path
       class="st0"
       d="m -782.4486,835.32441 c 2.3,-2.3 4.3,-5.6 7.1,-6.7 8,-3.2 16.1,-3.5 24.8,-0.5 4.9,1.7 8.4,4.7 12.6,7.1 0.5,0.3 1,0.7 1.3,1.3 1.8,4 3.7,8 5.1,12.1 2.2,6.6 1.1,12.7 -1.3,19.4 -2.8,8 -8.9,11.5 -15.3,15 -10.6,5.8 -29.9,6.6 -41.7,-3.9 -4.5,-4 -6.6,-8.8 -6.5,-15.1 0.2,-11.6 4.9,-20.7 13.4,-28.2 0.1,1.6 0.2,3.1 0.3,4.7 0.3,7.1 0.6,14.2 0.8,21.3 0.2,5.7 -0.8,11.5 1.3,16.8 1.9,-1.1 3.5,-2.1 5.2,-3 3.2,-1.7 6.7,-2.9 9.5,-5.1 4.9,-3.8 9.4,-8.1 14.1,-12.1 0.4,-0.4 0.9,-0.9 1.4,-1 2.3,-0.6 6.9,-4.9 6.2,-6.7 -1,-2.7 -2.6,-6 -4.9,-7.1 -4,-1.9 -8.7,-2.2 -13.1,-3.3 -3,-0.7 -6,-1.6 -9.1,-2.4 -3.9,-0.9 -7.6,-1.7 -11.2,-2.6 z"
       id="path2905"
       inkscape:connector-curvature="0"
       style="fill:#ffffff" />
    <path
       d="m -782.4486,835.32441 c 3.7,0.9 7.4,1.7 11,2.6 3,0.8 6,1.6 9.1,2.4 4.4,1.1 9.1,1.4 13.1,3.3 2.3,1.1 4,4.4 4.9,7.1 0.7,1.9 -3.9,6.2 -6.2,6.7 -0.5,0.1 -1,0.7 -1.4,1 -4.7,4.1 -9.2,8.4 -14.1,12.1 -2.8,2.2 -6.4,3.4 -9.5,5.1 -1.7,0.9 -3.3,1.9 -5.2,3 -2.1,-5.4 -1.2,-11.1 -1.3,-16.8 -0.2,-7.1 -0.5,-14.2 -0.8,-21.3 -0.1,-1.6 -0.2,-3.1 -0.3,-4.7 0.3,-0.2 0.5,-0.3 0.7,-0.5 z m 4.3,37.4 c 0.4,0.2 0.8,0.3 1.2,0.5 2,-1.5 4.1,-2.9 6,-4.6 6.1,-5.4 12.1,-10.8 18.1,-16.3 0.9,-0.8 1.8,-2.2 1.7,-3.2 -0.2,-0.9 -1.7,-1.8 -2.8,-2.1 -8.2,-2.2 -16.5,-4.2 -24.2,-6.2 0,10.5 0,21.2 0,31.9 z"
       id="path2907"
       inkscape:connector-curvature="0" />
    <path
       class="st0"
       d="m -757.2486,889.32441 c -3.1,5.1 -25.3,0.9 -31.8,-6 4.8,1.6 9.9,4 15.3,5 5.4,1.1 11,0.7 16.5,1 z"
       id="path2909"
       inkscape:connector-curvature="0"
       style="fill:#ffffff" />
    <path
       class="st0"
       d="m -836.6486,758.7244 c 7.7,-1.8 15.3,-3.5 23,-5.3 0.1,0.4 0.2,0.9 0.3,1.3 -7.6,2 -15.2,4 -22.8,6 -0.2,-0.7 -0.4,-1.3 -0.5,-2 z"
       id="path2911"
       inkscape:connector-curvature="0"
       style="fill:#ffffff" />
    <path
       class="st0"
       d="m -741.7486,883.12441 c 3,-3.8 6.1,-7.5 9.3,-11.5 -0.1,4.1 -3.5,9.1 -8.1,12.3 -0.4,-0.2 -0.8,-0.5 -1.2,-0.8 z"
       id="path2913"
       inkscape:connector-curvature="0"
       style="fill:#ffffff" />
    <path
       class="st0"
       d="m -469.0486,1262.6244 c 5.1,0 10.1,0 15.2,0 0,0.1 0,0.2 0,0.4 -5.1,0 -10.1,0 -15.2,0 0,-0.2 0,-0.3 0,-0.4 z"
       id="path2915"
       inkscape:connector-curvature="0"
       style="fill:#ffffff" />
    <path
       class="st0"
       d="m -465.7486,1012.4244 c 12,8.3 25,8.2 37.9,6.8 5.9,-0.6 11.8,-2.5 17.6,-3.8 0.5,-0.1 1.2,0.3 1.7,0.5 2.3,0.7 4.6,1.4 7.5,2.2 -0.3,4.1 -0.5,9 -1,14 -0.1,0.8 -1.1,1.9 -1.9,2.1 -19.7,6.9 -39.2,6.9 -58.7,-0.9 -0.3,-0.1 -0.7,-0.3 -1,-0.4 -5.7,-2.2 -5.8,-2.2 -4.9,-8.7 0.7,-3.9 1.9,-7.7 2.8,-11.8 z"
       id="path2917"
       inkscape:connector-curvature="0"
       style="fill:#ffffff" />
    <path
       class="st0"
       d="m -466.2486,1037.1244 c -4.3,-0.3 -4.2,3.1 -4.8,5.8 -0.3,1.4 -0.1,2.9 -0.1,4.4 -2.6,-0.9 -2.6,-1.6 -0.7,-8.4 1,-3.6 3.5,-1.9 5.6,-1.8 -0.1,0 0,0 0,0 z"
       id="path2919"
       inkscape:connector-curvature="0"
       style="fill:#ffffff" />
    <path
       class="st0"
       d="m -333.0486,1177.0244 c -5.3,7.2 -5.4,7.3 -8.6,6.9 -0.1,-1.3 -0.4,-2.5 -0.4,-3.8 0,-1.1 0.3,-2.2 0.6,-3.7 2.7,0.2 5.3,0.4 8.4,0.6 z"
       id="path2921"
       inkscape:connector-curvature="0"
       style="fill:#ffffff" />
    <path
       class="st0"
       d="m -444.5486,877.22441 c 1.9,1.1 3.9,2.3 6.2,3.6 -1.5,1 -2.8,1.9 -4.6,3.1 -0.9,-2.4 -1.6,-4.3 -2.3,-6.2 0.2,-0.2 0.5,-0.3 0.7,-0.5 z"
       id="path2923"
       inkscape:connector-curvature="0"
       style="fill:#ffffff" />
    <path
       class="st0"
       d="m -380.9486,899.02441 c -2.8,1.6 -5,2.8 -7.6,4.3 -0.6,-2.7 -1.1,-5.1 -1.9,-8.3 3.6,1.5 6.2,2.6 9.5,4 z"
       id="path2925"
       inkscape:connector-curvature="0"
       style="fill:#ffffff" />
    <path
       class="st0"
       d="m -359.5486,1092.9244 c -1.6,0.5 -3.3,1.6 -4.7,1.3 -1,-0.2 -1.8,-2.1 -2.7,-3.3 0.2,-0.3 0.4,-0.7 0.6,-1 2.2,0.5 4.4,1 6.6,1.5 0.1,0.5 0.2,1 0.2,1.5 z"
       id="path2927"
       inkscape:connector-curvature="0"
       style="fill:#ffffff" />
    <path
       class="st0"
       d="m -778.1486,872.72441 c 0,-10.7 0,-21.4 0,-31.9 7.7,2 16,4 24.2,6.2 1.1,0.3 2.6,1.3 2.8,2.1 0.2,0.9 -0.8,2.4 -1.7,3.2 -6,5.5 -12,10.9 -18.1,16.3 -1.9,1.7 -4,3.1 -6,4.6 -0.4,-0.2 -0.8,-0.3 -1.2,-0.5 z"
       id="path2929"
       inkscape:connector-curvature="0"
       style="fill:#ffffff" />
  </g>
</svg>
